<svg width="38" height="38" viewBox="0 0 38 38" fill="none" xmlns="http://www.w3.org/2000/svg">
<path d="M5.95693 37H32.0431C34.7777 37 37 34.86 37 32.2267V8.43996C37 5.80664 34.7777 3.66662 32.0431 3.66662H30.0769V2.33331C30.0769 1.59997 29.4538 1 28.6922 1C27.9307 1 27.3076 1.59997 27.3076 2.33331V3.66662H10.6924V2.33331C10.6924 1.59997 10.0692 1 9.30765 1C8.5461 1 7.92306 1.59997 7.92306 2.33331V3.66662H5.95693C3.22233 3.66662 1 5.80664 1 8.43996V32.2267C1 34.86 3.22233 37 5.95693 37ZM3.76929 8.43996C3.76929 7.28 4.75236 6.33335 5.95693 6.33335H7.92306V7.66665C7.92306 8.4 8.5461 8.99996 9.30765 8.99996C10.0692 8.99996 10.6922 8.4 10.6922 7.66665V6.33335H27.3076V7.66665C27.3076 8.4 27.9307 8.99996 28.6922 8.99996C29.4538 8.99996 30.0768 8.4 30.0768 7.66665V6.33335H32.0429C33.2475 6.33335 34.2306 7.28 34.2306 8.43996V32.2267C34.2306 33.3866 33.2475 34.3333 32.0429 34.3333H5.95693C4.75236 34.3333 3.76929 33.3866 3.76929 32.2267V8.43996Z" fill="#F8632D" stroke="#F8632D" stroke-width="0.5"/>
<path d="M11.0384 16.333C11.9942 16.333 12.7691 15.5868 12.7691 14.6664C12.7691 13.7459 11.9942 12.9998 11.0384 12.9998C10.0825 12.9998 9.30762 13.7459 9.30762 14.6664C9.30762 15.5868 10.0825 16.333 11.0384 16.333Z" fill="#F8632D" stroke="#F8632D" stroke-width="0.5"/>
<path d="M18.6536 16.333C19.6095 16.333 20.3843 15.5868 20.3843 14.6664C20.3843 13.7459 19.6095 12.9998 18.6536 12.9998C17.6977 12.9998 16.9229 13.7459 16.9229 14.6664C16.9229 15.5868 17.6977 16.333 18.6536 16.333Z" fill="#F8632D" stroke="#F8632D" stroke-width="0.5"/>
<path d="M26.2698 16.333C27.2257 16.333 28.0005 15.5868 28.0005 14.6664C28.0005 13.7459 27.2257 12.9998 26.2698 12.9998C25.3139 12.9998 24.5391 13.7459 24.5391 14.6664C24.5391 15.5868 25.3139 16.333 26.2698 16.333Z" fill="#F8632D" stroke="#F8632D" stroke-width="0.5"/>
<path d="M11.0384 23C11.9942 23 12.7691 22.2539 12.7691 21.3334C12.7691 20.4129 11.9942 19.6667 11.0384 19.6667C10.0825 19.6667 9.30762 20.4129 9.30762 21.3334C9.30762 22.2539 10.0825 23 11.0384 23Z" fill="#F8632D" stroke="#F8632D" stroke-width="0.5"/>
<path d="M18.6536 23C19.6095 23 20.3843 22.2539 20.3843 21.3334C20.3843 20.4129 19.6095 19.6667 18.6536 19.6667C17.6977 19.6667 16.9229 20.4129 16.9229 21.3334C16.9229 22.2539 17.6977 23 18.6536 23Z" fill="#F8632D" stroke="#F8632D" stroke-width="0.5"/>
<path d="M26.2698 23C27.2257 23 28.0005 22.2539 28.0005 21.3334C28.0005 20.4129 27.2257 19.6667 26.2698 19.6667C25.3139 19.6667 24.5391 20.4129 24.5391 21.3334C24.5391 22.2539 25.3139 23 26.2698 23Z" fill="#F8632D" stroke="#F8632D" stroke-width="0.5"/>
<path d="M11.0384 29.6668C11.9942 29.6668 12.7691 28.9206 12.7691 28.0001C12.7691 27.0797 11.9942 26.3335 11.0384 26.3335C10.0825 26.3335 9.30762 27.0797 9.30762 28.0001C9.30762 28.9206 10.0825 29.6668 11.0384 29.6668Z" fill="#F8632D" stroke="#F8632D" stroke-width="0.5"/>
<path d="M18.6536 29.6668C19.6095 29.6668 20.3843 28.9206 20.3843 28.0001C20.3843 27.0797 19.6095 26.3335 18.6536 26.3335C17.6977 26.3335 16.9229 27.0797 16.9229 28.0001C16.9229 28.9206 17.6977 29.6668 18.6536 29.6668Z" fill="#F8632D" stroke="#F8632D" stroke-width="0.5"/>
<path d="M26.2698 29.6668C27.2257 29.6668 28.0005 28.9206 28.0005 28.0001C28.0005 27.0797 27.2257 26.3335 26.2698 26.3335C25.3139 26.3335 24.5391 27.0797 24.5391 28.0001C24.5391 28.9206 25.3139 29.6668 26.2698 29.6668Z" fill="#F8632D" stroke="#F8632D" stroke-width="0.5"/>
</svg>
