<svg width="36" height="36" viewBox="0 0 36 36" fill="none" xmlns="http://www.w3.org/2000/svg">
<path d="M26 16.5C20.7496 16.5 16.5 20.7489 16.5 26C16.5 27.6663 16.9346 29.2937 17.7598 30.7291L16.5358 34.5302C16.4504 34.7952 16.5206 35.0857 16.7174 35.2826C16.9124 35.4775 17.2022 35.5503 17.4698 35.4642L21.2709 34.2402C22.7063 35.0654 24.3337 35.5 26 35.5C31.2504 35.5 35.5 31.2511 35.5 26C35.5 20.7496 31.2511 16.5 26 16.5ZM26 34.0156C24.4949 34.0156 23.0278 33.5957 21.7572 32.8012C21.5744 32.6869 21.3474 32.6561 21.1362 32.724L18.3923 33.6077L19.276 30.8638C19.3429 30.6556 19.3147 30.4283 19.1987 30.2428C18.4043 28.9722 17.9844 27.5051 17.9844 26C17.9844 21.5802 21.5802 17.9844 26 17.9844C30.4198 17.9844 34.0156 21.5802 34.0156 26C34.0156 30.4198 30.4198 34.0156 26 34.0156Z" fill="#20AEF7" stroke="#20AEF7"/>
<circle cx="22" cy="25.5" r="1" fill="#20AEF7"/>
<circle cx="26" cy="25.5" r="1" fill="#20AEF7"/>
<circle cx="30" cy="25.5" r="1" fill="#20AEF7"/>
<path fill-rule="evenodd" clip-rule="evenodd" d="M14.1068 6.83372C14.3093 6.6252 14.586 6.50529 14.8766 6.50017C15.0238 6.49759 15.17 6.52456 15.3065 6.57949C15.4431 6.63442 15.5672 6.7162 15.6716 6.81997C15.776 6.92374 15.8585 7.04741 15.9142 7.18363C15.9699 7.31986 15.9977 7.46589 15.996 7.61306V8.54118C17.7705 8.87635 19.2938 10.0189 19.2938 11.998C19.2938 12.29 19.1778 12.5701 18.9713 12.7766C18.7648 12.9831 18.4848 13.0991 18.1928 13.0991C17.9007 13.0991 17.6207 12.9831 17.4142 12.7766C17.2077 12.5701 17.0917 12.29 17.0917 11.998C17.0917 10.1647 12.7003 10.1647 12.7003 11.998C12.7003 12.823 12.8947 13.0881 13.2997 13.4031C13.7047 13.7181 14.4169 13.9789 15.2419 14.2539C15.2891 14.2696 15.3367 14.2854 15.3846 14.3013C16.1741 14.5632 17.0545 14.8552 17.8393 15.4656C18.2951 15.8201 18.6878 16.3139 18.9499 16.9138C18.2609 17.4492 17.6344 18.0613 17.0832 18.7371C17.0888 18.6927 17.0917 18.647 17.0917 18.6002C17.0917 17.7752 16.8973 17.5101 16.4923 17.1951C16.0872 16.8801 15.3751 16.6172 14.5501 16.3422C14.4992 16.3252 14.4479 16.3082 14.3962 16.2911C13.6096 16.0304 12.7338 15.7402 11.9526 15.1326C11.1201 14.4851 10.5003 13.373 10.5003 11.998C10.5003 10.0159 12.0199 8.87223 13.796 8.53904V7.61306C13.7926 7.32242 13.9043 7.04224 14.1068 6.83372ZM16.4336 19.6155C15.2083 20.3241 12.7003 19.9857 12.7003 18.6002C12.7035 18.4537 12.6775 18.308 12.6237 18.1717C12.5698 18.0354 12.4893 17.9112 12.3869 17.8064C12.2844 17.7017 12.162 17.6184 12.027 17.5616C11.8919 17.5048 11.7468 17.4755 11.6003 17.4755C11.4537 17.4755 11.3087 17.5048 11.1736 17.5616C11.0385 17.6184 10.9161 17.7017 10.8137 17.8064C10.7112 17.9112 10.6307 18.0354 10.5769 18.1717C10.5231 18.308 10.497 18.4537 10.5003 18.6002C10.5003 20.5807 12.0212 21.7266 13.796 22.0613V22.983C13.7927 23.1295 13.8188 23.2752 13.8726 23.4115C13.9264 23.5478 14.0069 23.672 14.1094 23.7767C14.2119 23.8815 14.3342 23.9647 14.4693 24.0216C14.5308 24.0474 14.5944 24.0676 14.6592 24.0819C14.9331 22.4511 15.5501 20.9366 16.4336 19.6155Z" fill="#20AEF7"/>
<path fill-rule="evenodd" clip-rule="evenodd" d="M26.4898 14.5102C26.2332 8.38614 21.1872 3.5 15 3.5C8.64873 3.5 3.5 8.64873 3.5 15C3.5 21.1872 8.38614 26.2332 14.5102 26.4898C14.554 27.5353 14.7374 28.5447 15.0423 29.4999C15.0282 29.5 15.0141 29.5 15 29.5C6.99187 29.5 0.5 23.0081 0.5 15C0.5 6.99187 6.99187 0.5 15 0.5C23.0081 0.5 29.5 6.99187 29.5 15C29.5 15.0141 29.5 15.0282 29.4999 15.0423C28.5447 14.7374 27.5353 14.554 26.4898 14.5102Z" fill="#20AEF7"/>
</svg>
