<svg width="16" height="18" viewBox="0 0 16 18" fill="none" xmlns="http://www.w3.org/2000/svg">
<path d="M2.96494 17.1608C0.131969 15.4313 -0.841902 11.5884 0.793716 8.5929L4.94605 0.988375C5.16473 0.587886 5.64839 0.451531 6.0264 0.682294C6.40454 0.913134 6.53469 1.42419 6.31601 1.82468L2.16367 9.42921C0.96462 11.6251 1.67844 14.444 3.75589 15.7122C5.83333 16.9804 8.49907 16.2246 9.69812 14.0287L14.0482 6.06201C14.8114 4.66428 14.3569 2.8708 13.035 2.06382C11.713 1.25676 10.0168 1.73732 9.25355 3.13505L5.2989 10.3776C4.97189 10.9764 5.16662 11.7453 5.73314 12.0911C6.29966 12.437 7.02676 12.2308 7.35377 11.632L11.1107 4.75164C11.3293 4.35115 11.813 4.2148 12.191 4.44556C12.5692 4.6764 12.6993 5.18746 12.4806 5.58795L8.72372 12.4683C7.96051 13.866 6.26419 14.3465 4.94227 13.5395C3.62035 12.7325 3.16573 10.939 3.92894 9.54124L7.88359 2.29875C9.08257 0.102951 11.7484 -0.652988 13.8259 0.615292C15.9034 1.88349 16.6171 4.70252 15.4182 6.89832L11.0681 14.865C9.43246 17.8605 5.79792 18.8902 2.96494 17.1608Z" fill="#43D14F"/>
</svg>
