<svg width="28" height="29" viewBox="0 0 28 29" fill="none" xmlns="http://www.w3.org/2000/svg">
<path d="M23.8 4.2H22.4V1.4C22.4 1.0287 22.2525 0.672602 21.99 0.410051C21.7274 0.1475 21.3713 0 21 0C20.6287 0 20.2726 0.1475 20.01 0.410051C19.7475 0.672602 19.6 1.0287 19.6 1.4V4.2H8.4V1.4C8.4 1.0287 8.2525 0.672602 7.98995 0.410051C7.7274 0.1475 7.3713 0 7 0C6.6287 0 6.2726 0.1475 6.01005 0.410051C5.7475 0.672602 5.6 1.0287 5.6 1.4V4.2H4.2C3.08609 4.2 2.0178 4.6425 1.23015 5.43015C0.442499 6.21781 0 7.28609 0 8.4V9.8H28V8.4C28 7.28609 27.5575 6.21781 26.7698 5.43015C25.9822 4.6425 24.9139 4.2 23.8 4.2Z" fill="#86969E"/>
<path fill-rule="evenodd" clip-rule="evenodd" d="M0 23.8016C0 24.9155 0.442499 25.9838 1.23015 26.7714C2.0178 27.5591 3.08609 28.0016 4.2 28.0016H23.8C24.9139 28.0016 25.9822 27.5591 26.7698 26.7714C27.5575 25.9838 28 24.9155 28 23.8016V12.6016H0V23.8016ZM7 17.0015C7 18.106 6.10457 19.0015 5 19.0015C3.89543 19.0015 3 18.106 3 17.0015C3 15.8969 3.89543 15.0015 5 15.0015C6.10457 15.0015 7 15.8969 7 17.0015ZM5 25.0015C6.10457 25.0015 7 24.106 7 23.0015C7 21.8969 6.10457 21.0015 5 21.0015C3.89543 21.0015 3 21.8969 3 23.0015C3 24.106 3.89543 25.0015 5 25.0015ZM13 17.0015C13 18.106 12.1046 19.0015 11 19.0015C9.89543 19.0015 9 18.106 9 17.0015C9 15.8969 9.89543 15.0015 11 15.0015C12.1046 15.0015 13 15.8969 13 17.0015ZM11 25.0015C12.1046 25.0015 13 24.106 13 23.0015C13 21.8969 12.1046 21.0015 11 21.0015C9.89543 21.0015 9 21.8969 9 23.0015C9 24.106 9.89543 25.0015 11 25.0015ZM19 17.0015C19 18.106 18.1046 19.0015 17 19.0015C15.8954 19.0015 15 18.106 15 17.0015C15 15.8969 15.8954 15.0015 17 15.0015C18.1046 15.0015 19 15.8969 19 17.0015ZM17 25.0015C18.1046 25.0015 19 24.106 19 23.0015C19 21.8969 18.1046 21.0015 17 21.0015C15.8954 21.0015 15 21.8969 15 23.0015C15 24.106 15.8954 25.0015 17 25.0015ZM25 17.0015C25 18.106 24.1046 19.0015 23 19.0015C21.8954 19.0015 21 18.106 21 17.0015C21 15.8969 21.8954 15.0015 23 15.0015C24.1046 15.0015 25 15.8969 25 17.0015ZM23 25.0015C24.1046 25.0015 25 24.106 25 23.0015C25 21.8969 24.1046 21.0015 23 21.0015C21.8954 21.0015 21 21.8969 21 23.0015C21 24.106 21.8954 25.0015 23 25.0015Z" fill="#86969E"/>
</svg>
