<svg width="70" height="80" viewBox="0 0 70 80" fill="none" xmlns="http://www.w3.org/2000/svg">
<path d="M33 1.15504C34.2376 0.440509 35.7624 0.440507 37 1.15504L67.6411 18.8456C68.8787 19.5602 69.6411 20.8807 69.6411 22.3097V57.6909C69.6411 59.12 68.8787 60.4405 67.6411 61.155L37 78.8456C35.7624 79.5602 34.2376 79.5602 33 78.8456L2.35901 61.155C1.12141 60.4405 0.359009 59.12 0.359009 57.6909V22.3097C0.359009 20.8807 1.1214 19.5602 2.35901 18.8456L33 1.15504Z" fill="white"/>
<path d="M33 1.15504C34.2376 0.440509 35.7624 0.440507 37 1.15504L67.6411 18.8456C68.8787 19.5602 69.6411 20.8807 69.6411 22.3097V57.6909C69.6411 59.12 68.8787 60.4405 67.6411 61.155L37 78.8456C35.7624 79.5602 34.2376 79.5602 33 78.8456L2.35901 61.155C1.12141 60.4405 0.359009 59.12 0.359009 57.6909V22.3097C0.359009 20.8807 1.1214 19.5602 2.35901 18.8456L33 1.15504Z" fill="#43D14F" fill-opacity="0.2"/>
<path fill-rule="evenodd" clip-rule="evenodd" d="M65.6411 22.3097L35 4.61914L4.35901 22.3097V57.6909L35 75.3815L65.6411 57.6909V22.3097ZM37 1.15504C35.7624 0.440507 34.2376 0.440509 33 1.15504L2.35901 18.8456C1.1214 19.5602 0.359009 20.8807 0.359009 22.3097V57.6909C0.359009 59.12 1.12141 60.4405 2.35901 61.155L33 78.8456C34.2376 79.5602 35.7624 79.5602 37 78.8456L67.6411 61.155C68.8787 60.4405 69.6411 59.12 69.6411 57.6909V22.3097C69.6411 20.8807 68.8787 19.5602 67.6411 18.8456L37 1.15504Z" fill="white"/>
<path d="M23 35.25C23 34.1454 23.8954 33.25 25 33.25H49V49.7502C49 51.9593 47.2091 53.7502 45 53.7502H25C23.8954 53.7502 23 52.8547 23 51.7502V35.25Z" fill="#43D14F" fill-opacity="0.8"/>
<rect x="21" y="31.25" width="28" height="22" rx="3" stroke="#031F88" stroke-width="2"/>
<rect x="27" y="25.75" width="2" height="6" rx="1" fill="#031F88"/>
<rect x="41" y="25.75" width="2" height="6" rx="1" fill="#031F88"/>
<rect x="20" y="35.75" width="28.5" height="2" fill="#031F88"/>
<rect x="26" y="40.75" width="3" height="3" rx="1.5" fill="#031F88"/>
<rect x="26" y="46.75" width="3" height="3" rx="1.5" fill="#031F88"/>
<rect x="33.5" y="40.75" width="3" height="3" rx="1.5" fill="#031F88"/>
<rect x="33.5" y="46.75" width="3" height="3" rx="1.5" fill="#031F88"/>
<rect x="41" y="40.75" width="3" height="3" rx="1.5" fill="#031F88"/>
<rect x="41" y="46.75" width="3" height="3" rx="1.5" fill="#031F88"/>
</svg>
