<svg width="20" height="20" viewBox="0 0 20 20" fill="none" xmlns="http://www.w3.org/2000/svg">
<path fill-rule="evenodd" clip-rule="evenodd" d="M3.72061 3.49473C3.33009 3.88525 3.32796 4.52052 3.71587 4.91364L8.58549 9.84868L3.44014 14.9258C3.04702 15.3137 3.04492 15.9448 3.43544 16.3353C3.82597 16.7258 4.46124 16.7279 4.85436 16.34L9.99021 11.2723L15.1517 16.5031C15.5396 16.8962 16.1707 16.8983 16.5612 16.5078C16.9517 16.1173 16.9538 15.482 16.5659 15.0889L11.4138 9.86756L16.4438 4.9042C16.837 4.5163 16.8391 3.88525 16.4485 3.49473C16.058 3.1042 15.4227 3.10208 15.0296 3.48999L10.0091 8.44397L5.13009 3.49943C4.74218 3.10631 4.11113 3.1042 3.72061 3.49473Z" fill="black"/>
</svg>
