<svg width="378" height="186" viewBox="0 0 378 186" fill="none" xmlns="http://www.w3.org/2000/svg">
<path d="M278.482 58.207H102.359" stroke="#FFF7F4" stroke-width="1.74" stroke-miterlimit="10"/>
<path d="M104.568 146.79H276.274C276.564 146.79 276.852 146.732 277.12 146.621C277.388 146.51 277.632 146.347 277.837 146.141C278.042 145.935 278.205 145.691 278.316 145.423C278.426 145.154 278.483 144.866 278.482 144.576V44.1359C278.483 43.8453 278.426 43.5575 278.316 43.289C278.205 43.0204 278.042 42.7763 277.837 42.5706C277.632 42.365 277.388 42.2018 277.12 42.0905C276.852 41.9792 276.564 41.9219 276.274 41.9219H104.568C104.278 41.9219 103.99 41.9792 103.722 42.0905C103.454 42.2018 103.21 42.365 103.005 42.5706C102.799 42.7763 102.637 43.0204 102.526 43.289C102.415 43.5575 102.359 43.8453 102.359 44.1359V144.576C102.359 144.866 102.415 145.154 102.526 145.423C102.637 145.691 102.799 145.935 103.005 146.141C103.21 146.347 103.454 146.51 103.722 146.621C103.99 146.732 104.278 146.79 104.568 146.79V146.79Z" stroke="#FFF7F4" stroke-width="1.74" stroke-miterlimit="10"/>
<path d="M262.414 19.0238C262.421 19.6071 262.6 20.1753 262.929 20.6568C263.259 21.1384 263.723 21.5117 264.264 21.7298C264.805 21.9479 265.398 22.0011 265.969 21.8826C266.54 21.7642 267.064 21.4793 267.473 21.064C267.883 20.6487 268.16 20.1215 268.271 19.5487C268.382 18.9759 268.32 18.3831 268.095 17.8451C267.87 17.307 267.49 16.8477 267.004 16.5249C266.518 16.2022 265.948 16.0304 265.365 16.0313C264.577 16.0372 263.824 16.3557 263.27 16.9168C262.717 17.4778 262.409 18.2356 262.414 19.0238V19.0238Z" stroke="#FFF7F4" stroke-width="1.77" stroke-miterlimit="10"/>
<path d="M56.7291 148.548C56.7371 149.131 56.9172 149.698 57.2468 150.179C57.5764 150.66 58.0408 151.033 58.5815 151.25C59.1222 151.468 59.7152 151.521 60.2858 151.402C60.8565 151.283 61.3793 150.999 61.7886 150.584C62.1979 150.169 62.4754 149.642 62.5862 149.069C62.697 148.497 62.6362 147.905 62.4113 147.367C62.1865 146.829 61.8077 146.369 61.3225 146.046C60.8374 145.723 60.2676 145.551 59.6848 145.551C59.2939 145.553 58.9073 145.633 58.5471 145.785C58.187 145.936 57.8603 146.158 57.5858 146.436C57.3113 146.715 57.0943 147.044 56.9473 147.407C56.8003 147.769 56.7262 148.157 56.7291 148.548V148.548Z" stroke="#FFF7F4" stroke-width="1.77" stroke-miterlimit="10"/>
<path d="M321.346 94.2581C321.343 94.6487 321.417 95.0361 321.564 95.3981C321.711 95.7602 321.927 96.0897 322.201 96.368C322.475 96.6463 322.801 96.8679 323.161 97.0201C323.521 97.1723 323.907 97.2522 324.297 97.2551C325.071 97.2251 325.803 96.8965 326.34 96.3381C326.877 95.7798 327.177 95.0351 327.177 94.2604C327.177 93.4856 326.877 92.741 326.34 92.1826C325.803 91.6243 325.071 91.2956 324.297 91.2656C323.509 91.2716 322.756 91.5901 322.203 92.1511C321.649 92.7122 321.341 93.47 321.346 94.2581V94.2581Z" stroke="#FFF7F4" stroke-width="1.77" stroke-miterlimit="10"/>
<g filter="url(#filter0_d)">
<path d="M51.2095 58.1979H103.394C103.962 58.1979 104.524 58.086 105.048 57.8687C105.573 57.6514 106.05 57.3329 106.451 56.9313C106.852 56.5297 107.171 56.053 107.388 55.5283C107.605 55.0036 107.717 54.4413 107.717 53.8734V20.4609H46.8952V53.8644C46.894 54.4323 47.0047 54.9949 47.2209 55.52C47.437 56.0451 47.7545 56.5225 48.1551 56.9249C48.5557 57.3273 49.0317 57.6469 49.5557 57.8653C50.0798 58.0837 50.6417 58.1967 51.2095 58.1979Z" fill="white"/>
<path d="M46.8864 12.9578V20.4548H107.708V12.9578C107.708 12.2417 107.424 11.555 106.918 11.0486C106.412 10.5423 105.725 10.2578 105.009 10.2578H49.5811C48.866 10.259 48.1806 10.544 47.6754 11.0502C47.1702 11.5564 46.8864 12.2425 46.8864 12.9578Z" fill="#3962FA"/>
</g>
<path d="M71.7781 14.9258C71.7781 15.3708 71.6462 15.8058 71.399 16.1758C71.1518 16.5458 70.8005 16.8342 70.3895 17.0045C69.9785 17.1748 69.5262 17.2194 69.0899 17.1325C68.6536 17.0457 68.2528 16.8314 67.9382 16.5168C67.6236 16.2021 67.4094 15.8012 67.3226 15.3647C67.2358 14.9283 67.2804 14.4759 67.4506 14.0647C67.6209 13.6536 67.9092 13.3022 68.2791 13.055C68.649 12.8077 69.0839 12.6758 69.5287 12.6758C70.1253 12.6758 70.6974 12.9128 71.1193 13.3348C71.5411 13.7567 71.7781 14.329 71.7781 14.9258Z" fill="#1F44CE"/>
<path d="M69.5416 15.7666C69.2019 15.7655 68.8765 15.63 68.6363 15.3897C68.3961 15.1494 68.2606 14.8239 68.2595 14.4841V8.69265C68.2606 8.35288 68.3961 8.02736 68.6363 7.7871C68.8765 7.54684 69.2019 7.41134 69.5416 7.41016V7.41016C69.8817 7.41016 70.2078 7.54528 70.4482 7.78579C70.6887 8.02631 70.8237 8.35252 70.8237 8.69265V14.4841C70.8237 14.8243 70.6887 15.1505 70.4482 15.391C70.2078 15.6315 69.8817 15.7666 69.5416 15.7666Z" fill="#F8632D"/>
<path d="M91.2927 14.9258C91.2927 15.3708 91.1608 15.8058 90.9136 16.1758C90.6665 16.5458 90.3152 16.8342 89.9042 17.0045C89.4932 17.1748 89.0409 17.2194 88.6046 17.1325C88.1682 17.0457 87.7674 16.8314 87.4529 16.5168C87.1383 16.2021 86.9241 15.8012 86.8373 15.3647C86.7505 14.9283 86.795 14.4759 86.9653 14.0647C87.1355 13.6536 87.4238 13.3022 87.7937 13.055C88.1636 12.8077 88.5985 12.6758 89.0434 12.6758C89.6399 12.6758 90.2121 12.9128 90.6339 13.3348C91.0557 13.7567 91.2927 14.329 91.2927 14.9258Z" fill="#1F44CE"/>
<path d="M89.0573 15.7666C88.7176 15.7655 88.3921 15.63 88.152 15.3897C87.9118 15.1494 87.7763 14.8239 87.7751 14.4841V8.69265C87.7763 8.35288 87.9118 8.02736 88.152 7.7871C88.3921 7.54684 88.7176 7.41134 89.0573 7.41016V7.41016C89.3973 7.41016 89.7234 7.54528 89.9638 7.78579C90.2043 8.02631 90.3394 8.35252 90.3394 8.69265V14.4841C90.3394 14.8243 90.2043 15.1505 89.9638 15.391C89.7234 15.6315 89.3973 15.7666 89.0573 15.7666Z" fill="#F8632D"/>
<path d="M76.2356 37.1797H67.1978V28.1392H76.2356V37.1797Z" stroke="#FFD6CF" stroke-width="1.05" stroke-miterlimit="10"/>
<path d="M88.261 37.1797H79.2231V28.1392H88.261V37.1797Z" stroke="#FFD6CF" stroke-width="1.05" stroke-miterlimit="10"/>
<path d="M100.286 37.1797H91.2478V28.1392H100.286V37.1797Z" stroke="#FFD6CF" stroke-width="1.05" stroke-miterlimit="10"/>
<path d="M76.2356 48.6523H67.1978V39.6119H76.2356V48.6523Z" stroke="#FFD6CF" stroke-width="1.05" stroke-miterlimit="10"/>
<path d="M88.261 48.6523H79.2231V39.6119H88.261V48.6523Z" fill="#3962FA"/>
<path d="M64.1524 37.1797H55.1145V28.1392H64.1524V37.1797Z" stroke="#FFD6CF" stroke-width="1.05" stroke-miterlimit="10"/>
<path d="M64.1524 48.6523H55.1145V39.6119H64.1524V48.6523Z" stroke="#FFD6CF" stroke-width="1.05" stroke-miterlimit="10"/>
<path d="M100.286 48.6523H91.2478V39.6119H100.286V48.6523Z" stroke="#FFD6CF" stroke-width="1.05" stroke-miterlimit="10"/>
<path d="M85.0393 73.8011C88.2963 78.2606 96.6819 80.5916 101.145 77.3381C105.607 74.0846 104.447 66.4706 101.19 62.0111C100.416 60.9503 99.4404 60.0525 98.3196 59.3687C97.1988 58.6849 95.9543 58.2287 94.6572 58.0261C93.3602 57.8234 92.0359 57.8783 90.76 58.1875C89.4841 58.4968 88.2816 59.0545 87.2212 59.8286C86.1607 60.6027 85.2631 61.5782 84.5795 62.6994C83.896 63.8205 83.4399 65.0654 83.2373 66.3628C83.0347 67.6603 83.0895 68.985 83.3987 70.2612C83.7079 71.5375 84.2654 72.7403 85.0393 73.8011Z" fill="#F1BA9C"/>
<path d="M93.3129 58.0549C93.3129 58.0549 97.5506 54.8779 100.961 58.8649C104.371 62.8519 107.443 70.1509 99.8089 76.7029L93.3129 58.0549Z" fill="#F1BA9C"/>
<path d="M91.6299 60.6415L85.6152 48.1495C85.4281 47.6941 85.4237 47.1841 85.603 46.7256C85.7824 46.2671 86.1315 45.8954 86.5779 45.688C86.9564 45.5179 87.385 45.4966 87.7785 45.6284C88.172 45.7601 88.5014 46.0353 88.7013 46.399L97.0913 58.8865L91.6299 60.6415Z" fill="#F1BA9C"/>
<path d="M101.19 62.0156L98.1491 60.8231C96.0851 60.0166 93.8103 59.9263 91.689 60.5666L90.0469 61.0661C89.6334 61.1849 89.2734 61.4427 89.0275 61.7959C88.7817 62.1492 88.6651 62.5764 88.6973 63.0056V63.0056C88.733 63.485 88.9512 63.9324 89.3069 64.2556C89.6627 64.5788 90.1288 64.7531 90.6093 64.7426L94.1453 64.6706C94.1453 64.6706 90.0065 68.3606 93.6009 74.6921" stroke="#E29C79" stroke-width="1.68" stroke-linecap="round" stroke-linejoin="round"/>
<path d="M131.178 109.437L102.512 68.9688L91.1846 75.0572L114.857 119.666C115.569 120.929 116.557 122.015 117.748 122.842C118.938 123.67 120.3 124.219 121.731 124.447C123.163 124.676 124.628 124.578 126.016 124.161C127.405 123.745 128.682 123.02 129.752 122.042C131.473 120.468 132.566 118.325 132.828 116.007C133.09 113.689 132.504 111.355 131.178 109.437Z" fill="#F1BA9C"/>
<path d="M165.458 110.912L125.312 106.188C119.554 106.309 114.362 108.262 114.065 114.017C113.923 116.917 114.935 119.755 116.879 121.91C118.823 124.066 121.541 125.364 124.439 125.519L165.314 133.7C171.077 134.011 175.998 131.738 177.461 126.149C177.939 124.331 177.988 122.426 177.605 120.585C177.222 118.744 176.417 117.017 175.254 115.54C174.091 114.063 172.6 112.876 170.9 112.073C169.201 111.27 167.338 110.873 165.458 110.912Z" fill="#F1BA9C"/>
<path d="M144.399 107.907L140.207 131.721L164.405 135.987L179.543 107.187C179.543 107.187 160.743 106.188 144.399 107.907Z" fill="#20AEF7"/>
<path d="M194.934 107.1C195.037 107.1 219.145 106.439 230.806 122.688C242.143 138.488 242.102 166.46 242.093 168.138C242.092 168.16 242.082 168.181 242.067 168.196C242.051 168.211 242.03 168.219 242.008 168.219L197.315 179.903L149.041 176.551C149.029 179.481 149.017 176.547 149.005 176.542C148.994 189.235 148.97 182.872 148.963 182.862C148.955 192.62 148.963 176.484 148.963 176.484C148.963 176.484 141.145 174.542 141.148 174.53L159.556 124.731C161.585 116.231 168.909 108.981 177.506 107.469C182.112 106.646 187.502 106.857 194.934 107.1Z" fill="#20AEF7"/>
<path d="M232.124 119.113L266.053 158.763C267.084 159.898 267.869 161.233 268.359 162.686C268.85 164.138 269.036 165.677 268.906 167.204C268.775 168.732 268.331 170.216 267.601 171.564C266.871 172.912 265.871 174.095 264.663 175.039C262.593 176.655 260.018 177.488 257.394 177.392C254.77 177.296 252.263 176.276 250.317 174.513L217.778 139.759L232.124 119.113Z" fill="#F1BA9C"/>
<path d="M257.618 177.398H205.042L206.072 167.125L248.796 160.051L257.618 177.398Z" fill="#F1BA9C"/>
<path d="M211.079 168.057C211.079 168.057 188.266 161.716 182.468 177.394H205.042L211.079 168.057Z" fill="#F1BA9C"/>
<path d="M194.672 171.105C194.672 171.105 188.113 172.613 186.458 177.405" stroke="#E29C79" stroke-width="1.68" stroke-linecap="round" stroke-linejoin="round"/>
<path d="M200.305 172.594C200.305 172.594 194.673 173.269 192.549 177.395" stroke="#E29C79" stroke-width="1.68" stroke-linecap="round" stroke-linejoin="round"/>
<path d="M238.323 161.718L253.983 159.117" stroke="#E29C79" stroke-width="1.68" stroke-linecap="round" stroke-linejoin="round"/>
<path d="M199.477 107.309C199.477 107.309 229.888 106.913 249.943 136.158L223.595 154.46L200.305 131.06L199.477 107.309Z" fill="#20AEF7"/>
<path d="M211.079 137.426L226.276 152.586L228.395 151.119" stroke="white" stroke-width="1.84" stroke-linecap="round" stroke-linejoin="round"/>
<path d="M227.607 182.081H173.587V177.324H227.607C227.919 177.324 228.228 177.385 228.517 177.504C228.805 177.623 229.067 177.798 229.288 178.019C229.509 178.24 229.684 178.502 229.803 178.79C229.922 179.079 229.983 179.388 229.982 179.7C229.983 180.013 229.922 180.322 229.803 180.611C229.684 180.9 229.509 181.162 229.288 181.383C229.068 181.604 228.806 181.78 228.517 181.899C228.229 182.019 227.919 182.081 227.607 182.081Z" fill="#B5BCC9"/>
<path d="M178.549 182.084H102.522L88.8367 128.165C88.6801 127.564 88.6638 126.935 88.7891 126.327C88.9144 125.718 89.1779 125.147 89.5593 124.656C89.9407 124.166 90.4297 123.77 90.9886 123.499C91.5474 123.228 92.1611 123.09 92.7821 123.094H160.411C161.316 123.094 162.195 123.396 162.91 123.952C163.624 124.507 164.133 125.285 164.356 126.163L178.549 182.084Z" fill="#B5BCC9"/>
<path d="M175.009 182.08H98.9812L85.2917 128.161C85.1356 127.562 85.1189 126.935 85.243 126.328C85.367 125.721 85.6285 125.151 86.0074 124.661C86.3863 124.172 86.8724 123.775 87.4284 123.503C87.9844 123.23 88.5954 123.089 89.2146 123.09H156.866C157.771 123.09 158.65 123.392 159.364 123.948C160.079 124.503 160.588 125.281 160.811 126.159L175.009 182.08Z" fill="#D3D6DD"/>
<path d="M122.093 156.053C120.108 152.614 120.907 148.435 123.879 146.719C126.85 145.002 130.868 146.399 132.854 149.839C134.839 153.278 134.039 157.458 131.068 159.174C128.096 160.89 124.078 159.493 122.093 156.053Z" fill="#FEFFFF"/>
<path d="M204.601 68.293C204.601 68.293 206.531 79.633 192.877 91.2204L191.478 85.753L204.601 68.293Z" fill="#470B09"/>
<path d="M170.901 62.3097C170.901 62.3097 162.246 62.3952 163.168 56.7162C164.711 47.1942 184.312 47.7747 191.267 50.4972L170.901 62.3097Z" fill="#470B09"/>
<path d="M165.363 71.0118C165.54 73.6392 166.232 76.206 167.401 78.5658C168.569 80.9255 170.19 83.032 172.173 84.7649C174.155 86.4977 176.459 87.8231 178.953 88.6653C181.447 89.5075 184.083 89.85 186.71 89.6733C197.754 88.9308 205.343 79.3458 204.601 68.2938C203.859 57.2418 195.068 48.9168 184.019 49.6593C181.393 49.836 178.827 50.5284 176.468 51.6971C174.109 52.8658 172.003 54.4878 170.27 56.4706C168.538 58.4534 167.213 60.758 166.371 63.253C165.529 65.748 165.187 68.3844 165.363 71.0118Z" fill="#470B09"/>
<path d="M160.718 82.0819C159.312 79.4548 160.301 76.185 162.928 74.7787C165.554 73.3724 168.823 74.3621 170.229 76.9893C171.635 79.6164 170.645 82.8861 168.019 84.2924C165.393 85.6987 162.124 84.709 160.718 82.0819Z" fill="#E29C79"/>
<path d="M174.874 93.7792L177.087 108.323C177.284 109.617 177.741 110.857 178.431 111.969C179.121 113.08 180.03 114.04 181.103 114.789C182.175 115.538 183.389 116.061 184.67 116.327C185.951 116.592 187.273 116.594 188.554 116.333C193.872 115.249 198.366 114.533 197.142 109.237L189.944 78.2812L174.874 93.7792Z" fill="#F1BA9C"/>
<path d="M176.489 104.488C176.489 104.488 192.302 100.712 191.946 87.3516L175.153 95.8521L176.489 104.488Z" fill="#E29C79"/>
<path d="M173.727 54.4354C171.968 55.2125 170.392 56.3514 169.102 57.778C167.812 59.2046 166.837 60.8869 166.241 62.7154C164.342 68.2819 161.423 79.0639 163.618 87.7714C165.471 95.1109 171.788 99.4714 181.163 97.6174C181.163 97.6174 193.12 95.6779 194.659 80.9404C196.823 60.5644 184.429 49.9264 173.727 54.4354Z" fill="#F1BA9C"/>
<path d="M166.902 76.4332C166.842 76.669 166.713 76.8816 166.532 77.0444C166.351 77.2071 166.126 77.3126 165.885 77.3477C165.645 77.3827 165.399 77.3457 165.179 77.2413C164.959 77.1369 164.775 76.9698 164.65 76.761C164.525 76.5522 164.465 76.311 164.477 76.0679C164.488 75.8249 164.572 75.5907 164.716 75.3949C164.861 75.1992 165.06 75.0506 165.289 74.9679C165.518 74.8852 165.766 74.8721 166.002 74.9302C166.16 74.9697 166.309 75.0399 166.439 75.1368C166.57 75.2337 166.68 75.3555 166.764 75.4951C166.847 75.6347 166.903 75.7894 166.926 75.9504C166.95 76.1113 166.942 76.2754 166.902 76.4332Z" fill="#101010"/>
<path d="M177.335 76.6051C177.275 76.8409 177.146 77.0535 176.965 77.2162C176.784 77.379 176.559 77.4845 176.318 77.5195C176.078 77.5546 175.832 77.5176 175.612 77.4132C175.392 77.3088 175.208 77.1416 175.083 76.9328C174.958 76.724 174.898 76.4829 174.91 76.2398C174.921 75.9967 175.005 75.7626 175.149 75.5668C175.294 75.3711 175.493 75.2225 175.722 75.1398C175.951 75.0571 176.199 75.044 176.435 75.1021C176.593 75.1415 176.742 75.2117 176.872 75.3087C177.003 75.4056 177.113 75.5273 177.197 75.6669C177.28 75.8065 177.336 75.9613 177.359 76.1222C177.383 76.2832 177.375 76.4473 177.335 76.6051Z" fill="#101010"/>
<path d="M169.575 77.6289L167.798 81.0894L169.273 82.0029" stroke="#470B09" stroke-width="1.58" stroke-linecap="round" stroke-linejoin="round"/>
<path d="M174.276 65.0111C174.242 65.2464 174.258 65.4861 174.323 65.7146C174.388 65.9432 174.5 66.1556 174.653 66.3381C174.805 66.5205 174.994 66.6689 175.207 66.7736C175.42 66.8784 175.653 66.9371 175.891 66.9461C177.851 67.002 179.792 67.3524 181.649 67.9856C182.009 68.1232 182.408 68.1157 182.762 67.9646C183.116 67.8134 183.398 67.5305 183.547 67.1756C183.671 66.8308 183.669 66.4533 183.541 66.1099C183.414 65.7665 183.169 65.4793 182.85 65.2991C180.831 63.8397 178.328 63.2114 175.859 63.5441C175.468 63.574 175.099 63.7353 174.812 64.0016C174.524 64.2679 174.335 64.6237 174.276 65.0111Z" fill="#470B09"/>
<path d="M169.187 68.6783C169.084 69.6548 168.427 70.4783 167.766 70.4513C166.427 70.3792 165.089 70.5908 163.838 71.0723C163.298 71.2883 162.822 70.9013 162.768 70.1723C162.749 69.8326 162.812 69.4933 162.953 69.1837C163.095 68.8741 163.309 68.6033 163.577 68.3948C164.599 67.6388 166.191 66.5408 168.44 67.1573C168.949 67.2878 169.268 67.8908 169.187 68.6783Z" fill="#470B09"/>
<path opacity="0.26" d="M171.792 75.5494C171.747 76.8078 172.075 78.0514 172.733 79.1243C173.392 80.1972 174.353 81.0517 175.495 81.5807C176.637 82.1096 177.91 82.2895 179.154 82.0977C180.398 81.9059 181.558 81.351 182.488 80.5025C183.418 79.6541 184.077 78.5498 184.382 77.3283C184.688 76.1068 184.626 74.8223 184.204 73.6359C183.782 72.4495 183.02 71.414 182.012 70.6593C181.005 69.9046 179.797 69.4643 178.54 69.3935C176.829 69.3153 175.157 69.9198 173.892 71.0742C172.627 72.2285 171.871 73.8382 171.792 75.5494Z" fill="white"/>
<path opacity="0.26" d="M157.526 74.6823C157.34 77.9313 159.48 80.5772 162.162 80.7314C164.843 80.8856 167.273 78.5025 167.46 75.2535C167.646 72.0044 165.506 69.3586 162.824 69.2044C160.143 69.0502 157.713 71.4333 157.526 74.6823Z" fill="white" stroke="#86969E"/>
<path d="M171.792 75.5494C171.747 76.8078 172.075 78.0514 172.733 79.1243C173.392 80.1972 174.353 81.0517 175.495 81.5807C176.637 82.1096 177.91 82.2895 179.154 82.0977C180.398 81.9059 181.558 81.351 182.488 80.5025C183.418 79.6541 184.077 78.5498 184.382 77.3283C184.688 76.1068 184.626 74.8223 184.204 73.6359C183.782 72.4495 183.02 71.414 182.012 70.6593C181.005 69.9046 179.797 69.4643 178.54 69.3935C176.829 69.3153 175.157 69.9198 173.892 71.0742C172.627 72.2285 171.871 73.8382 171.792 75.5494Z" stroke="#EFF2F9" stroke-width="1.62" stroke-linecap="round" stroke-linejoin="round"/>
<path d="M162.133 81.2305C159.114 81.057 156.828 78.1124 157.027 74.6536C157.226 71.1948 159.834 68.5317 162.853 68.7052C165.872 68.8788 168.158 71.8234 167.959 75.2822C167.76 78.741 165.152 81.4041 162.133 81.2305Z" stroke="#EFF2F9" stroke-width="1.62" stroke-linecap="round" stroke-linejoin="round"/>
<path d="M171.792 75.5517C171.792 75.5517 169.965 73.8057 167.959 75.2772" stroke="#EFF2F9" stroke-width="1.62" stroke-linecap="round" stroke-linejoin="round"/>
<path d="M184.55 76.2891L190.938 77.6841" stroke="#EFF2F9" stroke-width="1.62" stroke-linecap="round" stroke-linejoin="round"/>
<path d="M175.184 84.8359C175.234 84.9889 172.332 86.8204 167.663 84.9529" stroke="#470B09" stroke-width="1.58" stroke-linecap="round" stroke-linejoin="round"/>
<path d="M192.36 79.0458C192.36 79.0458 189.936 77.8803 190.804 70.0143C191.672 62.1484 187.106 58.3774 183.125 58.7644C179.143 59.1514 170.812 60.6589 166.169 58.3144C166.169 58.3144 172.35 49.7644 185.698 53.5129C199.045 57.2614 196.315 77.3178 196.315 77.3178L192.36 79.0458Z" fill="#470B09"/>
<path d="M202.882 83.5688C202.511 84.809 201.78 85.9111 200.782 86.7357C199.784 87.5604 198.564 88.0706 197.276 88.2019C195.989 88.3331 194.691 88.0796 193.547 87.4733C192.404 86.867 191.466 85.9351 190.851 84.7955C190.237 83.6559 189.974 82.3597 190.096 81.0707C190.218 79.7818 190.72 78.558 191.537 77.554C192.354 76.55 193.451 75.8109 194.688 75.4301C195.925 75.0494 197.247 75.0441 198.487 75.4149C200.151 75.9135 201.548 77.0525 202.373 78.5816C203.197 80.1107 203.38 81.9046 202.882 83.5688Z" fill="#F1BA9C"/>
<path d="M199.558 79.772C199.558 79.772 194.754 78.422 193.494 83.696" stroke="#470B09" stroke-width="1.58" stroke-linecap="round" stroke-linejoin="round"/>
<path d="M201.524 107.378L191.451 106.883L178.662 107.085L174.141 106.995C174.141 106.995 170.326 119.789 186.408 120.045C202.491 120.302 201.524 107.378 201.524 107.378Z" fill="#F1BA9C"/>
<path d="M-0.00023658 182.613H377.047" stroke="#281F27" stroke-width="0.76" stroke-miterlimit="10"/>
<defs>
<filter id="filter0_d" x="35.8865" y="0.257812" width="80.8309" height="67.9401" filterUnits="userSpaceOnUse" color-interpolation-filters="sRGB">
<feFlood flood-opacity="0" result="BackgroundImageFix"/>
<feColorMatrix in="SourceAlpha" type="matrix" values="0 0 0 0 0 0 0 0 0 0 0 0 0 0 0 0 0 0 127 0" result="hardAlpha"/>
<feOffset dx="-1"/>
<feGaussianBlur stdDeviation="5"/>
<feColorMatrix type="matrix" values="0 0 0 0 0.52549 0 0 0 0 0.588235 0 0 0 0 0.619608 0 0 0 0.2 0"/>
<feBlend mode="normal" in2="BackgroundImageFix" result="effect1_dropShadow"/>
<feBlend mode="normal" in="SourceGraphic" in2="effect1_dropShadow" result="shape"/>
</filter>
</defs>
</svg>
