<svg width="33" height="33" viewBox="0 0 33 33" fill="none" xmlns="http://www.w3.org/2000/svg">
<ellipse cx="16.5" cy="16.5" rx="16.5" ry="16.5" transform="rotate(-90 16.5 16.5)" fill="#43D14F"/>
<path fill-rule="evenodd" clip-rule="evenodd" d="M8.7998 13C8.7998 12.6265 8.9022 12.2769 9.08044 11.9777L14.1917 16.3839L9.03877 20.4759C8.98089 20.5219 8.93591 20.5781 8.90437 20.6399C8.83656 20.439 8.7998 20.2238 8.7998 20L8.7998 13ZM9.34029 21.3674C9.7052 21.7568 10.2241 22 10.7998 22H22.1998C22.7755 22 23.2944 21.7568 23.6593 21.3674C23.5498 21.3696 23.4389 21.336 23.3452 21.2641L17.9317 17.1077C17.0256 17.675 15.8562 17.6533 14.9703 17.0426L9.66065 21.2591C9.56596 21.3343 9.45243 21.3696 9.34029 21.3674ZM18.7254 16.4564L23.9542 20.4709C24.0152 20.5178 24.0624 20.5759 24.0952 20.6401C24.163 20.4392 24.1998 20.2239 24.1998 20V13C24.1998 12.6265 24.0974 12.277 23.9192 11.9778L18.7254 16.4564ZM15.2714 15.9944L9.79286 11.2716C10.0886 11.0989 10.4326 11 10.7998 11L22.1998 11C22.567 11 22.9111 11.099 23.2069 11.2717L17.7297 15.9945L17.7157 16.0065L17.7027 16.0196C17.0388 16.6835 15.9624 16.6835 15.2985 16.0196L15.2854 16.0065L15.2714 15.9944Z" fill="white"/>
</svg>
