<svg width="33" height="33" viewBox="0 0 33 33" fill="none" xmlns="http://www.w3.org/2000/svg">
<circle cx="16.5" cy="16.5" r="16.5" transform="rotate(-90 16.5 16.5)" fill="#43D14F"/>
<path d="M22.6758 19.4039C22.6397 19.3753 20.0204 17.4873 19.3014 17.6228C18.9582 17.6835 18.762 17.9176 18.3682 18.3862C18.3048 18.4619 18.1526 18.6431 18.0342 18.7721C17.7854 18.6909 17.5426 18.5921 17.3078 18.4764C16.0958 17.8863 15.1166 16.9071 14.5266 15.6951C14.4108 15.4604 14.312 15.2176 14.2309 14.9687C14.3602 14.8499 14.5415 14.6977 14.619 14.6325C15.0854 14.2409 15.3199 14.0447 15.3806 13.7006C15.5051 12.9878 13.6184 10.3505 13.5986 10.3267C13.513 10.2044 13.4013 10.1027 13.2715 10.0289C13.1418 9.95505 12.9973 9.911 12.8484 9.8999C12.0837 9.8999 9.90039 12.7322 9.90039 13.2091C9.90039 13.2369 9.94043 16.0546 13.4151 19.5891C16.9461 23.0599 19.7634 23.0999 19.7912 23.0999C20.2685 23.0999 23.1004 20.9166 23.1004 20.1519C23.0894 20.0036 23.0456 19.8595 22.9722 19.7302C22.8988 19.6008 22.7975 19.4894 22.6758 19.4039Z" fill="white"/>
</svg>
