<svg width="20" height="20" viewBox="0 0 20 20" fill="none" xmlns="http://www.w3.org/2000/svg">
<path d="M3.5 4.75C3.5 3.92157 4.17157 3.25 5 3.25H15C15.8284 3.25 16.5 3.92157 16.5 4.75V5.25C16.5 5.52614 16.2761 5.75 16 5.75H4C3.72386 5.75 3.5 5.52614 3.5 5.25V4.75Z" stroke="#86969E"/>
<path d="M4.57818 6.28694C4.55671 5.99704 4.78612 5.75 5.07681 5.75H14.9232C15.2139 5.75 15.4433 5.99704 15.4218 6.28694L14.6386 16.8608C14.5805 17.6441 13.9281 18.25 13.1427 18.25H6.85733C6.07189 18.25 5.41945 17.6441 5.36143 16.8608L4.57818 6.28694Z" stroke="#86969E"/>
<path d="M12 3.25V2.25C12 1.69772 11.5523 1.25 11 1.25H9C8.44772 1.25 8 1.69772 8 2.25V3.25" stroke="#86969E"/>
<rect x="7.5" y="7.75" width="1" height="8" rx="0.5" fill="#86969E"/>
<rect x="9.5" y="7.75" width="1" height="8" rx="0.5" fill="#86969E"/>
<rect x="11.5" y="7.75" width="1" height="8" rx="0.5" fill="#86969E"/>
</svg>
