<svg width="44" height="44" viewBox="0 0 44 44" fill="none" xmlns="http://www.w3.org/2000/svg">
<circle cx="22" cy="22" r="22" fill="#43D14F"/>
<path d="M28.9044 28.065C28.8691 28.0176 26.2488 24.8064 25.3123 24.7356C24.8666 24.6969 24.5455 24.9219 23.9016 25.3721C23.7979 25.4449 23.5489 25.6191 23.3593 25.7396C23.0777 25.5563 22.8095 25.3531 22.5568 25.1316C21.2502 23.9974 20.3614 22.458 20.0324 20.7592C19.9669 20.4297 19.925 20.0959 19.9072 19.7603C20.107 19.656 20.3824 19.5275 20.5 19.4724C21.2084 19.1419 21.5644 18.9765 21.754 18.57C22.1452 17.7276 20.6821 13.8308 20.6654 13.7947C20.5999 13.6147 20.4952 13.4514 20.3588 13.3168C20.2225 13.1822 20.0579 13.0795 19.877 13.0163C18.9289 12.7623 15.2809 15.5486 15.1225 16.14C15.1133 16.1744 14.2268 19.6813 17.3607 25.2181C20.5857 30.6944 24.0655 31.6801 24.0999 31.6893C24.6918 31.8479 28.9283 30.0817 29.1823 29.1335C29.218 28.946 29.2116 28.7528 29.1635 28.568C29.1154 28.3832 29.0269 28.2114 28.9044 28.065Z" fill="white"/>
</svg>
