<svg width="44" height="44" viewBox="0 0 44 44" fill="none" xmlns="http://www.w3.org/2000/svg">
<circle cx="22" cy="22" r="22" fill="#FC2133"/>
<path d="M22.8205 12.8962C22.797 12.9505 21.3263 16.8253 21.7331 17.6717C21.9225 18.0771 22.2779 18.2426 22.9897 18.5752C23.1046 18.6286 23.3799 18.7572 23.5791 18.8611C23.5611 19.1966 23.5193 19.5305 23.4538 19.86C23.1249 21.5588 22.2361 23.0982 20.9294 24.2324C20.6768 24.454 20.4086 24.6571 20.127 24.8404C19.9367 24.7195 19.6877 24.5453 19.5812 24.4709C18.9408 24.0227 18.6195 23.7971 18.1727 23.8361C17.2476 23.9186 14.6044 27.1341 14.5815 27.1665C14.4583 27.3133 14.3693 27.4856 14.3209 27.671C14.2725 27.8564 14.2659 28.0502 14.3016 28.2385C14.5556 29.1866 18.7927 30.9527 19.384 30.7942C19.4184 30.785 22.8988 29.7992 26.1268 24.3168C29.257 18.7857 28.3706 15.2793 28.3614 15.2449C28.2028 14.653 24.555 11.8672 23.6068 12.1213C23.4266 12.1842 23.2625 12.2863 23.1265 12.4203C22.9905 12.5543 22.886 12.7169 22.8205 12.8962Z" fill="white"/>
</svg>
