<svg width="22" height="22" viewBox="0 0 22 22" fill="none" xmlns="http://www.w3.org/2000/svg">
<path d="M1.09978 5.07405C0.882255 5.07401 0.669624 5.00947 0.48877 4.88859C0.307916 4.76772 0.16696 4.59593 0.0837213 4.39496C0.000482854 4.19399 -0.0213008 3.97285 0.0211242 3.7595C0.0635492 3.54615 0.168278 3.35016 0.322071 3.19632L2.52211 0.996288C2.72957 0.795911 3.00744 0.685035 3.29586 0.687542C3.58428 0.690048 3.86018 0.805736 4.06414 1.00969C4.26809 1.21364 4.38378 1.48954 4.38628 1.77796C4.38879 2.06638 4.27791 2.34425 4.07754 2.55171L1.8775 4.75175C1.67125 4.95806 1.3915 5.07399 1.09978 5.07405Z" fill="black"/>
<path d="M20.9003 5.07405C20.6086 5.07399 20.3288 4.95806 20.1226 4.75175L17.9226 2.55171C17.7222 2.34425 17.6113 2.06638 17.6138 1.77796C17.6163 1.48954 17.732 1.21364 17.936 1.00969C18.1399 0.805736 18.4158 0.690048 18.7042 0.687542C18.9927 0.685035 19.2705 0.795911 19.478 0.996288L21.678 3.19632C21.8318 3.35016 21.9365 3.54615 21.979 3.7595C22.0214 3.97285 21.9996 4.19399 21.9164 4.39496C21.8331 4.59593 21.6922 4.76772 21.5113 4.88859C21.3305 5.00947 21.1178 5.07401 20.9003 5.07405Z" fill="black"/>
<path d="M11.0003 1.77417C9.0422 1.77417 7.12811 2.3548 5.50003 3.44265C3.87196 4.53049 2.60303 6.07669 1.85371 7.88571C1.10439 9.69473 0.908331 11.6853 1.29033 13.6058C1.67233 15.5262 2.61523 17.2903 3.99979 18.6748C5.38436 20.0594 7.1484 21.0023 9.06885 21.3843C10.9893 21.7663 12.9799 21.5702 14.7889 20.8209C16.5979 20.0716 18.1441 18.8027 19.232 17.1746C20.3198 15.5465 20.9004 13.6324 20.9004 11.6743C20.8964 9.0499 19.852 6.53412 17.9963 4.67836C16.1405 2.8226 13.6247 1.77824 11.0003 1.77417ZM13.9813 14.6554C13.7728 14.8599 13.4924 14.9745 13.2003 14.9745C12.9082 14.9745 12.6278 14.8599 12.4193 14.6554L10.2193 12.4554C10.0166 12.2456 9.90243 11.966 9.90025 11.6743V8.37428C9.90025 8.08254 10.0161 7.80275 10.2224 7.59645C10.4287 7.39016 10.7085 7.27426 11.0003 7.27426C11.292 7.27426 11.5718 7.39016 11.7781 7.59645C11.9844 7.80275 12.1003 8.08254 12.1003 8.37428V11.2233L13.9813 13.0934C14.1874 13.3011 14.3031 13.5818 14.3031 13.8744C14.3031 14.167 14.1874 14.4477 13.9813 14.6554Z" fill="black"/>
</svg>
