<svg width="70" height="80" viewBox="0 0 70 80" fill="none" xmlns="http://www.w3.org/2000/svg">
<path d="M33 1.15504C34.2376 0.440509 35.7624 0.440507 37 1.15504L67.6411 18.8456C68.8787 19.5602 69.6411 20.8807 69.6411 22.3097V57.6909C69.6411 59.12 68.8787 60.4405 67.6411 61.155L37 78.8456C35.7624 79.5602 34.2376 79.5602 33 78.8456L2.35901 61.155C1.12141 60.4405 0.359009 59.12 0.359009 57.6909V22.3097C0.359009 20.8807 1.1214 19.5602 2.35901 18.8456L33 1.15504Z" fill="white"/>
<path d="M33 1.15504C34.2376 0.440509 35.7624 0.440507 37 1.15504L67.6411 18.8456C68.8787 19.5602 69.6411 20.8807 69.6411 22.3097V57.6909C69.6411 59.12 68.8787 60.4405 67.6411 61.155L37 78.8456C35.7624 79.5602 34.2376 79.5602 33 78.8456L2.35901 61.155C1.12141 60.4405 0.359009 59.12 0.359009 57.6909V22.3097C0.359009 20.8807 1.1214 19.5602 2.35901 18.8456L33 1.15504Z" fill="#43D14F" fill-opacity="0.2"/>
<path fill-rule="evenodd" clip-rule="evenodd" d="M65.6411 22.3097L35 4.61914L4.35901 22.3097V57.6909L35 75.3815L65.6411 57.6909V22.3097ZM37 1.15504C35.7624 0.440507 34.2376 0.440509 33 1.15504L2.35901 18.8456C1.1214 19.5602 0.359009 20.8807 0.359009 22.3097V57.6909C0.359009 59.12 1.12141 60.4405 2.35901 61.155L33 78.8456C34.2376 79.5602 35.7624 79.5602 37 78.8456L67.6411 61.155C68.8787 60.4405 69.6411 59.12 69.6411 57.6909V22.3097C69.6411 20.8807 68.8787 19.5602 67.6411 18.8456L37 1.15504Z" fill="white"/>
<rect x="20" y="46.75" width="19.5" height="25.5" rx="4" transform="rotate(-90 20 46.75)" fill="#D9F6DC"/>
<rect x="21" y="45.75" width="17.5" height="23.5" rx="3" transform="rotate(-90 21 45.75)" stroke="#031F88" stroke-width="2"/>
<rect x="24.5" y="52.75" width="19.5" height="25.5" rx="4" transform="rotate(-90 24.5 52.75)" fill="#D9F6DC"/>
<path d="M28.5 51.25C27.9477 51.25 27.5 50.8023 27.5 50.25L27.5 38.25C27.5 37.1454 28.3954 36.25 29.5 36.25L49 36.25L49 48.25C49 49.9069 47.6569 51.25 46 51.25L28.5 51.25Z" fill="#43D14F" fill-opacity="0.8"/>
<rect x="25.5" y="51.75" width="17.5" height="23.5" rx="3" transform="rotate(-90 25.5 51.75)" stroke="#031F88" stroke-width="2"/>
<circle cx="37.25" cy="43" r="2.75" stroke="#031F88" stroke-width="2"/>
</svg>
