<svg width="46" height="46" viewBox="0 0 46 46" fill="none" xmlns="http://www.w3.org/2000/svg">
<circle cx="20.7063" cy="23.3362" r="14.7903" fill="#EFF2F9"/>
<rect width="4.02869" height="8.66841" rx="2.01434" transform="matrix(0.167708 -0.985837 0.983706 0.179785 7.23047 29.8926)" fill="#87A7FD"/>
<rect width="4.02869" height="8.66841" rx="2.01434" transform="matrix(0.167708 -0.985837 0.983706 0.179785 7.23047 33.0332)" fill="#87A7FD"/>
<rect width="4.02869" height="8.66841" rx="2.01434" transform="matrix(0.167708 -0.985837 0.983706 0.179785 7.23047 36.624)" fill="#87A7FD"/>
<rect x="8.21637" y="6.24469" width="5.25877" height="38.7835" rx="2.62939" fill="white" stroke="#031F88" stroke-width="0.657347"/>
<path opacity="0.6" d="M13.147 42.0704L13.147 19.6074L11.8323 19.6074L10.5176 19.6074C10.5176 20.4373 12.2473 20.066 12.2705 20.8381C12.3916 24.8736 12.4454 28.6194 12.3503 32.5391C12.2774 35.5443 13.103 38.6518 12.8183 42.0704L13.147 42.0704Z" fill="#376CFB"/>
<path d="M25.4539 5.58746C26.0993 5.58746 26.6225 6.11067 26.6225 6.75608L26.6225 18.2231C26.6225 18.8685 26.0993 19.3917 25.4539 19.3917L7.23076 19.3917C3.41882 19.3917 0.328624 16.3016 0.328625 12.4896C0.328625 8.67766 3.41882 5.58746 7.23077 5.58746L25.4539 5.58746Z" fill="white" stroke="#031F88" stroke-width="0.657347"/>
<path d="M26.2939 6.57324L26.2939 18.4055C26.2939 18.7685 25.9996 19.0628 25.6366 19.0628L7.55956 19.0628C4.11065 19.0628 1.31477 16.2669 1.31477 12.818C1.31477 9.36913 4.11065 6.57324 7.55956 6.57324L26.2939 6.57324Z" fill="#86969E"/>
<path d="M22.9997 16.8668C25.0208 16.4983 25.8611 17.075 26.5181 18.3303" stroke="#031F88" stroke-width="0.657347" stroke-linecap="round"/>
<path d="M22.3496 17.3311C23.03 16.9107 23.1878 16.5545 23.2471 15.7766" stroke="#031F88" stroke-width="0.657347" stroke-linecap="round" stroke-linejoin="bevel"/>
<circle cx="21.8111" cy="10.6356" r="2.24369" transform="rotate(15 21.8111 10.6356)" fill="white"/>
<ellipse cx="22.7101" cy="11.5949" rx="0.812853" ry="0.897478" transform="rotate(15 22.7101 11.5949)" fill="#031F88"/>
<rect x="6.18066" y="29.5273" width="3.58991" height="8.97478" rx="1.79496" transform="rotate(-80 6.18066 29.5273)" fill="white" stroke="#031F88" stroke-width="0.657347"/>
<rect x="6.90192" y="45.0287" width="5.25877" height="11.1749" rx="0.328673" transform="rotate(-90 6.90192 45.0287)" fill="white" stroke="#031F88" stroke-width="0.657347"/>
<rect x="6.17969" y="32.9727" width="3.58991" height="8.97478" rx="1.79496" transform="rotate(-80 6.17969 32.9727)" fill="white" stroke="#031F88" stroke-width="0.657347"/>
<rect x="6.18066" y="36.3896" width="3.58991" height="8.97478" rx="1.79496" transform="rotate(-80 6.18066 36.3896)" fill="white" stroke="#031F88" stroke-width="0.657347"/>
<path d="M26.6226 9.20324C26.6226 9.02172 26.7698 8.87457 26.9513 8.87457H28.9233C29.8309 8.87457 30.5667 9.61033 30.5667 10.5179V14.462C30.5667 15.3696 29.8309 16.1054 28.9233 16.1054H26.9513C26.7698 16.1054 26.6226 15.9582 26.6226 15.7767V9.20324Z" fill="white" stroke="#031F88" stroke-width="0.657347"/>
<path d="M30.567 11.8322C30.567 11.6506 30.7141 11.5035 30.8956 11.5035L33.9833 11.5035L33.292 13.4755L30.8956 13.4755C30.7141 13.4755 30.567 13.3284 30.567 13.1468L30.567 11.8322Z" fill="white" stroke="#031F88" stroke-width="0.657347"/>
<path opacity="0.3" d="M30.8955 11.832L33.525 11.832L33.1963 13.1467L30.8955 13.1467L30.8955 11.832Z" fill="#86969E"/>
<path opacity="0.5" d="M26.9512 9.20312H28.9232C29.6493 9.20312 30.2379 9.79173 30.2379 10.5178V14.4619C30.2379 15.188 29.6493 15.7766 28.9232 15.7766H26.9512V9.20312Z" fill="#86969E"/>
<path d="M30.7994 22.5996L32.3643 21.226L43.9125 27.8934C44.3841 28.1657 44.5457 28.7687 44.2734 29.2403C44.0012 29.7119 43.3981 29.8735 42.9265 29.6012L30.7994 22.5996Z" fill="white" stroke="#031F88" stroke-width="0.657347"/>
<path opacity="0.3" d="M32.4238 21.6403L43.7481 28.1784C44.0625 28.3599 44.1703 28.7619 43.9887 29.0763C43.8072 29.3907 43.4052 29.4984 43.0908 29.3169L31.3798 22.5556L32.4238 21.6403Z" fill="#86969E"/>
<line x1="40.1769" y1="25.6261" x2="37.483" y2="26.3479" stroke="#031F88" stroke-width="0.657347"/>
<line x1="41.3155" y1="26.2833" x2="38.6217" y2="27.0051" stroke="#031F88" stroke-width="0.657347"/>
<line x1="36.7618" y1="23.6544" x2="34.068" y2="24.3762" stroke="#031F88" stroke-width="0.657347"/>
<line x1="37.9005" y1="24.3116" x2="35.2066" y2="25.0334" stroke="#031F88" stroke-width="0.657347"/>
<path opacity="0.3" d="M32.4494 0C32.4494 0 30.8955 0.676695 30.8955 3.13284C30.8955 5.21304 33.076 5.41352 33.076 7.06766C33.076 8.29573 32.7251 8.67168 32.7251 8.67168C32.7251 8.67168 34.3041 7.41855 34.3041 5.6391C34.304 3.03258 31.8729 4.38593 32.4494 0Z" fill="#86969E"/>
</svg>
