<svg width="20" height="20" viewBox="0 0 20 20" fill="none" xmlns="http://www.w3.org/2000/svg">
<path d="M1.5 5.35351C1.5 3.69666 2.84315 2.35352 4.5 2.35352H16.5C18.1569 2.35352 19.5 3.69666 19.5 5.35352V12.2198C19.5 14.429 17.7091 16.2198 15.5 16.2198H12.6501C12.3313 16.2198 12.0316 16.3718 11.8433 16.6291L10.7465 18.1271C10.3654 18.6476 9.59833 18.6764 9.17929 18.1858L7.74471 16.5063C7.587 16.3216 7.36751 16.2007 7.12718 16.166L1.5 15.3538V5.35351Z" fill="#43D14F" fill-opacity="0.8"/>
<rect x="3" y="6" width="11" height="1" rx="0.5" fill="#031F88"/>
<rect x="3" y="9" width="8" height="1" rx="0.5" fill="#031F88"/>
<path d="M0.5 4.85351C0.5 2.92052 2.067 1.35352 4 1.35352H16C17.933 1.35352 19.5 2.92052 19.5 4.85352V12.2197C19.5 14.1526 17.933 15.7197 16 15.7197H12.6501C12.1719 15.7197 11.7223 15.9477 11.4398 16.3336L10.3431 17.8315C10.1525 18.0918 9.76897 18.1062 9.55945 17.8609L8.17959 16.2454C7.8946 15.9118 7.47781 15.7197 7.03902 15.7197H4C2.067 15.7197 0.5 14.1526 0.5 12.2197V4.85351Z" stroke="#031F88"/>
</svg>
