<svg width="94" height="94" viewBox="0 0 94 94" fill="none" xmlns="http://www.w3.org/2000/svg">
<circle cx="5.08108" cy="47" r="3.83108" fill="#43D14F" stroke="#031F88" stroke-width="2.5"/>
<circle cx="47" cy="5.08108" r="3.83108" fill="#43D14F" stroke="#031F88" stroke-width="2.5"/>
<circle cx="47" cy="88.919" r="3.83108" fill="#43D14F" stroke="#031F88" stroke-width="2.5"/>
<path d="M26.0347 28.467L44.1145 21.337C45.7647 20.6862 47.6004 20.6862 49.2506 21.337L67.3305 28.4671C68.4766 28.9191 69.2298 30.02 69.2298 31.2521V53.9864C69.2298 64.1872 52.9965 74.4536 48.0781 77.33C47.2093 77.8381 46.1558 77.8381 45.287 77.33C40.3686 74.4536 24.1351 64.1872 24.1353 53.9864C24.1354 46.1314 24.1353 35.6201 24.1353 31.2521C24.1353 30.02 24.8885 28.919 26.0347 28.467Z" fill="#43D14F"/>
<path d="M30.7688 31.8757L44.0459 26.4773C45.7364 25.7899 47.6285 25.7899 49.319 26.4773L62.5962 31.8757C63.7268 32.3354 64.4662 33.4328 64.4662 34.6533V52.7789C64.4662 60.8576 52.3221 68.9868 48.1048 71.5663C47.2229 72.1057 46.1421 72.1057 45.2602 71.5663C41.0428 68.9868 28.8985 60.8576 28.8987 52.7789C28.8988 46.5988 28.8987 38.3966 28.8987 34.6533C28.8987 33.4328 29.6381 32.3354 30.7688 31.8757Z" fill="#27C134"/>
<path d="M26.0347 28.467L44.1145 21.337C45.7647 20.6862 47.6004 20.6862 49.2506 21.337L67.3305 28.4671C68.4766 28.9191 69.2298 30.02 69.2298 31.2521V53.9864C69.2298 64.1872 52.9965 74.4536 48.0781 77.33C47.2093 77.8381 46.1558 77.8381 45.287 77.33C40.3686 74.4536 24.1351 64.1872 24.1353 53.9864C24.1354 46.1314 24.1353 35.6201 24.1353 31.2521C24.1353 30.02 24.8885 28.919 26.0347 28.467Z" stroke="#031F88" stroke-width="2.5"/>
<path fill-rule="evenodd" clip-rule="evenodd" d="M38.6343 45.9741C37.6422 46.9662 37.6422 48.5748 38.6343 49.5669L43.1254 54.058C44.1176 55.0502 45.7261 55.0502 46.7183 54.058C46.7289 54.0474 46.7394 54.0367 46.7498 54.026L56.5985 44.1772C57.5906 43.1851 57.5906 41.5765 56.5985 40.5844C55.6064 39.5922 53.9978 39.5922 53.0056 40.5844L44.9216 48.6684L42.2272 45.9741C41.235 44.9819 39.6265 44.9819 38.6343 45.9741Z" fill="white"/>
<path d="M56.6477 6.20605C64.293 8.01418 71.2764 11.9344 76.8013 17.5196C82.3263 23.1048 86.1706 30.1302 87.8958 37.7947" stroke="#031F88" stroke-width="2.5" stroke-linecap="round"/>
<path d="M6.35132 37.5996C8.15944 29.9543 12.0796 22.971 17.6648 17.446C23.2501 11.921 30.2755 8.0767 37.9399 6.35156" stroke="#031F88" stroke-width="2.5" stroke-linecap="round"/>
<path d="M87.4805 57.1621C85.6723 64.8074 81.7521 71.7908 76.1669 77.3158C70.5817 82.8407 63.5563 86.685 55.8918 88.4102" stroke="#031F88" stroke-width="2.5" stroke-linecap="round"/>
<path d="M37.5996 87.4795C29.9543 85.6714 22.971 81.7512 17.446 76.166C11.921 70.5807 8.07671 63.5553 6.35156 55.8909" stroke="#031F88" stroke-width="2.5" stroke-linecap="round"/>
<circle cx="88.919" cy="47" r="3.83108" fill="#43D14F" stroke="#031F88" stroke-width="2.5"/>
</svg>
