<svg width="16" height="14" viewBox="0 0 16 14" fill="none" xmlns="http://www.w3.org/2000/svg">
<path fill-rule="evenodd" clip-rule="evenodd" d="M1.68155 0.493505C1.29102 0.884029 1.2889 1.5193 1.67681 1.91242L6.54643 6.84746L1.40108 11.9246C1.00796 12.3125 1.00585 12.9436 1.39638 13.3341C1.7869 13.7246 2.42217 13.7267 2.81529 13.3388L7.95114 8.27105L13.1126 13.5019C13.5006 13.895 14.1316 13.8971 14.5221 13.5066C14.9126 13.1161 14.9148 12.4808 14.5269 12.0877L9.37473 6.86634L14.4048 1.90298C14.7979 1.51507 14.8 0.884029 14.4095 0.493505C14.0189 0.10298 13.3837 0.10086 12.9906 0.48877L7.97002 5.44275L3.09103 0.498208C2.70312 0.105086 2.07207 0.102981 1.68155 0.493505Z" fill="black"/>
</svg>
