<svg width="18" height="18" viewBox="0 0 18 18" fill="none" xmlns="http://www.w3.org/2000/svg">
<circle cx="9" cy="9" r="7.75" stroke="white" stroke-width="1.5"/>
<path fill-rule="evenodd" clip-rule="evenodd" d="M4.79289 4.79291C4.40237 5.18343 4.40237 5.8166 4.79289 6.20712L7.62143 9.03566L4.79296 11.8641C4.40244 12.2547 4.40244 12.8878 4.79296 13.2783C5.18349 13.6689 5.81665 13.6689 6.20718 13.2783L9.03564 10.4499L11.864 13.2782C12.2545 13.6687 12.8876 13.6687 13.2782 13.2782C13.6687 12.8877 13.6687 12.2545 13.2782 11.864L10.4499 9.03566L13.2782 6.20727C13.6688 5.81675 13.6688 5.18358 13.2782 4.79306C12.8877 4.40254 12.2546 4.40254 11.864 4.79306L9.03564 7.62145L6.20711 4.79291C5.81658 4.40238 5.18342 4.40238 4.79289 4.79291Z" fill="white"/>
</svg>
