<svg width="14" height="14" viewBox="0 0 14 14" fill="none" xmlns="http://www.w3.org/2000/svg">
<path fill-rule="evenodd" clip-rule="evenodd" d="M0.720915 0.493505C0.330391 0.884029 0.32827 1.5193 0.71618 1.91242L5.5858 6.84746L0.440449 11.9246C0.0473275 12.3125 0.0452217 12.9436 0.435747 13.3341C0.82627 13.7246 1.46154 13.7267 1.85466 13.3388L6.99051 8.27105L12.152 13.5019C12.5399 13.895 13.171 13.8971 13.5615 13.5066C13.952 13.1161 13.9541 12.4808 13.5662 12.0877L8.4141 6.86634L13.4441 1.90298C13.8373 1.51507 13.8394 0.884029 13.4488 0.493505C13.0583 0.10298 12.423 0.10086 12.0299 0.48877L7.00938 5.44275L2.13039 0.498208C1.74249 0.105086 1.11144 0.102981 0.720915 0.493505Z" fill="black"/>
</svg>
