<svg width="28" height="28" viewBox="0 0 28 28" fill="none" xmlns="http://www.w3.org/2000/svg">
<path opacity="0.8" d="M19.7598 18.7925L24.8511 18.7937C25.9621 18.794 26.8598 19.7197 26.8503 20.8307C26.8457 21.3796 26.3993 21.832 25.8503 21.832H21.5547C21.1328 21.832 20.7562 21.5671 20.6136 21.17L19.7598 18.7925Z" fill="#43D14F"/>
<path opacity="0.8" d="M3.06759 21.0758C3.26272 19.5148 4.5896 18.3434 6.16269 18.3434L7.92052 18.3433L6.91409 21.9524H3.84141C3.37233 21.9524 3.0094 21.5412 3.06759 21.0758Z" fill="#43D14F"/>
<path opacity="0.8" d="M9.2734 23.7568C9.02962 20.3439 11.7327 17.4409 15.1543 17.4409H15.7642C18.2525 17.4409 20.3621 19.2706 20.714 21.7338L20.8399 22.6154C20.926 23.2179 20.4585 23.7568 19.85 23.7568H9.2734Z" fill="#43D14F"/>
<path d="M7.6582 22.2582C7.6582 18.7563 10.4971 15.9175 13.999 15.9175C17.5009 15.9175 20.3397 18.7563 20.3397 22.2582V23.0934H7.6582V22.2582Z" stroke="#031F88" stroke-width="2"/>
<path fill-rule="evenodd" clip-rule="evenodd" d="M21.3406 23.259H26.06C27.0467 23.259 27.8465 22.4591 27.8465 21.4725V21.3414C27.8465 18.2552 25.3447 15.7534 22.2585 15.7534C21.02 15.7534 19.8756 16.1564 18.9492 16.8383C19.4438 17.2901 19.8764 17.8086 20.2326 18.3797C20.8091 17.9846 21.5068 17.7534 22.2585 17.7534C24.2126 17.7534 25.8018 19.3155 25.8456 21.259H21.273C21.3176 21.5862 21.3406 21.9202 21.3406 22.2597V23.259Z" fill="#031F88"/>
<path fill-rule="evenodd" clip-rule="evenodd" d="M6.72624 21.259C6.68164 21.5862 6.6586 21.9202 6.6586 22.2597V23.1773C6.6586 23.2048 6.65982 23.2321 6.66219 23.259H1.93983C0.953167 23.259 0.15332 22.4591 0.15332 21.4725V21.3414C0.15332 18.2552 2.65514 15.7534 5.7413 15.7534C6.97968 15.7534 8.12397 16.1563 9.05029 16.838C8.55567 17.2898 8.12308 17.8083 7.7668 18.3794C7.19037 17.9845 6.49282 17.7534 5.7413 17.7534C3.78725 17.7534 2.19805 19.3155 2.15425 21.259H6.72624Z" fill="#031F88"/>
<circle opacity="0.8" cx="22.8075" cy="11.5765" r="1.80455" fill="#43D14F"/>
<circle opacity="0.8" cx="6.56724" cy="11.5765" r="1.80455" fill="#43D14F"/>
<circle opacity="0.8" cx="14.6873" cy="8.86942" r="2.70682" fill="#43D14F"/>
<circle cx="13.9991" cy="8.49472" r="3.58798" stroke="#031F88" stroke-width="2"/>
<circle cx="22.2583" cy="11.248" r="2.67038" stroke="#031F88" stroke-width="2"/>
<circle cx="5.74167" cy="11.248" r="2.67038" stroke="#031F88" stroke-width="2"/>
</svg>
