<svg width="77" height="87" viewBox="0 0 77 87" fill="none" xmlns="http://www.w3.org/2000/svg">
<circle cx="39.5" cy="41.5" r="22.5" fill="#EFF2F9"/>
<path d="M36.0117 45.0825L38.5999 35.4233C38.7429 34.8898 39.2912 34.5732 39.8247 34.7162L66.3876 41.8337C67.988 42.2625 69.6313 41.3194 70.0601 39.719C71.0754 35.9298 72.842 29.3368 73.8233 25.6746C74.2531 24.0703 73.1595 22.9379 71.5567 22.5025L59.0469 19.1044" stroke="#031F88"/>
<path d="M30.2185 14.5425L50.8912 18.5288L53.623 19.2608L71.6586 24.0934C72.1921 24.2364 72.5086 24.7847 72.3657 25.3182L68.7422 38.8412C68.4564 39.9081 67.3597 40.5413 66.2927 40.2554L39.7298 33.1378C38.6629 32.852 37.5662 33.4851 37.2803 34.5521L35.3392 41.7965" stroke="#031F88"/>
<rect x="33.1231" y="36.544" width="9" height="41" rx="4.5" transform="rotate(15 33.1231 36.544)" fill="white" stroke="#031F88"/>
<rect x="14.6202" y="17.999" width="18" height="54" rx="8.5" transform="rotate(-75 14.6202 17.999)" fill="white" stroke="#031F88"/>
<path d="M22.9608 19.7161C18.6931 18.5725 16.1604 14.1858 17.304 9.9181L17.5628 8.95218C18.7063 4.68445 23.093 2.15179 27.3607 3.29532L63.1 12.8716C67.3677 14.0152 69.9004 18.4019 68.7568 22.6696L68.498 23.6355C67.3545 27.9032 62.9678 30.4359 58.7001 29.2924L22.9608 19.7161Z" fill="#43D14F"/>
<path d="M26.3942 3.0365C16.2174 2.3798 15.3022 13.5226 19.0018 17.1021C16.7349 0.448301 35.3118 6.46085 63.5823 13.001C61.7798 12.0004 35.6999 5.01234 26.3942 3.0365Z" fill="#35BB40"/>
<ellipse cx="37.9865" cy="11.7397" rx="2.44998" ry="2.79998" transform="rotate(15 37.9865 11.7397)" fill="white"/>
<ellipse cx="37.9868" cy="11.7394" rx="1.04999" ry="1.39999" transform="rotate(15 37.9868 11.7394)" fill="#031F88"/>
<ellipse cx="49.4807" cy="14.8201" rx="2.44998" ry="2.79998" transform="rotate(15 49.4807 14.8201)" fill="white"/>
<ellipse cx="49.481" cy="14.8197" rx="1.04999" ry="1.39999" transform="rotate(15 49.481 14.8197)" fill="#031F88"/>
<path opacity="0.6" d="M32.9223 70.1366L40.219 42.9048C40.5147 41.8012 40.2928 40.623 39.6157 39.7027C39.081 38.9759 38.3149 38.4526 37.4433 38.2191L37.3408 38.1917C37.0429 39.3035 39.4998 40.3014 39.2566 41.3449C37.0117 50.981 34.4605 59.2367 30.6685 69.5326L32.9223 70.1366Z" fill="#376CFB"/>
<rect x="25.1455" y="56.6609" width="5.46121" height="13.653" rx="2.73061" transform="rotate(-65 25.1455 56.6609)" fill="white" stroke="#031F88"/>
<rect x="23.7881" y="61.7234" width="5.46121" height="13.653" rx="2.73061" transform="rotate(-65 23.7881 61.7234)" fill="white" stroke="#031F88"/>
<rect x="22.4434" y="66.7454" width="5.46121" height="13.653" rx="2.73061" transform="rotate(-65 22.4434 66.7454)" fill="white" stroke="#031F88"/>
<path d="M37.9864 17.7316C38.0705 17.4178 38.3931 17.2316 38.7069 17.3157L46.2638 19.3406C46.5776 19.4247 46.7638 19.7472 46.6798 20.061C46.0491 22.4145 43.63 23.8112 41.2765 23.1806L41.106 23.1349C38.7525 22.5043 37.3558 20.0852 37.9864 17.7316Z" fill="#031F88"/>
<path d="M39.3665 22.2151C39.1161 22.0274 38.956 21.8399 38.9982 21.6826C39.4805 19.8824 44.3101 21.1767 43.8278 22.9769C43.7856 23.1342 43.5533 23.2165 43.2426 23.2538C41.8848 23.4169 40.4609 23.0353 39.3665 22.2151Z" fill="#FC2133"/>
<path d="M21.9095 31.9864C21.7492 31.9465 21.5795 31.9715 21.4377 32.0561C21.2958 32.1407 21.1933 32.278 21.1524 32.4379L21.0163 32.9459C19.9919 32.8673 18.9892 33.2711 18.6978 34.3584C18.4957 35.1127 18.6727 35.814 19.0347 36.2917C19.3968 36.7695 19.8708 37.0653 20.2835 37.3375C20.6961 37.6098 21.0486 37.8588 21.2248 38.0912C21.4009 38.3237 21.4687 38.4977 21.3474 38.9503C21.0779 39.956 18.6661 39.3098 18.9356 38.304C18.959 38.2241 18.9661 38.1404 18.9565 38.0577C18.947 37.975 18.9211 37.895 18.8802 37.8225C18.8393 37.7499 18.7843 37.6862 18.7185 37.6352C18.6527 37.5841 18.5773 37.5467 18.4968 37.5252C18.4163 37.5036 18.3324 37.4983 18.2498 37.5096C18.1673 37.5209 18.0879 37.5486 18.0162 37.591C17.9445 37.6334 17.882 37.6896 17.8324 37.7565C17.7828 37.8233 17.7471 37.8994 17.7274 37.9803C17.4363 39.0668 18.1031 39.9192 19.0286 40.364L18.8932 40.8696C18.8698 40.9495 18.8627 41.0332 18.8723 41.1159C18.8818 41.1986 18.9077 41.2786 18.9486 41.3512C18.9895 41.4237 19.0445 41.4874 19.1103 41.5384C19.1761 41.5895 19.2515 41.6269 19.332 41.6485C19.4125 41.67 19.4964 41.6753 19.579 41.664C19.6615 41.6527 19.7409 41.6251 19.8126 41.5827C19.8843 41.5403 19.9468 41.484 19.9963 41.4171C20.0459 41.3503 20.0817 41.2742 20.1014 41.1934L20.2369 40.6877C21.261 40.7654 22.2657 40.361 22.5569 39.2743C22.759 38.52 22.5808 37.8184 22.2188 37.3407C21.8568 36.863 21.383 36.566 20.9704 36.2937C20.5577 36.0215 20.2049 35.7736 20.0288 35.5412C19.8526 35.3088 19.7848 35.1348 19.9061 34.6822C20.1756 33.6765 22.5874 34.3227 22.3179 35.3284C22.275 35.4886 22.2975 35.6593 22.3806 35.803C22.4636 35.9467 22.6004 36.0515 22.7608 36.0945C22.9211 36.1375 23.092 36.115 23.2358 36.0322C23.3795 35.9493 23.4844 35.8127 23.5273 35.6525C23.8182 34.5668 23.1496 33.7158 22.2242 33.2708L22.3607 32.7617C22.3833 32.6812 22.3894 32.597 22.3789 32.5141C22.3683 32.4311 22.3412 32.3512 22.2991 32.2789C22.257 32.2066 22.2009 32.1434 22.134 32.0932C22.067 32.043 21.9907 32.0067 21.9095 31.9864Z" fill="#43D14F"/>
<path d="M28.2957 27.4861C28.1995 27.4621 28.0977 27.4772 28.0126 27.5279C27.9275 27.5787 27.866 27.661 27.8415 27.757L27.7598 28.0618C27.1451 28.0146 26.5435 28.2569 26.3687 28.9093C26.2474 29.3619 26.3536 29.7827 26.5708 30.0693C26.7881 30.3559 27.0725 30.5334 27.3201 30.6968C27.5677 30.8601 27.7792 31.0095 27.8849 31.149C27.9905 31.2884 28.0312 31.3928 27.9585 31.6644C27.7968 32.2678 26.3497 31.8801 26.5114 31.2767C26.5254 31.2287 26.5296 31.1785 26.5239 31.1288C26.5182 31.0792 26.5026 31.0313 26.4781 30.9877C26.4536 30.9442 26.4206 30.906 26.3811 30.8754C26.3416 30.8447 26.2964 30.8223 26.2481 30.8093C26.1998 30.7964 26.1494 30.7932 26.0999 30.8C26.0504 30.8068 26.0027 30.8234 25.9597 30.8488C25.9167 30.8743 25.8792 30.908 25.8495 30.9481C25.8197 30.9882 25.7983 31.0339 25.7864 31.0824C25.6118 31.7343 26.0119 32.2458 26.5672 32.5126L26.4859 32.816C26.4719 32.8639 26.4676 32.9142 26.4734 32.9638C26.4791 33.0134 26.4946 33.0614 26.5192 33.1049C26.5437 33.1485 26.5767 33.1867 26.6162 33.2173C26.6557 33.2479 26.7009 33.2704 26.7492 33.2833C26.7975 33.2962 26.8479 33.2994 26.8974 33.2926C26.9469 33.2859 26.9946 33.2693 27.0376 33.2438C27.0806 33.2184 27.1181 33.1846 27.1478 33.1445C27.1776 33.1044 27.199 33.0588 27.2108 33.0103L27.2921 32.7069C27.9066 32.7535 28.5094 32.5108 28.6841 31.8588C28.8054 31.4063 28.6985 30.9853 28.4813 30.6987C28.2641 30.412 27.9798 30.2338 27.7322 30.0705C27.4846 29.9071 27.2729 29.7584 27.1673 29.619C27.0616 29.4795 27.0209 29.3751 27.0937 29.1036C27.2553 28.5001 28.7024 28.8879 28.5407 29.4913C28.515 29.5874 28.5285 29.6898 28.5783 29.776C28.6282 29.8622 28.7102 29.9252 28.8065 29.9509C28.9027 29.9767 29.0052 29.9633 29.0915 29.9135C29.1777 29.8638 29.2406 29.7819 29.2664 29.6857C29.4409 29.0343 29.0398 28.5237 28.4845 28.2567L28.5664 27.9512C28.58 27.903 28.5837 27.8524 28.5773 27.8027C28.571 27.7529 28.5547 27.7049 28.5295 27.6616C28.5042 27.6182 28.4705 27.5803 28.4304 27.5502C28.3902 27.52 28.3444 27.4982 28.2957 27.4861Z" fill="#43D14F"/>
<path d="M19.191 20.9054C19.1268 20.8894 19.059 20.8994 19.0022 20.9332C18.9455 20.9671 18.9045 21.022 18.8881 21.086L18.8337 21.2892C18.4239 21.2577 18.0228 21.4192 17.9063 21.8542C17.8254 22.1559 17.8962 22.4364 18.041 22.6275C18.1858 22.8186 18.3755 22.9369 18.5405 23.0458C18.7056 23.1547 18.8466 23.2543 18.9171 23.3473C18.9875 23.4403 19.0146 23.5099 18.9661 23.6909C18.8583 24.0932 17.8936 23.8347 18.0014 23.4324C18.0107 23.4004 18.0136 23.3669 18.0098 23.3339C18.006 23.3008 17.9956 23.2688 17.9792 23.2398C17.9629 23.2108 17.9409 23.1853 17.9145 23.1649C17.8882 23.1444 17.8581 23.1295 17.8259 23.1209C17.7937 23.1122 17.7601 23.1101 17.7271 23.1146C17.6941 23.1192 17.6623 23.1302 17.6336 23.1472C17.6049 23.1641 17.58 23.1866 17.5601 23.2134C17.5403 23.2401 17.526 23.2706 17.5181 23.3029C17.4016 23.7375 17.6684 24.0785 18.0386 24.2564L17.9844 24.4586C17.9751 24.4906 17.9722 24.5241 17.976 24.5572C17.9799 24.5902 17.9902 24.6222 18.0066 24.6513C18.0229 24.6803 18.0449 24.7057 18.0713 24.7262C18.0976 24.7466 18.1277 24.7615 18.1599 24.7702C18.1921 24.7788 18.2257 24.7809 18.2587 24.7764C18.2917 24.7719 18.3235 24.7608 18.3522 24.7439C18.3809 24.7269 18.4059 24.7044 18.4257 24.6776C18.4455 24.6509 18.4598 24.6205 18.4677 24.5881L18.5219 24.3859C18.9315 24.417 19.3334 24.2552 19.4499 23.8205C19.5307 23.5188 19.4595 23.2382 19.3147 23.0471C19.1699 22.856 18.9804 22.7372 18.8153 22.6283C18.6502 22.5194 18.5091 22.4202 18.4387 22.3273C18.3682 22.2343 18.3411 22.1647 18.3896 21.9837C18.4974 21.5814 19.4621 21.8399 19.3543 22.2422C19.3371 22.3062 19.3462 22.3745 19.3794 22.432C19.4126 22.4895 19.4673 22.5314 19.5315 22.5486C19.5956 22.5658 19.6639 22.5568 19.7215 22.5237C19.779 22.4905 19.8209 22.4359 19.8381 22.3718C19.9544 21.9375 19.687 21.5971 19.3168 21.4191L19.3714 21.2155C19.3805 21.1833 19.3829 21.1496 19.3787 21.1164C19.3745 21.0832 19.3636 21.0513 19.3468 21.0223C19.33 20.9934 19.3075 20.9682 19.2807 20.9481C19.254 20.928 19.2234 20.9135 19.191 20.9054Z" fill="#43D14F"/>
</svg>
