<svg width="28" height="28" viewBox="0 0 28 28" fill="none" xmlns="http://www.w3.org/2000/svg">
<path d="M28 22.75C28 23.0815 27.8659 23.3995 27.6272 23.6339C27.3885 23.8683 27.0648 24 26.7273 24H11.4545C11.117 24 10.7933 23.8683 10.5546 23.6339C10.3159 23.3995 10.1818 23.0815 10.1818 22.75C10.1818 20.7609 10.9864 18.8532 12.4185 17.4467C13.8506 16.0402 15.7929 15.25 17.8182 15.25H20.3636C22.3889 15.25 24.3313 16.0402 25.7634 17.4467C27.1955 18.8532 28 20.7609 28 22.75ZM19.0909 4C18.084 4 17.0997 4.29324 16.2626 4.84265C15.4254 5.39206 14.7728 6.17295 14.3875 7.08658C14.0022 8.00021 13.9014 9.00555 14.0978 9.97545C14.2943 10.9454 14.7791 11.8363 15.4911 12.5355C16.2031 13.2348 17.1102 13.711 18.0977 13.9039C19.0853 14.0969 20.1089 13.9978 21.0391 13.6194C21.9694 13.241 22.7644 12.6001 23.3238 11.7779C23.8832 10.9556 24.1818 9.98891 24.1818 9C24.1818 7.67392 23.6455 6.40215 22.6907 5.46447C21.736 4.52678 20.4411 4 19.0909 4ZM7.63636 4C6.62948 4 5.6452 4.29324 4.80801 4.84265C3.97081 5.39206 3.3183 6.17295 2.93298 7.08658C2.54766 8.00021 2.44684 9.00555 2.64328 9.97545C2.83971 10.9454 3.32457 11.8363 4.03655 12.5355C4.74852 13.2348 5.65564 13.711 6.64318 13.9039C7.63072 14.0969 8.65433 13.9978 9.58457 13.6194C10.5148 13.241 11.3099 12.6001 11.8693 11.7779C12.4287 10.9556 12.7273 9.98891 12.7273 9C12.7273 7.67392 12.1909 6.40215 11.2362 5.46447C10.2814 4.52678 8.98656 4 7.63636 4ZM7.63636 22.75C7.63447 21.437 7.89785 20.1367 8.41125 18.9244C8.92466 17.7121 9.67787 16.6119 10.6273 15.6875C9.85032 15.3994 9.02685 15.2512 8.19636 15.25H7.07636C5.20063 15.2533 3.40268 15.9866 2.07634 17.2893C0.749988 18.5919 0.00336455 20.3578 0 22.2V22.75C0 23.0815 0.13409 23.3995 0.372773 23.6339C0.611456 23.8683 0.935179 24 1.27273 24H7.86545C7.71728 23.5992 7.63981 23.1764 7.63636 22.75Z" fill="#86969E"/>
</svg>
