<svg width="47" height="47" viewBox="0 0 47 47" fill="none" xmlns="http://www.w3.org/2000/svg">
<path d="M23.5 1C11.0914 1 1 11.0914 1 23.5C1 35.9086 11.0914 46 23.5 46C35.9086 46 46 35.9086 46 23.5C46 11.0914 35.9086 1 23.5 1ZM23.5 4C34.2873 4 43.0117 12.7127 43.0117 23.5C43.0117 34.2873 34.2873 43.0117 23.5 43.0117C12.7127 43.0117 4 34.2873 4 23.5C4 12.7127 12.7127 4 23.5 4Z" fill="#20AEF7" stroke="#20AEF7" stroke-width="0.5"/>
<rect x="12" y="15" width="23" height="19" rx="3" stroke="#20AEF7" stroke-width="3" stroke-linecap="round" stroke-linejoin="round"/>
<rect x="16" y="10" width="3" height="6.4" rx="1.5" fill="#20AEF7"/>
<rect x="28" y="10" width="3" height="6.4" rx="1.5" fill="#20AEF7"/>
<rect x="16" y="18" width="3" height="3" rx="1.5" fill="#20AEF7"/>
<rect x="16" y="23" width="3" height="3" rx="1.5" fill="#20AEF7"/>
<rect x="16" y="28" width="3" height="3" rx="1.5" fill="#20AEF7"/>
<rect x="22" y="18" width="3" height="3" rx="1.5" fill="#20AEF7"/>
<rect x="22" y="23" width="3" height="3" rx="1.5" fill="#20AEF7"/>
<rect x="22" y="28" width="3" height="3" rx="1.5" fill="#20AEF7"/>
<rect x="28.0001" y="18" width="3" height="3" rx="1.5" fill="#20AEF7"/>
<rect x="28.0001" y="23" width="3" height="3" rx="1.5" fill="#20AEF7"/>
<rect x="28.0001" y="28" width="3" height="3" rx="1.5" fill="#20AEF7"/>
</svg>
