<svg width="20" height="20" viewBox="0 0 20 20" fill="none" xmlns="http://www.w3.org/2000/svg">
<path fill-rule="evenodd" clip-rule="evenodd" d="M13.125 2.5H16.5625C17.4254 2.5 18.125 3.19957 18.125 4.0625V5.3125C18.125 5.6577 17.8452 5.9375 17.5 5.9375H2.5C2.1548 5.9375 1.875 5.6577 1.875 5.3125V4.0625C1.875 3.19957 2.57457 2.5 3.4375 2.5H6.875V1.875C6.875 0.839453 7.71445 0 8.75 0H11.25C12.2855 0 13.125 0.839453 13.125 1.875V2.5ZM8.75 1.25C8.40547 1.25 8.125 1.53047 8.125 1.875V2.5H11.875V1.875C11.875 1.53047 11.5945 1.25 11.25 1.25H8.75ZM2.86579 7.39211C2.86048 7.2807 2.94934 7.1875 3.06087 7.1875H16.9387C17.0502 7.1875 17.1391 7.2807 17.1338 7.39211L16.6181 18.2141C16.5705 19.2156 15.7478 20 14.7455 20H5.25407C4.25173 20 3.42907 19.2156 3.38141 18.2141L2.86579 7.39211ZM13.1248 8.125C12.7795 8.125 12.4998 8.40469 12.4998 8.75V16.875C12.4998 17.2203 12.7795 17.5 13.1248 17.5C13.4701 17.5 13.7498 17.2203 13.7498 16.875V8.75C13.7498 8.40469 13.4701 8.125 13.1248 8.125ZM9.99977 8.125C9.65446 8.125 9.37477 8.40469 9.37477 8.75V16.875C9.37477 17.2203 9.65446 17.5 9.99977 17.5C10.3451 17.5 10.6248 17.2203 10.6248 16.875V8.75C10.6248 8.40469 10.3451 8.125 9.99977 8.125ZM6.87477 8.125C6.52946 8.125 6.24977 8.40469 6.24977 8.75V16.875C6.24977 17.2203 6.52946 17.5 6.87477 17.5C7.22009 17.5 7.49977 17.2203 7.49977 16.875V8.75C7.49977 8.40469 7.22009 8.125 6.87477 8.125Z" fill="#86969E"/>
</svg>
