<svg width="35" height="34" viewBox="0 0 35 34" fill="none" xmlns="http://www.w3.org/2000/svg">
<path d="M2.16733 16.4872L6.38643 11.8904L11.1663 6.76155C12.0648 5.79748 13.3234 5.25 14.6412 5.25H30C32.0711 5.25 33.75 6.92893 33.75 9V25C33.75 27.0711 32.0711 28.75 30 28.75H14.6536C13.33 28.75 12.0665 28.1978 11.1675 27.2264L6.93303 22.651L2.16943 17.5038C1.90416 17.2172 1.90325 16.775 2.16733 16.4872L1.24642 15.642L2.16733 16.4872Z" stroke="#86969E" stroke-width="2.5"/>
<path fill-rule="evenodd" clip-rule="evenodd" d="M27.2426 14.526C27.7308 14.0379 27.7308 13.2464 27.2426 12.7583C26.7545 12.2701 25.963 12.2701 25.4749 12.7583L23 15.2331L20.5251 12.7583C20.037 12.2701 19.2455 12.2701 18.7574 12.7583C18.2692 13.2464 18.2692 14.0379 18.7574 14.526L21.2322 17.0009L18.7574 19.4758C18.2692 19.9639 18.2692 20.7554 18.7574 21.2435C19.2455 21.7317 20.037 21.7317 20.5251 21.2435L23 18.7687L25.4749 21.2435C25.963 21.7317 26.7545 21.7317 27.2426 21.2435C27.7308 20.7554 27.7308 19.9639 27.2426 19.4758L24.7678 17.0009L27.2426 14.526Z" fill="#86969E"/>
</svg>
