<svg width="113" height="131" viewBox="0 0 113 131" fill="none" xmlns="http://www.w3.org/2000/svg">
<circle cx="56.2374" cy="74.7628" r="56.2374" fill="#16BDC8"/>
<path fill-rule="evenodd" clip-rule="evenodd" d="M66.336 1.21546C64.6368 0.54418 62.7151 1.37748 62.0438 3.0767L48.1393 38.2734C48.0519 38.4944 47.983 38.7224 47.9333 38.9548C47.9136 39.0467 47.9095 39.1419 47.9226 39.2351C48.7063 44.8364 53.1399 48.9893 59.88 54.0206C60.1243 54.203 60.2149 54.5244 60.1053 54.8018L51.0734 77.6644L42.4907 99.3898C41.0139 103.128 42.8471 107.356 46.5854 108.833C50.3237 110.309 54.5513 108.476 56.0281 104.738L58.4591 98.5845L73.6113 60.2295C73.7274 59.9357 74.0435 59.7588 74.368 59.8189C79.0039 60.6762 82.4122 60.874 85.3277 60.4036C88.0731 59.9605 90.3361 58.9323 92.7413 57.3837C93.0654 57.1751 93.3323 56.8895 93.5266 56.5565C93.5914 56.4455 93.6476 56.3298 93.6948 56.2103L107.579 21.0655C108.25 19.3663 107.417 17.4446 105.718 16.7733L66.336 1.21546Z" fill="white"/>
<rect x="63.6313" y="0.858398" width="47.6364" height="34.404" rx="1" transform="rotate(21.5567 63.6313 0.858398)" fill="#16BDC8"/>
<ellipse cx="69.3208" cy="29.8538" rx="3.24189" ry="3.70502" transform="rotate(21.5567 69.3208 29.8538)" fill="white"/>
<ellipse cx="69.3205" cy="29.8535" rx="1.38938" ry="1.85251" transform="rotate(21.5567 69.3205 29.8535)" fill="#031F88"/>
<ellipse cx="83.9658" cy="35.6399" rx="3.24189" ry="3.70502" transform="rotate(21.5567 83.9658 35.6399)" fill="white"/>
<ellipse cx="83.966" cy="35.6387" rx="1.38938" ry="1.85251" transform="rotate(21.5567 83.966 35.6387)" fill="#031F88"/>
<rect x="72.2461" y="4.26172" width="2.64646" height="13.2323" rx="1.32323" transform="rotate(21.5567 72.2461 4.26172)" fill="white"/>
<rect x="66.0933" y="1.83105" width="2.64646" height="18.5253" rx="1.32323" transform="rotate(21.5567 66.0933 1.83105)" fill="white"/>
<rect x="96.8594" y="13.9854" width="2.64646" height="18.5253" rx="1.32323" transform="rotate(21.5567 96.8594 13.9854)" fill="white"/>
<rect x="78.3994" y="6.69238" width="2.64646" height="7.93939" rx="1.32323" transform="rotate(21.5567 78.3994 6.69238)" fill="white"/>
<rect x="103.013" y="16.416" width="2.64646" height="7.93939" rx="1.32323" transform="rotate(21.5567 103.013 16.416)" fill="white"/>
<rect x="84.5532" y="9.12305" width="2.64646" height="14.5556" rx="1.32323" transform="rotate(21.5567 84.5532 9.12305)" fill="white"/>
<rect x="90.7065" y="11.5547" width="2.64646" height="6.61616" rx="1.32323" transform="rotate(21.5567 90.7065 11.5547)" fill="white"/>
<path opacity="0.6" d="M56.8011 99.1749L71.6297 61.6392C71.6297 61.6392 72.359 59.7932 73.4605 58.8056C74.562 57.818 80.4725 60.8644 86.8538 59.1171C88.9809 58.5347 91.3888 56.6404 91.3888 56.6404C81.8184 59.2619 72.1071 55.0328 71.0006 57.8338C69.0558 62.7565 60.4701 85.0787 53.9295 98.0405L56.8011 99.1749Z" fill="#376CFB"/>
<path fill-rule="evenodd" clip-rule="evenodd" d="M66.336 1.21546C64.6368 0.54418 62.7151 1.37748 62.0438 3.0767L48.1393 38.2734C48.0519 38.4944 47.983 38.7224 47.9333 38.9548C47.9136 39.0467 47.9095 39.1419 47.9226 39.2351C48.7063 44.8364 53.1399 48.9893 59.88 54.0206C60.1243 54.203 60.2149 54.5244 60.1053 54.8018L51.0734 77.6644L42.4907 99.3898C41.0139 103.128 42.8471 107.356 46.5854 108.833C50.3237 110.309 54.5513 108.476 56.0281 104.738L58.4591 98.5845L73.6113 60.2295C73.7274 59.9357 74.0435 59.7588 74.368 59.8189C79.0039 60.6762 82.4122 60.874 85.3277 60.4036C88.0731 59.9605 90.3361 58.9323 92.7413 57.3837C93.0654 57.1751 93.3323 56.8895 93.5266 56.5565C93.5914 56.4455 93.6476 56.3298 93.6948 56.2103L107.579 21.0655C108.25 19.3663 107.417 17.4446 105.718 16.7733L66.336 1.21546ZM91.7942 56.4184C92.1418 56.1988 92.4064 55.8703 92.5575 55.4878L106.348 20.5793C106.751 19.5598 106.251 18.4068 105.231 18.004L65.8498 2.44614C64.8303 2.04337 63.6773 2.54335 63.2745 3.56288L49.3362 38.8449C49.2723 39.0066 49.2508 39.1828 49.2796 39.3544C50.0926 44.1951 54.0202 47.9952 60.6715 52.9602C61.3892 53.4959 61.6675 54.4489 61.336 55.288L43.7214 99.876C42.513 102.935 44.013 106.394 47.0716 107.602C50.1302 108.81 53.5892 107.31 54.7975 104.252L72.3806 59.7433C72.7344 58.8479 73.6758 58.3452 74.6087 58.5177C79.1805 59.3632 82.4176 59.5328 85.1169 59.0972C87.5459 58.7053 89.5809 57.8165 91.7942 56.4184Z" fill="#031F88"/>
<rect width="8.10971" height="17.4494" rx="4.05486" transform="matrix(0.518195 -0.855263 0.848843 0.528645 49.3374 82.0586)" fill="#87A7FD"/>
<rect width="8.10971" height="17.4494" rx="4.05486" transform="matrix(0.518195 -0.855263 0.848843 0.528645 47.0142 87.9395)" fill="#87A7FD"/>
<rect width="8.10971" height="17.4494" rx="4.05486" transform="matrix(0.518195 -0.855263 0.848843 0.528645 44.3584 94.6621)" fill="#87A7FD"/>
<rect x="47.9399" y="80.1963" width="7.22645" height="18.0661" rx="3.61323" transform="rotate(-58.4433 47.9399 80.1963)" fill="white" stroke="#031F88"/>
<rect x="45.3911" y="86.6465" width="7.22645" height="18.0661" rx="3.61323" transform="rotate(-58.4433 45.3911 86.6465)" fill="white" stroke="#031F88"/>
<rect x="42.8638" y="93.0449" width="7.22645" height="18.0661" rx="3.61323" transform="rotate(-58.4433 42.8638 93.0449)" fill="white" stroke="#031F88"/>
<path d="M52.4492 29.1641C68.0323 39.3772 77.7884 43.1085 96.7536 46.6667L93.1634 55.7547C92.9891 56.1958 92.5226 56.4529 92.0557 56.37C73.7385 53.1193 64.1088 49.216 49.2419 39.4589C48.8467 39.1995 48.6841 38.6948 48.8577 38.2552L52.4492 29.1641Z" fill="#EFF2F9" stroke="#031F88"/>
<path d="M66.8327 41.3743C66.9906 40.9745 67.4428 40.7784 67.8426 40.9364L77.4708 44.7401C77.8706 44.898 78.0667 45.3502 77.9088 45.75C76.7242 48.7486 73.333 50.2191 70.3344 49.0345L70.1172 48.9487C67.1186 47.7641 65.648 44.3729 66.8327 41.3743Z" fill="#031F88"/>
<path d="M68.4822 47.9005C67.9107 47.4759 67.4474 47.0207 67.5655 46.7217C68.4716 44.4281 74.6249 46.8592 73.7188 49.1528C73.6007 49.4519 72.9515 49.4676 72.2441 49.3868C70.8853 49.2317 69.5801 48.716 68.4822 47.9005Z" fill="#FB275D"/>
</svg>
