<svg width="70" height="80" viewBox="0 0 70 80" fill="none" xmlns="http://www.w3.org/2000/svg">
<path d="M33 1.15504C34.2376 0.440509 35.7624 0.440507 37 1.15504L67.6411 18.8456C68.8787 19.5602 69.6411 20.8807 69.6411 22.3097V57.6909C69.6411 59.12 68.8787 60.4405 67.6411 61.155L37 78.8456C35.7624 79.5602 34.2376 79.5602 33 78.8456L2.35901 61.155C1.12141 60.4405 0.359009 59.12 0.359009 57.6909V22.3097C0.359009 20.8807 1.1214 19.5602 2.35901 18.8456L33 1.15504Z" fill="white"/>
<path d="M33 1.15504C34.2376 0.440509 35.7624 0.440507 37 1.15504L67.6411 18.8456C68.8787 19.5602 69.6411 20.8807 69.6411 22.3097V57.6909C69.6411 59.12 68.8787 60.4405 67.6411 61.155L37 78.8456C35.7624 79.5602 34.2376 79.5602 33 78.8456L2.35901 61.155C1.12141 60.4405 0.359009 59.12 0.359009 57.6909V22.3097C0.359009 20.8807 1.1214 19.5602 2.35901 18.8456L33 1.15504Z" fill="#43D14F" fill-opacity="0.2"/>
<path fill-rule="evenodd" clip-rule="evenodd" d="M65.6411 22.3097L35 4.61914L4.35901 22.3097V57.6909L35 75.3815L65.6411 57.6909V22.3097ZM37 1.15504C35.7624 0.440507 34.2376 0.440509 33 1.15504L2.35901 18.8456C1.1214 19.5602 0.359009 20.8807 0.359009 22.3097V57.6909C0.359009 59.12 1.12141 60.4405 2.35901 61.155L33 78.8456C34.2376 79.5602 35.7624 79.5602 37 78.8456L67.6411 61.155C68.8787 60.4405 69.6411 59.12 69.6411 57.6909V22.3097C69.6411 20.8807 68.8787 19.5602 67.6411 18.8456L37 1.15504Z" fill="white"/>
<path d="M49 40.6286C49 48.0134 43.0134 54 35.6286 54C28.2437 54 23 48.0134 23 40.6286C23 33.9429 28.9429 28 35.6286 28C43.0134 28 49 33.2437 49 40.6286Z" fill="#43D14F" fill-opacity="0.8"/>
<circle cx="35" cy="40" r="14" stroke="#031F88" stroke-width="2"/>
<path d="M38.0529 36.8172C38.0529 36.8172 38.5473 33.8104 35.0461 33.8104C32.0381 33.8104 32.0375 36.2101 32.0381 36.8172C32.0422 40.7123 38.0515 38.8218 38.0515 42.831C38.0515 44.8356 37.0496 45.8379 35.045 45.8379C31.4209 45.8379 32.0401 42.831 32.0401 42.831" stroke="#031F88" stroke-width="2" stroke-linecap="round" stroke-linejoin="round"/>
<rect x="34.7788" y="31" width="1" height="3.00918" rx="0.5" fill="#C4C4C4" stroke="#031F88"/>
<rect x="34.7788" y="45.7373" width="1" height="3.00918" rx="0.5" fill="#C4C4C4" stroke="#031F88"/>
</svg>
