<svg width="16" height="16" viewBox="0 0 16 16" fill="none" xmlns="http://www.w3.org/2000/svg">
<path d="M14.5497 11.08C14.5114 11.0497 11.7333 9.0472 10.9708 9.19093C10.6068 9.25533 10.3987 9.5036 9.981 10.0006C9.9138 10.0809 9.75233 10.2731 9.6268 10.4099C9.36285 10.3238 9.10538 10.219 8.85633 10.0963C7.57091 9.47047 6.53233 8.43189 5.90653 7.14647C5.78374 6.89746 5.67894 6.63998 5.59293 6.376C5.73013 6.25 5.9224 6.08853 6.00453 6.01947C6.4992 5.60413 6.74793 5.396 6.81233 5.03107C6.9444 4.27507 4.94333 1.47787 4.92233 1.45267C4.83154 1.32297 4.71306 1.21507 4.57545 1.13678C4.43784 1.05849 4.28455 1.01177 4.12667 1C3.3156 1 1 4.00393 1 4.5098C1 4.5392 1.04247 7.52773 4.72773 11.2765C8.47273 14.9575 11.4608 15 11.4902 15C11.9965 15 15 12.6844 15 11.8733C14.9884 11.716 14.9419 11.5632 14.864 11.426C14.7862 11.2888 14.6788 11.1706 14.5497 11.08Z" stroke="#86969E" stroke-width="2"/>
</svg>
