<svg width="16" height="16" viewBox="0 0 16 16" fill="none" xmlns="http://www.w3.org/2000/svg">
<rect x="1" y="1" width="14" height="14" rx="7" stroke="#86969E" stroke-width="2" stroke-linecap="round" stroke-linejoin="round"/>
<path fill-rule="evenodd" clip-rule="evenodd" d="M11.789 6.29945C12.0863 6.00218 12.0863 5.52022 11.789 5.22295C11.4917 4.92568 11.0098 4.92568 10.7125 5.22295L6.94515 8.99031L5.33021 7.37537C5.03294 7.07811 4.55098 7.07811 4.25371 7.37538C3.95644 7.67264 3.95644 8.15461 4.25371 8.45187L6.38623 10.5844C6.39283 10.5915 6.39959 10.5985 6.40651 10.6054C6.70377 10.9027 7.18574 10.9027 7.48301 10.6054L11.789 6.29945Z" fill="#86969E"/>
<path d="M11.789 5.22295L12.0011 5.01082V5.01082L11.789 5.22295ZM11.789 6.29945L12.0011 6.51158L11.789 6.29945ZM10.7125 5.22295L10.9246 5.43508V5.43508L10.7125 5.22295ZM6.94515 8.99031L6.73301 9.20244L6.94515 9.41457L7.15728 9.20244L6.94515 8.99031ZM5.33021 7.37537L5.11808 7.58751H5.11808L5.33021 7.37537ZM4.25371 7.37538L4.46584 7.58751H4.46584L4.25371 7.37538ZM4.25371 8.45187L4.46584 8.23974L4.46584 8.23974L4.25371 8.45187ZM6.38623 10.5844L6.60637 10.3803L6.59836 10.3723L6.38623 10.5844ZM6.40651 10.6054L6.19438 10.8176H6.19438L6.40651 10.6054ZM7.48301 10.6054L7.27088 10.3933L7.48301 10.6054ZM11.5769 5.43508C11.757 5.61519 11.757 5.90721 11.5769 6.08732L12.0011 6.51158C12.4156 6.09716 12.4156 5.42524 12.0011 5.01082L11.5769 5.43508ZM10.9246 5.43508C11.1047 5.25497 11.3968 5.25497 11.5769 5.43508L12.0011 5.01082C11.5867 4.59639 10.9148 4.59639 10.5004 5.01082L10.9246 5.43508ZM7.15728 9.20244L10.9246 5.43508L10.5004 5.01082L6.73301 8.77818L7.15728 9.20244ZM5.11808 7.58751L6.73301 9.20244L7.15728 8.77818L5.54234 7.16324L5.11808 7.58751ZM4.46584 7.58751C4.64595 7.4074 4.93797 7.4074 5.11808 7.58751L5.54234 7.16324C5.12792 6.74882 4.456 6.74882 4.04158 7.16324L4.46584 7.58751ZM4.46584 8.23974C4.28573 8.05963 4.28573 7.76762 4.46584 7.58751L4.04158 7.16324C3.62716 7.57767 3.62716 8.24958 4.04158 8.66401L4.46584 8.23974ZM6.59836 10.3723L4.46584 8.23974L4.04158 8.66401L6.1741 10.7965L6.59836 10.3723ZM6.61864 10.3933C6.61438 10.3891 6.61024 10.3848 6.60622 10.3804L6.16624 10.7884C6.17541 10.7983 6.18479 10.808 6.19438 10.8176L6.61864 10.3933ZM7.27088 10.3933C7.09077 10.5734 6.79875 10.5734 6.61864 10.3933L6.19438 10.8176C6.6088 11.232 7.28072 11.232 7.69514 10.8176L7.27088 10.3933ZM11.5769 6.08732L7.27088 10.3933L7.69514 10.8176L12.0011 6.51158L11.5769 6.08732Z" fill="#86969E"/>
</svg>
