<svg width="16" height="16" viewBox="0 0 16 16" fill="none" xmlns="http://www.w3.org/2000/svg">
<path fill-rule="evenodd" clip-rule="evenodd" d="M14 8C14 11.3137 11.3137 14 8 14C4.68629 14 2 11.3137 2 8C2 4.68629 4.68629 2 8 2C11.3137 2 14 4.68629 14 8ZM16 8C16 12.4183 12.4183 16 8 16C3.58172 16 0 12.4183 0 8C0 3.58172 3.58172 0 8 0C12.4183 0 16 3.58172 16 8ZM8.65694 9.11596C8.72293 9.19112 8.76881 9.29808 8.76881 9.5C8.76881 9.88447 8.67324 10.035 8.61353 10.0947L8.65694 9.11596ZM8.65691 9.11593L8.65694 9.11596L8.73131 7.43866C8.99264 7.5434 9.27409 7.68068 9.51678 7.87341C9.97631 8.23831 10.2688 8.7703 10.2688 9.5C10.2688 10.1155 10.1145 10.715 9.67431 11.1553C9.35479 11.4749 8.95139 11.6438 8.51881 11.7125V12C8.51881 12.2761 8.29496 12.5 8.01881 12.5C7.74267 12.5 7.51881 12.2761 7.51881 12V11.7152C7.17854 11.6652 6.87991 11.561 6.62496 11.4018C6.24536 11.1649 6.01927 10.8413 5.89442 10.5266C5.77366 10.2221 5.74901 9.93202 5.75003 9.73058C5.75055 9.62728 5.75788 9.53982 5.76563 9.4752C5.76952 9.4427 5.77359 9.41543 5.77711 9.3942C5.77887 9.38356 5.7805 9.3744 5.78192 9.3668L5.78388 9.35657L5.78472 9.35234L5.7851 9.35045L5.78528 9.34957C5.78537 9.34914 5.78545 9.34872 6.52004 9.5L5.78545 9.34872C5.86901 8.94302 6.26562 8.68187 6.67132 8.76542C7.07352 8.84824 7.33365 9.23875 7.25671 9.64077L7.25691 9.6395C7.25697 9.63914 7.25685 9.63988 7.2565 9.64181L7.25671 9.64077L7.25497 9.6537C7.25288 9.67112 7.2502 9.70084 7.25001 9.73817C7.24961 9.81798 7.26072 9.90286 7.28872 9.97344C7.31264 10.0337 7.3483 10.0851 7.41925 10.1294C7.49659 10.1777 7.66911 10.25 8.01903 10.25C8.40342 10.25 8.55386 10.1544 8.61353 10.0947L8.65691 9.11593ZM8.77086 6.54696C8.79196 6.88833 9.04607 7.18222 9.39787 7.24006C9.8066 7.30726 10.1924 7.0304 10.2596 6.62168L9.51955 6.5C10.2596 6.62168 10.2597 6.62126 10.2598 6.62084L10.2599 6.61996L10.2602 6.6181L10.2609 6.61391L10.2624 6.60378L10.266 6.57662C10.2687 6.55556 10.2717 6.52851 10.2743 6.49628C10.2795 6.43217 10.2835 6.34555 10.2805 6.24339C10.2745 6.04382 10.241 5.75882 10.1166 5.46088C9.98853 5.1544 9.76394 4.83579 9.39149 4.60039C9.14165 4.44248 8.85011 4.33766 8.51881 4.28651V4C8.51881 3.72386 8.29496 3.5 8.01881 3.5C7.74267 3.5 7.51881 3.72386 7.51881 4V4.28903C7.24908 4.33342 7.0052 4.41567 6.78845 4.5358C6.44108 4.72833 6.20498 4.99524 6.05111 5.27174C5.76732 5.78173 5.76861 6.32058 5.76901 6.4883L5.76903 6.50078C5.76979 7.22577 6.071 7.74814 6.53174 8.10203C6.90925 8.39199 7.38254 8.5536 7.72153 8.66934L7.77637 8.68809C8.17904 8.82619 8.42244 8.91981 8.58398 9.04809C8.60993 9.06869 8.63457 9.09049 8.65691 9.11593L8.73125 7.43863L8.73131 7.43866L8.77086 6.54696ZM8.77081 6.54614L8.77086 6.54696L8.77788 6.3885C8.77813 6.38636 8.77864 6.3817 8.7792 6.37481C8.78065 6.35689 8.78226 6.32632 8.78112 6.28786C8.7787 6.20618 8.7647 6.11618 8.7325 6.03912C8.70387 5.97059 8.66263 5.91421 8.59009 5.86836C8.5137 5.82008 8.34893 5.75 8.01956 5.75C7.74453 5.75 7.59386 5.80439 7.51559 5.84777C7.44089 5.88917 7.39559 5.94048 7.36185 6.00111C7.2779 6.15197 7.26887 6.34815 7.26903 6.49922C7.26929 6.74577 7.34355 6.83417 7.44546 6.91244C7.60977 7.03865 7.8546 7.12916 8.26299 7.26922L8.29814 7.28126L8.29817 7.28127C8.42711 7.32541 8.57561 7.37625 8.73125 7.43863L8.77081 6.54614ZM8.77081 6.54614L8.77774 6.38969L8.77788 6.3885C8.76987 6.4417 8.76767 6.49446 8.77081 6.54614Z" fill="#86969E"/>
</svg>
