<svg width="18" height="18" viewBox="0 0 18 18" fill="none" xmlns="http://www.w3.org/2000/svg">
<path d="M11 1.70703H3C1.89543 1.70703 1 2.60246 1 3.70703V15.0011C1 16.1056 1.89543 17.0011 3 17.0011H14.294C15.3986 17.0011 16.294 16.1056 16.294 15.0011V8.17759" stroke="#43D14F" stroke-width="2" stroke-linecap="round" stroke-linejoin="round"/>
<path fill-rule="evenodd" clip-rule="evenodd" d="M7.60317 12.6682C7.63201 12.6538 7.65833 12.6348 7.68113 12.612L15.1336 5.1595L13.47 3.49587L14.3019 2.66398L15.9655 4.32761L16.9222 3.37088C17.3128 2.98036 17.3128 2.34719 16.9222 1.95667L16.6727 1.70711C16.2822 1.31658 15.649 1.31658 15.2585 1.70711L6.01736 10.9482C5.99456 10.971 5.97558 10.9973 5.96116 11.0262L4.98998 12.9685C4.7751 13.3983 5.23103 13.8543 5.6608 13.6394L7.60317 12.6682Z" fill="#43D14F"/>
</svg>
