<svg width="20" height="16" viewBox="0 0 20 16" fill="none" xmlns="http://www.w3.org/2000/svg">
<path d="M1.5 4.49902C1.5 2.84217 2.84315 1.49902 4.5 1.49902H16.5C18.1569 1.49902 19.5 2.84217 19.5 4.49902V11.7714C19.5 14.0678 17.5708 15.8927 15.2779 15.7652L1.5 14.999V4.49902Z" fill="#43D14F" fill-opacity="0.8"/>
<rect x="0.5" y="0.5" width="19" height="15" rx="3.5" stroke="#031F88"/>
<mask id="path-3-inside-1" fill="white">
<path fill-rule="evenodd" clip-rule="evenodd" d="M19.6897 13.5469C19.0847 14.9876 17.6606 15.9994 16.0001 15.9994H4.00009C2.41586 15.9994 1.04674 15.0784 0.398926 13.7426L7.31375 6.82782C8.87585 5.26573 11.4085 5.26573 12.9706 6.82782L19.6897 13.5469Z"/>
</mask>
<path d="M19.6897 13.5469L20.6117 13.9341L20.8718 13.3148L20.3968 12.8398L19.6897 13.5469ZM0.398926 13.7426L-0.308181 13.0355L-0.811367 13.5387L-0.500843 14.179L0.398926 13.7426ZM7.31375 6.82782L8.02086 7.53493L7.31375 6.82782ZM12.9706 6.82782L13.6777 6.12072V6.12072L12.9706 6.82782ZM18.7677 13.1598C18.3132 14.2422 17.2439 14.9994 16.0001 14.9994V16.9994C18.0773 16.9994 19.8563 15.733 20.6117 13.9341L18.7677 13.1598ZM16.0001 14.9994H4.00009V16.9994H16.0001V14.9994ZM4.00009 14.9994C2.8134 14.9994 1.78571 14.3105 1.29869 13.3063L-0.500843 14.179C0.307773 15.8463 2.01832 16.9994 4.00009 16.9994V14.9994ZM1.10603 14.4498L8.02086 7.53493L6.60665 6.12072L-0.308181 13.0355L1.10603 14.4498ZM8.02086 7.53493C9.19243 6.36336 11.0919 6.36336 12.2635 7.53493L13.6777 6.12072C11.7251 4.16809 8.55927 4.16809 6.60665 6.12072L8.02086 7.53493ZM12.2635 7.53493L18.9826 14.254L20.3968 12.8398L13.6777 6.12072L12.2635 7.53493Z" fill="#031F88" mask="url(#path-3-inside-1)"/>
<path d="M5 5H15L11 9.5H9L5 5Z" fill="#64D56D"/>
<mask id="path-6-inside-2" fill="white">
<path fill-rule="evenodd" clip-rule="evenodd" d="M19.3414 1.8006L11.414 9.72797C10.633 10.509 9.36662 10.509 8.58557 9.72797L0.658203 1.8006C1.37364 0.715818 2.60312 0 3.99979 0H15.9998C17.3965 0 18.6259 0.715817 19.3414 1.8006Z"/>
</mask>
<path d="M19.3414 1.8006L20.0485 2.5077L20.6252 1.93094L20.1762 1.25003L19.3414 1.8006ZM11.414 9.72797L12.1211 10.4351L11.414 9.72797ZM8.58557 9.72797L9.29268 9.02086L8.58557 9.72797ZM0.658203 1.8006L-0.17659 1.25003L-0.625665 1.93094L-0.0489036 2.5077L0.658203 1.8006ZM18.6343 1.09349L10.7069 9.02086L12.1211 10.4351L20.0485 2.5077L18.6343 1.09349ZM10.7069 9.02086C10.3164 9.41139 9.6832 9.41138 9.29268 9.02086L7.87847 10.4351C9.05004 11.6066 10.9495 11.6066 12.1211 10.4351L10.7069 9.02086ZM9.29268 9.02086L1.36531 1.09349L-0.0489036 2.5077L7.87847 10.4351L9.29268 9.02086ZM1.493 2.35116C2.03125 1.53504 2.95328 1 3.99979 1V-1C2.25296 -1 0.71603 -0.103401 -0.17659 1.25003L1.493 2.35116ZM3.99979 1H15.9998V-1H3.99979V1ZM15.9998 1C17.0463 1 17.9683 1.53504 18.5066 2.35116L20.1762 1.25003C19.2835 -0.1034 17.7466 -1 15.9998 -1V1Z" fill="#031F88" mask="url(#path-6-inside-2)"/>
</svg>
