<svg width="28" height="28" viewBox="0 0 28 28" fill="none" xmlns="http://www.w3.org/2000/svg">
<path d="M27.0665 14.5865C27.0665 21.479 21.479 27.0665 14.5865 27.0665C7.69396 27.0665 2.7998 21.479 2.7998 14.5865C2.7998 8.34647 8.34647 2.7998 14.5865 2.7998C21.479 2.7998 27.0665 7.69396 27.0665 14.5865Z" fill="#43D14F" fill-opacity="0.8"/>
<circle cx="14" cy="14" r="13" stroke="#031F88" stroke-width="2"/>
<path d="M16.8497 11.029C16.8497 11.029 17.3111 8.22254 14.0433 8.22255C11.2359 8.22255 11.2353 10.4623 11.2359 11.029C11.2397 14.6644 16.8483 12.8999 16.8483 16.6418C16.8483 18.5128 15.9132 19.4482 14.0423 19.4482C10.6598 19.4482 11.2378 16.6418 11.2378 16.6418" stroke="#031F88" stroke-width="2" stroke-linecap="round" stroke-linejoin="round"/>
<rect x="13.7938" y="5.59948" width="0.933333" height="2.80856" rx="0.466667" fill="#C4C4C4" stroke="#031F88" stroke-width="0.933333"/>
<rect x="13.7938" y="19.3544" width="0.933333" height="2.80856" rx="0.466667" fill="#C4C4C4" stroke="#031F88" stroke-width="0.933333"/>
</svg>
