<svg width="16" height="16" viewBox="0 0 16 16" fill="none" xmlns="http://www.w3.org/2000/svg">
<path fill-rule="evenodd" clip-rule="evenodd" d="M6 4C6 5.10457 5.10457 6 4 6C2.89543 6 2 5.10457 2 4C2 2.89543 2.89543 2 4 2C5.10457 2 6 2.89543 6 4ZM4.99238 7.87594C6.72147 7.43455 8 5.86658 8 4C8 1.79086 6.20914 0 4 0C1.79086 0 0 1.79086 0 4C0 5.86658 1.27853 7.43455 3.00762 7.87594C3.00259 7.91658 3 7.95799 3 8V15C3 15.5523 3.44772 16 4 16C4.55228 16 5 15.5523 5 15V8C5 7.95799 4.99741 7.91658 4.99238 7.87594ZM12 10C10.8954 10 10 10.8954 10 12C10 13.1046 10.8954 14 12 14C13.1046 14 14 13.1046 14 12C14 10.8954 13.1046 10 12 10ZM11.0076 8.12406C9.27853 8.56545 8 10.1334 8 12C8 14.2091 9.79086 16 12 16C14.2091 16 16 14.2091 16 12C16 10.1334 14.7215 8.56545 12.9924 8.12406C12.9974 8.08341 13 8.04201 13 8L13 1C13 0.447715 12.5523 0 12 0C11.4477 0 11 0.447715 11 1L11 8C11 8.04201 11.0026 8.08341 11.0076 8.12406Z" fill="#43D14F"/>
</svg>
