<svg width="70" height="80" viewBox="0 0 70 80" fill="none" xmlns="http://www.w3.org/2000/svg">
<path d="M33 1.15504C34.2376 0.440509 35.7624 0.440507 37 1.15504L67.6411 18.8456C68.8787 19.5602 69.6411 20.8807 69.6411 22.3097V57.6909C69.6411 59.12 68.8787 60.4405 67.6411 61.155L37 78.8456C35.7624 79.5602 34.2376 79.5602 33 78.8456L2.35901 61.155C1.12141 60.4405 0.359009 59.12 0.359009 57.6909V22.3097C0.359009 20.8807 1.1214 19.5602 2.35901 18.8456L33 1.15504Z" fill="white"/>
<path d="M33 1.15504C34.2376 0.440509 35.7624 0.440507 37 1.15504L67.6411 18.8456C68.8787 19.5602 69.6411 20.8807 69.6411 22.3097V57.6909C69.6411 59.12 68.8787 60.4405 67.6411 61.155L37 78.8456C35.7624 79.5602 34.2376 79.5602 33 78.8456L2.35901 61.155C1.12141 60.4405 0.359009 59.12 0.359009 57.6909V22.3097C0.359009 20.8807 1.1214 19.5602 2.35901 18.8456L33 1.15504Z" fill="#43D14F" fill-opacity="0.2"/>
<path fill-rule="evenodd" clip-rule="evenodd" d="M65.6411 22.3097L35 4.61914L4.35901 22.3097V57.6909L35 75.3815L65.6411 57.6909V22.3097ZM37 1.15504C35.7624 0.440507 34.2376 0.440509 33 1.15504L2.35901 18.8456C1.1214 19.5602 0.359009 20.8807 0.359009 22.3097V57.6909C0.359009 59.12 1.12141 60.4405 2.35901 61.155L33 78.8456C34.2376 79.5602 35.7624 79.5602 37 78.8456L67.6411 61.155C68.8787 60.4405 69.6411 59.12 69.6411 57.6909V22.3097C69.6411 20.8807 68.8787 19.5602 67.6411 18.8456L37 1.15504Z" fill="white"/>
<path d="M26 53.5L26 30C26 28.8954 26.8954 28 28 28L45.5 28L45.5 50.5C45.5 52.1569 44.1569 53.5 42.5 53.5L26 53.5Z" fill="#43D14F" fill-opacity="0.8"/>
<rect x="24" y="54" width="28" height="22" rx="3" transform="rotate(-90 24 54)" stroke="#031F88" stroke-width="2"/>
<path fill-rule="evenodd" clip-rule="evenodd" d="M41.7064 41.4571C42.0969 41.0666 42.0969 40.4334 41.7064 40.0429C41.3159 39.6524 40.6827 39.6524 40.2922 40.0429L32.8674 47.4677L29.6856 44.286C29.2951 43.8955 28.6619 43.8955 28.2714 44.286C27.8809 44.6765 27.8809 45.3097 28.2714 45.7002L32.1605 49.5893C32.551 49.9798 33.1842 49.9798 33.5747 49.5893C33.5808 49.5832 33.5868 49.5771 33.5927 49.5709L41.7064 41.4571Z" fill="#031F88"/>
<rect x="27.5" y="31" width="15" height="2" rx="1" fill="#031F88"/>
<rect x="30.5" y="35.5" width="9" height="2" rx="1" fill="#031F88"/>
</svg>
