<svg width="28" height="28" viewBox="0 0 28 28" fill="none" xmlns="http://www.w3.org/2000/svg">
<path opacity="0.8" d="M14.4698 3.07832C14.5993 2.58174 15.3035 2.57927 15.4365 3.07493L17.4108 10.4313C17.471 10.6556 17.6778 10.809 17.91 10.8014L26.7239 10.5143C27.2248 10.4979 27.4355 11.1467 27.0207 11.4279L19.7149 16.3806C19.5256 16.509 19.4475 16.7493 19.5252 16.9644L22.5246 25.2656C22.6949 25.7369 22.143 26.1378 21.7474 25.8302L14.7992 20.4278C14.6097 20.2804 14.3421 20.2886 14.1619 20.4473L8.31393 25.5965C7.92811 25.9362 7.34238 25.5425 7.51126 25.057L10.4032 16.7426C10.5629 16.2834 10.3693 15.776 9.94438 15.5399L4.65407 12.6008C4.08582 12.2851 4.35521 11.4174 5.00234 11.479L11.2544 12.0745C11.7429 12.121 12.193 11.8062 12.3168 11.3314L14.4698 3.07832Z" fill="#43D14F"/>
<path d="M15.4395 2.63247C15.0217 1.18824 12.9754 1.18824 12.5576 2.63247L10.4091 10.0596L2.68158 9.80783C1.17894 9.75887 0.546602 11.705 1.79104 12.5486L8.19071 16.8871L5.56335 24.1586C5.05245 25.5726 6.70792 26.7753 7.89481 25.8525L13.9985 21.1067L20.1023 25.8525C21.2891 26.7753 22.9446 25.5726 22.4337 24.1586L19.8064 16.8871L26.206 12.5486C27.4505 11.705 26.8181 9.75887 25.3155 9.80783L17.588 10.0596L15.4395 2.63247ZM19.4846 17.1052L19.4853 17.1047L19.4846 17.1052Z" stroke="#031F88" stroke-width="2" stroke-linejoin="round"/>
</svg>
