<svg width="48" height="48" viewBox="0 0 48 48" fill="none" xmlns="http://www.w3.org/2000/svg">
<path d="M39 48H9C4.029 48 0 43.971 0 39V9C0 4.029 4.029 0 9 0H39C43.971 0 48 4.029 48 9V39C48 43.971 43.971 48 39 48Z" fill="#43D14F" fill-opacity="0.2"/>
<path d="M28.001 11.0001C26.1068 9.90641 27.0904 9.8397 26.6103 9.27119C25.292 7.70984 22.7081 8.83098 21.6622 10.5865L9.50042 31.0001C6.74038 35.7802 9.50974 40.6473 14.8602 39.2133C16.4689 38.7824 17.8132 37.7505 18.6458 36.3084L29.3401 17.7853C31.0592 14.8081 30.9782 12.7192 28.001 11.0001Z" fill="#43D14F"/>
<path d="M18.9738 11.8009L18.9738 11.8008C20.5587 9.0552 24.0627 8.11666 26.8076 9.70157C29.5457 11.2827 30.4876 14.7973 28.9065 17.5353L28.9065 17.5353L18.2123 36.0584C17.446 37.3857 16.2108 38.3337 14.7303 38.7304L14.7303 38.7304C9.81163 40.0486 5.74141 34.7197 8.27953 30.324L8.27954 30.324L18.9738 11.8009Z" stroke="#031F88"/>
<path d="M39.4996 29.5L34.4996 22L28.4148 10.5904C27.464 8.80756 25.0716 8.47043 23.7614 10.0085C20.929 13.3335 17.2638 18.3881 19.9091 19.6585L29.545 36.3114C32.7137 38.5432 35.1399 40.228 38.0973 38.457C41.0462 36.6904 41.2658 32.4493 39.4996 29.5Z" fill="#43D14F"/>
<path d="M18.7854 31.7031L18.7854 31.7032C20.1107 36.6483 14.765 40.6859 10.3789 38.1538C5.98481 35.6168 6.84202 28.9663 11.7619 27.6481L11.762 27.6481C14.8239 26.8275 17.9652 28.6416 18.7854 31.7031Z" stroke="#031F88"/>
<path d="M29.2001 11.8009L29.2001 11.8008C27.6151 9.0552 24.1111 8.11666 21.3662 9.70157C18.6281 11.2827 17.6863 14.7973 19.2673 17.5353L19.2673 17.5353L29.9615 36.0584C30.7279 37.3857 31.963 38.3337 33.4435 38.7304L33.4436 38.7304C38.3622 40.0486 42.4324 34.7197 39.8943 30.324L39.8943 30.324L29.2001 11.8009Z" stroke="#031F88"/>
</svg>
