<svg width="70" height="80" viewBox="0 0 70 80" fill="none" xmlns="http://www.w3.org/2000/svg">
<path d="M33 1.15504C34.2376 0.440509 35.7624 0.440507 37 1.15504L67.6411 18.8456C68.8787 19.5602 69.6411 20.8807 69.6411 22.3097V57.6909C69.6411 59.12 68.8787 60.4405 67.6411 61.155L37 78.8456C35.7624 79.5602 34.2376 79.5602 33 78.8456L2.35901 61.155C1.12141 60.4405 0.359009 59.12 0.359009 57.6909V22.3097C0.359009 20.8807 1.1214 19.5602 2.35901 18.8456L33 1.15504Z" fill="white"/>
<path d="M33 1.15504C34.2376 0.440509 35.7624 0.440507 37 1.15504L67.6411 18.8456C68.8787 19.5602 69.6411 20.8807 69.6411 22.3097V57.6909C69.6411 59.12 68.8787 60.4405 67.6411 61.155L37 78.8456C35.7624 79.5602 34.2376 79.5602 33 78.8456L2.35901 61.155C1.12141 60.4405 0.359009 59.12 0.359009 57.6909V22.3097C0.359009 20.8807 1.1214 19.5602 2.35901 18.8456L33 1.15504Z" fill="#43D14F" fill-opacity="0.2"/>
<path fill-rule="evenodd" clip-rule="evenodd" d="M65.6411 22.3097L35 4.61914L4.35901 22.3097V57.6909L35 75.3815L65.6411 57.6909V22.3097ZM37 1.15504C35.7624 0.440507 34.2376 0.440509 33 1.15504L2.35901 18.8456C1.1214 19.5602 0.359009 20.8807 0.359009 22.3097V57.6909C0.359009 59.12 1.12141 60.4405 2.35901 61.155L33 78.8456C34.2376 79.5602 35.7624 79.5602 37 78.8456L67.6411 61.155C68.8787 60.4405 69.6411 59.12 69.6411 57.6909V22.3097C69.6411 20.8807 68.8787 19.5602 67.6411 18.8456L37 1.15504Z" fill="white"/>
<path opacity="0.8" d="M41.385 45.3115L47.2462 45.313C48.3572 45.3133 49.255 46.219 49.2456 47.3299L49.2426 47.6887C49.2379 48.2377 48.7916 48.6802 48.2426 48.6802H43.2982C42.8762 48.6802 42.4997 48.4154 42.3571 48.0182L41.385 45.3115Z" fill="#43D14F"/>
<path opacity="0.8" d="M22.8841 47.842C23.1004 46.1119 24.571 44.8137 26.3145 44.8136L28.2627 44.8135L27.1473 48.8135H23.7418C23.2219 48.8135 22.8197 48.3578 22.8841 47.842Z" fill="#43D14F"/>
<path opacity="0.8" d="M29.7218 50.241C29.4737 46.7678 32.2245 43.8135 35.7066 43.8135H37.4262C39.9145 43.8135 42.0241 45.6431 42.376 48.1064L42.5996 49.6721C42.6857 50.2745 42.2182 50.8135 41.6097 50.8135H29.7627L29.7218 50.241Z" fill="#43D14F"/>
<path d="M27.8645 49.1524C27.8645 45.2114 31.0593 42.0166 35.0003 42.0166C38.9414 42.0166 42.1362 45.2114 42.1362 49.1524V50.1864L27.8645 50.1864L27.8645 49.1524Z" stroke="#031F88" stroke-width="2"/>
<path fill-rule="evenodd" clip-rule="evenodd" d="M43.1354 50.1527H48.3656C49.3993 50.1527 50.2373 49.3147 50.2373 48.281V48.1357C50.2373 44.7751 47.513 42.0508 44.1524 42.0508C42.8114 42.0508 41.5716 42.4846 40.5659 43.2196C41.0542 43.6778 41.4859 44.1956 41.8494 44.7614C42.5051 44.313 43.2981 44.0508 44.1524 44.0508C46.4084 44.0508 48.2373 45.8797 48.2373 48.1357V48.1527H43.0745C43.1147 48.4805 43.1354 48.8144 43.1354 49.1532V50.1527Z" fill="#031F88"/>
<path fill-rule="evenodd" clip-rule="evenodd" d="M26.9254 48.1527C26.8852 48.4805 26.8645 48.8144 26.8645 49.1532V50.1527H21.6344C20.6007 50.1527 19.7627 49.3147 19.7627 48.281V48.1357C19.7627 44.7751 22.487 42.0508 25.8476 42.0508C27.1886 42.0508 28.4283 42.4846 29.434 43.2195C28.9457 43.6777 28.514 44.1956 28.1505 44.7614C27.4949 44.313 26.7019 44.0508 25.8476 44.0508C23.5916 44.0508 21.7627 45.8797 21.7627 48.1357V48.1527H26.9254Z" fill="#031F88"/>
<circle opacity="0.8" cx="44.7627" cy="37.3135" r="2" fill="#43D14F"/>
<circle opacity="0.8" cx="26.7627" cy="37.3135" r="2" fill="#43D14F"/>
<circle opacity="0.8" cx="35.7627" cy="34.3135" r="3" fill="#43D14F"/>
<circle cx="35.0002" cy="33.8984" r="4.0849" stroke="#031F88" stroke-width="2"/>
<circle cx="44.1534" cy="36.9498" r="3.06792" stroke="#031F88" stroke-width="2"/>
<circle cx="25.8482" cy="36.9498" r="3.06792" stroke="#031F88" stroke-width="2"/>
</svg>
