<svg width="70" height="80" viewBox="0 0 70 80" fill="none" xmlns="http://www.w3.org/2000/svg">
<path d="M33 1.15504C34.2376 0.440509 35.7624 0.440507 37 1.15504L67.6411 18.8456C68.8787 19.5602 69.6411 20.8807 69.6411 22.3097V57.6909C69.6411 59.12 68.8787 60.4405 67.6411 61.155L37 78.8456C35.7624 79.5602 34.2376 79.5602 33 78.8456L2.35901 61.155C1.12141 60.4405 0.359009 59.12 0.359009 57.6909V22.3097C0.359009 20.8807 1.1214 19.5602 2.35901 18.8456L33 1.15504Z" fill="white"/>
<path d="M33 1.15504C34.2376 0.440509 35.7624 0.440507 37 1.15504L67.6411 18.8456C68.8787 19.5602 69.6411 20.8807 69.6411 22.3097V57.6909C69.6411 59.12 68.8787 60.4405 67.6411 61.155L37 78.8456C35.7624 79.5602 34.2376 79.5602 33 78.8456L2.35901 61.155C1.12141 60.4405 0.359009 59.12 0.359009 57.6909V22.3097C0.359009 20.8807 1.1214 19.5602 2.35901 18.8456L33 1.15504Z" fill="#43D14F" fill-opacity="0.2"/>
<path fill-rule="evenodd" clip-rule="evenodd" d="M65.6411 22.3097L35 4.61914L4.35901 22.3097V57.6909L35 75.3815L65.6411 57.6909V22.3097ZM37 1.15504C35.7624 0.440507 34.2376 0.440509 33 1.15504L2.35901 18.8456C1.1214 19.5602 0.359009 20.8807 0.359009 22.3097V57.6909C0.359009 59.12 1.12141 60.4405 2.35901 61.155L33 78.8456C34.2376 79.5602 35.7624 79.5602 37 78.8456L67.6411 61.155C68.8787 60.4405 69.6411 59.12 69.6411 57.6909V22.3097C69.6411 20.8807 68.8787 19.5602 67.6411 18.8456L37 1.15504Z" fill="white"/>
<path d="M28.5 31C28.5 29.3431 29.8431 28 31.5 28H41.5C42.6046 28 43.5 28.8954 43.5 30V51C43.5 53.2091 41.7091 55 39.5 55H30.5C29.3954 55 28.5 54.1046 28.5 53V31Z" fill="#43D14F" fill-opacity="0.8"/>
<rect x="26.5" y="26" width="17" height="27.9998" rx="3" stroke="#031F88" stroke-width="2"/>
<rect x="26.5" y="28" width="16.8749" height="2" fill="#031F88"/>
<rect x="26.5" y="47" width="16.8749" height="2" fill="#031F88"/>
<rect x="33.5" y="50" width="3" height="2" rx="1" fill="#031F88"/>
<path d="M32.95 42.3438C32.95 40.9458 34.0833 39.8125 35.4813 39.8125C36.8792 39.8125 38.0125 40.9458 38.0125 42.3438V43H32.95V42.3438Z" stroke="#031F88" stroke-width="1.5"/>
<path fill-rule="evenodd" clip-rule="evenodd" d="M38.3683 43.3751H40.7769C41.3834 43.3751 41.8751 42.8834 41.8751 42.2769V42.2188C41.8751 40.6827 40.6298 39.4375 39.0938 39.4375C38.45 39.4375 37.8573 39.6562 37.386 40.0234C37.7898 40.3264 38.1207 40.7212 38.3478 41.1769C38.5579 41.0262 38.8155 40.9375 39.0938 40.9375C39.6823 40.9375 40.1782 41.3344 40.3285 41.8751H38.6004C38.6572 42.1157 38.6873 42.3667 38.6873 42.6246V42.8568C38.6873 43.0833 38.5575 43.2795 38.3683 43.3751Z" fill="#031F88"/>
<path fill-rule="evenodd" clip-rule="evenodd" d="M32.2744 41.8751C32.2176 42.1157 32.1876 42.3667 32.1876 42.6246V42.8568C32.1876 43.0833 32.3173 43.2795 32.5065 43.3751H30.0982C29.4917 43.3751 29 42.8834 29 42.2769V42.2188C29 40.6827 30.2452 39.4375 31.7813 39.4375C32.425 39.4375 33.0177 39.6562 33.489 40.0233C33.0852 40.3263 32.7542 40.7211 32.5271 41.1768C32.317 41.0262 32.0595 40.9375 31.7813 40.9375C31.1927 40.9375 30.6968 41.3344 30.5466 41.8751H32.2744Z" fill="#031F88"/>
<circle cx="35.5" cy="36" r="1.25" stroke="#031F88" stroke-width="1.5"/>
<circle cx="39.5" cy="37" r="1.25" stroke="#031F88" stroke-width="1.5"/>
<circle cx="31.5" cy="37" r="1.25" stroke="#031F88" stroke-width="1.5"/>
</svg>
