<svg width="346" height="180" viewBox="0 0 346 180" fill="none" xmlns="http://www.w3.org/2000/svg">
<path d="M303.467 13.3867H42.437C40.5043 13.3867 38.9375 14.9494 38.9375 16.8771V175.293C38.9375 177.221 40.5043 178.784 42.437 178.784H303.467C305.4 178.784 306.967 177.221 306.967 175.293V16.8771C306.967 14.9494 305.4 13.3867 303.467 13.3867Z" stroke="#DED8D5" stroke-width="1.97" stroke-miterlimit="10"/>
<mask id="mask0" mask-type="alpha" maskUnits="userSpaceOnUse" x="38" y="0" width="268" height="178">
<rect x="38.3926" width="267.233" height="177.752" fill="#C4C4C4"/>
</mask>
<g mask="url(#mask0)">
<path d="M38.9355 30.9062H306.965" stroke="#DED8D5" stroke-width="1.97" stroke-miterlimit="10"/>
<path d="M56.5991 22.3254C56.5991 22.8093 56.4553 23.2823 56.1857 23.6846C55.9162 24.0869 55.5331 24.4005 55.0849 24.5856C54.6367 24.7708 54.1435 24.8192 53.6677 24.7249C53.1919 24.6305 52.7548 24.3974 52.4118 24.0553C52.0687 23.7132 51.8351 23.2772 51.7405 22.8027C51.6458 22.3281 51.6944 21.8362 51.8801 21.3892C52.0657 20.9421 52.3801 20.56 52.7835 20.2912C53.1869 20.0224 53.6611 19.8789 54.1462 19.8789C54.7968 19.8789 55.4207 20.1367 55.8807 20.5955C56.3407 21.0543 56.5991 21.6765 56.5991 22.3254Z" fill="#FFB1A5"/>
<path d="M66.1265 22.3256C66.1264 22.8108 65.9817 23.2851 65.7107 23.6881C65.4398 24.0911 65.0547 24.4046 64.6047 24.5888C64.1546 24.7729 63.6597 24.8195 63.1831 24.7224C62.7064 24.6254 62.2694 24.3892 61.9277 24.0438C61.586 23.6985 61.355 23.2596 61.264 22.7829C61.173 22.3062 61.2262 21.8133 61.4168 21.3669C61.6074 20.9205 61.9268 20.5406 62.3344 20.2757C62.742 20.0108 63.2193 19.8727 63.7058 19.8791C64.3507 19.8876 64.9664 20.149 65.4194 20.6069C65.8725 21.0648 66.1265 21.6823 66.1265 22.3256Z" fill="#EAD254"/>
<path d="M75.6577 22.3254C75.6577 22.8093 75.5139 23.2823 75.2443 23.6846C74.9748 24.0869 74.5917 24.4005 74.1435 24.5856C73.6953 24.7708 73.2021 24.8192 72.7263 24.7249C72.2505 24.6305 71.8134 24.3974 71.4704 24.0553C71.1273 23.7132 70.8937 23.2772 70.7991 22.8027C70.7044 22.3281 70.753 21.8362 70.9387 21.3892C71.1243 20.9421 71.4387 20.56 71.8421 20.2912C72.2455 20.0224 72.7197 19.8789 73.2048 19.8789C73.8549 19.8803 74.478 20.1385 74.9377 20.597C75.3974 21.0555 75.6563 21.677 75.6577 22.3254Z" fill="#43D14F"/>
<path d="M247.721 118.653L228.125 116.051L228.281 117.989L211.529 120.216C211.529 120.216 200.73 147.234 210.236 206.651H223.864L228.78 146.399H230.519L235.269 206.651H248.881C258.413 147.234 247.721 118.653 247.721 118.653Z" fill="#8E716C"/>
<path d="M222.547 146.402H236.765" stroke="#282828" stroke-width="1.23" stroke-linecap="round" stroke-linejoin="round"/>
<path d="M259.157 90.1474C257.482 87.4707 248.068 87.5778 247.569 87.5189C245.025 87.2191 249.179 107.423 254.498 125.078C254.736 125.878 255.141 126.618 255.686 127.251C256.23 127.884 256.903 128.395 257.659 128.751C258.415 129.107 259.238 129.3 260.074 129.318C260.911 129.335 261.741 129.177 262.511 128.852L262.613 128.804C263.866 128.277 264.9 127.337 265.543 126.142C266.185 124.947 266.398 123.568 266.145 122.235C263.628 108.927 261.094 93.2363 259.157 90.1474Z" fill="#FFB1A5"/>
<path d="M261.401 97.4492L249.383 102.101L248.256 96.416L260.703 93.3164L261.401 97.4492Z" fill="#F3978E"/>
<path d="M263.673 108.83C263.673 108.83 257.978 116.459 258.252 116.106C258.525 115.752 262.717 103.793 262.717 103.793L263.673 108.83Z" fill="#F3978E"/>
<path d="M271.814 98.5859L255.492 119.678C254.985 120.333 254.62 121.086 254.42 121.888C254.22 122.691 254.188 123.527 254.328 124.342C254.468 125.157 254.775 125.935 255.232 126.626C255.688 127.317 256.283 127.906 256.978 128.356C257.671 128.807 258.45 129.11 259.266 129.246C260.082 129.383 260.918 129.349 261.72 129.148C262.523 128.947 263.275 128.583 263.929 128.078C264.584 127.573 265.126 126.939 265.523 126.215L279.108 101.214L271.814 98.5859Z" fill="#FFB1A5"/>
<path d="M276.044 103.995C274.777 103.587 273.66 102.813 272.834 101.772C272.009 100.731 271.511 99.4687 271.404 98.1454C271.298 96.822 271.587 95.4968 272.235 94.3374C272.884 93.178 273.862 92.2363 275.047 91.6315C276.232 91.0267 277.571 90.786 278.893 90.9397C280.215 91.0934 281.462 91.6346 282.475 92.495C283.489 93.3554 284.224 94.4963 284.588 95.7734C284.952 97.0505 284.928 98.4065 284.519 99.6699C284.247 100.509 283.812 101.287 283.239 101.958C282.667 102.63 281.967 103.182 281.18 103.584C280.393 103.985 279.534 104.229 278.653 104.299C277.771 104.37 276.885 104.267 276.044 103.995Z" fill="#FFB1A5"/>
<path d="M283.021 93.577C283.021 93.577 284.862 91.6658 281.593 90.3275C278.324 88.9891 274.283 89.2996 271.701 95.547L283.021 93.577Z" fill="#FFB1A5"/>
<path d="M234.25 63.5864C233.859 63.5864 259.45 67.1196 263.669 96.2418L250.39 98.2707L247.706 120.219H210.672L203.318 79.6303C203.318 79.6303 211.525 67.8958 226.763 63.5703L234.25 63.5864Z" fill="#16BDC8"/>
<path d="M250.393 98.2464L251.547 85.543" stroke="#282828" stroke-width="1.23" stroke-linecap="round" stroke-linejoin="round"/>
<path d="M236.685 64.0016V53.8945H224.812V64.1194C223.708 64.4682 222.631 64.8995 221.592 65.4096L230.883 70.9182L240.351 65.4149C239.193 64.792 237.961 64.3171 236.685 64.0016Z" fill="#FFB1A5"/>
<path d="M224.727 55.1274C224.727 55.1274 226.873 60.7751 232.552 60.288C237.785 59.8383 236.953 52.0117 236.953 52.0117L224.727 55.1274Z" fill="#282828"/>
<path d="M219.521 47.6152C217.658 49.3015 213.498 42.915 215.297 41.1216C217.095 39.3283 218.469 42.1388 218.469 42.1388L219.268 44.0499L219.896 46.6302L220.041 47.3047L219.521 47.6152Z" fill="#F3978E"/>
<path d="M216.164 43.3871C216.164 43.3871 217.57 42.7501 218.848 44.7897" stroke="#282828" stroke-width="0.99" stroke-linecap="round" stroke-linejoin="round"/>
<path d="M241.531 47.4174C243.244 49.2536 247.935 43.2418 246.292 41.3039C244.65 39.3659 243.072 42.0533 243.072 42.0533L242.111 43.8842L241.285 46.4056L241.086 47.064L241.531 47.4174Z" fill="#F3978E"/>
<path d="M245.234 43.4872C245.234 43.4872 243.887 42.7377 242.465 44.6649" stroke="#282828" stroke-width="0.99" stroke-linecap="round" stroke-linejoin="round"/>
<path d="M216.258 35.0476C216.258 43.5005 222.699 47.5102 230.691 47.5102C238.683 47.5102 245.123 43.4791 245.123 35.0476C245.123 26.6161 238.683 20.8398 230.685 20.8398C222.688 20.8398 216.258 26.5679 216.258 35.0476Z" fill="#282828"/>
<path d="M218.213 35.6155C218.22 39.9396 218.713 44.2493 219.684 48.4635C220.403 51.5738 222.427 53.7473 225.282 55.4978L225.819 55.819C227.323 56.7286 229.044 57.2188 230.803 57.2386C232.562 57.2583 234.294 56.8069 235.818 55.9314C238.915 54.1274 241.084 51.7558 241.749 48.4368C242.526 44.2109 242.977 39.9316 243.097 35.6369C243.097 35.6369 244.25 22.5319 230.843 22.7889C217.435 23.0458 218.213 35.6155 218.213 35.6155Z" fill="#FFB1A5"/>
<path d="M229.838 43.0781V44.8929C229.838 44.9974 229.858 45.1009 229.897 45.198C229.978 45.3751 230.12 45.5174 230.297 45.5989C230.475 45.6804 230.675 45.6958 230.863 45.6424L231.706 45.4336" stroke="#282828" stroke-width="1.23" stroke-linecap="round" stroke-linejoin="round"/>
<path d="M227.703 36.0613L221.037 37.6191C221.037 37.6191 221.343 35.9275 224.07 35.3118C226.796 34.6962 227.703 36.0613 227.703 36.0613Z" fill="#282828"/>
<path d="M233.621 36.0613L240.062 37.6191C240.062 37.6191 239.767 35.9275 237.137 35.3118C234.507 34.6962 233.621 36.0613 233.621 36.0613Z" fill="#282828"/>
<path d="M225.171 42.0619C225.79 42.0619 226.292 41.561 226.292 40.9431C226.292 40.3251 225.79 39.8242 225.171 39.8242C224.551 39.8242 224.049 40.3251 224.049 40.9431C224.049 41.561 224.551 42.0619 225.171 42.0619Z" fill="#282828"/>
<path d="M236.953 40.9392C236.955 41.1617 236.889 41.3796 236.766 41.5652C236.643 41.7508 236.467 41.8957 236.261 41.9816C236.056 42.0675 235.829 42.0905 235.61 42.0478C235.391 42.005 235.189 41.8983 235.031 41.7413C234.873 41.5843 234.765 41.384 234.721 41.1658C234.677 40.9476 234.699 40.7213 234.784 40.5155C234.87 40.3098 235.014 40.1339 235.2 40.0101C235.385 39.8864 235.603 39.8203 235.826 39.8203C236.124 39.8203 236.41 39.938 236.621 40.1477C236.833 40.3574 236.952 40.6419 236.953 40.9392Z" fill="#282828"/>
<path d="M226.299 47.7734H234.962C234.962 47.7734 231.124 52.4308 226.299 47.7734Z" fill="white"/>
<path d="M228.077 44.7479C229.942 42.8872 229.942 39.8706 228.077 38.0099C226.211 36.1493 223.187 36.1493 221.321 38.0099C219.456 39.8705 219.456 42.8873 221.321 44.7479C223.187 46.6085 226.211 46.6085 228.077 44.7479Z" stroke="#20AEF7" stroke-width="1.34" stroke-miterlimit="10"/>
<path d="M239.819 44.7479C241.684 42.8873 241.684 39.8706 239.819 38.0099C237.953 36.1493 234.929 36.1493 233.063 38.0099C231.198 39.8706 231.198 42.8873 233.063 44.7479C234.929 46.6085 237.953 46.6085 239.819 44.7479Z" stroke="#20AEF7" stroke-width="1.34" stroke-miterlimit="10"/>
<path d="M229.482 41.3756C229.773 41.0899 230.164 40.9297 230.572 40.9297C230.98 40.9297 231.371 41.0899 231.662 41.3756" stroke="#20AEF7" stroke-width="1.34" stroke-miterlimit="10"/>
<path d="M219.92 41.3866L218.412 41.3438" stroke="#20AEF7" stroke-width="1.34" stroke-miterlimit="10"/>
<path d="M241.221 41.3866L242.734 41.3438" stroke="#20AEF7" stroke-width="1.34" stroke-miterlimit="10"/>
<path d="M242.911 39.9566C242.911 39.9566 237.544 32.7296 238.789 25.4062C240.088 26.172 241.208 27.2065 242.073 28.4403C242.938 29.674 243.527 31.0782 243.802 32.5583C244.838 37.7243 242.911 39.9566 242.911 39.9566Z" fill="#282828"/>
<path d="M218.21 40.4505C218.21 40.4505 224.436 32.2384 223.201 24.9258C220.469 26.6659 218.54 29.4146 217.834 32.5704C216.809 37.7256 218.21 40.4505 218.21 40.4505Z" fill="#282828"/>
<path d="M242.437 28.29C242.437 28.29 235.578 35.8115 216.738 34.5159C216.738 34.5159 219.626 23.4881 228.75 22.3103C228.75 22.3157 239.292 21.063 242.437 28.29Z" fill="#282828"/>
<path d="M250.861 20.9318C251.653 16.04 248.319 11.4342 243.414 10.6445C238.509 9.85479 233.891 13.1803 233.1 18.0721C232.308 22.964 235.642 27.5699 240.547 28.3595C245.451 29.1492 250.069 25.8237 250.861 20.9318Z" fill="#282828"/>
<path d="M132.194 118.629L115.442 116.418L115.598 114.48L96.0015 117.082C96.0015 117.082 85.3098 145.648 94.8368 205.064H108.464L113.204 144.791H114.943L119.849 205.043H133.482C142.993 145.648 132.194 118.629 132.194 118.629Z" fill="#282828"/>
<path d="M130.853 37.3391C128.354 34.3515 126.445 30.9182 125.228 27.2213C123.57 22.5478 118.149 24.4483 118.149 24.4483C118.149 24.4483 113.619 18.6506 106.829 20.6688C100.039 22.687 97.6669 27.5157 97.5166 33.2545C97.3663 38.9933 92.8631 39.8659 89.3797 46.5255C83.2288 58.2439 93.5877 68.1155 112.459 65.3746V65.1926C114.706 65.8116 117.045 66.0291 119.367 65.835C142.023 64.4913 139.838 47.8959 130.853 37.3391Z" fill="#282828"/>
<path d="M123.437 46.0339C125.3 47.7148 129.465 41.3283 127.667 39.5349C125.869 37.7415 124.495 40.5574 124.495 40.5574L123.689 42.4632L123.083 45.0435L122.943 45.718L123.437 46.0339Z" fill="#F3978E"/>
<path d="M126.799 41.8037C126.799 41.8037 125.387 41.172 124.115 43.2062" stroke="#282828" stroke-width="0.99" stroke-linecap="round" stroke-linejoin="round"/>
<path d="M101.427 45.8392C99.7145 47.6754 95.0288 41.6636 96.6659 39.7257C98.3029 37.7878 99.9131 40.4752 99.9131 40.4752L100.874 42.306L101.695 44.8275L101.899 45.4913L101.427 45.8392Z" fill="#F3978E"/>
<path d="M97.7227 41.9052C97.7227 41.9052 99.0752 41.1557 100.492 43.0829" stroke="#282828" stroke-width="0.99" stroke-linecap="round" stroke-linejoin="round"/>
<path d="M126.708 33.4421C126.708 41.8951 120.268 45.9047 112.27 45.9047C104.273 45.9047 97.832 41.8951 97.832 33.4421C97.832 24.9892 104.273 19.2344 112.27 19.2344C120.268 19.2344 126.708 24.9839 126.708 33.4421Z" fill="#282828"/>
<path d="M118.151 52.3164H106.273V67.6537H118.151V52.3164Z" fill="#FFB1A5"/>
<path d="M104.547 51.3555C104.547 51.3555 107.848 57.9347 111.916 58.9626C113.01 59.2211 114.156 59.1541 115.212 58.7698C116.741 58.2345 118.684 55.954 119.012 53.4165L119.168 51.9818C119.168 51.9818 111.927 55.9272 104.547 51.3555Z" fill="#282828"/>
<path d="M124.742 34.0335C124.736 38.3575 124.243 42.6672 123.272 46.8815C122.558 49.9918 120.534 52.1706 117.674 53.9211L117.137 54.237C115.633 55.1465 113.911 55.6368 112.153 55.6565C110.394 55.6763 108.662 55.2249 107.137 54.3494C104.041 52.5507 101.872 50.1738 101.233 46.8547C100.459 42.6284 100.009 38.3494 99.8862 34.0549C99.8862 34.0549 98.7322 20.9499 112.145 21.2069C125.558 21.4638 124.742 34.0335 124.742 34.0335Z" fill="#FFB1A5"/>
<path d="M111.373 42.2227V43.2933C111.372 43.4171 111.401 43.5393 111.456 43.65C111.512 43.7606 111.593 43.8565 111.693 43.9296C111.794 44.0028 111.91 44.0512 112.032 44.0709C112.155 44.0906 112.28 44.0809 112.398 44.0428L113.23 43.8233" stroke="#282828" stroke-width="1.23" stroke-linecap="round" stroke-linejoin="round"/>
<path d="M114.158 35.1131L121.291 36.7994C121.291 36.7994 120.969 34.9686 118.071 34.3048C115.173 33.641 114.158 35.1131 114.158 35.1131Z" fill="#282828"/>
<path d="M110.4 35.1131L103.176 36.7994C103.176 36.7994 103.503 34.9686 106.461 34.3048C109.418 33.641 110.4 35.1131 110.4 35.1131Z" fill="#282828"/>
<path d="M107.836 39.5276C107.838 39.7503 107.774 39.9687 107.652 40.155C107.529 40.3413 107.354 40.487 107.148 40.5738C106.942 40.6605 106.715 40.6843 106.496 40.6421C106.277 40.6 106.075 40.4938 105.916 40.337C105.757 40.1802 105.649 39.9799 105.604 39.7615C105.56 39.5432 105.582 39.3166 105.667 39.1106C105.752 38.9045 105.896 38.7283 106.082 38.6043C106.267 38.4803 106.486 38.4141 106.709 38.4141C107.006 38.414 107.291 38.531 107.502 38.7395C107.713 38.9481 107.833 39.2313 107.836 39.5276Z" fill="#282828"/>
<path d="M118.491 39.5276C118.493 39.7503 118.428 39.9687 118.306 40.155C118.183 40.3413 118.008 40.487 117.802 40.5738C117.596 40.6605 117.37 40.6843 117.15 40.6421C116.931 40.6 116.729 40.4938 116.57 40.337C116.412 40.1802 116.303 39.9799 116.259 39.7615C116.214 39.5432 116.236 39.3166 116.321 39.1106C116.406 38.9045 116.551 38.7283 116.736 38.6043C116.922 38.4803 117.14 38.4141 117.363 38.4141C117.661 38.414 117.946 38.531 118.157 38.7395C118.368 38.9481 118.488 39.2313 118.491 39.5276Z" fill="#282828"/>
<path d="M107.088 45.9062H116.953C116.953 45.9062 116.255 48.5829 111.784 48.5829C110.831 48.6057 109.89 48.3684 109.062 47.8967C108.235 47.425 107.552 46.7367 107.088 45.9062Z" fill="white"/>
<path d="M100.047 38.3746C100.047 38.3746 105.414 31.1476 104.174 23.8242C102.874 24.5902 101.754 25.6247 100.888 26.8583C100.023 28.0919 99.432 29.496 99.1556 30.9763C98.1197 36.1208 100.047 38.3746 100.047 38.3746Z" fill="#282828"/>
<path d="M124.754 38.134C124.754 38.134 118.523 30.6393 119.763 23.332C122.495 25.0722 124.425 27.8208 125.13 30.9766C126.155 36.1212 124.754 38.134 124.754 38.134Z" fill="#282828"/>
<path d="M100.498 26.711C100.498 26.711 106.649 34.9552 125.488 33.6704C125.488 33.6704 123.341 21.893 114.217 20.7314C114.206 20.7314 103.665 19.4787 100.498 26.711Z" fill="#282828"/>
<path d="M83.3304 154.908C83.0567 155.336 99.0084 85.6838 94.2744 86.7384C93.8397 86.8348 85.5471 87.6003 84.3126 90.1003C80.7433 97.3487 78.1992 154.378 78.1992 154.378L83.3304 154.908Z" fill="#FFB1A5"/>
<path d="M78.1964 154.383C78.1964 154.383 75.6255 166.278 85.3457 167.579C85.6572 167.621 85.9738 167.555 86.2418 167.391C86.5098 167.227 86.7128 166.976 86.8164 166.68V166.599C86.9235 166.275 86.9053 165.923 86.7652 165.612C86.6252 165.301 86.3734 165.054 86.0596 164.918C84.4762 164.212 82.018 162.424 83.2363 158.371C83.2363 158.371 84.6426 158.2 85.4155 160.812C85.462 160.97 85.5425 161.115 85.6512 161.239C85.76 161.362 85.8944 161.461 86.0452 161.527C86.1959 161.593 86.3594 161.626 86.5241 161.623C86.6888 161.619 86.8508 161.58 86.9989 161.508C87.2075 161.403 87.3784 161.236 87.4879 161.03C87.5975 160.823 87.6404 160.589 87.6107 160.357C87.3799 158.526 86.4568 154.121 82.9143 152.938L78.1964 154.383Z" fill="#FFB1A5"/>
<path d="M81.4434 106.837C81.4434 106.837 90.6376 119.749 90.6859 119.498C90.7342 119.246 93.9063 101.377 93.9063 101.377L82.753 96.5586L81.4434 106.837Z" fill="#F3978E"/>
<path d="M106.98 65.1267C107.372 65.1267 84.2656 65.5336 80.0469 94.6344L93.3257 96.6633L96.0094 118.612H133.044L140.397 78.023C140.397 78.023 135.17 69.2274 119.932 64.918L106.98 65.1267Z" fill="#43D14F"/>
<path d="M95.6895 68.6427C95.6895 68.6427 98.9528 72.9629 112.328 72.9629C125.586 72.9629 128.967 68.4125 128.967 68.4125C128.967 68.4125 121.152 64.0603 112.087 62.6523C106.358 63.8431 100.834 65.8612 95.6895 68.6427Z" fill="#FFB1A5"/>
<path d="M141.15 160.824L141.183 218.86H169.968L172.179 160.824H141.15Z" fill="#005683"/>
<path d="M203.648 160.824L203.616 218.86H174.83L172.619 160.824H203.648Z" fill="#005683"/>
<path d="M187.928 160.824H158.166V180.985H187.928V160.824Z" fill="#005683"/>
<path d="M221.833 110.184C223.615 129.846 221.737 144.177 222.257 180.361L205.082 181.078L202.521 113.347L221.833 110.184Z" fill="#FFB1A5"/>
<path d="M204.637 125.523C204.637 125.523 215.275 124.554 222.548 119.768L222.354 115.555L204.642 117.964L204.637 125.523Z" fill="#F3978E"/>
<path d="M187.57 64.9062C187.57 64.9062 221.385 73.3859 227.482 116.164C227.482 116.164 210.945 123.317 194.371 120.238L198.101 105.929L187.57 64.9062Z" fill="#20AEF7"/>
<path d="M86.63 82.6953L111.792 112.331L104.09 133.959C104.09 133.959 84.9662 107.438 76.373 86.9405L86.63 82.6953Z" fill="#FFB1A5"/>
<path d="M87.4555 83.7624C87.4555 83.7624 78.6209 88.741 76.372 86.9369C72.4431 83.7945 69.2012 72.2741 69.2012 72.2741C69.2012 72.2741 85.7219 66.0589 85.5662 66.2998C85.4106 66.5407 87.4555 83.7624 87.4555 83.7624Z" fill="#FFB1A5"/>
<path d="M87.4559 83.7683C87.3003 82.8797 90.73 73.3079 91.9054 69.7212C91.9659 69.5064 91.9808 69.2815 91.9492 69.0607C91.9177 68.8399 91.8404 68.6281 91.7222 68.4387C91.6041 68.2493 91.4477 68.0866 91.263 67.9608C91.0783 67.8351 90.8693 67.7491 90.6495 67.7083C90.2647 67.6075 89.8575 67.6345 89.4895 67.7852C89.1214 67.9359 88.8127 68.2021 88.6099 68.5434L84.4609 75.6098L87.4559 83.7683Z" fill="#FFB1A5"/>
<path d="M87.1505 73.4163L84.3059 59.2995C84.2185 58.8419 83.9535 58.4373 83.5685 58.1736C83.1835 57.9099 82.7097 57.8086 82.2502 57.8916C81.861 57.9575 81.5125 58.1709 81.2774 58.4871C81.0423 58.8034 80.9389 59.1981 80.9888 59.5886L82.2287 70.1025L87.1505 73.4163Z" fill="#FFB1A5"/>
<path d="M81.4909 68.2099L77.6264 58.1295C77.4684 57.704 77.1522 57.3555 76.7435 57.1561C76.3348 56.9568 75.8649 56.922 75.4312 57.0589C75.0656 57.1786 74.7588 57.4314 74.5718 57.7667C74.3848 58.1021 74.3313 58.4954 74.4221 58.8683L77.2883 70.5172L81.4909 68.2099Z" fill="#FFB1A5"/>
<path d="M77.3448 71.188L72.4551 61.2843C72.2385 60.8429 71.8623 60.4997 71.4022 60.3239C70.9421 60.1481 70.4323 60.1527 69.9754 60.3368C69.7703 60.4251 69.5847 60.5532 69.4295 60.7135C69.2743 60.8739 69.1525 61.0633 69.0711 61.2709C68.9897 61.4785 68.9505 61.7001 68.9555 61.9229C68.9606 62.1458 69.0099 62.3654 69.1005 62.5691L72.9972 71.9214L77.3448 71.188Z" fill="#FFB1A5"/>
<path d="M69.2014 72.2762L65.3637 66.2055C65.2862 66.0415 65.242 65.8638 65.2338 65.6827C65.2256 65.5016 65.2535 65.3207 65.3159 65.1504C65.3783 64.9801 65.474 64.8238 65.5974 64.6907C65.7207 64.5575 65.8694 64.4501 66.0347 64.3747C66.3668 64.2288 66.7394 64.2025 67.0889 64.3001C67.4383 64.3978 67.743 64.6133 67.9508 64.91L72.9961 71.8693L69.2014 72.2762Z" fill="#FFB1A5"/>
<path d="M86.3789 72.3589C86.3789 72.3589 80.6197 71.754 80.0293 79.4146" stroke="#282828" stroke-width="1.53" stroke-linecap="round" stroke-linejoin="round"/>
<path d="M98.9824 123.844C98.9824 123.844 103.716 140.177 113.147 138.003C122.577 135.83 137.273 115.744 137.273 115.744L133.983 81.4453L107.517 113.935L98.9824 123.844Z" fill="#FFB1A5"/>
<path d="M115.73 103.844C115.73 103.844 124.662 117.286 132.289 122.046L137.275 115.766L118.028 100.895L115.73 103.844Z" fill="#F3978E"/>
<path d="M154.825 64.1641C154.825 64.1641 128.589 70.0527 114.607 100.47C114.607 100.47 123.056 113.169 136.614 118.811L145.679 107.73L154.825 64.1641Z" fill="#20AEF7"/>
<path d="M154.827 64.0748C148.651 67.2351 143.017 71.3531 138.135 76.2751L140.158 165.173H204.738L204.529 76.7355C204.529 76.7355 196.392 68.7911 187.568 64.9153C180.075 61.623 162.111 60.3489 154.827 64.0748Z" fill="#20AEF7"/>
<path d="M176.42 89.4727H194.384V98.4342C194.384 99.611 194.152 100.776 193.7 101.864C193.249 102.951 192.587 103.939 191.753 104.771C190.918 105.603 189.928 106.263 188.838 106.714C187.748 107.164 186.579 107.396 185.399 107.396C184.22 107.395 183.051 107.162 181.962 106.711C180.872 106.26 179.882 105.6 179.048 104.767C178.214 103.934 177.553 102.946 177.102 101.859C176.651 100.771 176.419 99.6056 176.42 98.4288V89.4727Z" stroke="#282828" stroke-width="1.4" stroke-linecap="round" stroke-linejoin="round"/>
<path d="M204.637 120.568L205.474 91.4883" stroke="#282828" stroke-width="1.4" stroke-linecap="round" stroke-linejoin="round"/>
<path d="M139.128 115.725L137.732 90.5156" stroke="#282828" stroke-width="1.4" stroke-linecap="round" stroke-linejoin="round"/>
<path d="M155.584 31.602L152.901 18.315C152.75 17.2443 152.326 15.5634 152.842 13.9948C153.695 11.3985 156.83 6.41449 162.186 8.69501L163.346 13.9573C163.346 13.9573 157.785 15.0762 155.552 22.3353L155.584 31.602Z" fill="#282828"/>
<path d="M161.782 11.4414C161.686 13.1866 160.14 20.8205 154.708 23.6042C154.708 23.6042 149.953 13.4275 161.782 11.4414Z" fill="#282828"/>
<path d="M180.832 61.6254V39.0664H159.985V61.6254L153.775 64.4466C153.775 64.4466 155.235 73.7989 170.629 74.0023C186.022 74.2057 187.568 64.9016 187.568 64.9016L180.832 61.6254Z" fill="#FFB1A5"/>
<path d="M162.174 8.69524C162.174 8.69524 166.001 -1.35298 177.798 4.00036C184.942 7.23913 186.923 11.5807 187.792 14.6589C188.074 15.8324 188.183 17.0408 188.114 18.2456L185.259 31.629L174.116 13.101L163.333 13.9576L162.174 8.69524Z" fill="#282828"/>
<path d="M185.258 31.5985C185.258 31.5985 186.665 29.3662 189.552 30.4636C192.44 31.561 191.163 38.5846 186.788 39.4786C186.299 39.5644 185.798 39.5437 185.318 39.4181C184.838 39.2924 184.391 39.0647 184.008 38.7506C184.008 38.7506 185.087 33.5632 185.258 31.5985Z" fill="#F3978E"/>
<path d="M188.99 32.9459C188.99 32.9459 186.559 32.1375 184.836 35.7028" stroke="#282828" stroke-width="1.4" stroke-linecap="round" stroke-linejoin="round"/>
<path d="M155.586 31.5985C155.586 31.5985 154.179 29.3662 151.292 30.4636C148.404 31.561 149.681 38.5846 154.051 39.4786C154.539 39.5644 155.041 39.5437 155.521 39.4181C156 39.2924 156.447 39.0647 156.831 38.7506C156.831 38.7506 155.752 33.5632 155.586 31.5985Z" fill="#F3978E"/>
<path d="M151.854 32.9459C151.854 32.9459 154.28 32.1375 156.002 35.7028" stroke="#282828" stroke-width="1.4" stroke-linecap="round" stroke-linejoin="round"/>
<path d="M185.545 24.935C185.545 29.1695 185.126 38.0239 182.517 43.2809C180.07 48.2167 176.018 50.8719 170.709 51.0325C165.401 51.1931 161.44 49.1481 158.268 42.7402C155.096 36.3322 155.251 25.0153 155.251 25.0153C155.251 25.0153 155.251 9.88672 170.237 9.88672C186.017 9.88672 185.545 24.935 185.545 24.935Z" fill="#FFB1A5"/>
<path d="M160.141 45.9023C160.141 45.9023 161.885 54.7407 169.598 55.7525C178.47 56.9249 180.832 46.1165 180.832 46.1165C180.832 46.1165 176.914 51.0148 170.709 51.0255C168.675 51.0158 166.669 50.5504 164.84 49.6636C163.011 48.7768 161.405 47.4914 160.141 45.9023Z" fill="#282828"/>
<path d="M169.33 31.2188V34.7198C169.329 34.8647 169.356 35.0084 169.411 35.1427C169.523 35.3909 169.72 35.5907 169.968 35.7056C170.215 35.8206 170.495 35.8431 170.758 35.7691L171.923 35.4586" stroke="#282828" stroke-width="1.4" stroke-linecap="round" stroke-linejoin="round"/>
<path d="M164.907 29.5448C164.907 29.8148 164.827 30.0787 164.677 30.3032C164.526 30.5277 164.312 30.7027 164.062 30.806C163.812 30.9093 163.537 30.9363 163.272 30.8837C163.006 30.831 162.762 30.701 162.571 30.5101C162.379 30.3191 162.249 30.0759 162.196 29.8111C162.143 29.5463 162.171 29.2718 162.274 29.0224C162.378 28.7729 162.553 28.5597 162.778 28.4098C163.003 28.2598 163.268 28.1797 163.539 28.1797C163.902 28.1797 164.25 28.3235 164.506 28.5795C164.763 28.8355 164.907 29.1827 164.907 29.5448Z" fill="#282828"/>
<path d="M177.696 29.5448C177.696 29.8148 177.616 30.0787 177.466 30.3032C177.315 30.5277 177.102 30.7027 176.851 30.806C176.601 30.9093 176.326 30.9363 176.061 30.8837C175.795 30.831 175.551 30.701 175.36 30.5101C175.168 30.3191 175.038 30.0759 174.985 29.8111C174.932 29.5463 174.96 29.2718 175.063 29.0224C175.167 28.7729 175.342 28.5597 175.567 28.4098C175.792 28.2598 176.057 28.1797 176.328 28.1797C176.691 28.1797 177.039 28.3235 177.295 28.5795C177.552 28.8355 177.696 29.1827 177.696 29.5448Z" fill="#282828"/>
<path d="M172.84 22.7746L182.013 25.1408C182.013 25.1408 181.594 22.5712 177.842 21.6397C174.09 20.7082 172.84 22.7746 172.84 22.7746Z" fill="#282828"/>
<path d="M167.138 22.7746L157.965 25.1408C157.965 25.1408 158.384 22.5712 162.135 21.6397C165.887 20.7082 167.138 22.7746 167.138 22.7746Z" fill="#282828"/>
<path d="M165.314 38.2617C165.314 38.2617 166.667 39.2949 170.226 39.2949C172.032 39.3354 173.825 38.9828 175.48 38.2617" stroke="#282828" stroke-width="1.4" stroke-linecap="round" stroke-linejoin="round"/>
<path d="M163.174 35.7273C166.375 35.7273 168.97 33.1388 168.97 29.9457C168.97 26.7526 166.375 24.1641 163.174 24.1641C159.972 24.1641 157.377 26.7526 157.377 29.9457C157.377 33.1388 159.972 35.7273 163.174 35.7273Z" stroke="white" stroke-width="1.95" stroke-miterlimit="10"/>
<path d="M177.412 35.7273C180.613 35.7273 183.209 33.1388 183.209 29.9457C183.209 26.7526 180.613 24.1641 177.412 24.1641C174.211 24.1641 171.615 26.7526 171.615 29.9457C171.615 33.1388 174.211 35.7273 177.412 35.7273Z" stroke="white" stroke-width="1.95" stroke-miterlimit="10"/>
<path d="M168.969 29.9436C168.969 29.9436 170.343 28.6642 171.615 29.9436" stroke="white" stroke-width="1.95" stroke-miterlimit="10"/>
<path d="M157.377 29.9388L155.434 29.8906" stroke="white" stroke-width="1.95" stroke-miterlimit="10"/>
<path d="M183.209 29.9423L185.377 29.9102" stroke="white" stroke-width="1.95" stroke-miterlimit="10"/>
<path d="M160.141 11.7852C160.141 11.7852 162.926 19.676 175.486 19.4298C184.02 19.2692 186.081 25.4148 186.081 25.4148C186.081 25.4148 184.594 11.6407 184.208 11.7692C183.821 11.8976 171.219 8.41797 171.219 8.41797L160.141 11.7852Z" fill="#282828"/>
</g>
<path d="M341.784 25.418H278.793C277.018 25.418 275.578 26.8536 275.578 28.6246V86.7298C275.578 88.5008 277.018 89.9365 278.793 89.9365H341.784C343.56 89.9365 344.999 88.5008 344.999 86.7298V28.6246C344.999 26.8536 343.56 25.418 341.784 25.418Z" fill="white"/>
<path d="M64.577 80.2344H4.5003C2.80768 80.2344 1.43555 81.6029 1.43555 83.2911V135.534C1.43555 137.223 2.80768 138.591 4.5003 138.591H64.577C66.2696 138.591 67.6418 137.223 67.6418 135.534V83.2911C67.6418 81.6029 66.2696 80.2344 64.577 80.2344Z" fill="white"/>
<path d="M341.784 25.4141H278.793C277.018 25.4141 275.578 26.8497 275.578 28.6207V86.7259C275.578 88.4969 277.018 89.9326 278.793 89.9326H341.784C343.56 89.9326 344.999 88.4969 344.999 86.7259V28.6207C344.999 26.8497 343.56 25.4141 341.784 25.4141Z" stroke="#DED8D5" stroke-width="1.97" stroke-miterlimit="10"/>
<path d="M294.028 73H326.769C328.553 73 330 71.5571 330 69.7773V43.0159C330 41.2361 328.553 39.7932 326.769 39.7932L294.028 39.7932C292.244 39.7932 290.797 41.2361 290.797 43.0159V69.7773C290.797 71.5571 292.244 73 294.028 73Z" fill="#20AEF7"/>
<rect x="299" y="48" width="23" height="18" rx="3" stroke="white" stroke-width="2"/>
<mask id="path-112-inside-1" fill="white">
<path fill-rule="evenodd" clip-rule="evenodd" d="M322.793 64.147C322.298 65.7938 320.77 66.9936 318.962 66.9936H301.962C300.252 66.9936 298.793 65.9212 298.221 64.4124L306.114 56.519C308.613 54.0197 312.666 54.0197 315.165 56.519L322.793 64.147Z"/>
</mask>
<path d="M322.793 64.147L324.708 64.7229L325.052 63.5781L324.207 62.7328L322.793 64.147ZM298.221 64.4124L296.806 62.9982L295.892 63.9127L296.351 65.1219L298.221 64.4124ZM306.114 56.519L304.7 55.1048L306.114 56.519ZM315.165 56.519L313.751 57.9333L315.165 56.519ZM320.878 63.5712C320.63 64.3961 319.863 64.9936 318.962 64.9936V68.9936C321.677 68.9936 323.966 67.1916 324.708 64.7229L320.878 63.5712ZM318.962 64.9936H301.962V68.9936H318.962V64.9936ZM301.962 64.9936C301.11 64.9936 300.378 64.4604 300.091 63.7028L296.351 65.1219C297.208 67.3819 299.394 68.9936 301.962 68.9936V64.9936ZM299.635 65.8266L307.528 57.9333L304.7 55.1048L296.806 62.9982L299.635 65.8266ZM307.528 57.9333C309.247 56.215 312.032 56.215 313.751 57.9333L316.579 55.1048C313.299 51.8244 307.98 51.8244 304.7 55.1048L307.528 57.9333ZM313.751 57.9333L321.379 65.5612L324.207 62.7328L316.579 55.1048L313.751 57.9333Z" fill="white" mask="url(#path-112-inside-1)"/>
<path d="M304.25 53.25H316.75L311.75 58.875H309.25L304.25 53.25Z" fill="#20AEF7"/>
<mask id="path-115-inside-2" fill="white">
<path fill-rule="evenodd" clip-rule="evenodd" d="M322.45 48.9756L312.762 58.6636C311.513 59.9132 309.486 59.9132 308.237 58.6636L298.549 48.9756C299.244 47.7935 300.529 47 301.999 47H318.999C320.47 47 321.755 47.7935 322.45 48.9756Z"/>
</mask>
<path d="M322.45 48.9756L323.864 50.3899L324.958 49.2958L324.174 47.962L322.45 48.9756ZM312.762 58.6636L311.348 57.2493L312.762 58.6636ZM308.237 58.6636L306.823 60.0778L308.237 58.6636ZM298.549 48.9756L296.825 47.962L296.041 49.2958L297.135 50.3899L298.549 48.9756ZM321.036 47.5614L311.348 57.2493L314.176 60.0778L323.864 50.3899L321.036 47.5614ZM311.348 57.2493C310.879 57.718 310.12 57.718 309.651 57.2493L306.823 60.0778C308.853 62.1085 312.146 62.1085 314.176 60.0778L311.348 57.2493ZM309.651 57.2493L299.963 47.5614L297.135 50.3899L306.823 60.0778L309.651 57.2493ZM300.273 49.9893C300.624 49.393 301.267 49 301.999 49V45C299.791 45 297.864 46.194 296.825 47.962L300.273 49.9893ZM301.999 49H318.999V45H301.999V49ZM318.999 49C319.732 49 320.375 49.393 320.726 49.9893L324.174 47.962C323.135 46.194 321.208 45 318.999 45V49Z" fill="white" mask="url(#path-115-inside-2)"/>
<path d="M64.577 80.2305H4.5003C2.80768 80.2305 1.43555 81.599 1.43555 83.2872V135.53C1.43555 137.219 2.80768 138.587 4.5003 138.587H64.577C66.2696 138.587 67.6418 137.219 67.6418 135.53V83.2872C67.6418 81.599 66.2696 80.2305 64.577 80.2305Z" stroke="#DED8D5" stroke-width="1.97" stroke-miterlimit="10"/>
<path d="M49.9655 90.2266H18.8081C16.8398 90.2266 15.2441 91.818 15.2441 93.7812V123.792C15.2441 125.755 16.8398 127.347 18.8081 127.347H49.9655C51.9338 127.347 53.5294 125.755 53.5294 123.792V93.7812C53.5294 91.818 51.9338 90.2266 49.9655 90.2266Z" fill="#F8632D"/>
<path fill-rule="evenodd" clip-rule="evenodd" d="M44.0861 115.835L44.0529 115.808C44.0568 115.812 44.0429 115.802 44.0131 115.781C43.8112 115.637 42.8806 114.977 41.8266 114.332C41.2263 113.965 40.6279 113.628 40.131 113.401C39.8989 113.296 39.7183 113.227 39.5894 113.189C39.5347 113.238 39.4593 113.314 39.3476 113.439C39.2338 113.567 39.1062 113.719 38.9394 113.917C38.8368 114.04 38.5647 114.364 38.3432 114.605L37.7089 115.296L36.8173 115.005C36.3402 114.85 35.8749 114.66 35.4247 114.439C33.1264 113.319 31.2692 111.462 30.1494 109.164C29.9276 108.713 29.7381 108.248 29.5826 107.77L29.2923 106.879L29.9827 106.245C30.2172 106.03 30.5304 105.766 30.6608 105.657L30.6742 105.645C30.8723 105.479 31.0235 105.352 31.151 105.239C31.2715 105.131 31.346 105.058 31.3944 105.004C31.3546 104.873 31.2849 104.691 31.1788 104.46C30.9491 103.96 30.6105 103.358 30.2426 102.755C29.6624 101.804 29.0869 100.976 28.8794 100.677C28.818 100.589 28.7888 100.547 28.8014 100.562L28.7622 100.515L28.727 100.465C28.7259 100.463 28.7247 100.462 28.7235 100.46C28.6213 100.531 28.4932 100.631 28.3406 100.765C27.9011 101.149 27.3842 101.698 26.8804 102.301C26.3797 102.901 25.9237 103.515 25.6014 104.01C25.4464 104.248 25.3359 104.437 25.2679 104.571C25.3608 105.428 26.0179 109.228 30.6482 113.942C35.3574 118.567 39.1561 119.223 40.0128 119.316C40.1467 119.248 40.3363 119.137 40.5744 118.982C41.0693 118.66 41.6835 118.204 42.2827 117.703C42.8856 117.2 43.4347 116.683 43.8189 116.243C43.9521 116.091 44.0521 115.963 44.1233 115.861C44.1225 115.86 44.1217 115.86 44.1208 115.859L44.0861 115.835ZM44.2376 115.674C44.2407 115.666 44.2429 115.661 44.2431 115.661C44.2434 115.661 44.2418 115.665 44.2376 115.674ZM45.6618 115.905C45.6618 117.172 40.9707 120.789 40.1798 120.789C40.1339 120.789 35.4668 120.722 29.6174 114.973C23.8613 109.118 23.7949 104.45 23.7949 104.404C23.7949 103.614 27.4117 98.9219 28.6785 98.9219C28.9251 98.9403 29.1646 99.0132 29.3795 99.1355C29.5944 99.2578 29.7795 99.4263 29.9213 99.6289C29.9541 99.6683 33.0796 104.037 32.8733 105.218C32.773 105.787 32.386 106.112 31.6169 106.757L31.6042 106.768C31.4721 106.879 31.179 107.126 30.9687 107.319C31.1031 107.731 31.2667 108.133 31.4585 108.522C32.436 110.53 34.0582 112.152 36.0659 113.13C36.4549 113.321 36.857 113.485 37.2693 113.619C37.4654 113.406 37.7176 113.105 37.8225 112.98L37.8257 112.976C38.476 112.203 38.8009 111.816 39.3685 111.715C40.5596 111.491 44.8987 114.619 44.9584 114.666C45.1601 114.808 45.3278 114.992 45.4495 115.207C45.5711 115.421 45.6436 115.659 45.6618 115.905ZM28.9228 100.341C28.9228 100.341 28.9182 100.343 28.9095 100.346C28.9186 100.342 28.9229 100.34 28.9228 100.341Z" fill="white"/>
<path d="M286.409 80.2391L293.241 83.1995C293.332 83.2397 293.414 83.2989 293.48 83.3731C293.546 83.4472 293.596 83.5347 293.625 83.6295C293.655 83.7243 293.663 83.8243 293.651 83.9228C293.638 84.0213 293.605 84.116 293.553 84.2005L284.562 100.951C284.465 101.138 284.301 101.284 284.104 101.36C283.906 101.435 283.688 101.437 283.489 101.363L276.651 98.4029C276.56 98.3622 276.48 98.3026 276.414 98.2282C276.348 98.1538 276.3 98.0663 276.271 97.9716C276.242 97.8768 276.233 97.7769 276.246 97.6787C276.259 97.5805 276.293 97.4861 276.345 97.4019L285.335 80.6513C285.432 80.4631 285.595 80.3172 285.793 80.2411C285.991 80.1651 286.21 80.1644 286.409 80.2391Z" fill="#372F5F"/>
<path d="M285.753 79.947L292.591 82.902C292.681 82.944 292.761 83.0045 292.827 83.0795C292.892 83.1544 292.94 83.2422 292.969 83.3372C292.998 83.4321 293.007 83.532 292.994 83.6305C292.982 83.7289 292.949 83.8236 292.897 83.9084L283.907 100.659C283.81 100.847 283.646 100.993 283.448 101.068C283.25 101.143 283.031 101.142 282.833 101.066L276.001 98.1109C275.91 98.0694 275.829 98.0093 275.764 97.9345C275.698 97.8598 275.649 97.7721 275.619 97.6771C275.59 97.5821 275.581 97.482 275.593 97.3833C275.605 97.2846 275.638 97.1896 275.689 97.1044L284.68 80.3538C284.778 80.1666 284.941 80.0218 285.139 79.9468C285.337 79.8718 285.555 79.8719 285.753 79.947Z" fill="#261B43"/>
<path d="M284.981 81.6523L290.987 84.2487L283.66 97.8997L277.654 95.3034L284.981 81.6523Z" fill="#E6E6E6"/>
<path d="M290.987 84.2487L277.654 95.3034L284.981 81.6523L290.987 84.2487Z" fill="white"/>
<path d="M279.634 89.7695C280.644 89.9889 281.618 90.3493 282.527 90.8402C282.822 91.0041 283.054 91.2599 283.189 91.5684C283.324 91.8769 283.353 92.2211 283.273 92.5479C283.199 92.8485 283.035 93.1196 282.803 93.3252C282.571 93.5308 282.282 93.6611 281.974 93.6989L278.421 94.1486C278.421 94.1486 276.569 97.3338 274.127 97.6925L276.349 92.0982L279.634 89.7695Z" fill="#FFB1A5"/>
</svg>
