<svg width="24" height="24" viewBox="0 0 24 24" fill="none" xmlns="http://www.w3.org/2000/svg">
<path d="M16.183 5.50012C15.9717 5.50384 15.7704 5.59106 15.6231 5.74271C15.4758 5.89436 15.3946 6.09813 15.3971 6.3095V6.98294C14.1054 7.22526 13.0002 8.05704 13.0002 9.49856C13.0002 10.4986 13.451 11.3073 14.0564 11.7782C14.6619 12.2491 15.3455 12.4579 15.9455 12.6579C16.5455 12.8579 17.0635 13.0491 17.358 13.2782C17.6526 13.5073 17.7939 13.7001 17.7939 14.3001C17.7939 15.6335 14.6002 15.6335 14.6002 14.3001C14.6026 14.1936 14.5836 14.0876 14.5445 13.9885C14.5053 13.8894 14.4468 13.7991 14.3723 13.7229C14.2977 13.6467 14.2087 13.5861 14.1105 13.5448C14.0123 13.5035 13.9068 13.4822 13.8002 13.4822C13.6936 13.4822 13.5881 13.5035 13.4899 13.5448C13.3916 13.5861 13.3027 13.6467 13.2281 13.7229C13.1536 13.7991 13.0951 13.8894 13.0559 13.9885C13.0168 14.0876 12.9978 14.1936 13.0002 14.3001C13.0002 15.7405 14.1063 16.5739 15.3971 16.8173V17.4876C15.3947 17.5942 15.4137 17.7001 15.4528 17.7993C15.4919 17.8984 15.5505 17.9887 15.625 18.0649C15.6995 18.1411 15.7885 18.2016 15.8868 18.2429C15.985 18.2843 16.0905 18.3056 16.1971 18.3056C16.3036 18.3056 16.4092 18.2843 16.5074 18.2429C16.6056 18.2016 16.6946 18.1411 16.7691 18.0649C16.8437 17.9887 16.9022 17.8984 16.9413 17.7993C16.9805 17.7001 16.9994 17.5942 16.9971 17.4876V16.8173C18.288 16.574 19.3955 15.7407 19.3955 14.3001C19.3955 13.3001 18.9431 12.4913 18.3377 12.0204C17.7323 11.5495 17.0486 11.3392 16.4486 11.1392C15.8486 10.9392 15.3307 10.7495 15.0361 10.5204C14.7416 10.2913 14.6002 10.0986 14.6002 9.49856C14.6002 8.16523 17.7939 8.16523 17.7939 9.49856C17.7939 9.71094 17.8783 9.91462 18.0285 10.0648C18.1787 10.215 18.3823 10.2993 18.5947 10.2993C18.8071 10.2993 19.0108 10.215 19.161 10.0648C19.3111 9.91462 19.3955 9.71094 19.3955 9.49856C19.3955 8.05921 18.2877 7.22825 16.9971 6.9845V6.3095C16.9983 6.20246 16.9781 6.09626 16.9376 5.99719C16.8971 5.89811 16.8371 5.80818 16.7612 5.73271C16.6852 5.65724 16.595 5.59776 16.4957 5.55781C16.3963 5.51786 16.29 5.49825 16.183 5.50012Z" fill="#43D14F" stroke="#43D14F" stroke-width="0.5"/>
<rect x="1" y="1" width="22" height="22" rx="2" stroke="#43D14F" stroke-width="2"/>
<rect x="4" y="6" width="6" height="2" rx="1" fill="#43D14F"/>
<rect x="4" y="11" width="6" height="2" rx="1" fill="#43D14F"/>
<rect x="4" y="16" width="6" height="2" rx="1" fill="#43D14F"/>
</svg>
