<svg width="16" height="18" viewBox="0 0 16 18" fill="none" xmlns="http://www.w3.org/2000/svg">
<path fill-rule="evenodd" clip-rule="evenodd" d="M2 1H14C14.5523 1 15 1.44772 15 2V14C15 14.5523 14.5523 15 14 15H2C1.44772 15 1 14.5523 1 14V2C1 1.44772 1.44772 1 2 1ZM0 2C0 0.895431 0.895431 0 2 0H14C15.1046 0 16 0.895431 16 2V14C16 15.1046 15.1046 16 14 16H2C0.895431 16 0 15.1046 0 14V2ZM3 7C2.72386 7 2.5 7.22386 2.5 7.5V8.5C2.5 8.77614 2.72386 9 3 9C3.27614 9 3.5 8.77614 3.5 8.5V7.5C3.5 7.22386 3.27614 7 3 7ZM5 5.5C5 5.22386 5.22386 5 5.5 5C5.77614 5 6 5.22386 6 5.5V10.5C6 10.7761 5.77614 11 5.5 11C5.22386 11 5 10.7761 5 10.5V5.5ZM8 3C7.72386 3 7.5 3.22386 7.5 3.5V12.5C7.5 12.7761 7.72386 13 8 13C8.27614 13 8.5 12.7761 8.5 12.5V3.5C8.5 3.22386 8.27614 3 8 3ZM10 5.5C10 5.22386 10.2239 5 10.5 5C10.7761 5 11 5.22386 11 5.5V10.5C11 10.7761 10.7761 11 10.5 11C10.2239 11 10 10.7761 10 10.5V5.5ZM13 7C12.7239 7 12.5 7.22386 12.5 7.5V8.5C12.5 8.77614 12.7239 9 13 9C13.2761 9 13.5 8.77614 13.5 8.5V7.5C13.5 7.22386 13.2761 7 13 7Z" fill="#86969E"/>
</svg>
