<svg width="33" height="33" viewBox="0 0 33 33" fill="none" xmlns="http://www.w3.org/2000/svg">
<circle cx="16.5" cy="16.5" r="16.5" transform="rotate(-90 16.5 16.5)" fill="#43D14F"/>
<path fill-rule="evenodd" clip-rule="evenodd" d="M10.4498 18.1499C9.53853 18.1499 8.7998 17.4111 8.7998 16.4999C8.7998 15.5886 9.53853 14.8499 10.4498 14.8499L17.9062 14.8499L17.6668 14.6104C17.0224 13.9661 17.0224 12.9213 17.6668 12.277C18.3111 11.6326 19.3559 11.6326 20.0002 12.277L23.1115 15.3882C23.7559 16.0326 23.7559 17.0773 23.1115 17.7217C23.1081 17.7251 23.1046 17.7285 23.1012 17.7319L20 20.8331C19.3556 21.4775 18.3109 21.4775 17.6665 20.8331C17.0222 20.1888 17.0222 19.144 17.6665 18.4997L18.0164 18.1499L10.4498 18.1499Z" fill="white"/>
</svg>
