<svg width="48" height="48" viewBox="0 0 48 48" fill="none" xmlns="http://www.w3.org/2000/svg">
<path d="M39 48H9C4.029 48 0 43.971 0 39V9C0 4.029 4.029 0 9 0H39C43.971 0 48 4.029 48 9V39C48 43.971 43.971 48 39 48Z" fill="#43D14F" fill-opacity="0.2"/>
<path d="M39.9013 31.4764L39.9058 31.48C40.2194 31.7001 40.4801 31.9872 40.6693 32.3203C40.8584 32.6535 40.9712 33.0246 40.9995 33.4067C40.9995 35.3764 33.7291 39.3 32.4994 39.3C32.428 39.3 27.9502 40 16.8451 29.8525C9 21 8.99938 17 9.49969 15.5C10 14 14.3299 8.70001 16.2996 8.70001L19 12.5L20.5 16.5C20.3436 17.3863 20.3547 18.1815 19.1533 19.1901L19.1418 19.1998C18.9364 19.3725 18.4807 19.7557 18.1537 20.056C18.3626 20.6971 18.6171 21.3224 18.9153 21.9271C20.4351 25.0489 22.9574 27.5711 26.0791 29.0909C26.6839 29.3889 27.3092 29.6434 27.9503 29.8525C28.2551 29.5205 28.6473 29.0535 28.8105 28.8586C29.8248 27.6516 31.116 27.1564 32 27C33.8334 26.6544 39.6944 31.312 39.9013 31.4764Z" fill="#43D14F"/>
<path d="M25.8587 29.5394C26.2401 29.7274 26.6294 29.8986 27.0255 30.0527C27.7015 30.3157 28.4083 30.0205 28.802 29.5169C29.1567 29.0631 29.6946 28.4663 30.3402 28.0289C30.9865 27.5911 31.6872 27.3473 32.4019 27.4903C32.7849 27.5669 33.5238 27.8438 34.4393 28.2798C35.3413 28.7094 36.3751 29.2744 37.3364 29.9008C38.3022 30.53 39.1728 31.207 39.7654 31.8565C40.3854 32.5359 40.5821 33.0534 40.5105 33.3983C40.4149 33.8584 39.9807 34.5416 39.2567 35.3547C38.5528 36.1453 37.6389 36.9896 36.6942 37.7663C35.7502 38.5424 34.787 39.2414 33.99 39.7435C33.5908 39.995 33.2411 40.1921 32.9612 40.3244C32.8213 40.3906 32.7059 40.4372 32.6155 40.4664C32.5707 40.4808 32.5358 40.4898 32.5101 40.4949C32.4883 40.4992 32.4776 40.4999 32.4759 40.5C32.4758 40.5 32.4755 40.5 32.4753 40.5C32.3719 40.4978 25.3026 40.3461 16.4066 31.6036C7.65401 22.6986 7.50225 15.6282 7.50003 15.5247C7.50003 15.5245 7.50002 15.5243 7.50002 15.5242C7.50013 15.5226 7.50082 15.5121 7.50506 15.491C7.51016 15.4655 7.5191 15.431 7.53364 15.3865C7.56295 15.2967 7.60985 15.1821 7.67672 15.0431C7.81037 14.7652 8.01007 14.4183 8.2661 14.0241C8.77736 13.237 9.49314 12.2921 10.299 11.3828C11.106 10.4721 11.991 9.61124 12.8383 8.98249C13.7064 8.33837 14.4532 8 15 8C15.4964 8 16.1197 8.36109 16.8178 9.11351C17.4956 9.84409 18.1576 10.8506 18.734 11.924C19.3088 12.9944 19.787 14.1097 20.1039 15.0435C20.2625 15.5107 20.378 15.9248 20.4457 16.2601C20.5169 16.6125 20.5234 16.8235 20.5076 16.9131C20.4605 17.1801 20.3023 17.4975 20.0475 17.8537C19.7969 18.204 19.4809 18.554 19.1623 18.8868C19.0567 18.9972 18.9479 19.1086 18.8413 19.2177C18.64 19.4238 18.4467 19.6215 18.299 19.788C18.1848 19.9167 18.0722 20.0545 17.9928 20.1884C17.953 20.2557 17.9097 20.3414 17.8838 20.4394C17.858 20.5372 17.8405 20.6827 17.8994 20.839C18.0673 21.2843 18.2568 21.7212 18.4674 22.1483C19.1377 23.5074 20.4201 25.0715 21.7927 26.4213C23.1648 27.7705 24.6827 28.96 25.8587 29.5394Z" stroke="#031F88"/>
</svg>
