<svg width="148" height="179" viewBox="0 0 148 179" fill="none" xmlns="http://www.w3.org/2000/svg">
<path d="M4.04896 34.2188L44.2813 34.2188C46.115 34.2188 47.6016 32.7308 47.6016 30.8953L47.6016 4.19458C47.6016 2.35907 46.115 0.871098 44.2813 0.871098L4.04896 0.871098C2.21524 0.871098 0.728722 2.35907 0.728722 4.19458L0.728722 30.8953C0.728722 32.7308 2.21524 34.2188 4.04896 34.2188Z" fill="#43D14F"/>
<circle cx="23.8717" cy="17.2457" r="11.2066" stroke="white" stroke-width="2"/>
<path d="M26.3565 14.6553C26.3565 14.6553 26.7588 12.2084 23.9096 12.2084C21.4618 12.2084 21.4613 14.1613 21.4618 14.6553C21.4651 17.825 26.3553 16.2866 26.3553 19.5492C26.3553 21.1805 25.54 21.9961 23.9087 21.9961C20.9595 21.9961 21.4634 19.5492 21.4634 19.5492" stroke="white" stroke-width="2" stroke-linecap="round" stroke-linejoin="round"/>
<rect x="23.692" y="9.92251" width="0.813775" height="2.44879" rx="0.406887" fill="#C4C4C4" stroke="white" stroke-width="0.813775"/>
<rect x="23.692" y="21.9147" width="0.813775" height="2.44879" rx="0.406887" fill="#C4C4C4" stroke="white" stroke-width="0.813775"/>
<path d="M41.2888 31.4922L37.6919 38.4879C37.59 38.6842 37.4381 38.8499 37.2515 38.9683C37.0648 39.0866 36.8502 39.1534 36.6295 39.1617C36.4087 39.1701 36.1896 39.1197 35.9946 39.0158C35.7996 38.9118 35.6356 38.758 35.5193 38.57L31.2051 31.4922H41.2888Z" fill="#43D14F"/>
<path d="M67.1845 100.453C66.4569 101.078 56.7933 106.3 50.9521 113.788L62.6242 124.558L81.9514 119.911L83.0888 100.422L67.1845 100.453Z" fill="#0B181B"/>
<path d="M64.1306 170.677L62.0605 159.742H69.1109L69.9513 170.677H64.1306Z" fill="#F9B0A3"/>
<path d="M69.9513 169.641H64.1102C61.6181 171.313 59.8019 173.818 58.9863 176.708H75.3826C75.3826 176.708 72.708 170.892 69.9513 169.641Z" fill="black"/>
<path d="M75.4129 176.711H59.0166V178.742H75.4129V176.711Z" fill="#EFF2F9"/>
<path d="M63.9053 172.405C63.9053 172.405 67.3587 170.589 69.9514 172.405" stroke="white" stroke-width="0.96" stroke-linecap="round" stroke-linejoin="round"/>
<path d="M66.3233 117.715C68.629 133.86 72.5949 164.192 72.5949 164.192L58.986 164.448L49.5581 120.771C49.3108 119.649 49.2919 118.489 49.5025 117.359C49.7131 116.229 50.149 115.153 50.7841 114.196C51.4191 113.239 52.2404 112.419 53.1989 111.787C54.1573 111.154 55.2333 110.721 56.3626 110.514C57.4913 110.311 58.6493 110.337 59.7675 110.592C60.8857 110.847 61.9411 111.324 62.8708 111.997C63.8005 112.669 64.5853 113.521 65.1785 114.504C65.7717 115.486 66.1611 116.578 66.3233 117.715Z" fill="#0B181B"/>
<path d="M96.5645 100.453C97.2921 101.078 106.956 106.3 112.797 113.788L101.125 124.558L81.7976 119.911L80.6602 100.422L96.5645 100.453Z" fill="#0B181B"/>
<path d="M98.8397 170.677L100.899 159.742H93.8491L93.0088 170.677H98.8397Z" fill="#F9B0A3"/>
<path d="M93.0084 169.641H98.8291C101.321 171.313 103.137 173.818 103.953 176.708H87.5566C87.5566 176.708 90.2518 170.892 93.0084 169.641Z" fill="black"/>
<path d="M87.5461 178.738H103.942V176.707H87.5461V178.738Z" fill="#EFF2F9"/>
<path d="M99.0549 172.405C99.0549 172.405 95.6014 170.589 93.0088 172.405" stroke="white" stroke-width="0.96" stroke-linecap="round" stroke-linejoin="round"/>
<path d="M97.435 117.718C95.1293 133.864 90.1797 164.195 90.1797 164.195L103.83 164.452L114.241 120.775C114.489 119.653 114.507 118.492 114.297 117.362C114.086 116.232 113.65 115.157 113.015 114.199C112.38 113.242 111.559 112.423 110.6 111.79C109.642 111.157 108.566 110.724 107.437 110.517C106.305 110.308 105.143 110.33 104.02 110.582C102.897 110.834 101.836 111.31 100.902 111.983C99.9678 112.656 99.1791 113.51 98.5833 114.496C97.9874 115.481 97.5969 116.577 97.435 117.718Z" fill="#0B181B"/>
<path d="M80.1164 55.7344C80.1164 55.7344 67.8191 55.7344 58.6885 64.6791V89.7488C58.6885 89.7488 102.169 90.4053 102.169 89.7488C102.169 89.0923 102.169 63.0173 102.169 63.0173C95.7692 58.3231 88.0506 55.7741 80.1164 55.7344Z" fill="#16BDC8"/>
<path d="M61.753 88.3398H49.3534C47.7906 88.3398 46.2918 88.9613 45.1868 90.0674C44.0818 91.1735 43.4609 92.6737 43.4609 94.238C43.4596 95.0134 43.611 95.7815 43.9065 96.4983C44.2021 97.2151 44.6359 97.8665 45.1832 98.4153C45.7305 98.964 46.3805 99.3994 47.0961 99.6965C47.8116 99.9935 48.5787 100.146 49.3534 100.146H63.9358L61.753 88.3398Z" fill="#E88E80"/>
<path d="M44.1875 91.3956L52.5189 77.8555L63.9348 79.3941L62.2439 94.237L44.1875 91.3956Z" fill="#E88E80"/>
<path d="M58.6894 88.3398H51.3213" stroke="#55382C" stroke-width="0.72" stroke-miterlimit="10"/>
<path d="M60.5224 63.0156C60.5224 63.0156 53.8614 68.4419 46.7393 80.3818C46.7393 80.3818 48.2662 87.2852 61.4447 88.3418L60.5224 63.0156Z" fill="#16BDC8"/>
<path d="M100.561 88.3398H112.96C114.524 88.3398 116.024 88.9609 117.131 90.0667C118.237 91.1726 118.86 92.6728 118.863 94.238C118.863 95.805 118.241 97.3078 117.134 98.4159C116.027 99.5239 114.526 100.146 112.96 100.146H98.3779L100.561 88.3398Z" fill="#E88E80"/>
<path d="M118.094 91.332L107.673 75.3711L98.3779 79.3921L100.069 94.2349L118.094 91.332Z" fill="#E88E80"/>
<path d="M101.269 88.3398H111.004" stroke="#55382C" stroke-width="0.72" stroke-miterlimit="10"/>
<path d="M102.191 63.0156C102.191 63.0156 108.893 68.4419 115.964 80.3818C115.964 80.3818 114.447 87.2852 101.269 88.3418L102.191 63.0156Z" fill="#16BDC8"/>
<path d="M100.202 71.207H60.6663C59.574 71.207 58.6885 72.0934 58.6885 73.1868V98.1642C58.6885 99.2575 59.574 100.144 60.6663 100.144H100.202C101.294 100.144 102.18 99.2575 102.18 98.1642V73.1868C102.18 72.0934 101.294 71.207 100.202 71.207Z" fill="#EAC8CE"/>
<path d="M83.0993 85.6709C83.0993 86.1984 82.943 86.714 82.6503 87.1526C82.3575 87.5912 81.9414 87.933 81.4545 88.1349C80.9677 88.3367 80.4319 88.3896 79.9151 88.2867C79.3983 88.1838 78.9235 87.9297 78.5509 87.5568C78.1783 87.1838 77.9245 86.7086 77.8217 86.1912C77.7189 85.6739 77.7717 85.1376 77.9733 84.6503C78.175 84.163 78.5165 83.7464 78.9546 83.4534C79.3928 83.1603 79.9079 83.0039 80.4349 83.0039C81.1415 83.0039 81.8192 83.2849 82.3189 83.7851C82.8186 84.2852 83.0993 84.9636 83.0993 85.6709Z" fill="white"/>
<path d="M75.6484 50.4922H85.2095V56.6468C85.2095 57.0859 85.1231 57.5208 84.9552 57.9265C84.7873 58.3322 84.5413 58.7008 84.231 59.0113C83.9208 59.3219 83.5525 59.5682 83.1472 59.7362C82.7419 59.9043 82.3075 59.9908 81.8688 59.9908H78.9789C78.0947 59.9881 77.2476 59.6346 76.6233 59.0077C75.999 58.3809 75.6484 57.5319 75.6484 56.6468V50.4922Z" fill="#E88E80"/>
<path d="M75.6699 50.8551C75.6699 50.8551 77.0636 55.1326 85.2003 54.9582V49.0703C85.2003 49.0703 84.6571 50.1679 81.0295 50.014C77.4018 49.8602 75.6699 50.8551 75.6699 50.8551Z" fill="#0B0B0B"/>
<path d="M80.3424 46.5665C86.8962 46.5665 92.2092 41.1152 92.2092 34.3907C92.2092 27.6662 86.8962 22.2148 80.3424 22.2148C73.7885 22.2148 68.4756 27.6662 68.4756 34.3907C68.4756 41.1152 73.7885 46.5665 80.3424 46.5665Z" fill="#0B181B"/>
<path d="M90.6001 38.8475C90.8896 38.4487 91.3093 38.1638 91.7865 38.042C92.2637 37.9203 92.7684 37.9694 93.2133 38.1808C94.9759 38.8475 94.1766 43.1352 91.5327 43.6789C91.2357 43.7311 90.931 43.7188 90.6392 43.6426C90.3475 43.5665 90.0755 43.4285 89.8418 43.2378C89.8418 43.2378 90.4976 40.0477 90.6001 38.8475Z" fill="#E88E80"/>
<path d="M92.8647 39.6572C92.8647 39.6572 91.389 39.1648 90.3438 41.3395" stroke="#021833" stroke-width="0.46" stroke-linecap="round" stroke-linejoin="round"/>
<path d="M70.3711 38.8485C70.0798 38.4489 69.6584 38.1636 69.1794 38.0419C68.7005 37.9201 68.1941 37.9696 67.7477 38.1817C65.9851 38.8485 66.7844 43.1362 69.4283 43.6798C69.7252 43.7356 70.0307 43.725 70.323 43.6487C70.6153 43.5724 70.8872 43.4325 71.1192 43.2388C71.1192 43.2388 70.4736 40.0486 70.3711 38.8485Z" fill="#E88E80"/>
<path d="M68.0967 39.6572C68.0967 39.6572 69.5723 39.1648 70.6279 41.3395" stroke="#021833" stroke-width="0.46" stroke-linecap="round" stroke-linejoin="round"/>
<path d="M90.7541 35.1535C90.7541 37.8923 90.4671 43.6366 88.7045 47.0421C87.9748 48.5549 86.8319 49.8298 85.4083 50.7194C83.9846 51.6089 82.3384 52.0766 80.6601 52.0684C77.0427 52.1709 74.3476 50.8477 72.1853 46.6933C70.023 42.539 70.1358 35.2048 70.1358 35.2048C70.1358 35.2048 70.1358 25.3984 80.3834 25.3984C91.082 25.3984 90.7541 35.1535 90.7541 35.1535Z" fill="#E88E80"/>
<path d="M70.3713 38.849C70.3713 38.849 74.2449 29.9659 71.1194 28.5195C71.1194 28.5195 68.8854 36.1307 70.3713 38.849Z" fill="#0B181B"/>
<path d="M90.5693 38.8469C90.5693 38.8469 88.3865 34.0566 90.3131 30.6408C90.3131 30.61 92.0552 36.1286 90.5693 38.8469Z" fill="#0B181B"/>
<path d="M76.8573 40.9999C76.8573 41.1845 76.8026 41.3649 76.7001 41.5184C76.5976 41.672 76.452 41.7916 76.2816 41.8622C76.1112 41.9329 75.9237 41.9514 75.7428 41.9154C75.5619 41.8793 75.3957 41.7904 75.2653 41.6599C75.1349 41.5294 75.0461 41.363 75.0101 41.182C74.9741 41.0009 74.9926 40.8132 75.0632 40.6426C75.1338 40.4721 75.2533 40.3263 75.4066 40.2237C75.56 40.1212 75.7403 40.0664 75.9247 40.0664C76.1721 40.0664 76.4093 40.1648 76.5841 40.3398C76.759 40.5149 76.8573 40.7523 76.8573 40.9999Z" fill="#0B181B"/>
<path d="M85.4959 40.9999C85.4959 41.1845 85.4412 41.3649 85.3388 41.5184C85.2363 41.672 85.0907 41.7916 84.9203 41.8622C84.7499 41.9329 84.5624 41.9514 84.3815 41.9154C84.2006 41.8793 84.0344 41.7904 83.904 41.6599C83.7736 41.5294 83.6848 41.363 83.6488 41.182C83.6128 41.0009 83.6313 40.8132 83.7018 40.6426C83.7724 40.4721 83.892 40.3263 84.0453 40.2237C84.1987 40.1212 84.379 40.0664 84.5634 40.0664C84.8107 40.0664 85.0479 40.1648 85.2228 40.3398C85.3977 40.5149 85.4959 40.7523 85.4959 40.9999Z" fill="#0B181B"/>
<path d="M79.7784 43.043V44.3354C79.7771 44.4086 79.7921 44.4812 79.8224 44.5479C79.8527 44.6146 79.8974 44.6736 79.9534 44.7208C80.0093 44.768 80.0751 44.802 80.1459 44.8206C80.2166 44.8391 80.2907 44.8415 80.3625 44.8278L81.0286 44.6842" stroke="#021833" stroke-width="0.46" stroke-linecap="round" stroke-linejoin="round"/>
<path d="M78.6924 38.1098L73.0459 38.7971C73.0459 38.7971 73.4968 37.2892 75.8025 37.0328C78.1082 36.7763 78.6924 38.1098 78.6924 38.1098Z" fill="#0B181B"/>
<path d="M81.9619 38.1098L87.6084 38.7971C87.6084 38.7971 87.1575 37.2892 84.8518 37.0328C82.546 36.7763 81.9619 38.1098 81.9619 38.1098Z" fill="#0B181B"/>
<path d="M77.4324 46.2422H83.1403C83.1403 46.2422 83.2325 48.3655 80.271 48.2937C77.3094 48.2219 77.4324 46.2422 77.4324 46.2422Z" fill="white"/>
<path d="M71.1201 28.5162C71.1201 28.5162 77.4942 36.2505 90.9904 33.645C90.9904 33.645 92.1791 26.6596 85.2004 24.526C78.2218 22.3924 72.7802 27.4699 71.1201 28.5162Z" fill="#0B181B"/>
<path d="M71.1184 28.518C71.1184 28.518 70.9852 22.1685 76.8571 21.2146C82.729 20.2606 82.9135 23.4097 87.1048 23.6559C93.3149 24.0354 96.1432 30.1387 91.0296 33.6776L82.4011 28.5488L71.1184 28.518Z" fill="#0B181B"/>
<path d="M71.3451 26.6719C71.3451 26.6719 64.9506 27.4617 68.896 37.6168L71.3451 26.6719Z" fill="#0B181B"/>
<path d="M75.6494 54.7148L80.3428 60.0078L76.8586 63.5877L72.3906 56.7972L75.6494 54.7148Z" fill="white"/>
<path d="M85.2002 54.9922L80.3428 60.0082L83.8372 63.5881L88.8176 56.7873L85.2002 54.9922Z" fill="white"/>
<path d="M147.742 100.145H11.8369V107.684H147.742V100.145Z" fill="#EFF2F9"/>
<path d="M37.7525 107.676H33.0283V178.997H37.7525V107.676Z" fill="#EFF2F9"/>
<path d="M37.7525 107.676H33.0283V110.056H37.7525V107.676Z" fill="#D6D8DD"/>
<path d="M130.156 107.676H125.432V178.997H130.156V107.676Z" fill="#EFF2F9"/>
<path d="M130.156 107.676H125.432V110.056H130.156V107.676Z" fill="#D6D8DD"/>
</svg>
