<svg width="28" height="28" viewBox="0 0 28 28" fill="none" xmlns="http://www.w3.org/2000/svg">
<path fill-rule="evenodd" clip-rule="evenodd" d="M14 28C21.732 28 28 21.732 28 14C28 6.26801 21.732 0 14 0C6.26801 0 0 6.26801 0 14C0 21.732 6.26801 28 14 28ZM13.9772 5.75019C14.1445 5.74726 14.3107 5.77793 14.4659 5.84038C14.6212 5.90284 14.7623 5.99581 14.881 6.1138C14.9997 6.23179 15.0935 6.37239 15.1568 6.52728C15.22 6.68169 15.2516 6.84718 15.2498 7.01399V7.65379C16.8468 8.01962 18.25 9.11401 18.25 11.0017C18.25 11.3337 18.1181 11.652 17.8834 11.8868C17.6487 12.1215 17.3303 12.2534 16.9983 12.2534C16.6664 12.2534 16.348 12.1215 16.1132 11.8868C15.8785 11.652 15.7466 11.3337 15.7466 11.0017C15.7466 10.7037 15.5743 10.4621 15.2508 10.282C14.9233 10.0997 14.4688 10.0008 13.9991 10.0008C13.5295 10.0008 13.075 10.0997 12.7475 10.282C12.424 10.4621 12.2517 10.7037 12.2517 11.0017C12.2517 11.3609 12.2947 11.566 12.3619 11.7075C12.4272 11.8448 12.527 11.9477 12.7004 12.0826C13.0283 12.3376 13.6304 12.5626 14.3929 12.8168L14.529 12.862C15.2422 13.0983 16.0811 13.3762 16.8303 13.9589C17.6485 14.5954 18.25 15.6799 18.25 17.0079C18.25 18.8967 16.8477 19.9941 15.2498 20.3598V20.9924C15.2531 21.158 15.2235 21.3226 15.1627 21.4767C15.1015 21.6316 15.01 21.7728 14.8935 21.8919C14.777 22.0111 14.6378 22.1057 14.4843 22.1703C14.3307 22.2349 14.1658 22.2682 13.9991 22.2682C13.8325 22.2682 13.6676 22.2349 13.514 22.1703C13.3605 22.1057 13.2213 22.0111 13.1048 21.8919C12.9883 21.7728 12.8968 21.6316 12.8356 21.4767C12.7748 21.3226 12.7452 21.158 12.7484 20.9924V20.3597C11.1516 19.9941 9.75156 18.8974 9.75025 17.0105C9.74695 16.8449 9.77658 16.6803 9.83742 16.5263C9.89861 16.3713 9.99014 16.2301 10.1066 16.111C10.2231 15.9919 10.3623 15.8972 10.5158 15.8326C10.6694 15.768 10.8343 15.7347 11.0009 15.7347C11.1676 15.7347 11.3325 15.768 11.4861 15.8326C11.6396 15.8972 11.7788 15.9919 11.8953 16.111C12.0118 16.2301 12.1033 16.3713 12.1645 16.5263C12.2253 16.6803 12.2549 16.8448 12.2517 17.0103C12.2526 17.3072 12.4249 17.548 12.7475 17.7276C13.075 17.9099 13.5295 18.0088 13.9991 18.0088C14.4688 18.0088 14.9233 17.9099 15.2508 17.7276C15.5743 17.5475 15.7466 17.3059 15.7466 17.0079C15.7466 16.6487 15.7036 16.4436 15.6364 16.3021C15.5711 16.1648 15.4713 16.0619 15.2979 15.927C14.9699 15.6719 14.3672 15.4448 13.6054 15.1909L13.4598 15.1426C12.749 14.9073 11.9139 14.6308 11.168 14.0507C10.3495 13.4141 9.75025 12.3294 9.75025 11.0017C9.75025 9.11186 11.1498 8.01604 12.7484 7.65159V7.01397C12.745 6.68408 12.872 6.36615 13.1018 6.12944C13.332 5.89235 13.6468 5.75601 13.9772 5.75019Z" fill="#86969E"/>
</svg>
