<svg width="14" height="20" viewBox="0 0 14 20" fill="none" xmlns="http://www.w3.org/2000/svg">
<path d="M11.875 6.75H11.3333V4.5C11.3333 2.01825 9.38983 0 7 0C4.61017 0 2.66667 2.01825 2.66667 4.5V6.75H2.125C1.22944 6.75 0.5 7.50675 0.5 8.4375V16.3125C0.5 17.2432 1.22944 18 2.125 18H11.875C12.7706 18 13.5 17.2432 13.5 16.3125V8.4375C13.5 7.50675 12.7706 6.75 11.875 6.75ZM4.11111 4.5C4.11111 2.8455 5.40678 1.5 7 1.5C8.59322 1.5 9.88889 2.8455 9.88889 4.5V6.75H4.11111V4.5ZM7.72222 12.5415V14.25C7.72222 14.664 7.39939 15 7 15C6.60061 15 6.27778 14.664 6.27778 14.25V12.5415C5.84806 12.2812 5.55556 11.8027 5.55556 11.25C5.55556 10.4227 6.20339 9.75 7 9.75C7.79661 9.75 8.44444 10.4227 8.44444 11.25C8.44444 11.8027 8.15194 12.2812 7.72222 12.5415Z" fill="#86969E"/>
</svg>
