<svg width="1292" height="811" viewBox="0 0 1292 811" fill="none" xmlns="http://www.w3.org/2000/svg">
<path d="M324.633 465.273C326.111 464.478 327.889 464.478 329.367 465.273L527.918 572H126.082L324.633 465.273Z" fill="#43D14F"/>
<path d="M744.077 448.106C745.823 446.848 748.177 446.848 749.923 448.106L947.918 590.75H546.082L744.077 448.106Z" fill="#B5E5BD"/>
<path d="M914.077 473.106C915.823 471.848 918.177 471.848 919.923 473.106L1117.92 615.75H716.082L914.077 473.106Z" fill="#43D14F"/>
<path d="M487.536 447.395C489.065 446.53 490.935 446.53 492.464 447.395L737.683 586.25H242.317L487.536 447.395Z" fill="#B5E5BD"/>
<path d="M650.5 14H657C662.381 376.634 675.32 422.586 701 476C726 528 752.182 561.901 778.5 565.5C829 572.406 834 528 873.5 528C908 528 911.5 556.5 944 552C976.5 547.5 982.5 498.5 1014.5 480.5C1072 448.156 1292 465.5 1292 465.5V740.5C1292 779.16 1260.66 810.5 1222 810.5H70.5C31.8401 810.5 0.5 779.16 0.5 740.5V465.5C0.5 465.5 231.216 458.293 277 480.5C326.5 504.509 334.5 552 365 552C395.5 552 399 528 439.5 528C468.607 528 480.5 569.5 520.5 565.5C566 556.5 594.95 499.73 610 465.5C637.918 402 643 374.5 650.5 14Z" fill="#EFF2F9"/>
<path d="M174.624 567L225.624 527L276.624 567V626H174.624V567Z" fill="#43D14F"/>
<path d="M174.551 564.73L224.424 521.651C225.254 520.934 226.507 521.02 227.232 521.843L232.83 528.2C233.565 529.034 233.479 530.306 232.639 531.034L174.536 581.357L174.551 564.73Z" fill="#066E55"/>
<path d="M276.5 564.73L227.037 521.537C226.207 520.813 224.948 520.895 224.22 521.722L218.623 528.078C217.891 528.909 217.974 530.176 218.807 530.905L276.514 581.357L276.5 564.73Z" fill="#066E55"/>
<path d="M167.254 565.57C167.255 564.996 167.502 564.45 167.932 564.071L224.422 514.321C225.251 513.591 226.515 513.671 227.245 514.5L232.842 520.855C233.572 521.684 233.492 522.948 232.663 523.678L170.566 578.366C169.274 579.504 167.243 578.585 167.244 576.863L167.254 565.57Z" fill="#038868"/>
<path d="M284.533 565.57C284.533 564.996 284.286 564.45 283.855 564.071L227.366 514.321C226.537 513.591 225.273 513.671 224.543 514.5L218.946 520.855C218.216 521.684 218.296 522.948 219.125 523.678L281.221 578.366C282.514 579.504 284.545 578.585 284.543 576.863L284.533 565.57Z" fill="#038868"/>
<rect x="205.2" y="581" width="19" height="12" rx="2" fill="#FEFFFF"/>
<rect x="205.2" y="596" width="19" height="12" rx="2" fill="#FEFFFF"/>
<rect x="227.2" y="596" width="19" height="12" rx="2" fill="#FEFFFF"/>
<rect x="227.2" y="581" width="19" height="12" rx="2" fill="#FEFFFF"/>
<rect x="247.624" y="518" width="12" height="27" rx="2" fill="#038868"/>
<circle cx="306.5" cy="638.5" r="44.5" fill="#B5E6BD"/>
<circle cx="432.5" cy="632.5" r="67.5" fill="#B5E6BD"/>
<circle cx="623.5" cy="629.5" r="46.5" fill="#B5E6BD"/>
<path d="M597.624 567L648.624 527L699.624 567V622C699.624 624.209 697.833 626 695.624 626H597.624V567Z" fill="#43D14F"/>
<path d="M597.551 564.73L647.424 521.651C648.254 520.934 649.507 521.02 650.232 521.843L655.83 528.2C656.565 529.034 656.479 530.306 655.639 531.034L597.536 581.357L597.551 564.73Z" fill="#066E55"/>
<path d="M699.5 564.73L650.037 521.537C649.207 520.813 647.948 520.895 647.22 521.722L641.623 528.078C640.891 528.909 640.974 530.176 641.807 530.905L699.514 581.357L699.5 564.73Z" fill="#066E55"/>
<path d="M590.254 565.57C590.255 564.996 590.502 564.45 590.932 564.071L647.422 514.321C648.251 513.591 649.515 513.671 650.245 514.5L655.842 520.855C656.572 521.684 656.492 522.948 655.663 523.678L593.566 578.366C592.274 579.504 590.243 578.585 590.244 576.863L590.254 565.57Z" fill="#038868"/>
<path d="M707.533 565.57C707.533 564.996 707.286 564.45 706.855 564.071L650.366 514.321C649.537 513.591 648.273 513.671 647.543 514.5L641.946 520.855C641.216 521.684 641.296 522.948 642.125 523.678L704.221 578.366C705.514 579.504 707.545 578.585 707.543 576.863L707.533 565.57Z" fill="#038868"/>
<rect x="628.2" y="581" width="19" height="12" rx="2" fill="#FEFFFF"/>
<rect x="628.2" y="596" width="19" height="12" rx="2" fill="#FEFFFF"/>
<rect x="650.2" y="596" width="19" height="12" rx="2" fill="#FEFFFF"/>
<rect x="650.2" y="581" width="19" height="12" rx="2" fill="#FEFFFF"/>
<rect x="670.624" y="518" width="12" height="27" rx="2" fill="#038868"/>
<circle cx="913.5" cy="629.5" r="46.5" fill="#B5E6BD"/>
<path d="M1017.62 567L1068.62 527L1119.62 567V626H1017.62V567Z" fill="#43D14F"/>
<path d="M1017.55 564.73L1067.42 521.651C1068.25 520.934 1069.51 521.02 1070.23 521.843L1075.83 528.2C1076.56 529.034 1076.48 530.306 1075.64 531.034L1017.54 581.357L1017.55 564.73Z" fill="#066E55"/>
<path d="M1119.5 564.73L1070.04 521.537C1069.21 520.813 1067.95 520.895 1067.22 521.722L1061.62 528.078C1060.89 528.909 1060.97 530.176 1061.81 530.905L1119.51 581.357L1119.5 564.73Z" fill="#066E55"/>
<path d="M1010.25 565.57C1010.25 564.996 1010.5 564.45 1010.93 564.071L1067.42 514.321C1068.25 513.591 1069.51 513.671 1070.24 514.5L1075.84 520.855C1076.57 521.684 1076.49 522.948 1075.66 523.678L1013.57 578.366C1012.27 579.504 1010.24 578.585 1010.24 576.863L1010.25 565.57Z" fill="#038868"/>
<path d="M1127.53 565.57C1127.53 564.996 1127.29 564.45 1126.86 564.071L1070.37 514.321C1069.54 513.591 1068.27 513.671 1067.54 514.5L1061.95 520.855C1061.22 521.684 1061.3 522.948 1062.13 523.678L1124.22 578.366C1125.51 579.504 1127.54 578.585 1127.54 576.863L1127.53 565.57Z" fill="#038868"/>
<rect x="1048.2" y="581" width="19" height="12" rx="2" fill="#FEFFFF"/>
<rect x="1048.2" y="596" width="19" height="12" rx="2" fill="#FEFFFF"/>
<rect x="1070.2" y="596" width="19" height="12" rx="2" fill="#FEFFFF"/>
<rect x="1070.2" y="581" width="19" height="12" rx="2" fill="#FEFFFF"/>
<rect x="1090.62" y="518" width="12" height="27" rx="2" fill="#038868"/>
<circle cx="1002.5" cy="632.5" r="24.5" fill="#B5E6BD"/>
<circle cx="852.5" cy="632.5" r="24.5" fill="#B5E6BD"/>
<circle cx="685.5" cy="632.5" r="24.5" fill="#B5E6BD"/>
<path d="M425.041 570.462C425.481 568.336 428.518 568.336 428.958 570.462L443.454 640.5H410.545L425.041 570.462Z" fill="#43D14F"/>
<path d="M442.031 589.017C442.424 586.82 445.576 586.82 445.969 589.017L455.258 641H432.742L442.031 589.017Z" fill="#43D14F"/>
<path d="M744.031 589.017C744.424 586.82 747.576 586.82 747.969 589.017L757.258 641H734.742L744.031 589.017Z" fill="#43D14F"/>
<path d="M909.031 589.017C909.424 586.82 912.576 586.82 912.969 589.017L922.258 641H899.742L909.031 589.017Z" fill="#43D14F"/>
<path d="M0 626H1292V741C1292 779.66 1260.66 811 1222 811H70C31.34 811 0 779.66 0 741V626Z" fill="#0A9A78"/>
<path d="M0 723.5L1292 660V741C1292 779.66 1260.66 811 1222 811H70C31.34 811 0 779.66 0 741V723.5Z" fill="#038868"/>
<circle cx="401.5" cy="469.5" r="10.5" fill="#B5E5BD"/>
<circle cx="847.5" cy="474.5" r="10.5" fill="#B5E5BD"/>
<circle cx="994.5" cy="428.5" r="16.5" fill="#B5E5BD"/>
<circle cx="642" cy="55" r="5" fill="#031F88"/>
<circle cx="641.5" cy="53.5" r="2.5" fill="white"/>
<circle cx="665" cy="55" r="5" fill="#031F88"/>
<circle cx="664.5" cy="53.5" r="2.5" fill="white"/>
<rect x="644.48" y="68.7052" width="17.691" height="84.3546" rx="4.74529" fill="white" stroke="#031F88" stroke-width="1.3558"/>
<path opacity="0.6" d="M661.49 140.134V72.1094H657.408H653.327C653.327 74.6352 658.697 73.1606 658.769 75.5106C659.433 97.2098 658.765 116.157 656.728 140.134H661.49Z" fill="#376CFB"/>
<rect x="641.081" y="116.805" width="12.2269" height="27.2097" rx="6.11346" transform="rotate(-80 641.081 116.805)" fill="#87A7FD"/>
<rect x="641.081" y="126.328" width="12.2269" height="27.2097" rx="6.11346" transform="rotate(-80 641.081 126.328)" fill="#87A7FD"/>
<rect x="641.081" y="137.215" width="12.2269" height="27.2097" rx="6.11346" transform="rotate(-80 641.081 137.215)" fill="#87A7FD"/>
<rect x="638.36" y="115.48" width="10.8839" height="27.2097" rx="5.44193" transform="rotate(-80 638.36 115.48)" fill="white" stroke="#031F88" stroke-width="1.3558"/>
<rect x="638.361" y="125.922" width="10.8839" height="27.2097" rx="5.44193" transform="rotate(-80 638.361 125.922)" fill="white" stroke="#031F88" stroke-width="1.3558"/>
<rect x="638.361" y="136.289" width="10.8839" height="27.2097" rx="5.44193" transform="rotate(-80 638.361 136.289)" fill="white" stroke="#031F88" stroke-width="1.3558"/>
<rect x="649.923" y="0.681804" width="6.8071" height="70.7498" rx="3.40355" fill="#FBC4B0" stroke="#031F88" stroke-width="1.3558"/>
<path d="M647.481 16.4419C647.405 16.0258 647.725 15.6427 648.147 15.6427H658.503C658.926 15.6427 659.246 16.0258 659.17 16.4419L656.942 28.6956C656.884 29.018 656.603 29.2523 656.275 29.2523H650.375C650.048 29.2523 649.767 29.018 649.708 28.6956L647.481 16.4419Z" fill="#F99773" stroke="#031F88" stroke-width="1.3558"/>
<path d="M659.218 16.2286C659.281 16.6393 658.963 17.0096 658.548 17.0096L648.103 17.0096C647.688 17.0096 647.37 16.6393 647.433 16.2286L649.737 1.25394C649.788 0.923236 650.073 0.679118 650.407 0.679118L656.244 0.679118C656.578 0.679118 656.863 0.923235 656.914 1.25394L659.218 16.2286Z" fill="#F8632D" stroke="#031F88" stroke-width="1.3558"/>
<path d="M640.844 69.8522C640.58 69.7604 640.4 69.5081 640.4 69.2212L640.4 66.6361C640.4 66.1769 640.86 65.833 641.322 65.9816C645.831 67.4305 649.568 68.1671 653.326 68.1664C657.084 68.1658 660.821 67.428 665.332 65.9805C665.794 65.8322 666.253 66.176 666.253 66.6351L666.253 69.2199C666.253 69.507 666.073 69.7596 665.808 69.8512C660.909 71.5487 657.05 72.3649 653.242 72.3574C649.435 72.3499 645.632 71.5187 640.844 69.8522Z" fill="white" stroke="#031F88" stroke-width="1.3558"/>
</svg>
