<svg width="28" height="28" viewBox="0 0 28 28" fill="none" xmlns="http://www.w3.org/2000/svg">
<path d="M0 25.0264C0 26.666 1.334 28 2.9736 28H25.0263C26.666 28 28 26.666 28 25.0264V2.9736C28 1.334 26.666 0 25.0264 0H2.9736C1.334 0 0 1.334 0 2.9736V25.0264ZM25.0264 26H2.9736C2.4365 26 2 25.5635 2 25.0264V23.4812L10.9658 16.3076L19.3359 23.7471C19.748 24.1143 20.3798 24.0782 20.747 23.6641C21.1142 23.252 21.0771 22.6192 20.664 22.253L18.3751 20.2184L20.9062 18.3204L26 23.4141V25.0264C26 25.5635 25.5635 26 25.0264 26ZM2.9736 2H25.0263C25.5635 2 26 2.4365 26 2.9736V20.5859L21.707 16.2929C21.3564 15.9394 20.7978 15.9013 20.4004 16.2001L16.8502 18.8628L11.664 14.2529C11.3017 13.9287 10.7568 13.914 10.3749 14.2187L2 20.9188V2.9736C2 2.4365 2.4365 2 2.9736 2Z" fill="#43D14F"/>
<path d="M19 12C21.2061 12 23 10.2061 23 8C23 5.7939 21.2061 4 19 4C16.7939 4 15 5.7939 15 8C15 10.2061 16.7939 12 19 12ZM19 6C20.1025 6 21 6.8975 21 8C21 9.1025 20.1025 10 19 10C17.8975 10 17 9.1025 17 8C17 6.8975 17.8975 6 19 6Z" fill="#43D14F"/>
</svg>
