<svg width="48" height="48" viewBox="0 0 48 48" fill="none" xmlns="http://www.w3.org/2000/svg">
<path d="M39 48H9C4.029 48 0 43.971 0 39V9C0 4.029 4.029 0 9 0H39C43.971 0 48 4.029 48 9V39C48 43.971 43.971 48 39 48Z" fill="#43D14F" fill-opacity="0.2"/>
<path d="M8 17.5627C8 15.5951 9.59506 14 11.5627 14H26.4373C28.4049 14 30 15.5951 30 17.5627V24.9188C30 26.8864 28.4049 28.4815 26.4373 28.4815H16.6428C16.53 28.4815 16.4194 28.5137 16.3242 28.5742L13.4224 30.4197C13.0271 30.6711 12.51 30.3871 12.51 29.9187V29.0753C12.51 28.7473 12.2442 28.4815 11.9162 28.4815H11.5627C9.59506 28.4815 8 26.8864 8 24.9188V17.5627Z" stroke="#031F88"/>
<mask id="mask0" mask-type="alpha" maskUnits="userSpaceOnUse" x="7" y="10" width="23" height="21">
<path d="M7.06619 14.0458C7.07549 12.0848 8.6678 10.5 10.6288 10.5H25.5203C27.4879 10.5 29.083 12.0951 29.083 14.0627V24.4373C29.083 26.4049 27.4879 28 25.5203 28H15.8739C15.7019 28 15.5382 28.0747 15.4255 28.2046L13 31V29.1876C13 28.5317 12.4683 28 11.8124 28H11.5817C9.05481 28 7.00975 25.9452 7.02173 23.4184L7.06619 14.0458Z" fill="#EBEFFF"/>
</mask>
<g mask="url(#mask0)">
<rect x="14.333" y="11.59" width="2.53128" height="8.85948" rx="0.593777" transform="rotate(15 14.333 11.59)" fill="#D9F6DC" stroke="#031F88"/>
<path d="M11.7471 17.9804C11.8598 17.56 12.3705 17.4031 12.7333 17.6435C13.5016 18.1525 14.1919 18.3367 15.1469 18.2794C15.5785 18.2534 15.937 18.6437 15.8251 19.0613L12.9221 29.8956C12.6674 30.8459 11.6907 31.4098 10.7404 31.1552L10.1066 30.9854C9.15633 30.7307 8.59239 29.754 8.84701 28.8037L11.7471 17.9804Z" fill="#43D14F" stroke="#031F88"/>
<line x1="14.4095" y1="12.9214" x2="15.0075" y2="13.9573" stroke="#031F88" stroke-width="0.593777" stroke-linecap="round"/>
<line x1="13.8636" y1="14.9583" x2="14.4616" y2="15.9942" stroke="#031F88" stroke-width="0.593777" stroke-linecap="round"/>
<rect x="11.791" y="22.7018" width="1.68752" height="3.79692" rx="0.593777" transform="rotate(15 11.791 22.7018)" fill="#031F88"/>
<rect width="0.42188" height="7.17196" rx="0.21094" transform="matrix(-0.965926 -0.258819 -0.258819 0.965926 13.2471 21.345)" fill="#031F88"/>
<ellipse cx="11.9508" cy="15.6685" rx="0.44297" ry="0.590627" transform="rotate(15 11.9508 15.6685)" fill="#031F88"/>
<ellipse cx="16.8004" cy="16.9683" rx="0.44297" ry="0.590627" transform="rotate(15 16.8004 16.9683)" fill="#031F88"/>
</g>
<path d="M13.5 14H11.5627C9.59506 14 8 15.5951 8 17.5627V24.9188C8 26.8864 9.59506 28.4815 11.5627 28.4815H11.9162C12.2442 28.4815 12.51 28.7473 12.51 29.0753V29.9187C12.51 30.3871 13.0271 30.6711 13.4224 30.4197L16.3242 28.5742C16.4194 28.5137 16.53 28.4815 16.6428 28.4815H26.4373C28.4049 28.4815 30 26.8864 30 24.9188V17.5627C30 15.5951 28.4049 14 26.4373 14H24.5" stroke="#031F88"/>
<path d="M40.251 24.6874C40.251 22.996 38.8798 21.6248 37.1883 21.6248H23.2197C21.5282 21.6248 20.157 22.996 20.157 24.6874V31.9373C20.157 33.6287 21.5282 34.9999 23.2197 34.9999H32.4519C32.6657 34.9999 32.8748 35.0626 33.0534 35.1802L35.7814 36.9764C35.8437 37.0174 35.9267 36.9727 35.9267 36.898V36.0937C35.9267 35.4896 36.4164 34.9999 37.0205 34.9999H37.1883C38.8798 34.9999 40.251 33.6287 40.251 31.9373V24.6874Z" fill="#D9F6DC" stroke="#031F88"/>
<mask id="mask1" mask-type="alpha" maskUnits="userSpaceOnUse" x="20" y="18" width="21" height="20">
<path d="M26.4588 34.0017L26.4794 34H26.5H32.2031C32.8427 34 33.458 34.2451 33.9224 34.685L36.0367 36.6878C36.0565 36.7065 36.0725 36.7118 36.0849 36.7137C36.0998 36.716 36.1187 36.7143 36.1383 36.7058C36.1579 36.6974 36.1722 36.6849 36.1807 36.6725C36.1878 36.6622 36.195 36.6469 36.195 36.6197V35.6308C36.195 35.0267 36.6847 34.537 37.2888 34.537H37.4373C39.1288 34.537 40.5 33.1658 40.5 31.4744V21.5627C40.5 19.8712 39.1288 18.5 37.4373 18.5H23.5627C21.8712 18.5 20.5 19.8712 20.5 21.5627V31.1679C20.5 32.9588 22.03 34.3676 23.8148 34.2201L26.4588 34.0017Z" fill="#C4C4C4" stroke="#031F88"/>
</mask>
<g mask="url(#mask1)">
<path d="M27.752 25.633L30.2075 24.975L33.2673 36.3941C33.3585 36.7346 33.1564 37.0845 32.816 37.1758L31.5934 37.5033C31.253 37.5946 30.903 37.3925 30.8117 37.052L27.752 25.633Z" fill="#43D14F" stroke="#031F88"/>
<path fill-rule="evenodd" clip-rule="evenodd" d="M25.6659 19.7784C25.6301 19.6448 25.4684 19.5938 25.3684 19.6892C24.2801 20.7276 23.778 22.3126 24.1947 23.8679C24.8023 26.1354 27.133 27.481 29.4006 26.8735C31.6681 26.2659 33.0138 23.9351 32.4062 21.6676C31.9894 20.1123 30.7621 18.9907 29.3005 18.6356C29.1661 18.603 29.0516 18.728 29.0874 18.8616L30.1028 22.6515C30.356 23.5963 29.7953 24.5674 28.8505 24.8206C27.9057 25.0737 26.9346 24.5131 26.6814 23.5683L25.6659 19.7784Z" fill="#D9F6DC" stroke="#031F88"/>
<ellipse cx="25.4417" cy="22.9792" rx="0.371921" ry="0.495895" transform="rotate(-15 25.4417 22.9792)" fill="#031F88"/>
<ellipse cx="30.8821" cy="21.5213" rx="0.371921" ry="0.495895" transform="rotate(-15 30.8821 21.5213)" fill="#031F88"/>
</g>
</svg>
