<svg width="52" height="52" viewBox="0 0 52 52" fill="none" xmlns="http://www.w3.org/2000/svg">
<path d="M42.25 52H9.75C4.36475 52 0 47.6352 0 42.25V9.75C0 4.36475 4.36475 0 9.75 0H42.25C47.6352 0 52 4.36475 52 9.75V42.25C52 47.6352 47.6352 52 42.25 52Z" fill="#43D14F" fill-opacity="0.2"/>
<path d="M10 14C10 12.8954 10.8954 12 12 12H45.1424V33.1258C45.1424 35.3349 43.3516 37.1258 41.1424 37.1258H30.8817C30.5629 37.1258 30.2632 37.2778 30.0748 37.535L26.8257 41.9729C26.4426 42.4961 25.6706 42.522 25.2533 42.0256L21.4442 37.4934C21.2489 37.261 20.9586 37.1299 20.6551 37.137L10 37.3875V14Z" fill="#43D14F" fill-opacity="0.8"/>
<rect x="14" y="19" width="22" height="2" rx="1" fill="#031F88"/>
<rect x="14" y="26" width="16" height="2" rx="1" fill="#031F88"/>
<path d="M7 13C7 10.7909 8.79086 9 11 9H41C43.2091 9 45 10.7909 45 13V33.24C45 35.4491 43.2091 37.24 41 37.24H30.7881C30.1559 37.24 29.5609 37.5389 29.1835 38.0461L25.94 42.4054L22.0542 37.9289C21.6743 37.4913 21.1233 37.24 20.5438 37.24H11C8.79086 37.24 7 35.4491 7 33.24V13Z" stroke="#031F88" stroke-width="2"/>
</svg>
