<svg width="28" height="28" viewBox="0 0 28 28" fill="none" xmlns="http://www.w3.org/2000/svg">
<path fill-rule="evenodd" clip-rule="evenodd" d="M0 14C0 6.26151 6.26257 0 14 0C21.7385 0 28 6.26257 28 14C28 21.7385 21.7374 28 14 28C11.5444 28 9.14606 27.3596 7.03076 26.1434L1.42914 27.9472C1.03479 28.0741 0.607758 27.9669 0.320435 27.6796C0.0303345 27.3895 -0.0730591 26.9614 0.0527649 26.5709L1.8566 20.9692C0.640442 18.8539 0 16.4556 0 14ZM8 16C9.10457 16 10 15.1046 10 14C10 12.8954 9.10457 12 8 12C6.89543 12 6 12.8954 6 14C6 15.1046 6.89543 16 8 16ZM16 14C16 15.1046 15.1046 16 14 16C12.8954 16 12 15.1046 12 14C12 12.8954 12.8954 12 14 12C15.1046 12 16 12.8954 16 14ZM20 16C21.1046 16 22 15.1046 22 14C22 12.8954 21.1046 12 20 12C18.8954 12 18 12.8954 18 14C18 15.1046 18.8954 16 20 16Z" fill="#86969E"/>
</svg>
