<svg width="70" height="80" viewBox="0 0 70 80" fill="none" xmlns="http://www.w3.org/2000/svg">
<path d="M33 1.15504C34.2376 0.440509 35.7624 0.440507 37 1.15504L67.6411 18.8456C68.8787 19.5602 69.6411 20.8807 69.6411 22.3097V57.6909C69.6411 59.12 68.8787 60.4405 67.6411 61.155L37 78.8456C35.7624 79.5602 34.2376 79.5602 33 78.8456L2.35901 61.155C1.12141 60.4405 0.359009 59.12 0.359009 57.6909V22.3097C0.359009 20.8807 1.1214 19.5602 2.35901 18.8456L33 1.15504Z" fill="white"/>
<path d="M33 1.15504C34.2376 0.440509 35.7624 0.440507 37 1.15504L67.6411 18.8456C68.8787 19.5602 69.6411 20.8807 69.6411 22.3097V57.6909C69.6411 59.12 68.8787 60.4405 67.6411 61.155L37 78.8456C35.7624 79.5602 34.2376 79.5602 33 78.8456L2.35901 61.155C1.12141 60.4405 0.359009 59.12 0.359009 57.6909V22.3097C0.359009 20.8807 1.1214 19.5602 2.35901 18.8456L33 1.15504Z" fill="#43D14F" fill-opacity="0.2"/>
<path fill-rule="evenodd" clip-rule="evenodd" d="M65.6411 22.3097L35 4.61914L4.35901 22.3097V57.6909L35 75.3815L65.6411 57.6909V22.3097ZM37 1.15504C35.7624 0.440507 34.2376 0.440509 33 1.15504L2.35901 18.8456C1.1214 19.5602 0.359009 20.8807 0.359009 22.3097V57.6909C0.359009 59.12 1.12141 60.4405 2.35901 61.155L33 78.8456C34.2376 79.5602 35.7624 79.5602 37 78.8456L67.6411 61.155C68.8787 60.4405 69.6411 59.12 69.6411 57.6909V22.3097C69.6411 20.8807 68.8787 19.5602 67.6411 18.8456L37 1.15504Z" fill="white"/>
<path d="M23 33C23 31.8954 23.8954 31 25 31H47C48.1046 31 49 31.8954 49 33V50C49 51.1046 48.1046 52 47 52H25C23.8954 52 23 51.1046 23 50V33Z" fill="#43D14F" fill-opacity="0.8"/>
<rect x="21" y="29.001" width="28" height="22" rx="3" stroke="#031F88" stroke-width="2"/>
<mask id="path-6-inside-1" fill="white">
<path fill-rule="evenodd" clip-rule="evenodd" d="M49.8908 48.7203C49.5509 50.5849 47.9184 51.9984 45.9557 51.9984H23.9557C22.1167 51.9984 20.5676 50.7574 20.1001 49.0672L30.6434 38.5239C33.1427 36.0246 37.195 36.0246 39.6943 38.5239L49.8908 48.7203Z"/>
</mask>
<path d="M49.8908 48.7203L51.8583 49.079L52.0463 48.0475L51.305 47.3061L49.8908 48.7203ZM20.1001 49.0672L18.6859 47.653L17.8618 48.4771L18.1725 49.6004L20.1001 49.0672ZM30.6434 38.5239L29.2292 37.1097L30.6434 38.5239ZM39.6943 38.5239L38.2801 39.9381V39.9381L39.6943 38.5239ZM47.9232 48.3617C47.7535 49.2927 46.9349 49.9984 45.9557 49.9984V53.9984C48.9019 53.9984 51.3483 51.8771 51.8583 49.079L47.9232 48.3617ZM45.9557 49.9984H23.9557V53.9984H45.9557V49.9984ZM23.9557 49.9984C23.0391 49.9984 22.2617 49.3801 22.0277 48.534L18.1725 49.6004C18.8735 52.1348 21.1944 53.9984 23.9557 53.9984V49.9984ZM21.5143 50.4814L32.0576 39.9381L29.2292 37.1097L18.6859 47.653L21.5143 50.4814ZM32.0576 39.9381C33.7759 38.2198 36.5618 38.2198 38.2801 39.9381L41.1086 37.1097C37.8282 33.8293 32.5096 33.8293 29.2292 37.1097L32.0576 39.9381ZM38.2801 39.9381L48.4765 50.1346L51.305 47.3061L41.1086 37.1097L38.2801 39.9381Z" fill="#031F88" mask="url(#path-6-inside-1)"/>
<path d="M27.5 35.5H42.5L36.5 42.25H33.5L27.5 35.5Z" fill="#64D56D"/>
<mask id="path-9-inside-2" fill="white">
<path fill-rule="evenodd" clip-rule="evenodd" d="M49.5522 30.16L37.2623 42.4498C36.0127 43.6995 33.9865 43.6995 32.7369 42.4498L20.447 30.16C21.113 28.8767 22.4539 28 23.9996 28H45.9996C47.5453 28 48.8862 28.8767 49.5522 30.16Z"/>
</mask>
<path d="M49.5522 30.16L50.9664 31.5742L52.002 30.5386L51.3274 29.2386L49.5522 30.16ZM37.2623 42.4498L35.8481 41.0356H35.8481L37.2623 42.4498ZM32.7369 42.4498L31.3227 43.864L32.7369 42.4498ZM20.447 30.16L18.6719 29.2386L17.9972 30.5386L19.0328 31.5742L20.447 30.16ZM48.138 28.7457L35.8481 41.0356L38.6766 43.864L50.9664 31.5742L48.138 28.7457ZM35.8481 41.0356C35.3795 41.5042 34.6197 41.5042 34.1511 41.0356L31.3227 43.864C33.3534 45.8947 36.6458 45.8947 38.6766 43.864L35.8481 41.0356ZM34.1511 41.0356L21.8612 28.7457L19.0328 31.5742L31.3227 43.864L34.1511 41.0356ZM22.2222 31.0813C22.5578 30.4346 23.2296 30 23.9996 30V26C21.6783 26 19.6683 27.3188 18.6719 29.2386L22.2222 31.0813ZM23.9996 30H45.9996V26H23.9996V30ZM45.9996 30C46.7696 30 47.4414 30.4346 47.777 31.0813L51.3274 29.2386C50.3309 27.3188 48.3209 26 45.9996 26V30Z" fill="#031F88" mask="url(#path-9-inside-2)"/>
</svg>
