<svg width="47" height="47" viewBox="0 0 47 47" fill="none" xmlns="http://www.w3.org/2000/svg">
<path d="M23.5 1C11.0914 1 1 11.0914 1 23.5C1 35.9086 11.0914 46 23.5 46C35.9086 46 46 35.9086 46 23.5C46 11.0914 35.9086 1 23.5 1ZM23.5 4C34.2873 4 43.0117 12.7127 43.0117 23.5C43.0117 34.2873 34.2873 43.0117 23.5 43.0117C12.7127 43.0117 4 34.2873 4 23.5C4 12.7127 12.7127 4 23.5 4ZM23.4795 11.5088C23.0832 11.5158 22.7058 11.6793 22.4297 11.9636C22.1536 12.248 22.0012 12.63 22.0059 13.0264V14.2891C19.5839 14.7434 17.5117 16.303 17.5117 19.0059C17.5117 20.8809 18.357 22.3973 19.4922 23.2803C20.6274 24.1632 21.9092 24.5547 23.0342 24.9297C24.1592 25.3047 25.1303 25.6632 25.6826 26.0928C26.2349 26.5223 26.5 26.8838 26.5 28.0088C26.5 30.5088 20.5117 30.5088 20.5117 28.0088C20.5162 27.809 20.4806 27.6103 20.4072 27.4245C20.3338 27.2386 20.2241 27.0693 20.0843 26.9264C19.9446 26.7836 19.7778 26.6701 19.5936 26.5926C19.4094 26.5151 19.2115 26.4751 19.0117 26.4751C18.8119 26.4751 18.6141 26.5151 18.4299 26.5926C18.2457 26.6701 18.0788 26.7836 17.9391 26.9264C17.7994 27.0693 17.6896 27.2386 17.6162 27.4245C17.5428 27.6103 17.5073 27.809 17.5117 28.0088C17.5117 30.7095 19.5857 32.2721 22.0059 32.7285V33.9854C22.0014 34.1851 22.0369 34.3838 22.1103 34.5697C22.1837 34.7555 22.2935 34.9249 22.4332 35.0677C22.573 35.2106 22.7398 35.3241 22.924 35.4016C23.1082 35.4791 23.306 35.519 23.5059 35.519C23.7057 35.519 23.9035 35.4791 24.0877 35.4016C24.2719 35.3241 24.4388 35.2106 24.5785 35.0677C24.7182 34.9249 24.828 34.7555 24.9014 34.5697C24.9748 34.3838 25.0103 34.1851 25.0059 33.9854V32.7285C27.4264 32.2723 29.5029 30.7099 29.5029 28.0088C29.5029 26.1338 28.6547 24.6173 27.5195 23.7344C26.3843 22.8514 25.1025 22.457 23.9775 22.082C22.8525 21.707 21.8814 21.3514 21.3291 20.9219C20.7768 20.4923 20.5117 20.1309 20.5117 19.0059C20.5117 16.5059 26.5 16.5059 26.5 19.0059C26.5 19.4041 26.6582 19.786 26.9398 20.0676C27.2213 20.3491 27.6033 20.5073 28.0015 20.5073C28.3997 20.5073 28.7816 20.3491 29.0632 20.0676C29.3447 19.786 29.5029 19.4041 29.5029 19.0059C29.5029 16.3071 27.4257 14.749 25.0059 14.292V13.0264C25.0082 12.8257 24.9703 12.6266 24.8943 12.4408C24.8183 12.255 24.7058 12.0864 24.5635 11.9449C24.4212 11.8034 24.2519 11.6919 24.0657 11.617C23.8795 11.5421 23.6802 11.5053 23.4795 11.5088Z" fill="#FC2133" stroke="#FC2133" stroke-width="0.5"/>
</svg>
