<svg width="306" height="244" viewBox="0 0 306 244" fill="none" xmlns="http://www.w3.org/2000/svg">
<circle cx="216" cy="112" r="85" fill="#F2C94C"/>
<circle cx="216" cy="112" r="89" stroke="#F2C94C" stroke-width="2"/>
<path d="M193.81 108.61H182.4V105.53L194.02 89.5H197.17V105.53H200.11V108.61H197.17V114H193.81V108.61ZM193.81 105.53V94.785L185.97 105.53H193.81ZM211.728 114.35C210.118 114.35 208.659 114.012 207.353 113.335C206.046 112.658 204.996 111.713 204.203 110.5C203.433 109.287 203.001 107.898 202.908 106.335H206.268C206.431 107.712 206.979 108.878 207.913 109.835C208.846 110.792 210.118 111.27 211.728 111.27C213.454 111.27 214.819 110.745 215.823 109.695C216.849 108.645 217.363 107.187 217.363 105.32C217.363 103.477 216.849 102.053 215.823 101.05C214.819 100.023 213.548 99.51 212.008 99.51C210.631 99.51 209.476 99.7083 208.543 100.105C207.633 100.478 206.781 100.945 205.988 101.505L203.573 100.35L205.113 89.5H218.903V92.58H207.668L206.653 98.425C207.399 97.9117 208.286 97.4917 209.313 97.165C210.339 96.8383 211.389 96.675 212.463 96.675C215.006 96.675 217.024 97.445 218.518 98.985C220.034 100.502 220.793 102.578 220.793 105.215C220.793 106.848 220.431 108.365 219.708 109.765C218.984 111.142 217.934 112.25 216.558 113.09C215.181 113.93 213.571 114.35 211.728 114.35ZM229.878 101.19C228.712 101.19 227.673 100.933 226.763 100.42C225.877 99.9067 225.177 99.195 224.663 98.285C224.173 97.3517 223.928 96.3133 223.928 95.17C223.928 94.0267 224.173 93 224.663 92.09C225.177 91.1567 225.877 90.4333 226.763 89.92C227.673 89.4067 228.712 89.15 229.878 89.15C231.045 89.15 232.072 89.4067 232.958 89.92C233.868 90.4333 234.568 91.1567 235.058 92.09C235.572 93 235.828 94.0267 235.828 95.17C235.828 96.3133 235.572 97.3517 235.058 98.285C234.568 99.195 233.868 99.9067 232.958 100.42C232.072 100.933 231.045 101.19 229.878 101.19ZM226.728 112.075L245.173 89.78L247.168 91.425L228.723 113.72L226.728 112.075ZM229.878 98.81C230.882 98.81 231.698 98.495 232.328 97.865C232.982 97.2117 233.308 96.3133 233.308 95.17C233.308 94.0267 232.982 93.14 232.328 92.51C231.698 91.8567 230.882 91.53 229.878 91.53C228.875 91.53 228.047 91.8567 227.393 92.51C226.763 93.14 226.448 94.0267 226.448 95.17C226.448 96.3133 226.763 97.2117 227.393 97.865C228.047 98.495 228.875 98.81 229.878 98.81ZM244.018 114.35C242.852 114.35 241.813 114.093 240.903 113.58C240.017 113.067 239.317 112.355 238.803 111.445C238.313 110.512 238.068 109.473 238.068 108.33C238.068 107.187 238.313 106.16 238.803 105.25C239.317 104.317 240.017 103.593 240.903 103.08C241.813 102.567 242.852 102.31 244.018 102.31C245.185 102.31 246.212 102.567 247.098 103.08C248.008 103.593 248.708 104.317 249.198 105.25C249.712 106.16 249.968 107.187 249.968 108.33C249.968 109.473 249.712 110.512 249.198 111.445C248.708 112.355 248.008 113.067 247.098 113.58C246.212 114.093 245.185 114.35 244.018 114.35ZM244.018 111.97C245.022 111.97 245.838 111.655 246.468 111.025C247.122 110.372 247.448 109.473 247.448 108.33C247.448 107.187 247.122 106.3 246.468 105.67C245.838 105.017 245.022 104.69 244.018 104.69C243.015 104.69 242.187 105.017 241.533 105.67C240.903 106.3 240.588 107.187 240.588 108.33C240.588 109.473 240.903 110.372 241.533 111.025C242.187 111.655 243.015 111.97 244.018 111.97Z" fill="white"/>
<path d="M202.996 128.432H200.504V127.2H206.832V128.432H204.34V137H202.996V128.432ZM208.882 128.936C208.648 128.936 208.448 128.857 208.28 128.698C208.121 128.53 208.042 128.329 208.042 128.096C208.042 127.863 208.121 127.667 208.28 127.508C208.448 127.34 208.648 127.256 208.882 127.256C209.115 127.256 209.311 127.34 209.47 127.508C209.638 127.667 209.722 127.863 209.722 128.096C209.722 128.329 209.638 128.53 209.47 128.698C209.311 128.857 209.115 128.936 208.882 128.936ZM208.266 130H209.498V137H208.266V130ZM211.342 126.78H212.574V137H211.342V126.78ZM215.034 128.936C214.801 128.936 214.6 128.857 214.432 128.698C214.273 128.53 214.194 128.329 214.194 128.096C214.194 127.863 214.273 127.667 214.432 127.508C214.6 127.34 214.801 127.256 215.034 127.256C215.267 127.256 215.463 127.34 215.622 127.508C215.79 127.667 215.874 127.863 215.874 128.096C215.874 128.329 215.79 128.53 215.622 128.698C215.463 128.857 215.267 128.936 215.034 128.936ZM214.418 130H215.65V137H214.418V130ZM217.494 130H218.726V130.91C218.997 130.621 219.352 130.373 219.79 130.168C220.229 129.963 220.691 129.86 221.176 129.86C221.914 129.86 222.483 130.065 222.884 130.476C223.286 130.887 223.486 131.451 223.486 132.17V137H222.254V132.394C222.254 131.927 222.128 131.573 221.876 131.33C221.634 131.078 221.284 130.952 220.826 130.952C220.425 130.952 220.042 131.073 219.678 131.316C219.324 131.559 219.006 131.885 218.726 132.296V137H217.494V130ZM228.354 139.94C227.476 139.94 226.786 139.744 226.282 139.352C225.778 138.96 225.484 138.433 225.4 137.77H226.744C226.902 138.47 227.425 138.82 228.312 138.82C229.04 138.82 229.558 138.638 229.866 138.274C230.183 137.919 230.342 137.457 230.342 136.888V136.076C230.024 136.393 229.688 136.627 229.334 136.776C228.988 136.925 228.573 137 228.088 137C227.472 137 226.921 136.86 226.436 136.58C225.96 136.291 225.586 135.875 225.316 135.334C225.045 134.793 224.91 134.158 224.91 133.43C224.91 132.711 225.054 132.081 225.344 131.54C225.633 130.999 226.02 130.583 226.506 130.294C227 130.005 227.537 129.86 228.116 129.86C228.61 129.86 229.044 129.949 229.418 130.126C229.791 130.303 230.099 130.518 230.342 130.77V130H231.574V136.958C231.574 137.863 231.289 138.587 230.72 139.128C230.16 139.669 229.371 139.94 228.354 139.94ZM228.312 135.88C228.918 135.88 229.408 135.693 229.782 135.32C230.155 134.937 230.342 134.461 230.342 133.892V132.996C230.342 132.613 230.248 132.268 230.062 131.96C229.884 131.652 229.637 131.414 229.32 131.246C229.012 131.069 228.676 130.98 228.312 130.98C227.677 130.98 227.154 131.181 226.744 131.582C226.342 131.983 226.142 132.599 226.142 133.43C226.142 134.261 226.342 134.877 226.744 135.278C227.154 135.679 227.677 135.88 228.312 135.88Z" fill="white"/>
<circle cx="105" cy="57" r="53" fill="#3962FA"/>
<path d="M82.966 55.114L89.613 49.134C90.2877 48.5207 90.7937 47.9457 91.131 47.409C91.4683 46.857 91.637 46.2053 91.637 45.454C91.637 44.5953 91.3533 43.9207 90.786 43.43C90.234 42.9393 89.5287 42.694 88.67 42.694C87.6733 42.694 86.8607 42.9777 86.232 43.545C85.6187 44.1123 85.289 44.8943 85.243 45.891H83.127C83.173 44.8943 83.4413 43.9973 83.932 43.2C84.4227 42.4027 85.0743 41.7817 85.887 41.337C86.6997 40.8923 87.6197 40.67 88.647 40.67C89.613 40.67 90.4793 40.8617 91.246 41.245C92.028 41.6283 92.6413 42.1727 93.086 42.878C93.5307 43.5833 93.753 44.4037 93.753 45.339C93.753 46.3357 93.523 47.2327 93.063 48.03C92.6183 48.812 91.9513 49.594 91.062 50.376L85.841 54.976H94.075V57H82.966V55.114ZM101.99 57.23C100.932 57.23 99.9741 57.0077 99.1154 56.563C98.2567 56.1183 97.5667 55.4973 97.0454 54.7C96.5394 53.9027 96.2557 52.9903 96.1944 51.963H98.4024C98.5097 52.8677 98.8701 53.6343 99.4834 54.263C100.097 54.8917 100.932 55.206 101.99 55.206C103.125 55.206 104.022 54.861 104.681 54.171C105.356 53.481 105.693 52.5227 105.693 51.296C105.693 50.0847 105.356 49.1493 104.681 48.49C104.022 47.8153 103.186 47.478 102.174 47.478C101.27 47.478 100.511 47.6083 99.8974 47.869C99.2994 48.1143 98.7397 48.421 98.2184 48.789L96.6314 48.03L97.6434 40.9H106.705V42.924H99.3224L98.6554 46.765C99.1461 46.4277 99.7287 46.1517 100.403 45.937C101.078 45.7223 101.768 45.615 102.473 45.615C104.145 45.615 105.471 46.121 106.452 47.133C107.449 48.1297 107.947 49.4943 107.947 51.227C107.947 52.3003 107.71 53.297 107.234 54.217C106.759 55.1217 106.069 55.85 105.164 56.402C104.26 56.954 103.202 57.23 101.99 57.23ZM113.918 48.582C113.151 48.582 112.469 48.4133 111.871 48.076C111.288 47.7387 110.828 47.271 110.491 46.673C110.169 46.0597 110.008 45.3773 110.008 44.626C110.008 43.8747 110.169 43.2 110.491 42.602C110.828 41.9887 111.288 41.5133 111.871 41.176C112.469 40.8387 113.151 40.67 113.918 40.67C114.685 40.67 115.359 40.8387 115.942 41.176C116.54 41.5133 117 41.9887 117.322 42.602C117.659 43.2 117.828 43.8747 117.828 44.626C117.828 45.3773 117.659 46.0597 117.322 46.673C117 47.271 116.54 47.7387 115.942 48.076C115.359 48.4133 114.685 48.582 113.918 48.582ZM111.848 55.735L123.969 41.084L125.28 42.165L113.159 56.816L111.848 55.735ZM113.918 47.018C114.577 47.018 115.114 46.811 115.528 46.397C115.957 45.9677 116.172 45.3773 116.172 44.626C116.172 43.8747 115.957 43.292 115.528 42.878C115.114 42.4487 114.577 42.234 113.918 42.234C113.259 42.234 112.714 42.4487 112.285 42.878C111.871 43.292 111.664 43.8747 111.664 44.626C111.664 45.3773 111.871 45.9677 112.285 46.397C112.714 46.811 113.259 47.018 113.918 47.018ZM123.21 57.23C122.443 57.23 121.761 57.0613 121.163 56.724C120.58 56.3867 120.12 55.919 119.783 55.321C119.461 54.7077 119.3 54.0253 119.3 53.274C119.3 52.5227 119.461 51.848 119.783 51.25C120.12 50.6367 120.58 50.1613 121.163 49.824C121.761 49.4867 122.443 49.318 123.21 49.318C123.977 49.318 124.651 49.4867 125.234 49.824C125.832 50.1613 126.292 50.6367 126.614 51.25C126.951 51.848 127.12 52.5227 127.12 53.274C127.12 54.0253 126.951 54.7077 126.614 55.321C126.292 55.919 125.832 56.3867 125.234 56.724C124.651 57.0613 123.977 57.23 123.21 57.23ZM123.21 55.666C123.869 55.666 124.406 55.459 124.82 55.045C125.249 54.6157 125.464 54.0253 125.464 53.274C125.464 52.5227 125.249 51.94 124.82 51.526C124.406 51.0967 123.869 50.882 123.21 50.882C122.551 50.882 122.006 51.0967 121.577 51.526C121.163 51.94 120.956 52.5227 120.956 53.274C120.956 54.0253 121.163 54.6157 121.577 55.045C122.006 55.459 122.551 55.666 123.21 55.666Z" fill="white"/>
<path d="M70.98 67.2H74.074C74.8113 67.2 75.4507 67.3307 75.992 67.592C76.5333 67.8533 76.9487 68.222 77.238 68.698C77.5273 69.174 77.672 69.7247 77.672 70.35C77.672 70.9753 77.5227 71.512 77.224 71.96C76.9347 72.408 76.5007 72.7953 75.922 73.122L78.176 77H76.636L74.606 73.444H72.324V77H70.98V67.2ZM74.298 72.212C74.9327 72.212 75.4273 72.044 75.782 71.708C76.146 71.3627 76.328 70.9007 76.328 70.322C76.328 69.734 76.1507 69.272 75.796 68.936C75.4507 68.6 74.9513 68.432 74.298 68.432H72.324V72.212H74.298ZM82.2065 77.14C81.5065 77.14 80.8998 76.9907 80.3865 76.692C79.8731 76.384 79.4765 75.9593 79.1965 75.418C78.9258 74.8673 78.7905 74.228 78.7905 73.5C78.7905 72.7907 78.9445 72.1607 79.2525 71.61C79.5605 71.0593 79.9758 70.63 80.4985 70.322C81.0211 70.014 81.5905 69.86 82.2065 69.86C82.8318 69.86 83.3918 70.0047 83.8865 70.294C84.3905 70.574 84.7825 70.98 85.0625 71.512C85.3518 72.044 85.4965 72.6787 85.4965 73.416V73.892H80.0365C80.0551 74.5547 80.2605 75.0773 80.6525 75.46C81.0538 75.8333 81.5765 76.02 82.2205 76.02C82.7525 76.02 83.1958 75.894 83.5505 75.642C83.9051 75.3807 84.1478 75.0353 84.2785 74.606H85.4265C85.2305 75.3993 84.8571 76.02 84.3065 76.468C83.7558 76.916 83.0558 77.14 82.2065 77.14ZM84.3345 72.828C84.2878 72.24 84.0638 71.7873 83.6625 71.47C83.2705 71.1433 82.7851 70.98 82.2065 70.98C81.6465 70.98 81.1705 71.1433 80.7785 71.47C80.3865 71.7967 80.1438 72.2493 80.0505 72.828H84.3345ZM86.8927 70H88.1248V70.91C88.3954 70.6207 88.7501 70.3733 89.1888 70.168C89.6274 69.9627 90.0894 69.86 90.5748 69.86C91.3121 69.86 91.8814 70.0653 92.2828 70.476C92.6841 70.8867 92.8848 71.4513 92.8848 72.17V77H91.6528V72.394C91.6528 71.9273 91.5268 71.5727 91.2748 71.33C91.0321 71.078 90.6821 70.952 90.2248 70.952C89.8234 70.952 89.4408 71.0733 89.0768 71.316C88.7221 71.5587 88.4048 71.8853 88.1248 72.296V77H86.8927V70ZM97.906 77.14C97.206 77.14 96.5807 76.986 96.03 76.678C95.4887 76.3607 95.064 75.9267 94.756 75.376C94.4574 74.816 94.308 74.1907 94.308 73.5C94.308 72.8093 94.4574 72.1887 94.756 71.638C95.064 71.078 95.4887 70.644 96.03 70.336C96.5807 70.0187 97.206 69.86 97.906 69.86C98.606 69.86 99.2267 70.0187 99.768 70.336C100.319 70.644 100.743 71.078 101.042 71.638C101.35 72.1887 101.504 72.8093 101.504 73.5C101.504 74.1907 101.35 74.816 101.042 75.376C100.743 75.9267 100.319 76.3607 99.768 76.678C99.2267 76.986 98.606 77.14 97.906 77.14ZM97.906 76.02C98.5967 76.02 99.1614 75.8007 99.6 75.362C100.048 74.9233 100.272 74.3027 100.272 73.5C100.272 72.6973 100.048 72.0767 99.6 71.638C99.1614 71.1993 98.5967 70.98 97.906 70.98C97.2154 70.98 96.646 71.1993 96.198 71.638C95.7594 72.0767 95.54 72.6973 95.54 73.5C95.54 74.3027 95.7594 74.9233 96.198 75.362C96.646 75.8007 97.2154 76.02 97.906 76.02ZM102.027 70H103.329L105.135 74.746L105.401 75.908L105.667 74.746L107.473 70H108.775L106.059 77H104.743L102.027 70ZM111.437 77.14C110.774 77.14 110.238 76.958 109.827 76.594C109.416 76.2207 109.211 75.726 109.211 75.11C109.211 74.4567 109.435 73.9433 109.883 73.57C110.331 73.1967 110.896 72.9773 111.577 72.912L113.761 72.688V72.212C113.761 71.8107 113.616 71.5073 113.327 71.302C113.047 71.0873 112.674 70.98 112.207 70.98C111.815 70.98 111.484 71.0733 111.213 71.26C110.952 71.4467 110.774 71.7313 110.681 72.114H109.519C109.622 71.3767 109.934 70.8167 110.457 70.434C110.989 70.0513 111.6 69.86 112.291 69.86C113.112 69.86 113.766 70.0653 114.251 70.476C114.746 70.8773 114.993 71.4093 114.993 72.072V75.348C114.993 75.5813 115.044 75.7633 115.147 75.894C115.25 76.0153 115.404 76.076 115.609 76.076C115.73 76.076 115.852 76.0573 115.973 76.02V76.944C115.693 77.0373 115.432 77.084 115.189 77.084C114.433 77.084 113.971 76.72 113.803 75.992C113.532 76.3 113.182 76.5707 112.753 76.804C112.324 77.028 111.885 77.14 111.437 77.14ZM111.577 76.02C112.305 76.02 113.033 75.656 113.761 74.928V73.668L111.661 73.906C111.269 73.9527 110.966 74.0833 110.751 74.298C110.546 74.5033 110.443 74.7553 110.443 75.054C110.443 75.3713 110.546 75.614 110.751 75.782C110.966 75.9407 111.241 76.02 111.577 76.02ZM119.299 77.14C118.758 77.14 118.333 76.9907 118.025 76.692C117.727 76.384 117.577 75.9453 117.577 75.376V71.12H116.191V70H117.577V67.9L118.809 68.348V70H120.489V71.12H118.809V75.292C118.809 75.5347 118.879 75.7213 119.019 75.852C119.169 75.9827 119.388 76.048 119.677 76.048C119.855 76.048 120.009 76.0387 120.139 76.02C120.279 75.992 120.373 75.9733 120.419 75.964V77C120.055 77.0933 119.682 77.14 119.299 77.14ZM122.536 68.936C122.303 68.936 122.102 68.8567 121.934 68.698C121.775 68.53 121.696 68.3293 121.696 68.096C121.696 67.8627 121.775 67.6667 121.934 67.508C122.102 67.34 122.303 67.256 122.536 67.256C122.769 67.256 122.965 67.34 123.124 67.508C123.292 67.6667 123.376 67.8627 123.376 68.096C123.376 68.3293 123.292 68.53 123.124 68.698C122.965 68.8567 122.769 68.936 122.536 68.936ZM121.92 70H123.152V77H121.92V70ZM128.23 77.14C127.53 77.14 126.905 76.986 126.354 76.678C125.813 76.3607 125.388 75.9267 125.08 75.376C124.782 74.816 124.632 74.1907 124.632 73.5C124.632 72.8093 124.782 72.1887 125.08 71.638C125.388 71.078 125.813 70.644 126.354 70.336C126.905 70.0187 127.53 69.86 128.23 69.86C128.93 69.86 129.551 70.0187 130.092 70.336C130.643 70.644 131.068 71.078 131.366 71.638C131.674 72.1887 131.828 72.8093 131.828 73.5C131.828 74.1907 131.674 74.816 131.366 75.376C131.068 75.9267 130.643 76.3607 130.092 76.678C129.551 76.986 128.93 77.14 128.23 77.14ZM128.23 76.02C128.921 76.02 129.486 75.8007 129.924 75.362C130.372 74.9233 130.596 74.3027 130.596 73.5C130.596 72.6973 130.372 72.0767 129.924 71.638C129.486 71.1993 128.921 70.98 128.23 70.98C127.54 70.98 126.97 71.1993 126.522 71.638C126.084 72.0767 125.864 72.6973 125.864 73.5C125.864 74.3027 126.084 74.9233 126.522 75.362C126.97 75.8007 127.54 76.02 128.23 76.02ZM133.309 70H134.541V70.91C134.811 70.6207 135.166 70.3733 135.605 70.168C136.043 69.9627 136.505 69.86 136.991 69.86C137.728 69.86 138.297 70.0653 138.699 70.476C139.1 70.8867 139.301 71.4513 139.301 72.17V77H138.069V72.394C138.069 71.9273 137.943 71.5727 137.691 71.33C137.448 71.078 137.098 70.952 136.641 70.952C136.239 70.952 135.857 71.0733 135.493 71.316C135.138 71.5587 134.821 71.8853 134.541 72.296V77H133.309V70Z" fill="white"/>
<path d="M55.8994 83.929C60.658 92.6055 67.6308 99.866 76.1078 104.971C84.5848 110.077 94.2632 112.845 104.158 112.994C114.052 113.142 123.81 110.667 132.436 105.818C141.063 100.97 148.251 93.9223 153.268 85.3928C158.285 76.8633 160.953 67.1567 160.999 57.2611C161.045 47.3655 158.468 37.6343 153.531 29.0585C148.593 20.4826 141.471 13.3682 132.89 8.43965C124.309 3.51111 114.575 0.944422 104.68 1.00091" stroke="#3962FA"/>
<circle cx="65.5" cy="178.5" r="61.5" fill="#20AEF7"/>
<circle cx="65.5" cy="178.5" r="65" stroke="#20AEF7"/>
<path d="M46.67 176.26C45.318 176.26 44.1393 175.965 43.134 175.376C42.146 174.787 41.3747 174.007 40.82 173.036C40.2653 172.048 39.9533 170.965 39.884 169.786H42.224C42.3107 171.034 42.7353 172.048 43.498 172.828C44.278 173.591 45.318 173.972 46.618 173.972C47.866 173.972 48.8453 173.599 49.556 172.854C50.284 172.091 50.648 171.043 50.648 169.708C50.648 168.408 50.2147 167.411 49.348 166.718C48.4813 166.007 47.4153 165.652 46.15 165.652H45.578V163.39L49.218 160.088H40.69V157.8H52.338V160.166L48.204 163.728C49.6253 164.075 50.8127 164.742 51.766 165.73C52.7193 166.701 53.196 168.027 53.196 169.708C53.196 170.921 52.91 172.031 52.338 173.036C51.766 174.041 50.9773 174.83 49.972 175.402C48.984 175.974 47.8833 176.26 46.67 176.26ZM62.0803 176.26C60.8843 176.26 59.8009 176.009 58.8303 175.506C57.8596 175.003 57.0796 174.301 56.4903 173.4C55.9183 172.499 55.5976 171.467 55.5283 170.306H58.0243C58.1456 171.329 58.5529 172.195 59.2463 172.906C59.9396 173.617 60.8843 173.972 62.0803 173.972C63.3629 173.972 64.3769 173.582 65.1223 172.802C65.8849 172.022 66.2663 170.939 66.2663 169.552C66.2663 168.183 65.8849 167.125 65.1223 166.38C64.3769 165.617 63.4323 165.236 62.2883 165.236C61.2656 165.236 60.4076 165.383 59.7143 165.678C59.0383 165.955 58.4056 166.302 57.8163 166.718L56.0223 165.86L57.1663 157.8H67.4103V160.088H59.0643L58.3103 164.43C58.8649 164.049 59.5236 163.737 60.2863 163.494C61.0489 163.251 61.8289 163.13 62.6263 163.13C64.5156 163.13 66.0149 163.702 67.1243 164.846C68.2509 165.973 68.8143 167.515 68.8143 169.474C68.8143 170.687 68.5456 171.814 68.0083 172.854C67.4709 173.877 66.6909 174.7 65.6683 175.324C64.6456 175.948 63.4496 176.26 62.0803 176.26ZM75.5635 166.484C74.6968 166.484 73.9255 166.293 73.2495 165.912C72.5908 165.531 72.0708 165.002 71.6895 164.326C71.3255 163.633 71.1435 162.861 71.1435 162.012C71.1435 161.163 71.3255 160.4 71.6895 159.724C72.0708 159.031 72.5908 158.493 73.2495 158.112C73.9255 157.731 74.6968 157.54 75.5635 157.54C76.4302 157.54 77.1928 157.731 77.8515 158.112C78.5275 158.493 79.0475 159.031 79.4115 159.724C79.7928 160.4 79.9835 161.163 79.9835 162.012C79.9835 162.861 79.7928 163.633 79.4115 164.326C79.0475 165.002 78.5275 165.531 77.8515 165.912C77.1928 166.293 76.4302 166.484 75.5635 166.484ZM73.2235 174.57L86.9255 158.008L88.4075 159.23L74.7055 175.792L73.2235 174.57ZM75.5635 164.716C76.3088 164.716 76.9155 164.482 77.3835 164.014C77.8688 163.529 78.1115 162.861 78.1115 162.012C78.1115 161.163 77.8688 160.504 77.3835 160.036C76.9155 159.551 76.3088 159.308 75.5635 159.308C74.8182 159.308 74.2028 159.551 73.7175 160.036C73.2495 160.504 73.0155 161.163 73.0155 162.012C73.0155 162.861 73.2495 163.529 73.7175 164.014C74.2028 164.482 74.8182 164.716 75.5635 164.716ZM86.0675 176.26C85.2008 176.26 84.4295 176.069 83.7535 175.688C83.0948 175.307 82.5748 174.778 82.1935 174.102C81.8295 173.409 81.6475 172.637 81.6475 171.788C81.6475 170.939 81.8295 170.176 82.1935 169.5C82.5748 168.807 83.0948 168.269 83.7535 167.888C84.4295 167.507 85.2008 167.316 86.0675 167.316C86.9342 167.316 87.6968 167.507 88.3555 167.888C89.0315 168.269 89.5515 168.807 89.9155 169.5C90.2968 170.176 90.4875 170.939 90.4875 171.788C90.4875 172.637 90.2968 173.409 89.9155 174.102C89.5515 174.778 89.0315 175.307 88.3555 175.688C87.6968 176.069 86.9342 176.26 86.0675 176.26ZM86.0675 174.492C86.8128 174.492 87.4195 174.258 87.8875 173.79C88.3728 173.305 88.6155 172.637 88.6155 171.788C88.6155 170.939 88.3728 170.28 87.8875 169.812C87.4195 169.327 86.8128 169.084 86.0675 169.084C85.3222 169.084 84.7069 169.327 84.2215 169.812C83.7535 170.28 83.5195 170.939 83.5195 171.788C83.5195 172.637 83.7535 173.305 84.2215 173.79C84.7069 174.258 85.3222 174.492 86.0675 174.492Z" fill="white"/>
<path d="M16.3105 187.432H13.8185V186.2H20.1465V187.432H17.6545V196H16.3105V187.432ZM23.7478 196.14C23.0478 196.14 22.4225 195.986 21.8718 195.678C21.3305 195.361 20.9058 194.927 20.5978 194.376C20.2992 193.816 20.1498 193.191 20.1498 192.5C20.1498 191.809 20.2992 191.189 20.5978 190.638C20.9058 190.078 21.3305 189.644 21.8718 189.336C22.4225 189.019 23.0478 188.86 23.7478 188.86C24.4478 188.86 25.0685 189.019 25.6098 189.336C26.1605 189.644 26.5852 190.078 26.8838 190.638C27.1918 191.189 27.3458 191.809 27.3458 192.5C27.3458 193.191 27.1918 193.816 26.8838 194.376C26.5852 194.927 26.1605 195.361 25.6098 195.678C25.0685 195.986 24.4478 196.14 23.7478 196.14ZM23.7478 195.02C24.4385 195.02 25.0032 194.801 25.4418 194.362C25.8898 193.923 26.1138 193.303 26.1138 192.5C26.1138 191.697 25.8898 191.077 25.4418 190.638C25.0032 190.199 24.4385 189.98 23.7478 189.98C23.0572 189.98 22.4878 190.199 22.0398 190.638C21.6012 191.077 21.3818 191.697 21.3818 192.5C21.3818 193.303 21.6012 193.923 22.0398 194.362C22.4878 194.801 23.0572 195.02 23.7478 195.02ZM29.4423 187.936C29.209 187.936 29.0083 187.857 28.8403 187.698C28.6817 187.53 28.6023 187.329 28.6023 187.096C28.6023 186.863 28.6817 186.667 28.8403 186.508C29.0083 186.34 29.209 186.256 29.4423 186.256C29.6757 186.256 29.8717 186.34 30.0303 186.508C30.1983 186.667 30.2823 186.863 30.2823 187.096C30.2823 187.329 30.1983 187.53 30.0303 187.698C29.8717 187.857 29.6757 187.936 29.4423 187.936ZM28.8263 189H30.0583V196H28.8263V189ZM31.9025 185.78H33.1345V196H31.9025V185.78ZM38.0307 196.14C37.3307 196.14 36.724 195.991 36.2107 195.692C35.6974 195.384 35.3007 194.959 35.0207 194.418C34.75 193.867 34.6147 193.228 34.6147 192.5C34.6147 191.791 34.7687 191.161 35.0767 190.61C35.3847 190.059 35.8 189.63 36.3227 189.322C36.8454 189.014 37.4147 188.86 38.0307 188.86C38.656 188.86 39.216 189.005 39.7107 189.294C40.2147 189.574 40.6067 189.98 40.8867 190.512C41.176 191.044 41.3207 191.679 41.3207 192.416V192.892H35.8607C35.8794 193.555 36.0847 194.077 36.4767 194.46C36.878 194.833 37.4007 195.02 38.0447 195.02C38.5767 195.02 39.02 194.894 39.3747 194.642C39.7294 194.381 39.972 194.035 40.1027 193.606H41.2507C41.0547 194.399 40.6814 195.02 40.1307 195.468C39.58 195.916 38.88 196.14 38.0307 196.14ZM40.1587 191.828C40.112 191.24 39.888 190.787 39.4867 190.47C39.0947 190.143 38.6094 189.98 38.0307 189.98C37.4707 189.98 36.9947 190.143 36.6027 190.47C36.2107 190.797 35.968 191.249 35.8747 191.828H40.1587ZM45.0729 196.14C44.5316 196.14 44.1069 195.991 43.7989 195.692C43.5002 195.384 43.3509 194.945 43.3509 194.376V190.12H41.9649V189H43.3509V186.9L44.5829 187.348V189H46.2629V190.12H44.5829V194.292C44.5829 194.535 44.6529 194.721 44.7929 194.852C44.9422 194.983 45.1616 195.048 45.4509 195.048C45.6282 195.048 45.7822 195.039 45.9129 195.02C46.0529 194.992 46.1462 194.973 46.1929 194.964V196C45.8289 196.093 45.4556 196.14 45.0729 196.14ZM50.689 186.2H52.033V196H50.689V186.2ZM53.9416 189H55.1736V189.91C55.4442 189.621 55.7989 189.373 56.2376 189.168C56.6762 188.963 57.1382 188.86 57.6236 188.86C58.3609 188.86 58.9302 189.065 59.3316 189.476C59.7329 189.887 59.9336 190.451 59.9336 191.17V196H58.7016V191.394C58.7016 190.927 58.5756 190.573 58.3236 190.33C58.0809 190.078 57.7309 189.952 57.2736 189.952C56.8722 189.952 56.4896 190.073 56.1256 190.316C55.7709 190.559 55.4536 190.885 55.1736 191.296V196H53.9416V189ZM64.1289 196.14C63.2982 196.14 62.6262 195.935 62.1129 195.524C61.5995 195.113 61.3102 194.544 61.2449 193.816H62.4069C62.5095 194.199 62.6915 194.497 62.9529 194.712C63.2235 194.917 63.6249 195.02 64.1569 195.02C64.5489 195.02 64.8802 194.931 65.1509 194.754C65.4309 194.577 65.5709 194.334 65.5709 194.026C65.5709 193.727 65.4169 193.489 65.1089 193.312C64.8102 193.135 64.2922 192.953 63.5549 192.766C62.8455 192.589 62.3229 192.341 61.9869 192.024C61.6602 191.707 61.4969 191.282 61.4969 190.75C61.4969 190.414 61.5949 190.101 61.7909 189.812C61.9962 189.523 62.2762 189.294 62.6309 189.126C62.9949 188.949 63.4055 188.86 63.8629 188.86C64.6189 188.86 65.2302 189.051 65.6969 189.434C66.1635 189.817 66.4295 190.363 66.4949 191.072H65.2769C65.2302 190.699 65.0809 190.414 64.8289 190.218C64.5769 190.022 64.2549 189.924 63.8629 189.924C63.5549 189.924 63.2795 189.994 63.0369 190.134C62.7942 190.265 62.6729 190.461 62.6729 190.722C62.6729 190.974 62.8129 191.184 63.0929 191.352C63.3729 191.511 63.8442 191.679 64.5069 191.856C65.2815 192.061 65.8509 192.318 66.2149 192.626C66.5882 192.934 66.7749 193.349 66.7749 193.872C66.7749 194.301 66.6629 194.689 66.4389 195.034C66.2242 195.379 65.9162 195.65 65.5149 195.846C65.1135 196.042 64.6515 196.14 64.1289 196.14ZM70.5299 196.14C69.9886 196.14 69.5639 195.991 69.2559 195.692C68.9573 195.384 68.8079 194.945 68.8079 194.376V190.12H67.4219V189H68.8079V186.9L70.0399 187.348V189H71.7199V190.12H70.0399V194.292C70.0399 194.535 70.1099 194.721 70.2499 194.852C70.3993 194.983 70.6186 195.048 70.9079 195.048C71.0853 195.048 71.2393 195.039 71.3699 195.02C71.5099 194.992 71.6033 194.973 71.6499 194.964V196C71.2859 196.093 70.9126 196.14 70.5299 196.14ZM75.0406 196.14C74.3779 196.14 73.8412 195.958 73.4306 195.594C73.0199 195.221 72.8146 194.726 72.8146 194.11C72.8146 193.457 73.0386 192.943 73.4866 192.57C73.9346 192.197 74.4992 191.977 75.1806 191.912L77.3646 191.688V191.212C77.3646 190.811 77.2199 190.507 76.9306 190.302C76.6506 190.087 76.2772 189.98 75.8106 189.98C75.4186 189.98 75.0872 190.073 74.8166 190.26C74.5552 190.447 74.3779 190.731 74.2846 191.114H73.1226C73.2252 190.377 73.5379 189.817 74.0606 189.434C74.5926 189.051 75.2039 188.86 75.8946 188.86C76.7159 188.86 77.3692 189.065 77.8546 189.476C78.3492 189.877 78.5966 190.409 78.5966 191.072V194.348C78.5966 194.581 78.6479 194.763 78.7506 194.894C78.8532 195.015 79.0072 195.076 79.2126 195.076C79.3339 195.076 79.4552 195.057 79.5766 195.02V195.944C79.2966 196.037 79.0352 196.084 78.7926 196.084C78.0366 196.084 77.5746 195.72 77.4066 194.992C77.1359 195.3 76.7859 195.571 76.3566 195.804C75.9272 196.028 75.4886 196.14 75.0406 196.14ZM75.1806 195.02C75.9086 195.02 76.6366 194.656 77.3646 193.928V192.668L75.2646 192.906C74.8726 192.953 74.5692 193.083 74.3546 193.298C74.1492 193.503 74.0466 193.755 74.0466 194.054C74.0466 194.371 74.1492 194.614 74.3546 194.782C74.5692 194.941 74.8446 195.02 75.1806 195.02ZM80.9162 185.78H82.1482V196H80.9162V185.78ZM83.9924 185.78H85.2244V196H83.9924V185.78ZM88.9585 196.14C88.2959 196.14 87.7592 195.958 87.3485 195.594C86.9379 195.221 86.7325 194.726 86.7325 194.11C86.7325 193.457 86.9565 192.943 87.4045 192.57C87.8525 192.197 88.4172 191.977 89.0985 191.912L91.2825 191.688V191.212C91.2825 190.811 91.1379 190.507 90.8485 190.302C90.5685 190.087 90.1952 189.98 89.7285 189.98C89.3365 189.98 89.0052 190.073 88.7345 190.26C88.4732 190.447 88.2959 190.731 88.2025 191.114H87.0405C87.1432 190.377 87.4559 189.817 87.9785 189.434C88.5105 189.051 89.1219 188.86 89.8125 188.86C90.6339 188.86 91.2872 189.065 91.7725 189.476C92.2672 189.877 92.5145 190.409 92.5145 191.072V194.348C92.5145 194.581 92.5659 194.763 92.6685 194.894C92.7712 195.015 92.9252 195.076 93.1305 195.076C93.2519 195.076 93.3732 195.057 93.4945 195.02V195.944C93.2145 196.037 92.9532 196.084 92.7105 196.084C91.9545 196.084 91.4925 195.72 91.3245 194.992C91.0539 195.3 90.7039 195.571 90.2745 195.804C89.8452 196.028 89.4065 196.14 88.9585 196.14ZM89.0985 195.02C89.8265 195.02 90.5545 194.656 91.2825 193.928V192.668L89.1825 192.906C88.7905 192.953 88.4872 193.083 88.2725 193.298C88.0672 193.503 87.9645 193.755 87.9645 194.054C87.9645 194.371 88.0672 194.614 88.2725 194.782C88.4872 194.941 88.7625 195.02 89.0985 195.02ZM96.821 196.14C96.2796 196.14 95.855 195.991 95.547 195.692C95.2483 195.384 95.099 194.945 95.099 194.376V190.12H93.713V189H95.099V186.9L96.331 187.348V189H98.011V190.12H96.331V194.292C96.331 194.535 96.401 194.721 96.541 194.852C96.6903 194.983 96.9096 195.048 97.199 195.048C97.3763 195.048 97.5303 195.039 97.661 195.02C97.801 194.992 97.8943 194.973 97.941 194.964V196C97.577 196.093 97.2036 196.14 96.821 196.14ZM100.058 187.936C99.8242 187.936 99.6236 187.857 99.4556 187.698C99.2969 187.53 99.2176 187.329 99.2176 187.096C99.2176 186.863 99.2969 186.667 99.4556 186.508C99.6236 186.34 99.8242 186.256 100.058 186.256C100.291 186.256 100.487 186.34 100.646 186.508C100.814 186.667 100.898 186.863 100.898 187.096C100.898 187.329 100.814 187.53 100.646 187.698C100.487 187.857 100.291 187.936 100.058 187.936ZM99.4416 189H100.674V196H99.4416V189ZM105.752 196.14C105.052 196.14 104.426 195.986 103.876 195.678C103.334 195.361 102.91 194.927 102.602 194.376C102.303 193.816 102.154 193.191 102.154 192.5C102.154 191.809 102.303 191.189 102.602 190.638C102.91 190.078 103.334 189.644 103.876 189.336C104.426 189.019 105.052 188.86 105.752 188.86C106.452 188.86 107.072 189.019 107.614 189.336C108.164 189.644 108.589 190.078 108.888 190.638C109.196 191.189 109.35 191.809 109.35 192.5C109.35 193.191 109.196 193.816 108.888 194.376C108.589 194.927 108.164 195.361 107.614 195.678C107.072 195.986 106.452 196.14 105.752 196.14ZM105.752 195.02C106.442 195.02 107.007 194.801 107.446 194.362C107.894 193.923 108.118 193.303 108.118 192.5C108.118 191.697 107.894 191.077 107.446 190.638C107.007 190.199 106.442 189.98 105.752 189.98C105.061 189.98 104.492 190.199 104.044 190.638C103.605 191.077 103.386 191.697 103.386 192.5C103.386 193.303 103.605 193.923 104.044 194.362C104.492 194.801 105.061 195.02 105.752 195.02ZM110.83 189H112.062V189.91C112.333 189.621 112.688 189.373 113.126 189.168C113.565 188.963 114.027 188.86 114.512 188.86C115.25 188.86 115.819 189.065 116.22 189.476C116.622 189.887 116.822 190.451 116.822 191.17V196H115.59V191.394C115.59 190.927 115.464 190.573 115.212 190.33C114.97 190.078 114.62 189.952 114.162 189.952C113.761 189.952 113.378 190.073 113.014 190.316C112.66 190.559 112.342 190.885 112.062 191.296V196H110.83V189Z" fill="white"/>
</svg>
