<svg width="44" height="44" viewBox="0 0 44 44" fill="none" xmlns="http://www.w3.org/2000/svg">
<circle cx="22" cy="22" r="22" fill="#43D14F"/>
<path d="M12.375 20.0601C12.375 18.9555 13.2704 18.0601 14.375 18.0601H17.2328C17.4992 18.0601 17.7545 17.9538 17.9423 17.7649L20.5103 15.1796C21.1393 14.5464 22.2197 14.9919 22.2197 15.8844V28.1541C22.2197 29.0274 21.1788 29.4811 20.539 28.8866L17.9368 26.4685C17.7518 26.2965 17.5086 26.201 17.2561 26.201H14.375C13.2704 26.201 12.375 25.3056 12.375 24.201V20.0601Z" fill="white"/>
<path d="M25 28.5C26.4442 28.0212 27.6958 27.1503 28.5886 26.0027C29.4814 24.8551 29.9733 23.4852 29.9989 22.0749C30.0246 20.6645 29.5827 19.2803 28.7321 18.106C27.8814 16.9317 26.6622 16.0228 25.2362 15.5" stroke="white" stroke-width="2" stroke-linecap="round"/>
<path d="M25 25.5C25.5777 25.2422 26.0783 24.7732 26.4354 24.1553C26.7926 23.5374 26.9893 22.7997 26.9996 22.0403C27.0098 21.2809 26.8331 20.5355 26.4928 19.9032C26.1526 19.2709 25.6649 18.7815 25.0945 18.5" stroke="white" stroke-width="2" stroke-linecap="round"/>
</svg>