<svg width="44" height="44" viewBox="0 0 44 44" fill="none" xmlns="http://www.w3.org/2000/svg">
<circle cx="22" cy="22" r="22" fill="#43D14F"/>
<path fill-rule="evenodd" clip-rule="evenodd" d="M12.375 20.0601C12.375 18.9555 13.2704 18.0601 14.375 18.0601H17.2328C17.4992 18.0601 17.7545 17.9538 17.9423 17.7648L20.5103 15.1796C21.1393 14.5464 22.2197 14.9918 22.2197 15.8843V28.154C22.2197 29.0273 21.1788 29.481 20.539 28.8865L17.9368 26.4684C17.7518 26.2965 17.5086 26.2009 17.2561 26.2009H14.375C13.2704 26.2009 12.375 25.3055 12.375 24.2009V20.0601ZM25.8465 20.6381C25.4346 20.2234 25.4346 19.551 25.8465 19.1364C26.2584 18.7217 26.9263 18.7217 27.3382 19.1364L28.5815 20.388L29.8243 19.1369C30.2363 18.7222 30.9041 18.7222 31.3161 19.1369C31.728 19.5516 31.728 20.2239 31.316 20.6386L30.0732 21.8897L31.3161 23.1409C31.728 23.5555 31.728 24.2279 31.3161 24.6426C30.9041 25.0572 30.2363 25.0572 29.8244 24.6426L28.5815 23.3914L27.3382 24.6431C26.9263 25.0578 26.2584 25.0578 25.8465 24.6431C25.4346 24.2284 25.4346 23.5561 25.8465 23.1414L27.0898 21.8897L25.8465 20.6381Z" fill="white"/>
</svg>
