<svg width="80" height="80" viewBox="0 0 80 80" fill="none" xmlns="http://www.w3.org/2000/svg">
<path d="M78.25 32.3886L78.25 32.3841C78.2442 30.7864 77.8245 29.2176 77.0318 27.8304C76.2391 26.4433 75.1006 25.2852 73.7271 24.4691L73.7014 24.4538L73.6749 24.4397L65.6211 20.162C65.0306 19.8396 64.3662 19.6766 63.6934 19.6891C63.0174 19.7017 62.3564 19.8911 61.7763 20.2384C61.1962 20.5857 60.7171 21.0788 60.3867 21.6686C60.0575 22.2565 59.8873 22.92 59.8929 23.5937V38.0647L44.7738 46.2195L44.7717 46.2206L40.0001 48.7826L35.2285 46.2206L35.2265 46.2195L20.1073 38.0647V23.5937C20.113 22.92 19.9428 22.2565 19.6135 21.6686L18.5229 22.2795L19.6135 21.6686C19.2831 21.0788 18.804 20.5857 18.2239 20.2384C17.6438 19.8911 16.9829 19.7017 16.3069 19.6891C15.6342 19.6766 14.9698 19.8396 14.3793 20.1618L6.16725 24.5187L6.1288 24.5391L6.09185 24.5622C4.76288 25.3906 3.66687 26.5439 2.90725 27.9134C2.14773 29.2827 1.74955 30.8228 1.75025 32.3886C1.75025 32.3888 1.75025 32.3889 1.75025 32.3891C1.75025 32.3891 1.75025 32.3892 1.75025 32.3893L1.75024 69.0714L1.75025 69.075C1.75735 71.5062 2.72627 73.8357 4.44536 75.5548C6.16445 77.2739 8.49399 78.2428 10.9251 78.2499H10.9288L69.0714 78.2499L69.0751 78.2499C71.5063 78.2428 73.8358 77.2739 75.5549 75.5548C77.274 73.8357 78.2429 71.5062 78.25 69.075V69.0714L78.25 32.3886Z" fill="#43D14F" stroke="#031F88" stroke-width="2.5"/>
<path d="M77 32.3886V36.3001L41.2423 55.54C40.8613 55.7482 40.4342 55.8573 40.0001 55.8573C39.566 55.8573 39.1389 55.7482 38.758 55.54L3.00025 36.3001V32.3886C2.99955 31.035 3.34374 29.7035 4.00035 28.5197C4.65696 27.336 5.60434 26.339 6.75309 25.623L14.9723 21.2623C15.3737 21.0419 15.8258 20.9304 16.2836 20.9389C16.7414 20.9475 17.189 21.0757 17.5819 21.3109C17.9747 21.5461 18.2992 21.88 18.5229 22.2795C18.7467 22.679 18.862 23.1301 18.8573 23.588V38.8108L40.0001 50.2014L61.1429 38.8108V23.588C61.1382 23.1301 61.2535 22.679 61.4773 22.2795C61.7011 21.88 62.0255 21.5461 62.4184 21.3109C62.8113 21.0757 63.2589 20.9475 63.7167 20.9389C64.1745 20.9304 64.6265 21.0419 65.0279 21.2623L73.0886 25.5437C74.2764 26.2495 75.261 27.251 75.9465 28.4506C76.632 29.6502 76.9949 31.007 77 32.3886Z" fill="#27C134"/>
<path d="M76.9999 67.6976V69.0719C76.9937 71.1728 76.1564 73.1859 74.6709 74.6714C73.1853 76.157 71.1722 76.9943 69.0713 77.0004H10.9287C8.82777 76.9943 6.81468 76.157 5.32912 74.6714C3.84355 73.1859 3.00626 71.1728 3.00012 69.0719V67.6976L31.86 47.4798C32.2642 47.2031 32.7364 47.0421 33.2254 47.0141C33.7145 46.9862 34.2019 47.0924 34.635 47.3212L40 50.2019L45.365 47.3212C45.7981 47.0924 46.2855 46.9862 46.7745 47.0141C47.2636 47.0421 47.7357 47.2031 48.14 47.4798L76.9999 67.6976Z" fill="#27C134"/>
<path d="M12.3354 41V4.71243C12.3354 3.99305 12.6304 3.30313 13.1556 2.79445C13.6807 2.28577 14.3928 2 15.1354 2H64.7C65.4426 2 66.1548 2.28577 66.6799 2.79445C67.205 3.30313 67.5 3.99305 67.5 4.71243V42" stroke="#031F88" stroke-width="2.5"/>
<path d="M63.7856 3H16.2144C15.5135 3 14.8412 3.27844 14.3456 3.77407C13.85 4.2697 13.5715 4.94192 13.5715 5.64285V41.9738L38.747 55.5396C39.1318 55.7479 39.5625 55.857 40 55.857C40.4376 55.857 40.8682 55.7479 41.253 55.5396L66.4285 41.9738V5.64285C66.4285 4.94192 66.1501 4.2697 65.6544 3.77407C65.1588 3.27844 64.4866 3 63.7856 3Z" fill="white"/>
<path d="M23.8047 36.2344C22.4297 36.2344 21.2422 35.875 20.2422 35.1562C19.2422 34.4219 18.4766 33.4141 17.9453 32.1328C17.4297 30.8516 17.1719 29.4062 17.1719 27.7969C17.1719 26.1875 17.4297 24.7422 17.9453 23.4609C18.4766 22.1797 19.2422 21.1797 20.2422 20.4609C21.2422 19.7266 22.4297 19.3594 23.8047 19.3594C25.1797 19.3594 26.3672 19.7266 27.3672 20.4609C28.3672 21.1797 29.125 22.1797 29.6406 23.4609C30.1719 24.7422 30.4375 26.1875 30.4375 27.7969C30.4375 29.4062 30.1719 30.8516 29.6406 32.1328C29.125 33.4141 28.3672 34.4219 27.3672 35.1562C26.3672 35.875 25.1797 36.2344 23.8047 36.2344ZM23.8047 34.1719C25.2422 34.1719 26.3203 33.6016 27.0391 32.4609C27.7734 31.3047 28.1406 29.75 28.1406 27.7969C28.1406 25.8437 27.7734 24.2969 27.0391 23.1562C26.3203 22 25.2422 21.4219 23.8047 21.4219C22.3672 21.4219 21.2813 22 20.5469 23.1562C19.8281 24.2969 19.4688 25.8437 19.4688 27.7969C19.4688 29.75 19.8281 31.3047 20.5469 32.4609C21.2813 33.6016 22.3672 34.1719 23.8047 34.1719ZM34.902 22.7344C34.527 23.0625 34.1051 23.2891 33.6364 23.4141C33.1832 23.5234 32.5582 23.5781 31.7614 23.5781V21.7031H32.1364C32.9801 21.7031 33.6285 21.5391 34.0817 21.2109C34.5348 20.8672 34.8082 20.3281 34.902 19.5937H37.152V36H34.902V22.7344ZM46.6013 36.2344C45.2263 36.2344 44.0388 35.875 43.0388 35.1562C42.0388 34.4219 41.2732 33.4141 40.7419 32.1328C40.2263 30.8516 39.9685 29.4062 39.9685 27.7969C39.9685 26.1875 40.2263 24.7422 40.7419 23.4609C41.2732 22.1797 42.0388 21.1797 43.0388 20.4609C44.0388 19.7266 45.2263 19.3594 46.6013 19.3594C47.9763 19.3594 49.1638 19.7266 50.1638 20.4609C51.1638 21.1797 51.9216 22.1797 52.4373 23.4609C52.9685 24.7422 53.2341 26.1875 53.2341 27.7969C53.2341 29.4062 52.9685 30.8516 52.4373 32.1328C51.9216 33.4141 51.1638 34.4219 50.1638 35.1562C49.1638 35.875 47.9763 36.2344 46.6013 36.2344ZM46.6013 34.1719C48.0388 34.1719 49.1169 33.6016 49.8357 32.4609C50.5701 31.3047 50.9373 29.75 50.9373 27.7969C50.9373 25.8437 50.5701 24.2969 49.8357 23.1562C49.1169 22 48.0388 21.4219 46.6013 21.4219C45.1638 21.4219 44.0779 22 43.3435 23.1562C42.6248 24.2969 42.2654 25.8437 42.2654 27.7969C42.2654 29.75 42.6248 31.3047 43.3435 32.4609C44.0779 33.6016 45.1638 34.1719 46.6013 34.1719ZM57.6986 22.7344C57.3236 23.0625 56.9017 23.2891 56.433 23.4141C55.9799 23.5234 55.3549 23.5781 54.558 23.5781V21.7031H54.933C55.7767 21.7031 56.4252 21.5391 56.8783 21.2109C57.3314 20.8672 57.6049 20.3281 57.6986 19.5937H59.9486V36H57.6986V22.7344Z" fill="#031F88"/>
<path d="M2.24174 35.5626L39.0752 55.0117C39.6545 55.3176 40.3469 55.3203 40.9287 55.0191L78.5 35.5626" stroke="#031F88" stroke-width="2.5"/>
</svg>
