<svg width="66" height="79" viewBox="0 0 66 79" fill="none" xmlns="http://www.w3.org/2000/svg">
<circle cx="29.276" cy="41.3588" r="20.9118" fill="#EFF2F9"/>
<rect x="0.111765" y="0.417111" width="5.49623" height="39.0843" rx="2.74812" transform="matrix(-0.5 0.866025 0.866025 0.5 25.6892 9.99433)" fill="white" stroke="#031F88" stroke-width="0.610693"/>
<path opacity="0.6" d="M52.685 31.5897L34.6331 21.1674L35.2585 20.0843L35.8838 19.0012C36.5541 19.3882 35.34 20.5873 35.9526 20.9665C41.6092 24.4674 46.7398 27.193 53.4146 30.3261L52.685 31.5897Z" fill="#376CFB"/>
<path d="M22.7373 25.956C22.8174 26.6245 23.2077 27.2162 23.7908 27.5529L26.3199 29.013C27.3422 29.6033 28.6494 29.253 29.2396 28.2307L40.5543 8.6332C41.1445 7.61089 40.7942 6.30366 39.7719 5.71343L32.4497 1.48595C31.4274 0.895719 30.1202 1.24599 29.5299 2.2683L21.9107 15.4653C21.6797 15.8653 21.5845 16.3295 21.6395 16.7881L22.7373 25.956Z" fill="white" stroke="#031F88" stroke-width="0.610693"/>
<path d="M23.3168 26.0524C23.3864 26.6241 23.7207 27.1299 24.2195 27.4179L26.5401 28.7577C27.4163 29.2636 28.5368 28.9634 29.0427 28.0871L40.2331 8.70475C40.7391 7.82848 40.4388 6.708 39.5626 6.20208L32.3796 2.05501C31.5033 1.54909 30.3829 1.84933 29.877 2.7256L22.4211 15.6394C22.2226 15.9833 22.1412 16.3824 22.1891 16.7766L23.3168 26.0524Z" fill="#3962FA"/>
<rect width="3.74667" height="8.33781" rx="1.87334" transform="matrix(-0.939693 -0.34202 -0.34202 0.939693 50.1113 23.0276)" fill="#87A7FD"/>
<rect width="3.74667" height="8.33781" rx="1.87334" transform="matrix(-0.939693 -0.34202 -0.34202 0.939693 52.6387 24.4868)" fill="#87A7FD"/>
<rect width="3.74667" height="8.33781" rx="1.87334" transform="matrix(-0.939693 -0.34202 -0.34202 0.939693 55.5273 26.1545)" fill="#87A7FD"/>
<rect width="3.33512" height="8.33781" rx="1.66756" transform="matrix(-0.939693 -0.34202 -0.34202 0.939693 50.1738 22.1765)" fill="white" stroke="#031F88" stroke-width="0.610693"/>
<rect x="-0.417111" y="0.111765" width="0.773239" height="9.39468" rx="0.305346" transform="matrix(-0.866025 -0.5 -0.5 0.866025 37.7785 14.542)" fill="white" stroke="#031F88" stroke-width="0.610693"/>
<rect width="3.33512" height="8.33781" rx="1.66756" transform="matrix(-0.939693 -0.34202 -0.34202 0.939693 52.9453 23.7769)" fill="white" stroke="#031F88" stroke-width="0.610693"/>
<rect width="3.33512" height="8.33781" rx="1.66756" transform="matrix(-0.939693 -0.34202 -0.34202 0.939693 55.6953 25.3643)" fill="white" stroke="#031F88" stroke-width="0.610693"/>
<circle r="2.08445" transform="matrix(-0.5 0.866025 0.866025 0.5 29.2473 11.3188)" fill="white"/>
<ellipse rx="0.610693" ry="0.916039" transform="matrix(-0.5 0.866025 0.866025 0.5 29.5212 12.2149)" fill="#031F88"/>
<circle r="2.08445" transform="matrix(-0.5 0.866025 0.866025 0.5 25.7044 17.4565)" fill="white"/>
<ellipse rx="0.610693" ry="0.916039" transform="matrix(-0.5 0.866025 0.866025 0.5 26.0095 18.297)" fill="#031F88"/>
<path d="M33.1348 15.0076C32.9732 16.9824 32.5439 17.8937 30.8419 18.979" stroke="#031F88" stroke-width="0.610693" stroke-linecap="round"/>
<path d="M29.8174 18.6702C30.5422 18.8334 30.7887 19.0985 31.0762 19.7638" stroke="#031F88" stroke-width="0.610693" stroke-linecap="round" stroke-linejoin="bevel"/>
<path d="M33.8672 14.8855C33.1441 15.0563 32.8064 14.926 32.2564 14.4539" stroke="#031F88" stroke-width="0.610693" stroke-linecap="round" stroke-linejoin="bevel"/>
<path d="M3.63787 46.5736C2.33766 44.3217 2.35458 41.4299 2.83396 38.9862C3.072 37.7727 3.4197 36.6933 3.75601 35.8935C3.92443 35.4929 4.08682 35.1701 4.22686 34.9389C4.29704 34.8231 4.35756 34.737 4.40617 34.6779C4.43391 34.6441 4.45238 34.6259 4.46128 34.6175C4.47297 34.614 4.49806 34.6071 4.54118 34.6C4.61668 34.5874 4.72155 34.5781 4.85698 34.5752C5.12725 34.5696 5.48806 34.5903 5.91916 34.6448C6.78002 34.7534 7.88874 34.992 9.05869 35.3926C11.4148 36.1992 13.9277 37.6303 15.2279 39.8823C16.4862 42.0618 15.8319 44.153 14.788 45.7718C14.2674 46.5791 13.6611 47.2478 13.1822 47.7161C12.9434 47.9496 12.7381 48.1315 12.5936 48.2543C12.5214 48.3156 12.4645 48.362 12.4263 48.3926C12.4236 48.3948 12.4209 48.3969 12.4183 48.3989C12.4153 48.4001 12.4121 48.4014 12.4088 48.4027C12.3633 48.4204 12.2946 48.4465 12.2054 48.4784C12.0269 48.5421 11.7667 48.629 11.4451 48.719C10.8001 48.8996 9.91782 49.0903 8.95833 49.1375C7.03453 49.2321 4.89628 48.7532 3.63787 46.5736Z" fill="#FED4DF" stroke="#031F88" stroke-width="0.929412"/>
<path d="M4.69714 35.0255C3.93557 35.465 1.31057 42.0582 3.80254 46.3742C6.29451 50.6902 12.2899 48.1761 12.2899 48.1761C5.18561 47.9443 2.53235 46.2388 4.69714 35.0255Z" fill="#FD8FAB"/>
<path d="M21.3059 40.8118C22.606 38.5599 25.1189 37.1286 27.4749 36.3219C28.6448 35.9213 29.7535 35.6827 30.6143 35.574C31.0454 35.5196 31.4061 35.4988 31.6764 35.5045C31.8118 35.5074 31.9166 35.5167 31.9921 35.5293C32.0352 35.5365 32.0602 35.5433 32.0719 35.5469C32.0808 35.5552 32.0993 35.5735 32.1271 35.6073C32.1757 35.6664 32.2362 35.7525 32.3064 35.8684C32.4464 36.0996 32.6088 36.4225 32.7773 36.823C33.1136 37.6229 33.4613 38.7024 33.6994 39.9158C34.1789 42.3596 34.196 45.2514 32.8958 47.5034C31.6374 49.6829 29.4992 50.1618 27.5754 50.0672C26.6159 50.02 25.7337 49.8293 25.0886 49.6487C24.7671 49.5586 24.5068 49.4718 24.3283 49.408C24.2391 49.3761 24.1704 49.3501 24.1249 49.3323C24.1216 49.331 24.1184 49.3298 24.1154 49.3286C24.1128 49.3265 24.1102 49.3244 24.1074 49.3222C24.0693 49.2916 24.0124 49.2452 23.9402 49.1839C23.7957 49.0612 23.5903 48.8792 23.3516 48.6458C22.8727 48.1774 22.2664 47.5087 21.7458 46.7014C20.702 45.0826 20.0476 42.9914 21.3059 40.8118Z" fill="#FED4DF" stroke="#031F88" stroke-width="0.929412"/>
<rect x="20.912" y="65.5235" width="7.43529" height="13.0118" rx="2.32353" fill="#FED4DF" stroke="#031F88" stroke-width="0.929412"/>
<rect x="7.90025" y="65.5235" width="7.43529" height="13.0118" rx="2.32353" fill="#FED4DF" stroke="#031F88" stroke-width="0.929412"/>
<path d="M34.3881 56.916C34.3881 66.0328 26.9974 73.4235 17.8806 73.4235C8.7638 73.4235 2.78809 66.0328 2.78809 56.916C2.78809 49.3698 9.39107 41.8235 17.8806 41.8235C26.9974 41.8235 34.3881 47.7992 34.3881 56.916Z" fill="#FED4DF"/>
<path d="M12.082 64.1296C12.0805 59.4111 24.1644 62.7353 24.1644 64.1295C24.1644 64.5203 24.0184 65.13 23.8082 65.8053C23.0525 68.2336 20.6666 69.7063 18.1234 69.7063C15.5801 69.7063 13.194 68.2333 12.4383 65.8048C12.2282 65.1297 12.0822 64.5202 12.082 64.1296Z" fill="#031F88"/>
<path d="M12.9075 71.5753C14.6491 72.1739 16.5583 72.4942 18.5881 72.4942C16.5208 72.6451 14.6135 72.2993 12.9075 71.5753C6.8266 69.4854 2.78809 64.003 2.78809 56.916C2.78809 49.1256 9.39107 41.8235 17.8806 41.8235C-0.904047 45.0569 1.51784 66.7422 12.9075 71.5753Z" fill="#FD8FAB"/>
<circle r="3.17232" transform="matrix(-0.5 0.866025 0.866025 0.5 12.6983 52.6628)" fill="white"/>
<circle r="3.17232" transform="matrix(-0.5 0.866025 0.866025 0.5 22.9219 52.6628)" fill="white"/>
<circle cx="18.1231" cy="57.1587" r="15.8" stroke="#031F88" stroke-width="0.929412"/>
<rect x="12.5467" y="60.8766" width="11.1529" height="6.50588" rx="3.25294" fill="#FD8FAB" stroke="#031F88" stroke-width="0.929412"/>
<path d="M16.2585 69.2986C15.9886 69.1904 15.7998 69.0606 15.7998 68.9092C15.7998 67.1771 20.4469 67.1772 20.4469 68.9094C20.4469 69.0607 20.2581 69.1905 19.9882 69.2988C18.8084 69.7718 17.4383 69.7717 16.2585 69.2986Z" fill="#3962FA"/>
<circle cx="15.8002" cy="64.1293" r="1.85882" fill="white"/>
<circle cx="20.4467" cy="64.1293" r="1.85882" fill="white"/>
<circle cx="13.0121" cy="52.0471" r="1.85882" fill="#031F88"/>
<circle cx="23.2358" cy="52.0471" r="1.85882" fill="#031F88"/>
</svg>
