<svg width="55" height="58" viewBox="0 0 55 58" fill="none" xmlns="http://www.w3.org/2000/svg">
<circle cx="33.276" cy="21.3588" r="20.9118" fill="#EFF2F9"/>
<rect width="31.2002" height="46.8003" rx="5.9429" transform="matrix(-4.37114e-08 1 1 4.37114e-08 5.2002 14)" fill="#87A7FD"/>
<path d="M48.6586 14.7427C-0.370399 13.9999 8.54395 27.3714 5.94396 40.7429C5.60267 40.7429 5.57497 29.4539 5.57272 27.6214C5.57251 27.4495 5.56531 27.2898 5.55272 27.1184C5.4476 25.6872 5.01992 18.6002 6.68681 16.6C8.91466 13.9267 13.5531 14.4436 20.4298 14.3713C33.2115 14.237 48.6586 14.7427 48.6586 14.7427Z" fill="#6F95FB"/>
<rect x="0.371431" y="0.371431" width="30.4574" height="46.0575" rx="5.57147" transform="matrix(-4.37114e-08 1 1 4.37114e-08 5.2002 14)" stroke="#031F88" stroke-width="0.742863"/>
<rect x="5.20117" y="19.9429" width="46.8003" height="4.45718" fill="#031F88"/>
<rect width="31.2002" height="46.8003" rx="5.9429" transform="matrix(-4.37114e-08 1 1 4.37114e-08 0 26.6287)" fill="#87A7FD"/>
<path d="M43.4584 27.3714C-5.57059 26.6285 3.34376 40.0001 0.743765 53.3716C0.402475 53.3716 0.374773 42.0826 0.372525 40.25C0.372314 40.0782 0.365119 39.9184 0.352529 39.747C0.2474 38.3159 -0.180273 31.2289 1.48662 29.2287C3.71446 26.5553 8.35292 27.0723 15.2296 27C28.0113 26.8656 43.4584 27.3714 43.4584 27.3714Z" fill="#6F95FB"/>
<circle cx="39.2235" cy="36.2858" r="3.12002" fill="#F2C94C"/>
<circle cx="35.0634" cy="36.2858" r="3.12002" fill="#F8632D"/>
<circle cx="35.0634" cy="36.2859" r="1.04001" fill="#031F88"/>
<circle cx="39.2236" cy="36.2859" r="1.04001" fill="#031F88"/>
<path d="M39.9121 43.0408C37.7334 42.0099 36.5124 41.9079 34.3338 43.0408" stroke="#031F88" stroke-width="0.742863" stroke-linecap="round"/>
<path d="M34.0361 44.3088C34.305 43.446 34.1756 43.0251 33.6497 42.3175" stroke="#031F88" stroke-width="0.742863" stroke-linecap="round" stroke-linejoin="bevel"/>
<path d="M40.4863 42.3435C39.8666 43.0014 39.7985 43.4364 39.9613 44.3029" stroke="#031F88" stroke-width="0.742863" stroke-linecap="round" stroke-linejoin="bevel"/>
<rect x="0.371431" y="0.371431" width="30.4574" height="46.0575" rx="5.57147" transform="matrix(-4.37114e-08 1 1 4.37114e-08 -1.62358e-08 26.6287)" stroke="#031F88" stroke-width="0.742863"/>
<rect x="6.68555" y="49.6575" width="7.42863" height="2.97145" rx="1.48573" fill="#031F88"/>
<rect x="6.68555" y="34.8" width="20.8001" height="2.97145" rx="1.48573" fill="#031F88"/>
<rect x="6.68555" y="39.2573" width="12.6287" height="2.97145" rx="1.48573" fill="#031F88"/>
<rect x="15.6006" y="49.6575" width="7.42863" height="2.97145" rx="1.48573" fill="white"/>
<rect x="24.5146" y="49.6575" width="7.42863" height="2.97145" rx="1.48573" fill="#031F88"/>
<rect x="33.4287" y="49.6575" width="7.42863" height="2.97145" rx="1.48573" fill="white"/>
</svg>
