<svg width="70" height="80" viewBox="0 0 70 80" fill="none" xmlns="http://www.w3.org/2000/svg">
<path d="M33 1.15504C34.2376 0.440509 35.7624 0.440507 37 1.15504L67.6411 18.8456C68.8787 19.5602 69.6411 20.8807 69.6411 22.3097V57.6909C69.6411 59.12 68.8787 60.4405 67.6411 61.155L37 78.8456C35.7624 79.5602 34.2376 79.5602 33 78.8456L2.35901 61.155C1.12141 60.4405 0.359009 59.12 0.359009 57.6909V22.3097C0.359009 20.8807 1.1214 19.5602 2.35901 18.8456L33 1.15504Z" fill="white"/>
<path d="M33 1.15504C34.2376 0.440509 35.7624 0.440507 37 1.15504L67.6411 18.8456C68.8787 19.5602 69.6411 20.8807 69.6411 22.3097V57.6909C69.6411 59.12 68.8787 60.4405 67.6411 61.155L37 78.8456C35.7624 79.5602 34.2376 79.5602 33 78.8456L2.35901 61.155C1.12141 60.4405 0.359009 59.12 0.359009 57.6909V22.3097C0.359009 20.8807 1.1214 19.5602 2.35901 18.8456L33 1.15504Z" fill="#43D14F" fill-opacity="0.2"/>
<path fill-rule="evenodd" clip-rule="evenodd" d="M65.6411 22.3097L35 4.61914L4.35901 22.3097V57.6909L35 75.3815L65.6411 57.6909V22.3097ZM37 1.15504C35.7624 0.440507 34.2376 0.440509 33 1.15504L2.35901 18.8456C1.1214 19.5602 0.359009 20.8807 0.359009 22.3097V57.6909C0.359009 59.12 1.12141 60.4405 2.35901 61.155L33 78.8456C34.2376 79.5602 35.7624 79.5602 37 78.8456L67.6411 61.155C68.8787 60.4405 69.6411 59.12 69.6411 57.6909V22.3097C69.6411 20.8807 68.8787 19.5602 67.6411 18.8456L37 1.15504Z" fill="white"/>
<path d="M27 53C26.4477 53 26 52.5523 26 52L26 30C26 28.8954 26.8954 28 28 28L43 28C44.6569 28 46 29.3431 46 31L46 50C46 51.6569 44.6569 53 43 53L27 53Z" fill="#43D14F" fill-opacity="0.8"/>
<path d="M34.9862 29.0001C34.7879 29.0036 34.599 29.0853 34.4609 29.2274C34.3227 29.3696 34.2465 29.5605 34.2488 29.7586V30.3896C33.037 30.6167 32.0002 31.3962 32.0002 32.747C32.0002 33.6841 32.4231 34.442 32.9911 34.8833C33.5591 35.3246 34.2005 35.5202 34.7634 35.7076C35.3262 35.8951 35.8122 36.0742 36.0885 36.2889C36.3648 36.5036 36.4975 36.6843 36.4975 37.2465C36.4975 38.496 33.5012 38.496 33.5012 37.2465C33.5035 37.1467 33.4857 37.0474 33.449 36.9545C33.4122 36.8616 33.3573 36.777 33.2874 36.7056C33.2175 36.6342 33.134 36.5775 33.0418 36.5387C32.9497 36.5 32.8507 36.48 32.7507 36.48C32.6507 36.48 32.5517 36.5 32.4596 36.5387C32.3674 36.5775 32.2839 36.6342 32.214 36.7056C32.1441 36.777 32.0892 36.8616 32.0525 36.9545C32.0157 37.0474 31.998 37.1467 32.0002 37.2465C32.0002 38.5963 33.0379 39.3772 34.2488 39.6054V40.2335C34.2466 40.3334 34.2644 40.4326 34.3011 40.5255C34.3378 40.6184 34.3928 40.7031 34.4627 40.7745C34.5326 40.8459 34.6161 40.9026 34.7082 40.9413C34.8004 40.9801 34.8994 41 34.9994 41C35.0993 41 35.1983 40.9801 35.2905 40.9413C35.3826 40.9026 35.4661 40.8459 35.536 40.7745C35.606 40.7031 35.6609 40.6184 35.6976 40.5255C35.7343 40.4326 35.7521 40.3334 35.7499 40.2335V39.6054C36.961 39.3774 38 38.5965 38 37.2465C38 36.3094 37.5756 35.5515 37.0076 35.1103C36.4396 34.669 35.7983 34.4719 35.2354 34.2844C34.6725 34.097 34.1866 33.9193 33.9102 33.7046C33.6339 33.4899 33.5012 33.3093 33.5012 32.747C33.5012 31.4976 36.4975 31.4976 36.4975 32.747C36.4975 32.946 36.5766 33.1369 36.7175 33.2776C36.8584 33.4184 37.0495 33.4974 37.2487 33.4974C37.448 33.4974 37.6391 33.4184 37.78 33.2776C37.9208 33.1369 38 32.946 38 32.747C38 31.3982 36.9607 30.6195 35.7499 30.3911V29.7586C35.7511 29.6583 35.7321 29.5588 35.6941 29.4659C35.6561 29.3731 35.5998 29.2888 35.5286 29.2181C35.4573 29.1473 35.3726 29.0916 35.2795 29.0542C35.1863 29.0167 35.0866 28.9984 34.9862 29.0001Z" fill="#031F88"/>
<rect x="24" y="54" width="28" height="22" rx="3" transform="rotate(-90 24 54)" stroke="#031F88" stroke-width="2"/>
<rect x="27" y="44" width="16" height="2" rx="1" fill="#031F88"/>
<rect x="27" y="49" width="16" height="2" rx="1" fill="#031F88"/>
</svg>
