<svg width="42" height="35" viewBox="0 0 42 35" fill="none" xmlns="http://www.w3.org/2000/svg">
<rect width="24.9153" height="37.3729" rx="4.74576" transform="matrix(-4.37114e-08 1 1 4.37114e-08 4.15234 0)" fill="#87A7FD"/>
<path d="M38.857 0.593034C-0.29559 -0.000186169 6.82306 10.6778 4.74681 21.3557C4.47426 21.3557 4.45214 12.3408 4.45035 10.8774C4.45018 10.7402 4.44443 10.6126 4.43438 10.4757C4.35043 9.33285 4.00891 3.67346 5.34002 2.07618C7.11908 -0.0586295 10.8232 0.354183 16.3146 0.296456C26.5216 0.189158 38.857 0.593034 38.857 0.593034Z" fill="#6F95FB"/>
<rect x="0.29661" y="0.29661" width="24.322" height="36.7797" rx="4.44915" transform="matrix(-4.37114e-08 1 1 4.37114e-08 4.15234 1.29652e-08)" stroke="#031F88" stroke-width="0.59322"/>
<rect x="4.15332" y="4.74512" width="37.3729" height="3.55932" fill="#031F88"/>
<rect width="24.9153" height="37.3729" rx="4.74576" transform="matrix(-4.37114e-08 1 1 4.37114e-08 0 10.085)" fill="#87A7FD"/>
<path d="M34.7046 10.678C-4.44793 10.0848 2.67071 20.7627 0.594461 31.4407C0.32192 31.4407 0.299799 22.4258 0.298004 20.9624C0.297835 20.8251 0.292089 20.6975 0.282036 20.5607C0.198084 19.4178 -0.143439 13.7584 1.18767 12.1611C2.96674 10.0263 6.67083 10.4391 12.1622 10.3814C22.3692 10.2741 34.7046 10.678 34.7046 10.678Z" fill="#6F95FB"/>
<circle cx="31.3226" cy="17.7962" r="2.49153" fill="#F2C94C"/>
<circle cx="28.0003" cy="17.7972" r="2.49153" fill="#F8632D"/>
<circle cx="28.0004" cy="17.7963" r="0.830508" fill="#031F88"/>
<circle cx="31.3227" cy="17.7963" r="0.830508" fill="#031F88"/>
<path d="M31.8721 23.1904C30.1323 22.3672 29.1572 22.2858 27.4175 23.1904" stroke="#031F88" stroke-width="0.59322" stroke-linecap="round"/>
<path d="M27.1787 24.2031C27.3934 23.5141 27.2901 23.178 26.8701 22.6129" stroke="#031F88" stroke-width="0.59322" stroke-linecap="round" stroke-linejoin="bevel"/>
<path d="M32.3301 22.6338C31.8352 23.1591 31.7808 23.5065 31.9108 24.1984" stroke="#031F88" stroke-width="0.59322" stroke-linecap="round" stroke-linejoin="bevel"/>
<rect x="0.29661" y="0.29661" width="24.322" height="36.7797" rx="4.44915" transform="matrix(-4.37114e-08 1 1 4.37114e-08 -1.29652e-08 10.085)" stroke="#031F88" stroke-width="0.59322"/>
<rect x="5.33887" y="28.4746" width="5.9322" height="2.37288" rx="1.18644" fill="#031F88"/>
<rect x="5.33887" y="16.6104" width="16.6102" height="2.37288" rx="1.18644" fill="#031F88"/>
<rect x="5.33887" y="20.1689" width="10.0847" height="2.37288" rx="1.18644" fill="#031F88"/>
<rect x="12.458" y="28.4746" width="5.9322" height="2.37288" rx="1.18644" fill="white"/>
<rect x="19.5762" y="28.4746" width="5.9322" height="2.37288" rx="1.18644" fill="#031F88"/>
<rect x="26.6953" y="28.4746" width="5.9322" height="2.37288" rx="1.18644" fill="white"/>
</svg>
