<svg width="44" height="44" viewBox="0 0 44 44" fill="none" xmlns="http://www.w3.org/2000/svg">
<path d="M35.75 44H8.25C3.69325 44 0 40.3068 0 35.75V8.25C0 3.69325 3.69325 0 8.25 0H35.75C40.3068 0 44 3.69325 44 8.25V35.75C44 40.3068 40.3068 44 35.75 44Z" fill="#43D14F" fill-opacity="0.2"/>
<path d="M31.3565 26.4C31.3019 26.3567 27.3332 23.496 26.2439 23.7013C25.7239 23.7933 25.4265 24.148 24.8299 24.858C24.7339 24.9727 24.5032 25.2473 24.3239 25.4427C23.9468 25.3197 23.579 25.17 23.2232 24.9947C21.3869 24.1007 19.9032 22.617 19.0092 20.7807C18.8338 20.4249 18.6841 20.0571 18.5612 19.68C18.7572 19.5 19.0319 19.2693 19.1492 19.1707C19.8559 18.5773 20.2112 18.28 20.3032 17.7587C20.4919 16.6787 18.5298 15.036 18.4998 15C18.3701 14.8147 18.1964 14.1118 17.9998 14C17.8032 13.8882 18.2254 13.5168 17.9999 13.5C16.8412 13.5 13.9999 17 13.9999 17.5C13.9999 18 13.4999 19.5 17.9999 25C24.3239 31.1859 26.9579 31 26.9999 31C27.7232 31 31.9999 28.692 31.9999 27.5333C31.9832 27.3086 31.9169 27.0903 31.8057 26.8943C31.6944 26.6983 31.541 26.5295 31.3565 26.4Z" fill="#43D14F" fill-opacity="0.8"/>
<path d="M31.0461 26.7918L31.0575 26.8009L31.0694 26.8092C31.1932 26.8962 31.2962 27.0096 31.3709 27.1412C31.441 27.2645 31.4845 27.4011 31.4989 27.542C31.4971 27.5527 31.4926 27.5733 31.4811 27.6052C31.4629 27.6559 31.4318 27.722 31.3835 27.8039C31.2863 27.9688 31.1375 28.1672 30.9418 28.391C30.5516 28.8374 30.0139 29.341 29.4437 29.8175C28.8747 30.2929 28.2864 30.7303 27.8017 31.046C27.5586 31.2044 27.3494 31.3269 27.1866 31.4078C27.105 31.4484 27.0427 31.4747 26.9987 31.4898C26.9848 31.4946 26.9748 31.4976 26.9683 31.4993C26.6637 31.4865 22.674 31.2355 17.6789 26.3271C12.7651 21.3272 12.5135 17.3369 12.5007 17.0318C12.5024 17.0253 12.5054 17.0153 12.5102 17.0015C12.5253 16.9575 12.5516 16.8952 12.5921 16.8136C12.6731 16.6509 12.7956 16.4417 12.9539 16.1986C13.2697 15.7139 13.7071 15.1256 14.1825 14.5566C14.659 13.9863 15.1626 13.4485 15.609 13.0582C15.8329 12.8626 16.0313 12.7137 16.1961 12.6165C16.278 12.5682 16.3441 12.5371 16.3948 12.5189C16.4267 12.5074 16.4473 12.5029 16.4579 12.5011C16.5995 12.5157 16.7366 12.5595 16.8605 12.63C16.9927 12.7052 17.1065 12.8088 17.1937 12.9334L17.2058 12.9506L17.2192 12.9668C17.2182 12.9656 17.2249 12.975 17.2383 12.994C17.3553 13.1595 17.9877 14.0544 18.6085 15.0716C18.9519 15.6342 19.2809 16.2169 19.5109 16.7179C19.6261 16.9689 19.7111 17.188 19.7616 17.3665C19.8157 17.5579 19.8147 17.6503 19.8108 17.6726L20.3033 17.7587L19.8109 17.6718C19.7571 17.977 19.5821 18.1544 18.8278 18.7877L18.8275 18.788L18.8187 18.7954C18.6985 18.8965 18.4237 19.1275 18.2231 19.3117L17.9863 19.5292L18.0859 19.8349C18.2161 20.2343 18.3746 20.6239 18.5603 21.0007C19.5032 22.9366 21.0674 24.5009 23.0034 25.4437C23.3802 25.6293 23.7697 25.7878 24.169 25.918L24.4748 26.0178L24.6923 25.7808C24.8805 25.5759 25.1181 25.2927 25.2132 25.1792C25.8497 24.4218 26.0271 24.2475 26.3311 24.1937L26.3311 24.1937L26.3366 24.1927C26.3593 24.1884 26.4512 24.1862 26.6414 24.2386C26.8191 24.2876 27.0372 24.3711 27.2872 24.4852C27.7865 24.7129 28.3666 25.0406 28.9273 25.3839C29.4855 25.7256 30.0135 26.0759 30.4059 26.344C30.7636 26.5884 30.9954 26.7554 31.0387 26.7866C31.0439 26.7903 31.0464 26.7921 31.0461 26.7918Z" stroke="#031F88"/>
</svg>
