<svg width="16" height="18" viewBox="0 0 16 18" fill="none" xmlns="http://www.w3.org/2000/svg">
<path fill-rule="evenodd" clip-rule="evenodd" d="M15 8C15 11.866 11.866 15 8 15C4.13401 15 1 11.866 1 8C1 4.13401 4.13401 1 8 1C11.866 1 15 4.13401 15 8ZM16 8C16 12.4183 12.4183 16 8 16C3.58172 16 0 12.4183 0 8C0 3.58172 3.58172 0 8 0C12.4183 0 16 3.58172 16 8ZM7.04329 4.1903C7.50011 4.00108 8.00277 3.95157 8.48773 4.04804C8.97268 4.1445 9.41814 4.3826 9.76777 4.73223C10.1174 5.08187 10.3555 5.52732 10.452 6.01228C10.5484 6.49723 10.4989 6.99989 10.3097 7.45671C10.1205 7.91353 9.80005 8.30397 9.38893 8.57868C9.11813 8.75961 8.816 8.88499 8.5 8.94949V10.5C8.5 10.7761 8.27614 11 8 11C7.72386 11 7.5 10.7761 7.5 10.5V8.5C7.5 8.22386 7.72386 8 8 8C8.29667 8 8.58668 7.91203 8.83335 7.74721C9.08003 7.58238 9.27229 7.34812 9.38582 7.07403C9.49935 6.79994 9.52906 6.49834 9.47118 6.20737C9.4133 5.91639 9.27044 5.64912 9.06066 5.43934C8.85088 5.22956 8.58361 5.0867 8.29264 5.02882C8.00166 4.97095 7.70006 5.00065 7.42597 5.11418C7.15189 5.22771 6.91762 5.41997 6.7528 5.66665C6.58797 5.91332 6.5 6.20333 6.5 6.5C6.5 6.77614 6.27614 7 6 7C5.72386 7 5.5 6.77614 5.5 6.5C5.5 6.00555 5.64662 5.5222 5.92133 5.11108C6.19603 4.69995 6.58648 4.37952 7.04329 4.1903ZM8 12.5C7.72386 12.5 7.5 12.2761 7.5 12C7.5 11.7239 7.72386 11.5 8 11.5C8.27614 11.5 8.5 11.7239 8.5 12C8.5 12.2761 8.27614 12.5 8 12.5Z" fill="#86969E"/>
</svg>
