<svg width="17" height="18" viewBox="0 0 17 18" fill="none" xmlns="http://www.w3.org/2000/svg">
<circle cx="8.5" cy="9" r="7.75" stroke="#FC2133" stroke-width="1.5"/>
<path fill-rule="evenodd" clip-rule="evenodd" d="M4.29289 4.79289C3.90237 5.18342 3.90237 5.81658 4.29289 6.20711L7.12143 9.03564L4.29296 11.8641C3.90244 12.2546 3.90244 12.8878 4.29296 13.2783C4.68349 13.6688 5.31665 13.6688 5.70718 13.2783L8.53564 10.4499L11.364 13.2782C11.7545 13.6687 12.3877 13.6687 12.7782 13.2782C13.1687 12.8876 13.1687 12.2545 12.7782 11.864L9.94986 9.03564L12.7782 6.20726C13.1688 5.81673 13.1688 5.18357 12.7782 4.79304C12.3877 4.40252 11.7546 4.40252 11.364 4.79304L8.53564 7.62143L5.70711 4.79289C5.31658 4.40237 4.68342 4.40237 4.29289 4.79289Z" fill="#FC2133"/>
</svg>
