<svg width="26" height="26" viewBox="0 0 26 26" fill="none" xmlns="http://www.w3.org/2000/svg">
<rect opacity="0.3" x="0.5" y="0.5" width="25" height="25" rx="3.5" fill="white" stroke="#86969E"/>
<mask id="path-2-inside-1" fill="white">
<rect x="19" y="6" width="9" height="12" rx="1" transform="rotate(90 19 6)"/>
</mask>
<rect x="19" y="6" width="9" height="12" rx="1" transform="rotate(90 19 6)" fill="white" stroke="#43D14F" stroke-width="4" mask="url(#path-2-inside-1)"/>
<mask id="path-3-inside-2" fill="white">
<rect x="22" y="9" width="10" height="18" rx="1" transform="rotate(90 22 9)"/>
</mask>
<rect x="22" y="9" width="10" height="18" rx="1" transform="rotate(90 22 9)" fill="white" stroke="#43D14F" stroke-width="4" mask="url(#path-3-inside-2)"/>
<mask id="path-4-inside-3" fill="white">
<rect x="18" y="14" width="7" height="10" rx="1" transform="rotate(90 18 14)"/>
</mask>
<rect x="18" y="14" width="7" height="10" rx="1" transform="rotate(90 18 14)" fill="white" stroke="#43D14F" stroke-width="4" mask="url(#path-4-inside-3)"/>
<rect x="7" y="14" width="12" height="2" rx="1" fill="#43D14F"/>
</svg>
