<svg width="49" height="50" viewBox="0 0 49 50" fill="none" xmlns="http://www.w3.org/2000/svg">
<path d="M13.0512 16.0366C17.3931 8.51611 27.0104 5.93979 34.5308 10.2817C36.3757 11.3469 37.9226 12.729 39.1426 14.3201C42.4786 18.6676 43.3753 24.5724 41.2386 29.8153C40.9702 30.4757 40.6526 31.1258 40.2861 31.7606C35.9437 39.2818 26.3272 41.8585 18.8068 37.5166C11.2863 33.1747 8.70885 23.5577 13.0512 16.0366Z" fill="#FC2133"/>
<path d="M18.8073 37.5168C19.5273 37.9325 20.2666 38.2841 21.0184 38.5749C15.09 33.7963 13.3579 25.2817 17.2845 18.4806C21.2106 11.6804 29.4499 8.92313 36.5519 11.6673C35.9247 11.1618 35.2512 10.6975 34.5314 10.2819C27.0109 5.94001 17.3937 8.51633 13.0518 16.0368C8.70944 23.558 11.2869 33.1749 18.8073 37.5168Z" fill="#FC2133"/>
<path d="M10.7702 16.0625L21.5192 15.4028C22.2851 15.3556 23.0401 15.5975 23.6356 16.0811C24.2326 16.5654 24.9882 16.8101 25.756 16.763L27.1947 16.6742L28.0629 28.6293L23.0668 33.9808C22.678 34.3973 22.3416 34.8529 22.0613 35.3384C21.3362 36.5943 20.9877 38.0461 21.0779 39.517C21.1 39.8787 21.0118 40.2226 20.8431 40.5147C20.5546 41.0144 20.0293 41.3645 19.4102 41.4025C18.5755 41.454 17.8183 40.9176 17.5896 40.1135L17.1814 38.6816C16.7153 37.0421 16.6208 35.319 16.9065 33.6388L17.1848 31.9965L10.0395 32.4276C8.8977 32.4975 7.918 31.6131 7.87915 30.4626C7.84099 29.3537 8.72399 28.4275 9.83196 28.3596C9.84542 28.3588 9.8518 28.3488 9.85324 28.3392C9.85353 28.3283 9.84721 28.3167 9.83366 28.3149C9.58374 28.2759 9.34793 28.1905 9.13576 28.068C8.79728 27.8726 8.51797 27.5813 8.33798 27.23C8.2142 26.9879 8.13733 26.7168 8.11933 26.4282C8.08536 25.8707 8.27883 25.3516 8.61991 24.9625C9.15719 24.3488 9.8665 24.2826 10.0043 24.2724C10.0279 24.2705 10.0458 24.2501 10.0443 24.2257C10.0447 24.225 10.0443 24.2241 10.0435 24.2237C10.0417 24.2017 10.0217 24.1841 9.99946 24.1853C9.83887 24.1382 9.6861 24.0716 9.54243 23.9886C9.1923 23.7865 8.90137 23.4856 8.71414 23.126C8.58774 22.8824 8.50831 22.6108 8.49105 22.3242C8.42196 21.2019 9.27621 20.2359 10.3992 20.1672C10.4271 20.1652 10.4549 20.1632 10.4823 20.1619C10.4993 20.1593 10.5111 20.1465 10.5112 20.1326C10.5114 20.1296 10.5103 20.1254 10.5085 20.1225C10.5036 20.1101 10.4896 20.1014 10.4727 20.1037C9.86867 19.9843 9.36439 19.5888 9.08755 19.0471C8.95934 18.799 8.88053 18.5191 8.86251 18.2207C8.79396 17.0975 9.64783 16.1316 10.7702 16.0625Z" fill="#FDD7BD"/>
<path d="M28.061 15.0011L32.5956 14.7226L39.1425 14.3205C42.4783 18.6682 43.3752 24.5728 41.2384 29.8159L33.6407 30.2824L29.0157 30.5664C28.4831 30.5995 28.0246 30.1934 27.9922 29.6602L27.1543 16.0256C27.1217 15.492 27.5274 15.0343 28.061 15.0011Z" fill="#87DBFF"/>
<path d="M28.0612 15.001L32.5958 14.7225L33.6409 30.2823L29.0159 30.5663C28.4833 30.5994 28.0248 30.1933 27.9923 29.6601L27.1544 16.0255C27.1219 15.492 27.5276 15.0342 28.0612 15.001Z" fill="#6FC7FF"/>
<path d="M8.33783 27.2303L11.7247 27.3396C12.2051 27.3556 12.6011 27.7206 12.655 28.1973L9.85309 28.3395C9.85352 28.3283 9.84706 28.317 9.83351 28.3152C9.58359 28.2762 9.34778 28.1908 9.13561 28.0683C8.7969 27.8727 8.51795 27.5813 8.33783 27.2303Z" fill="#FAC5AA"/>
<path d="M8.71461 23.1263L12.0271 23.2341C12.5078 23.2497 12.9039 23.6145 12.9579 24.0912L10.1559 24.2334L10.044 24.2239C10.0421 24.2019 10.0221 24.1844 9.99993 24.1855C9.8391 24.1383 9.68633 24.0717 9.5429 23.9889C9.19253 23.7866 8.90147 23.486 8.71461 23.1263Z" fill="#FAC5AA"/>
<path d="M9.08867 19.0469L12.0067 19.1415C12.486 19.1572 12.8824 19.5221 12.9368 19.9991L10.5096 20.1223C10.5047 20.1099 10.4907 20.1012 10.4738 20.1035C9.86978 19.9841 9.36551 19.5886 9.08867 19.0469Z" fill="#FAC5AA"/>
<path d="M8.30311 18.2547C8.34456 18.9295 8.64037 19.5487 9.13644 20.0051C8.36314 20.4958 7.87179 21.3814 7.9319 22.3584C7.97445 23.0537 8.28922 23.6687 8.76506 24.1074C8.56015 24.2371 8.37217 24.3962 8.2069 24.5831C7.7476 25.1028 7.51781 25.77 7.56055 26.4623C7.60186 27.1372 7.89767 27.7565 8.39388 28.2126C7.62057 28.7033 7.12923 29.589 7.1892 30.5662C7.27683 31.9948 8.51087 33.0862 9.93984 32.9985L13.034 32.8084C13.8777 34.1024 14.8988 35.2644 16.0747 36.2693C16.126 37.1416 16.2709 38.0086 16.5095 38.8466L16.9174 40.2787C17.2159 41.3277 18.2224 42.0404 19.3109 41.9733C20.5985 41.8943 21.5817 40.7824 21.5027 39.4948C21.4997 39.4439 21.4974 39.3931 21.4952 39.3424C24.8852 40.4807 28.5815 40.467 31.9917 39.2889C35.6925 38.0101 38.8103 35.4361 40.7705 32.0409C41.1463 31.3901 41.4782 30.7124 41.7566 30.027C43.9268 24.702 43.0951 18.5531 39.5867 13.9799C38.2857 12.2836 36.6787 10.8763 34.8108 9.79787C31.8525 8.08991 28.4976 7.36101 25.1089 7.68956C21.7935 8.01132 18.7013 9.31157 16.1663 11.4495C15.9299 11.6486 15.9 12.002 16.0992 12.2382C16.2986 12.4745 16.6517 12.5046 16.888 12.3051C19.2486 10.3142 22.1286 9.10359 25.2171 8.80402C28.3722 8.49787 31.4961 9.17684 34.251 10.7674C35.6753 11.5897 36.9363 12.6175 38.0114 13.8293L32.5592 14.1641C32.5588 14.1642 32.5586 14.1641 32.5582 14.1642C32.5579 14.164 32.5578 14.1643 32.5574 14.1644L28.0262 14.4425L28.026 14.4424C27.6191 14.4676 27.2462 14.6493 26.976 14.9548C26.7057 15.2602 26.5705 15.6527 26.5956 16.0596L26.601 16.1502L25.7208 16.2043C25.0927 16.2429 24.4783 16.0455 23.9901 15.6485C23.2833 15.0736 22.3933 14.7881 21.4844 14.8441L14.1836 15.2923C14.4843 14.8551 14.8067 14.4339 15.1484 14.0339C15.3494 13.7989 15.3216 13.4454 15.0865 13.2446C15.06 13.2218 15.0316 13.2019 15.0023 13.185C14.7732 13.0527 14.4754 13.0983 14.2974 13.3067C13.7457 13.952 13.2409 14.6478 12.7928 15.3777L10.7354 15.5041C10.0433 15.5466 9.40885 15.8561 8.94969 16.3757C8.49016 16.8953 8.26061 17.5626 8.30311 18.2547ZM14.335 32.7286L16.3825 32.6029L16.2205 33.5569C16.153 33.955 16.1071 34.3569 16.0802 34.7606C15.4388 34.1363 14.8554 33.457 14.335 32.7286ZM31.6261 38.2307C28.3486 39.3631 24.7877 39.3404 21.5501 38.1762C21.7377 36.7647 22.3602 35.4261 23.3421 34.3747L27.4721 29.9509C27.5434 30.2565 27.7056 30.5325 27.9454 30.7445C28.2509 31.0151 28.6433 31.1501 29.0502 31.1249L33.678 30.8409C33.6782 30.8411 33.6782 30.8411 33.6786 30.841C33.6786 30.841 33.6788 30.8411 33.679 30.8409L40.3537 30.4311C40.1834 30.7869 39.9991 31.1381 39.801 31.4811C37.9756 34.6428 35.0722 37.0399 31.6261 38.2307ZM27.8143 15.6966C27.8864 15.6152 27.9862 15.5666 28.095 15.5599L28.0947 15.5598L32.0745 15.3156L32.8171 26.3697C32.8379 26.6782 33.1048 26.9113 33.4133 26.8906C33.7216 26.8697 33.9548 26.6031 33.934 26.2946L33.1921 15.2469L38.8736 14.898C41.9263 19.0423 42.6709 24.5021 40.8391 29.2975L34.1626 29.6973L34.0855 28.546C34.0722 28.3525 33.9626 28.1886 33.8063 28.0984C33.7135 28.0449 33.6043 28.017 33.4894 28.0249C33.1809 28.0456 32.9476 28.3124 32.9683 28.6209L33.045 29.7641L28.9814 30.0075C28.8731 30.0144 28.7687 29.9783 28.6872 29.9062C28.6058 29.8341 28.5572 29.7343 28.5504 29.6258L27.713 15.9908C27.7063 15.8826 27.7423 15.7781 27.8143 15.6966ZM9.7882 17.1173C10.0496 16.8217 10.4104 16.6456 10.8042 16.6215L13.1562 16.477C13.1568 16.4771 13.1575 16.4769 13.1584 16.477L21.5532 15.9614C22.1812 15.9228 22.7958 16.1201 23.2839 16.5173C23.9906 17.0918 24.8804 17.3775 25.7896 17.3217L26.6698 17.2676L27.3557 28.4349L22.5237 33.6104C21.2791 34.9437 20.5309 36.6731 20.3939 38.477C20.3916 38.4953 20.39 38.5134 20.3895 38.5318C20.3658 38.874 20.3642 39.2184 20.3853 39.5636C20.4265 40.235 19.9139 40.8147 19.2421 40.8559C18.6746 40.8908 18.1496 40.5192 17.994 39.9723L17.5863 38.54C17.1454 36.9905 17.0547 35.3321 17.3245 33.7442L17.6045 32.0947C17.6051 32.0915 17.6053 32.0888 17.6058 32.0859C17.6064 32.0821 17.6069 32.0779 17.6074 32.0742C17.6087 32.0638 17.6098 32.0542 17.6099 32.0458C17.612 32.0197 17.6129 31.9933 17.6112 31.9666C17.5922 31.6578 17.3268 31.4231 17.0183 31.4422L9.8712 31.8809C9.0584 31.9308 8.35648 31.3102 8.30658 30.4974C8.25668 29.6846 8.87727 28.9827 9.69008 28.9328L10.3106 28.8946C10.3106 28.8946 10.3108 28.8947 10.3112 28.8946L11.6952 28.8095C11.6972 28.8094 11.6987 28.8089 11.7005 28.8091C11.7086 28.8083 11.7163 28.8077 11.723 28.8065C12.0177 28.774 12.238 28.5158 12.2196 28.2166C12.2008 27.908 11.9352 27.6731 11.6264 27.6921L10.2414 27.7773C9.84808 27.8011 9.46891 27.6706 9.17351 27.4094C8.87812 27.1481 8.70179 26.7872 8.67793 26.3935C8.65368 25.9999 8.78415 25.6201 9.0454 25.3247C9.30679 25.0291 9.66756 24.853 10.0614 24.8289L12.0666 24.7056C12.3752 24.6868 12.6099 24.4215 12.5909 24.1127C12.579 23.918 12.4689 23.7527 12.3117 23.6619C12.2199 23.6089 12.1118 23.5814 11.998 23.5883L11.6877 23.6074L10.6138 23.6733C9.80072 23.7231 9.09904 23.1026 9.04914 22.2898C8.99938 21.4768 9.61984 20.7751 10.4328 20.725L11.4343 20.6635C11.4395 20.6633 11.4448 20.6629 11.4501 20.6625L12.4378 20.6019C12.7464 20.5832 12.9813 20.3176 12.9623 20.0088C12.9503 19.8142 12.8403 19.6488 12.6831 19.558C12.5912 19.505 12.4831 19.4775 12.3694 19.4845L12.059 19.5035C12.059 19.5035 12.0589 19.5037 12.0586 19.5036L10.9849 19.5693C10.5913 19.5936 10.2117 19.4632 9.91621 19.2016C9.62044 18.9405 9.44449 18.5794 9.42025 18.1858C9.39624 17.7923 9.52695 17.4127 9.7882 17.1173Z" fill="#031F88"/>
</svg>
