<svg width="395" height="54" viewBox="0 0 395 54" fill="none" xmlns="http://www.w3.org/2000/svg">
<path d="M4.446 51.13C3.67467 51.13 2.99867 50.935 2.418 50.545C1.83733 50.1463 1.391 49.5917 1.079 48.881C0.775667 48.1703 0.624 47.36 0.624 46.45C0.624 45.54 0.775667 44.7297 1.079 44.019C1.391 43.3083 1.83733 42.758 2.418 42.368C2.99867 41.9693 3.67467 41.77 4.446 41.77C5.21733 41.77 5.889 41.9693 6.461 42.368C7.04167 42.758 7.488 43.3083 7.8 44.019C8.112 44.7297 8.268 45.54 8.268 46.45C8.268 47.36 8.112 48.1703 7.8 48.881C7.488 49.5917 7.04167 50.1463 6.461 50.545C5.889 50.935 5.21733 51.13 4.446 51.13ZM4.446 49.7C5.174 49.7 5.72867 49.414 6.11 48.842C6.5 48.2613 6.695 47.464 6.695 46.45C6.695 45.436 6.5 44.643 6.11 44.071C5.72867 43.4903 5.174 43.2 4.446 43.2C3.718 43.2 3.159 43.4903 2.769 44.071C2.38767 44.643 2.197 45.436 2.197 46.45C2.197 47.464 2.38767 48.2613 2.769 48.842C3.159 49.414 3.718 49.7 4.446 49.7Z" fill="#86969E"/>
<path d="M374.8 43.915C374.601 44.097 374.367 44.2227 374.098 44.292C373.838 44.3527 373.483 44.383 373.032 44.383V43.07H373.214C373.699 43.07 374.072 42.979 374.332 42.797C374.592 42.6063 374.748 42.3073 374.8 41.9H376.347V51H374.8V43.915ZM381.673 51.13C380.901 51.13 380.225 50.935 379.645 50.545C379.064 50.1463 378.618 49.5917 378.306 48.881C378.002 48.1703 377.851 47.36 377.851 46.45C377.851 45.54 378.002 44.7297 378.306 44.019C378.618 43.3083 379.064 42.758 379.645 42.368C380.225 41.9693 380.901 41.77 381.673 41.77C382.444 41.77 383.116 41.9693 383.688 42.368C384.268 42.758 384.715 43.3083 385.027 44.019C385.339 44.7297 385.495 45.54 385.495 46.45C385.495 47.36 385.339 48.1703 385.027 48.881C384.715 49.5917 384.268 50.1463 383.688 50.545C383.116 50.935 382.444 51.13 381.673 51.13ZM381.673 49.7C382.401 49.7 382.955 49.414 383.337 48.842C383.727 48.2613 383.922 47.464 383.922 46.45C383.922 45.436 383.727 44.643 383.337 44.071C382.955 43.4903 382.401 43.2 381.673 43.2C380.945 43.2 380.386 43.4903 379.996 44.071C379.614 44.643 379.424 45.436 379.424 46.45C379.424 47.464 379.614 48.2613 379.996 48.842C380.386 49.414 380.945 49.7 381.673 49.7ZM390.559 51.13C389.788 51.13 389.112 50.935 388.531 50.545C387.951 50.1463 387.504 49.5917 387.192 48.881C386.889 48.1703 386.737 47.36 386.737 46.45C386.737 45.54 386.889 44.7297 387.192 44.019C387.504 43.3083 387.951 42.758 388.531 42.368C389.112 41.9693 389.788 41.77 390.559 41.77C391.331 41.77 392.002 41.9693 392.574 42.368C393.155 42.758 393.601 43.3083 393.913 44.019C394.225 44.7297 394.381 45.54 394.381 46.45C394.381 47.36 394.225 48.1703 393.913 48.881C393.601 49.5917 393.155 50.1463 392.574 50.545C392.002 50.935 391.331 51.13 390.559 51.13ZM390.559 49.7C391.287 49.7 391.842 49.414 392.223 48.842C392.613 48.2613 392.808 47.464 392.808 46.45C392.808 45.436 392.613 44.643 392.223 44.071C391.842 43.4903 391.287 43.2 390.559 43.2C389.831 43.2 389.272 43.4903 388.882 44.071C388.501 44.643 388.31 45.436 388.31 46.45C388.31 47.464 388.501 48.2613 388.882 48.842C389.272 49.414 389.831 49.7 390.559 49.7Z" fill="#86969E"/>
<path d="M191.951 51.13C191.344 51.13 190.794 51.0087 190.3 50.766C189.806 50.5233 189.403 50.1853 189.091 49.752C188.788 49.3187 188.61 48.8203 188.558 48.257L188.61 48.153L190.092 48.01C190.153 48.4953 190.339 48.907 190.651 49.245C190.972 49.583 191.405 49.752 191.951 49.752C192.54 49.752 193.004 49.5787 193.342 49.232C193.68 48.8853 193.849 48.4043 193.849 47.789C193.849 47.1737 193.671 46.697 193.316 46.359C192.969 46.021 192.523 45.852 191.977 45.852C191.214 45.852 190.521 46.0903 189.897 46.567L188.792 46.021L189.377 41.9H194.733V43.226H190.56L190.222 45.137C190.482 44.9723 190.79 44.838 191.145 44.734C191.5 44.6213 191.869 44.565 192.25 44.565C193.221 44.565 193.992 44.851 194.564 45.423C195.136 45.9863 195.422 46.7577 195.422 47.737C195.422 48.3523 195.283 48.92 195.006 49.44C194.729 49.96 194.326 50.3717 193.797 50.675C193.268 50.9783 192.653 51.13 191.951 51.13ZM200.495 51.13C199.724 51.13 199.048 50.935 198.467 50.545C197.887 50.1463 197.44 49.5917 197.128 48.881C196.825 48.1703 196.673 47.36 196.673 46.45C196.673 45.54 196.825 44.7297 197.128 44.019C197.44 43.3083 197.887 42.758 198.467 42.368C199.048 41.9693 199.724 41.77 200.495 41.77C201.267 41.77 201.938 41.9693 202.51 42.368C203.091 42.758 203.537 43.3083 203.849 44.019C204.161 44.7297 204.317 45.54 204.317 46.45C204.317 47.36 204.161 48.1703 203.849 48.881C203.537 49.5917 203.091 50.1463 202.51 50.545C201.938 50.935 201.267 51.13 200.495 51.13ZM200.495 49.7C201.223 49.7 201.778 49.414 202.159 48.842C202.549 48.2613 202.744 47.464 202.744 46.45C202.744 45.436 202.549 44.643 202.159 44.071C201.778 43.4903 201.223 43.2 200.495 43.2C199.767 43.2 199.208 43.4903 198.818 44.071C198.437 44.643 198.246 45.436 198.246 46.45C198.246 47.464 198.437 48.2613 198.818 48.842C199.208 49.414 199.767 49.7 200.495 49.7Z" fill="#86969E"/>
<path d="M286.998 43.304H282.669V41.9H288.675V43.057L285.269 51H283.67L286.998 43.304ZM292.752 51.13C292.146 51.13 291.595 51.0087 291.101 50.766C290.607 50.5233 290.204 50.1853 289.892 49.752C289.589 49.3187 289.411 48.8203 289.359 48.257L289.411 48.153L290.893 48.01C290.954 48.4953 291.14 48.907 291.452 49.245C291.773 49.583 292.206 49.752 292.752 49.752C293.342 49.752 293.805 49.5787 294.143 49.232C294.481 48.8853 294.65 48.4043 294.65 47.789C294.65 47.1737 294.473 46.697 294.117 46.359C293.771 46.021 293.324 45.852 292.778 45.852C292.016 45.852 291.322 46.0903 290.698 46.567L289.593 46.021L290.178 41.9H295.534V43.226H291.361L291.023 45.137C291.283 44.9723 291.591 44.838 291.946 44.734C292.302 44.6213 292.67 44.565 293.051 44.565C294.022 44.565 294.793 44.851 295.365 45.423C295.937 45.9863 296.223 46.7577 296.223 47.737C296.223 48.3523 296.085 48.92 295.807 49.44C295.53 49.96 295.127 50.3717 294.598 50.675C294.07 50.9783 293.454 51.13 292.752 51.13Z" fill="#86969E"/>
<path d="M90.7508 47.687L94.4428 44.372C94.7808 44.0687 95.0364 43.7783 95.2098 43.501C95.3831 43.215 95.4698 42.8857 95.4698 42.513C95.4698 42.097 95.3354 41.7677 95.0668 41.525C94.7981 41.2737 94.4471 41.148 94.0138 41.148C93.5111 41.148 93.1081 41.2997 92.8048 41.603C92.5014 41.8977 92.3368 42.3007 92.3108 42.812L90.8418 42.695L90.8028 42.604C90.8461 42.0753 91.0064 41.5943 91.2838 41.161C91.5611 40.7277 91.9338 40.3897 92.4018 40.147C92.8698 39.8957 93.4028 39.77 94.0008 39.77C94.5728 39.77 95.0841 39.8827 95.5348 40.108C95.9941 40.3247 96.3494 40.6367 96.6008 41.044C96.8608 41.4427 96.9908 41.9063 96.9908 42.435C96.9908 42.9983 96.8651 43.501 96.6138 43.943C96.3624 44.385 95.9854 44.8227 95.4828 45.256L92.8568 47.57H97.1468V49H90.7508V47.687ZM101.684 49.13C101.077 49.13 100.527 49.0087 100.033 48.766C99.5389 48.5233 99.1359 48.1853 98.8239 47.752C98.5205 47.3187 98.3429 46.8203 98.2909 46.257L98.3429 46.153L99.8249 46.01C99.8855 46.4953 100.072 46.907 100.384 47.245C100.705 47.583 101.138 47.752 101.684 47.752C102.273 47.752 102.737 47.5787 103.075 47.232C103.413 46.8853 103.582 46.4043 103.582 45.789C103.582 45.1737 103.404 44.697 103.049 44.359C102.702 44.021 102.256 43.852 101.71 43.852C100.947 43.852 100.254 44.0903 99.6299 44.567L98.5249 44.021L99.1099 39.9H104.466V41.226H100.293L99.9549 43.137C100.215 42.9723 100.523 42.838 100.878 42.734C101.233 42.6213 101.602 42.565 101.983 42.565C102.954 42.565 103.725 42.851 104.297 43.423C104.869 43.9863 105.155 44.7577 105.155 45.737C105.155 46.3523 105.016 46.92 104.739 47.44C104.462 47.96 104.059 48.3717 103.53 48.675C103.001 48.9783 102.386 49.13 101.684 49.13Z" fill="#86969E"/>
<rect y="28" width="395" height="5" rx="2.5" fill="#EFF2F9"/>
<rect y="28" width="290" height="5" rx="2.5" fill="#43D14F"/>
<g filter="url(#filter0_d)">
<circle cx="290" cy="30" r="6" fill="white"/>
</g>
<circle cx="290" cy="30" r="4" fill="#43D14F"/>
<path d="M270 9.25397C270 4.14314 274.143 0 279.254 0H300.746C305.857 0 310 4.14314 310 9.25397C310 14.3648 305.857 18.5079 300.746 18.5079H292.523C292.508 18.5079 292.494 18.5137 292.484 18.5239L290.212 20.7889C290.095 20.9056 289.905 20.9056 289.788 20.7889L287.516 18.5239C287.506 18.5137 287.492 18.5079 287.477 18.5079H279.254C274.143 18.5079 270 14.3648 270 9.25397Z" fill="#43D14F"/>
<path d="M281.564 6.23544H276.902V4.72344H283.37V5.96944L279.702 14.5234H277.98L281.564 6.23544ZM287.76 14.6634C287.107 14.6634 286.514 14.5328 285.982 14.2714C285.45 14.0101 285.016 13.6461 284.68 13.1794C284.354 12.7128 284.162 12.1761 284.106 11.5694L284.162 11.4574L285.758 11.3034C285.824 11.8261 286.024 12.2694 286.36 12.6334C286.706 12.9974 287.172 13.1794 287.76 13.1794C288.395 13.1794 288.894 12.9928 289.258 12.6194C289.622 12.2461 289.804 11.7281 289.804 11.0654C289.804 10.4028 289.613 9.88944 289.23 9.52544C288.857 9.16144 288.376 8.97944 287.788 8.97944C286.967 8.97944 286.22 9.2361 285.548 9.74944L284.358 9.16144L284.988 4.72344H290.756V6.15144H286.262L285.898 8.20944C286.178 8.0321 286.51 7.88744 286.892 7.77544C287.275 7.6541 287.672 7.59344 288.082 7.59344C289.128 7.59344 289.958 7.90144 290.574 8.51744C291.19 9.1241 291.498 9.95477 291.498 11.0094C291.498 11.6721 291.349 12.2834 291.05 12.8434C290.752 13.4034 290.318 13.8468 289.748 14.1734C289.179 14.5001 288.516 14.6634 287.76 14.6634ZM295.086 9.39944C294.619 9.39944 294.204 9.29677 293.84 9.09144C293.485 8.8861 293.205 8.60144 293 8.23744C292.804 7.8641 292.706 7.44877 292.706 6.99144C292.706 6.5341 292.804 6.12344 293 5.75944C293.205 5.3861 293.485 5.09677 293.84 4.89144C294.204 4.6861 294.619 4.58344 295.086 4.58344C295.552 4.58344 295.963 4.6861 296.318 4.89144C296.682 5.09677 296.962 5.3861 297.158 5.75944C297.363 6.12344 297.466 6.5341 297.466 6.99144C297.466 7.44877 297.363 7.8641 297.158 8.23744C296.962 8.60144 296.682 8.8861 296.318 9.09144C295.963 9.29677 295.552 9.39944 295.086 9.39944ZM293.77 13.7114L301.148 4.79344L302.044 5.53544L294.666 14.4534L293.77 13.7114ZM295.086 8.30744C295.45 8.30744 295.748 8.19544 295.982 7.97144C296.215 7.7381 296.332 7.41144 296.332 6.99144C296.332 6.57144 296.215 6.24944 295.982 6.02544C295.748 5.7921 295.45 5.67544 295.086 5.67544C294.722 5.67544 294.423 5.7921 294.19 6.02544C293.956 6.24944 293.84 6.57144 293.84 6.99144C293.84 7.41144 293.956 7.7381 294.19 7.97144C294.423 8.19544 294.722 8.30744 295.086 8.30744ZM300.742 14.6634C300.275 14.6634 299.86 14.5608 299.496 14.3554C299.141 14.1501 298.861 13.8654 298.656 13.5014C298.46 13.1281 298.362 12.7128 298.362 12.2554C298.362 11.7981 298.46 11.3874 298.656 11.0234C298.861 10.6501 299.141 10.3608 299.496 10.1554C299.86 9.9501 300.275 9.84744 300.742 9.84744C301.208 9.84744 301.619 9.9501 301.974 10.1554C302.338 10.3608 302.618 10.6501 302.814 11.0234C303.019 11.3874 303.122 11.7981 303.122 12.2554C303.122 12.7128 303.019 13.1281 302.814 13.5014C302.618 13.8654 302.338 14.1501 301.974 14.3554C301.619 14.5608 301.208 14.6634 300.742 14.6634ZM300.742 13.5714C301.106 13.5714 301.404 13.4594 301.638 13.2354C301.871 13.0021 301.988 12.6754 301.988 12.2554C301.988 11.8354 301.871 11.5134 301.638 11.2894C301.404 11.0561 301.106 10.9394 300.742 10.9394C300.378 10.9394 300.079 11.0561 299.846 11.2894C299.612 11.5134 299.496 11.8354 299.496 12.2554C299.496 12.6754 299.612 13.0021 299.846 13.2354C300.079 13.4594 300.378 13.5714 300.742 13.5714Z" fill="white"/>
<defs>
<filter id="filter0_d" x="273" y="13" width="34" height="34" filterUnits="userSpaceOnUse" color-interpolation-filters="sRGB">
<feFlood flood-opacity="0" result="BackgroundImageFix"/>
<feColorMatrix in="SourceAlpha" type="matrix" values="0 0 0 0 0 0 0 0 0 0 0 0 0 0 0 0 0 0 127 0"/>
<feMorphology radius="2" operator="dilate" in="SourceAlpha" result="effect1_dropShadow"/>
<feOffset/>
<feGaussianBlur stdDeviation="4.5"/>
<feColorMatrix type="matrix" values="0 0 0 0 0.583333 0 0 0 0 0.576129 0 0 0 0 0.576042 0 0 0 0.2 0"/>
<feBlend mode="normal" in2="BackgroundImageFix" result="effect1_dropShadow"/>
<feBlend mode="normal" in="SourceGraphic" in2="effect1_dropShadow" result="shape"/>
</filter>
</defs>
</svg>
