<svg width="49" height="50" viewBox="0 0 49 50" fill="none" xmlns="http://www.w3.org/2000/svg">
<path d="M36.0787 33.2969C31.7367 40.8174 22.1195 43.3937 14.5991 39.0518C12.7542 37.9866 11.2072 36.6044 9.98731 35.0134C6.65133 30.6659 5.75456 24.7611 7.89128 19.5182C8.15968 18.8578 8.47729 18.2077 8.84382 17.5729C13.1862 10.0517 22.8027 7.47496 30.3231 11.8169C37.8436 16.1588 40.421 25.7758 36.0787 33.2969Z" fill="#43D14F"/>
<path d="M30.3235 11.8172C29.6035 11.4015 28.8643 11.0498 28.1124 10.7591C34.0408 15.5377 35.773 24.0523 31.8463 30.8534C27.9202 37.6536 19.6809 40.4109 12.5789 37.6666C13.2062 38.1721 13.8797 38.6365 14.5995 39.052C22.1199 43.394 31.7371 40.8176 36.0791 33.2972C40.4214 25.776 37.844 16.1591 30.3235 11.8172Z" fill="#24BE31"/>
<path d="M38.3607 33.2715L27.6116 33.9312C26.8458 33.9783 26.0907 33.7365 25.4953 33.2529C24.8982 32.7686 24.1426 32.5239 23.3749 32.571L21.9361 32.6597L21.0679 20.7047L26.064 15.3532C26.4529 14.9367 26.7892 14.4811 27.0695 13.9956C27.7946 12.7397 28.1431 11.2879 28.053 9.81694C28.0309 9.45532 28.1191 9.11139 28.2877 8.8193C28.5763 8.31955 29.1015 7.9695 29.7207 7.93148C30.5554 7.87994 31.3125 8.41636 31.5413 9.22045L31.9495 10.6524C32.4155 12.2919 32.5101 14.015 32.2244 15.6952L31.9461 17.3375L39.0914 16.9064C40.2332 16.8365 41.2129 17.7208 41.2517 18.8714C41.2899 19.9803 40.4069 20.9065 39.2989 20.9744C39.2854 20.9752 39.2791 20.9851 39.2776 20.9948C39.2773 21.0057 39.2837 21.0173 39.2972 21.0191C39.5471 21.0581 39.7829 21.1435 39.9951 21.266C40.3336 21.4614 40.6129 21.7527 40.7929 22.104C40.9167 22.3461 40.9935 22.6172 41.0115 22.9057C41.0455 23.4632 40.852 23.9823 40.511 24.3715C39.9737 24.9852 39.2644 25.0514 39.1265 25.0616C39.1029 25.0635 39.0851 25.0839 39.0866 25.1083C39.0862 25.109 39.0866 25.1099 39.0873 25.1103C39.0892 25.1323 39.1092 25.1499 39.1314 25.1487C39.292 25.1958 39.4448 25.2624 39.5884 25.3454C39.9386 25.5475 40.2295 25.8484 40.4167 26.208C40.5431 26.4516 40.6225 26.7232 40.6398 27.0097C40.7089 28.1321 39.8547 29.0981 38.7316 29.1667C38.7038 29.1688 38.676 29.1708 38.6486 29.1721C38.6316 29.1746 38.6197 29.1875 38.6197 29.2014C38.6195 29.2044 38.6206 29.2086 38.6224 29.2115C38.6273 29.2238 38.6413 29.2326 38.6582 29.2303C39.2622 29.3497 39.7665 29.7452 40.0433 30.2869C40.1715 30.535 40.2503 30.8149 40.2684 31.1132C40.3369 32.2365 39.483 33.2024 38.3607 33.2715Z" fill="#FDD7BD"/>
<path d="M21.0689 34.3329L16.5343 34.6114L9.98742 35.0135C6.65157 30.6658 5.75467 24.7612 7.89153 19.5181L15.4892 19.0516L20.1142 18.7676C20.6468 18.7345 21.1052 19.1406 21.1377 19.6738L21.9756 33.3084C22.0082 33.8419 21.6024 34.2997 21.0689 34.3329Z" fill="#87DBFF"/>
<path d="M21.0697 34.333L16.5351 34.6115L15.49 19.0517L20.115 18.7677C20.6476 18.7345 21.1061 19.1407 21.1385 19.6739L21.9764 33.3085C22.009 33.842 21.6033 34.2998 21.0697 34.333Z" fill="#6FC7FF"/>
<path d="M40.792 22.1037L37.4052 21.9944C36.9248 21.9784 36.5288 21.6134 36.4749 21.1366L39.2768 20.9945C39.2764 21.0057 39.2828 21.017 39.2964 21.0188C39.5463 21.0578 39.7821 21.1432 39.9943 21.2657C40.333 21.4612 40.6119 21.7526 40.792 22.1037Z" fill="#FAC5AA"/>
<path d="M40.4163 26.2077L37.1038 26.0998C36.6231 26.0843 36.227 25.7195 36.173 25.2428L38.9749 25.1006L39.0868 25.11C39.0887 25.1321 39.1087 25.1496 39.1309 25.1485C39.2918 25.1957 39.4445 25.2623 39.588 25.3451C39.9383 25.5474 40.2294 25.848 40.4163 26.2077Z" fill="#FAC5AA"/>
<path d="M40.0422 30.287L37.1242 30.1925C36.6448 30.1768 36.2485 29.8119 36.1941 29.3349L38.6213 29.2117C38.6262 29.224 38.6402 29.2328 38.657 29.2304C39.2611 29.3499 39.7654 29.7454 40.0422 30.287Z" fill="#FAC5AA"/>
<path d="M40.8268 31.0792C40.7853 30.4045 40.4895 29.7853 39.9934 29.3289C40.7667 28.8382 41.2581 27.9525 41.198 26.9756C41.1554 26.2803 40.8407 25.6653 40.3648 25.2266C40.5697 25.0969 40.7577 24.9378 40.923 24.7509C41.3823 24.2311 41.6121 23.564 41.5693 22.8717C41.528 22.1967 41.2322 21.5775 40.736 21.1213C41.5093 20.6306 42.0007 19.745 41.9407 18.7678C41.8531 17.3392 40.619 16.2477 39.19 16.3355L36.0959 16.5256C35.2522 15.2316 34.2311 14.0696 33.0552 13.0647C33.0038 12.1924 32.859 11.3254 32.6204 10.4874L32.2125 9.05528C31.914 8.0063 30.9075 7.29359 29.819 7.36066C28.5314 7.43966 27.5482 8.5516 27.6272 9.83916C27.6302 9.89004 27.6325 9.94088 27.6346 9.99158C24.2447 8.85328 20.5484 8.86694 17.1382 10.0451C13.4374 11.3238 10.3196 13.8979 8.35933 17.2931C7.9836 17.9439 7.65166 18.6215 7.37328 19.307C5.20307 24.632 6.03474 30.7808 9.54323 35.3541C10.8442 37.0503 12.4512 38.4577 14.3191 39.5361C17.2774 41.2441 20.6322 41.973 24.021 41.6444C27.3364 41.3227 30.4286 40.0224 32.9636 37.8844C33.2 37.6854 33.2299 37.3319 33.0307 37.0958C32.8313 36.8595 32.4782 36.8294 32.2419 37.0289C29.8813 39.0198 27.0013 40.2304 23.9128 40.53C20.7577 40.8361 17.6338 40.1571 14.8789 38.5666C13.4546 37.7443 12.1936 36.7165 11.1185 35.5047L16.5707 35.1699C16.5711 35.1698 16.5713 35.1699 16.5717 35.1698C16.5719 35.17 16.5721 35.1697 16.5725 35.1696L21.1037 34.8914L21.1039 34.8916C21.5108 34.8664 21.8837 34.6846 22.1539 34.3792C22.4241 34.0738 22.5594 33.6812 22.5343 33.2744L22.5289 33.1837L23.4091 33.1297C24.0371 33.0911 24.6516 33.2885 25.1398 33.6855C25.8466 34.2604 26.7366 34.5459 27.6455 34.4899L34.9462 34.0417C34.6456 34.4789 34.3231 34.9001 33.9815 35.3001C33.7805 35.5351 33.8083 35.8885 34.0434 36.0893C34.0699 36.1122 34.0983 36.1321 34.1276 36.149C34.3566 36.2813 34.6545 36.2356 34.8325 36.0273C35.3842 35.382 35.889 34.6862 36.337 33.9563L38.3944 33.8299C39.0866 33.7874 39.721 33.4779 40.1802 32.9583C40.6397 32.4387 40.8693 31.7714 40.8268 31.0792ZM34.7949 16.6053L32.7474 16.7311L32.9094 15.7771C32.9768 15.379 33.0227 14.9771 33.0497 14.5733C33.6911 15.1977 34.2744 15.877 34.7949 16.6053ZM17.5037 11.1033C20.7813 9.97091 24.3421 9.99354 27.5798 11.1578C27.3922 12.5692 26.7697 13.9078 25.7877 14.9593L21.6578 19.3831C21.5865 19.0775 21.4243 18.8014 21.1845 18.5894C20.879 18.3188 20.4865 18.1839 20.0797 18.2091L15.4519 18.4931C15.4517 18.4929 15.4517 18.4929 15.4513 18.493C15.4513 18.493 15.451 18.4929 15.4509 18.4931L8.7762 18.9029C8.94646 18.547 9.13083 18.1958 9.32886 17.8528C11.1542 14.6912 14.0577 12.294 17.5037 11.1033ZM21.3155 33.6373C21.2435 33.7188 21.1437 33.7674 21.0349 33.7741L21.0351 33.7742L17.0554 34.0184L16.3128 22.9643C16.292 22.6558 16.0251 22.4227 15.7166 22.4434C15.4083 22.4643 15.1751 22.7308 15.1959 23.0393L15.9378 34.0871L10.2563 34.436C7.20356 30.2917 6.459 24.8319 8.29077 20.0365L14.9673 19.6367L15.0444 20.788C15.0577 20.9815 15.1673 21.1453 15.3236 21.2356C15.4163 21.2891 15.5255 21.317 15.6405 21.3091C15.949 21.2884 16.1823 21.0216 16.1615 20.7131L16.0848 19.5698L20.1485 19.3265C20.2568 19.3196 20.3612 19.3557 20.4426 19.4278C20.5241 19.4999 20.5727 19.5996 20.5795 19.7082L21.4169 33.3432C21.4236 33.4514 21.3876 33.5559 21.3155 33.6373ZM39.3417 32.2167C39.0803 32.5123 38.7195 32.6884 38.3257 32.7125L35.9737 32.8569C35.9731 32.8569 35.9723 32.8571 35.9715 32.8569L27.5767 33.3725C26.9487 33.4111 26.334 33.2139 25.846 32.8167C25.1393 32.2422 24.2495 31.9565 23.3403 32.0123L22.4601 32.0664L21.7742 20.8991L26.6062 15.7236C27.8508 14.3902 28.599 12.6609 28.7359 10.857C28.7383 10.8387 28.7399 10.8206 28.7403 10.8022C28.7641 10.46 28.7657 10.1156 28.7446 9.77038C28.7034 9.099 29.216 8.51931 29.8878 8.47804C30.4553 8.4432 30.9803 8.81483 31.1359 9.36166L31.5436 10.794C31.9845 12.3434 32.0752 14.0019 31.8054 15.5898L31.5254 17.2393C31.5248 17.2425 31.5245 17.2452 31.5241 17.2481C31.5235 17.2519 31.523 17.256 31.5224 17.2598C31.5212 17.2702 31.5201 17.2797 31.52 17.2882C31.5179 17.3143 31.517 17.3407 31.5187 17.3674C31.5377 17.6762 31.803 17.9109 32.1116 17.8917L39.2587 17.4531C40.0715 17.4032 40.7734 18.0238 40.8233 18.8366C40.8732 19.6494 40.2526 20.3513 39.4398 20.4012L38.8193 20.4394C38.8193 20.4394 38.8191 20.4393 38.8187 20.4394L37.4347 20.5245C37.4327 20.5246 37.4312 20.525 37.4293 20.5249C37.4213 20.5257 37.4136 20.5263 37.4069 20.5275C37.1122 20.56 36.8918 20.8181 36.9103 21.1174C36.9291 21.426 37.1947 21.6609 37.5034 21.6419L38.8885 21.5567C39.2818 21.5329 39.661 21.6633 39.9564 21.9246C40.2518 22.1858 40.4281 22.5468 40.452 22.9405C40.4762 23.3341 40.3457 23.7139 40.0845 24.0093C39.8231 24.3049 39.4623 24.481 39.0685 24.5051L37.0633 24.6284C36.7547 24.6472 36.52 24.9125 36.539 25.2213C36.5509 25.4159 36.661 25.5813 36.8182 25.6721C36.91 25.7251 37.0181 25.7526 37.1318 25.7456L37.4422 25.7266L38.5161 25.6606C39.3292 25.6109 40.0308 26.2313 40.0807 27.0441C40.1305 27.8572 39.51 28.5589 38.6971 28.609L37.6956 28.6705C37.6904 28.6706 37.6851 28.6711 37.6798 28.6715L36.6921 28.732C36.3835 28.7508 36.1486 29.0164 36.1676 29.3252C36.1796 29.5198 36.2896 29.6852 36.4468 29.7759C36.5386 29.829 36.6468 29.8565 36.7605 29.8495L37.0709 29.8305C37.0709 29.8305 37.071 29.8303 37.0712 29.8304L38.145 29.7647C38.5386 29.7404 38.9182 29.8708 39.2137 30.1324C39.5094 30.3935 39.6854 30.7545 39.7096 31.1482C39.7336 31.5416 39.6029 31.9213 39.3417 32.2167Z" fill="#031F88"/>
</svg>
