<svg width="66" height="54" viewBox="0 0 66 54" fill="none" xmlns="http://www.w3.org/2000/svg">
<circle cx="33.5" cy="29.5" r="22.5" fill="#EFF2F9"/>
<path d="M1 13.3501C1 10.3125 3.46243 7.8501 6.5 7.8501H35.4375C38.4751 7.8501 40.9375 10.3125 40.9375 13.3501V29.2482C40.9375 32.2858 38.4751 34.7482 35.4375 34.7482H16.5606C16.2674 34.7482 15.9806 34.8342 15.7357 34.9954L16.0107 35.413L15.7357 34.9954L10.1672 38.662C9.8347 38.8809 9.39219 38.6424 9.39219 38.2444V36.2482C9.39219 35.4198 8.72061 34.7482 7.89219 34.7482H6.5C3.46244 34.7482 1 32.2858 1 29.2482V13.3501Z" fill="#EBEFFF" stroke="#3962FA"/>
<path d="M65.5 26.45C65.5 23.4124 63.0376 20.95 60 20.95H31.0625C28.0249 20.95 25.5625 23.4124 25.5625 26.45V42.3481C25.5625 45.3857 28.0249 47.8481 31.0625 47.8481H49.9394C50.2326 47.8481 50.5194 47.934 50.7643 48.0953L50.4893 48.5129L50.7643 48.0953L56.3328 51.7618C56.6653 51.9807 57.1078 51.7423 57.1078 51.3442V49.3481C57.1078 48.5197 57.7794 47.8481 58.6078 47.8481H60C63.0376 47.8481 65.5 45.3857 65.5 42.3481V26.45Z" fill="#FFE9EF" stroke="#FC2133"/>
<mask id="mask0" mask-type="alpha" maskUnits="userSpaceOnUse" x="0" y="0" width="42" height="39">
<path d="M15.7499 34.1606L16.0165 34.5835L15.7499 34.1606L10.2109 37.6527V36.507C10.2109 35.1263 9.09165 34.007 7.71094 34.007H6.76584C3.74884 34.007 1.29501 31.5766 1.26609 28.5598L1.05804 6.85276C1.02873 3.79473 3.49961 1.30005 6.55778 1.30005H35.4375C38.4751 1.30005 40.9375 3.76248 40.9375 6.80005V28.4294C40.9375 31.467 38.4751 33.9294 35.4375 33.9294H16.5499C16.2667 33.9294 15.9894 34.0096 15.7499 34.1606Z" fill="#EBEFFF" stroke="#3962FA"/>
</mask>
<g mask="url(#mask0)">
<rect x="13.4463" y="2.55646" width="3.9125" height="16.1938" rx="0.5" transform="rotate(15 13.4463 2.55646)" fill="white" stroke="#031F88"/>
<path d="M8.6191 14.2437C8.70881 13.9088 9.15264 13.7247 9.50458 13.9687C11.2376 15.1701 12.7753 15.5807 14.9486 15.4083C15.3674 15.375 15.6563 15.7509 15.5666 16.0855L9.75299 37.7823C9.39564 39.116 8.02479 39.9074 6.69113 39.5501L4.57817 38.9839C3.2445 38.6265 2.45304 37.2557 2.8104 35.922L8.6191 14.2437Z" fill="#87A7FD" stroke="#031F88"/>
<line x1="13.14" y1="4.49979" x2="14.3769" y2="6.64204" stroke="#031F88" stroke-linecap="round"/>
<line x1="12.0805" y1="8.45401" x2="13.3173" y2="10.5963" stroke="#031F88" stroke-linecap="round"/>
<rect x="8.16211" y="23.509" width="3.275" height="7.36875" rx="1" transform="rotate(15 8.16211 23.509)" fill="#031F88"/>
<rect width="0.81875" height="13.9187" rx="0.409375" transform="matrix(-0.965926 -0.258819 -0.258819 0.965926 10.9873 20.8755)" fill="#031F88"/>
<ellipse cx="8.47119" cy="9.86037" rx="2.00592" ry="2.29248" transform="rotate(15 8.47119 9.86037)" fill="white"/>
<ellipse cx="8.47122" cy="9.86008" rx="0.85968" ry="1.14624" transform="rotate(15 8.47122 9.86008)" fill="#031F88"/>
<ellipse cx="17.8813" cy="12.3823" rx="2.00592" ry="2.29248" transform="rotate(15 17.8813 12.3823)" fill="white"/>
<ellipse cx="17.8824" cy="12.3822" rx="0.85968" ry="1.14624" transform="rotate(15 17.8824 12.3822)" fill="#031F88"/>
</g>
<mask id="mask1" mask-type="alpha" maskUnits="userSpaceOnUse" x="25" y="15" width="41" height="38">
<path d="M37.7472 46.9689L37.7471 46.9687L37.7589 46.9689L50.5058 47.1164C50.8485 47.1204 51.1796 47.2416 51.4438 47.4598L56.2894 51.4625C56.6154 51.7318 57.1078 51.4999 57.1078 51.077V48.6205C57.1078 47.792 57.7794 47.1205 58.6078 47.1205H60C63.0376 47.1205 65.5 44.658 65.5 41.6205V21.5376C65.5 18.5 63.0376 16.0376 60 16.0376H31.0625C28.0249 16.0376 25.5625 18.5 25.5625 21.5376V41.5484C25.5625 44.6116 28.0652 47.0846 31.1282 47.048L37.7472 46.9689Z" fill="#FFE9EF" stroke="#FB275D"/>
</mask>
<g mask="url(#mask1)">
<path d="M39.9772 28.7413L46.0001 27.1275L52.1822 50.1995C52.4105 51.0517 51.9048 51.9276 51.0526 52.156L48.1159 52.9429C47.2637 53.1712 46.3877 52.6655 46.1594 51.8133L39.9772 28.7413Z" fill="#EFF2F9" stroke="#031F88" stroke-width="0.63899"/>
<path d="M43.8588 35.2614C43.7079 34.6984 44.042 34.1197 44.605 33.9689C45.168 33.818 45.7467 34.1521 45.8976 34.7151L49.456 47.9953C49.6068 48.5583 49.2727 49.137 48.7097 49.2878C48.1467 49.4387 47.568 49.1046 47.4172 48.5416L43.8588 35.2614Z" fill="#86969E" fill-opacity="0.4" stroke="#031F88" stroke-width="0.63899"/>
<path d="M34.1788 25.6941C33.3972 22.7773 34.3479 19.804 36.4017 17.8669L38.3875 25.2781C38.9245 27.2821 40.9844 28.4714 42.9884 27.9344C44.9925 27.3975 46.1818 25.3375 45.6448 23.3335L43.659 15.9223C46.4062 16.573 48.7161 18.6726 49.4977 21.5894C50.6312 25.8196 48.1208 30.1678 43.8906 31.3013C39.6604 32.4347 35.3122 29.9243 34.1788 25.6941Z" fill="#EFF2F9" stroke="#031F88" stroke-width="0.63899"/>
<ellipse cx="36.29" cy="24.0526" rx="0.721795" ry="0.962394" transform="rotate(-15 36.29 24.0526)" fill="#031F88"/>
<ellipse cx="46.8477" cy="21.2237" rx="0.721795" ry="0.962394" transform="rotate(-15 46.8477 21.2237)" fill="#031F88"/>
</g>
</svg>
