<svg width="52" height="52" viewBox="0 0 52 52" fill="none" xmlns="http://www.w3.org/2000/svg">
<path d="M42.25 52H9.75C4.36475 52 0 47.6352 0 42.25V9.75C0 4.36475 4.36475 0 9.75 0H42.25C47.6352 0 52 4.36475 52 9.75V42.25C52 47.6352 47.6352 52 42.25 52Z" fill="#43D14F" fill-opacity="0.2"/>
<path d="M12 11.335C12 10.7827 12.4477 10.335 13 10.335H43V35.335H12V11.335Z" fill="#43D14F" fill-opacity="0.8"/>
<rect x="19" y="22.335" width="7" height="2" rx="1" transform="rotate(90 19 22.335)" fill="#031F88"/>
<rect x="27" y="13.335" width="16" height="2" rx="1" transform="rotate(90 27 13.335)" fill="#031F88"/>
<rect x="35" y="18.335" width="11" height="2" rx="1" transform="rotate(90 35 18.335)" fill="#031F88"/>
<path fill-rule="evenodd" clip-rule="evenodd" d="M7 6.33496C6.44772 6.33496 6 6.78268 6 7.33496C6 7.88725 6.44771 8.33496 7 8.33496H8L8 34.335H7C6.44772 34.335 6 34.7827 6 35.335C6 35.8872 6.44771 36.335 7 36.335H9H23.1548L18.6342 44.165C18.358 44.6432 18.5219 45.2548 19.0002 45.531C19.4785 45.8071 20.0901 45.6432 20.3662 45.165L25.3662 36.5047C25.398 36.4496 25.4239 36.3928 25.4443 36.335H26.5561C26.5764 36.3928 26.6024 36.4496 26.6342 36.5047L31.6342 45.165C31.9103 45.6432 32.5219 45.8071 33.0002 45.531C33.4785 45.2548 33.6424 44.6432 33.3662 44.165L28.8456 36.335H43H45C45.5523 36.335 46 35.8872 46 35.335C46 34.7827 45.5523 34.335 45 34.335H44V8.33496H45C45.5523 8.33496 46 7.88725 46 7.33496C46 6.78268 45.5523 6.33496 45 6.33496H43H9H7ZM41.5 34.335C41.7761 34.335 42 34.1111 42 33.835V8.83496C42 8.55882 41.7761 8.33496 41.5 8.33496H10.5C10.2239 8.33496 10 8.55882 10 8.83496L10 33.835C10 34.1111 10.2239 34.335 10.5 34.335H41.5Z" fill="#031F88"/>
</svg>
