<svg width="414" height="60" viewBox="0 0 414 60" fill="none" xmlns="http://www.w3.org/2000/svg">
<rect width="414" height="60" rx="10" fill="#EFF2F9"/>
<g opacity="0.5">
<rect x="20" y="27" width="2" height="6" rx="1" fill="#43D14F"/>
<rect x="25" y="24" width="2" height="12" rx="1" fill="#43D14F"/>
<rect x="30" y="18" width="2" height="24" rx="1" fill="#43D14F"/>
<rect x="35" y="24" width="2" height="12" rx="1" fill="#43D14F"/>
<rect x="40" y="27" width="2" height="6" rx="1" fill="#43D14F"/>
<rect x="45" y="24" width="2" height="12" rx="1" fill="#43D14F"/>
<rect x="50" y="21" width="2" height="18" rx="1" fill="#43D14F"/>
<rect x="55" y="18" width="2" height="24" rx="1" fill="#43D14F"/>
<rect x="60" y="15" width="2" height="30" rx="1" fill="#43D14F"/>
<rect x="65" y="18" width="2" height="24" rx="1" fill="#43D14F"/>
<rect x="70" y="21" width="2" height="18" rx="1" fill="#43D14F"/>
<rect x="75" y="24" width="2" height="12" rx="1" fill="#43D14F"/>
<rect x="80" y="27" width="2" height="6" rx="1" fill="#43D14F"/>
<rect x="85" y="27" width="2" height="6" rx="1" fill="#43D14F"/>
<rect x="90" y="24" width="2" height="12" rx="1" fill="#43D14F"/>
<rect x="95" y="21" width="2" height="18" rx="1" fill="#43D14F"/>
<rect x="100" y="18" width="2" height="24" rx="1" fill="#43D14F"/>
<rect x="105" y="15" width="2" height="30" rx="1" fill="#43D14F"/>
<rect x="110" y="18" width="2" height="24" rx="1" fill="#43D14F"/>
<rect x="115" y="21" width="2" height="18" rx="1" fill="#43D14F"/>
<rect x="120" y="24" width="2" height="12" rx="1" fill="#43D14F"/>
<rect x="125" y="27" width="2" height="6" rx="1" fill="#43D14F"/>
<rect x="130" y="28" width="2" height="4" rx="1" fill="#43D14F"/>
</g>
<g opacity="0.5">
<rect x="225" y="27" width="2" height="6" rx="1" fill="#43D14F"/>
<rect x="230" y="24" width="2" height="12" rx="1" fill="#43D14F"/>
<rect x="235" y="18" width="2" height="24" rx="1" fill="#43D14F"/>
<rect x="240" y="24" width="2" height="12" rx="1" fill="#43D14F"/>
<rect x="245" y="27" width="2" height="6" rx="1" fill="#43D14F"/>
<rect x="135" y="28" width="2" height="4" rx="1" fill="#43D14F"/>
<rect x="140" y="27" width="2" height="6" rx="1" fill="#43D14F"/>
<rect x="145" y="24" width="2" height="12" rx="1" fill="#43D14F"/>
<rect x="150" y="21" width="2" height="18" rx="1" fill="#43D14F"/>
<rect x="155" y="18" width="2" height="24" rx="1" fill="#43D14F"/>
<rect x="160" y="15" width="2" height="30" rx="1" fill="#43D14F"/>
<rect x="165" y="18" width="2" height="24" rx="1" fill="#43D14F"/>
<rect x="170" y="21" width="2" height="18" rx="1" fill="#43D14F"/>
<rect x="175" y="24" width="2" height="12" rx="1" fill="#43D14F"/>
<rect x="180" y="27" width="2" height="6" rx="1" fill="#43D14F"/>
<rect x="185" y="27" width="2" height="6" rx="1" fill="#43D14F"/>
<rect x="190" y="24" width="2" height="12" rx="1" fill="#43D14F"/>
<rect x="195" y="21" width="2" height="18" rx="1" fill="#43D14F"/>
<rect x="200" y="24" width="2" height="12" rx="1" fill="#43D14F"/>
<rect x="205" y="27" width="2" height="6" rx="1" fill="#43D14F"/>
<rect x="210" y="28" width="2" height="4" rx="1" fill="#43D14F"/>
<rect x="215" y="28" width="2" height="4" rx="1" fill="#43D14F"/>
<rect x="220" y="27" width="2" height="6" rx="1" fill="#43D14F"/>
</g>
<path d="M268.6 37.16C267.64 37.16 266.792 36.9253 266.056 36.456C265.32 35.976 264.749 35.304 264.344 34.44C263.939 33.5653 263.736 32.552 263.736 31.4C263.736 30.248 263.939 29.24 264.344 28.376C264.749 27.5013 265.32 26.8293 266.056 26.36C266.792 25.88 267.64 25.64 268.6 25.64C269.571 25.64 270.419 25.88 271.144 26.36C271.88 26.8293 272.451 27.5013 272.856 28.376C273.261 29.24 273.464 30.248 273.464 31.4C273.464 32.552 273.261 33.5653 272.856 34.44C272.451 35.304 271.88 35.976 271.144 36.456C270.419 36.9253 269.571 37.16 268.6 37.16ZM268.6 35.048C269.421 35.048 270.056 34.7333 270.504 34.104C270.952 33.464 271.176 32.5627 271.176 31.4C271.176 30.2373 270.952 29.3413 270.504 28.712C270.056 28.072 269.421 27.752 268.6 27.752C267.779 27.752 267.144 28.072 266.696 28.712C266.248 29.3413 266.024 30.2373 266.024 31.4C266.024 32.5627 266.248 33.464 266.696 34.104C267.144 34.7333 267.779 35.048 268.6 35.048ZM279.803 37.16C278.843 37.16 277.995 36.9253 277.259 36.456C276.523 35.976 275.952 35.304 275.547 34.44C275.142 33.5653 274.939 32.552 274.939 31.4C274.939 30.248 275.142 29.24 275.547 28.376C275.952 27.5013 276.523 26.8293 277.259 26.36C277.995 25.88 278.843 25.64 279.803 25.64C280.774 25.64 281.622 25.88 282.347 26.36C283.083 26.8293 283.654 27.5013 284.059 28.376C284.464 29.24 284.667 30.248 284.667 31.4C284.667 32.552 284.464 33.5653 284.059 34.44C283.654 35.304 283.083 35.976 282.347 36.456C281.622 36.9253 280.774 37.16 279.803 37.16ZM279.803 35.048C280.624 35.048 281.259 34.7333 281.707 34.104C282.155 33.464 282.379 32.5627 282.379 31.4C282.379 30.2373 282.155 29.3413 281.707 28.712C281.259 28.072 280.624 27.752 279.803 27.752C278.982 27.752 278.347 28.072 277.899 28.712C277.451 29.3413 277.227 30.2373 277.227 31.4C277.227 32.5627 277.451 33.464 277.899 34.104C278.347 34.7333 278.982 35.048 279.803 35.048ZM287.502 37C287.14 37 286.82 36.8667 286.542 36.6C286.276 36.3227 286.142 36.0027 286.142 35.64C286.142 35.2667 286.276 34.9467 286.542 34.68C286.809 34.4027 287.129 34.264 287.502 34.264C287.876 34.264 288.196 34.4027 288.462 34.68C288.74 34.9467 288.878 35.2667 288.878 35.64C288.878 36.0133 288.74 36.3333 288.462 36.6C288.196 36.8667 287.876 37 287.502 37ZM287.502 31.576C287.14 31.576 286.82 31.4427 286.542 31.176C286.276 30.8987 286.142 30.5787 286.142 30.216C286.142 29.8427 286.276 29.5227 286.542 29.256C286.809 28.9787 287.129 28.84 287.502 28.84C287.876 28.84 288.196 28.9787 288.462 29.256C288.74 29.5227 288.878 29.8427 288.878 30.216C288.878 30.5893 288.74 30.9093 288.462 31.176C288.196 31.4427 287.876 31.576 287.502 31.576ZM294.489 37.16C293.636 37.16 292.884 36.9947 292.233 36.664C291.593 36.3227 291.087 35.864 290.713 35.288C290.351 34.7013 290.143 34.0453 290.089 33.32L290.265 33.192L292.217 32.904C292.271 33.5867 292.5 34.136 292.905 34.552C293.311 34.968 293.844 35.176 294.505 35.176C295.092 35.176 295.561 34.9947 295.913 34.632C296.276 34.2587 296.457 33.7413 296.457 33.08C296.457 32.4293 296.228 31.9173 295.769 31.544C295.311 31.16 294.745 30.968 294.073 30.968H293.481V29.32L295.289 27.72H290.505V25.8H298.153V27.656L295.977 29.48C296.777 29.6827 297.439 30.088 297.961 30.696C298.484 31.2933 298.745 32.0773 298.745 33.048C298.745 33.8267 298.559 34.5307 298.185 35.16C297.823 35.7787 297.316 36.2693 296.665 36.632C296.015 36.984 295.289 37.16 294.489 37.16ZM304.62 37.16C303.97 37.16 303.351 37.0267 302.764 36.76C302.188 36.4827 301.708 36.104 301.324 35.624C300.588 34.696 300.22 33.4107 300.22 31.768C300.22 30.5413 300.402 29.4693 300.764 28.552C301.138 27.624 301.666 26.9093 302.348 26.408C303.031 25.896 303.836 25.64 304.764 25.64C305.788 25.64 306.62 25.8853 307.26 26.376C307.9 26.856 308.316 27.5227 308.508 28.376L308.412 28.616L306.556 28.968C306.247 28.04 305.655 27.576 304.78 27.576C304.151 27.576 303.623 27.8373 303.196 28.36C302.78 28.8827 302.562 29.5867 302.54 30.472C302.85 30.1733 303.218 29.944 303.644 29.784C304.082 29.624 304.546 29.544 305.036 29.544C305.751 29.544 306.396 29.6987 306.972 30.008C307.548 30.3173 308.002 30.7547 308.332 31.32C308.674 31.8747 308.844 32.5147 308.844 33.24C308.844 33.976 308.668 34.6427 308.316 35.24C307.964 35.8373 307.468 36.3067 306.828 36.648C306.188 36.9893 305.452 37.16 304.62 37.16ZM304.652 35.304C305.271 35.304 305.756 35.1067 306.108 34.712C306.471 34.3173 306.652 33.8427 306.652 33.288C306.652 32.7333 306.471 32.2587 306.108 31.864C305.756 31.4693 305.271 31.272 304.652 31.272C304.034 31.272 303.543 31.4693 303.18 31.864C302.828 32.2587 302.652 32.7333 302.652 33.288C302.652 33.864 302.828 34.344 303.18 34.728C303.532 35.112 304.023 35.304 304.652 35.304Z" fill="#43D14F"/>
<circle cx="379" cy="30" r="15" fill="#43D14F"/>
<path d="M384.571 29.1425C385.218 29.5309 385.218 30.4691 384.571 30.8575L377.514 35.0913C376.848 35.4912 376 35.0111 376 34.2338L376 25.7662C376 24.9889 376.848 24.5088 377.514 24.9087L384.571 29.1425Z" fill="white"/>
<circle cx="341" cy="30" r="15" fill="#43D14F"/>
<path fill-rule="evenodd" clip-rule="evenodd" d="M339.5 24.5C339.5 23.6716 340.172 23 341 23C341.828 23 342.5 23.6716 342.5 24.5V31.2785L342.718 31.0609C343.303 30.4751 344.253 30.4751 344.839 31.0609C345.425 31.6467 345.425 32.5964 344.839 33.1822L342.011 36.0106C341.425 36.5964 340.475 36.5964 339.889 36.0106C339.886 36.0075 339.883 36.0044 339.88 36.0012L337.061 33.182C336.475 32.5962 336.475 31.6464 337.061 31.0607C337.646 30.4749 338.596 30.4749 339.182 31.0607L339.5 31.3787V24.5Z" fill="white"/>
</svg>
