<svg width="47" height="47" viewBox="0 0 47 47" fill="none" xmlns="http://www.w3.org/2000/svg">
<path d="M23.5 1C11.0914 1 1 11.0914 1 23.5C1 35.9086 11.0914 46 23.5 46C35.9086 46 46 35.9086 46 23.5C46 11.0914 35.9086 1 23.5 1ZM23.5 4C34.2873 4 43.0117 12.7127 43.0117 23.5C43.0117 34.2873 34.2873 43.0117 23.5 43.0117C12.7127 43.0117 4 34.2873 4 23.5C4 12.7127 12.7127 4 23.5 4Z" fill="#43D14F" stroke="#43D14F" stroke-width="0.5"/>
<path d="M20.9742 18.2493L23.5 13.2999L26.0258 18.2493C26.36 18.9041 26.9871 19.3597 27.7132 19.4752L33.2009 20.348L29.2743 24.2796C28.7547 24.7998 28.5152 25.5371 28.6297 26.2633L29.4955 31.7521L24.5429 29.2326C23.8876 28.8992 23.1124 28.8992 22.4571 29.2326L17.5045 31.7521L18.3703 26.2633C18.4848 25.5371 18.2453 24.7998 17.7257 24.2796L13.7991 20.348L19.2868 19.4752C20.0129 19.3597 20.64 18.9041 20.9742 18.2493Z" stroke="#43D14F" stroke-width="3"/>
</svg>
