<svg width="33" height="154" viewBox="0 0 33 154" fill="none" xmlns="http://www.w3.org/2000/svg">
<circle cx="5" cy="55" r="5" fill="#031F88"/>
<circle cx="4.5" cy="53.5" r="2.5" fill="white"/>
<circle cx="28" cy="55" r="5" fill="#031F88"/>
<circle cx="27.5" cy="53.5" r="2.5" fill="white"/>
<rect x="7.48014" y="68.7052" width="17.691" height="84.3546" rx="4.74529" fill="white" stroke="#031F88" stroke-width="1.3558"/>
<path opacity="0.6" d="M24.4896 140.134V72.1094H20.4081H16.3267C16.3267 74.6352 21.6966 73.1606 21.7686 75.5106C22.433 97.2098 21.7646 116.157 19.7279 140.134H24.4896Z" fill="#376CFB"/>
<rect x="4.08057" y="116.805" width="12.2269" height="27.2097" rx="6.11346" transform="rotate(-80 4.08057 116.805)" fill="#87A7FD"/>
<rect x="4.08057" y="126.328" width="12.2269" height="27.2097" rx="6.11346" transform="rotate(-80 4.08057 126.328)" fill="#87A7FD"/>
<rect x="4.08057" y="137.215" width="12.2269" height="27.2097" rx="6.11346" transform="rotate(-80 4.08057 137.215)" fill="#87A7FD"/>
<rect x="1.35986" y="115.48" width="10.8839" height="27.2097" rx="5.44193" transform="rotate(-80 1.35986 115.48)" fill="white" stroke="#031F88" stroke-width="1.3558"/>
<rect x="1.36084" y="125.922" width="10.8839" height="27.2097" rx="5.44193" transform="rotate(-80 1.36084 125.922)" fill="white" stroke="#031F88" stroke-width="1.3558"/>
<rect x="1.36084" y="136.289" width="10.8839" height="27.2097" rx="5.44193" transform="rotate(-80 1.36084 136.289)" fill="white" stroke="#031F88" stroke-width="1.3558"/>
<rect x="12.923" y="0.681804" width="6.8071" height="70.7498" rx="3.40355" fill="#FBC4B0" stroke="#031F88" stroke-width="1.3558"/>
<path d="M10.4805 16.4419C10.4049 16.0258 10.7245 15.6427 11.1475 15.6427H21.5032C21.9262 15.6427 22.2459 16.0258 22.1702 16.4419L19.9423 28.6956C19.8837 29.018 19.6029 29.2523 19.2753 29.2523H13.3754C13.0478 29.2523 12.7671 29.018 12.7085 28.6956L10.4805 16.4419Z" fill="#F99773" stroke="#031F88" stroke-width="1.3558"/>
<path d="M22.2176 16.2286C22.2808 16.6393 21.9631 17.0096 21.5476 17.0096L11.1034 17.0096C10.688 17.0096 10.3702 16.6393 10.4334 16.2286L12.7372 1.25394C12.7881 0.923236 13.0726 0.679118 13.4072 0.679118L19.2438 0.679118C19.5784 0.679118 19.8629 0.923235 19.9138 1.25394L22.2176 16.2286Z" fill="#F8632D" stroke="#031F88" stroke-width="1.3558"/>
<path d="M3.84368 69.8522C3.57971 69.7604 3.39958 69.5081 3.39958 69.2212L3.39958 66.6361C3.39958 66.1769 3.85955 65.833 4.32185 65.9816C8.83106 67.4305 12.568 68.1671 16.3259 68.1664C20.0837 68.1658 23.8212 67.428 28.3316 65.9805C28.7937 65.8322 29.2534 66.176 29.2534 66.6351L29.2534 69.2199C29.2534 69.507 29.0728 69.7596 28.8083 69.8512C23.909 71.5487 20.0496 72.3649 16.2424 72.3574C12.4353 72.3499 8.63187 71.5187 3.84368 69.8522Z" fill="white" stroke="#031F88" stroke-width="1.3558"/>
</svg>
