<svg width="16" height="16" viewBox="0 0 16 16" fill="none" xmlns="http://www.w3.org/2000/svg">
<path fill-rule="evenodd" clip-rule="evenodd" d="M0.888916 7.15183C0.888916 3.69842 3.69866 0.888672 7.15208 0.888672C10.6057 0.888672 13.4152 3.69842 13.4152 7.15183C13.4152 8.67092 12.8717 10.0654 11.9688 11.151L14.9419 14.124C15.1677 14.3497 15.1677 14.7158 14.9419 14.9415C14.8289 15.0544 14.6809 15.1109 14.5331 15.1109C14.3851 15.1109 14.2373 15.0544 14.1244 14.9415L11.1513 11.9685C10.0657 12.8714 8.67121 13.415 7.15208 13.415C3.69866 13.415 0.888916 10.6054 0.888916 7.15183ZM2.04519 7.15186C2.04519 9.96778 4.33616 12.2587 7.15208 12.2587C9.96799 12.2587 12.259 9.96775 12.259 7.15183C12.259 4.33592 9.96799 2.04495 7.15208 2.04495C4.33616 2.04495 2.04519 4.33595 2.04519 7.15186Z" fill="#43D14F" stroke="#43D14F" stroke-width="1.5"/>
</svg>
