<svg width="32" height="32" viewBox="0 0 32 32" fill="none" xmlns="http://www.w3.org/2000/svg">
<path d="M10.4992 31.1992C7.84826 31.1992 5.69922 29.0502 5.69922 26.3992L5.69922 7.19922C5.69922 4.54825 7.84825 2.39922 10.4992 2.39922L22.135 2.39922C25.8093 2.39922 28.7291 5.48596 28.5251 9.15457L27.5618 26.4768C27.4145 29.1263 25.2231 31.1992 22.5695 31.1992L10.4992 31.1992Z" fill="#C9CED0"/>
<rect x="3.89961" y="31.2" width="30.4" height="24" rx="5.6" transform="rotate(-90 3.89961 31.2)" stroke="#A1ADB3" stroke-width="1.6"/>
<path d="M15.931 4.25013C15.7165 4.2539 15.5121 4.34244 15.3626 4.49639C15.2131 4.65035 15.1306 4.85721 15.1332 5.07179V5.75545C13.8218 6.00145 12.6999 6.84587 12.6999 8.30927C12.6999 9.32446 13.1576 10.1455 13.7722 10.6236C14.3868 11.1016 15.0808 11.3136 15.6899 11.5166C16.299 11.7197 16.8249 11.9138 17.1239 12.1463C17.4229 12.3789 17.5664 12.5746 17.5664 13.1837C17.5664 14.5373 14.3242 14.5373 14.3242 13.1837C14.3266 13.0756 14.3074 12.968 14.2676 12.8674C14.2279 12.7667 14.1685 12.6751 14.0928 12.5977C14.0172 12.5204 13.9268 12.4589 13.8271 12.4169C13.7274 12.375 13.6202 12.3534 13.5121 12.3534C13.4039 12.3534 13.2968 12.375 13.197 12.4169C13.0973 12.4589 13.007 12.5204 12.9313 12.5977C12.8557 12.6751 12.7962 12.7667 12.7565 12.8674C12.7167 12.968 12.6975 13.0756 12.6999 13.1837C12.6999 14.646 13.8228 15.492 15.1332 15.7391V16.4196C15.1308 16.5278 15.15 16.6354 15.1897 16.736C15.2295 16.8366 15.2889 16.9283 15.3646 17.0057C15.4402 17.083 15.5306 17.1445 15.6303 17.1864C15.73 17.2284 15.8371 17.25 15.9453 17.25C16.0535 17.25 16.1606 17.2284 16.2603 17.1864C16.3601 17.1445 16.4504 17.083 16.5261 17.0057C16.6017 16.9283 16.6612 16.8366 16.7009 16.736C16.7406 16.6354 16.7599 16.5278 16.7575 16.4196V15.7391C18.068 15.4922 19.1923 14.6462 19.1923 13.1837C19.1923 12.1686 18.7331 11.3475 18.1184 10.8694C17.5038 10.3914 16.8098 10.1778 16.2007 9.97481C15.5916 9.77177 15.0658 9.57924 14.7668 9.34666C14.4677 9.11408 14.3242 8.91838 14.3242 8.30927C14.3242 6.9557 17.5664 6.9557 17.5664 8.30927C17.5664 8.52488 17.6521 8.73165 17.8045 8.88411C17.957 9.03656 18.1638 9.12221 18.3794 9.12221C18.595 9.12221 18.8018 9.03656 18.9542 8.88411C19.1067 8.73165 19.1923 8.52488 19.1923 8.30927C19.1923 6.84807 18.0677 6.00449 16.7575 5.75704V5.07179C16.7587 4.96313 16.7382 4.85532 16.6971 4.75474C16.6559 4.65416 16.595 4.56286 16.518 4.48624C16.4409 4.40962 16.3493 4.34925 16.2484 4.30869C16.1476 4.26813 16.0397 4.24822 15.931 4.25013Z" fill="#A1ADB3"/>
<rect x="7.49951" y="20" width="17" height="1.6" rx="0.8" fill="#A1ADB3"/>
<rect x="7.49951" y="25" width="17" height="1.6" rx="0.8" fill="#A1ADB3"/>
</svg>
