<svg width="48" height="48" viewBox="0 0 48 48" fill="none" xmlns="http://www.w3.org/2000/svg">
<path d="M39 48H9C4.029 48 0 43.971 0 39V9C0 4.029 4.029 0 9 0H39C43.971 0 48 4.029 48 9V39C48 43.971 43.971 48 39 48Z" fill="#43D14F" fill-opacity="0.2"/>
<circle cx="25" cy="24" r="4" fill="#43D14F"/>
<path d="M40 24C40 32.8366 33.0604 40 24.5 40C15.9396 40 9 32.8366 9 24C9 15.1634 15.9396 8 24.5 8C33.0604 8 40 15.1634 40 24ZM14.5486 24C14.5486 29.6733 19.004 34.2725 24.5 34.2725C29.996 34.2725 34.4514 29.6733 34.4514 24C34.4514 18.3267 29.996 13.7275 24.5 13.7275C19.004 13.7275 14.5486 18.3267 14.5486 24Z" fill="#43D14F"/>
<rect x="22" y="18" width="7" height="2" fill="#43D14F"/>
<rect x="30" y="20" width="7" height="2" transform="rotate(90 30 20)" fill="#43D14F"/>
<mask id="path-6-inside-1" fill="white">
<path d="M40.984 24C40.984 33.3888 33.3764 41 23.992 41C14.6076 41 7 33.3888 7 24C7 14.6112 14.6076 7 23.992 7C33.3764 7 40.984 14.6112 40.984 24ZM14.4729 24C14.4729 29.2597 18.7348 33.5236 23.992 33.5236C29.2493 33.5236 33.5111 29.2597 33.5111 24C33.5111 18.7403 29.2493 14.4764 23.992 14.4764C18.7348 14.4764 14.4729 18.7403 14.4729 24Z"/>
</mask>
<path d="M40.984 24C40.984 33.3888 33.3764 41 23.992 41C14.6076 41 7 33.3888 7 24C7 14.6112 14.6076 7 23.992 7C33.3764 7 40.984 14.6112 40.984 24ZM14.4729 24C14.4729 29.2597 18.7348 33.5236 23.992 33.5236C29.2493 33.5236 33.5111 29.2597 33.5111 24C33.5111 18.7403 29.2493 14.4764 23.992 14.4764C18.7348 14.4764 14.4729 18.7403 14.4729 24Z" stroke="#031F88" stroke-width="2" mask="url(#path-6-inside-1)"/>
<path d="M34 23.5C34 28.7467 29.7467 33 24.5 33C19.2533 33 15.5 28.7467 15.5 23.5C15.5 18.2533 20.2533 14 25.5 14C30.7467 14 34 18.2533 34 23.5ZM19.688 23.5C19.688 26.1576 21.8424 28.312 24.5 28.312C27.1576 28.312 29.312 26.1576 29.312 23.5C29.312 20.8424 27.1576 18.688 24.5 18.688C21.8424 18.688 19.688 20.8424 19.688 23.5Z" fill="#43D14F"/>
<mask id="path-8-inside-2" fill="white">
<path d="M34.6121 24C34.6121 29.868 29.8573 34.625 23.9921 34.625C18.1268 34.625 13.3721 29.868 13.3721 24C13.3721 18.132 18.1268 13.375 23.9921 13.375C29.8573 13.375 34.6121 18.132 34.6121 24ZM19.9839 24C19.9839 26.2147 21.7784 28.01 23.9921 28.01C26.2057 28.01 28.0002 26.2147 28.0002 24C28.0002 21.7853 26.2057 19.99 23.9921 19.99C21.7784 19.99 19.9839 21.7853 19.9839 24Z"/>
</mask>
<path d="M34.6121 24C34.6121 29.868 29.8573 34.625 23.9921 34.625C18.1268 34.625 13.3721 29.868 13.3721 24C13.3721 18.132 18.1268 13.375 23.9921 13.375C29.8573 13.375 34.6121 18.132 34.6121 24ZM19.9839 24C19.9839 26.2147 21.7784 28.01 23.9921 28.01C26.2057 28.01 28.0002 26.2147 28.0002 24C28.0002 21.7853 26.2057 19.99 23.9921 19.99C21.7784 19.99 19.9839 21.7853 19.9839 24Z" stroke="#031F88" stroke-width="2" mask="url(#path-8-inside-2)"/>
<rect x="0.706941" width="12.9229" height="1.83267" rx="0.916334" transform="matrix(0.706941 -0.707273 0.706941 0.707273 22.3546 24.3594)" fill="#43D14F" stroke="#031F88"/>
<path d="M35.5833 8.11835L35.8027 10.826C35.8621 11.5589 36.4437 12.1408 37.1762 12.2002L39.8826 12.4198L35.1755 17.1291C35.057 17.2477 34.8869 17.2989 34.7226 17.2656L32.3855 16.7909C31.7953 16.671 31.334 16.2095 31.2142 15.619L30.7397 13.2808C30.7064 13.1164 30.7576 12.9463 30.8761 12.8277L35.5833 8.11835Z" fill="#43D14F" stroke="#031F88"/>
</svg>
