<svg width="48" height="48" viewBox="0 0 48 48" fill="none" xmlns="http://www.w3.org/2000/svg">
<path d="M39 48H9C4.029 48 0 43.971 0 39V9C0 4.029 4.029 0 9 0H39C43.971 0 48 4.029 48 9V39C48 43.971 43.971 48 39 48Z" fill="#43D14F" fill-opacity="0.2"/>
<path fill-rule="evenodd" clip-rule="evenodd" d="M17 41H33C35.1217 41 37.1566 39.5003 38.6569 38C40.1571 36.4997 41 35.1217 41 33V17C41 14.8783 40.5003 12.0003 39 10.5C37.5 9 35.1227 9 33.0012 9H33H17C14.8783 9.00009 12.5003 9.49973 11 11C9.49973 12.5003 9.00009 14.8783 9 17V33C9.00009 35.1217 9.49973 37.4997 11 39C12.5003 40.5003 14.8783 40.9999 17 41ZM20.0132 17.0002C20.1897 17.0039 20.3621 17.0536 20.5124 17.1442C23.0425 18.6669 28.0938 21.7079 30.5276 23.1734C30.672 23.2602 30.7912 23.3818 30.8739 23.5265C30.9566 23.6712 31 23.8342 31 24C31 24.1658 30.9566 24.3288 30.8739 24.4735C30.7912 24.6182 30.672 24.7398 30.5276 24.8266C28.0938 26.2921 23.0425 29.3331 20.5124 30.8558C20.3621 30.9464 20.1897 30.9961 20.0132 30.9998C19.8367 31.0035 19.6623 30.961 19.5082 30.8767C19.354 30.7925 19.2257 30.6695 19.1363 30.5205C19.047 30.3715 18.9999 30.2019 19 30.0292V17.9708C18.9999 17.7981 19.047 17.6285 19.1363 17.4795C19.2257 17.3305 19.354 17.2075 19.5082 17.1233C19.6623 17.039 19.8367 16.9965 20.0132 17.0002Z" fill="#43D14F"/>
<path d="M21.0021 31.5L21.002 30.1679L21.0001 20.0246C21.0001 19.7926 21.2522 19.6483 21.4522 19.766L29.5001 24.5C29.5001 25 30.828 24.4701 30.8969 24.5942C30.9658 24.7182 31.002 24.8579 31.002 25C31.002 25.1421 30.9658 25.2819 30.8969 25.4059C30.828 25.5299 30.7286 25.6341 30.6083 25.7086L25.502 29L21.0021 31.5Z" fill="#43D14F"/>
<path d="M32.5 40.5H15.5C13.3783 40.4999 11.3435 39.657 9.84325 38.1567C8.34298 36.6565 7.50009 34.6217 7.5 32.5V15.5C7.5 15.5 7.5 15.5 7.5 15.5C7.5001 13.3783 8.34298 11.3435 9.84325 9.84325C11.3435 8.34298 13.3783 7.5001 15.5 7.5C15.5 7.5 15.5 7.5 15.5 7.5H32.5C34.6217 7.5 36.6566 8.34285 38.1569 9.84315C39.6571 11.3434 40.5 13.3783 40.5 15.5V32.5C40.5 34.6217 39.6571 36.6566 38.1569 38.1569C36.6566 39.6571 34.6217 40.5 32.5 40.5Z" stroke="#031F88"/>
<path d="M20.2543 17.5724L20.2546 17.5726C22.7846 19.0953 27.8359 22.1363 30.2697 23.6017L30.2699 23.6018C30.3418 23.6451 30.4 23.7049 30.4398 23.7746C30.4795 23.8441 30.5 23.9217 30.5 24C30.5 24.0783 30.4795 24.1559 30.4398 24.2254C30.4 24.2951 30.3418 24.3549 30.2699 24.3982L30.2697 24.3983C27.8359 25.8637 22.7846 28.9047 20.2546 30.4274L20.2543 30.4276C20.1793 30.4728 20.0925 30.498 20.0028 30.4999C19.9131 30.5018 19.8251 30.4801 19.748 30.438C19.671 30.3959 19.6082 30.3352 19.5652 30.2634C19.5222 30.1917 19.5 30.1109 19.5 30.0293V30.0292V17.9708L19.5 17.9707C19.5 17.8891 19.5222 17.8083 19.5652 17.7366C19.6082 17.6648 19.671 17.6041 19.748 17.562C19.8251 17.5199 19.9131 17.4982 20.0028 17.5001C20.0925 17.502 20.1793 17.5272 20.2543 17.5724Z" stroke="#031F88"/>
</svg>
