<svg width="36" height="36" viewBox="0 0 36 36" fill="none" xmlns="http://www.w3.org/2000/svg">
<path d="M29.25 36H6.75C3.02175 36 0 32.9782 0 29.25V6.75C0 3.02175 3.02175 0 6.75 0H29.25C32.9782 0 36 3.02175 36 6.75V29.25C36 32.9782 32.9782 36 29.25 36Z" fill="#FC2133" fill-opacity="0.2"/>
<rect x="8" y="22.5" width="13" height="17" rx="4" transform="rotate(-90 8 22.5)" fill="#FED3D6"/>
<rect x="8.5" y="22" width="12" height="16" rx="3.5" transform="rotate(-90 8.5 22)" stroke="#031F88"/>
<rect x="11" y="26.5" width="13" height="17" rx="4" transform="rotate(-90 11 26.5)" fill="#FED3D6"/>
<path d="M13.5 25.5C12.9477 25.5 12.5 25.0523 12.5 24.5L12.5 18C12.5 16.3431 13.8431 15 15.5 15L24 15C25.6569 15 27 16.3431 27 18L27 22.5C27 24.1569 25.6569 25.5 24 25.5L13.5 25.5Z" fill="#FC2133"/>
<rect x="11.5" y="26" width="12" height="16" rx="3.5" transform="rotate(-90 11.5 26)" stroke="#031F88"/>
<circle cx="19.5" cy="20" r="2" stroke="#031F88"/>
</svg>
