<svg width="16" height="16" viewBox="0 0 16 16" fill="none" xmlns="http://www.w3.org/2000/svg">
<path fill-rule="evenodd" clip-rule="evenodd" d="M0.9375 3.75C0.9375 2.92157 1.60907 2.25 2.4375 2.25H10.9375C11.7659 2.25 12.4375 2.92157 12.4375 3.75V4.875H13.5625C14.3909 4.875 15.0625 5.54657 15.0625 6.375V12.25C15.0625 13.0784 14.3909 13.75 13.5625 13.75H5.0625C4.23407 13.75 3.5625 13.0784 3.5625 12.25V11.125H2.4375C1.60907 11.125 0.9375 10.4534 0.9375 9.625V3.75ZM11.4375 3.75V4.875H5.0625C4.23407 4.875 3.5625 5.54657 3.5625 6.375V10.125H2.4375C2.16136 10.125 1.9375 9.90114 1.9375 9.625V3.75C1.9375 3.47386 2.16136 3.25 2.4375 3.25H10.9375C11.2136 3.25 11.4375 3.47386 11.4375 3.75ZM5.0625 5.875C4.78636 5.875 4.5625 6.09886 4.5625 6.375V12.25C4.5625 12.5261 4.78636 12.75 5.0625 12.75H13.5625C13.8386 12.75 14.0625 12.5261 14.0625 12.25V6.375C14.0625 6.09886 13.8386 5.875 13.5625 5.875H5.0625ZM10.8 9.3125C10.8 10.134 10.134 10.8 9.3125 10.8C8.49098 10.8 7.825 10.134 7.825 9.3125C7.825 8.49098 8.49098 7.825 9.3125 7.825C10.134 7.825 10.8 8.49098 10.8 9.3125ZM11.5 9.3125C11.5 10.5206 10.5206 11.5 9.3125 11.5C8.10438 11.5 7.125 10.5206 7.125 9.3125C7.125 8.10438 8.10438 7.125 9.3125 7.125C10.5206 7.125 11.5 8.10438 11.5 9.3125Z" fill="#86969E"/>
<path d="M12.4375 4.875H11.9375V5.375H12.4375V4.875ZM3.5625 11.125H4.0625V10.625H3.5625V11.125ZM11.4375 4.875V5.375H11.9375V4.875H11.4375ZM3.5625 10.125V10.625H4.0625V10.125H3.5625ZM2.4375 1.75C1.33293 1.75 0.4375 2.64543 0.4375 3.75H1.4375C1.4375 3.19772 1.88522 2.75 2.4375 2.75V1.75ZM10.9375 1.75H2.4375V2.75H10.9375V1.75ZM12.9375 3.75C12.9375 2.64543 12.0421 1.75 10.9375 1.75V2.75C11.4898 2.75 11.9375 3.19772 11.9375 3.75H12.9375ZM12.9375 4.875V3.75H11.9375V4.875H12.9375ZM13.5625 4.375H12.4375V5.375H13.5625V4.375ZM15.5625 6.375C15.5625 5.27043 14.6671 4.375 13.5625 4.375V5.375C14.1148 5.375 14.5625 5.82272 14.5625 6.375H15.5625ZM15.5625 12.25V6.375H14.5625V12.25H15.5625ZM13.5625 14.25C14.6671 14.25 15.5625 13.3546 15.5625 12.25H14.5625C14.5625 12.8023 14.1148 13.25 13.5625 13.25V14.25ZM5.0625 14.25H13.5625V13.25H5.0625V14.25ZM3.0625 12.25C3.0625 13.3546 3.95793 14.25 5.0625 14.25V13.25C4.51022 13.25 4.0625 12.8023 4.0625 12.25H3.0625ZM3.0625 11.125V12.25H4.0625V11.125H3.0625ZM2.4375 11.625H3.5625V10.625H2.4375V11.625ZM0.4375 9.625C0.4375 10.7296 1.33293 11.625 2.4375 11.625V10.625C1.88522 10.625 1.4375 10.1773 1.4375 9.625H0.4375ZM0.4375 3.75V9.625H1.4375V3.75H0.4375ZM11.9375 4.875V3.75H10.9375V4.875H11.9375ZM5.0625 5.375H11.4375V4.375H5.0625V5.375ZM4.0625 6.375C4.0625 5.82272 4.51022 5.375 5.0625 5.375V4.375C3.95793 4.375 3.0625 5.27043 3.0625 6.375H4.0625ZM4.0625 10.125V6.375H3.0625V10.125H4.0625ZM2.4375 10.625H3.5625V9.625H2.4375V10.625ZM1.4375 9.625C1.4375 10.1773 1.88522 10.625 2.4375 10.625V9.625H1.4375ZM1.4375 3.75V9.625H2.4375V3.75H1.4375ZM2.4375 2.75C1.88522 2.75 1.4375 3.19772 1.4375 3.75H2.4375V2.75ZM10.9375 2.75H2.4375V3.75H10.9375V2.75ZM11.9375 3.75C11.9375 3.19772 11.4898 2.75 10.9375 2.75V3.75H11.9375ZM5.0625 6.375V5.375C4.51022 5.375 4.0625 5.82272 4.0625 6.375H5.0625ZM5.0625 12.25V6.375H4.0625V12.25H5.0625ZM5.0625 12.25H4.0625C4.0625 12.8023 4.51022 13.25 5.0625 13.25V12.25ZM13.5625 12.25H5.0625V13.25H13.5625V12.25ZM13.5625 12.25V13.25C14.1148 13.25 14.5625 12.8023 14.5625 12.25H13.5625ZM13.5625 6.375V12.25H14.5625V6.375H13.5625ZM13.5625 6.375H14.5625C14.5625 5.82272 14.1148 5.375 13.5625 5.375V6.375ZM5.0625 6.375H13.5625V5.375H5.0625V6.375ZM9.3125 11.3C10.4102 11.3 11.3 10.4102 11.3 9.3125H10.3C10.3 9.85788 9.85788 10.3 9.3125 10.3V11.3ZM7.325 9.3125C7.325 10.4102 8.21483 11.3 9.3125 11.3V10.3C8.76712 10.3 8.325 9.85788 8.325 9.3125H7.325ZM9.3125 7.325C8.21483 7.325 7.325 8.21483 7.325 9.3125H8.325C8.325 8.76712 8.76712 8.325 9.3125 8.325V7.325ZM11.3 9.3125C11.3 8.21483 10.4102 7.325 9.3125 7.325V8.325C9.85788 8.325 10.3 8.76712 10.3 9.3125H11.3ZM9.3125 12C10.7968 12 12 10.7968 12 9.3125H11C11 10.2445 10.2445 11 9.3125 11V12ZM6.625 9.3125C6.625 10.7968 7.82824 12 9.3125 12V11C8.38052 11 7.625 10.2445 7.625 9.3125H6.625ZM9.3125 6.625C7.82823 6.625 6.625 7.82823 6.625 9.3125H7.625C7.625 8.38052 8.38052 7.625 9.3125 7.625V6.625ZM12 9.3125C12 7.82824 10.7968 6.625 9.3125 6.625V7.625C10.2445 7.625 11 8.38052 11 9.3125H12Z" fill="#86969E"/>
</svg>
