<svg width="32" height="32" viewBox="0 0 32 32" fill="none" xmlns="http://www.w3.org/2000/svg">
<path d="M2.40015 8.56562C2.40015 5.91465 4.54918 3.76562 7.20015 3.76562H26.4001C29.0511 3.76562 31.2001 5.91466 31.2001 8.56563V19.5517C31.2001 23.0863 28.3348 25.9517 24.8001 25.9517H20.2403C19.7302 25.9517 19.2507 26.1949 18.9494 26.6065L17.1946 29.0033C16.5848 29.8362 15.3575 29.8822 14.687 29.0973L12.3917 26.41C12.1394 26.1146 11.7882 25.9211 11.4036 25.8656L2.40015 24.5661V8.56562Z" fill="#43D14F" fill-opacity="0.8"/>
<rect x="4.80005" y="9.59961" width="17.6" height="1.6" rx="0.8" fill="#031F88"/>
<rect x="4.80005" y="14.4004" width="12.8" height="1.6" rx="0.8" fill="#031F88"/>
<path d="M0.8 7.76523C0.8 4.67244 3.30721 2.16523 6.4 2.16523H25.6C28.6928 2.16523 31.2 4.67244 31.2 7.76524V19.551C31.2 22.6438 28.6928 25.151 25.6 25.151H20.2401C19.475 25.151 18.7557 25.5159 18.3037 26.1333L16.5489 28.5301C16.244 28.9465 15.6303 28.9695 15.2951 28.5771L13.0873 25.9923C12.6314 25.4585 11.9645 25.151 11.2624 25.151H6.4C3.30721 25.151 0.8 22.6438 0.8 19.551V7.76523Z" stroke="#031F88" stroke-width="1.6"/>
</svg>
