<svg width="32" height="32" viewBox="0 0 32 32" fill="none" xmlns="http://www.w3.org/2000/svg">
<path d="M2.40039 8.56562C2.40039 5.91465 4.54942 3.76562 7.20039 3.76562H26.4004C29.0514 3.76562 31.2004 5.91466 31.2004 8.56563V19.5517C31.2004 23.0863 28.335 25.9517 24.8004 25.9517H20.2406C19.7305 25.9517 19.2509 26.1949 18.9496 26.6065L17.1949 29.0033C16.585 29.8362 15.3577 29.8822 14.6873 29.0973L12.3919 26.41C12.1396 26.1146 11.7884 25.9211 11.4039 25.8656L2.40039 24.5661V8.56562Z" fill="#C9CED0"/>
<rect x="4.7998" y="9.59961" width="17.6" height="1.6" rx="0.8" fill="#A1ADB3"/>
<rect x="4.7998" y="14.4004" width="12.8" height="1.6" rx="0.8" fill="#A1ADB3"/>
<path d="M0.8 7.76523C0.8 4.67244 3.30721 2.16523 6.4 2.16523H25.6C28.6928 2.16523 31.2 4.67244 31.2 7.76524V19.551C31.2 22.6438 28.6928 25.151 25.6 25.151H20.2401C19.475 25.151 18.7557 25.5159 18.3037 26.1333L16.5489 28.5301C16.244 28.9465 15.6303 28.9695 15.2951 28.5771L13.0873 25.9923C12.6314 25.4585 11.9645 25.151 11.2624 25.151H6.4C3.30721 25.151 0.8 22.6438 0.8 19.551V7.76523Z" stroke="#A1ADB3" stroke-width="1.6"/>
</svg>
