<svg width="70" height="80" viewBox="0 0 70 80" fill="none" xmlns="http://www.w3.org/2000/svg">
<path d="M33 1.15504C34.2376 0.440509 35.7624 0.440507 37 1.15504L67.6411 18.8456C68.8787 19.5602 69.6411 20.8807 69.6411 22.3097V57.6909C69.6411 59.12 68.8787 60.4405 67.6411 61.155L37 78.8456C35.7624 79.5602 34.2376 79.5602 33 78.8456L2.35901 61.155C1.12141 60.4405 0.359009 59.12 0.359009 57.6909V22.3097C0.359009 20.8807 1.1214 19.5602 2.35901 18.8456L33 1.15504Z" fill="white"/>
<path d="M33 1.15504C34.2376 0.440509 35.7624 0.440507 37 1.15504L67.6411 18.8456C68.8787 19.5602 69.6411 20.8807 69.6411 22.3097V57.6909C69.6411 59.12 68.8787 60.4405 67.6411 61.155L37 78.8456C35.7624 79.5602 34.2376 79.5602 33 78.8456L2.35901 61.155C1.12141 60.4405 0.359009 59.12 0.359009 57.6909V22.3097C0.359009 20.8807 1.1214 19.5602 2.35901 18.8456L33 1.15504Z" fill="#43D14F" fill-opacity="0.2"/>
<path fill-rule="evenodd" clip-rule="evenodd" d="M65.6411 22.3097L35 4.61914L4.35901 22.3097V57.6909L35 75.3815L65.6411 57.6909V22.3097ZM37 1.15504C35.7624 0.440507 34.2376 0.440509 33 1.15504L2.35901 18.8456C1.1214 19.5602 0.359009 20.8807 0.359009 22.3097V57.6909C0.359009 59.12 1.12141 60.4405 2.35901 61.155L33 78.8456C34.2376 79.5602 35.7624 79.5602 37 78.8456L67.6411 61.155C68.8787 60.4405 69.6411 59.12 69.6411 57.6909V22.3097C69.6411 20.8807 68.8787 19.5602 67.6411 18.8456L37 1.15504Z" fill="white"/>
<path d="M24.6278 32.0997C26.5089 29.4932 29.2583 27.6435 32.3815 26.8831C35.5047 26.1228 38.7967 26.5018 41.6654 27.952C44.5341 29.4022 46.7912 31.8284 48.0307 34.7941C49.2702 37.7599 49.4109 41.0707 48.4273 44.1309C47.4437 47.1911 45.4004 49.7999 42.6651 51.4882C39.9297 53.1764 36.6817 53.8332 33.5053 53.3404C30.3288 52.8476 27.4325 51.2377 25.3372 48.8C23.2418 46.3624 22.085 43.2572 22.0748 40.0428" stroke="#031F88" stroke-width="2" stroke-linecap="round"/>
<path d="M23.001 35.016L22.8666 31.7909L25.7268 33.2871L23.001 35.016Z" fill="#031F88" stroke="#031F88"/>
<path d="M45.0751 40.5952C45.0751 45.5132 41.0883 49.5 36.1703 49.5C31.2523 49.5 28.0751 45.5132 28.0751 40.5952C28.0751 36.1429 31.7179 32.5 36.1703 32.5C41.0883 32.5 45.0751 35.6773 45.0751 40.5952Z" fill="#43D14F" fill-opacity="0.8"/>
<rect x="34.5751" y="36" width="1" height="6" rx="0.5" fill="#031F88" stroke="#031F88"/>
<rect x="38.5751" y="41" width="1" height="4" rx="0.5" transform="rotate(90 38.5751 41)" fill="#031F88" stroke="#031F88"/>
<circle cx="35.5751" cy="40" r="9.5" stroke="#031F88" stroke-width="2"/>
</svg>
