<svg width="71" height="49" viewBox="0 0 71 49" fill="none" xmlns="http://www.w3.org/2000/svg">
<path d="M69.599 47.303C69.599 46.553 68.991 45.945 68.2409 45.945H15.278V48.661H68.2409C68.991 48.661 69.599 48.053 69.599 47.303Z" fill="#D0F2F4" stroke="#031F88" stroke-width="0.679012"/>
<rect x="-0.339506" y="-0.339506" width="6.11111" height="2.71605" rx="1.35802" transform="matrix(4.37114e-08 -1 -1 -4.37114e-08 69.9382 48.321)" fill="#3962FA" stroke="#031F88" stroke-width="0.679012"/>
<path d="M29.2312 41.2594L28.7724 41.1708L28.9984 40.7618C30.2071 38.5747 30.8952 36.0597 30.8952 33.3829C30.8952 24.9452 24.0551 18.1051 15.6175 18.1051C7.17978 18.1051 0.339687 24.9452 0.339687 33.3829C0.339687 39.1721 2.98415 42.3374 5.33284 44.6861C7.64021 46.9934 11.6253 48.6607 15.6175 48.6607H28.5187C30.5812 48.6607 32.2533 46.9887 32.2533 44.9261C32.2533 43.1075 30.953 41.5918 29.2312 41.2594Z" fill="#3962FA" stroke="#031F88" stroke-width="0.679012"/>
<circle r="11.2037" transform="matrix(-1 0 0 1 15.6169 33.3831)" fill="#87A7FD" stroke="#031F88" stroke-width="0.679012"/>
<circle r="7.12963" transform="matrix(-1 0 0 1 15.6168 33.3832)" fill="#D0F2F4" stroke="#031F88" stroke-width="0.679012"/>
<path d="M28.8578 45.2656C28.8578 44.8906 28.5538 44.5866 28.1787 44.5866C27.8037 44.5866 27.4997 44.8906 27.4997 45.2656V48.6607H28.8578V45.2656Z" fill="#D0F2F4" stroke="#031F88" stroke-width="0.679012"/>
<path d="M25.4632 45.2656C25.4632 44.8906 25.1592 44.5866 24.7842 44.5866C24.4092 44.5866 24.1052 44.8906 24.1052 45.2656V48.6607H25.4632V45.2656Z" fill="#D0F2F4" stroke="#031F88" stroke-width="0.679012"/>
<path d="M22.0677 45.2656C22.0677 44.8906 21.7637 44.5866 21.3887 44.5866C21.0137 44.5866 20.7097 44.8906 20.7097 45.2656V48.6607H22.0677V45.2656Z" fill="#D0F2F4" stroke="#031F88" stroke-width="0.679012"/>
<rect width="4.07407" height="1.35802" rx="0.679012" transform="matrix(-1 0 0 1 20.3701 31.3457)" fill="white"/>
<rect width="1.35802" height="1.35802" rx="0.679012" transform="matrix(-1 0 0 1 19.0117 31.3457)" fill="#031F88"/>
<rect width="4.07407" height="1.35802" rx="0.679012" transform="matrix(-1 0 0 1 14.9385 31.3457)" fill="white"/>
<rect width="1.35802" height="1.35802" rx="0.679012" transform="matrix(-1 0 0 1 13.5801 31.3457)" fill="#031F88"/>
<path d="M17.6543 37.1175C17.6543 37.1175 16.2686 36.2934 15.2778 36.099C14.367 35.9202 12.9012 36.099 12.9012 36.099" stroke="#031F88" stroke-width="0.679012" stroke-linecap="round" stroke-linejoin="round"/>
<path d="M24.245 5.19706C22.4729 4.72224 20.6437 5.78237 20.1673 7.56028L20.1565 7.60046C20.0055 8.1642 20.3398 8.74528 20.9016 8.89581C21.0581 8.93775 21.2178 8.94325 21.3763 8.91211C21.7755 8.83364 22.089 8.54031 22.1945 8.14655L22.2053 8.10636C22.3796 7.45595 23.0488 7.06808 23.6971 7.24179C24.3455 7.41552 24.7312 8.08605 24.5569 8.73646C24.3826 9.38696 23.7133 9.77482 23.065 9.60109L22.91 9.55958C22.3481 9.40902 21.7682 9.74513 21.6171 10.3089L21.1645 11.9981C21.0135 12.5618 21.3476 13.143 21.9095 13.2935C22.4714 13.4441 23.0514 13.1079 23.2024 12.5442L23.4128 11.7591C24.8924 11.7433 26.2048 10.7382 26.5948 9.28253C27.0713 7.50464 26.0172 5.67191 24.245 5.19706Z" fill="#031F88"/>
<path d="M21.7891 13.6766C21.1041 13.4931 20.3971 13.9029 20.2129 14.5901C20.0288 15.2773 20.4363 15.9857 21.1212 16.1692C21.8061 16.3528 22.5132 15.9429 22.6973 15.2558C22.8814 14.5686 22.474 13.8601 21.7891 13.6766Z" fill="#031F88"/>
<path d="M6.0024 8.08506C5.11636 8.32247 4.58929 9.23884 4.82749 10.1278L4.83287 10.1479C4.9084 10.4298 5.19842 10.5978 5.47933 10.5225C5.55759 10.5016 5.62812 10.464 5.68897 10.4109C5.84221 10.2771 5.90464 10.0717 5.85189 9.87485L5.8465 9.85476C5.75937 9.52955 5.9522 9.19428 6.27634 9.10743C6.60052 9.02056 6.93515 9.2145 7.02229 9.53971C7.10944 9.86496 6.91661 10.2002 6.59243 10.2871L6.51496 10.3078C6.23401 10.3831 6.06691 10.6736 6.14244 10.9555L6.36875 11.8001C6.44428 12.082 6.73427 12.2501 7.01522 12.1748C7.29617 12.0995 7.46326 11.809 7.38773 11.5271L7.28255 11.1346C7.91927 10.7578 8.23629 9.99452 8.04127 9.26667C7.80311 8.3777 6.88848 7.84764 6.0024 8.08506Z" fill="#031F88"/>
<path d="M7.0586 12.3717C6.7161 12.4634 6.51241 12.8176 6.60448 13.1613C6.69654 13.5048 7.05009 13.7097 7.39255 13.618C7.73504 13.5262 7.93873 13.172 7.84667 12.8284C7.7546 12.4848 7.40109 12.2799 7.0586 12.3717Z" fill="#031F88"/>
<path d="M14.267 0C13.5684 0 13 0.57023 13 1.27114V1.28698C13 1.50922 13.1802 1.69001 13.4017 1.69001C13.4634 1.69001 13.5227 1.67629 13.5779 1.64921C13.717 1.58101 13.8035 1.44221 13.8035 1.28698V1.27114C13.8035 1.01472 14.0114 0.806097 14.267 0.806097C14.5226 0.806097 14.7305 1.01472 14.7305 1.27114C14.7305 1.52758 14.5226 1.73621 14.267 1.73621H14.2059C13.9844 1.73621 13.8042 1.917 13.8042 2.13924V2.80518C13.8042 3.02743 13.9844 3.20825 14.2059 3.20825C14.4274 3.20825 14.6076 3.02743 14.6076 2.80518V2.49568C15.1503 2.34405 15.5339 1.84501 15.5339 1.27114C15.534 0.57023 14.9656 0 14.267 0Z" fill="#031F88"/>
<path d="M14.1987 3.36133C13.9287 3.36133 13.709 3.58175 13.709 3.85268C13.709 4.12358 13.9287 4.344 14.1987 4.344C14.4687 4.344 14.6884 4.12358 14.6884 3.85268C14.6884 3.58175 14.4687 3.36133 14.1987 3.36133Z" fill="#031F88"/>
</svg>
