<svg width="44" height="44" viewBox="0 0 44 44" fill="none" xmlns="http://www.w3.org/2000/svg">
<circle cx="22" cy="22" r="22" fill="#43D14F"/>
<path fill-rule="evenodd" clip-rule="evenodd" d="M24.2973 15.1558C24.4874 14.6373 25.0619 14.371 25.5804 14.5611C27.1838 15.149 28.5689 16.176 29.5419 17.5193C30.516 18.864 31.0285 20.4594 30.9988 22.093C30.9691 23.7266 30.3991 25.3042 29.3779 26.6168C28.3577 27.9281 26.9375 28.9112 25.3147 29.4492C24.7904 29.623 24.2246 29.3389 24.0508 28.8147C23.877 28.2905 24.1611 27.7246 24.6853 27.5508C25.9509 27.1313 27.0339 26.3725 27.7994 25.3887C28.5638 24.4061 28.9775 23.2439 28.9991 22.0567C29.0207 20.8696 28.6495 19.6965 27.9222 18.6926C27.194 17.6873 26.1406 16.8967 24.892 16.4389C24.3734 16.2488 24.1072 15.6744 24.2973 15.1558ZM12.375 20.0601C12.375 18.9555 13.2704 18.0601 14.375 18.0601H17.2328C17.4992 18.0601 17.7545 17.9538 17.9423 17.7648L20.5103 15.1796C21.1393 14.5464 22.2197 14.9919 22.2197 15.8844V28.154C22.2197 29.0274 21.1788 29.4811 20.539 28.8866L17.9368 26.4684C17.7518 26.2965 17.5086 26.201 17.2561 26.201H14.375C13.2704 26.201 12.375 25.3056 12.375 24.201V20.0601ZM25.537 17.6033C25.0418 17.3589 24.4422 17.5622 24.1977 18.0575C23.9533 18.5527 24.1567 19.1523 24.6519 19.3968C25.0124 19.5747 25.3573 19.9033 25.6122 20.3771C25.8673 20.851 26.0078 21.4272 25.9997 22.0268C25.9916 22.6265 25.8356 23.1947 25.5696 23.6549C25.3039 24.1148 24.9535 24.4257 24.5925 24.5868C24.0881 24.8119 23.8617 25.4032 24.0868 25.9076C24.3119 26.4119 24.9032 26.6383 25.4075 26.4132C26.2019 26.0587 26.8528 25.4317 27.3012 24.6557C27.7495 23.8801 27.9871 22.973 27.9995 22.0538C28.0119 21.1346 27.7989 20.2201 27.3734 19.4294C26.9479 18.6386 26.3174 17.9884 25.537 17.6033Z" fill="white"/>
</svg>
