<svg width="70" height="80" viewBox="0 0 70 80" fill="none" xmlns="http://www.w3.org/2000/svg">
<path d="M33 1.15504C34.2376 0.440509 35.7624 0.440507 37 1.15504L67.6411 18.8456C68.8787 19.5602 69.6411 20.8807 69.6411 22.3097V57.6909C69.6411 59.12 68.8787 60.4405 67.6411 61.155L37 78.8456C35.7624 79.5602 34.2376 79.5602 33 78.8456L2.35901 61.155C1.12141 60.4405 0.359009 59.12 0.359009 57.6909V22.3097C0.359009 20.8807 1.1214 19.5602 2.35901 18.8456L33 1.15504Z" fill="white"/>
<path d="M33 1.15504C34.2376 0.440509 35.7624 0.440507 37 1.15504L67.6411 18.8456C68.8787 19.5602 69.6411 20.8807 69.6411 22.3097V57.6909C69.6411 59.12 68.8787 60.4405 67.6411 61.155L37 78.8456C35.7624 79.5602 34.2376 79.5602 33 78.8456L2.35901 61.155C1.12141 60.4405 0.359009 59.12 0.359009 57.6909V22.3097C0.359009 20.8807 1.1214 19.5602 2.35901 18.8456L33 1.15504Z" fill="#43D14F" fill-opacity="0.2"/>
<path fill-rule="evenodd" clip-rule="evenodd" d="M65.6411 22.3097L35 4.61914L4.35901 22.3097V57.6909L35 75.3815L65.6411 57.6909V22.3097ZM37 1.15504C35.7624 0.440507 34.2376 0.440509 33 1.15504L2.35901 18.8456C1.1214 19.5602 0.359009 20.8807 0.359009 22.3097V57.6909C0.359009 59.12 1.12141 60.4405 2.35901 61.155L33 78.8456C34.2376 79.5602 35.7624 79.5602 37 78.8456L67.6411 61.155C68.8787 60.4405 69.6411 59.12 69.6411 57.6909V22.3097C69.6411 20.8807 68.8787 19.5602 67.6411 18.8456L37 1.15504Z" fill="white"/>
<path d="M49 40C49 47.732 42.732 54 35 54C27.268 54 21 47.732 21 40C21 32.268 27.268 26 35 26C42.732 26 49 32.268 49 40Z" stroke="#031F88" stroke-width="2"/>
<path d="M48 40.1429C48 47.2437 42.2437 53 35.1429 53C28.0421 53 23 47.2437 23 40.1429C23 33.7143 28.7143 28 35.1429 28C42.2437 28 48 33.0421 48 40.1429Z" fill="#43D14F" fill-opacity="0.8"/>
<rect x="30" y="30" width="10" height="12" rx="5" stroke="#031F88" stroke-width="2"/>
<path fill-rule="evenodd" clip-rule="evenodd" d="M24.0604 48.7371C26.7969 45.8214 30.6858 44 35 44C39.3144 44 43.2033 45.8214 45.9397 48.7372C45.5214 49.2603 45.0664 49.7527 44.5785 50.2106C42.2023 47.6223 38.7906 46 35 46C31.2095 46 27.7979 47.6223 25.4216 50.2105C24.9338 49.7526 24.4787 49.2602 24.0604 48.7371Z" fill="#031F88"/>
</svg>
