<svg width="54" height="54" viewBox="0 0 54 54" fill="none" xmlns="http://www.w3.org/2000/svg">
<rect opacity="0.3" x="0.5" y="0.5" width="53" height="53" rx="7.5" fill="white" stroke="#86969E"/>
<path fill-rule="evenodd" clip-rule="evenodd" d="M20 17C18.3431 17 17 18.3431 17 20V34C17 35.6569 18.3431 37 20 37H25C25.5523 37 26 36.5523 26 36C26 35.4477 25.5523 35 25 35H20C19.4477 35 19 34.5523 19 34V20C19 19.4477 19.4477 19 20 19H29C29.5523 19 30 19.4477 30 20V22.5C30 23.0523 30.4477 23.5 31 23.5C31.5523 23.5 32 23.0523 32 22.5V20C32 18.3431 30.6569 17 29 17H20ZM22 21C21.4477 21 21 21.4477 21 22C21 22.5523 21.4477 23 22 23H27C27.5523 23 28 22.5523 28 22C28 21.4477 27.5523 21 27 21H22ZM21 26C21 25.4477 21.4477 25 22 25H25C25.5523 25 26 25.4477 26 26C26 26.5523 25.5523 27 25 27H22C21.4477 27 21 26.5523 21 26ZM22 29C21.4477 29 21 29.4477 21 30C21 30.5523 21.4477 31 22 31H23C23.5523 31 24 30.5523 24 30C24 29.4477 23.5523 29 23 29H22Z" fill="#86969E"/>
<circle cx="31" cy="31" r="5" stroke="#43D14F" stroke-width="2"/>
<rect x="28" y="30" width="6" height="2" rx="1" fill="#43D14F"/>
<rect x="30" y="34" width="6" height="2" rx="1" transform="rotate(-90 30 34)" fill="#43D14F"/>
</svg>
