<svg width="90" height="100" viewBox="0 0 90 100" fill="none" xmlns="http://www.w3.org/2000/svg">
<g filter="url(#filter0_d)">
<path d="M44 11.1548C45.2376 10.4403 46.7624 10.4403 48 11.1548L78.6411 28.8454C79.8787 29.5599 80.6411 30.8804 80.6411 32.3095V67.6907C80.6411 69.1198 79.8787 70.4403 78.6411 71.1548L48 88.8454C46.7624 89.5599 45.2376 89.5599 44 88.8454L13.359 71.1548C12.1214 70.4403 11.359 69.1198 11.359 67.6907V32.3095C11.359 30.8804 12.1214 29.5599 13.359 28.8454L44 11.1548Z" fill="white"/>
<path d="M44 11.1548C45.2376 10.4403 46.7624 10.4403 48 11.1548L78.6411 28.8454C79.8787 29.5599 80.6411 30.8804 80.6411 32.3095V67.6907C80.6411 69.1198 79.8787 70.4403 78.6411 71.1548L48 88.8454C46.7624 89.5599 45.2376 89.5599 44 88.8454L13.359 71.1548C12.1214 70.4403 11.359 69.1198 11.359 67.6907V32.3095C11.359 30.8804 12.1214 29.5599 13.359 28.8454L44 11.1548Z" fill="#43D14F" fill-opacity="0.2"/>
<path fill-rule="evenodd" clip-rule="evenodd" d="M76.6411 32.3095L46 14.6189L15.359 32.3095V67.6907L46 85.3813L76.6411 67.6907V32.3095ZM48 11.1548C46.7624 10.4403 45.2376 10.4403 44 11.1548L13.359 28.8454C12.1214 29.5599 11.359 30.8804 11.359 32.3095V67.6907C11.359 69.1198 12.1214 70.4403 13.359 71.1548L44 88.8454C45.2376 89.5599 46.7624 89.5599 48 88.8454L78.6411 71.1548C79.8787 70.4403 80.6411 69.1198 80.6411 67.6907V32.3095C80.6411 30.8804 79.8787 29.5599 78.6411 28.8454L48 11.1548Z" fill="white"/>
<path d="M41.3398 45.4418L31.9041 54.9158C31.8301 54.9907 31.7357 55.0417 31.6328 55.0624C31.5299 55.0831 31.4232 55.0726 31.3263 55.0321C31.2294 54.9917 31.1466 54.9231 31.0885 54.8352C31.0304 54.7473 30.9996 54.644 31 54.5384V35.5323C31 35.3911 31.0557 35.2557 31.1549 35.1559C31.2542 35.0561 31.3887 35 31.529 35H50.3908C50.4957 34.9996 50.5984 35.0306 50.6858 35.089C50.7732 35.1475 50.8413 35.2308 50.8815 35.3283C50.9217 35.4258 50.9322 35.5331 50.9116 35.6367C50.891 35.7402 50.8403 35.8352 50.7659 35.9097L41.3398 45.4418Z" fill="#43D14F"/>
<path d="M42.7441 54.0647L51.9104 63.2001C52.0509 63.3475 52.1463 63.5324 52.1852 63.7328C52.2241 63.9332 52.2049 64.1406 52.1299 64.3304C52.0548 64.5201 51.9272 64.6841 51.7621 64.8028C51.5969 64.9216 51.4014 64.99 51.1987 65.0001H32.2023C32.0973 65.0005 31.9946 64.9695 31.9073 64.911C31.8199 64.8526 31.7517 64.7693 31.7115 64.6718C31.6713 64.5743 31.6608 64.4669 31.6814 64.3634C31.702 64.2599 31.7527 64.1648 31.8271 64.0904L42.0035 54.0647C42.1023 53.9672 42.2353 53.9126 42.3738 53.9126C42.5122 53.9126 42.6452 53.9672 42.7441 54.0647Z" fill="#43D14F"/>
<path d="M47.8516 48.5488L56.0946 39.5102C56.1443 39.4544 56.205 39.4097 56.273 39.3792C56.3409 39.3486 56.4145 39.3328 56.489 39.3328C56.5634 39.3328 56.637 39.3486 56.705 39.3792C56.773 39.4097 56.8337 39.4544 56.8833 39.5102C57.9799 40.807 61 44.6779 61 49.6036C60.9773 52.9508 59.8279 56.1915 57.7394 58.797C57.6898 58.8529 57.629 58.8975 57.561 58.9281C57.4931 58.9587 57.4195 58.9745 57.345 58.9745C57.2706 58.9745 57.197 58.9587 57.129 58.9281C57.0611 58.8975 57.0003 58.8529 56.9507 58.797L47.8516 49.2165C47.7742 49.1227 47.7318 49.0046 47.7318 48.8827C47.7318 48.7607 47.7742 48.6426 47.8516 48.5488Z" fill="#43D14F"/>
</g>
<defs>
<filter id="filter0_d" x="0" y="0" width="90" height="100" filterUnits="userSpaceOnUse" color-interpolation-filters="sRGB">
<feFlood flood-opacity="0" result="BackgroundImageFix"/>
<feColorMatrix in="SourceAlpha" type="matrix" values="0 0 0 0 0 0 0 0 0 0 0 0 0 0 0 0 0 0 127 0" result="hardAlpha"/>
<feOffset dx="-1"/>
<feGaussianBlur stdDeviation="5"/>
<feColorMatrix type="matrix" values="0 0 0 0 0.52549 0 0 0 0 0.588235 0 0 0 0 0.619608 0 0 0 0.2 0"/>
<feBlend mode="normal" in2="BackgroundImageFix" result="effect1_dropShadow"/>
<feBlend mode="normal" in="SourceGraphic" in2="effect1_dropShadow" result="shape"/>
</filter>
</defs>
</svg>
