<svg width="38" height="38" viewBox="0 0 38 38" fill="none" xmlns="http://www.w3.org/2000/svg">
<path d="M19 1C9.05188 1 1 9.05051 1 19C1 22.1572 1.82343 25.2408 3.38705 27.9604L1.06784 35.1625C0.906067 35.6646 1.039 36.215 1.41199 36.588C1.7814 36.9574 2.33044 37.0953 2.83746 36.9322L10.0396 34.6129C12.7592 36.1766 15.8428 37 19 37C28.9481 37 37 28.9495 37 19C37 9.05188 28.9495 1 19 1ZM19 34.1875C16.1482 34.1875 13.3684 33.3918 10.961 31.8864C10.6147 31.67 10.1846 31.6115 9.78439 31.7403L4.58539 33.4146L6.2597 28.2156C6.3866 27.8212 6.33304 27.3905 6.11331 27.039C4.60818 24.6316 3.8125 21.8518 3.8125 19C3.8125 10.6257 10.6257 3.8125 19 3.8125C27.3743 3.8125 34.1875 10.6257 34.1875 19C34.1875 27.3743 27.3743 34.1875 19 34.1875ZM20.7578 19C20.7578 19.9706 19.9709 20.7578 19 20.7578C18.0291 20.7578 17.2422 19.9706 17.2422 19C17.2422 18.0291 18.0291 17.2422 19 17.2422C19.9709 17.2422 20.7578 18.0291 20.7578 19ZM27.7891 19C27.7891 19.9706 27.0022 20.7578 26.0312 20.7578C25.0603 20.7578 24.2734 19.9706 24.2734 19C24.2734 18.0291 25.0603 17.2422 26.0312 17.2422C27.0022 17.2422 27.7891 18.0291 27.7891 19ZM13.7266 19C13.7266 19.9706 12.9397 20.7578 11.9688 20.7578C10.9981 20.7578 10.2109 19.9706 10.2109 19C10.2109 18.0291 10.9981 17.2422 11.9688 17.2422C12.9397 17.2422 13.7266 18.0291 13.7266 19Z" fill="#3962FA" stroke="#3962FA" stroke-width="0.5"/>
</svg>
