<svg width="37" height="36" viewBox="0 0 37 36" fill="none" xmlns="http://www.w3.org/2000/svg">
<path fill-rule="evenodd" clip-rule="evenodd" d="M7.5 0C5.567 0 4 1.567 4 3.5V32.5C4 34.433 5.567 36 7.5 36H29.5C31.433 36 33 34.433 33 32.5V3.5C33 1.567 31.433 0 29.5 0H7.5ZM7 3.5C7 3.22386 7.22386 3 7.5 3H29.5C29.7761 3 30 3.22386 30 3.5V32.5C30 32.7761 29.7761 33 29.5 33H7.5C7.22386 33 7 32.7761 7 32.5V3.5ZM18.727 6.00016C18.869 5.99767 19.0102 6.02372 19.142 6.07676C19.2739 6.1298 19.3937 6.20875 19.4945 6.30895C19.5953 6.40915 19.675 6.52856 19.7288 6.66009C19.7824 6.79115 19.8092 6.9316 19.8078 7.07318V7.55482C21.1015 7.86311 22.2426 8.76171 22.2426 10.3093C22.2426 10.5912 22.1306 10.8615 21.9313 11.0609C21.7319 11.2602 21.4616 11.3722 21.1797 11.3722C20.8978 11.3722 20.6274 11.2602 20.4281 11.0609C20.2287 10.8615 20.1167 10.5912 20.1167 10.3093C20.1167 10.0899 19.9915 9.90711 19.7385 9.76632C19.4816 9.62327 19.1212 9.54409 18.7456 9.54409C18.3701 9.54409 18.0097 9.62327 17.7527 9.76632C17.4998 9.90711 17.3745 10.0899 17.3745 10.3093C17.3745 10.5978 17.4092 10.7561 17.4594 10.8618C17.5077 10.9634 17.5818 11.0414 17.7205 11.1493C17.9789 11.3503 18.459 11.5306 19.0801 11.7376L19.1916 11.7747C19.7696 11.9661 20.4576 12.194 21.0722 12.6721C21.7478 13.1975 22.2426 14.0914 22.2426 15.1837C22.2426 16.7322 21.1022 17.6332 19.8078 17.9414V18.4171C19.8105 18.5575 19.7853 18.6971 19.7337 18.8278C19.6818 18.9594 19.604 19.0793 19.5051 19.1805C19.4062 19.2816 19.288 19.362 19.1576 19.4169C19.0272 19.4717 18.8871 19.5 18.7456 19.5C18.6041 19.5 18.4641 19.4717 18.3336 19.4169C18.2032 19.362 18.0851 19.2816 17.9861 19.1805C17.8872 19.0793 17.8095 18.9594 17.7575 18.8278C17.7059 18.6971 17.6807 18.5575 17.6835 18.4171V17.9414C16.3899 17.6332 15.2515 16.7329 15.2502 15.1864C15.2475 15.0459 15.2726 14.9063 15.3242 14.7756C15.3762 14.644 15.4539 14.5241 15.5529 14.4229C15.6518 14.3218 15.7699 14.2414 15.9004 14.1865C16.0308 14.1316 16.1709 14.1034 16.3123 14.1034C16.4538 14.1034 16.5939 14.1316 16.7243 14.1865C16.8547 14.2414 16.9729 14.3218 17.0718 14.4229C17.1708 14.5241 17.2485 14.644 17.3005 14.7756C17.352 14.9062 17.3772 15.0457 17.3745 15.1861C17.3754 15.4045 17.5007 15.5864 17.7527 15.7267C18.0097 15.8697 18.3701 15.9489 18.7456 15.9489C19.1212 15.9489 19.4816 15.8697 19.7385 15.7267C19.9915 15.5859 20.1167 15.4032 20.1167 15.1837C20.1167 14.8952 20.082 14.7369 20.0318 14.6312C19.9835 14.5296 19.9094 14.4516 19.7707 14.3437C19.5121 14.1426 19.0315 13.9606 18.4112 13.7538L18.292 13.7143C17.716 13.5236 17.031 13.2969 16.419 12.8209C15.7432 12.2953 15.2502 11.4013 15.2502 10.3093C15.2502 8.76006 16.3883 7.86024 17.6835 7.553V7.07315C17.6806 6.79309 17.7884 6.5232 17.9836 6.32223C18.1791 6.12089 18.4464 6.0051 18.727 6.00016ZM10.5 23.75C10.5 22.9216 11.1716 22.25 12 22.25H25C25.8284 22.25 26.5 22.9216 26.5 23.75C26.5 24.5784 25.8284 25.25 25 25.25H12C11.1716 25.25 10.5 24.5784 10.5 23.75ZM12 27.25C11.1716 27.25 10.5 27.9216 10.5 28.75C10.5 29.5784 11.1716 30.25 12 30.25H25C25.8284 30.25 26.5 29.5784 26.5 28.75C26.5 27.9216 25.8284 27.25 25 27.25H12Z" fill="#43D14F"/>
</svg>
