<svg width="37" height="36" viewBox="0 0 37 36" fill="none" xmlns="http://www.w3.org/2000/svg">
<path fill-rule="evenodd" clip-rule="evenodd" d="M13.888 7.95408C14.0905 7.74556 14.3673 7.62565 14.6579 7.62053C14.8051 7.61795 14.9512 7.64492 15.0878 7.69985C15.2243 7.75479 15.3485 7.83656 15.4528 7.94033C15.5572 8.04411 15.6397 8.16777 15.6954 8.304C15.7511 8.44022 15.779 8.58625 15.7772 8.73342V9.66155C17.5518 9.99671 19.0751 11.1393 19.0751 13.1184C19.0751 13.4104 18.9591 13.6905 18.7526 13.897C18.5461 14.1035 18.266 14.2195 17.974 14.2195C17.682 14.2195 17.4019 14.1035 17.1954 13.897C16.9889 13.6905 16.8729 13.4104 16.8729 13.1184C16.8729 11.285 12.4815 11.285 12.4815 13.1184C12.4815 13.9434 12.6759 14.2084 13.0809 14.5235C13.486 14.8385 14.1981 15.0992 15.0231 15.3742C15.0703 15.39 15.1179 15.4058 15.1658 15.4216C15.9553 15.6835 16.8357 15.9755 17.6206 16.586C18.098 16.9573 18.5062 17.4815 18.7676 18.1204C17.9972 18.123 17.2781 18.3433 16.6687 18.7231C16.5721 18.5671 16.4408 18.4455 16.2735 18.3154C15.8685 18.0004 15.1563 17.7375 14.3313 17.4625C14.2805 17.4456 14.2292 17.4286 14.1775 17.4114C13.3908 17.1508 12.515 16.8605 11.7339 16.253C10.9014 15.6055 10.2815 14.4934 10.2815 13.1184C10.2815 11.1363 11.8011 9.99259 13.5772 9.6594V8.73342C13.5738 8.44279 13.6855 8.16261 13.888 7.95408ZM14.9157 21.0883C13.7444 21.1596 12.4815 20.7037 12.4815 19.7205C12.4848 19.574 12.4587 19.4283 12.4049 19.292C12.3511 19.1557 12.2706 19.0316 12.1681 18.9268C12.0656 18.822 11.9433 18.7388 11.8082 18.682C11.6731 18.6251 11.5281 18.5959 11.3815 18.5959C11.235 18.5959 11.0899 18.6251 10.9548 18.682C10.8198 18.7388 10.6974 18.822 10.5949 18.9268C10.4925 19.0316 10.412 19.1557 10.3581 19.292C10.3043 19.4283 10.2783 19.574 10.2815 19.7205C10.2815 21.7011 11.8025 22.8469 13.5772 23.1817V24.1033C13.574 24.2499 13.6 24.3955 13.6538 24.5318C13.7077 24.6681 13.7882 24.7923 13.8906 24.8971C13.9931 25.0018 14.1155 25.0851 14.2505 25.1419C14.3856 25.1987 14.5307 25.228 14.6772 25.228C14.712 25.228 14.7467 25.2264 14.7812 25.2231V22.1204C14.7812 21.7635 14.828 21.4175 14.9157 21.0883Z" fill="#20AEF7"/>
<path fill-rule="evenodd" clip-rule="evenodd" d="M14.7812 27.6204C8.42998 27.6204 3.28125 22.4716 3.28125 16.1204C3.28125 9.76909 8.42998 4.62036 14.7812 4.62036C21.1325 4.62036 26.2812 9.76909 26.2812 16.1204C26.2812 16.8025 26.2219 17.4708 26.108 18.1204H29.1444C29.2346 17.4666 29.2812 16.7989 29.2812 16.1204C29.2812 8.11223 22.7894 1.62036 14.7812 1.62036C6.77312 1.62036 0.28125 8.11223 0.28125 16.1204C0.28125 24.1285 6.77312 30.6204 14.7812 30.6204V27.6204Z" fill="#20AEF7"/>
<mask id="path-3-outside-1" maskUnits="userSpaceOnUse" x="15.2812" y="18.6204" width="21" height="17" fill="black">
<rect fill="white" x="15.2812" y="18.6204" width="21" height="17"/>
<path fill-rule="evenodd" clip-rule="evenodd" d="M33.795 19.6204H18.2041C17.1433 19.6204 16.2812 20.4824 16.2812 21.5432V32.4569C16.2812 33.5176 17.1433 34.3797 18.2041 34.3797H33.795C34.8558 34.3797 35.7179 33.5176 35.7179 32.4568V21.5432C35.7179 20.4824 34.8558 19.6204 33.795 19.6204ZM18.2041 20.9449L18.0419 20.7965C18.0584 20.7929 18.0747 20.7884 18.0908 20.784L18.0908 20.784C18.1259 20.7743 18.1608 20.7646 18.1985 20.7637C18.1607 20.7646 18.1258 20.7743 18.0907 20.784C18.0746 20.7884 18.0583 20.7929 18.0418 20.7965C19.3914 22.0314 23.8674 26.1262 25.4335 27.5371C25.5564 27.6479 25.754 27.7796 25.9995 27.7796C25.9995 27.7796 25.9996 27.7796 25.9996 27.7796C25.7541 27.7796 25.5565 27.6479 25.4336 27.5371C23.9872 26.234 20.0589 22.6419 18.4036 21.1275L18.2041 20.9449ZM17.4682 21.3279C17.4681 21.3279 17.4681 21.3278 17.4681 21.3278C17.4662 21.3343 17.4643 21.3407 17.4623 21.3472C17.4434 21.4105 17.4245 21.4739 17.4245 21.5433V32.4568C17.4245 32.5172 17.4404 32.5724 17.4564 32.6277C17.4595 32.6384 17.4627 32.6492 17.4656 32.66C17.4657 32.66 17.4657 32.66 17.4657 32.6599L17.4565 32.6277C17.4405 32.5724 17.4246 32.5172 17.4246 32.4568V21.5432C17.4246 21.4739 17.4435 21.4105 17.4624 21.3472L17.4682 21.3279ZM25.677 27.2668C24.3114 26.0365 20.7298 22.7623 18.9426 21.1275H33.0563C31.2691 22.7625 27.6874 26.0367 26.3217 27.2672C26.2278 27.3518 26.1144 27.4158 25.9996 27.4158C25.8848 27.4158 25.7715 27.3519 25.677 27.2668ZM23.1012 26.9649C21.3867 28.4591 19.0596 30.6456 17.7884 31.8513V22.1139C19.0547 23.2725 21.3853 25.4033 23.1012 26.9649ZM27.7681 27.5001C27.7681 27.5001 27.7681 27.5001 27.7681 27.5001C27.5094 27.7347 27.2731 27.9487 27.0869 28.1164C26.8076 28.3686 26.4864 28.5172 26.1503 28.5515C26.4865 28.5173 26.8077 28.3686 27.087 28.1164C27.2732 27.9487 27.5095 27.7347 27.7681 27.5001ZM24.2309 27.5001C24.2309 27.5001 24.2308 27.5001 24.2308 27.5001C22.2479 29.1964 19.1043 32.175 18.0283 33.2008C18.0438 33.2045 18.0591 33.2088 18.0744 33.213C18.1164 33.2247 18.1584 33.2364 18.204 33.2364H33.7949C33.7949 33.2364 33.7949 33.2364 33.795 33.2364H18.2041C18.1585 33.2364 18.1165 33.2247 18.0745 33.213L18.0745 33.213C18.0592 33.2088 18.0439 33.2045 18.0284 33.2008L18.2041 33.0334L18.3733 32.8726C19.67 31.6406 22.4294 29.0412 24.2309 27.5001ZM28.6271 27.2114C30.457 28.8039 33.0104 31.2117 34.2108 32.3528L34.3201 32.4568L34.5333 32.6599C34.5333 32.66 34.5333 32.66 34.5333 32.66C33.4916 31.6665 30.3682 28.7053 28.3499 26.9717C30.3749 25.1303 33.4974 22.2736 34.5308 21.3277C34.5308 21.3278 34.5308 21.3278 34.5308 21.3278L34.2955 21.5432L34.2108 21.6207C33.0151 22.7148 30.457 25.0544 28.6211 26.7251L28.35 26.9717C28.4402 27.0493 28.5327 27.1292 28.6271 27.2114ZM27.7744 27.9855C29.4407 29.4288 31.7813 31.6253 33.0974 32.8726H18.9018C20.2178 31.6255 22.5585 29.4289 24.2247 27.9855C24.3898 28.135 24.5405 28.2713 24.6679 28.3861C25.0483 28.7296 25.5091 28.9229 25.9996 28.9229C26.4899 28.9229 26.9506 28.7296 27.3305 28.3867C27.4581 28.2717 27.609 28.1353 27.7744 27.9855ZM28.898 26.9649C30.6125 28.459 32.9394 30.6453 34.2108 31.8512V22.1138C32.9443 23.2726 30.6139 25.4033 28.898 26.9649ZM33.795 19.9841H18.2041C18.189 19.9841 18.1739 19.9844 18.1589 19.9848C18.1739 19.9844 18.1889 19.9842 18.204 19.9842H33.7949C34.6548 19.9842 35.354 20.6834 35.354 21.5433V32.4568C35.354 33.2982 34.6845 33.9858 33.8502 34.015C34.6846 33.9858 35.3541 33.2983 35.3541 32.4568V21.5432C35.3541 20.6834 34.6549 19.9841 33.795 19.9841Z"/>
</mask>
<path fill-rule="evenodd" clip-rule="evenodd" d="M33.795 19.6204H18.2041C17.1433 19.6204 16.2812 20.4824 16.2812 21.5432V32.4569C16.2812 33.5176 17.1433 34.3797 18.2041 34.3797H33.795C34.8558 34.3797 35.7179 33.5176 35.7179 32.4568V21.5432C35.7179 20.4824 34.8558 19.6204 33.795 19.6204ZM18.2041 20.9449L18.0419 20.7965C18.0584 20.7929 18.0747 20.7884 18.0908 20.784L18.0908 20.784C18.1259 20.7743 18.1608 20.7646 18.1985 20.7637C18.1607 20.7646 18.1258 20.7743 18.0907 20.784C18.0746 20.7884 18.0583 20.7929 18.0418 20.7965C19.3914 22.0314 23.8674 26.1262 25.4335 27.5371C25.5564 27.6479 25.754 27.7796 25.9995 27.7796C25.9995 27.7796 25.9996 27.7796 25.9996 27.7796C25.7541 27.7796 25.5565 27.6479 25.4336 27.5371C23.9872 26.234 20.0589 22.6419 18.4036 21.1275L18.2041 20.9449ZM17.4682 21.3279C17.4681 21.3279 17.4681 21.3278 17.4681 21.3278C17.4662 21.3343 17.4643 21.3407 17.4623 21.3472C17.4434 21.4105 17.4245 21.4739 17.4245 21.5433V32.4568C17.4245 32.5172 17.4404 32.5724 17.4564 32.6277C17.4595 32.6384 17.4627 32.6492 17.4656 32.66C17.4657 32.66 17.4657 32.66 17.4657 32.6599L17.4565 32.6277C17.4405 32.5724 17.4246 32.5172 17.4246 32.4568V21.5432C17.4246 21.4739 17.4435 21.4105 17.4624 21.3472L17.4682 21.3279ZM25.677 27.2668C24.3114 26.0365 20.7298 22.7623 18.9426 21.1275H33.0563C31.2691 22.7625 27.6874 26.0367 26.3217 27.2672C26.2278 27.3518 26.1144 27.4158 25.9996 27.4158C25.8848 27.4158 25.7715 27.3519 25.677 27.2668ZM23.1012 26.9649C21.3867 28.4591 19.0596 30.6456 17.7884 31.8513V22.1139C19.0547 23.2725 21.3853 25.4033 23.1012 26.9649ZM27.7681 27.5001C27.7681 27.5001 27.7681 27.5001 27.7681 27.5001C27.5094 27.7347 27.2731 27.9487 27.0869 28.1164C26.8076 28.3686 26.4864 28.5172 26.1503 28.5515C26.4865 28.5173 26.8077 28.3686 27.087 28.1164C27.2732 27.9487 27.5095 27.7347 27.7681 27.5001ZM24.2309 27.5001C24.2309 27.5001 24.2308 27.5001 24.2308 27.5001C22.2479 29.1964 19.1043 32.175 18.0283 33.2008C18.0438 33.2045 18.0591 33.2088 18.0744 33.213C18.1164 33.2247 18.1584 33.2364 18.204 33.2364H33.7949C33.7949 33.2364 33.7949 33.2364 33.795 33.2364H18.2041C18.1585 33.2364 18.1165 33.2247 18.0745 33.213L18.0745 33.213C18.0592 33.2088 18.0439 33.2045 18.0284 33.2008L18.2041 33.0334L18.3733 32.8726C19.67 31.6406 22.4294 29.0412 24.2309 27.5001ZM28.6271 27.2114C30.457 28.8039 33.0104 31.2117 34.2108 32.3528L34.3201 32.4568L34.5333 32.6599C34.5333 32.66 34.5333 32.66 34.5333 32.66C33.4916 31.6665 30.3682 28.7053 28.3499 26.9717C30.3749 25.1303 33.4974 22.2736 34.5308 21.3277C34.5308 21.3278 34.5308 21.3278 34.5308 21.3278L34.2955 21.5432L34.2108 21.6207C33.0151 22.7148 30.457 25.0544 28.6211 26.7251L28.35 26.9717C28.4402 27.0493 28.5327 27.1292 28.6271 27.2114ZM27.7744 27.9855C29.4407 29.4288 31.7813 31.6253 33.0974 32.8726H18.9018C20.2178 31.6255 22.5585 29.4289 24.2247 27.9855C24.3898 28.135 24.5405 28.2713 24.6679 28.3861C25.0483 28.7296 25.5091 28.9229 25.9996 28.9229C26.4899 28.9229 26.9506 28.7296 27.3305 28.3867C27.4581 28.2717 27.609 28.1353 27.7744 27.9855ZM28.898 26.9649C30.6125 28.459 32.9394 30.6453 34.2108 31.8512V22.1138C32.9443 23.2726 30.6139 25.4033 28.898 26.9649ZM33.795 19.9841H18.2041C18.189 19.9841 18.1739 19.9844 18.1589 19.9848C18.1739 19.9844 18.1889 19.9842 18.204 19.9842H33.7949C34.6548 19.9842 35.354 20.6834 35.354 21.5433V32.4568C35.354 33.2982 34.6845 33.9858 33.8502 34.015C34.6846 33.9858 35.3541 33.2983 35.3541 32.4568V21.5432C35.3541 20.6834 34.6549 19.9841 33.795 19.9841Z" fill="#20AEF7"/>
<path d="M18.0419 20.7965L17.9777 20.5035L17.4126 20.6274L17.8394 21.0179L18.0419 20.7965ZM18.2041 20.9449L18.0016 21.1663L18.0016 21.1663L18.2041 20.9449ZM18.0908 20.784L18.032 20.4898L18.0214 20.4919L18.0109 20.4948L18.0908 20.784ZM18.0908 20.784L18.1497 21.0781L18.1603 21.076L18.1707 21.0731L18.0908 20.784ZM18.1985 20.7637L18.2056 21.0637L18.1915 20.4638L18.1985 20.7637ZM18.0907 20.784L18.1706 21.0731L18.1706 21.0731L18.0907 20.784ZM18.0418 20.7965L17.9776 20.5035L17.4125 20.6274L17.8393 21.0179L18.0418 20.7965ZM25.4335 27.5371L25.2327 27.76L25.2327 27.76L25.4335 27.5371ZM25.4336 27.5371L25.2328 27.76L25.2328 27.76L25.4336 27.5371ZM18.4036 21.1275L18.2011 21.3488L18.2011 21.3488L18.4036 21.1275ZM17.4681 21.3278L17.6708 21.1067L17.3165 20.7819L17.1804 21.2428L17.4681 21.3278ZM17.4682 21.3279L17.7557 21.4134L17.8092 21.2336L17.6709 21.1067L17.4682 21.3279ZM17.4623 21.3472L17.7498 21.433L17.7498 21.433L17.4623 21.3472ZM17.4564 32.6277L17.7446 32.5444L17.7446 32.5443L17.4564 32.6277ZM17.4656 32.66L17.1766 32.7402L17.3113 33.2261L17.674 32.8758L17.4656 32.66ZM17.4657 32.6599L17.6741 32.8757L17.8036 32.7507L17.7542 32.5776L17.4657 32.6599ZM17.4565 32.6277L17.745 32.5454L17.7447 32.5443L17.4565 32.6277ZM17.4624 21.3472L17.7499 21.433L17.75 21.4327L17.4624 21.3472ZM18.9426 21.1275V20.8275H18.1702L18.7401 21.3488L18.9426 21.1275ZM25.677 27.2668L25.4762 27.4897L25.4763 27.4897L25.677 27.2668ZM33.0563 21.1275L33.2588 21.3488L33.8287 20.8275H33.0563V21.1275ZM26.3217 27.2672L26.5225 27.4901L26.5225 27.4901L26.3217 27.2672ZM17.7884 31.8513H17.4884V32.5492L17.9948 32.0689L17.7884 31.8513ZM23.1012 26.9649L23.2983 27.1911L23.5522 26.9698L23.3031 26.743L23.1012 26.9649ZM17.7884 22.1139L17.9909 21.8925L17.4884 21.4328V22.1139H17.7884ZM27.7681 27.5001L27.9638 27.2727L27.7629 27.0997L27.5665 27.2779L27.7681 27.5001ZM27.7681 27.5001L27.9697 27.7223L28.2211 27.4943L27.9639 27.2728L27.7681 27.5001ZM27.0869 28.1164L26.8861 27.8936L26.8859 27.8938L27.0869 28.1164ZM26.1503 28.5515L26.1199 28.253L26.1807 28.8499L26.1503 28.5515ZM27.087 28.1164L26.8862 27.8936L26.886 27.8938L27.087 28.1164ZM24.2308 27.5001L24.433 27.2784L24.2372 27.0999L24.0358 27.2721L24.2308 27.5001ZM24.2309 27.5001L24.4259 27.7281L24.684 27.5073L24.433 27.2784L24.2309 27.5001ZM18.0283 33.2008L17.8213 32.9837L17.4219 33.3644L17.9586 33.4926L18.0283 33.2008ZM18.0744 33.213L18.1548 32.924L18.1548 32.924L18.0744 33.213ZM18.0745 33.213L18.155 32.9237L18.1413 32.9206L18.0745 33.213ZM18.0745 33.213L17.9939 33.5024L18.0076 33.5055L18.0745 33.213ZM18.0284 33.2008L17.8215 32.9836L17.4217 33.3643L17.9587 33.4926L18.0284 33.2008ZM18.2041 33.0334L17.9974 32.816L17.9972 32.8162L18.2041 33.0334ZM18.3733 32.8726L18.1666 32.6551L18.1665 32.6552L18.3733 32.8726ZM34.2108 32.3528L34.4175 32.1354L34.4175 32.1354L34.2108 32.3528ZM28.6271 27.2114L28.4302 27.4377H28.4302L28.6271 27.2114ZM34.3201 32.4568L34.5271 32.2396L34.5269 32.2395L34.3201 32.4568ZM34.5333 32.6599L34.8225 32.7397L34.8703 32.5666L34.7402 32.4427L34.5333 32.6599ZM34.5333 32.66L34.3263 32.8771L34.6891 33.2232L34.8225 32.7398L34.5333 32.66ZM28.3499 26.9717L28.148 26.7498L27.8969 26.9781L28.1544 27.1993L28.3499 26.9717ZM34.5308 21.3277L34.8172 21.2383L34.6765 20.7877L34.3283 21.1064L34.5308 21.3277ZM34.5308 21.3278L34.7334 21.5491L34.874 21.4204L34.8172 21.2384L34.5308 21.3278ZM34.2955 21.5432L34.498 21.7645L34.498 21.7645L34.2955 21.5432ZM34.2108 21.6207L34.4133 21.842L34.4133 21.842L34.2108 21.6207ZM28.6211 26.7251L28.823 26.947L28.823 26.947L28.6211 26.7251ZM28.35 26.9717L28.1481 26.7498L27.897 26.9782L28.1545 27.1993L28.35 26.9717ZM33.0974 32.8726V33.1726H33.8501L33.3038 32.6549L33.0974 32.8726ZM27.7744 27.9855L27.9708 27.7587L27.7699 27.5847L27.573 27.7631L27.7744 27.9855ZM18.9018 32.8726L18.6954 32.6549L18.1491 33.1726H18.9018V32.8726ZM24.2247 27.9855L24.4262 27.7631L24.2292 27.5847L24.0283 27.7587L24.2247 27.9855ZM24.6679 28.3861L24.8689 28.1634L24.8687 28.1632L24.6679 28.3861ZM27.3305 28.3867L27.1297 28.1638L27.1296 28.164L27.3305 28.3867ZM34.2108 31.8512L34.0043 32.0688L34.5108 32.5492V31.8512H34.2108ZM28.898 26.9649L28.6961 26.7431L28.447 26.9698L28.7009 27.1911L28.898 26.9649ZM34.2108 22.1138H34.5108V21.4327L34.0083 21.8925L34.2108 22.1138ZM18.1589 19.9848L18.1503 19.6849L18.1675 20.2847L18.1589 19.9848ZM33.8502 34.015L33.8397 33.7152L33.8606 34.3148L33.8502 34.015ZM18.2041 19.9204H33.795V19.3204H18.2041V19.9204ZM16.5813 21.5432C16.5813 20.6481 17.309 19.9204 18.2041 19.9204V19.3204C16.9777 19.3204 15.9812 20.3168 15.9812 21.5432H16.5813ZM16.5813 32.4569V21.5432H15.9812V32.4569H16.5813ZM18.2041 34.0797C17.309 34.0797 16.5813 33.3519 16.5813 32.4569H15.9812C15.9812 33.6833 16.9777 34.6797 18.2041 34.6797V34.0797ZM33.795 34.0797H18.2041V34.6797H33.795V34.0797ZM35.4179 32.4568C35.4179 33.3519 34.6901 34.0797 33.795 34.0797V34.6797C35.0215 34.6797 36.0179 33.6833 36.0179 32.4568H35.4179ZM35.4179 21.5432V32.4568H36.0179V21.5432H35.4179ZM33.795 19.9204C34.6901 19.9204 35.4179 20.6481 35.4179 21.5432H36.0179C36.0179 20.3168 35.0215 19.3204 33.795 19.3204V19.9204ZM17.8394 21.0179L18.0016 21.1663L18.4067 20.7236L18.2444 20.5752L17.8394 21.0179ZM18.0109 20.4948C17.9935 20.4996 17.985 20.5019 17.9777 20.5035L18.1062 21.0896C18.1319 21.0839 18.1558 21.0772 18.1707 21.0731L18.0109 20.4948ZM18.032 20.4898L18.032 20.4898L18.1497 21.0781L18.1497 21.0781L18.032 20.4898ZM18.1914 20.4638C18.1108 20.4657 18.0408 20.4865 18.011 20.4948L18.1707 21.0731C18.1799 21.0706 18.1863 21.0688 18.1924 21.0672C18.1983 21.0657 18.2023 21.0648 18.2051 21.0642C18.2108 21.063 18.2101 21.0636 18.2056 21.0637L18.1914 20.4638ZM18.1706 21.0731C18.1798 21.0706 18.1862 21.0688 18.1924 21.0672C18.1982 21.0657 18.2022 21.0648 18.2051 21.0642C18.2107 21.063 18.21 21.0636 18.2054 21.0637L18.1915 20.4638C18.1108 20.4657 18.0407 20.4865 18.0108 20.4948L18.1706 21.0731ZM18.1061 21.0896C18.1318 21.0839 18.1557 21.0772 18.1706 21.0731L18.0108 20.4948C17.9934 20.4996 17.9849 20.5019 17.9776 20.5035L18.1061 21.0896ZM25.6343 27.3142C24.0693 25.9043 19.5945 21.8106 18.2443 20.5752L17.8393 21.0179C19.1883 22.2523 23.6654 26.3481 25.2327 27.76L25.6343 27.3142ZM25.9995 27.4796C25.8618 27.4796 25.7337 27.4038 25.6343 27.3142L25.2327 27.76C25.3792 27.892 25.6461 28.0796 25.9995 28.0796V27.4796ZM25.9996 27.4796C25.9943 27.4796 25.99 27.4797 25.9873 27.4798C25.9859 27.4799 25.9848 27.4799 25.9842 27.48C25.9838 27.48 25.9836 27.48 25.9834 27.48C25.9833 27.48 25.9832 27.48 25.9832 27.48C25.9832 27.48 25.9832 27.48 25.9831 27.48C25.9831 27.48 25.9831 27.48 25.9831 27.48C25.9831 27.48 25.9831 27.48 25.9831 27.48H25.9831C25.9828 27.48 25.9848 27.4799 25.9872 27.4798C25.9899 27.4797 25.9942 27.4796 25.9995 27.4796V28.0796C26.0048 28.0796 26.0091 28.0794 26.0118 28.0793C26.0131 28.0793 26.0142 28.0792 26.0149 28.0792C26.0152 28.0792 26.0155 28.0791 26.0157 28.0791C26.0158 28.0791 26.0158 28.0791 26.0159 28.0791C26.0159 28.0791 26.0159 28.0791 26.0159 28.0791C26.0159 28.0791 26.016 28.0791 26.016 28.0791C26.016 28.0791 26.016 28.0791 26.016 28.0791H26.016C26.0163 28.0791 26.0143 28.0792 26.0118 28.0793C26.0092 28.0794 26.0049 28.0796 25.9996 28.0796V27.4796ZM25.2328 27.76C25.3793 27.892 25.6463 28.0796 25.9996 28.0796V27.4796C25.8619 27.4796 25.7338 27.4038 25.6344 27.3142L25.2328 27.76ZM18.2011 21.3488C19.856 22.8628 23.7853 26.4559 25.2328 27.76L25.6344 27.3142C24.1891 26.0121 20.2619 22.421 18.6061 20.9061L18.2011 21.3488ZM18.0016 21.1663L18.2011 21.3488L18.6061 20.9061L18.4066 20.7236L18.0016 21.1663ZM17.2654 21.549L17.2655 21.549L17.6709 21.1067L17.6708 21.1067L17.2654 21.549ZM17.7498 21.433C17.7517 21.4267 17.7537 21.4197 17.7558 21.4128L17.1804 21.2428C17.1786 21.2488 17.1768 21.2548 17.1749 21.2613L17.7498 21.433ZM17.7245 21.5433C17.7245 21.5246 17.7291 21.5023 17.7498 21.433L17.1749 21.2613C17.1577 21.3187 17.1245 21.4233 17.1245 21.5433H17.7245ZM17.7245 32.4568V21.5433H17.1245V32.4568H17.7245ZM17.7446 32.5443C17.7361 32.515 17.7313 32.4978 17.7279 32.4819C17.7249 32.4677 17.7245 32.4604 17.7245 32.4568H17.1245C17.1245 32.5663 17.1539 32.6615 17.1682 32.711L17.7446 32.5443ZM17.7547 32.5798C17.7512 32.5672 17.7477 32.5548 17.7446 32.5444L17.1682 32.711C17.1714 32.7221 17.1741 32.7312 17.1766 32.7402L17.7547 32.5798ZM17.2574 32.4441L17.2573 32.4442L17.674 32.8758L17.6741 32.8757L17.2574 32.4441ZM17.168 32.71L17.1772 32.7422L17.7542 32.5776L17.745 32.5454L17.168 32.71ZM17.1246 32.4568C17.1246 32.5663 17.154 32.6615 17.1683 32.711L17.7447 32.5443C17.7362 32.515 17.7314 32.4978 17.728 32.4819C17.725 32.4677 17.7246 32.4604 17.7246 32.4568H17.1246ZM17.1246 21.5432V32.4568H17.7246V21.5432H17.1246ZM17.175 21.2613C17.1579 21.3187 17.1246 21.4233 17.1246 21.5432H17.7246C17.7246 21.5246 17.7292 21.5023 17.7499 21.433L17.175 21.2613ZM17.1806 21.2423L17.1749 21.2616L17.75 21.4327L17.7557 21.4134L17.1806 21.2423ZM18.7401 21.3488C20.5268 22.9832 24.1096 26.2584 25.4762 27.4897L25.8779 27.0439C24.5133 25.8146 20.9327 22.5414 19.1451 20.9061L18.7401 21.3488ZM33.0563 20.8275H18.9426V21.4275H33.0563V20.8275ZM26.5225 27.4901C27.8893 26.2586 31.472 22.9835 33.2588 21.3488L32.8538 20.9061C31.0662 22.5416 27.4856 25.8148 26.1209 27.0443L26.5225 27.4901ZM25.9996 27.7158C26.2217 27.7158 26.4044 27.5965 26.5225 27.4901L26.1209 27.0443C26.0511 27.1072 26.0071 27.1158 25.9996 27.1158V27.7158ZM25.4763 27.4897C25.5947 27.5964 25.7774 27.7158 25.9996 27.7158V27.1158C25.9922 27.1158 25.9482 27.1073 25.8778 27.0439L25.4763 27.4897ZM17.9948 32.0689C19.2662 30.8632 21.5891 28.6806 23.2983 27.1911L22.904 26.7387C21.1843 28.2376 18.8531 30.4281 17.5819 31.6336L17.9948 32.0689ZM17.4884 22.1139V31.8513H18.0884V22.1139H17.4884ZM23.3031 26.743C21.5876 25.1817 19.2572 23.0511 17.9909 21.8925L17.5859 22.3352C18.8523 23.4938 21.1831 25.6249 22.8992 27.1868L23.3031 26.743ZM27.5723 27.7274C27.5723 27.7274 27.5723 27.7274 27.5723 27.7274H27.5723C27.5723 27.7274 27.5723 27.7274 27.5723 27.7274C27.5723 27.7274 27.5723 27.7274 27.5723 27.7274C27.5723 27.7274 27.5723 27.7274 27.5723 27.7274H27.5723C27.5723 27.7274 27.5723 27.7274 27.5723 27.7274C27.5723 27.7274 27.5723 27.7274 27.5723 27.7274C27.5723 27.7274 27.5723 27.7274 27.5723 27.7274H27.5723C27.5723 27.7274 27.5723 27.7274 27.5723 27.7274C27.5723 27.7274 27.5723 27.7274 27.5723 27.7274C27.5723 27.7274 27.5723 27.7274 27.5723 27.7274C27.5723 27.7274 27.5723 27.7274 27.5723 27.7274C27.5723 27.7274 27.5723 27.7274 27.5723 27.7274H27.5723C27.5723 27.7274 27.5723 27.7274 27.5723 27.7274C27.5723 27.7274 27.5723 27.7274 27.5723 27.7274C27.5723 27.7274 27.5723 27.7274 27.5723 27.7274H27.5723C27.5723 27.7274 27.5723 27.7274 27.5723 27.7274C27.5723 27.7274 27.5723 27.7274 27.5723 27.7274C27.5723 27.7274 27.5723 27.7274 27.5723 27.7274H27.5723C27.5723 27.7274 27.5723 27.7274 27.5723 27.7274C27.5723 27.7274 27.5723 27.7274 27.5723 27.7274C27.5723 27.7274 27.5723 27.7274 27.5723 27.7274C27.5723 27.7274 27.5723 27.7274 27.5723 27.7274C27.5723 27.7274 27.5723 27.7274 27.5723 27.7274C27.5723 27.7274 27.5723 27.7274 27.5723 27.7274C27.5723 27.7274 27.5723 27.7274 27.5723 27.7274C27.5723 27.7274 27.5723 27.7274 27.5723 27.7274C27.5723 27.7274 27.5723 27.7274 27.5723 27.7274C27.5723 27.7274 27.5723 27.7274 27.5723 27.7274C27.5723 27.7274 27.5723 27.7274 27.5723 27.7274C27.5723 27.7274 27.5723 27.7274 27.5723 27.7274C27.5723 27.7274 27.5723 27.7274 27.5723 27.7274C27.5723 27.7274 27.5723 27.7274 27.5723 27.7274C27.5723 27.7274 27.5723 27.7274 27.5723 27.7274C27.5723 27.7274 27.5723 27.7274 27.5723 27.7274C27.5723 27.7274 27.5723 27.7274 27.5723 27.7274C27.5723 27.7274 27.5723 27.7274 27.5723 27.7274H27.5723C27.5723 27.7274 27.5723 27.7274 27.5723 27.7274C27.5723 27.7274 27.5723 27.7274 27.5723 27.7274C27.5723 27.7274 27.5723 27.7274 27.5723 27.7274H27.5723C27.5723 27.7274 27.5723 27.7274 27.5723 27.7274C27.5724 27.7274 27.5724 27.7274 27.5724 27.7274C27.5724 27.7274 27.5724 27.7274 27.5724 27.7274C27.5724 27.7274 27.5724 27.7274 27.5724 27.7274C27.5724 27.7274 27.5724 27.7274 27.5724 27.7274H27.5724C27.5724 27.7274 27.5724 27.7274 27.5724 27.7274C27.5724 27.7274 27.5724 27.7274 27.5724 27.7274C27.5724 27.7274 27.5724 27.7274 27.5724 27.7274H27.5724C27.5724 27.7274 27.5724 27.7274 27.5724 27.7274C27.5724 27.7274 27.5724 27.7274 27.5724 27.7274C27.5724 27.7274 27.5724 27.7274 27.5724 27.7274H27.5724C27.5724 27.7274 27.5724 27.7274 27.5724 27.7274H27.5724C27.5724 27.7274 27.5724 27.7274 27.5724 27.7274C27.5724 27.7274 27.5724 27.7274 27.5724 27.7274C27.5724 27.7274 27.5724 27.7274 27.5724 27.7274H27.5724C27.5724 27.7274 27.5724 27.7274 27.5724 27.7274C27.5724 27.7274 27.5724 27.7274 27.5724 27.7274C27.5724 27.7274 27.5724 27.7274 27.5724 27.7274H27.5724C27.5724 27.7274 27.5724 27.7274 27.5724 27.7274C27.5724 27.7274 27.5724 27.7274 27.5724 27.7274C27.5724 27.7274 27.5724 27.7274 27.5724 27.7274C27.5724 27.7274 27.5724 27.7274 27.5724 27.7274C27.5724 27.7274 27.5724 27.7274 27.5724 27.7274C27.5724 27.7274 27.5724 27.7274 27.5724 27.7274C27.5724 27.7274 27.5724 27.7274 27.5724 27.7274C27.5724 27.7274 27.5724 27.7274 27.5724 27.7274C27.5724 27.7274 27.5724 27.7274 27.5724 27.7274C27.5724 27.7274 27.5724 27.7274 27.5724 27.7274C27.5724 27.7274 27.5724 27.7274 27.5724 27.7274V27.7274C27.5724 27.7274 27.5724 27.7274 27.5724 27.7274V27.7274C27.5724 27.7274 27.5724 27.7274 27.5724 27.7274V27.7274C27.5724 27.7274 27.5724 27.7274 27.5724 27.7274C27.5724 27.7274 27.5724 27.7274 27.5724 27.7274H27.5724V27.7274C27.5724 27.7274 27.5724 27.7274 27.5724 27.7274V27.7274H27.5724L27.9639 27.2728C27.9639 27.2728 27.9639 27.2728 27.9639 27.2728C27.9639 27.2728 27.9639 27.2728 27.9639 27.2728V27.2728C27.9639 27.2728 27.9639 27.2728 27.9639 27.2728C27.9639 27.2728 27.9639 27.2728 27.9639 27.2728C27.9639 27.2728 27.9639 27.2728 27.9639 27.2728C27.9639 27.2728 27.9639 27.2728 27.9639 27.2728C27.9639 27.2728 27.9639 27.2728 27.9639 27.2728H27.9639C27.9639 27.2728 27.9639 27.2728 27.9639 27.2728C27.9639 27.2728 27.9639 27.2728 27.9639 27.2728C27.9639 27.2728 27.9639 27.2728 27.9639 27.2728C27.9639 27.2728 27.9639 27.2728 27.9639 27.2728C27.9639 27.2728 27.9639 27.2728 27.9639 27.2728C27.9639 27.2728 27.9639 27.2728 27.9639 27.2728C27.9639 27.2728 27.9639 27.2728 27.9639 27.2728C27.9639 27.2728 27.9639 27.2728 27.9639 27.2728C27.9639 27.2728 27.9639 27.2728 27.9639 27.2728H27.9639C27.9639 27.2728 27.9639 27.2728 27.9639 27.2728C27.9639 27.2728 27.9639 27.2728 27.9639 27.2728C27.9639 27.2728 27.9639 27.2728 27.9639 27.2728H27.9639C27.9639 27.2728 27.9639 27.2728 27.9639 27.2728C27.9639 27.2728 27.9639 27.2728 27.9639 27.2728C27.9639 27.2728 27.9639 27.2728 27.9639 27.2728C27.9639 27.2728 27.9639 27.2728 27.9639 27.2728C27.9639 27.2728 27.9639 27.2728 27.9639 27.2728H27.9639C27.9639 27.2728 27.9639 27.2728 27.9639 27.2728C27.9639 27.2728 27.9639 27.2728 27.9639 27.2728C27.9639 27.2728 27.9639 27.2728 27.9639 27.2728H27.9639C27.9639 27.2728 27.9639 27.2728 27.9639 27.2728C27.9639 27.2728 27.9639 27.2728 27.9639 27.2728C27.9639 27.2728 27.9639 27.2728 27.9639 27.2728C27.9639 27.2728 27.9639 27.2728 27.9639 27.2728C27.9639 27.2728 27.9639 27.2728 27.9639 27.2728C27.9639 27.2728 27.9639 27.2728 27.9639 27.2728C27.9639 27.2728 27.9639 27.2728 27.9639 27.2728C27.9639 27.2728 27.9639 27.2728 27.9639 27.2728C27.9639 27.2728 27.9639 27.2728 27.9639 27.2728C27.9639 27.2728 27.9639 27.2728 27.9639 27.2728C27.9639 27.2728 27.9639 27.2728 27.9639 27.2728C27.9639 27.2728 27.9639 27.2728 27.9639 27.2728C27.9639 27.2728 27.9639 27.2728 27.9639 27.2728C27.9639 27.2728 27.9639 27.2728 27.9639 27.2728C27.9639 27.2728 27.9639 27.2728 27.9639 27.2728C27.9639 27.2728 27.9639 27.2728 27.9639 27.2728C27.9639 27.2728 27.9639 27.2728 27.9639 27.2728V27.2728C27.9639 27.2728 27.9639 27.2728 27.9639 27.2728C27.9639 27.2728 27.9639 27.2728 27.9639 27.2728V27.2728C27.9639 27.2728 27.9639 27.2728 27.9639 27.2728C27.9639 27.2728 27.9639 27.2728 27.9639 27.2728V27.2728C27.9639 27.2728 27.9639 27.2728 27.9639 27.2728C27.9639 27.2728 27.9639 27.2728 27.9639 27.2728C27.9639 27.2728 27.9639 27.2728 27.9639 27.2728C27.9639 27.2728 27.9639 27.2728 27.9639 27.2728H27.9639V27.2728C27.9639 27.2728 27.9639 27.2728 27.9639 27.2728C27.9639 27.2728 27.9639 27.2728 27.9639 27.2728V27.2728C27.9639 27.2728 27.9639 27.2728 27.9639 27.2728H27.9639V27.2728C27.9639 27.2728 27.9639 27.2728 27.9639 27.2728V27.2728H27.9639C27.9639 27.2728 27.9639 27.2728 27.9639 27.2728V27.2728C27.9639 27.2728 27.9639 27.2728 27.9639 27.2728C27.9639 27.2728 27.9639 27.2728 27.9639 27.2728L27.9639 27.2728C27.9639 27.2728 27.9639 27.2728 27.9639 27.2728C27.9639 27.2728 27.9639 27.2728 27.9639 27.2728V27.2728C27.9639 27.2728 27.9639 27.2728 27.9639 27.2728H27.9639V27.2728C27.9639 27.2728 27.9639 27.2728 27.9639 27.2728C27.9639 27.2728 27.9639 27.2728 27.9639 27.2728V27.2728C27.9639 27.2728 27.9639 27.2728 27.9639 27.2728V27.2728C27.9639 27.2728 27.9639 27.2728 27.9639 27.2728C27.9639 27.2728 27.9639 27.2728 27.9639 27.2728V27.2728H27.9639C27.9639 27.2728 27.9639 27.2728 27.9639 27.2728C27.9639 27.2728 27.9639 27.2728 27.9639 27.2728C27.9639 27.2728 27.9639 27.2728 27.9639 27.2728H27.9639V27.2728C27.9639 27.2728 27.9639 27.2728 27.9639 27.2728C27.9639 27.2728 27.9639 27.2728 27.9639 27.2728V27.2728C27.9639 27.2728 27.9639 27.2728 27.9639 27.2728H27.9639V27.2728C27.9639 27.2728 27.9639 27.2728 27.9638 27.2728C27.9638 27.2728 27.9638 27.2728 27.9638 27.2728V27.2728C27.9638 27.2728 27.9638 27.2728 27.9638 27.2728C27.9638 27.2728 27.9638 27.2728 27.9638 27.2728V27.2727C27.9638 27.2727 27.9638 27.2727 27.9638 27.2727C27.9638 27.2727 27.9638 27.2727 27.9638 27.2727V27.2727C27.9638 27.2727 27.9638 27.2727 27.9638 27.2727C27.9638 27.2727 27.9638 27.2727 27.9638 27.2727C27.9638 27.2727 27.9638 27.2727 27.9638 27.2727V27.2727C27.9638 27.2727 27.9638 27.2727 27.9638 27.2727C27.9638 27.2727 27.9638 27.2727 27.9638 27.2727V27.2727C27.9638 27.2727 27.9638 27.2727 27.9638 27.2727C27.9638 27.2727 27.9638 27.2727 27.9638 27.2727V27.2727C27.9638 27.2727 27.9638 27.2727 27.9638 27.2727V27.2727C27.9638 27.2727 27.9638 27.2727 27.9638 27.2727C27.9638 27.2727 27.9638 27.2727 27.9638 27.2727V27.2727C27.9638 27.2727 27.9638 27.2727 27.9638 27.2727C27.9638 27.2727 27.9638 27.2727 27.9638 27.2727V27.2727H27.9638C27.9638 27.2727 27.9638 27.2727 27.9638 27.2727C27.9638 27.2727 27.9638 27.2727 27.9638 27.2727C27.9638 27.2727 27.9638 27.2727 27.9638 27.2727H27.9638V27.2727L27.5723 27.7274ZM27.2877 28.3393C27.4743 28.1712 27.7109 27.9569 27.9696 27.7223L27.5665 27.2779C27.3079 27.5124 27.0719 27.7261 26.8861 27.8936L27.2877 28.3393ZM26.1807 28.8499C26.5871 28.8085 26.9665 28.6293 27.2879 28.3391L26.8859 27.8938C26.6486 28.108 26.3858 28.2259 26.1199 28.253L26.1807 28.8499ZM26.886 27.8938C26.6487 28.108 26.3858 28.226 26.1199 28.253L26.1807 28.8499C26.5871 28.8086 26.9666 28.6293 27.2881 28.3391L26.886 27.8938ZM27.5666 27.2779C27.308 27.5124 27.072 27.7261 26.8862 27.8936L27.2878 28.3393C27.4744 28.1712 27.711 27.9569 27.9697 27.7223L27.5666 27.2779ZM24.0287 27.7218C24.0287 27.7218 24.0287 27.7218 24.0287 27.7218V27.7218C24.0287 27.7218 24.0287 27.7218 24.0287 27.7218C24.0287 27.7218 24.0287 27.7218 24.0287 27.7218V27.7218C24.0287 27.7218 24.0287 27.7218 24.0287 27.7218C24.0287 27.7218 24.0287 27.7218 24.0287 27.7218V27.7218C24.0287 27.7218 24.0287 27.7218 24.0287 27.7218C24.0287 27.7218 24.0287 27.7218 24.0287 27.7218C24.0287 27.7218 24.0287 27.7218 24.0287 27.7218C24.0287 27.7218 24.0287 27.7218 24.0287 27.7218C24.0287 27.7218 24.0287 27.7218 24.0287 27.7218V27.7218C24.0287 27.7218 24.0287 27.7218 24.0287 27.7218C24.0287 27.7218 24.0287 27.7218 24.0287 27.7218V27.7218C24.0287 27.7218 24.0287 27.7218 24.0287 27.7218C24.0287 27.7218 24.0287 27.7218 24.0287 27.7218V27.7218C24.0287 27.7218 24.0287 27.7218 24.0287 27.7218C24.0287 27.7218 24.0287 27.7218 24.0287 27.7218V27.7218C24.0287 27.7218 24.0287 27.7218 24.0287 27.7218C24.0287 27.7218 24.0287 27.7218 24.0287 27.7218C24.0287 27.7218 24.0287 27.7218 24.0287 27.7218H24.0287H24.0287V27.7218H24.0287H24.0287V27.7218H24.0287H24.0287V27.7218H24.0287H24.0287V27.7218H24.0287H24.0287L24.0287 27.7218H24.0287H24.0287V27.7218H24.0287H24.0287V27.7218H24.0287H24.0287V27.7218C24.0287 27.7218 24.0287 27.7218 24.0287 27.7218C24.0287 27.7218 24.0287 27.7218 24.0287 27.7218V27.7218C24.0287 27.7218 24.0287 27.7218 24.0287 27.7218C24.0287 27.7218 24.0287 27.7218 24.0287 27.7218C24.0287 27.7218 24.0287 27.7218 24.0287 27.7218C24.0287 27.7218 24.0287 27.7218 24.0287 27.7218C24.0287 27.7218 24.0287 27.7218 24.0287 27.7218V27.7218C24.0287 27.7218 24.0287 27.7218 24.0287 27.7218C24.0287 27.7218 24.0287 27.7218 24.0287 27.7218V27.7218C24.0287 27.7218 24.0287 27.7218 24.0287 27.7218C24.0287 27.7218 24.0287 27.7218 24.0287 27.7218V27.7218C24.0287 27.7218 24.0287 27.7218 24.0287 27.7218C24.0287 27.7218 24.0287 27.7218 24.0287 27.7218V27.7218C24.0287 27.7218 24.0287 27.7218 24.0287 27.7218C24.0287 27.7218 24.0287 27.7218 24.0287 27.7218C24.0287 27.7218 24.0287 27.7218 24.0287 27.7218C24.0287 27.7218 24.0287 27.7218 24.0287 27.7218C24.0287 27.7218 24.0287 27.7218 24.0287 27.7218C24.0287 27.7218 24.0287 27.7218 24.0287 27.7218C24.0287 27.7218 24.0287 27.7218 24.0287 27.7218C24.0287 27.7218 24.0287 27.7218 24.0287 27.7218C24.0287 27.7218 24.0287 27.7218 24.0287 27.7218C24.0287 27.7218 24.0287 27.7218 24.0287 27.7218C24.0287 27.7218 24.0287 27.7218 24.0287 27.7218C24.0287 27.7218 24.0287 27.7218 24.0287 27.7218C24.0287 27.7218 24.0287 27.7218 24.0287 27.7218C24.0287 27.7218 24.0287 27.7218 24.0287 27.7218C24.0287 27.7218 24.0287 27.7218 24.0287 27.7218C24.0287 27.7218 24.0287 27.7218 24.0287 27.7218C24.0287 27.7218 24.0287 27.7218 24.0287 27.7218C24.0287 27.7218 24.0287 27.7218 24.0287 27.7218C24.0287 27.7218 24.0287 27.7218 24.0287 27.7218C24.0287 27.7218 24.0287 27.7218 24.0287 27.7218C24.0287 27.7218 24.0287 27.7218 24.0287 27.7218C24.0287 27.7218 24.0287 27.7218 24.0287 27.7218C24.0287 27.7218 24.0287 27.7218 24.0287 27.7218C24.0287 27.7218 24.0287 27.7218 24.0287 27.7218C24.0287 27.7218 24.0287 27.7218 24.0287 27.7218C24.0287 27.7218 24.0287 27.7218 24.0287 27.7218C24.0287 27.7218 24.0287 27.7218 24.0287 27.7218H24.0287C24.0287 27.7218 24.0287 27.7218 24.0287 27.7218H24.0287H24.0287C24.0287 27.7218 24.0287 27.7218 24.0287 27.7218H24.0287H24.0287C24.0287 27.7218 24.0287 27.7218 24.0287 27.7218H24.0287H24.0287C24.0287 27.7218 24.0287 27.7218 24.0287 27.7218H24.0287H24.0287C24.0287 27.7218 24.0287 27.7218 24.0287 27.7218H24.0287H24.0287C24.0287 27.7218 24.0287 27.7218 24.0287 27.7218H24.0287H24.0287C24.0287 27.7218 24.0287 27.7218 24.0287 27.7218H24.0287H24.0287C24.0287 27.7218 24.0287 27.7218 24.0287 27.7218C24.0287 27.7218 24.0287 27.7218 24.0287 27.7218C24.0287 27.7218 24.0287 27.7218 24.0287 27.7218C24.0287 27.7218 24.0287 27.7218 24.0287 27.7218C24.0287 27.7218 24.0287 27.7218 24.0287 27.7218C24.0287 27.7218 24.0287 27.7218 24.0287 27.7218C24.0287 27.7218 24.0287 27.7218 24.0287 27.7218C24.0287 27.7218 24.0287 27.7218 24.0287 27.7218C24.0287 27.7218 24.0287 27.7218 24.0287 27.7218C24.0287 27.7218 24.0287 27.7218 24.0287 27.7218C24.0287 27.7218 24.0287 27.7218 24.0287 27.7218C24.0287 27.7218 24.0287 27.7218 24.0287 27.7218C24.0287 27.7218 24.0287 27.7218 24.0287 27.7218C24.0287 27.7218 24.0287 27.7218 24.0287 27.7218C24.0287 27.7218 24.0287 27.7218 24.0287 27.7218C24.0287 27.7218 24.0287 27.7218 24.0287 27.7218C24.0287 27.7218 24.0287 27.7218 24.0287 27.7218C24.0287 27.7218 24.0287 27.7218 24.0288 27.7218C24.0288 27.7218 24.0288 27.7218 24.0288 27.7218C24.0288 27.7218 24.0288 27.7218 24.0288 27.7218C24.0288 27.7218 24.0288 27.7218 24.0288 27.7218L24.433 27.2784V27.2784H24.433C24.433 27.2784 24.433 27.2784 24.433 27.2784V27.2784H24.433C24.433 27.2784 24.433 27.2784 24.433 27.2784C24.433 27.2784 24.433 27.2784 24.433 27.2784H24.433C24.433 27.2784 24.433 27.2784 24.433 27.2784C24.433 27.2784 24.433 27.2784 24.433 27.2784C24.433 27.2784 24.433 27.2784 24.433 27.2784H24.433C24.433 27.2784 24.433 27.2784 24.433 27.2784C24.433 27.2784 24.433 27.2784 24.433 27.2784C24.433 27.2784 24.433 27.2784 24.433 27.2784C24.433 27.2784 24.433 27.2784 24.433 27.2784C24.433 27.2784 24.433 27.2784 24.433 27.2784C24.433 27.2784 24.433 27.2784 24.433 27.2784C24.433 27.2784 24.433 27.2784 24.433 27.2784C24.433 27.2784 24.433 27.2784 24.433 27.2784C24.433 27.2784 24.433 27.2784 24.433 27.2784C24.433 27.2784 24.433 27.2784 24.433 27.2784C24.433 27.2784 24.433 27.2784 24.433 27.2784C24.433 27.2784 24.433 27.2784 24.433 27.2784C24.433 27.2784 24.433 27.2784 24.433 27.2784C24.433 27.2784 24.433 27.2784 24.433 27.2784C24.433 27.2784 24.433 27.2784 24.433 27.2784C24.433 27.2784 24.433 27.2784 24.433 27.2784C24.433 27.2784 24.433 27.2784 24.433 27.2784C24.433 27.2784 24.433 27.2784 24.433 27.2784C24.433 27.2784 24.433 27.2784 24.433 27.2784C24.433 27.2784 24.433 27.2784 24.433 27.2784C24.433 27.2784 24.433 27.2784 24.433 27.2784C24.433 27.2784 24.433 27.2784 24.433 27.2784C24.433 27.2784 24.433 27.2784 24.433 27.2784C24.433 27.2784 24.433 27.2784 24.433 27.2784C24.433 27.2784 24.433 27.2784 24.433 27.2784C24.433 27.2784 24.433 27.2784 24.433 27.2784C24.433 27.2784 24.433 27.2784 24.433 27.2784C24.433 27.2784 24.433 27.2784 24.433 27.2784C24.433 27.2784 24.433 27.2784 24.433 27.2784C24.433 27.2784 24.433 27.2784 24.433 27.2784C24.433 27.2784 24.433 27.2784 24.433 27.2784C24.433 27.2784 24.433 27.2784 24.433 27.2784C24.433 27.2784 24.433 27.2784 24.433 27.2784C24.433 27.2784 24.433 27.2784 24.433 27.2784C24.433 27.2784 24.433 27.2784 24.433 27.2784C24.433 27.2784 24.433 27.2784 24.433 27.2784C24.433 27.2784 24.433 27.2784 24.433 27.2784C24.433 27.2784 24.433 27.2784 24.433 27.2784C24.433 27.2784 24.433 27.2784 24.433 27.2784V27.2784C24.433 27.2784 24.433 27.2784 24.433 27.2784C24.433 27.2784 24.433 27.2784 24.433 27.2784C24.433 27.2784 24.433 27.2784 24.433 27.2784C24.433 27.2784 24.433 27.2784 24.433 27.2784C24.433 27.2784 24.433 27.2784 24.433 27.2784V27.2784C24.433 27.2784 24.433 27.2784 24.433 27.2784H24.433V27.2784C24.433 27.2784 24.433 27.2784 24.433 27.2784H24.433V27.2784C24.433 27.2784 24.433 27.2784 24.433 27.2784H24.433V27.2784C24.433 27.2784 24.433 27.2784 24.433 27.2784H24.433V27.2784C24.433 27.2784 24.433 27.2784 24.433 27.2784V27.2784H24.433C24.433 27.2784 24.433 27.2784 24.433 27.2784V27.2784H24.433C24.433 27.2784 24.433 27.2784 24.433 27.2784V27.2784H24.433C24.433 27.2784 24.433 27.2784 24.433 27.2784V27.2784H24.433C24.433 27.2784 24.433 27.2784 24.433 27.2784C24.433 27.2784 24.433 27.2784 24.433 27.2784C24.433 27.2784 24.433 27.2784 24.433 27.2784C24.433 27.2784 24.433 27.2784 24.433 27.2784V27.2784C24.433 27.2784 24.433 27.2784 24.433 27.2784C24.433 27.2784 24.433 27.2784 24.433 27.2784V27.2784C24.433 27.2784 24.433 27.2784 24.433 27.2784C24.433 27.2784 24.433 27.2784 24.433 27.2784V27.2784C24.433 27.2784 24.433 27.2784 24.433 27.2784C24.433 27.2784 24.433 27.2784 24.433 27.2784V27.2784C24.433 27.2784 24.433 27.2784 24.433 27.2784V27.2784C24.433 27.2784 24.433 27.2784 24.433 27.2784C24.433 27.2784 24.433 27.2784 24.433 27.2784V27.2784C24.433 27.2784 24.433 27.2784 24.433 27.2784C24.433 27.2784 24.433 27.2784 24.433 27.2784V27.2784C24.433 27.2784 24.433 27.2784 24.433 27.2784C24.433 27.2784 24.433 27.2784 24.433 27.2784V27.2784C24.433 27.2784 24.433 27.2784 24.433 27.2784C24.433 27.2784 24.433 27.2784 24.433 27.2784V27.2784C24.433 27.2784 24.433 27.2784 24.433 27.2784C24.433 27.2784 24.433 27.2784 24.433 27.2784V27.2784C24.433 27.2784 24.433 27.2784 24.433 27.2784C24.433 27.2784 24.433 27.2784 24.433 27.2784C24.433 27.2784 24.433 27.2784 24.433 27.2784C24.433 27.2784 24.433 27.2784 24.433 27.2784C24.433 27.2784 24.433 27.2784 24.433 27.2784V27.2784C24.433 27.2784 24.433 27.2784 24.433 27.2784C24.433 27.2784 24.433 27.2784 24.433 27.2784V27.2784C24.433 27.2784 24.433 27.2784 24.433 27.2784C24.433 27.2784 24.433 27.2784 24.433 27.2784V27.2784C24.433 27.2784 24.433 27.2784 24.433 27.2784C24.433 27.2784 24.433 27.2784 24.433 27.2784V27.2784C24.433 27.2784 24.433 27.2784 24.433 27.2784V27.2784H24.433C24.433 27.2784 24.433 27.2784 24.433 27.2784V27.2784H24.433C24.433 27.2784 24.433 27.2784 24.433 27.2784L24.0287 27.7218ZM18.2353 33.418C19.3124 32.3911 22.4502 29.4182 24.4258 27.728L24.0358 27.2721C22.0457 28.9746 18.8962 31.959 17.8213 32.9837L18.2353 33.418ZM18.1548 32.924C18.1404 32.92 18.1197 32.9142 18.098 32.909L17.9586 33.4926C17.9678 33.4948 17.9778 33.4976 17.994 33.5021L18.1548 32.924ZM18.204 32.9364C18.2069 32.9364 18.2058 32.9368 18.1979 32.9352C18.1884 32.9332 18.1775 32.9303 18.1548 32.924L17.9939 33.502C18.0305 33.5122 18.1111 33.5364 18.204 33.5364V32.9364ZM33.7949 32.9364H18.204V33.5364H33.7949V32.9364ZM33.795 32.9364C33.7896 32.9364 33.7852 32.9365 33.7827 32.9367C33.7814 32.9367 33.7804 32.9368 33.7797 32.9368C33.7794 32.9368 33.7792 32.9368 33.779 32.9368C33.7789 32.9368 33.7788 32.9368 33.7788 32.9368C33.7788 32.9368 33.7788 32.9368 33.7788 32.9368C33.7787 32.9368 33.7787 32.9368 33.7787 32.9368C33.7787 32.9368 33.7787 32.9368 33.7787 32.9368C33.7787 32.9368 33.7787 32.9368 33.7787 32.9368C33.7784 32.9369 33.7804 32.9367 33.7827 32.9367C33.7852 32.9366 33.7895 32.9364 33.7949 32.9364V33.5364C33.8003 33.5364 33.8046 33.5363 33.8071 33.5362C33.8084 33.5361 33.8095 33.536 33.8101 33.536C33.8104 33.536 33.8107 33.536 33.8109 33.536C33.811 33.536 33.811 33.536 33.8111 33.536C33.8111 33.536 33.8111 33.536 33.8111 33.536C33.8111 33.536 33.8111 33.536 33.8111 33.536C33.8111 33.536 33.8111 33.536 33.8111 33.536C33.8111 33.536 33.8111 33.536 33.8111 33.536C33.8115 33.5359 33.8095 33.5361 33.8072 33.5362C33.8047 33.5363 33.8004 33.5364 33.795 33.5364V32.9364ZM18.2041 33.5364H33.795V32.9364H18.2041V33.5364ZM17.9941 33.5021C18.0306 33.5122 18.1112 33.5364 18.2041 33.5364V32.9364C18.207 32.9364 18.2059 32.9368 18.198 32.9352C18.1885 32.9332 18.1776 32.9303 18.1549 32.924L17.9941 33.5021ZM18.0076 33.5055L18.0077 33.5055L18.1413 32.9206L18.1413 32.9206L18.0076 33.5055ZM17.9587 33.4926C17.9679 33.4948 17.9779 33.4975 17.994 33.502L18.1549 32.924C18.1405 32.92 18.1199 32.9142 18.0981 32.909L17.9587 33.4926ZM17.9972 32.8162L17.8215 32.9836L18.2353 33.418L18.411 33.2506L17.9972 32.8162ZM18.1665 32.6552L17.9974 32.816L18.4109 33.2508L18.58 33.09L18.1665 32.6552ZM24.0359 27.2722C22.2275 28.8192 19.4625 31.4239 18.1666 32.6551L18.5799 33.0901C19.8775 31.8573 22.6313 29.2633 24.4259 27.7281L24.0359 27.2722ZM34.4175 32.1354C33.2174 30.9946 30.6596 28.5825 28.8241 26.9851L28.4302 27.4377C30.2545 29.0253 32.8034 31.4289 34.0041 32.5703L34.4175 32.1354ZM34.5269 32.2395L34.4175 32.1354L34.004 32.5702L34.1134 32.6742L34.5269 32.2395ZM34.7402 32.4427L34.5271 32.2396L34.1132 32.6741L34.3264 32.8771L34.7402 32.4427ZM34.2441 32.5801L34.2441 32.5802L34.8225 32.7398L34.8225 32.7397L34.2441 32.5801ZM34.7403 32.4429C33.6996 31.4504 30.5706 28.4836 28.5453 26.7441L28.1544 27.1993C30.1658 28.9269 33.2835 31.8827 34.3263 32.8771L34.7403 32.4429ZM28.5517 27.1937C30.5771 25.3519 33.7 22.4949 34.7334 21.549L34.3283 21.1064C33.2948 22.0524 30.1726 24.9087 28.148 26.7498L28.5517 27.1937ZM34.2444 21.4171C34.2434 21.4139 34.2427 21.4112 34.2422 21.4096C34.2418 21.4081 34.2414 21.4068 34.2415 21.407C34.2415 21.407 34.2415 21.407 34.2415 21.407C34.2415 21.407 34.2415 21.407 34.2415 21.407C34.2415 21.407 34.2415 21.407 34.2415 21.407C34.2415 21.407 34.2415 21.407 34.2415 21.407C34.2415 21.4071 34.2415 21.4071 34.2415 21.4072C34.2416 21.4073 34.2416 21.4074 34.2417 21.4077C34.2418 21.4081 34.242 21.4088 34.2422 21.4096C34.2427 21.4113 34.2434 21.4139 34.2445 21.4172L34.8172 21.2384C34.8182 21.2417 34.819 21.2443 34.8195 21.246C34.8199 21.2475 34.8202 21.2488 34.8202 21.2485C34.8202 21.2485 34.8202 21.2485 34.8202 21.2485C34.8202 21.2485 34.8202 21.2485 34.8202 21.2485C34.8202 21.2485 34.8202 21.2485 34.8202 21.2485C34.8202 21.2485 34.8202 21.2485 34.8202 21.2485C34.8202 21.2485 34.8201 21.2484 34.8201 21.2484C34.8201 21.2483 34.8201 21.2481 34.82 21.2479C34.8199 21.2475 34.8197 21.2468 34.8195 21.2459C34.819 21.2443 34.8182 21.2416 34.8172 21.2383L34.2444 21.4171ZM34.498 21.7645L34.7334 21.5491L34.3283 21.1065L34.0929 21.3219L34.498 21.7645ZM34.4133 21.842L34.498 21.7645L34.0929 21.3219L34.0082 21.3994L34.4133 21.842ZM28.823 26.947C30.6592 25.276 33.2176 22.9361 34.4133 21.842L34.0082 21.3994C32.8126 22.4935 30.2547 24.8328 28.4192 26.5032L28.823 26.947ZM28.5518 27.1936L28.823 26.947L28.4192 26.5032L28.1481 26.7498L28.5518 27.1936ZM28.8241 26.9851C28.7292 26.9025 28.6362 26.8221 28.5454 26.7441L28.1545 27.1993C28.2442 27.2764 28.3362 27.3559 28.4302 27.4377L28.8241 26.9851ZM33.3038 32.6549C31.9879 31.4078 29.6428 29.207 27.9708 27.7587L27.578 28.2122C29.2386 29.6506 31.5747 31.8428 32.891 33.0904L33.3038 32.6549ZM18.9018 33.1726H33.0974V32.5726H18.9018V33.1726ZM24.0283 27.7587C22.3564 29.2071 20.0112 31.408 18.6954 32.6549L19.1081 33.0904C20.4244 31.843 22.7607 29.6508 24.4212 28.2122L24.0283 27.7587ZM24.8687 28.1632C24.7416 28.0487 24.5911 27.9126 24.4262 27.7631L24.0233 28.2078C24.1885 28.3574 24.3394 28.4939 24.4671 28.609L24.8687 28.1632ZM25.9996 28.6229C25.5916 28.6229 25.2007 28.4629 24.8689 28.1634L24.4669 28.6088C24.896 28.9962 25.4266 29.2229 25.9996 29.2229V28.6229ZM27.1296 28.164C26.7983 28.4629 26.4075 28.6229 25.9996 28.6229V29.2229C26.5723 29.2229 27.1028 28.9963 27.5315 28.6094L27.1296 28.164ZM27.573 27.7631C27.4077 27.9128 27.257 28.0491 27.1297 28.1638L27.5314 28.6096C27.6592 28.4944 27.8104 28.3577 27.9758 28.2078L27.573 27.7631ZM34.4172 31.6335C33.1459 30.4278 30.8149 28.2374 29.0951 26.7388L28.7009 27.1911C30.4101 28.6805 32.7328 30.8629 34.0043 32.0688L34.4172 31.6335ZM33.9108 22.1138V31.8512H34.5108V22.1138H33.9108ZM29.0999 27.1868C30.8162 25.6249 33.1468 23.4939 34.4133 22.3352L34.0083 21.8925C32.7418 23.0512 30.4117 25.1817 28.6961 26.7431L29.0999 27.1868ZM18.2041 20.2841H33.795V19.6841H18.2041V20.2841ZM18.1675 20.2847C18.1796 20.2843 18.1919 20.2841 18.2041 20.2841V19.6841C18.1861 19.6841 18.1682 19.6844 18.1503 19.6849L18.1675 20.2847ZM18.204 19.6842C18.1861 19.6842 18.1682 19.6844 18.1503 19.6849L18.1675 20.2847C18.1796 20.2843 18.1918 20.2842 18.204 20.2842V19.6842ZM33.7949 19.6842H18.204V20.2842H33.7949V19.6842ZM35.654 21.5433C35.654 20.5177 34.8204 19.6842 33.7949 19.6842V20.2842C34.4891 20.2842 35.054 20.8491 35.054 21.5433H35.654ZM35.654 32.4568V21.5433H35.054V32.4568H35.654ZM33.8606 34.3148C34.8559 34.28 35.654 33.4604 35.654 32.4568H35.054C35.054 33.136 34.5131 33.6916 33.8397 33.7152L33.8606 34.3148ZM35.0541 32.4568C35.0541 33.136 34.5132 33.6916 33.8397 33.7152L33.8606 34.3148C34.8559 34.28 35.6541 33.4605 35.6541 32.4568H35.0541ZM35.0541 21.5432V32.4568H35.6541V21.5432H35.0541ZM33.795 20.2841C34.4892 20.2841 35.0541 20.849 35.0541 21.5432H35.6541C35.6541 20.5177 34.8206 19.6841 33.795 19.6841V20.2841Z" fill="#20AEF7" mask="url(#path-3-outside-1)"/>
</svg>
