<svg width="40" height="40" viewBox="0 0 40 40" fill="none" xmlns="http://www.w3.org/2000/svg">
<circle cx="20" cy="20" r="20" fill="#43D14F" fill-opacity="0.2"/>
<path fill-rule="evenodd" clip-rule="evenodd" d="M20.0616 10.7666C19.1172 10.7666 18.3466 11.5321 18.3403 12.4765L18.3015 18.2788L12.4764 18.2399C11.5321 18.2336 10.7665 18.994 10.7665 19.9384C10.7665 20.8828 11.5321 21.6535 12.4764 21.6598L18.2787 21.6985L18.2398 27.5235C18.2335 28.4679 18.994 29.2334 19.9384 29.2334C20.8827 29.2334 21.6534 28.4679 21.6597 27.5235L21.6984 21.7213L27.5235 21.7602C28.4679 21.7665 29.2334 21.006 29.2334 20.0616C29.2334 19.1173 28.4679 18.3466 27.5235 18.3403L21.7213 18.3016L21.7601 12.4765C21.7664 11.5321 21.006 10.7666 20.0616 10.7666Z" fill="#43D14F"/>
</svg>
