<svg width="12" height="12" viewBox="0 0 12 12" fill="none" xmlns="http://www.w3.org/2000/svg">
<path d="M12 5.99958C12 4.94679 11.7229 3.91253 11.1967 3.00067C10.6705 2.08881 9.91367 1.33147 9.00214 0.804688L7.80127 2.88265C8.34818 3.19871 8.80231 3.65312 9.11803 4.20024C9.43376 4.74735 9.59996 5.36791 9.59996 5.99958H12Z" fill="#16BDC8"/>
<path d="M8.9998 11.1956C9.91155 10.6692 10.6687 9.91219 11.1953 9.00056C11.7219 8.08892 11.9994 7.05478 11.9998 6.00198L9.5998 6.00098C9.59954 6.63265 9.43307 7.25314 9.11712 7.80012C8.80117 8.3471 8.34685 8.80132 7.7998 9.11716L8.9998 11.1956Z" fill="#20AEF7"/>
<path d="M3 11.1956C3.91175 11.722 4.94595 11.9993 5.99874 11.9995C7.05154 11.9997 8.08586 11.7229 8.99782 11.1969L7.79869 9.11794C7.25151 9.43355 6.63092 9.59963 5.99925 9.5995C5.36757 9.59936 4.74705 9.43303 4.2 9.11719L3 11.1956Z" fill="#3962FA"/>
<path d="M2.99976 0.803711C2.08801 1.33011 1.33082 2.08714 0.804232 2.99878C0.277644 3.91041 0.000196887 4.94456 -0.000244141 5.99735L2.39976 5.99836C2.40002 5.36668 2.56649 4.74619 2.88244 4.19921C3.19839 3.65223 3.65271 3.19801 4.19976 2.88217L2.99976 0.803711Z" fill="#86969E"/>
<path d="M-0.000244141 6C-0.000244233 7.05279 0.276769 8.08706 0.802975 8.99891C1.32918 9.91077 2.08605 10.6681 2.99758 11.1949L4.19845 9.11694C3.65153 8.80087 3.19741 8.34646 2.88169 7.79935C2.56596 7.25223 2.39976 6.63168 2.39976 6L-0.000244141 6Z" fill="#43D14F"/>
<path d="M9.00002 0.804824C8.08827 0.278427 7.05407 0.00119707 6.00128 0.000976694C4.94848 0.000756316 3.91416 0.277553 3.0022 0.803568L4.20133 2.88253C4.74851 2.56692 5.3691 2.40084 6.00077 2.40098C6.63245 2.40111 7.25297 2.56745 7.80002 2.88328L9.00002 0.804824Z" fill="#F8632D"/>
</svg>
