<svg width="25" height="22" viewBox="0 0 25 22" fill="none" xmlns="http://www.w3.org/2000/svg">
<path d="M22.592 3H1.82895C0.818817 3 0 3.81882 0 4.82895V17.1711C0 18.1811 0.818817 19 1.82895 19H22.592C23.6021 19 24.4209 18.1812 24.4209 17.1711V4.82895C24.4209 3.81882 23.6021 3 22.592 3Z" fill="#41479B"/>
<path d="M0.42107 11H1.15246L5.05265 8.44463V11H7.15791V8.44463L11.0581 11H11.7894C12.022 11 12.2105 10.8114 12.2105 10.5789V10.2449L8.86432 8.0526H12.2105V5.94735H8.86427L12.2105 3.75505V3.42107C12.2105 3.1885 12.0219 3 11.7894 3H11.058L7.15781 5.55533V3H5.05256V5.55533L1.28038 3.08385C0.839946 3.22217 0.471725 3.52281 0.244829 3.9154L3.34624 5.94735H0V8.0526H3.34619L0 10.2449V10.5789C0 10.8114 0.188451 11 0.42107 11Z" fill="#F5F5F5"/>
<path d="M12.2105 6.36842H6.73679V3H5.47367V6.36842H0V7.63153H5.47367V11H6.73679V7.63153H12.2105V6.36842Z" fill="#FF4B55"/>
<path d="M0.39209 3.69898L3.85786 5.94872H4.63122L0.696397 3.39453C0.583403 3.48373 0.481283 3.58594 0.39209 3.69898Z" fill="#FF4B55"/>
<path d="M7.93156 5.94734L12.1467 3.21115C12.0735 3.08719 11.9442 3 11.7897 3H11.6986L7.1582 5.94734H7.93156Z" fill="#FF4B55"/>
<path d="M4.26767 8.05469L0.0605469 10.7856C0.133094 10.9126 0.264357 11.002 0.421089 11.002H0.500505L5.04108 8.05469H4.26767Z" fill="#FF4B55"/>
<path d="M12.2041 10.614L8.26115 8.05469H7.48779L11.9653 10.9611C12.0994 10.8989 12.1914 10.7684 12.2041 10.614Z" fill="#FF4B55"/>
<path d="M6.23259 13.2976L6.55039 14.3468L7.56887 13.9411C7.65577 13.9065 7.73476 14.0056 7.68172 14.0826L7.05956 14.9852L8.01169 15.5286C8.09292 15.5749 8.06473 15.6985 7.97143 15.705L6.87778 15.7814L7.04668 16.8645C7.06108 16.957 6.9469 17.012 6.88365 16.943L6.14206 16.1356L5.40046 16.943C5.33722 17.0119 5.22303 16.9569 5.23743 16.8645L5.40633 15.7814L4.31268 15.705C4.21939 15.6985 4.19115 15.5749 4.27242 15.5286L5.22455 14.9852L4.60239 14.0826C4.54935 14.0056 4.62834 13.9065 4.71524 13.9411L5.73372 14.3468L6.05153 13.2976C6.07876 13.2081 6.20549 13.2081 6.23259 13.2976Z" fill="#F5F5F5"/>
<path d="M18.7583 5.83753L18.9136 6.35003L19.4111 6.1519C19.4535 6.13501 19.4921 6.18338 19.4662 6.22101L19.1623 6.66197L19.6274 6.9274C19.6671 6.95001 19.6533 7.01039 19.6077 7.01354L19.0735 7.05084L19.1559 7.57994C19.163 7.62511 19.1072 7.65196 19.0763 7.61829L18.714 7.22388L18.3518 7.61829C18.3209 7.65191 18.2651 7.62506 18.2721 7.57994L18.3546 7.05084L17.8204 7.01354C17.7748 7.01034 17.761 6.95001 17.8007 6.9274L18.2658 6.66197L17.9619 6.22101C17.936 6.18338 17.9746 6.13501 18.017 6.1519L18.5145 6.35003L18.6698 5.83753C18.6832 5.79374 18.7451 5.79374 18.7583 5.83753Z" fill="#F5F5F5"/>
<path d="M15.2963 9.77109L15.4516 10.2836L15.9491 10.0855C15.9915 10.0686 16.0301 10.1169 16.0042 10.1546L15.7003 10.5955L16.1654 10.861C16.2051 10.8836 16.1913 10.944 16.1457 10.9471L15.6115 10.9844L15.694 11.5135C15.7011 11.5587 15.6452 11.5856 15.6143 11.5519L15.2521 11.1575L14.8898 11.5519C14.8589 11.5855 14.8032 11.5587 14.8102 11.5135L14.8927 10.9844L14.3585 10.9471C14.3129 10.9439 14.2991 10.8836 14.3388 10.861L14.8039 10.5955L14.5 10.1546C14.474 10.1169 14.5127 10.0686 14.5551 10.0855L15.0526 10.2836L15.2079 9.77109C15.2211 9.72735 15.283 9.72735 15.2963 9.77109Z" fill="#F5F5F5"/>
<path d="M22.0338 8.08746L22.189 8.59996L22.6866 8.40183C22.729 8.38494 22.7676 8.43331 22.7417 8.47094L22.4378 8.9119L22.9029 9.17733C22.9426 9.19994 22.9288 9.26033 22.8832 9.26348L22.349 9.30077L22.4315 9.82988C22.4385 9.87505 22.3827 9.9019 22.3518 9.86823L21.9896 9.47382L21.6273 9.86823C21.5964 9.90185 21.5407 9.875 21.5477 9.82988L21.6302 9.30077L21.096 9.26348C21.0504 9.26028 21.0366 9.19994 21.0763 9.17733L21.5414 8.9119L21.2375 8.47094C21.2116 8.43331 21.2502 8.38494 21.2926 8.40183L21.7902 8.59996L21.9454 8.08746C21.9586 8.04376 22.0205 8.04376 22.0338 8.08746Z" fill="#F5F5F5"/>
<path d="M18.7583 14.8218L18.9136 15.3343L19.4111 15.1362C19.4535 15.1193 19.4921 15.1676 19.4662 15.2053L19.1623 15.6462L19.6274 15.9117C19.6671 15.9343 19.6533 15.9946 19.6077 15.9978L19.0735 16.0351L19.1559 16.5642C19.163 16.6094 19.1072 16.6362 19.0763 16.6025L18.714 16.2081L18.3518 16.6025C18.3209 16.6362 18.2651 16.6093 18.2721 16.5642L18.3546 16.0351L17.8204 15.9978C17.7748 15.9946 17.761 15.9343 17.8007 15.9117L18.2658 15.6462L17.9619 15.2053C17.936 15.1676 17.9746 15.1193 18.017 15.1362L18.5145 15.3343L18.6698 14.8218C18.6832 14.7781 18.7451 14.7781 18.7583 14.8218Z" fill="#F5F5F5"/>
<path d="M19.9595 10.6925L19.8349 11.0663L19.4409 11.0693C19.39 11.0698 19.3688 11.1348 19.4099 11.1651L19.7267 11.3992L19.6079 11.7748C19.5925 11.8234 19.6479 11.8636 19.6894 11.834L20.0099 11.6049L20.3304 11.834C20.3719 11.8636 20.4272 11.8234 20.4119 11.7748L20.293 11.3992L20.6099 11.1651C20.651 11.1348 20.6298 11.0698 20.5788 11.0693L20.1849 11.0663L20.0603 10.6925C20.0441 10.6442 19.9756 10.6442 19.9595 10.6925Z" fill="#F5F5F5"/>
</svg>
