<svg width="33" height="33" viewBox="0 0 33 33" fill="none" xmlns="http://www.w3.org/2000/svg">
<ellipse cx="16.5" cy="16.5" rx="16.5" ry="16.5" transform="rotate(-90 16.5 16.5)" fill="#43D14F"/>
<path fill-rule="evenodd" clip-rule="evenodd" d="M8.7998 12.6999C8.7998 11.1535 10.0534 9.8999 11.5998 9.8999L21.3998 9.8999C22.9462 9.8999 24.1998 11.1535 24.1998 12.6999V18.9318C24.1998 20.4782 22.9462 21.7318 21.3998 21.7318H18.5049C18.2817 21.7318 18.0719 21.8382 17.9401 22.0183L17.0224 23.2718C16.7556 23.6362 16.2186 23.6563 15.9253 23.3129L14.7844 21.9772C14.6514 21.8215 14.4569 21.7318 14.2521 21.7318H11.5998C10.0534 21.7318 8.7998 20.4782 8.7998 18.9318L8.7998 12.6999ZM10.9998 13.7499C10.9998 13.4461 11.246 13.1999 11.5498 13.1999L19.2498 13.1999C19.5536 13.1999 19.7998 13.4461 19.7998 13.7499C19.7998 14.0537 19.5536 14.2999 19.2498 14.2999L11.5498 14.2999C11.246 14.2999 10.9998 14.0537 10.9998 13.7499ZM11.5498 16.4999C11.246 16.4999 10.9998 16.7461 10.9998 17.0499C10.9998 17.3537 11.246 17.5999 11.5498 17.5999H15.9498C16.2536 17.5999 16.4998 17.3537 16.4998 17.0499C16.4998 16.7461 16.2536 16.4999 15.9498 16.4999H11.5498Z" fill="white"/>
</svg>
