<svg width="20" height="20" viewBox="0 0 20 20" fill="none" xmlns="http://www.w3.org/2000/svg">
<path d="M11.6855 2.70581H3.68555C2.58098 2.70581 1.68555 3.60124 1.68555 4.70581V15.9999C1.68555 17.1044 2.58098 17.9999 3.68555 17.9999H14.9796C16.0842 17.9999 16.9796 17.1044 16.9796 15.9999V9.17637" stroke="#86969E" stroke-linecap="round" stroke-linejoin="round"/>
<path fill-rule="evenodd" clip-rule="evenodd" d="M8.28798 13.6682C8.31682 13.6538 8.34315 13.6348 8.36595 13.612L15.8184 6.1595L14.1548 4.49587L14.9867 3.66398L16.6503 5.32761L17.6071 4.37088C17.9976 3.98036 17.9976 3.34719 17.6071 2.95667L17.3575 2.70711C16.967 2.31658 16.3338 2.31658 15.9433 2.70711L6.70218 11.9482C6.67938 11.971 6.6604 11.9973 6.64598 12.0262L5.6748 13.9685C5.45991 14.3983 5.91584 14.8543 6.34562 14.6394L8.28798 13.6682Z" fill="#86969E"/>
</svg>
