<svg width="44" height="44" viewBox="0 0 44 44" fill="none" xmlns="http://www.w3.org/2000/svg">
<circle cx="22" cy="22" r="22" fill="#43D14F"/>
<path d="M28.9044 28.065C28.8692 28.0176 26.2488 24.8064 25.3124 24.7356C24.8667 24.6969 24.5456 24.9219 23.9017 25.3721C23.798 25.4449 23.549 25.6191 23.3594 25.7396C23.0778 25.5563 22.8096 25.3531 22.5569 25.1316C21.2503 23.9974 20.3614 22.458 20.0325 20.7592C19.967 20.4297 19.9251 20.0959 19.9073 19.7603C20.1071 19.656 20.3825 19.5275 20.5001 19.4724C21.2085 19.1419 21.5645 18.9765 21.7541 18.57C22.1453 17.7276 20.6821 13.8308 20.6655 13.7947C20.6 13.6147 20.4953 13.4514 20.3589 13.3168C20.2226 13.1822 20.058 13.0795 19.8771 13.0163C18.929 12.7623 15.281 15.5486 15.1226 16.14C15.1133 16.1744 14.2269 19.6813 17.3608 25.2181C20.5857 30.6944 24.0656 31.6801 24.0999 31.6893C24.6919 31.8479 28.9283 30.0817 29.1824 29.1335C29.2181 28.946 29.2116 28.7528 29.1636 28.568C29.1155 28.3832 29.027 28.2114 28.9044 28.065Z" fill="white"/>
</svg>
