<svg width="20" height="20" viewBox="0 0 20 20" fill="none" xmlns="http://www.w3.org/2000/svg">
<path d="M19.3565 14.4C19.3019 14.3567 15.3332 11.496 14.2439 11.7013C13.7239 11.7933 13.4265 12.148 12.8299 12.858C12.7339 12.9727 12.5032 13.2473 12.3239 13.4427C11.9468 13.3197 11.579 13.17 11.2232 12.9947C9.38689 12.1007 7.90321 10.617 7.00921 8.78067C6.83379 8.42495 6.68407 8.05712 6.56121 7.68C6.75721 7.5 7.03188 7.26933 7.14921 7.17067C7.85588 6.57733 8.21121 6.28 8.30321 5.75867C8.49188 4.67867 6.52983 3.036 6.49983 3C6.37013 2.81471 6.19642 2.11184 5.99983 2C5.80325 1.88816 6.22542 1.51682 5.99988 1.5C4.84121 1.5 1.99993 5 1.99993 5.5C1.99993 6 1.49986 7.5 5.99991 13C12.3239 19.1859 14.9579 19 14.9999 19C15.7232 19 19.9999 16.692 19.9999 15.5333C19.9832 15.3086 19.9169 15.0903 19.8057 14.8943C19.6944 14.6983 19.541 14.5295 19.3565 14.4Z" fill="#43D14F" fill-opacity="0.8"/>
<path d="M19.0461 14.7918L19.0575 14.8009L19.0694 14.8092C19.1932 14.8962 19.2962 15.0096 19.3709 15.1412C19.441 15.2645 19.4845 15.4011 19.4989 15.542C19.4971 15.5527 19.4926 15.5733 19.4811 15.6052C19.4629 15.6559 19.4318 15.722 19.3835 15.8039C19.2863 15.9688 19.1375 16.1672 18.9418 16.391C18.5516 16.8374 18.0139 17.341 17.4437 17.8175C16.8747 18.2929 16.2864 18.7303 15.8017 19.046C15.5586 19.2044 15.3494 19.3269 15.1866 19.4078C15.105 19.4484 15.0427 19.4747 14.9987 19.4898C14.9848 19.4946 14.9748 19.4976 14.9683 19.4993C14.6637 19.4865 10.674 19.2355 5.67889 14.3271C0.765148 9.3272 0.513513 5.3369 0.500686 5.03177C0.502442 5.02529 0.505387 5.01533 0.510151 5.0015C0.525306 4.95753 0.551576 4.89522 0.59213 4.81365C0.673059 4.65086 0.795588 4.4417 0.953946 4.19857C1.26965 3.71386 1.70711 3.12561 2.18253 2.55658C2.65904 1.98627 3.16264 1.44853 3.60904 1.05823C3.83285 0.862552 4.03126 0.713695 4.19609 0.616476C4.27798 0.568176 4.34411 0.537088 4.39479 0.518862C4.42668 0.507392 4.44725 0.502897 4.45793 0.501135C4.59952 0.515665 4.73664 0.559509 4.86054 0.629994C4.99271 0.705189 5.10651 0.808823 5.19372 0.9334L5.20577 0.950616L5.21922 0.966761C5.21824 0.965585 5.22488 0.974969 5.23832 0.993992C5.35527 1.15948 5.9877 2.05439 6.60854 3.07164C6.95185 3.63417 7.28086 4.21688 7.51086 4.71794C7.62606 4.96891 7.71109 5.18796 7.7616 5.36651C7.81574 5.55789 7.81469 5.6503 7.81079 5.67263L8.30331 5.75866L7.81094 5.67178C7.75708 5.97697 7.58208 6.15445 6.82782 6.78774L6.82753 6.78799L6.81871 6.79541C6.6985 6.89648 6.4237 7.12754 6.22313 7.31174L5.98634 7.5292L6.08593 7.83488C6.21605 8.2343 6.37459 8.62389 6.56034 9.00068C7.50316 10.9366 9.06743 12.5009 11.0034 13.4437C11.3802 13.6293 11.7697 13.7878 12.169 13.918L12.4748 14.0178L12.6923 13.7808C12.8805 13.5759 13.1181 13.2927 13.2132 13.1792C13.8497 12.4218 14.0271 12.2475 14.3311 12.1937L14.3311 12.1937L14.3366 12.1927C14.3593 12.1884 14.4512 12.1862 14.6414 12.2386C14.8191 12.2876 15.0372 12.3711 15.2872 12.4852C15.7865 12.7129 16.3666 13.0406 16.9273 13.3839C17.4855 13.7256 18.0135 14.0759 18.4059 14.344C18.7636 14.5884 18.9954 14.7554 19.0387 14.7866C19.0439 14.7903 19.0464 14.7921 19.0461 14.7918Z" stroke="#031F88"/>
</svg>
