<svg width="82" height="82" viewBox="0 0 82 82" fill="none" xmlns="http://www.w3.org/2000/svg">
<g filter="url(#filter0_d)">
<circle cx="41" cy="38" r="30" fill="#43D14F"/>
<path d="M50.4152 46.2698C50.3672 46.2051 46.7939 41.8263 45.5169 41.7297C44.9092 41.6769 44.4713 41.9837 43.5932 42.5976C43.4518 42.6968 43.1123 42.9344 42.8538 43.0987C42.4698 42.8487 42.1041 42.5717 41.7595 42.2697C39.9777 40.723 38.7657 38.6238 38.3171 36.3074C38.2277 35.858 38.1706 35.4027 38.1463 34.9452C38.4188 34.8029 38.7943 34.6276 38.9547 34.5526C39.9207 34.1018 40.4061 33.8763 40.6647 33.322C41.1981 32.1733 39.203 26.8594 39.1803 26.8103C39.0909 26.5648 38.9481 26.3421 38.7622 26.1586C38.5763 25.975 38.3519 25.835 38.1052 25.7488C36.8123 25.4024 31.8378 29.2019 31.6217 30.0084C31.6092 30.0552 30.4003 34.8375 34.6738 42.3876C39.0715 49.8553 43.8167 51.1994 43.8636 51.2119C44.6708 51.4282 50.4478 49.0198 50.7942 47.7268C50.8429 47.471 50.8341 47.2077 50.7685 46.9557C50.703 46.7037 50.5823 46.4694 50.4152 46.2698Z" fill="white"/>
</g>
<defs>
<filter id="filter0_d" x="0" y="0" width="82" height="82" filterUnits="userSpaceOnUse" color-interpolation-filters="sRGB">
<feFlood flood-opacity="0" result="BackgroundImageFix"/>
<feColorMatrix in="SourceAlpha" type="matrix" values="0 0 0 0 0 0 0 0 0 0 0 0 0 0 0 0 0 0 127 0" result="hardAlpha"/>
<feMorphology radius="2" operator="dilate" in="SourceAlpha" result="effect1_dropShadow"/>
<feOffset dy="3"/>
<feGaussianBlur stdDeviation="4.5"/>
<feColorMatrix type="matrix" values="0 0 0 0 0.262745 0 0 0 0 0.819608 0 0 0 0 0.309804 0 0 0 0.3 0"/>
<feBlend mode="normal" in2="BackgroundImageFix" result="effect1_dropShadow"/>
<feBlend mode="normal" in="SourceGraphic" in2="effect1_dropShadow" result="shape"/>
</filter>
</defs>
</svg>
