<svg width="69" height="69" viewBox="0 0 69 69" fill="none" xmlns="http://www.w3.org/2000/svg">
<circle cx="32.5" cy="44.5" r="22.5" fill="#EFF2F9"/>
<rect width="6.12871" height="13.187" rx="3.06436" transform="matrix(0.167708 -0.985837 0.983706 0.179785 11 45.4736)" fill="#87A7FD"/>
<rect width="6.12871" height="13.187" rx="3.06436" transform="matrix(0.167708 -0.985837 0.983706 0.179785 11 50.2522)" fill="#87A7FD"/>
<rect width="6.12871" height="13.187" rx="3.06436" transform="matrix(0.167708 -0.985837 0.983706 0.179785 11 55.7136)" fill="#87A7FD"/>
<rect x="12.5" y="9.5" width="8" height="59" rx="4" fill="white" stroke="#031F88"/>
<path opacity="0.6" d="M20 63.9996L20 29.8274L18 29.8274L16 29.8274C16 31.0899 18.6314 30.525 18.6667 31.6996C18.8509 37.8387 18.9328 43.537 18.7881 49.5C18.6772 54.0717 19.9331 58.799 19.5 63.9996L20 63.9996Z" fill="#376CFB"/>
<path d="M38.7222 8.5C39.7041 8.5 40.5 9.29594 40.5 10.2778L40.5 27.7222C40.5 28.7041 39.7041 29.5 38.7222 29.5L11 29.5C5.20101 29.5 0.5 24.799 0.5 19C0.5 13.201 5.20101 8.5 11 8.5L38.7222 8.5Z" fill="white" stroke="#031F88"/>
<path d="M40 10L40 28C40 28.5523 39.5523 29 39 29L11.5 29C6.2533 29 2 24.7467 2 19.5C2 14.2533 6.2533 10 11.5 10L40 10Z" fill="#86969E"/>
<path d="M34.9894 25.6582C38.0641 25.0977 39.3424 25.9751 40.3419 27.8847" stroke="#031F88" stroke-linecap="round"/>
<path d="M34 26.3647C35.035 25.7253 35.2751 25.1834 35.3653 24" stroke="#031F88" stroke-linecap="round" stroke-linejoin="bevel"/>
<circle cx="33.1801" cy="16.1804" r="3.41326" transform="rotate(15 33.1801 16.1804)" fill="white"/>
<ellipse cx="34.5481" cy="17.6388" rx="1.23657" ry="1.3653" transform="rotate(15 34.5481 17.6388)" fill="#031F88"/>
<rect x="9.40234" y="44.9187" width="5.46121" height="13.653" rx="2.73061" transform="rotate(-80 9.40234 44.9187)" fill="white" stroke="#031F88"/>
<rect x="10.5" y="68.5" width="8" height="17" rx="0.5" transform="rotate(-90 10.5 68.5)" fill="white" stroke="#031F88"/>
<rect x="9.40137" y="50.1599" width="5.46121" height="13.653" rx="2.73061" transform="rotate(-80 9.40137 50.1599)" fill="white" stroke="#031F88"/>
<rect x="9.40234" y="55.3589" width="5.46121" height="13.653" rx="2.73061" transform="rotate(-80 9.40234 55.3589)" fill="white" stroke="#031F88"/>
<path d="M40.5 14C40.5 13.7239 40.7239 13.5 41 13.5H44C45.3807 13.5 46.5 14.6193 46.5 16V22C46.5 23.3807 45.3807 24.5 44 24.5H41C40.7239 24.5 40.5 24.2761 40.5 24V14Z" fill="white" stroke="#031F88"/>
<path d="M46.5 18C46.5 17.7239 46.7239 17.5 47 17.5L51.6972 17.5L50.6455 20.5L47 20.5C46.7239 20.5 46.5 20.2761 46.5 20L46.5 18Z" fill="white" stroke="#031F88"/>
<path opacity="0.3" d="M47 18L51.0001 18L50.5001 20L47 20L47 18Z" fill="#86969E"/>
<path opacity="0.5" d="M41 14H44C45.1046 14 46 14.8954 46 16V22C46 23.1046 45.1046 24 44 24H41V14Z" fill="#86969E"/>
<path d="M46.854 34.3798L49.2347 32.2902L66.8026 42.433C67.52 42.8472 67.7658 43.7646 67.3516 44.4821C66.9374 45.1995 66.02 45.4453 65.3026 45.0311L46.854 34.3798Z" fill="white" stroke="#031F88"/>
<path opacity="0.3" d="M49.3256 32.9198L66.5529 42.8659C67.0312 43.1421 67.1951 43.7537 66.9189 44.2319C66.6428 44.7102 66.0312 44.8741 65.5529 44.598L47.7373 34.3121L49.3256 32.9198Z" fill="#86969E"/>
<line x1="61.1196" y1="38.983" x2="57.0216" y2="40.081" stroke="#031F88"/>
<line x1="62.8521" y1="39.983" x2="58.754" y2="41.081" stroke="#031F88"/>
<line x1="55.9234" y1="35.983" x2="51.8253" y2="37.081" stroke="#031F88"/>
<line x1="57.6558" y1="36.983" x2="53.5577" y2="38.081" stroke="#031F88"/>
<path opacity="0.3" d="M49.3639 0C49.3639 0 47 1.02943 47 4.76589C47 7.93042 50.3171 8.23541 50.3171 10.7518C50.3171 12.62 49.7833 13.1919 49.7833 13.1919C49.7833 13.1919 52.1853 11.2856 52.1853 8.57858C52.1852 4.61336 48.4869 6.67218 49.3639 0Z" fill="#86969E"/>
</svg>
