<svg width="70" height="80" viewBox="0 0 70 80" fill="none" xmlns="http://www.w3.org/2000/svg">
<path d="M33 1.15504C34.2376 0.440509 35.7624 0.440507 37 1.15504L67.6411 18.8456C68.8787 19.5602 69.6411 20.8807 69.6411 22.3097V57.6909C69.6411 59.12 68.8787 60.4405 67.6411 61.155L37 78.8456C35.7624 79.5602 34.2376 79.5602 33 78.8456L2.35901 61.155C1.12141 60.4405 0.359009 59.12 0.359009 57.6909V22.3097C0.359009 20.8807 1.1214 19.5602 2.35901 18.8456L33 1.15504Z" fill="white"/>
<path d="M33 1.15504C34.2376 0.440509 35.7624 0.440507 37 1.15504L67.6411 18.8456C68.8787 19.5602 69.6411 20.8807 69.6411 22.3097V57.6909C69.6411 59.12 68.8787 60.4405 67.6411 61.155L37 78.8456C35.7624 79.5602 34.2376 79.5602 33 78.8456L2.35901 61.155C1.12141 60.4405 0.359009 59.12 0.359009 57.6909V22.3097C0.359009 20.8807 1.1214 19.5602 2.35901 18.8456L33 1.15504Z" fill="#43D14F" fill-opacity="0.2"/>
<path fill-rule="evenodd" clip-rule="evenodd" d="M65.6411 22.3097L35 4.61914L4.35901 22.3097V57.6909L35 75.3815L65.6411 57.6909V22.3097ZM37 1.15504C35.7624 0.440507 34.2376 0.440509 33 1.15504L2.35901 18.8456C1.1214 19.5602 0.359009 20.8807 0.359009 22.3097V57.6909C0.359009 59.12 1.12141 60.4405 2.35901 61.155L33 78.8456C34.2376 79.5602 35.7624 79.5602 37 78.8456L67.6411 61.155C68.8787 60.4405 69.6411 59.12 69.6411 57.6909V22.3097C69.6411 20.8807 68.8787 19.5602 67.6411 18.8456L37 1.15504Z" fill="white"/>
<path d="M23 31.2803C23 30.1757 23.8954 29.2803 25 29.2803H49.2499V45.3301C49.2499 47.5393 47.4591 49.3301 45.2499 49.3301H38.7215C38.4027 49.3301 38.103 49.4822 37.9146 49.7394L35.7526 52.6924C35.3695 53.2157 34.5975 53.2415 34.1802 52.7451L31.5511 49.6169C31.3957 49.432 31.1786 49.3096 30.94 49.2723L23 48.0312V31.2803Z" fill="#43D14F" fill-opacity="0.8"/>
<rect x="26" y="34.2803" width="16" height="2" rx="1" fill="#031F88"/>
<rect x="26" y="39.2803" width="12" height="2" rx="1" fill="#031F88"/>
<path d="M21 30.2803C21 28.6234 22.3431 27.2803 24 27.2803H46C47.6569 27.2803 49 28.6234 49 30.2803V45.3295C49 46.9863 47.6569 48.3295 46 48.3295H38.7215C38.0839 48.3295 37.4845 48.6335 37.1078 49.148L34.9396 52.1094L32.3098 49.0305C31.9298 48.5857 31.3741 48.3295 30.789 48.3295H24C22.3431 48.3295 21 46.9863 21 45.3295V30.2803Z" stroke="#031F88" stroke-width="2"/>
</svg>
