<svg width="16" height="16" viewBox="0 0 16 16" fill="none" xmlns="http://www.w3.org/2000/svg">
<path d="M12.2428 5.52451C12.7309 5.03635 12.7309 4.2449 12.2428 3.75674C11.7546 3.26859 10.9631 3.26859 10.475 3.75674L8.00011 6.23162L5.52524 3.75674C5.03709 3.26859 4.24563 3.26859 3.75747 3.75674C3.26932 4.2449 3.26932 5.03635 3.75747 5.52451L6.23235 7.99938L3.75747 10.4743C3.26932 10.9624 3.26932 11.7539 3.75747 12.242C4.24563 12.7302 5.03709 12.7302 5.52524 12.242L8.00011 9.76715L10.475 12.242C10.9631 12.7302 11.7546 12.7302 12.2428 12.242C12.7309 11.7539 12.7309 10.9624 12.2428 10.4743L9.76788 7.99938L12.2428 5.52451Z" fill="#86969E"/>
</svg>
