<svg width="47" height="47" viewBox="0 0 47 47" fill="none" xmlns="http://www.w3.org/2000/svg">
<path d="M23.5 1C11.0914 1 1 11.0914 1 23.5C1 35.9086 11.0914 46 23.5 46C35.9086 46 46 35.9086 46 23.5C46 11.0914 35.9086 1 23.5 1ZM23.5 4C34.2873 4 43.0117 12.7127 43.0117 23.5C43.0117 34.2873 34.2873 43.0117 23.5 43.0117C12.7127 43.0117 4 34.2873 4 23.5C4 12.7127 12.7127 4 23.5 4Z" fill="#16BDC8" stroke="#16BDC8" stroke-width="0.5"/>
<path d="M15.6819 31.0909C15.6819 26.8734 19.1009 23.4545 23.3183 23.4545V23.4545C27.5358 23.4545 30.9547 26.8734 30.9547 31.0909V31.6363C30.9547 32.3895 30.3442 33 29.591 33H17.0456C16.2925 33 15.6819 32.3895 15.6819 31.6363V31.0909Z" stroke="#16BDC8" stroke-width="3"/>
<path fill-rule="evenodd" clip-rule="evenodd" d="M30.5647 32.5908H35.8638C37.1441 32.5908 38.182 31.5529 38.182 30.2726V30.1363C38.182 26.672 35.3736 23.8636 31.9092 23.8636C30.481 23.8636 29.1643 24.3409 28.1099 25.1446C28.894 25.7773 29.5503 26.5618 30.0343 27.4535C30.5653 27.0817 31.2118 26.8636 31.9092 26.8636C33.5309 26.8636 34.877 28.043 35.1367 29.5908H30.8072C30.9038 30.0758 30.9545 30.5774 30.9545 31.0908V31.6363C30.9545 32.0079 30.8058 32.3449 30.5647 32.5908Z" fill="#16BDC8"/>
<path fill-rule="evenodd" clip-rule="evenodd" d="M15.8292 29.5908C15.7326 30.0758 15.682 30.5774 15.682 31.0908V31.6363C15.682 32.0079 15.8306 32.3449 16.0718 32.5908H10.7728C9.49248 32.5908 8.45459 31.5529 8.45459 30.2726V30.1363C8.45459 26.6719 11.263 23.8636 14.7273 23.8636C16.1555 23.8636 17.4722 24.3408 18.5266 25.1446C17.7425 25.7772 17.0862 26.5618 16.6022 27.4535C16.0712 27.0817 15.4247 26.8636 14.7273 26.8636C13.1057 26.8636 11.7595 28.043 11.4998 29.5908H15.8292Z" fill="#16BDC8"/>
<circle cx="23.3184" cy="16.7727" r="3.27273" stroke="#16BDC8" stroke-width="3"/>
<circle cx="31.909" cy="19.6364" r="2.31818" stroke="#16BDC8" stroke-width="3"/>
<circle cx="14.7273" cy="19.6364" r="2.31818" stroke="#16BDC8" stroke-width="3"/>
</svg>
