<svg width="30" height="30" viewBox="0 0 30 30" fill="none" xmlns="http://www.w3.org/2000/svg">
<circle cx="15" cy="15" r="13.5" fill="white" stroke="#43D14F" stroke-width="3"/>
<mask id="path-2-inside-1" fill="white">
<path fill-rule="evenodd" clip-rule="evenodd" d="M20.889 10.8891C20.3032 10.3033 19.3535 10.3033 18.7677 10.8891L13.4644 16.1924L11.6966 14.4246C11.1108 13.8388 10.1611 13.8388 9.57531 14.4246C8.98952 15.0104 8.98952 15.9602 9.57531 16.5459L12.4037 19.3744C12.9895 19.9602 13.9393 19.9602 14.5251 19.3744L20.889 13.0104C21.4748 12.4246 21.4748 11.4749 20.889 10.8891Z"/>
</mask>
<path fill-rule="evenodd" clip-rule="evenodd" d="M20.889 10.8891C20.3032 10.3033 19.3535 10.3033 18.7677 10.8891L13.4644 16.1924L11.6966 14.4246C11.1108 13.8388 10.1611 13.8388 9.57531 14.4246C8.98952 15.0104 8.98952 15.9602 9.57531 16.5459L12.4037 19.3744C12.9895 19.9602 13.9393 19.9602 14.5251 19.3744L20.889 13.0104C21.4748 12.4246 21.4748 11.4749 20.889 10.8891Z" fill="#43D14F"/>
<path d="M13.4644 16.1924L12.7573 16.8995L13.4644 17.6066L14.1715 16.8995L13.4644 16.1924ZM9.57531 16.5459L10.2824 15.8388L9.57531 16.5459ZM12.4037 19.3744L11.6966 20.0815L12.4037 19.3744ZM14.5251 19.3744L13.8179 18.6673H13.8179L14.5251 19.3744ZM19.4748 11.5962C19.6701 11.4009 19.9866 11.4009 20.1819 11.5962L21.5961 10.182C20.6198 9.20567 19.0369 9.20567 18.0606 10.182L19.4748 11.5962ZM14.1715 16.8995L19.4748 11.5962L18.0606 10.182L12.7573 15.4853L14.1715 16.8995ZM10.9895 15.1317L12.7573 16.8995L14.1715 15.4853L12.4037 13.7175L10.9895 15.1317ZM10.2824 15.1317C10.4777 14.9365 10.7943 14.9365 10.9895 15.1317L12.4037 13.7175C11.4274 12.7412 9.84451 12.7412 8.8682 13.7175L10.2824 15.1317ZM10.2824 15.8388C10.0872 15.6436 10.0872 15.327 10.2824 15.1317L8.8682 13.7175C7.89189 14.6938 7.89189 16.2767 8.8682 17.253L10.2824 15.8388ZM13.1108 18.6673L10.2824 15.8388L8.8682 17.253L11.6966 20.0815L13.1108 18.6673ZM13.8179 18.6673C13.6227 18.8625 13.3061 18.8625 13.1108 18.6673L11.6966 20.0815C12.6729 21.0578 14.2559 21.0578 15.2322 20.0815L13.8179 18.6673ZM20.1819 12.3033L13.8179 18.6673L15.2322 20.0815L21.5961 13.7175L20.1819 12.3033ZM20.1819 11.5962C20.3772 11.7915 20.3772 12.108 20.1819 12.3033L21.5961 13.7175C22.5724 12.7412 22.5724 11.1583 21.5961 10.182L20.1819 11.5962Z" fill="#43D14F" mask="url(#path-2-inside-1)"/>
</svg>
