<svg width="16" height="16" viewBox="0 0 16 16" fill="none" xmlns="http://www.w3.org/2000/svg">
<rect x="1" y="2.10156" width="14" height="11" rx="2" stroke="#86969E" stroke-width="2" stroke-linecap="round" stroke-linejoin="round"/>
<mask id="path-2-inside-1" fill="white">
<path fill-rule="evenodd" clip-rule="evenodd" d="M0.986735 1.88672C0.38069 2.43563 0 3.2288 0 4.11088V12.1109C0 13.2155 0.895431 14.1109 2 14.1109H14C15.1046 14.1109 16 13.2155 16 12.1109V4.11088C16 3.2288 15.6193 2.43563 15.0133 1.88672L9.44145 7.24589C8.64536 8.0116 7.35464 8.0116 6.55855 7.24589L0.986735 1.88672Z"/>
</mask>
<path d="M0.986735 1.88672L2.37318 0.445268L1.02774 -0.848826L-0.355884 0.404364L0.986735 1.88672ZM15.0133 1.88672L16.3559 0.404364L14.9723 -0.848826L13.6268 0.445268L15.0133 1.88672ZM9.44145 7.24589L10.8279 8.68735L10.8279 8.68735L9.44145 7.24589ZM6.55855 7.24589L7.94499 5.80444L7.94499 5.80444L6.55855 7.24589ZM2 4.11088C2 3.81697 2.12425 3.55484 2.32935 3.36907L-0.355884 0.404364C-1.36287 1.31642 -2 2.64064 -2 4.11088H2ZM2 12.1109V4.11088H-2V12.1109H2ZM2 12.1109H-2C-2 14.32 -0.209139 16.1109 2 16.1109V12.1109ZM14 12.1109H2V16.1109H14V12.1109ZM14 12.1109V16.1109C16.2091 16.1109 18 14.32 18 12.1109H14ZM14 4.11088V12.1109H18V4.11088H14ZM13.6706 3.36907C13.8758 3.55484 14 3.81697 14 4.11088H18C18 2.64064 17.3629 1.31642 16.3559 0.404364L13.6706 3.36907ZM13.6268 0.445268L8.05501 5.80444L10.8279 8.68735L16.3997 3.32817L13.6268 0.445268ZM8.05501 5.80444C8.0522 5.80714 8.03704 5.82018 8 5.82018C7.96296 5.82018 7.9478 5.80714 7.94499 5.80444L5.17211 8.68734C6.74248 10.1978 9.25752 10.1978 10.8279 8.68735L8.05501 5.80444ZM7.94499 5.80444L2.37318 0.445268L-0.399706 3.32817L5.17211 8.68735L7.94499 5.80444Z" fill="#86969E" mask="url(#path-2-inside-1)"/>
</svg>
