<svg width="16" height="16" viewBox="0 0 16 16" fill="none" xmlns="http://www.w3.org/2000/svg">
<rect x="1" y="3" width="14" height="12" rx="2" stroke="#86969E" stroke-width="2" stroke-linecap="round" stroke-linejoin="round"/>
<rect x="1" y="6" width="14" height="2" fill="#86969E"/>
<rect x="3" width="2" height="4" rx="1" fill="#86969E"/>
<rect x="11" width="2" height="4" rx="1" fill="#86969E"/>
<path d="M5.82289 13.06C5.49489 13.06 5.20689 13 4.95889 12.88C4.71489 12.76 4.52089 12.594 4.37689 12.382C4.23689 12.166 4.15489 11.922 4.13089 11.65L4.23289 11.578L5.06089 11.41C5.08489 11.65 5.16489 11.844 5.30089 11.992C5.43689 12.136 5.61689 12.208 5.84089 12.208C6.02489 12.208 6.17489 12.148 6.29089 12.028C6.41089 11.908 6.47089 11.74 6.47089 11.524C6.47089 11.308 6.39289 11.134 6.23689 11.002C6.08089 10.87 5.88489 10.804 5.64889 10.804H5.38489V10.138L5.97289 9.616H4.27489V8.8H7.22689V9.568L6.48889 10.186C6.77289 10.262 7.00689 10.412 7.19089 10.636C7.37489 10.86 7.46689 11.15 7.46689 11.506C7.46689 11.802 7.39489 12.068 7.25089 12.304C7.11089 12.54 6.91489 12.726 6.66289 12.862C6.41489 12.994 6.13489 13.06 5.82289 13.06ZM9.88447 13.06C9.51647 13.06 9.18847 12.974 8.90047 12.802C8.61647 12.626 8.39447 12.376 8.23447 12.052C8.07447 11.724 7.99447 11.34 7.99447 10.9C7.99447 10.46 8.07447 10.078 8.23447 9.754C8.39447 9.426 8.61647 9.176 8.90047 9.004C9.18847 8.828 9.51647 8.74 9.88447 8.74C10.2525 8.74 10.5785 8.828 10.8625 9.004C11.1505 9.176 11.3745 9.426 11.5345 9.754C11.6945 10.078 11.7745 10.46 11.7745 10.9C11.7745 11.34 11.6945 11.724 11.5345 12.052C11.3745 12.376 11.1505 12.626 10.8625 12.802C10.5785 12.974 10.2525 13.06 9.88447 13.06ZM9.88447 12.136C10.1605 12.136 10.3785 12.032 10.5385 11.824C10.6985 11.612 10.7785 11.304 10.7785 10.9C10.7785 10.496 10.6985 10.19 10.5385 9.982C10.3785 9.77 10.1605 9.664 9.88447 9.664C9.60847 9.664 9.39047 9.77 9.23047 9.982C9.07047 10.19 8.99047 10.496 8.99047 10.9C8.99047 11.304 9.07047 11.612 9.23047 11.824C9.39047 12.032 9.60847 12.136 9.88447 12.136Z" fill="#86969E"/>
</svg>
