<svg width="28" height="28" viewBox="0 0 28 28" fill="none" xmlns="http://www.w3.org/2000/svg">
<path fill-rule="evenodd" clip-rule="evenodd" d="M0 8C0 7.24929 0.206807 6.54687 0.566557 5.94663L9.66088 13.7865L0.378119 21.158C0.318883 21.2051 0.266406 21.2575 0.220831 21.314C0.077749 20.9024 0 20.4603 0 20V8ZM1.25407 22.9086C1.9705 23.5852 2.93681 24 4 24H24C25.0632 24 26.0295 23.5852 26.7459 22.9086C26.6208 22.8758 26.5 22.818 26.391 22.7343L16.5978 15.2154C14.9468 16.2202 12.8393 16.1816 11.2234 15.0996L1.62188 22.7243C1.5097 22.8134 1.38429 22.8745 1.25407 22.9086ZM18.1904 13.9167L27.609 21.148C27.6735 21.1975 27.7303 21.2534 27.7792 21.314C27.9223 20.9024 28 20.4603 28 20V8C28 7.2493 27.7932 6.5469 27.4335 5.94666L18.1904 13.9167ZM24 4C24.7305 4 25.4153 4.19582 26.0047 4.53783L16.1767 13.0122L16.1487 13.0363L16.1226 13.0624C14.951 14.234 13.0515 14.234 11.8799 13.0624L11.8538 13.0363L11.8258 13.0121L1.99539 4.5378C2.58478 4.19581 3.26952 4 4 4H24Z" fill="#86969E"/>
</svg>
