<svg width="68" height="68" viewBox="0 0 68 68" fill="none" xmlns="http://www.w3.org/2000/svg">
<path d="M66.0462 58.3423V58.3386V27.5253H64.7962L66.0462 27.5208C66.0411 26.1442 65.6795 24.7924 64.9965 23.5972C64.3136 22.402 63.3325 21.4042 62.1491 20.701L62.1234 20.6857L62.0969 20.6716L55.3328 17.0789C54.8065 16.7918 54.2145 16.6467 53.6149 16.6578C53.0122 16.6691 52.4229 16.8379 51.9056 17.1475C51.3884 17.4572 50.9612 17.8969 50.6666 18.4228C50.3731 18.9467 50.2214 19.538 50.2263 20.1384V32.1738L37.6317 38.9669L37.6296 38.968L33.7164 41.0692L29.8033 38.968L29.8012 38.9669L17.2066 32.1738V20.1384C17.2115 19.5381 17.0597 18.9467 16.7663 18.4228C16.4717 17.8969 16.0445 17.4572 15.5273 17.1475C15.01 16.8379 14.4207 16.6691 13.818 16.6578C13.2185 16.6467 12.6266 16.7917 12.1003 17.0787L5.20325 20.7379L5.1648 20.7584L5.12785 20.7814C3.98268 21.4952 3.03826 22.489 2.3837 23.6691C1.72925 24.849 1.38613 26.1761 1.38672 27.5253L1.38671 58.3386L1.38672 58.3423C1.39284 60.4373 2.22779 62.4447 3.70918 63.9261C5.19057 65.4075 7.19801 66.2425 9.29301 66.2486H9.29666L58.1362 66.2486L58.1399 66.2486C60.2349 66.2425 62.2423 65.4075 63.7237 63.9261C65.2051 62.4447 66.04 60.4373 66.0462 58.3423Z" fill="#43D14F" stroke="#031F88" stroke-width="2.5"/>
<path d="M64.7962 27.5253V30.8109L34.7598 46.9723C34.4399 47.1472 34.0811 47.2389 33.7164 47.2389C33.3518 47.2389 32.993 47.1472 32.673 46.9723L2.63672 30.8109V27.5253C2.63613 26.3882 2.92525 25.2698 3.4768 24.2754C4.02835 23.2811 4.82414 22.4437 5.78909 21.8422L12.6932 18.1792C13.0304 17.9941 13.4101 17.9004 13.7947 17.9076C14.1792 17.9148 14.5552 18.0225 14.8852 18.2201C15.2152 18.4176 15.4878 18.6981 15.6757 19.0337C15.8637 19.3692 15.9605 19.7482 15.9566 20.1328V32.9199L33.7164 42.488L51.4763 32.9199V20.1328C51.4724 19.7482 51.5692 19.3692 51.7572 19.0337C51.9451 18.6981 52.2177 18.4176 52.5477 18.2201C52.8777 18.0225 53.2537 17.9148 53.6382 17.9076C54.0228 17.9004 54.4025 17.9941 54.7396 18.1792L61.5106 21.7756C62.5083 22.3684 63.3354 23.2097 63.9112 24.2174C64.487 25.2251 64.7919 26.3647 64.7962 27.5253Z" fill="#2AC036"/>
<path d="M64.7962 57.1853V58.3397C64.791 60.1044 64.0877 61.7954 62.8398 63.0433C61.5919 64.2911 59.901 64.9945 58.1362 64.9996H9.29666C7.53192 64.9945 5.84093 64.2911 4.59306 63.0433C3.3452 61.7954 2.64187 60.1044 2.63672 58.3397V57.1853L26.8789 40.2025C27.2184 39.97 27.615 39.8348 28.0258 39.8113C28.4366 39.7878 28.8461 39.877 29.2099 40.0693L33.7164 42.489L38.223 40.0693C38.5868 39.877 38.9962 39.7878 39.407 39.8113C39.8178 39.8348 40.2144 39.97 40.554 40.2025L64.7962 57.1853Z" fill="#2AC036"/>
<path d="M10.4785 34.7598V4.27843C10.4785 3.67415 10.7263 3.09463 11.1674 2.66734C11.6085 2.24005 12.2067 2 12.8305 2H54.4645C55.0883 2 55.6865 2.24005 56.1276 2.66734C56.5687 3.09463 56.8165 3.67415 56.8165 4.27843V35.5998" stroke="#031F88" stroke-width="2.5"/>
<path d="M53.6972 2.83984H13.7376C13.1488 2.83984 12.5841 3.07373 12.1678 3.49006C11.7515 3.90639 11.5176 4.47105 11.5176 5.05982V35.5777L32.6649 46.9728C32.9881 47.1478 33.3498 47.2394 33.7174 47.2394C34.0849 47.2394 34.4467 47.1478 34.7699 46.9728L55.9172 35.5777V5.05982C55.9172 4.47105 55.6833 3.90639 55.267 3.49006C54.8506 3.07373 54.286 2.83984 53.6972 2.83984Z" fill="white"/>
<path d="M2.00016 30.193L32.7921 46.452C33.3714 46.7579 34.0639 46.7607 34.6456 46.4594L66.0567 30.193" stroke="#031F88" stroke-width="2.5"/>
<rect x="16.6992" y="10" width="34" height="2" rx="1" fill="#031F88"/>
<rect x="16.6992" y="23" width="34" height="2" rx="1" fill="#031F88"/>
<rect x="16.6992" y="15" width="20" height="2" rx="1" fill="#031F88"/>
<rect x="16.6992" y="28" width="20" height="2" rx="1" fill="#031F88"/>
</svg>
