<svg width="265" height="189" viewBox="0 0 265 189" fill="none" xmlns="http://www.w3.org/2000/svg">
<g filter="url(#filter0_d)">
<path d="M131.672 10.2578H15.4557C14.1577 10.2578 13.1055 11.3117 13.1055 12.6117V94.0989C13.1055 95.3989 14.1577 96.4528 15.4557 96.4528H131.672C132.97 96.4528 134.022 95.3989 134.022 94.0989V12.6117C134.022 11.3117 132.97 10.2578 131.672 10.2578Z" fill="white"/>
</g>
<path d="M13 39H134" stroke="#EFF2F9" stroke-width="1.96" stroke-miterlimit="10"/>
<path d="M13 66H134" stroke="#EFF2F9" stroke-width="1.96" stroke-miterlimit="10"/>
<path d="M33.2419 33.9078C37.2844 33.9078 40.5615 30.6257 40.5615 26.577C40.5615 22.5282 37.2844 19.2461 33.2419 19.2461C29.1994 19.2461 25.9224 22.5282 25.9224 26.577C25.9224 30.6257 29.1994 33.9078 33.2419 33.9078Z" fill="#3962FA"/>
<path d="M40.3762 54.1068C41.2746 50.1593 38.8077 46.2299 34.8663 45.3301C30.9249 44.4304 27.0015 46.9011 26.1032 50.8485C25.2048 54.796 27.6717 58.7255 31.6131 59.6252C35.5545 60.525 39.4779 58.0543 40.3762 54.1068Z" fill="#3962FA"/>
<path d="M33.2419 86.6891C37.2844 86.6891 40.5615 83.4069 40.5615 79.3582C40.5615 75.3095 37.2844 72.0273 33.2419 72.0273C29.1994 72.0273 25.9224 75.3095 25.9224 79.3582C25.9224 83.4069 29.1994 86.6891 33.2419 86.6891Z" fill="#3962FA"/>
<path opacity="0.3" d="M44.9829 23.4023H110.391" stroke="#86969E" stroke-width="0.98" stroke-linecap="round" stroke-linejoin="round"/>
<path opacity="0.3" d="M44.9829 28.5312H54.6826" stroke="#86969E" stroke-width="0.98" stroke-linecap="round" stroke-linejoin="round"/>
<path opacity="0.3" d="M44.9829 49.5742H110.391" stroke="#86969E" stroke-width="0.98" stroke-linecap="round" stroke-linejoin="round"/>
<path opacity="0.3" d="M44.9829 54.7031H79.6487" stroke="#86969E" stroke-width="0.98" stroke-linecap="round" stroke-linejoin="round"/>
<path opacity="0.3" d="M44.9829 76.7344H59.2735" stroke="#86969E" stroke-width="0.98" stroke-linecap="round" stroke-linejoin="round"/>
<path opacity="0.3" d="M44.9829 81.8594H110.391" stroke="#86969E" stroke-width="0.98" stroke-linecap="round" stroke-linejoin="round"/>
<path d="M30.3037 27.3429L32.3851 28.7592L36.1793 24.3906" stroke="white" stroke-width="1.22" stroke-linecap="round" stroke-linejoin="round"/>
<path d="M30.3037 53.1867L32.3851 54.603L36.1793 50.2344" stroke="white" stroke-width="1.22" stroke-linecap="round" stroke-linejoin="round"/>
<path d="M30.3037 80.1341L32.3851 81.5504L36.1793 77.1719" stroke="white" stroke-width="1.22" stroke-linecap="round" stroke-linejoin="round"/>
<path d="M174.375 139.56H196.871C209.518 139.56 218.361 131.392 220.463 118.904L226.059 85.7109" stroke="#1B172C" stroke-width="5.46" stroke-linecap="round" stroke-linejoin="round"/>
<path d="M174.624 188.424L184.722 141.546C185.296 138.933 186.744 136.594 188.827 134.918M205.5 137C207.595 138.718 207.131 139.097 207.666 141.755L216.818 188.404" stroke="black" stroke-width="1.88" stroke-miterlimit="10"/>
<path d="M129.451 181.7L134.669 165.113L142.965 164.664L137.757 182.468L129.76 182.517L129.451 181.7Z" fill="#FFBD9A"/>
<path d="M138.922 179.038C138.922 179.038 132.061 181.861 128.834 177.402L114.713 186L141.043 185.83L138.922 179.038Z" fill="black"/>
<path d="M140.976 185.563L114.5 185.997L114.525 188.431L141 187.997L140.976 185.563Z" fill="#EFF2F9"/>
<path d="M129.003 181.163C128.928 181.131 128.862 181.079 128.814 181.013C128.205 180.2 127.472 179.486 126.643 178.899C126.593 178.867 126.55 178.826 126.517 178.778C126.483 178.73 126.459 178.675 126.447 178.617C126.435 178.559 126.435 178.5 126.446 178.442C126.458 178.384 126.481 178.329 126.514 178.28C126.589 178.185 126.696 178.12 126.815 178.098C126.934 178.076 127.057 178.098 127.161 178.161C128.085 178.803 128.899 179.591 129.571 180.495C129.606 180.542 129.632 180.596 129.646 180.653C129.659 180.71 129.661 180.77 129.651 180.828C129.64 180.886 129.618 180.941 129.586 180.99C129.553 181.039 129.511 181.081 129.462 181.113C129.396 181.16 129.319 181.19 129.239 181.198C129.159 181.207 129.078 181.195 129.003 181.163Z" fill="white"/>
<path d="M126.743 182.298C126.664 182.266 126.596 182.215 126.543 182.148C125.944 181.326 125.21 180.611 124.373 180.033C124.322 180.002 124.279 179.961 124.246 179.912C124.212 179.864 124.189 179.809 124.178 179.75C124.166 179.692 124.167 179.633 124.18 179.575C124.193 179.517 124.218 179.463 124.253 179.415C124.323 179.317 124.429 179.249 124.548 179.227C124.666 179.204 124.789 179.229 124.89 179.295C125.817 179.934 126.631 180.723 127.3 181.629C127.336 181.676 127.362 181.729 127.377 181.786C127.391 181.843 127.394 181.902 127.384 181.96C127.375 182.018 127.354 182.074 127.322 182.123C127.291 182.172 127.249 182.215 127.201 182.248C127.135 182.294 127.058 182.323 126.978 182.332C126.898 182.34 126.817 182.329 126.743 182.298Z" fill="white"/>
<path d="M124.482 183.435C124.406 183.403 124.341 183.352 124.293 183.286C123.69 182.466 122.957 181.752 122.122 181.171C122.072 181.14 122.029 181.099 121.995 181.05C121.961 181.002 121.938 180.947 121.926 180.889C121.914 180.832 121.913 180.772 121.925 180.714C121.936 180.656 121.959 180.601 121.992 180.553C122.064 180.453 122.172 180.386 122.292 180.363C122.413 180.341 122.537 180.366 122.64 180.433C123.566 181.072 124.381 181.861 125.05 182.767C125.085 182.814 125.11 182.868 125.124 182.925C125.138 182.982 125.14 183.042 125.129 183.1C125.119 183.158 125.097 183.213 125.064 183.262C125.032 183.311 124.989 183.353 124.94 183.385C124.873 183.43 124.797 183.458 124.717 183.466C124.637 183.475 124.557 183.464 124.482 183.435Z" fill="white"/>
<path d="M158.68 117.051L151.47 117.51C148.989 117.663 146.619 118.587 144.688 120.153C142.756 121.719 141.361 123.849 140.694 126.247L129.401 169.843L145.056 168.387L157.684 130.087L158.68 117.051Z" fill="#1A9EE1"/>
<path d="M146.271 171.875H127.37L128.675 164.883H147.586L146.271 171.875Z" fill="#20AEF7"/>
<path d="M159.695 181.699L159.934 165.332L168.23 164.883L168.001 182.467L160.004 182.517L159.695 181.699Z" fill="#FFBD9A"/>
<path d="M169.166 179.038C169.166 179.038 162.305 181.861 159.078 177.402L144.957 186L171.287 185.83L169.166 179.038Z" fill="black"/>
<path d="M171.289 185.826L144.959 185.996L144.975 188.43L171.305 188.259L171.289 185.826Z" fill="#EFF2F9"/>
<path d="M159.248 181.163C159.172 181.131 159.107 181.079 159.058 181.013C158.449 180.2 157.716 179.486 156.887 178.899C156.837 178.867 156.794 178.826 156.761 178.778C156.727 178.73 156.704 178.675 156.691 178.617C156.679 178.559 156.679 178.5 156.69 178.442C156.702 178.384 156.725 178.329 156.758 178.28C156.833 178.185 156.94 178.12 157.059 178.098C157.178 178.076 157.301 178.098 157.405 178.161C158.329 178.803 159.143 179.591 159.815 180.495C159.851 180.542 159.876 180.596 159.89 180.653C159.903 180.71 159.905 180.77 159.895 180.828C159.885 180.886 159.862 180.941 159.83 180.99C159.797 181.039 159.755 181.081 159.706 181.113C159.64 181.159 159.563 181.188 159.483 181.197C159.403 181.206 159.322 181.194 159.248 181.163Z" fill="white"/>
<path d="M156.987 182.298C156.908 182.266 156.84 182.215 156.788 182.148C156.185 181.328 155.451 180.614 154.617 180.033C154.566 180.002 154.523 179.961 154.49 179.912C154.456 179.864 154.433 179.809 154.422 179.75C154.411 179.692 154.412 179.633 154.424 179.575C154.437 179.517 154.462 179.463 154.497 179.415C154.567 179.317 154.673 179.249 154.792 179.227C154.911 179.204 155.033 179.229 155.134 179.295C156.061 179.934 156.876 180.723 157.544 181.629C157.58 181.676 157.606 181.729 157.621 181.786C157.635 181.843 157.638 181.902 157.629 181.96C157.619 182.018 157.598 182.074 157.567 182.123C157.535 182.172 157.494 182.215 157.445 182.248C157.379 182.294 157.302 182.323 157.222 182.332C157.142 182.34 157.061 182.329 156.987 182.298Z" fill="white"/>
<path d="M154.716 183.435C154.641 183.403 154.575 183.352 154.527 183.286C153.924 182.466 153.191 181.752 152.356 181.171C152.306 181.14 152.263 181.099 152.23 181.05C152.196 181.002 152.172 180.947 152.16 180.889C152.148 180.832 152.148 180.772 152.159 180.714C152.171 180.656 152.194 180.601 152.227 180.553C152.299 180.453 152.406 180.386 152.526 180.363C152.647 180.341 152.771 180.366 152.874 180.433C153.801 181.072 154.615 181.861 155.284 182.767C155.319 182.814 155.345 182.868 155.358 182.925C155.372 182.982 155.374 183.042 155.364 183.1C155.353 183.158 155.331 183.213 155.299 183.262C155.266 183.311 155.224 183.353 155.174 183.385C155.108 183.43 155.031 183.458 154.951 183.466C154.872 183.475 154.791 183.464 154.716 183.435Z" fill="white"/>
<path d="M203.025 116.27L180.469 117.177L163.629 117.516C158.71 117.516 154.667 120.508 154.667 125.416C154.448 140.546 155.613 172.014 156.32 171.874C157.316 171.675 171.088 171.874 171.088 171.874L172.492 137.494L183.238 138.661C185.897 138.661 193.694 139.19 196.074 137.983C201.034 135.499 207.318 129.685 203.025 116.27Z" fill="#20AEF7"/>
<path d="M172.672 164.895H153.76V171.876H172.672V164.895Z" fill="#00B1FF"/>
<path d="M172.452 137.497L172.193 129.797" stroke="#55382C" stroke-width="0.84" stroke-miterlimit="10"/>
<path d="M137.578 89.422L128.515 84.8839C128.515 84.8839 121.116 84.3353 116.625 85.3128C116.408 85.363 116.22 85.4945 116.097 85.6801C115.975 85.8657 115.929 86.0912 115.968 86.3102C116.013 86.5127 116.132 86.6912 116.301 86.8109C116.47 86.9307 116.678 86.9833 116.884 86.9585L121.036 86.4997L118.796 88.0257C118.669 88.1274 118.569 88.2587 118.504 88.4081C118.439 88.5576 118.412 88.7206 118.425 88.8829C118.438 89.0452 118.49 89.202 118.577 89.3394C118.664 89.4769 118.784 89.5908 118.925 89.6714C119.057 89.7404 119.204 89.7765 119.353 89.7765C119.503 89.7765 119.649 89.7404 119.782 89.6714C121.026 88.9832 124.93 87.1879 128.744 89.3323L125.189 90.9281C125.027 91.0014 124.885 91.112 124.774 91.2508C124.663 91.3896 124.587 91.5527 124.551 91.7268C124.515 91.9009 124.521 92.0811 124.568 92.2525C124.615 92.424 124.701 92.582 124.821 92.7134C124.943 92.8519 125.099 92.9574 125.273 93.0201C125.447 93.0828 125.634 93.1009 125.817 93.0725L129.123 92.6436C131.543 93.5496 134.217 93.4996 136.602 92.504L137.578 89.422Z" fill="#FFC9BD"/>
<path d="M167.175 77.6914C164.297 84.733 160.204 98.7564 160.204 98.7564L137.508 88.0543L134.521 95.854L153.77 109.02L174.823 108.142L176.386 91.645L167.175 77.6914Z" fill="#FF9184"/>
<path d="M170.959 73.0935C169.318 74.2689 168.013 75.8542 167.174 77.6915L165.81 117.049C165.81 117.049 189.93 122.135 203.025 116.271C203.025 116.271 202.657 83.3567 195.198 74.5796C195.198 74.5796 192.848 69.9517 180.887 69.9317C177.322 69.8754 173.836 70.9855 170.959 73.0935Z" fill="#FF9184"/>
<path d="M168.837 84.7344L170.58 112.372" stroke="#F8632D" stroke-width="0.73" stroke-miterlimit="10"/>
<path d="M145.515 107.564L145.186 100.782C145.186 100.782 142.756 95.6948 140.545 95.625C138.734 95.7374 137.032 96.5277 135.775 97.8392C135.659 97.9596 135.573 98.1058 135.524 98.2658C135.474 98.4258 135.463 98.5951 135.491 98.7602C135.519 98.9253 135.586 99.0814 135.685 99.216C135.785 99.3505 135.915 99.4597 136.064 99.5348C137.409 100.152 138.597 101.065 139.54 102.208C139.54 102.208 138.464 107.684 140.277 109.938C141.193 111.085 146.61 112.371 146.61 112.371L145.515 107.564Z" fill="#FFC9BD"/>
<path d="M182.351 76.4531L178.009 104.051L145.315 105.467V117.047L180.469 116.199C181.034 116.257 181.604 116.188 182.138 115.996C182.672 115.804 183.157 115.496 183.556 115.092L183.915 115.262C183.915 115.262 193.435 115.421 196.114 82.8664L182.351 76.4531Z" fill="#FF9184"/>
<path d="M148.363 105.339L178.019 103.993L181.545 81.6211" stroke="#F8632D" stroke-width="0.73" stroke-miterlimit="10"/>
<path d="M178.02 103.992L182.541 105.339" stroke="#F8632D" stroke-width="0.73" stroke-miterlimit="10"/>
<path d="M195.447 91.5859L192.201 106.317C191.373 110.022 189.367 113.358 186.484 115.823L185 117" stroke="#F8632D" stroke-width="0.73" stroke-miterlimit="10"/>
<path d="M165.063 44.7193C165.063 44.7193 165.88 48.6091 165.063 50.9829C164.246 53.3567 161.657 54.4638 162.822 60.6577C163.988 66.8515 162.743 67.0011 162.464 68.7565C162.464 68.7565 187.301 71.1004 199.729 64.7071L195.297 57.087C192.967 53.0974 192.101 46.4747 192.101 46.4747L182.57 42.8242L165.063 44.7193Z" fill="#954B55"/>
<path d="M170.959 40.1187C170.68 40.029 171.785 38.3932 172.064 38.2935C176.486 36.8872 185.927 35.0121 190.736 42.7917C194.262 48.5068 190.736 59.2488 183.297 62.5003C176.237 65.6022 177.442 42.1434 177.442 42.1434L170.959 40.1187Z" fill="#954B55"/>
<path d="M172.771 54.6726C172.855 55.3619 172.733 56.0604 172.42 56.68C172.107 57.2996 171.618 57.8124 171.014 58.1535C170.41 58.4947 169.719 58.6488 169.028 58.5965C168.336 58.5442 167.676 58.2878 167.13 57.8597C166.584 57.4316 166.178 56.8511 165.961 56.1914C165.745 55.5318 165.729 54.8227 165.915 54.1538C166.101 53.485 166.48 52.8864 167.006 52.4337C167.532 51.981 168.18 51.6946 168.868 51.6106C169.79 51.5007 170.719 51.7611 171.45 52.3348C172.182 52.9086 172.657 53.7491 172.771 54.6726Z" fill="#FFB1A7"/>
<path d="M173.976 64.0589L174.842 71.659C175.141 74.332 176.944 75.5688 179.563 75.2596C181.804 74.9803 183.765 73.574 183.775 71.27L181.833 59.3711L173.976 64.0589Z" fill="#FFC9BD"/>
<path d="M174.514 68.7551C179.832 68.2863 182.57 60.6562 182.57 60.6562L173.867 63.2794L174.514 68.7551Z" fill="#1B172C"/>
<path d="M176.356 65.1626C171.855 65.4019 167.961 62.0407 167.643 58.3703L166.946 49.7029C166.754 47.4886 167.429 45.2864 168.828 43.5613C170.227 41.8361 172.241 40.723 174.444 40.4571C179.135 39.8985 184.214 43.1401 184.771 47.8378L185.259 54.8196C185.397 56.0926 185.272 57.3804 184.892 58.603C184.511 59.8256 183.884 60.9569 183.05 61.9267C182.215 62.8966 181.19 63.6842 180.039 64.2409C178.887 64.7975 177.634 65.1112 176.356 65.1626Z" fill="#FFC9BD"/>
<path d="M181.096 46.7316C178.965 49.9232 182.451 54.4514 182.451 54.4514L189.033 46.4722C189.033 46.4722 182.361 44.8365 181.096 46.7316Z" fill="#954B55"/>
<path d="M189.412 53.614C189.496 54.3033 189.373 55.0018 189.06 55.6214C188.748 56.241 188.258 56.7538 187.654 57.0949C187.051 57.4361 186.359 57.5902 185.668 57.5379C184.977 57.4856 184.317 57.2292 183.771 56.8011C183.225 56.373 182.818 55.7925 182.602 55.1328C182.385 54.4732 182.369 53.7641 182.555 53.0953C182.741 52.4264 183.121 51.8278 183.647 51.3751C184.172 50.9224 184.82 50.636 185.508 50.552C186.431 50.4421 187.36 50.7025 188.091 51.2763C188.823 51.85 189.297 52.6905 189.412 53.614Z" fill="#FFC9BD"/>
<path d="M184.841 55.2201C184.841 55.2201 184.532 52.6867 186.992 52.7964" stroke="#1B172C" stroke-width="0.56" stroke-linecap="round" stroke-linejoin="round"/>
<path d="M171.915 57.0664L171.845 58.0937H172.871" stroke="#1B172C" stroke-width="0.56" stroke-linecap="round" stroke-linejoin="round"/>
<path d="M176.984 50.7416C176.984 50.7416 174.992 50.6618 175.042 51.2901C175.042 51.2901 175.042 51.719 176.755 51.7589C178.468 51.7988 178.896 51.6891 179.035 51.2901C179.175 50.8912 177.89 50.7216 176.984 50.7416Z" fill="#793641"/>
<path d="M169.196 51.0023C169.196 51.0023 170.799 50.8228 170.959 51.4113C170.959 51.4113 171.048 51.8102 169.644 51.9399C168.24 52.0696 167.782 51.9399 167.652 51.6108C167.523 51.2816 168.439 51.0323 169.196 51.0023Z" fill="#793641"/>
<path d="M175.171 54.8822C175.171 54.8822 176.038 53.6355 177.651 54.8822" stroke="#1B172C" stroke-width="0.71" stroke-linecap="round" stroke-linejoin="round"/>
<path d="M168.509 55.0893C168.599 54.926 168.729 54.7887 168.887 54.6904C169.046 54.5922 169.227 54.5364 169.413 54.5283C169.599 54.5203 169.784 54.5604 169.95 54.6447C170.116 54.7289 170.257 54.8546 170.361 55.0095" stroke="#1B172C" stroke-width="0.71" stroke-linecap="round" stroke-linejoin="round"/>
<path d="M173.528 59.9388C173.982 60.0085 174.447 59.9525 174.872 59.7766C175.296 59.6008 175.665 59.312 175.938 58.9414" stroke="#1B172C" stroke-width="0.71" stroke-linecap="round" stroke-linejoin="round"/>
<path d="M172.064 38.2931C172.064 38.2931 162.464 41.774 164.456 45.3945C165.929 48.0676 175.589 49.7332 184.771 47.8382C184.771 47.8382 188.964 44.437 183.775 40.8564C183.775 40.9162 180.987 36.9266 172.064 38.2931Z" fill="#954B55"/>
<path d="M172.193 72.2574C174.273 71.0381 176.576 70.248 178.965 69.9335C181.932 69.7809 184.906 70.002 187.818 70.5918C187.818 70.5918 187.549 74.8806 179.443 75.8281C177.853 76.0471 176.235 75.9488 174.683 75.5389C173.129 75.1 172.761 74.0228 172.193 72.2574Z" fill="#FFC9BD"/>
<path d="M145.057 115.135H117.511V112.023H145.027C145.439 112.023 145.834 112.187 146.125 112.479C146.417 112.771 146.58 113.167 146.58 113.579C146.58 113.987 146.421 114.378 146.136 114.669C145.851 114.96 145.463 115.127 145.057 115.135Z" fill="#061418"/>
<path d="M121.156 115.134H81.6602C80.6393 115.139 79.645 114.809 78.8288 114.195C78.0126 113.581 77.4191 112.717 77.139 111.733L69.3414 83.6667C69.2844 83.4303 69.2815 83.184 69.3328 82.9463C69.3841 82.7086 69.4883 82.4856 69.6376 82.2938C69.7869 82.1021 69.9776 81.9466 70.1953 81.8389C70.413 81.7312 70.6522 81.6741 70.895 81.6719H110.879C111.303 81.6729 111.716 81.8141 112.053 82.0737C112.39 82.3334 112.631 82.6969 112.741 83.1081L121.156 115.134Z" fill="#1C2E34"/>
<path d="M96.6481 99.0274C96.6481 99.7119 96.4454 100.381 96.0657 100.95C95.686 101.519 95.1463 101.963 94.5149 102.225C93.8834 102.487 93.1886 102.555 92.5183 102.422C91.848 102.288 91.2322 101.959 90.749 101.475C90.2657 100.991 89.9366 100.374 89.8032 99.7026C89.6699 99.0312 89.7383 98.3353 89.9999 97.7029C90.2614 97.0705 90.7043 96.53 91.2726 96.1497C91.8409 95.7694 92.509 95.5664 93.1924 95.5664C93.6466 95.5651 94.0966 95.6537 94.5164 95.8272C94.9362 96.0007 95.3177 96.2555 95.6389 96.5772C95.96 96.8988 96.2145 97.2809 96.3877 97.7014C96.5609 98.1219 96.6494 98.5725 96.6481 99.0274Z" fill="white"/>
<path d="M110.948 118.824V188.422" stroke="#55382E" stroke-width="1.15" stroke-miterlimit="10"/>
<path d="M168.18 115.133H50.7788V122.514H168.18V115.133Z" fill="#EFF2F9"/>
<path d="M264.002 188.422H0" stroke="#55382E" stroke-width="1.15" stroke-miterlimit="10"/>
<defs>
<filter id="filter0_d" x="2.10547" y="0.257812" width="140.917" height="106.195" filterUnits="userSpaceOnUse" color-interpolation-filters="sRGB">
<feFlood flood-opacity="0" result="BackgroundImageFix"/>
<feColorMatrix in="SourceAlpha" type="matrix" values="0 0 0 0 0 0 0 0 0 0 0 0 0 0 0 0 0 0 127 0" result="hardAlpha"/>
<feOffset dx="-1"/>
<feGaussianBlur stdDeviation="5"/>
<feColorMatrix type="matrix" values="0 0 0 0 0.52549 0 0 0 0 0.588235 0 0 0 0 0.619608 0 0 0 0.2 0"/>
<feBlend mode="normal" in2="BackgroundImageFix" result="effect1_dropShadow"/>
<feBlend mode="normal" in="SourceGraphic" in2="effect1_dropShadow" result="shape"/>
</filter>
</defs>
</svg>
