<svg width="47" height="49" viewBox="0 0 47 49" fill="none" xmlns="http://www.w3.org/2000/svg">
<path d="M41.7673 26.9297L41.6934 26.9652V37.0961L41.7673 37.1316C42.8658 36.8041 43.8292 36.1307 44.5142 35.2116C45.1992 34.2926 45.5693 33.1769 45.5693 32.0306C45.5693 30.8844 45.1992 29.7687 44.5142 28.8496C43.8292 27.9306 42.8658 27.2572 41.7673 26.9297Z" fill="#43D14F"/>
<path d="M42.329 29.5229V34.5336C42.3297 35.9997 41.7493 37.4064 40.715 38.4454C39.6806 39.4844 38.2766 40.0711 36.8105 40.077V23.9805C38.2765 23.9864 39.6803 24.5729 40.7146 25.6118C41.749 26.6506 42.3295 28.057 42.329 29.5229Z" fill="#43D14F"/>
<path d="M33.8915 8.05429C33.8704 8.0802 33.8473 8.10612 33.8243 8.13203C33.5191 8.46822 33.1001 8.67939 32.6483 8.72477C32.1965 8.77014 31.7439 8.6465 31.378 8.37772C28.6452 6.35272 25.3341 5.2596 21.9328 5.2596C18.5316 5.2596 15.2204 6.35272 12.4877 8.37772C12.1748 8.60984 11.7956 8.73503 11.4061 8.73474C11.1492 8.73473 10.8951 8.68113 10.6601 8.57735C10.4251 8.47357 10.2144 8.3219 10.0413 8.13203C10.0183 8.10612 9.99525 8.0802 9.97414 8.05429C9.81682 7.86183 9.70011 7.6395 9.63105 7.40071C9.56199 7.16192 9.54202 6.91161 9.57233 6.66489C9.60264 6.41817 9.68262 6.18014 9.80743 5.96517C9.93224 5.7502 10.0993 5.56273 10.2985 5.41408C13.6649 2.92033 17.7434 1.57422 21.9328 1.57422C26.1222 1.57422 30.2008 2.92033 33.5671 5.41408C33.7663 5.56273 33.9334 5.7502 34.0582 5.96517C34.183 6.18014 34.263 6.41817 34.2933 6.66489C34.3236 6.91161 34.3036 7.16192 34.2346 7.40071C34.1655 7.6395 34.0488 7.86183 33.8915 8.05429Z" fill="#3962FA"/>
<path d="M22.502 44.582H25.8188V47.6416H22.502V44.582Z" fill="#3962FA"/>
<path d="M22.5012 44.582V47.6416H20.0376C19.6319 47.6416 19.2428 47.4805 18.9559 47.1936C18.669 46.9067 18.5078 46.5176 18.5078 46.1118C18.5078 45.7061 18.669 45.317 18.9559 45.0301C19.2428 44.7432 19.6319 44.582 20.0376 44.582H22.5012Z" fill="#3962FA"/>
<path d="M7.05359 23.9805V40.077C5.58769 40.0705 4.18405 39.4836 3.14983 38.4447C2.11561 37.4058 1.53504 35.9996 1.53516 34.5336V29.5229C1.53524 28.0571 2.11591 26.6511 3.15011 25.6124C4.18431 24.5737 5.58784 23.9869 7.05359 23.9805Z" fill="#43D14F"/>
<path d="M4.45535 34.5336V29.5229C4.456 28.5816 4.69373 27.6555 5.14661 26.8303C5.59949 26.0051 6.25292 25.3072 7.04661 24.801V23.9805C3.97549 23.9939 1.57617 26.47 1.57617 29.5229V34.5336C1.57617 37.5875 3.97549 40.0636 7.04661 40.077V39.256C6.25292 38.7497 5.59949 38.0518 5.14662 37.2264C4.69375 36.4011 4.45602 35.475 4.45535 34.5336Z" fill="#43D14F"/>
<path d="M36.9069 23.9805V40.077H34.0469V23.9805H36.9069Z" fill="#43D14F"/>
<path d="M9.81702 23.9805V40.077H6.95703V23.9805H9.81702Z" fill="#43D14F"/>
<path d="M12.9648 7.83347C12.7038 7.83345 12.4457 7.77898 12.2069 7.67353C11.9682 7.56808 11.754 7.41398 11.5782 7.22107C11.5548 7.19478 11.5315 7.16848 11.51 7.14209C11.3501 6.94654 11.2316 6.72065 11.1614 6.47803C11.0912 6.23541 11.071 5.9811 11.1018 5.73042C11.1326 5.47975 11.2138 5.23791 11.3406 5.01949C11.4674 4.80107 11.6371 4.6106 11.8396 4.45956C12.03 4.3188 12.223 4.18124 12.4187 4.04688C11.6833 4.45704 10.9752 4.91408 10.2985 5.41516C10.0993 5.56381 9.93224 5.75127 9.80743 5.96624C9.68262 6.18122 9.60264 6.41924 9.57233 6.66596C9.54202 6.91268 9.56199 7.16299 9.63105 7.40178C9.70011 7.64057 9.81682 7.8629 9.97414 8.05536C9.99525 8.08127 10.0183 8.10719 10.0413 8.1331C10.2144 8.32297 10.4251 8.47464 10.6601 8.57842C10.8951 8.6822 11.1492 8.7358 11.406 8.73581C11.7956 8.7361 12.1748 8.61091 12.4877 8.37879C12.7619 8.17546 13.043 7.98105 13.3307 7.79556C13.2103 7.82032 13.0877 7.83302 12.9648 7.83347Z" fill="#3962FA"/>
<mask id="path-11-outside-1" maskUnits="userSpaceOnUse" x="0" y="0" width="47" height="49" fill="black">
<rect fill="white" width="47" height="49"/>
<path d="M7.07724 40.6369H9.81668C9.89206 40.6391 9.96712 40.6263 10.0376 40.5993C10.108 40.5724 10.1724 40.5318 10.2271 40.4799C10.2818 40.428 10.3257 40.3658 10.3563 40.2969C10.3869 40.2279 10.4036 40.1536 10.4054 40.0783V23.9817C10.4054 23.6638 10.1347 23.3618 9.81668 23.3618H7.07724C6.27529 23.3611 5.48141 23.522 4.74299 23.8348V21.1559C4.7483 18.8597 5.21279 16.5877 6.10912 14.4737C7.00545 12.3596 8.31553 10.4462 9.96227 8.84596C10.3782 9.15031 10.8801 9.3145 11.3954 9.31479C11.9109 9.31486 12.4127 9.14907 12.8267 8.84193C15.461 6.89055 18.6526 5.83722 21.931 5.83722C25.2093 5.83722 28.4009 6.89055 31.0353 8.84193C31.4483 9.14798 31.9486 9.31351 32.4627 9.3142C32.9767 9.31489 33.4775 9.15071 33.8913 8.84577C35.537 10.4463 36.8458 12.3601 37.7406 14.4742C38.6353 16.5884 39.0979 18.8602 39.1012 21.1559V23.8239C38.3679 23.5186 37.5814 23.3616 36.7871 23.3618H34.0477C33.8871 23.3705 33.7356 23.4389 33.6229 23.5536C33.5103 23.6683 33.4446 23.821 33.4388 23.9817V40.0783C33.4388 40.3962 33.7296 40.6369 34.0477 40.6369H35.1663V42.4278C35.16 43.2539 34.8271 44.044 34.2403 44.6255C33.6535 45.207 32.8604 45.5327 32.0343 45.5315H26.4328V44.5833C26.4246 44.4255 26.3565 44.2769 26.2423 44.1677C26.1281 44.0585 25.9766 43.9971 25.8186 43.996H20.0381C19.4781 43.996 18.941 44.2184 18.5451 44.6144C18.1491 45.0103 17.9267 45.5474 17.9267 46.1074C17.9267 46.6673 18.1491 47.2044 18.5451 47.6003C18.941 47.9963 19.4781 48.2188 20.0381 48.2188H25.8186C26.1365 48.2188 26.4328 47.9609 26.4328 47.6429V46.6832H32.0343C34.3839 46.6832 36.318 44.7774 36.318 42.4278V40.6369H36.7871C37.85 40.6378 38.8948 40.3616 39.8184 39.8354C40.7419 39.3092 41.5123 38.5513 42.0535 37.6365C43.2431 37.2532 44.2804 36.5025 45.0163 35.4923C45.7522 34.4821 46.1486 33.2645 46.1486 32.0147C46.1486 30.7649 45.7522 29.5473 45.0163 28.5371C44.2804 27.5269 43.2431 26.7761 42.0535 26.3928C41.5983 25.6261 40.9844 24.9657 40.2529 24.4559V21.1559C40.2496 18.6921 39.7505 16.2542 38.7852 13.9874C37.82 11.7206 36.4083 9.67127 34.6344 7.96147C34.8849 7.45458 34.9495 6.8759 34.8171 6.32624C34.6847 5.77658 34.3637 5.29079 33.9099 4.9535C30.4444 2.38596 26.2456 1 21.9326 1C17.6195 1 13.4207 2.38596 9.95517 4.9535C9.50424 5.29282 9.18458 5.77768 9.05043 6.32584C8.91627 6.874 8.97589 7.45169 9.21915 7.9609C7.44419 9.67051 6.03125 11.7197 5.06442 13.9865C4.09759 16.2534 3.59662 18.6915 3.59132 21.1559V24.4805C2.78899 25.0542 2.13527 25.8112 1.68455 26.6886C1.23384 27.566 0.999164 28.5383 1.00006 29.5246V34.5354C0.996642 35.3355 1.15133 36.1285 1.45522 36.8687C1.75912 37.6089 2.20625 38.2818 2.77093 38.8488C3.3356 39.4157 4.00671 39.8655 4.74572 40.1724C5.48472 40.4793 6.27706 40.6371 7.07724 40.6369ZM7.62217 24.5135H9.25371V39.4852H7.62217V24.5135ZM21.9221 47.0671H20.0381C19.7835 47.0671 19.5394 46.966 19.3594 46.786C19.1794 46.606 19.0783 46.3619 19.0783 46.1074C19.0783 45.8528 19.1794 45.6087 19.3594 45.4287C19.5394 45.2487 19.7835 45.1476 20.0381 45.1476H21.9221V47.0671ZM25.2811 47.0671H23.0738V45.1476H25.2811V47.0671ZM36.222 39.4852H34.5905V24.5135H36.222V39.4852ZM42.7222 27.9698C43.4215 28.3918 44 28.9874 44.4016 29.6988C44.8032 30.4101 45.0142 31.2131 45.0142 32.03C45.0142 32.8468 44.8032 33.6499 44.4016 34.3612C44 35.0726 43.4215 35.6681 42.7222 36.0902C42.8613 35.5835 42.9345 35.0609 42.9401 34.5354V29.5247C42.9346 28.9992 42.8613 28.4766 42.7222 27.9698ZM41.7884 29.5246V34.5354C41.7832 35.7549 41.331 36.9302 40.5174 37.8386C39.7038 38.7471 38.5853 39.3257 37.3737 39.4648V24.5952C38.5853 24.7343 39.7038 25.3129 40.5174 26.2213C41.331 27.1298 41.7832 28.3051 41.7884 29.5246ZM10.1399 6.76661C10.1558 6.59159 10.2087 6.42193 10.2951 6.26887C10.3815 6.11582 10.4994 5.98285 10.641 5.87877C13.908 3.45839 17.8663 2.15186 21.9322 2.15186C25.9981 2.15186 29.9564 3.45839 33.2234 5.87877C33.365 5.98284 33.4829 6.11579 33.5692 6.26883C33.6556 6.42187 33.7085 6.59151 33.7244 6.76652C33.7415 6.94339 33.7213 7.12186 33.6652 7.29046C33.6091 7.45906 33.5183 7.61405 33.3987 7.74544C33.1902 7.97742 32.9027 8.12347 32.5924 8.15512C32.2821 8.18677 31.9711 8.10176 31.72 7.91666C28.8881 5.81827 25.4568 4.68554 21.9321 4.68554C18.4075 4.68554 14.9761 5.81827 12.1442 7.91666C11.8932 8.1018 11.5822 8.18683 11.2719 8.15518C10.9615 8.12353 10.6741 7.97746 10.4656 7.74544C10.346 7.61407 10.2552 7.4591 10.1991 7.29052C10.143 7.12193 10.1229 6.94347 10.1399 6.76661ZM2.15173 29.5246C2.15173 26.9891 3.97521 24.8927 6.4705 24.5952V39.4648C3.97521 39.1673 2.15173 37.0709 2.15173 34.5354V29.5246Z"/>
</mask>
<path d="M7.07724 40.6369H9.81668C9.89206 40.6391 9.96712 40.6263 10.0376 40.5993C10.108 40.5724 10.1724 40.5318 10.2271 40.4799C10.2818 40.428 10.3257 40.3658 10.3563 40.2969C10.3869 40.2279 10.4036 40.1536 10.4054 40.0783V23.9817C10.4054 23.6638 10.1347 23.3618 9.81668 23.3618H7.07724C6.27529 23.3611 5.48141 23.522 4.74299 23.8348V21.1559C4.7483 18.8597 5.21279 16.5877 6.10912 14.4737C7.00545 12.3596 8.31553 10.4462 9.96227 8.84596C10.3782 9.15031 10.8801 9.3145 11.3954 9.31479C11.9109 9.31486 12.4127 9.14907 12.8267 8.84193C15.461 6.89055 18.6526 5.83722 21.931 5.83722C25.2093 5.83722 28.4009 6.89055 31.0353 8.84193C31.4483 9.14798 31.9486 9.31351 32.4627 9.3142C32.9767 9.31489 33.4775 9.15071 33.8913 8.84577C35.537 10.4463 36.8458 12.3601 37.7406 14.4742C38.6353 16.5884 39.0979 18.8602 39.1012 21.1559V23.8239C38.3679 23.5186 37.5814 23.3616 36.7871 23.3618H34.0477C33.8871 23.3705 33.7356 23.4389 33.6229 23.5536C33.5103 23.6683 33.4446 23.821 33.4388 23.9817V40.0783C33.4388 40.3962 33.7296 40.6369 34.0477 40.6369H35.1663V42.4278C35.16 43.2539 34.8271 44.044 34.2403 44.6255C33.6535 45.207 32.8604 45.5327 32.0343 45.5315H26.4328V44.5833C26.4246 44.4255 26.3565 44.2769 26.2423 44.1677C26.1281 44.0585 25.9766 43.9971 25.8186 43.996H20.0381C19.4781 43.996 18.941 44.2184 18.5451 44.6144C18.1491 45.0103 17.9267 45.5474 17.9267 46.1074C17.9267 46.6673 18.1491 47.2044 18.5451 47.6003C18.941 47.9963 19.4781 48.2188 20.0381 48.2188H25.8186C26.1365 48.2188 26.4328 47.9609 26.4328 47.6429V46.6832H32.0343C34.3839 46.6832 36.318 44.7774 36.318 42.4278V40.6369H36.7871C37.85 40.6378 38.8948 40.3616 39.8184 39.8354C40.7419 39.3092 41.5123 38.5513 42.0535 37.6365C43.2431 37.2532 44.2804 36.5025 45.0163 35.4923C45.7522 34.4821 46.1486 33.2645 46.1486 32.0147C46.1486 30.7649 45.7522 29.5473 45.0163 28.5371C44.2804 27.5269 43.2431 26.7761 42.0535 26.3928C41.5983 25.6261 40.9844 24.9657 40.2529 24.4559V21.1559C40.2496 18.6921 39.7505 16.2542 38.7852 13.9874C37.82 11.7206 36.4083 9.67127 34.6344 7.96147C34.8849 7.45458 34.9495 6.8759 34.8171 6.32624C34.6847 5.77658 34.3637 5.29079 33.9099 4.9535C30.4444 2.38596 26.2456 1 21.9326 1C17.6195 1 13.4207 2.38596 9.95517 4.9535C9.50424 5.29282 9.18458 5.77768 9.05043 6.32584C8.91627 6.874 8.97589 7.45169 9.21915 7.9609C7.44419 9.67051 6.03125 11.7197 5.06442 13.9865C4.09759 16.2534 3.59662 18.6915 3.59132 21.1559V24.4805C2.78899 25.0542 2.13527 25.8112 1.68455 26.6886C1.23384 27.566 0.999164 28.5383 1.00006 29.5246V34.5354C0.996642 35.3355 1.15133 36.1285 1.45522 36.8687C1.75912 37.6089 2.20625 38.2818 2.77093 38.8488C3.3356 39.4157 4.00671 39.8655 4.74572 40.1724C5.48472 40.4793 6.27706 40.6371 7.07724 40.6369ZM7.62217 24.5135H9.25371V39.4852H7.62217V24.5135ZM21.9221 47.0671H20.0381C19.7835 47.0671 19.5394 46.966 19.3594 46.786C19.1794 46.606 19.0783 46.3619 19.0783 46.1074C19.0783 45.8528 19.1794 45.6087 19.3594 45.4287C19.5394 45.2487 19.7835 45.1476 20.0381 45.1476H21.9221V47.0671ZM25.2811 47.0671H23.0738V45.1476H25.2811V47.0671ZM36.222 39.4852H34.5905V24.5135H36.222V39.4852ZM42.7222 27.9698C43.4215 28.3918 44 28.9874 44.4016 29.6988C44.8032 30.4101 45.0142 31.2131 45.0142 32.03C45.0142 32.8468 44.8032 33.6499 44.4016 34.3612C44 35.0726 43.4215 35.6681 42.7222 36.0902C42.8613 35.5835 42.9345 35.0609 42.9401 34.5354V29.5247C42.9346 28.9992 42.8613 28.4766 42.7222 27.9698ZM41.7884 29.5246V34.5354C41.7832 35.7549 41.331 36.9302 40.5174 37.8386C39.7038 38.7471 38.5853 39.3257 37.3737 39.4648V24.5952C38.5853 24.7343 39.7038 25.3129 40.5174 26.2213C41.331 27.1298 41.7832 28.3051 41.7884 29.5246ZM10.1399 6.76661C10.1558 6.59159 10.2087 6.42193 10.2951 6.26887C10.3815 6.11582 10.4994 5.98285 10.641 5.87877C13.908 3.45839 17.8663 2.15186 21.9322 2.15186C25.9981 2.15186 29.9564 3.45839 33.2234 5.87877C33.365 5.98284 33.4829 6.11579 33.5692 6.26883C33.6556 6.42187 33.7085 6.59151 33.7244 6.76652C33.7415 6.94339 33.7213 7.12186 33.6652 7.29046C33.6091 7.45906 33.5183 7.61405 33.3987 7.74544C33.1902 7.97742 32.9027 8.12347 32.5924 8.15512C32.2821 8.18677 31.9711 8.10176 31.72 7.91666C28.8881 5.81827 25.4568 4.68554 21.9321 4.68554C18.4075 4.68554 14.9761 5.81827 12.1442 7.91666C11.8932 8.1018 11.5822 8.18683 11.2719 8.15518C10.9615 8.12353 10.6741 7.97746 10.4656 7.74544C10.346 7.61407 10.2552 7.4591 10.1991 7.29052C10.143 7.12193 10.1229 6.94347 10.1399 6.76661ZM2.15173 29.5246C2.15173 26.9891 3.97521 24.8927 6.4705 24.5952V39.4648C3.97521 39.1673 2.15173 37.0709 2.15173 34.5354V29.5246Z" fill="#031F88"/>
<path d="M7.07724 40.6369H9.81668C9.89206 40.6391 9.96712 40.6263 10.0376 40.5993C10.108 40.5724 10.1724 40.5318 10.2271 40.4799C10.2818 40.428 10.3257 40.3658 10.3563 40.2969C10.3869 40.2279 10.4036 40.1536 10.4054 40.0783V23.9817C10.4054 23.6638 10.1347 23.3618 9.81668 23.3618H7.07724C6.27529 23.3611 5.48141 23.522 4.74299 23.8348V21.1559C4.7483 18.8597 5.21279 16.5877 6.10912 14.4737C7.00545 12.3596 8.31553 10.4462 9.96227 8.84596C10.3782 9.15031 10.8801 9.3145 11.3954 9.31479C11.9109 9.31486 12.4127 9.14907 12.8267 8.84193C15.461 6.89055 18.6526 5.83722 21.931 5.83722C25.2093 5.83722 28.4009 6.89055 31.0353 8.84193C31.4483 9.14798 31.9486 9.31351 32.4627 9.3142C32.9767 9.31489 33.4775 9.15071 33.8913 8.84577C35.537 10.4463 36.8458 12.3601 37.7406 14.4742C38.6353 16.5884 39.0979 18.8602 39.1012 21.1559V23.8239C38.3679 23.5186 37.5814 23.3616 36.7871 23.3618H34.0477C33.8871 23.3705 33.7356 23.4389 33.6229 23.5536C33.5103 23.6683 33.4446 23.821 33.4388 23.9817V40.0783C33.4388 40.3962 33.7296 40.6369 34.0477 40.6369H35.1663V42.4278C35.16 43.2539 34.8271 44.044 34.2403 44.6255C33.6535 45.207 32.8604 45.5327 32.0343 45.5315H26.4328V44.5833C26.4246 44.4255 26.3565 44.2769 26.2423 44.1677C26.1281 44.0585 25.9766 43.9971 25.8186 43.996H20.0381C19.4781 43.996 18.941 44.2184 18.5451 44.6144C18.1491 45.0103 17.9267 45.5474 17.9267 46.1074C17.9267 46.6673 18.1491 47.2044 18.5451 47.6003C18.941 47.9963 19.4781 48.2188 20.0381 48.2188H25.8186C26.1365 48.2188 26.4328 47.9609 26.4328 47.6429V46.6832H32.0343C34.3839 46.6832 36.318 44.7774 36.318 42.4278V40.6369H36.7871C37.85 40.6378 38.8948 40.3616 39.8184 39.8354C40.7419 39.3092 41.5123 38.5513 42.0535 37.6365C43.2431 37.2532 44.2804 36.5025 45.0163 35.4923C45.7522 34.4821 46.1486 33.2645 46.1486 32.0147C46.1486 30.7649 45.7522 29.5473 45.0163 28.5371C44.2804 27.5269 43.2431 26.7761 42.0535 26.3928C41.5983 25.6261 40.9844 24.9657 40.2529 24.4559V21.1559C40.2496 18.6921 39.7505 16.2542 38.7852 13.9874C37.82 11.7206 36.4083 9.67127 34.6344 7.96147C34.8849 7.45458 34.9495 6.8759 34.8171 6.32624C34.6847 5.77658 34.3637 5.29079 33.9099 4.9535C30.4444 2.38596 26.2456 1 21.9326 1C17.6195 1 13.4207 2.38596 9.95517 4.9535C9.50424 5.29282 9.18458 5.77768 9.05043 6.32584C8.91627 6.874 8.97589 7.45169 9.21915 7.9609C7.44419 9.67051 6.03125 11.7197 5.06442 13.9865C4.09759 16.2534 3.59662 18.6915 3.59132 21.1559V24.4805C2.78899 25.0542 2.13527 25.8112 1.68455 26.6886C1.23384 27.566 0.999164 28.5383 1.00006 29.5246V34.5354C0.996642 35.3355 1.15133 36.1285 1.45522 36.8687C1.75912 37.6089 2.20625 38.2818 2.77093 38.8488C3.3356 39.4157 4.00671 39.8655 4.74572 40.1724C5.48472 40.4793 6.27706 40.6371 7.07724 40.6369ZM7.62217 24.5135H9.25371V39.4852H7.62217V24.5135ZM21.9221 47.0671H20.0381C19.7835 47.0671 19.5394 46.966 19.3594 46.786C19.1794 46.606 19.0783 46.3619 19.0783 46.1074C19.0783 45.8528 19.1794 45.6087 19.3594 45.4287C19.5394 45.2487 19.7835 45.1476 20.0381 45.1476H21.9221V47.0671ZM25.2811 47.0671H23.0738V45.1476H25.2811V47.0671ZM36.222 39.4852H34.5905V24.5135H36.222V39.4852ZM42.7222 27.9698C43.4215 28.3918 44 28.9874 44.4016 29.6988C44.8032 30.4101 45.0142 31.2131 45.0142 32.03C45.0142 32.8468 44.8032 33.6499 44.4016 34.3612C44 35.0726 43.4215 35.6681 42.7222 36.0902C42.8613 35.5835 42.9345 35.0609 42.9401 34.5354V29.5247C42.9346 28.9992 42.8613 28.4766 42.7222 27.9698ZM41.7884 29.5246V34.5354C41.7832 35.7549 41.331 36.9302 40.5174 37.8386C39.7038 38.7471 38.5853 39.3257 37.3737 39.4648V24.5952C38.5853 24.7343 39.7038 25.3129 40.5174 26.2213C41.331 27.1298 41.7832 28.3051 41.7884 29.5246ZM10.1399 6.76661C10.1558 6.59159 10.2087 6.42193 10.2951 6.26887C10.3815 6.11582 10.4994 5.98285 10.641 5.87877C13.908 3.45839 17.8663 2.15186 21.9322 2.15186C25.9981 2.15186 29.9564 3.45839 33.2234 5.87877C33.365 5.98284 33.4829 6.11579 33.5692 6.26883C33.6556 6.42187 33.7085 6.59151 33.7244 6.76652C33.7415 6.94339 33.7213 7.12186 33.6652 7.29046C33.6091 7.45906 33.5183 7.61405 33.3987 7.74544C33.1902 7.97742 32.9027 8.12347 32.5924 8.15512C32.2821 8.18677 31.9711 8.10176 31.72 7.91666C28.8881 5.81827 25.4568 4.68554 21.9321 4.68554C18.4075 4.68554 14.9761 5.81827 12.1442 7.91666C11.8932 8.1018 11.5822 8.18683 11.2719 8.15518C10.9615 8.12353 10.6741 7.97746 10.4656 7.74544C10.346 7.61407 10.2552 7.4591 10.1991 7.29052C10.143 7.12193 10.1229 6.94347 10.1399 6.76661ZM2.15173 29.5246C2.15173 26.9891 3.97521 24.8927 6.4705 24.5952V39.4648C3.97521 39.1673 2.15173 37.0709 2.15173 34.5354V29.5246Z" stroke="#031F88" stroke-width="0.6" mask="url(#path-11-outside-1)"/>
<path d="M4.5 37.15C4.6703 37.15 4.83489 37.0853 4.95724 36.9683C5.07983 36.851 5.15 36.6905 5.15 36.5217V30.4783C5.15 30.3095 5.07983 30.149 4.95724 30.0317C4.83489 29.9147 4.6703 29.85 4.5 29.85C4.3297 29.85 4.16511 29.9147 4.04276 30.0317C3.92017 30.149 3.85 30.3095 3.85 30.4783V36.5217C3.85 36.6905 3.92017 36.851 4.04276 36.9683C4.16511 37.0853 4.3297 37.15 4.5 37.15Z" fill="#031F88" stroke="#031F88" stroke-width="0.3"/>
<path d="M4.5 28.15C4.65893 28.15 4.81772 28.1054 4.94062 28.0177C5.06415 27.9297 5.15 27.7974 5.15 27.6436V27.3564C5.15 27.2026 5.06415 27.0703 4.94062 26.9822C4.81772 26.8946 4.65892 26.85 4.5 26.85C4.34108 26.85 4.18228 26.8946 4.05938 26.9822C3.93585 27.0703 3.85 27.2026 3.85 27.3564V27.6436C3.85 27.7974 3.93585 27.9297 4.05938 28.0177C4.18228 28.1054 4.34107 28.15 4.5 28.15Z" fill="#031F88" stroke="#031F88" stroke-width="0.3"/>
</svg>
