<svg width="26" height="26" viewBox="0 0 26 26" fill="none" xmlns="http://www.w3.org/2000/svg">
<path d="M4.30462 25H21.6954C23.5184 25 25 23.5733 25 21.8178V5.95998C25 4.20442 23.5184 2.77774 21.6954 2.77774H20.3846V1.88887C20.3846 1.39998 19.9692 1 19.4615 1C18.9538 1 18.5384 1.39998 18.5384 1.88887V2.77774H7.46157V1.88887C7.46157 1.39998 7.04613 1 6.53843 1C6.03073 1 5.61537 1.39998 5.61537 1.88887V2.77774H4.30462C2.48155 2.77774 1 4.20442 1 5.95998V21.8178C1 23.5733 2.48155 25 4.30462 25ZM2.8462 5.95998C2.8462 5.18667 3.50157 4.55556 4.30462 4.55556H5.61537V5.44444C5.61537 5.93333 6.03073 6.33331 6.53843 6.33331C7.04613 6.33331 7.46149 5.93333 7.46149 5.44444V4.55556H18.5384V5.44444C18.5384 5.93333 18.9538 6.33331 19.4615 6.33331C19.9692 6.33331 20.3846 5.93333 20.3846 5.44444V4.55556H21.6953C22.4984 4.55556 23.1537 5.18667 23.1537 5.95998V21.8178C23.1537 22.5911 22.4984 23.2222 21.6953 23.2222H4.30462C3.50157 23.2222 2.8462 22.5911 2.8462 21.8178V5.95998Z" fill="#43D14F" stroke="#43D14F" stroke-width="0.5"/>
<path d="M7.6924 11.2222C8.32964 11.2222 8.84623 10.7247 8.84623 10.1111C8.84623 9.49745 8.32964 9 7.6924 9C7.05516 9 6.53857 9.49745 6.53857 10.1111C6.53857 10.7247 7.05516 11.2222 7.6924 11.2222Z" fill="#43D14F" stroke="#43D14F" stroke-width="0.5"/>
<path d="M12.7691 11.2222C13.4063 11.2222 13.9229 10.7247 13.9229 10.1111C13.9229 9.49745 13.4063 9 12.7691 9C12.1318 9 11.6152 9.49745 11.6152 10.1111C11.6152 10.7247 12.1318 11.2222 12.7691 11.2222Z" fill="#43D14F" stroke="#43D14F" stroke-width="0.5"/>
<path d="M17.8462 11.2222C18.4835 11.2222 19 10.7247 19 10.1111C19 9.49745 18.4835 9 17.8462 9C17.209 9 16.6924 9.49745 16.6924 10.1111C16.6924 10.7247 17.209 11.2222 17.8462 11.2222Z" fill="#43D14F" stroke="#43D14F" stroke-width="0.5"/>
<path d="M7.6924 15.6665C8.32964 15.6665 8.84623 15.1691 8.84623 14.5554C8.84623 13.9418 8.32964 13.4443 7.6924 13.4443C7.05516 13.4443 6.53857 13.9418 6.53857 14.5554C6.53857 15.1691 7.05516 15.6665 7.6924 15.6665Z" fill="#43D14F" stroke="#43D14F" stroke-width="0.5"/>
<path d="M12.7691 15.6665C13.4063 15.6665 13.9229 15.1691 13.9229 14.5554C13.9229 13.9418 13.4063 13.4443 12.7691 13.4443C12.1318 13.4443 11.6152 13.9418 11.6152 14.5554C11.6152 15.1691 12.1318 15.6665 12.7691 15.6665Z" fill="#43D14F" stroke="#43D14F" stroke-width="0.5"/>
<path d="M17.8462 15.6665C18.4835 15.6665 19 15.1691 19 14.5554C19 13.9418 18.4835 13.4443 17.8462 13.4443C17.209 13.4443 16.6924 13.9418 16.6924 14.5554C16.6924 15.1691 17.209 15.6665 17.8462 15.6665Z" fill="#43D14F" stroke="#43D14F" stroke-width="0.5"/>
<path d="M7.6924 20.1109C8.32964 20.1109 8.84623 19.6134 8.84623 18.9998C8.84623 18.3861 8.32964 17.8887 7.6924 17.8887C7.05516 17.8887 6.53857 18.3861 6.53857 18.9998C6.53857 19.6134 7.05516 20.1109 7.6924 20.1109Z" fill="#43D14F" stroke="#43D14F" stroke-width="0.5"/>
<path d="M12.7691 20.1109C13.4063 20.1109 13.9229 19.6134 13.9229 18.9998C13.9229 18.3861 13.4063 17.8887 12.7691 17.8887C12.1318 17.8887 11.6152 18.3861 11.6152 18.9998C11.6152 19.6134 12.1318 20.1109 12.7691 20.1109Z" fill="#43D14F" stroke="#43D14F" stroke-width="0.5"/>
<path d="M17.8462 20.1109C18.4835 20.1109 19 19.6134 19 18.9998C19 18.3861 18.4835 17.8887 17.8462 17.8887C17.209 17.8887 16.6924 18.3861 16.6924 18.9998C16.6924 19.6134 17.209 20.1109 17.8462 20.1109Z" fill="#43D14F" stroke="#43D14F" stroke-width="0.5"/>
</svg>
