<svg width="24" height="24" viewBox="0 0 24 24" fill="none" xmlns="http://www.w3.org/2000/svg">
<path fill-rule="evenodd" clip-rule="evenodd" d="M22.0828 18.1994C22.0828 18.1994 22.0799 18.2077 22.0703 18.2253C22.0773 18.2084 22.0828 18.1994 22.0828 18.1994ZM21.7393 18.6745C21.3403 18.3951 20.5063 17.8206 19.5818 17.2547C18.9284 16.8547 18.2876 16.495 17.7636 16.256C17.6394 16.1993 17.5321 16.1542 17.4414 16.1191C17.4198 16.1425 17.3961 16.1686 17.3701 16.1977C17.2502 16.3322 17.1145 16.4934 16.9306 16.7122L16.9295 16.7135C16.8186 16.846 16.5131 17.2104 16.2621 17.4838L15.827 17.9577C15.562 18.2463 15.1528 18.3536 14.7803 18.2321L14.1686 18.0326C13.6273 17.8561 13.0993 17.6413 12.5885 17.3898C9.98634 16.1219 7.88359 14.0193 6.61543 11.4173C6.59805 11.3821 6.57637 11.3388 6.55179 11.2898C6.46347 11.1135 6.33759 10.8623 6.23815 10.6403C6.17041 10.489 6.0918 10.3017 6.02713 10.104C5.97414 9.94204 5.8736 9.60877 5.8736 9.216C5.8736 8.77394 6.01631 8.44199 6.0739 8.31636C6.14732 8.1562 6.22839 8.02734 6.28469 7.9436C6.39823 7.77473 6.52611 7.62091 6.62677 7.50534C6.83447 7.26685 7.0944 7.00109 7.32665 6.76754C7.45691 6.63654 7.57746 6.5161 7.68741 6.40624C7.7172 6.37648 7.74622 6.34748 7.77444 6.31927C7.51851 5.75904 7.12253 5.03082 6.6621 4.29521C6.17795 3.5217 5.66798 2.81282 5.23407 2.32296C5.22116 2.30839 5.20848 2.29419 5.19603 2.28037C5.1877 2.28683 5.17929 2.2934 5.17079 2.30007C4.72264 2.65183 4.18288 3.1715 3.65474 3.76684C3.128 4.36061 2.66211 4.97408 2.3417 5.49078C2.18098 5.74997 2.07782 5.95128 2.02065 6.08911C2.01304 6.10744 2.00684 6.12324 2.00182 6.13659C2.03121 7.12022 2.48171 10.664 7.80346 16.2009C10.3892 18.6744 13.0428 20.1393 15.048 20.984C16.0534 21.4076 16.8909 21.6731 17.4666 21.8304C17.5959 21.8657 17.7118 21.8955 17.813 21.9203C17.92 21.8584 18.0487 21.7794 18.198 21.6821C18.7258 21.3384 19.3871 20.8478 20.0347 20.3066C20.6875 19.7612 21.2731 19.2088 21.6762 18.7477C21.6982 18.7225 21.7193 18.6981 21.7393 18.6745ZM6.3904 17.6168C0.5 11.5 0 7.39978 0 6.0168C0 4.5 3.9696 0 5.36 0C6.7504 0 10.428 6.3208 9.964 6.9104C9.7781 7.14662 9.40562 7.51806 9.0259 7.89671C8.45785 8.46317 7.8736 9.04578 7.8736 9.216C7.8736 9.46254 8.12009 9.9547 8.32283 10.3595C8.35364 10.421 8.38343 10.4805 8.4112 10.5368C9.48399 12.7404 11.2644 14.5208 13.468 15.5936C13.7987 15.7566 14.1381 15.9011 14.4846 16.0266C14.6689 16.0933 14.8741 16.0388 15.0029 15.8911C15.1619 15.7087 15.317 15.524 15.396 15.4296L15.3995 15.4255C16.1132 14.5762 16.4698 14.1518 17.0928 14.0416C18.4 13.7952 23.1624 17.228 23.228 17.28C23.4493 17.4354 23.6334 17.638 23.7669 17.8732C23.9004 18.1084 23.98 18.3703 24 18.64C24 20.0304 18.8512 24 17.9832 24C17.9328 24 12 23 6.3904 17.6168ZM5.71035 1.94414C5.71035 1.94414 5.70336 1.94773 5.69022 1.95236C5.70392 1.94603 5.71035 1.94414 5.71035 1.94414ZM4.76717 1.86624C4.74485 1.85387 4.73303 1.84437 4.73303 1.84437C4.73303 1.84437 4.74397 1.84945 4.76717 1.86624ZM17.1491 16.0238C17.1353 16.0221 17.1276 16.0201 17.1276 16.0201C17.1276 16.0201 17.1343 16.0206 17.1491 16.0238Z" fill="#43D14F"/>
</svg>
