<svg width="20" height="20" viewBox="0 0 20 20" fill="none" xmlns="http://www.w3.org/2000/svg">
<path fill-rule="evenodd" clip-rule="evenodd" d="M18.4142 8.48446C18.4142 9.0367 17.9665 9.48437 17.4143 9.48437L11.4142 9.48437L11.4142 9.48437C11.138 9.48437 10.8881 9.37246 10.7071 9.19151C10.6277 9.11211 10.5616 9.01943 10.5124 8.91709C10.4495 8.78615 10.4142 8.63938 10.4142 8.48438L10.4142 2.48506C10.4142 1.93278 10.8619 1.48507 11.4142 1.48507C11.9665 1.48507 12.4142 1.93278 12.4142 2.48506L12.4142 6.17191L18.2929 0.293688C18.6834 -0.0968028 19.3166 -0.0968028 19.7071 0.293688C20.0976 0.684178 20.0976 1.31729 19.7071 1.70778L13.9299 7.48455L17.4143 7.48455C17.9665 7.48455 18.4142 7.93222 18.4142 8.48446Z" fill="#43D14F"/>
<path d="M18.7354 15.1844L18.7582 15.2025L18.782 15.2192C18.8453 15.2636 18.8979 15.3215 18.936 15.3887C18.9556 15.4232 18.9711 15.4597 18.9824 15.4975C18.9746 15.5123 18.9649 15.5299 18.9528 15.5505C18.8771 15.6788 18.7499 15.8513 18.5653 16.0624C18.1984 16.4821 17.682 16.9671 17.123 17.4341C16.5666 17.899 15.9943 18.3242 15.5288 18.6273C15.2945 18.7799 15.1031 18.8912 14.964 18.9603C14.9361 18.9742 14.9127 18.9852 14.8936 18.9937C14.2545 18.9402 10.5899 18.4507 6.03239 13.9742C1.55058 9.41271 1.06015 5.74769 1.00656 5.108C1.01508 5.08895 1.02601 5.06564 1.03984 5.03781C1.10898 4.89875 1.22029 4.70738 1.37289 4.4731C1.67607 4.00767 2.10127 3.43538 2.5662 2.87896C3.03328 2.31996 3.51835 1.80353 3.9381 1.43657C4.14918 1.25203 4.32173 1.12478 4.45005 1.0491C4.47058 1.037 4.48819 1.02727 4.50299 1.01951C4.54132 1.0309 4.57833 1.04665 4.6133 1.06654C4.68106 1.10509 4.7394 1.15821 4.7841 1.22206L4.8082 1.25649L4.83511 1.28878C4.82863 1.281 4.8485 1.30946 4.88969 1.36844C5.06455 1.61885 5.62363 2.41948 6.18173 3.33386C6.52094 3.88961 6.83836 4.45311 7.05642 4.92812C7.16585 5.1665 7.2396 5.35976 7.28044 5.50414C7.2977 5.56513 7.3054 5.60479 7.30892 5.6264C7.29769 5.65946 7.27322 5.7024 7.20722 5.77714C7.07937 5.92192 6.88206 6.09066 6.50631 6.40613L6.50573 6.40661L6.49525 6.41542C6.37565 6.51597 6.09384 6.75289 5.88493 6.94473L5.41129 7.37967L5.6105 7.99108C5.74789 8.41278 5.91527 8.82411 6.11134 9.22194C7.10299 11.2574 8.74785 12.9021 10.7835 13.8936C11.1812 14.0894 11.5924 14.2567 12.0139 14.3942L12.6255 14.5936L13.0605 14.1198C13.2573 13.9055 13.5016 13.6143 13.596 13.5016C13.9127 13.1247 14.0824 12.9266 14.2276 12.7984C14.3083 12.7272 14.3519 12.7042 14.3857 12.6942C14.4058 12.6972 14.4455 12.7042 14.5085 12.7216C14.6511 12.7609 14.8426 12.8329 15.0797 12.941C15.5521 13.1565 16.1125 13.4722 16.6662 13.8111C17.6782 14.4306 18.5714 15.0675 18.7154 15.1702C18.7298 15.1805 18.7367 15.1854 18.7354 15.1844ZM14.8274 19.0199C14.8275 19.0198 14.8303 19.0188 14.8355 19.0174C14.8299 19.0193 14.8272 19.02 14.8274 19.0199ZM0.980259 5.17437C0.980139 5.17444 0.980857 5.1718 0.982774 5.16622C0.981337 5.17151 0.980378 5.1743 0.980259 5.17437Z" stroke="#43D14F" stroke-width="2"/>
</svg>
