<svg width="48" height="48" viewBox="0 0 48 48" fill="none" xmlns="http://www.w3.org/2000/svg">
<path d="M39 48H9C4.029 48 0 43.971 0 39V9C0 4.029 4.029 0 9 0H39C43.971 0 48 4.029 48 9V39C48 43.971 43.971 48 39 48Z" fill="#43D14F" fill-opacity="0.2"/>
<path d="M9 14C9 12.8954 9.89543 12 11 12H39C39.5523 12 40 12.4477 40 13V34C40 35.6569 38.6569 37 37 37H11C9.89543 37 9 36.1046 9 35V14Z" fill="#43D14F" fill-opacity="0.8"/>
<rect x="7.5" y="10.5005" width="33" height="26.2" rx="3.5" stroke="#031F88"/>
<mask id="path-4-inside-1" fill="white">
<path fill-rule="evenodd" clip-rule="evenodd" d="M40.9859 33.543C40.8118 35.5914 39.0939 37.1997 37.0004 37.1997H11.0004C9.05423 37.1997 7.43268 35.8098 7.07422 33.9685L19.7173 21.3254C22.2167 18.826 26.2689 18.826 28.7683 21.3254L40.9859 33.543Z"/>
</mask>
<path d="M40.9859 33.543L41.9823 33.6277L42.0217 33.1646L41.693 32.8359L40.9859 33.543ZM7.07422 33.9685L6.36711 33.2614L5.99101 33.6375L6.09265 34.1596L7.07422 33.9685ZM19.7173 21.3254L19.0102 20.6183L19.7173 21.3254ZM28.7683 21.3254L29.4754 20.6183L28.7683 21.3254ZM39.9895 33.4583C39.859 34.9936 38.57 36.1997 37.0004 36.1997V38.1997C39.6178 38.1997 41.7646 36.1893 41.9823 33.6277L39.9895 33.4583ZM37.0004 36.1997H11.0004V38.1997H37.0004V36.1997ZM11.0004 36.1997C9.5419 36.1997 8.32454 35.1579 8.05579 33.7774L6.09265 34.1596C6.54082 36.4617 8.56656 38.1997 11.0004 38.1997V36.1997ZM7.78133 34.6756L20.4244 22.0325L19.0102 20.6183L6.36711 33.2614L7.78133 34.6756ZM20.4244 22.0325C22.5332 19.9237 25.9523 19.9237 28.0612 22.0325L29.4754 20.6183C26.5855 17.7284 21.9001 17.7284 19.0102 20.6183L20.4244 22.0325ZM28.0612 22.0325L40.2788 34.2501L41.693 32.8359L29.4754 20.6183L28.0612 22.0325Z" fill="#031F88" mask="url(#path-4-inside-1)"/>
<path d="M15.5 18.5H32.5L25.7 26.15H22.3L15.5 18.5Z" fill="#64D56D"/>
<mask id="path-7-inside-2" fill="white">
<path fill-rule="evenodd" clip-rule="evenodd" d="M40.2596 11.6812L26.2627 25.6781C25.013 26.9277 22.9869 26.9277 21.7372 25.6781L7.74023 11.6811C8.46542 10.6635 9.65515 10 10.9999 10H36.9999C38.3446 10 39.5344 10.6636 40.2596 11.6812Z"/>
</mask>
<path d="M40.2596 11.6812L40.9667 12.3883L41.565 11.79L41.0739 11.1009L40.2596 11.6812ZM26.2627 25.6781L25.5556 24.971L26.2627 25.6781ZM21.7372 25.6781L22.4443 24.971L21.7372 25.6781ZM7.74023 11.6811L6.92589 11.1007L6.43476 11.7898L7.03313 12.3882L7.74023 11.6811ZM39.5525 10.9741L25.5556 24.971L26.9698 26.3852L40.9667 12.3883L39.5525 10.9741ZM25.5556 24.971C24.6964 25.8301 23.3035 25.8301 22.4443 24.971L21.0301 26.3852C22.6703 28.0254 25.3296 28.0254 26.9698 26.3852L25.5556 24.971ZM22.4443 24.971L8.44734 10.974L7.03313 12.3882L21.0301 26.3852L22.4443 24.971ZM8.55458 12.2615C9.10018 11.4959 9.99211 11 10.9999 11V9C9.31818 9 7.83066 9.83118 6.92589 11.1007L8.55458 12.2615ZM10.9999 11H36.9999V9H10.9999V11ZM36.9999 11C38.0076 11 38.8996 11.496 39.4452 12.2616L41.0739 11.1009C40.1692 9.83125 38.6816 9 36.9999 9V11Z" fill="#031F88" mask="url(#path-7-inside-2)"/>
</svg>
