<svg width="48" height="48" viewBox="0 0 48 48" fill="none" xmlns="http://www.w3.org/2000/svg">
<path d="M39 48H9C4.029 48 0 43.971 0 39V9C0 4.029 4.029 0 9 0H39C43.971 0 48 4.029 48 9V39C48 43.971 43.971 48 39 48Z" fill="#43D14F" fill-opacity="0.2"/>
<path d="M9 16C9 12.6863 11.6863 10 15 10H37.0454C38.7023 10 40.0454 11.3431 40.0454 13V28.0403C40.0454 31.354 37.3591 34.0403 34.0454 34.0403H28.085C27.7662 34.0403 27.4665 34.1923 27.2782 34.4495L24.693 37.9806C24.3118 38.5012 23.5448 38.53 23.1257 38.0394L19.9572 34.3298C19.7979 34.1433 19.5756 34.0219 19.3326 33.9886L10.7285 32.8096C9.7381 32.6739 9 31.8278 9 30.8281V16Z" fill="#43D14F" fill-opacity="0.8"/>
<rect x="12" y="18" width="18.641" height="1" rx="0.5" fill="#031F88"/>
<rect x="12" y="23" width="13.5571" height="1" rx="0.5" fill="#031F88"/>
<path d="M7.5 15C7.5 11.4102 10.4101 8.5 14 8.5H33.8927C37.4826 8.5 40.3927 11.4101 40.3927 15V27.04C40.3927 30.6298 37.4826 33.54 33.8927 33.54H28.085C27.6067 33.54 27.1572 33.768 26.8747 34.1539L24.2894 37.685C24.0989 37.9453 23.7153 37.9597 23.5058 37.7144L20.3894 34.0658C20.1044 33.7321 19.6876 33.54 19.2488 33.54H14C10.4101 33.54 7.5 30.6299 7.5 27.04V15Z" stroke="#031F88"/>
</svg>
