<svg width="48" height="48" viewBox="0 0 48 48" fill="none" xmlns="http://www.w3.org/2000/svg">
<path d="M39 48H9C4.029 48 0 43.971 0 39V9C0 4.029 4.029 0 9 0H39C43.971 0 48 4.029 48 9V39C48 43.971 43.971 48 39 48Z" fill="#43D14F" fill-opacity="0.2"/>
<path d="M13 40C12.4477 40 12 39.5523 12 39L12 11C12 9.89543 12.8954 9 14 9L35.5 9C36.0523 9 36.5 9.44772 36.5 10L36.5 37C36.5 38.6569 35.1569 40 33.5 40L13 40Z" fill="#43D14F" fill-opacity="0.8"/>
<rect x="10.5" y="40.5" width="33" height="26" rx="3.5" transform="rotate(-90 10.5 40.5)" stroke="#031F88"/>
<path fill-rule="evenodd" clip-rule="evenodd" d="M31.6479 25.2035C31.8432 25.0083 31.8432 24.6917 31.6479 24.4964C31.4526 24.3012 31.136 24.3012 30.9408 24.4964L21.1825 34.2547L16.2325 29.3046C16.0372 29.1094 15.7206 29.1094 15.5254 29.3046C15.3301 29.4999 15.3301 29.8165 15.5254 30.0117L20.8287 35.315C20.8966 35.383 20.9792 35.4273 21.0664 35.4479C21.2297 35.4869 21.4088 35.4426 21.5363 35.3152L31.6479 25.2035Z" fill="#031F88"/>
<rect x="15" y="14" width="17" height="1" rx="0.5" fill="#031F88"/>
<rect x="18" y="19" width="11" height="1" rx="0.5" fill="#031F88"/>
</svg>
