<svg width="191" height="180" viewBox="0 0 191 180" fill="none" xmlns="http://www.w3.org/2000/svg">
<path d="M21.6572 42.5586H167.56" stroke="#C3C9ED" stroke-width="0.66" stroke-miterlimit="10"/>
<path d="M165.656 28.4258H23.5732C22.515 28.4258 21.6572 29.2834 21.6572 30.3412V121.944C21.6572 123.001 22.515 123.859 23.5732 123.859H165.656C166.714 123.859 167.572 123.001 167.572 121.944V30.3412C167.572 29.2834 166.714 28.4258 165.656 28.4258Z" stroke="#C3C9ED" stroke-width="0.66" stroke-miterlimit="10"/>
<path d="M27.8889 36.5891C36.298 33.269 40.4228 23.7624 37.1019 15.3554C33.781 6.9484 24.2719 2.82465 15.8628 6.14473C7.45366 9.4648 3.32886 18.9715 6.64978 27.3784C9.9707 35.7854 19.4798 39.9091 27.8889 36.5891Z" fill="#F8632D"/>
<rect x="13.0654" y="15.8047" width="17.1842" height="13.4474" rx="1.25" stroke="white" stroke-width="1.5"/>
<rect x="16.6748" y="12.25" width="1.5" height="3.73684" rx="0.75" fill="white"/>
<rect x="25.2002" y="12.25" width="1.5" height="3.73684" rx="0.75" fill="white"/>
<rect x="12.3154" y="18.4766" width="17.75" height="1.5" fill="white"/>
<rect x="16.0518" y="21" width="1.86842" height="1.86842" rx="0.934211" fill="white"/>
<rect x="16.0518" y="24.7383" width="1.86842" height="1.86842" rx="0.934211" fill="white"/>
<rect x="20.7227" y="21" width="1.86842" height="1.86842" rx="0.934211" fill="white"/>
<rect x="20.7227" y="24.7383" width="1.86842" height="1.86842" rx="0.934211" fill="white"/>
<rect x="25.3945" y="21" width="1.86842" height="1.86842" rx="0.934211" fill="white"/>
<rect x="25.3945" y="24.7383" width="1.86842" height="1.86842" rx="0.934211" fill="white"/>
<path d="M179.128 15.8398H134.928C133.957 15.8398 133.17 16.6269 133.17 17.5977V61.35C133.17 62.3209 133.957 63.1079 134.928 63.1079H179.128C180.099 63.1079 180.887 62.3209 180.887 61.35V17.5977C180.887 16.6269 180.099 15.8398 179.128 15.8398Z" fill="white"/>
<path d="M179.128 15.8398H134.928C133.957 15.8398 133.17 16.6269 133.17 17.5977V61.35C133.17 62.3209 133.957 63.1079 134.928 63.1079H179.128C180.099 63.1079 180.887 62.3209 180.887 61.35V17.5977C180.887 16.6269 180.099 15.8398 179.128 15.8398Z" stroke="#C3C9ED" stroke-width="0.66" stroke-miterlimit="10"/>
<path d="M188.756 5H145.244C144.005 5 143 6.01416 143 7.2652V50.7348C143 51.9858 144.005 53 145.244 53H188.756C189.995 53 191 51.9858 191 50.7348V7.2652C191 6.01416 189.995 5 188.756 5Z" fill="#3962FA"/>
<circle cx="167" cy="29" r="14" stroke="white" stroke-width="2"/>
<path d="M170.053 25.8153C170.053 25.8153 170.548 22.8084 167.046 22.8084C164.038 22.8084 164.038 25.2082 164.038 25.8153C164.042 29.7104 170.052 27.8199 170.052 31.8291C170.052 33.8336 169.05 34.8359 167.045 34.8359C163.421 34.8359 164.04 31.8291 164.04 31.8291" stroke="white" stroke-width="2" stroke-linecap="round" stroke-linejoin="round"/>
<rect x="166.779" y="20" width="1" height="3.00918" rx="0.5" fill="#C4C4C4" stroke="white"/>
<rect x="166.779" y="34.7383" width="1" height="3.00918" rx="0.5" fill="#C4C4C4" stroke="white"/>
<path d="M41.1933 66H1.80672C0.808897 66 0 66.8009 0 67.7888V97.2112C0 98.1991 0.808897 99 1.80672 99H41.1933C42.1911 99 43 98.1991 43 97.2112V67.7888C43 66.8009 42.1911 66 41.1933 66Z" fill="#3962FA"/>
<rect x="10" y="73.5" width="23" height="18" rx="3" stroke="white" stroke-width="2"/>
<mask id="path-23-inside-1" fill="white">
<path fill-rule="evenodd" clip-rule="evenodd" d="M33.7939 89.647C33.2988 91.2938 31.7709 92.4936 29.9628 92.4936H12.9628C11.2532 92.4936 9.7942 91.4212 9.22168 89.9124L17.115 82.019C19.6144 79.5197 23.6666 79.5197 26.166 82.019L33.7939 89.647Z"/>
</mask>
<path d="M33.7939 89.647L35.7092 90.2229L36.0534 89.0781L35.2082 88.2328L33.7939 89.647ZM9.22168 89.9124L7.80747 88.4982L6.89293 89.4127L7.35178 90.6219L9.22168 89.9124ZM17.115 82.019L18.5292 83.4333L17.115 82.019ZM26.166 82.019L27.5802 80.6048L27.5802 80.6048L26.166 82.019ZM31.8786 89.0712C31.6306 89.8961 30.8639 90.4936 29.9628 90.4936V94.4936C32.6779 94.4936 34.967 92.6916 35.7092 90.2229L31.8786 89.0712ZM29.9628 90.4936H12.9628V94.4936H29.9628V90.4936ZM12.9628 90.4936C12.1111 90.4936 11.3791 89.9604 11.0916 89.2028L7.35178 90.6219C8.20933 92.8819 10.3953 94.4936 12.9628 94.4936V90.4936ZM10.6359 91.3266L18.5292 83.4333L15.7008 80.6048L7.80747 88.4982L10.6359 91.3266ZM18.5292 83.4333C20.2475 81.715 23.0335 81.715 24.7518 83.4333L27.5802 80.6048C24.2998 77.3244 18.9812 77.3244 15.7008 80.6048L18.5292 83.4333ZM24.7518 83.4333L32.3797 91.0612L35.2082 88.2328L27.5802 80.6048L24.7518 83.4333Z" fill="white" mask="url(#path-23-inside-1)"/>
<path d="M15.25 78.75H27.75L22.75 84.375H20.25L15.25 78.75Z" fill="#3962FA"/>
<mask id="path-26-inside-2" fill="white">
<path fill-rule="evenodd" clip-rule="evenodd" d="M33.4502 74.4756L23.7622 84.1636C22.5126 85.4132 20.4864 85.4132 19.2367 84.1636L9.54883 74.4756C10.2438 73.2935 11.529 72.5 12.9995 72.5H29.9995C31.47 72.5 32.7551 73.2935 33.4502 74.4756Z"/>
</mask>
<path d="M33.4502 74.4756L34.8644 75.8899L35.9584 74.7958L35.1743 73.462L33.4502 74.4756ZM23.7622 84.1636L22.348 82.7493L23.7622 84.1636ZM19.2367 84.1636L17.8225 85.5778L19.2367 84.1636ZM9.54883 74.4756L7.82473 73.462L7.04055 74.7958L8.13461 75.8899L9.54883 74.4756ZM32.0359 73.0614L22.348 82.7493L25.1764 85.5778L34.8644 75.8899L32.0359 73.0614ZM22.348 82.7493C21.8794 83.218 21.1196 83.218 20.651 82.7493L17.8225 85.5778C19.8533 87.6085 23.1457 87.6085 25.1764 85.5778L22.348 82.7493ZM20.651 82.7493L10.963 73.0614L8.13461 75.8899L17.8225 85.5778L20.651 82.7493ZM11.2729 75.4893C11.6235 74.893 12.2667 74.5 12.9995 74.5V70.5C10.7913 70.5 8.86418 71.694 7.82473 73.462L11.2729 75.4893ZM12.9995 74.5H29.9995V70.5H12.9995V74.5ZM29.9995 74.5C30.7323 74.5 31.3755 74.893 31.7261 75.4893L35.1743 73.462C34.1348 71.694 32.2077 70.5 29.9995 70.5V74.5Z" fill="white" mask="url(#path-26-inside-2)"/>
<path d="M94.5601 95.9375C94.5601 95.9375 71.4354 95.9375 54.4102 112.667V159.584C54.4102 159.584 135.886 160.796 135.886 159.584C135.886 158.372 135.886 110.631 135.886 110.631C124.13 101.272 109.587 96.1018 94.5601 95.9375Z" fill="#3962FA"/>
<path d="M94.5594 95.9373C89.0075 95.9781 83.5007 96.9366 78.2617 98.7741C78.2617 98.7741 80.3959 106.994 94.329 106.994C110.942 106.994 110.942 97.9376 110.942 97.9376C110.942 97.9376 100.55 95.0038 94.5594 95.9373Z" fill="#E3AF9A"/>
<path d="M60.1583 156.953H36.9366C34.0068 156.953 31.1969 158.117 29.1252 160.188C27.0535 162.259 25.8896 165.068 25.8896 167.997C25.8896 169.448 26.1754 170.884 26.7306 172.224C27.2857 173.564 28.0994 174.781 29.1252 175.807C30.151 176.832 31.3689 177.646 32.7091 178.201C34.0494 178.756 35.4859 179.041 36.9366 179.041H64.257L60.1583 156.953Z" fill="#E3AF9A"/>
<path d="M28.4492 160.94L42.8552 137.336L64.2579 140.221L61.0809 167.995L28.4492 160.94Z" fill="#E3AF9A"/>
<path d="M54.4104 156.953H36.9365" stroke="#1C2337" stroke-width="0.66" stroke-linecap="round" stroke-linejoin="round"/>
<path d="M57.8541 109.57C57.8541 109.57 44.2242 119.705 30.9824 142.048C30.9824 142.048 34.8992 154.971 59.576 156.947L57.8541 109.57Z" fill="#3962FA"/>
<path d="M132.867 156.953H156.101C157.551 156.953 158.987 157.239 160.327 157.794C161.666 158.349 162.883 159.163 163.908 160.189C164.933 161.214 165.746 162.432 166.299 163.772C166.853 165.112 167.137 166.548 167.136 167.997C167.137 169.447 166.853 170.883 166.299 172.223C165.746 173.563 164.933 174.78 163.908 175.806C162.883 176.832 161.666 177.645 160.327 178.201C158.987 178.756 157.551 179.041 156.101 179.041H128.769L132.867 156.953Z" fill="#E3AF9A"/>
<path d="M164.347 160.647L146.182 132.691L128.769 140.22L131.946 167.994L164.347 160.647Z" fill="#E3AF9A"/>
<path d="M134.188 156.953H156.1" stroke="#1C2337" stroke-width="0.66" stroke-linecap="round" stroke-linejoin="round"/>
<path d="M135.909 110.629C135.909 110.629 148.472 119.709 161.726 142.052C161.726 142.052 158.864 154.975 134.188 156.951L135.909 110.629Z" fill="#3962FA"/>
<path d="M132.176 124.898H58.1087C56.066 124.898 54.4102 126.554 54.4102 128.596V175.343C54.4102 177.385 56.066 179.04 58.1087 179.04H132.176C134.218 179.04 135.874 177.385 135.874 175.343V128.596C135.874 126.554 134.218 124.898 132.176 124.898Z" fill="#C3C9ED"/>
<path d="M100.137 151.971C100.142 152.96 99.853 153.928 99.3065 154.753C98.7599 155.578 97.9806 156.222 97.0674 156.603C96.1542 156.985 95.1483 157.087 94.1773 156.896C93.2062 156.705 92.3138 156.23 91.6131 155.531C90.9125 154.832 90.4352 153.941 90.2418 152.971C90.0484 152 90.1477 150.994 90.527 150.081C90.9062 149.167 91.5484 148.386 92.3721 147.838C93.1958 147.289 94.1639 146.998 95.1536 147C96.4733 147 97.7391 147.523 98.6734 148.455C99.6078 149.387 100.134 150.651 100.137 151.971Z" fill="white"/>
<path d="M81.5975 63.8378C81.6375 65.229 81.2643 66.6008 80.5251 67.7802C79.7859 68.9595 78.7138 69.8935 77.4441 70.4642C76.1744 71.0349 74.764 71.2167 73.3911 70.9868C72.0181 70.7568 70.744 70.1254 69.7297 69.1722C68.7154 68.2189 68.0062 66.9866 67.6918 65.6308C67.3774 64.275 67.4718 62.8565 67.9631 61.5543C68.4544 60.2521 69.3205 59.1246 70.4522 58.3141C71.5839 57.5036 72.9304 57.0465 74.3218 57.0004C75.2495 56.968 76.1744 57.1196 77.0433 57.4464C77.9121 57.7731 78.7076 58.2686 79.384 58.9042C80.0604 59.5398 80.6042 60.303 80.9841 61.1498C81.364 61.9965 81.5725 62.9101 81.5975 63.8378Z" fill="#E3AF9A"/>
<path d="M70.5625 63.0452C70.5625 63.0452 73.3637 61.6753 76.0314 66.5366" stroke="black" stroke-width="0.47" stroke-linecap="round" stroke-linejoin="round"/>
<path d="M81.0761 33.043C81.0761 33.043 73.1819 34.0128 72.1269 42.0747C71.2503 48.7196 72.5252 55.4704 75.7648 61.3383L76.0316 43.2991L81.0761 33.043Z" fill="#1D0300"/>
<path d="M114.351 71.0675C118.242 71.0675 121.396 67.914 121.396 64.024C121.396 60.134 118.242 56.9805 114.351 56.9805C110.46 56.9805 107.306 60.134 107.306 64.024C107.306 67.914 110.46 71.0675 114.351 71.0675Z" fill="#E3AF9A"/>
<path d="M118.315 62.9403C118.315 62.9403 115.477 61.6552 112.955 66.5772" stroke="black" stroke-width="0.47" stroke-linecap="round" stroke-linejoin="round"/>
<path d="M103.485 79.1098C101.185 80.7118 98.6189 81.8939 95.9063 82.6012C93.4215 82.9165 90.9016 82.4143 88.7275 81.1707L84.4955 78.7461L83.8286 99.7191L83.2344 100.107C86.2096 102.564 89.9416 103.921 93.8007 103.947C97.6599 103.974 101.41 102.669 104.419 100.253L104.261 99.5251L103.485 79.1098Z" fill="#E3AF9A"/>
<path d="M83.2344 78.6602C83.2344 78.6602 86.1689 90.2377 95.0089 90.1044C102.479 89.9832 104.467 78.6602 104.467 78.6602H83.2344Z" fill="#1D0300"/>
<path d="M113.464 51.7869C113.499 58.4145 112.775 65.0242 111.306 71.487C110.227 76.2635 107.11 79.6216 102.708 82.3251L101.908 82.8221C99.5838 84.2289 96.9272 84.9928 94.2105 85.0354C91.4938 85.078 88.8145 84.3978 86.4472 83.0646C81.5967 80.3248 78.2741 76.7121 77.207 71.5961C75.9822 65.1229 75.2565 58.5652 75.0364 51.9809C75.0364 51.9809 72.3202 30.4502 93.1166 30.7412C113.913 31.0322 113.464 51.7869 113.464 51.7869Z" fill="#E3AF9A"/>
<path d="M102.139 51.7614C102.139 51.7614 97.8704 50.9249 97.6643 53.2283C97.6643 53.2283 97.5673 54.78 101.302 55.4104C105.037 56.0408 106.516 55.9075 106.965 54.4769C107.414 53.0464 104.152 51.9432 102.139 51.7614Z" fill="#1D0300"/>
<path d="M83.7315 51.8549C83.7315 51.8549 79.3903 52.0489 79.7299 54.2796C79.7299 54.2796 79.9966 55.8192 83.78 55.4919C87.5634 55.1646 88.97 54.7524 89.0671 53.2612C89.1641 51.7701 85.7445 51.564 83.7315 51.8549Z" fill="#1D0300"/>
<path d="M85.2945 63.346C86.2187 63.346 86.9679 62.597 86.9679 61.673C86.9679 60.749 86.2187 60 85.2945 60C84.3703 60 83.6211 60.749 83.6211 61.673C83.6211 62.597 84.3703 63.346 85.2945 63.346Z" fill="#1D0300"/>
<path d="M101.763 63.346C102.687 63.346 103.437 62.597 103.437 61.673C103.437 60.749 102.687 60 101.763 60C100.839 60 100.09 60.749 100.09 61.673C100.09 62.597 100.839 63.346 101.763 63.346Z" fill="#1D0300"/>
<path d="M93.8569 67.9783H92.0137V63.7109" stroke="black" stroke-width="0.47" stroke-linecap="round" stroke-linejoin="round"/>
<path d="M87.9756 71.543C87.9756 71.543 89.6247 73.9676 97.434 72.828" stroke="black" stroke-width="0.47" stroke-linecap="round" stroke-linejoin="round"/>
<path d="M75.7649 62.141C75.7649 62.141 80.3001 37.6038 77.3534 34.2578C77.3534 34.2578 66.8885 43.7138 75.7649 62.141Z" fill="#1D0300"/>
<path d="M112.688 61.1999C112.688 61.1999 105.315 39.9602 110.178 36.4688C110.178 36.4688 120.279 41.5241 112.688 61.1999Z" fill="#1D0300"/>
<path d="M104.928 32.9681C104.928 32.9681 115.841 29.9615 116.957 41.3573C117.769 49.4555 112.592 61.3847 112.592 61.3847L112.313 43.3455L104.928 32.9681Z" fill="#1D0300"/>
<path d="M102.333 33.6719C102.333 33.6719 102.103 48.0499 112.956 48.2196C112.956 48.2196 115.017 35.3812 102.333 33.6719Z" fill="#1D0300"/>
<path d="M106.843 39.3933C101.4 39.1358 95.9717 40.1572 90.9943 42.3756C82.8213 46.0125 69.4824 47.9764 67.5301 38.3628C65.4929 28.337 76.4671 19.6205 96.7421 26.2397C112.773 31.4648 108.007 37.3323 108.007 37.3323L106.843 39.3933Z" fill="#1D0300"/>
<path d="M104.928 34.0186C104.928 34.0186 113.161 28.5389 116.108 38.783L109.863 40.9409L104.928 34.0186Z" fill="#1D0300"/>
<path d="M108.469 34.9235C108.469 34.9235 108.117 25.8675 95.2758 20.4728C94.7426 20.2538 94.1634 20.1702 93.59 20.2294C93.0166 20.2887 92.4668 20.4889 91.9896 20.8122C91.611 21.0709 91.2875 21.402 91.0378 21.7865C90.7881 22.171 90.6172 22.6012 90.5349 23.0522C90.4525 23.5031 90.4605 23.9659 90.5582 24.4138C90.656 24.8617 90.8416 25.2858 91.1044 25.6614L93.5296 29.0438L108.469 34.9235Z" fill="#1D0300"/>
<path d="M9.08203 179.039H183.154" stroke="#1C2337" stroke-width="0.66" stroke-linecap="round" stroke-linejoin="round"/>
</svg>
