<svg width="108" height="102" viewBox="0 0 108 102" fill="none" xmlns="http://www.w3.org/2000/svg">
<g clip-path="url(#clip0)">
<path d="M53.5111 0.863281H5.70215V101.049H53.5111V0.863281Z" fill="#EFF2F9"/>
<path fill-rule="evenodd" clip-rule="evenodd" d="M77.0321 101.047H53.5122V21.5506L77.0321 10.4102V101.047Z" fill="#86969E"/>
<path fill-rule="evenodd" clip-rule="evenodd" d="M49.4873 97.0588V59.9844L23.7578 65.862V97.0588H49.4873Z" fill="#86969E"/>
<path d="M26.9801 96.1964H52.7086V59.122L26.9801 64.9996V96.1964ZM52.7086 51.817V5.60883L12.9459 19.4316V60.8999L52.7086 51.817ZM61.6937 51.0697V52.9893L86.2249 47.3841V45.4645L61.6937 51.0697ZM61.6937 23.613V49.764L86.2249 44.1597V29.9891L61.6937 23.613ZM60.4101 50.0591V23.2789L56.7373 22.3246V50.8963L60.4101 50.0591ZM60.4101 53.2807V51.363L56.7373 52.2011V54.1179L60.4101 53.2807ZM34.1159 31.6699H38.6167V36.1283H34.1113L34.1159 31.6699ZM27.047 38.628H31.5395V43.0837H27.047V38.628ZM34.1159 38.628H38.6167V43.0837H34.1113L34.1159 38.628ZM27.047 31.6653H31.5395V36.1237H27.047V31.6653ZM75.7563 62.6778H80.2489V67.1335H75.7563V62.6778ZM68.6829 69.6451H73.1846V74.0944H68.6829V69.6451ZM75.7563 69.6451H80.2489V74.0944H75.7563V69.6451ZM68.6829 62.6824H73.1846V67.138H68.6829V62.6824ZM23.2622 100.19V65.8504L19.0988 66.8002V62.7187L23.2622 61.7689L52.7086 55.0405V53.1191L12.9459 62.1993V100.181H8.91909V63.1228L5.69545 63.8601V100.181H4.41187V64.1534L0.286056 65.0977L0 63.8583L4.40912 62.8513V0H5.6927V62.5625L8.91634 61.8252V16.6167L56.7327 0V18.2194L60.4056 19.1737V0H61.6891V19.5061L90.2443 26.9282V43.2426L107.717 39.2473L107.998 40.4868L90.2462 44.5447V46.4661L99.0809 44.4503V100.185H67.0472V96.1964H95.0587V49.4498L61.691 57.0708V100.185H60.4074V57.3641L56.7327 58.204V100.185L23.2622 100.19Z" fill="#3962FA"/>
</g>
<defs>
<clipPath id="clip0">
<rect width="108" height="101.051" fill="white"/>
</clipPath>
</defs>
</svg>
