<svg width="48" height="48" viewBox="0 0 48 48" fill="none" xmlns="http://www.w3.org/2000/svg">
<path d="M39 48H9C4.029 48 0 43.971 0 39V9C0 4.029 4.029 0 9 0H39C43.971 0 48 4.029 48 9V39C48 43.971 43.971 48 39 48Z" fill="#43D14F" fill-opacity="0.2"/>
<path d="M26.6817 26.9478C26.2545 26.5206 26.2545 25.828 26.6817 25.4009C27.1088 24.9737 27.8014 24.9737 28.2286 25.4009L39.6194 36.7917C40.4049 37.5771 40.4049 38.8506 39.6194 39.636C39.5505 39.7049 39.4388 39.7049 39.3699 39.636L26.6817 26.9478Z" fill="#43D14F"/>
<rect x="25.3341" y="27.4556" width="3" height="18.2142" rx="1.5" transform="rotate(-45 25.3341 27.4556)" stroke="#031F88"/>
<circle cx="20.5" cy="19.5" r="6.5" fill="#43D14F"/>
<path fill-rule="evenodd" clip-rule="evenodd" d="M20.5 31C26.8513 31 32 25.8513 32 19.5C32 13.1487 26.8513 8 20.5 8C14.1487 8 9 13.1487 9 19.5C9 25.8513 14.1487 31 20.5 31ZM19.5 26C23.0899 26 26 23.0899 26 19.5C26 15.9101 23.0899 13 19.5 13C15.9101 13 13 15.9101 13 19.5C13 23.0899 15.9101 26 19.5 26Z" fill="#43D14F"/>
<mask id="path-6-inside-1" fill="white">
<path fill-rule="evenodd" clip-rule="evenodd" d="M19.5 32C26.4036 32 32 26.4036 32 19.5C32 12.5964 26.4036 7 19.5 7C12.5964 7 7 12.5964 7 19.5C7 26.4036 12.5964 32 19.5 32ZM19.5 26C23.0899 26 26 23.0899 26 19.5C26 15.9101 23.0899 13 19.5 13C15.9101 13 13 15.9101 13 19.5C13 23.0899 15.9101 26 19.5 26Z"/>
</mask>
<path d="M31 19.5C31 25.8513 25.8513 31 19.5 31V33C26.9558 33 33 26.9558 33 19.5H31ZM19.5 8C25.8513 8 31 13.1487 31 19.5H33C33 12.0442 26.9558 6 19.5 6V8ZM8 19.5C8 13.1487 13.1487 8 19.5 8V6C12.0442 6 6 12.0442 6 19.5H8ZM19.5 31C13.1487 31 8 25.8513 8 19.5H6C6 26.9558 12.0442 33 19.5 33V31ZM25 19.5C25 22.5376 22.5376 25 19.5 25V27C23.6421 27 27 23.6421 27 19.5H25ZM19.5 14C22.5376 14 25 16.4624 25 19.5H27C27 15.3579 23.6421 12 19.5 12V14ZM14 19.5C14 16.4624 16.4624 14 19.5 14V12C15.3579 12 12 15.3579 12 19.5H14ZM19.5 25C16.4624 25 14 22.5376 14 19.5H12C12 23.6421 15.3579 27 19.5 27V25Z" fill="#031F88" mask="url(#path-6-inside-1)"/>
<path d="M23.9866 19.8479C24.0788 18.658 23.6945 17.4802 22.9183 16.5736C22.1421 15.667 21.0376 15.1059 19.8476 15.0137" stroke="#031F88" stroke-linecap="round"/>
</svg>
