<svg width="48" height="48" viewBox="0 0 48 48" fill="none" xmlns="http://www.w3.org/2000/svg">
<path d="M39 48H9C4.029 48 0 43.971 0 39V9C0 4.029 4.029 0 9 0H39C43.971 0 48 4.029 48 9V39C48 43.971 43.971 48 39 48Z" fill="#43D14F" fill-opacity="0.2"/>
<path fill-rule="evenodd" clip-rule="evenodd" d="M13 14C12.4477 14 12 14.4477 12 15V32H15.6716C16.202 32 16.7107 32.2107 17.0858 32.5858L17.4142 32.9142C17.7893 33.2893 18.298 33.5 18.8284 33.5H28.8333C29.2661 33.5 29.6871 33.3596 30.0333 33.1L30.9667 32.4C31.3129 32.1404 31.7339 32 32.1667 32H37.3333V14H34C34.5523 14 35 14.4477 35 15V29C35 29.5523 34.5523 30 34 30H14C13.4477 30 13 29.5523 13 29V15C13 14.4477 13.4477 14 14 14H13Z" fill="#43D14F"/>
<path d="M13 14.5C13 14.2239 13.2239 14 13.5 14H35V29C35 29.5523 34.5523 30 34 30H14C13.4477 30 13 29.5523 13 29V14.5Z" fill="#43D14F"/>
<path d="M10.5 14C10.5 13.1716 11.1716 12.5 12 12.5H36C36.8284 12.5 37.5 13.1716 37.5 14V32H31.7071C31.4419 32 31.1875 32.1054 31 32.2929L29.4393 33.8536C29.3456 33.9473 29.2184 34 29.0858 34H19.3284C18.9306 34 18.5491 33.842 18.2678 33.5607L17 32.2929L16.6464 32.6464L17 32.2929C16.8125 32.1054 16.5581 32 16.2929 32H10.5V14Z" stroke="#031F88"/>
<path d="M9.53921 33.6291C9.5197 33.5648 9.56776 33.5 9.63489 33.5H15.7324C15.8996 33.5 16.0557 33.5836 16.1484 33.7226L16.8516 34.7774C16.9443 34.9164 17.1004 35 17.2676 35H30.2929C30.4255 35 30.5527 34.9473 30.6464 34.8536L31.8536 33.6464C31.9473 33.5527 32.0745 33.5 32.2071 33.5H40.1407L39.5047 34.9776C39.031 36.0784 37.9475 36.7916 36.7491 36.7916H12.724C11.403 36.7916 10.2375 35.9276 9.85353 34.6637L9.53921 33.6291Z" fill="#43D14F"/>
<path d="M7.82288 32.6718C7.73713 32.354 7.97648 32.0415 8.30561 32.0415H16.4392C16.5902 32.0415 16.7331 32.1097 16.828 32.2271L17.9611 33.6286C18.1509 33.8634 18.4368 33.9999 18.7387 33.9999H28.9179C29.1831 33.9999 29.4375 33.8945 29.625 33.707L29.2781 33.3601L29.625 33.707L31.144 32.188C31.2378 32.0942 31.3649 32.0415 31.4976 32.0415H39.6944C40.0235 32.0415 40.2629 32.354 40.1771 32.6718L39.6992 34.4428C39.4049 35.5337 38.4154 36.2915 37.2856 36.2915H10.7144C9.58457 36.2915 8.59513 35.5337 8.30078 34.4428L7.82288 32.6718Z" stroke="#031F88"/>
<rect x="20" y="18" width="8" height="1" rx="0.5" fill="#031F88"/>
<rect x="20" y="21" width="8" height="1" rx="0.5" fill="#031F88"/>
<rect x="20" y="24" width="8" height="1" rx="0.5" fill="#031F88"/>
<rect x="20" y="27" width="8" height="1" rx="0.5" fill="#031F88"/>
</svg>
