<svg width="41" height="41" viewBox="0 0 41 41" fill="none" xmlns="http://www.w3.org/2000/svg">
<path d="M30.1942 27.7361C26.5384 34.0418 18.4409 36.202 12.1088 32.5614C10.5554 31.6683 9.25291 30.5094 8.22575 29.1753C5.41692 25.5301 4.66186 20.579 6.46094 16.1831C6.68692 15.6293 6.95434 15.0842 7.26296 14.5519C10.9191 8.24563 19.0161 6.08511 25.3481 9.72571C31.6802 13.3663 33.8504 21.4298 30.1942 27.7361Z" fill="#43D14F"/>
<path d="M25.3485 9.72575C24.7422 9.3772 24.1198 9.08236 23.4867 8.83859C28.4783 12.8453 29.9368 19.9845 26.6306 25.6871C23.3249 31.3889 16.3876 33.7007 10.4078 31.3998C10.936 31.8236 11.5031 32.213 12.1091 32.5614C18.4412 36.202 26.5387 34.0418 30.1945 27.7361C33.8507 21.4299 31.6805 13.3663 25.3485 9.72575Z" fill="#24BE31"/>
<path d="M32.1154 27.715L23.0649 28.2681C22.42 28.3077 21.7843 28.1049 21.2829 27.6994C20.7802 27.2934 20.144 27.0882 19.4976 27.1277L18.2862 27.2021L17.5552 17.1781L21.7618 12.691C22.0892 12.3418 22.3724 11.9598 22.6084 11.5527C23.2189 10.4997 23.5124 9.28241 23.4365 8.04905C23.4179 7.74584 23.4921 7.45746 23.6341 7.21255C23.8771 6.79353 24.3193 6.50002 24.8406 6.46814C25.5434 6.42492 26.181 6.8747 26.3735 7.54891L26.7173 8.74958C27.1097 10.1242 27.1893 11.569 26.9487 12.9778L26.7144 14.3548L32.7306 13.9933C33.692 13.9347 34.5168 14.6762 34.5496 15.6409C34.5817 16.5707 33.8382 17.3473 32.9053 17.4043C32.894 17.4049 32.8886 17.4133 32.8874 17.4213C32.8872 17.4305 32.8925 17.4402 32.9039 17.4417C33.1143 17.4744 33.3129 17.546 33.4915 17.6487C33.7765 17.8126 34.0117 18.0568 34.1632 18.3514C34.2675 18.5544 34.3322 18.7817 34.3473 19.0236C34.3759 19.4911 34.213 19.9263 33.9259 20.2526C33.4735 20.7672 32.8763 20.8227 32.7602 20.8312C32.7403 20.8328 32.7253 20.85 32.7266 20.8704C32.7262 20.871 32.7266 20.8717 32.7272 20.8721C32.7288 20.8905 32.7456 20.9053 32.7643 20.9043C32.8995 20.9438 33.0281 20.9996 33.1491 21.0692C33.4439 21.2387 33.6889 21.4909 33.8465 21.7924C33.9529 21.9967 34.0198 22.2245 34.0344 22.4647C34.0925 23.4058 33.3733 24.2157 32.4277 24.2733C32.4043 24.275 32.3809 24.2767 32.3578 24.2778C32.3435 24.2799 32.3335 24.2907 32.3334 24.3023C32.3333 24.3049 32.3342 24.3084 32.3357 24.3108C32.3398 24.3212 32.3516 24.3285 32.3658 24.3266C32.8744 24.4267 33.299 24.7583 33.5321 25.2125C33.6401 25.4206 33.7064 25.6552 33.7216 25.9054C33.7793 26.8472 33.0604 27.6571 32.1154 27.715Z" fill="#FDD7BD"/>
<path d="M17.5565 28.6044L13.7384 28.8379L8.22608 29.175C5.41736 25.5296 4.66218 20.5788 6.46138 16.1826L12.8585 15.7915L16.7526 15.5533C17.2011 15.5256 17.5871 15.8661 17.6144 16.3131L18.3199 27.7454C18.3473 28.1927 18.0057 28.5766 17.5565 28.6044Z" fill="#87DBFF"/>
<path d="M17.5566 28.6048L13.7386 28.8383L12.8587 15.7919L16.7528 15.5538C17.2012 15.526 17.5873 15.8665 17.6146 16.3136L18.3201 27.7458C18.3475 28.1932 18.0059 28.577 17.5566 28.6048Z" fill="#6FC7FF"/>
<path d="M34.1629 18.3503L31.3112 18.2586C30.9067 18.2452 30.5733 17.9391 30.5279 17.5394L32.8871 17.4202C32.8867 17.4296 32.8922 17.4391 32.9036 17.4406C33.114 17.4733 33.3125 17.5449 33.4912 17.6476C33.7764 17.8116 34.0112 18.0559 34.1629 18.3503Z" fill="#FAC5AA"/>
<path d="M33.8463 21.7922L31.0572 21.7017C30.6525 21.6887 30.319 21.3829 30.2736 20.9831L32.6327 20.8639L32.727 20.8718C32.7285 20.8903 32.7454 20.905 32.7641 20.9041C32.8995 20.9436 33.0281 20.9995 33.1489 21.0689C33.4439 21.2385 33.689 21.4906 33.8463 21.7922Z" fill="#FAC5AA"/>
<path d="M33.5312 25.212L31.0743 25.1328C30.6707 25.1196 30.337 24.8136 30.2911 24.4137L32.3348 24.3104C32.3389 24.3207 32.3507 24.328 32.3649 24.3261C32.8735 24.4262 33.2981 24.7579 33.5312 25.212Z" fill="#FAC5AA"/>
<path d="M34.1921 25.8765C34.1572 25.3107 33.9082 24.7915 33.4905 24.4089C34.1416 23.9974 34.5553 23.2548 34.5047 22.4357C34.4688 21.8527 34.2038 21.337 33.8032 20.9692C33.9757 20.8604 34.134 20.727 34.2731 20.5704C34.6599 20.1345 34.8533 19.5751 34.8173 18.9947C34.7826 18.4287 34.5335 17.9095 34.1157 17.5271C34.7668 17.1156 35.1805 16.373 35.13 15.5537C35.0562 14.3558 34.0172 13.4407 32.814 13.5142L30.2088 13.6736C29.4984 12.5887 28.6387 11.6144 27.6486 10.7718C27.6054 10.0404 27.4834 9.31342 27.2825 8.61075L26.9391 7.41C26.6877 6.53047 25.8402 5.93288 24.9238 5.98911C23.8397 6.05535 23.0118 6.98768 23.0783 8.06726C23.0808 8.10992 23.0828 8.15255 23.0846 8.19506C20.2303 7.24063 17.1181 7.25208 14.2468 8.23994C11.1308 9.31212 8.50562 11.4704 6.85514 14.3172C6.53878 14.8628 6.25929 15.431 6.02489 16.0057C4.19762 20.4706 4.89787 25.6263 7.85195 29.4608C8.94736 30.8831 10.3004 32.0631 11.8732 32.9673C14.364 34.3994 17.1887 35.0106 20.042 34.7351C22.8335 34.4653 25.437 33.3751 27.5714 31.5824C27.7705 31.4155 27.7957 31.1192 27.628 30.9212C27.4601 30.723 27.1628 30.6978 26.9638 30.8651C24.9762 32.5344 22.5513 33.5495 19.9509 33.8006C17.2943 34.0573 14.6641 33.488 12.3445 32.1544C11.1452 31.4649 10.0835 30.6032 9.17829 29.5871L13.769 29.3064C13.7693 29.3063 13.7695 29.3064 13.7698 29.3063C13.77 29.3064 13.7701 29.3062 13.7704 29.3061L17.5856 29.0729L17.5858 29.073C17.9284 29.0519 18.2424 28.8995 18.4699 28.6434C18.6974 28.3873 18.8114 28.0582 18.7902 27.717L18.7856 27.641L19.5268 27.5957C20.0556 27.5633 20.5729 27.7289 20.984 28.0618C21.5791 28.5438 22.3284 28.7831 23.0937 28.7362L29.2408 28.3604C28.9877 28.727 28.7162 29.0801 28.4286 29.4155C28.2593 29.6126 28.2827 29.9089 28.4807 30.0773C28.5029 30.0965 28.5269 30.1132 28.5515 30.1273C28.7444 30.2382 28.9951 30.2 29.145 30.0253C29.6096 29.4842 30.0346 28.9008 30.4119 28.2888L32.1441 28.1828C32.7269 28.1472 33.2611 27.8876 33.6477 27.452C34.0346 27.0163 34.2279 26.4568 34.1921 25.8765ZM29.1134 13.7405L27.3894 13.846L27.5258 13.0461C27.5826 12.7123 27.6213 12.3752 27.644 12.0367C28.184 12.5602 28.6752 13.1298 29.1134 13.7405ZM14.5546 9.12718C17.3142 8.17773 20.3124 8.19671 23.0384 9.17288C22.8805 10.3564 22.3563 11.4787 21.5295 12.3604L18.0522 16.0696C17.9922 15.8133 17.8556 15.5819 17.6537 15.4041C17.3964 15.1772 17.066 15.0641 16.7235 15.0852L12.8269 15.3233C12.8267 15.3232 12.8267 15.3232 12.8264 15.3233C12.8264 15.3233 12.8262 15.3232 12.8261 15.3234L7.20613 15.667C7.34948 15.3686 7.50472 15.0741 7.67146 14.7865C9.20839 12.1356 11.653 10.1256 14.5546 9.12718ZM17.764 28.0214C17.7033 28.0897 17.6193 28.1304 17.5277 28.136L17.5279 28.1361L14.177 28.3409L13.5518 19.0723C13.5343 18.8136 13.3096 18.6182 13.0498 18.6356C12.7903 18.6531 12.5939 18.8766 12.6114 19.1352L13.236 28.3984L8.45234 28.691C5.882 25.2162 5.25509 20.6382 6.79741 16.6174L12.4189 16.2822L12.4838 17.2476C12.495 17.4098 12.5873 17.5472 12.7189 17.6228C12.797 17.6677 12.889 17.6911 12.9857 17.6845C13.2455 17.6671 13.4419 17.4434 13.4245 17.1847L13.3599 16.2262L16.7814 16.0221C16.8726 16.0163 16.9605 16.0466 17.0291 16.1071C17.0976 16.1675 17.1386 16.2512 17.1443 16.3422L17.8493 27.7747C17.855 27.8654 17.8247 27.9531 17.764 28.0214ZM32.9417 26.8302C32.7216 27.0781 32.4179 27.2257 32.0862 27.2459L30.1059 27.367C30.1054 27.367 30.1048 27.3672 30.1041 27.367L23.0358 27.7993C22.507 27.8317 21.9895 27.6663 21.5786 27.3333C20.9836 26.8516 20.2343 26.612 19.4689 26.6588L18.7277 26.7042L18.1502 17.3407L22.2186 13.0012C23.2666 11.8832 23.8966 10.4332 24.0119 8.92072C24.0138 8.90536 24.0152 8.89017 24.0156 8.87472C24.0356 8.58784 24.0369 8.29903 24.0191 8.00959C23.9845 7.44666 24.4161 6.9606 24.9817 6.92601C25.4595 6.89679 25.9016 7.20839 26.0326 7.66689L26.3759 8.86784C26.7471 10.167 26.8235 11.5576 26.5963 12.889L26.3605 14.2721C26.3601 14.2747 26.3598 14.277 26.3595 14.2795C26.359 14.2826 26.3585 14.2861 26.358 14.2893C26.357 14.298 26.3561 14.306 26.356 14.3131C26.3542 14.335 26.3534 14.3571 26.3549 14.3795C26.3709 14.6384 26.5943 14.8352 26.8541 14.8191L32.8718 14.4513C33.5562 14.4095 34.1472 14.9298 34.1892 15.6114C34.2312 16.2929 33.7087 16.8814 33.0243 16.9232L32.5019 16.9553C32.5019 16.9553 32.5017 16.9552 32.5014 16.9552L31.336 17.0266C31.3344 17.0267 31.3331 17.0271 31.3315 17.027C31.3248 17.0276 31.3183 17.0281 31.3127 17.0291C31.0645 17.0564 30.879 17.2728 30.8945 17.5237C30.9103 17.7825 31.134 17.9794 31.3939 17.9635L32.5601 17.8921C32.8913 17.8721 33.2105 17.9815 33.4593 18.2006C33.708 18.4196 33.8564 18.7222 33.8765 19.0524C33.8969 19.3824 33.7871 19.7008 33.5671 19.9485C33.347 20.1964 33.0433 20.344 32.7117 20.3642L31.0234 20.4676C30.7635 20.4833 30.5659 20.7058 30.5819 20.9647C30.5919 21.128 30.6846 21.2666 30.817 21.3427C30.8943 21.3871 30.9853 21.4102 31.0811 21.4044L31.3424 21.3884L32.2466 21.3331C32.9312 21.2914 33.522 21.8116 33.564 22.4932C33.6059 23.1749 33.0835 23.7632 32.399 23.8052L31.5557 23.8568C31.5514 23.8569 31.5469 23.8573 31.5424 23.8576L30.7108 23.9084C30.4509 23.9241 30.2532 24.1468 30.2692 24.4057C30.2792 24.5689 30.3719 24.7076 30.5043 24.7837C30.5816 24.8281 30.6726 24.8512 30.7684 24.8454L31.0297 24.8294C31.0297 24.8294 31.0298 24.8292 31.03 24.8294L31.9341 24.7742C32.2655 24.7539 32.5851 24.8632 32.8339 25.0826C33.083 25.3015 33.2311 25.6042 33.2515 25.9343C33.2717 26.2642 33.1617 26.5825 32.9417 26.8302Z" fill="#031F88"/>
</svg>
