<svg width="57" height="88" viewBox="0 0 57 88" fill="none" xmlns="http://www.w3.org/2000/svg">
<circle cx="31.5" cy="46.5" r="22.5" fill="#EFF2F9"/>
<rect x="21.3496" y="0.612427" width="36" height="26" rx="1" transform="rotate(15 21.3496 0.612427)" fill="#D0F2F4"/>
<ellipse cx="28.1233" cy="21.8906" rx="2.44998" ry="2.79998" transform="rotate(15 28.1233 21.8906)" fill="white"/>
<ellipse cx="28.1236" cy="21.8903" rx="1.04999" ry="1.39999" transform="rotate(15 28.1236 21.8903)" fill="#031F88"/>
<ellipse cx="39.6174" cy="24.971" rx="2.44998" ry="2.79998" transform="rotate(15 39.6174 24.971)" fill="white"/>
<ellipse cx="39.6177" cy="24.9706" rx="1.04999" ry="1.39999" transform="rotate(15 39.6177 24.9706)" fill="#031F88"/>
<rect x="28.1113" y="2.42407" width="2" height="10" rx="1" transform="rotate(15 28.1113 2.42407)" fill="#16BDC8"/>
<rect x="23.2812" y="1.13" width="2" height="14" rx="1" transform="rotate(15 23.2812 1.13)" fill="#16BDC8"/>
<rect x="47.4297" y="7.60046" width="2" height="14" rx="1" transform="rotate(15 47.4297 7.60046)" fill="#16BDC8"/>
<rect x="32.9404" y="3.71826" width="2" height="6" rx="1" transform="rotate(15 32.9404 3.71826)" fill="#16BDC8"/>
<rect x="52.2588" y="8.89453" width="2" height="6" rx="1" transform="rotate(15 52.2588 8.89453)" fill="#16BDC8"/>
<rect x="37.7705" y="5.01233" width="2" height="11" rx="1" transform="rotate(15 37.7705 5.01233)" fill="#16BDC8"/>
<rect x="42.5996" y="6.3064" width="2" height="5" rx="1" transform="rotate(15 42.5996 6.3064)" fill="#16BDC8"/>
<path opacity="0.6" d="M24.7053 75.0163L32.5992 45.5555C32.5992 45.5555 32.9875 44.1067 33.7293 43.2701C34.471 42.4336 39.1714 44.2107 43.8116 42.3482C45.3583 41.7274 47.0027 40.0974 47.0027 40.0974C40.0436 42.8915 32.3876 40.5544 31.7985 42.7528C30.7632 46.6165 26.2435 64.1164 22.4515 74.4124L24.7053 75.0163Z" fill="#376CFB"/>
<path fill-rule="evenodd" clip-rule="evenodd" d="M23.4109 0.647048C22.0772 0.289693 20.7064 1.08115 20.349 2.41481L12.947 30.0397C12.9005 30.2132 12.8684 30.3903 12.8512 30.5691C12.8443 30.6398 12.8495 30.7116 12.8673 30.7804C13.9391 34.9182 17.6261 37.6535 23.1206 40.8493C23.3198 40.9652 23.4155 41.1986 23.3572 41.4164L18.5491 59.3606L13.9801 76.4123C13.1939 79.3464 14.9351 82.3622 17.8692 83.1484C20.8032 83.9346 23.8191 82.1934 24.6052 79.2593L25.8993 74.4297L33.9656 44.3259C34.0274 44.0953 34.2495 43.9353 34.4983 43.9523C38.0528 44.196 40.6288 44.0504 42.7771 43.4456C44.8 42.8761 46.4104 41.9088 48.0825 40.5386C48.3079 40.3539 48.4836 40.1165 48.6007 39.8498C48.6398 39.7609 48.672 39.6691 48.6971 39.5753L56.0883 11.9911C56.4457 10.6575 55.6542 9.28661 54.3205 8.92926L23.4109 0.647048ZM47.1677 39.9919C47.4897 39.7362 47.7144 39.3792 47.8209 38.982L55.1224 11.7323C55.3368 10.9321 54.8619 10.1096 54.0617 9.89518L23.1521 1.61297C22.3519 1.39856 21.5294 1.87343 21.315 2.67363L13.9117 30.3029C13.8667 30.4709 13.8651 30.6483 13.9146 30.8151C14.9627 34.3464 18.2328 36.8496 23.6234 39.9849C24.2084 40.3252 24.4996 41.0166 24.3231 41.6752L14.946 76.6711C14.3028 79.0717 15.7274 81.5392 18.128 82.1825C20.5286 82.8257 22.9961 81.4011 23.6393 79.0005L32.9997 44.0671C33.188 43.3644 33.8515 42.9056 34.5667 42.9547C38.0721 43.195 40.5171 43.043 42.5061 42.483C44.2492 41.9923 45.6711 41.18 47.1677 39.9919Z" fill="#031F88"/>
<rect width="6.12871" height="13.187" rx="3.06436" transform="matrix(0.417147 -0.908839 0.903655 0.428261 17.625 62.8096)" fill="#87A7FD"/>
<rect width="6.12871" height="13.187" rx="3.06436" transform="matrix(0.417147 -0.908839 0.903655 0.428261 16.3877 67.4255)" fill="#87A7FD"/>
<rect width="6.12871" height="13.187" rx="3.06436" transform="matrix(0.417147 -0.908839 0.903655 0.428261 14.9746 72.7007)" fill="#87A7FD"/>
<rect x="16.415" y="61.5317" width="5.46121" height="13.653" rx="2.73061" transform="rotate(-65 16.415 61.5317)" fill="white" stroke="#031F88"/>
<rect x="15.0586" y="66.5942" width="5.46121" height="13.653" rx="2.73061" transform="rotate(-65 15.0586 66.5942)" fill="white" stroke="#031F88"/>
<rect x="13.7129" y="71.6162" width="5.46121" height="13.653" rx="2.73061" transform="rotate(-65 13.7129 71.6162)" fill="white" stroke="#031F88"/>
<path d="M15.3965 22.8286C27.9773 29.1517 35.624 31.1112 50.1698 32.1461L48.31 39.0869C48.1873 39.545 47.7549 39.8539 47.2816 39.8243C33.4444 38.961 25.8987 36.8694 14.0536 30.9234C13.6312 30.7113 13.4135 30.2292 13.5358 29.7726L15.3965 22.8286Z" fill="#EFF2F9" stroke="#031F88"/>
<path d="M27.2491 30.7547C27.3332 30.4409 27.6558 30.2547 27.9696 30.3388L35.5265 32.3636C35.8403 32.4477 36.0265 32.7703 35.9425 33.0841C35.3118 35.4376 32.8927 36.8343 30.5392 36.2037L30.3687 36.158C28.0152 35.5274 26.6185 33.1082 27.2491 30.7547Z" fill="#031F88"/>
<path d="M28.6292 35.2383C28.3788 35.0506 28.2187 34.8631 28.2609 34.7058C28.7432 32.9056 33.5728 34.1999 33.0905 36.0001C33.0483 36.1574 32.816 36.2397 32.5053 36.277C31.1474 36.4401 29.7236 36.0585 28.6292 35.2383Z" fill="#FC2133"/>
</svg>
