<svg width="70" height="80" viewBox="0 0 70 80" fill="none" xmlns="http://www.w3.org/2000/svg">
<path d="M33 1.15504C34.2376 0.440509 35.7624 0.440507 37 1.15504L67.6411 18.8456C68.8787 19.5602 69.6411 20.8807 69.6411 22.3097V57.6909C69.6411 59.12 68.8787 60.4405 67.6411 61.155L37 78.8456C35.7624 79.5602 34.2376 79.5602 33 78.8456L2.35901 61.155C1.12141 60.4405 0.359009 59.12 0.359009 57.6909V22.3097C0.359009 20.8807 1.1214 19.5602 2.35901 18.8456L33 1.15504Z" fill="white"/>
<path d="M33 1.15504C34.2376 0.440509 35.7624 0.440507 37 1.15504L67.6411 18.8456C68.8787 19.5602 69.6411 20.8807 69.6411 22.3097V57.6909C69.6411 59.12 68.8787 60.4405 67.6411 61.155L37 78.8456C35.7624 79.5602 34.2376 79.5602 33 78.8456L2.35901 61.155C1.12141 60.4405 0.359009 59.12 0.359009 57.6909V22.3097C0.359009 20.8807 1.1214 19.5602 2.35901 18.8456L33 1.15504Z" fill="#43D14F" fill-opacity="0.2"/>
<path fill-rule="evenodd" clip-rule="evenodd" d="M65.6411 22.3097L35 4.61914L4.35901 22.3097V57.6909L35 75.3815L65.6411 57.6909V22.3097ZM37 1.15504C35.7624 0.440507 34.2376 0.440509 33 1.15504L2.35901 18.8456C1.1214 19.5602 0.359009 20.8807 0.359009 22.3097V57.6909C0.359009 59.12 1.12141 60.4405 2.35901 61.155L33 78.8456C34.2376 79.5602 35.7624 79.5602 37 78.8456L67.6411 61.155C68.8787 60.4405 69.6411 59.12 69.6411 57.6909V22.3097C69.6411 20.8807 68.8787 19.5602 67.6411 18.8456L37 1.15504Z" fill="white"/>
<rect x="21.3156" y="43.5459" width="25.0749" height="15.0449" rx="4" transform="rotate(-45 21.3156 43.5459)" fill="#C4E1C7"/>
<rect x="21.3156" y="43.5459" width="25.0749" height="15.0449" rx="4" transform="rotate(-45 21.3156 43.5459)" stroke="#031F88" stroke-width="2"/>
<rect x="20.3154" y="37.0225" width="24.6758" height="15.316" rx="4" transform="rotate(-15 20.3154 37.0225)" fill="#C4E1C7"/>
<path d="M23.2518 40.3186C22.9659 39.2516 23.5991 38.155 24.666 37.8691L42.5873 33.0671C43.7051 32.7676 44.843 33.4764 45.0671 34.6117L46.5633 42.1924C46.8605 43.6983 45.9731 45.1856 44.5067 45.6393L28.1806 50.6901C27.0967 51.0254 25.9513 50.393 25.6576 49.2971L23.2518 40.3186Z" fill="#43D14F" fill-opacity="0.8"/>
<rect x="20.3154" y="37.0225" width="24.6758" height="15.316" rx="4" transform="rotate(-15 20.3154 37.0225)" stroke="#031F88" stroke-width="2"/>
<circle cx="34.2149" cy="41.2252" r="5.10533" transform="rotate(-15 34.2149 41.2252)" stroke="#031F88" stroke-width="2"/>
<path d="M35.0329 39.8319C35.0329 39.8319 34.9194 38.6878 33.6434 39.0297C32.5472 39.3235 32.7813 40.1981 32.8408 40.4193C33.2227 41.8385 35.2281 40.5627 35.6196 42.0238C35.8154 42.7544 35.5481 43.2175 34.8176 43.4133C33.4968 43.7672 33.4288 42.6108 33.4288 42.6108" stroke="#031F88" stroke-linecap="round" stroke-linejoin="round"/>
<rect x="33.2155" y="38.1659" width="0.378172" height="1.13452" rx="0.189086" transform="rotate(-15 33.2155 38.1659)" fill="#031F88" stroke="#031F88" stroke-width="0.378172"/>
<rect x="34.5858" y="43.2792" width="0.378173" height="1.13452" rx="0.189086" transform="rotate(-15 34.5858 43.2792)" fill="#031F88" stroke="#031F88" stroke-width="0.378173"/>
<mask id="mask0" mask-type="alpha" maskUnits="userSpaceOnUse" x="21" y="31" width="27" height="20">
<rect x="21.5401" y="37.7296" width="22.6758" height="13.316" rx="3" transform="rotate(-15 21.5401 37.7296)" fill="#C4C4C4" stroke="#031F88" stroke-width="2"/>
</mask>
<g mask="url(#mask0)">
<circle cx="22.3997" cy="38.2241" r="2.40355" transform="rotate(-15 22.3997 38.2241)" stroke="#031F88" stroke-width="2"/>
<path d="M45.2687 32.0971C45.6123 33.3793 44.8513 34.6973 43.5691 35.0408C42.2869 35.3844 40.969 34.6235 40.6254 33.3413C40.2818 32.059 41.0427 30.7411 42.325 30.3975C43.6072 30.054 44.9251 30.8149 45.2687 32.0971Z" stroke="#031F88" stroke-width="2"/>
<path d="M48.3517 43.6029C48.6953 44.8852 47.9344 46.2031 46.6521 46.5467C45.3699 46.8903 44.052 46.1293 43.7084 44.8471C43.3648 43.5649 44.1258 42.2469 45.408 41.9034C46.6902 41.5598 48.0081 42.3207 48.3517 43.6029Z" stroke="#031F88" stroke-width="2"/>
<path d="M27.8044 49.1098C28.148 50.392 27.3871 51.71 26.1048 52.0535C24.8226 52.3971 23.5047 51.6362 23.1611 50.354C22.8175 49.0717 23.5785 47.7538 24.8607 47.4102C26.1429 47.0666 27.4608 47.8276 27.8044 49.1098Z" stroke="#031F88" stroke-width="2"/>
</g>
</svg>
