<svg width="48" height="48" viewBox="0 0 48 48" fill="none" xmlns="http://www.w3.org/2000/svg">
<path d="M39 48H9C4.029 48 0 43.971 0 39V9C0 4.029 4.029 0 9 0H39C43.971 0 48 4.029 48 9V39C48 43.971 43.971 48 39 48Z" fill="#43D14F" fill-opacity="0.2"/>
<path d="M19.293 20.4314V20.4118C19.4238 21.9281 19.4891 23.3595 19.4891 24.7059C19.4891 28.8497 18.8028 31.1765 17.4303 31.6863C17.2211 31.7647 16.9793 31.804 16.7048 31.804C16.378 31.804 16.0144 31.9347 15.4915 31.804C14.8379 31.4379 13.7767 29.1438 12.4303 25.3138C12.6656 26.3203 12.7832 27.3138 12.7832 28.2942C12.7832 29.3791 12.6264 30.2419 12.3126 30.8824C12.1688 31.183 11.9074 31.4445 11.5283 31.6667C11.1623 31.8759 10.8094 31.9608 10.4695 31.9216C9.38454 31.817 9.56905 32.8824 9.17689 31.6667C8.91545 30.8562 8.99905 27.7778 8.99905 26.0785C8.99905 22.7713 9.00098 21.7301 9.00098 20.5C9.00098 20.3555 9.00095 20.1848 9.0009 20.0015C9.00061 18.8964 9.89654 18 11.0016 18C11.2101 18 11.3869 18 11.5 18C11.7876 18 13.2124 17.9085 13.5 18C14.2582 18.4053 13.5218 18.6928 14.2538 20.7059C14.5545 21.5164 14.8355 22.4772 15.097 23.5883C14.9662 22.7255 14.7715 22.6536 14.68 22C14.68 22 14.68 22.036 14.68 21.5C14.726 20.0429 14.892 19.1925 15.2613 18.1411C15.3979 17.7521 15.7714 17.5 16.1837 17.5C16.4323 17.5 16.7208 17.5 17 17.5C18.268 17.5 19.5 17.5 19.5 18C19.5654 18.3007 19.2146 19.5033 19.293 20.4314Z" fill="#43D14F"/>
<path d="M30 18C30 18 30.0017 17.5412 30 17.5C30 17.5 29.2156 19.4118 28.7711 20.6667C28.3397 21.7125 27.9149 22.7582 27.4966 23.804C26.7254 25.9085 25.6077 28.4706 24.1437 31.4902C23.843 31.9739 23.3071 32.2157 22.5358 32.2157C22.0522 32.2157 21.3332 32.1046 21.0064 31.9216C20.392 31.451 20.5 32.5621 20.5 31.7647C20.5 31.2026 21.0948 29.3922 21.5 28.2942C22.3235 26.1634 23.8268 22.4053 25.5 18C25.7192 17.581 25.914 17.266 26.072 17.0356C26.306 16.6944 26.7442 16.6221 27.1142 16.8071L27.5 17L30 18Z" fill="#43D14F"/>
<path d="M40.2044 23.3922C40.2044 25.1961 39.8122 26.8236 39.0279 28.2745C38.0737 30.0654 36.6554 31.2288 34.773 31.7647C33.7534 31.8301 32.8319 31.7125 32.0083 31.4118C31.1979 31.0981 31.5392 31.9968 31.5 31.5C31.2647 28.0098 31.4216 24.5294 31.4216 21.3138C31.4216 20.5155 31.4216 19.0712 31.4216 18.2074C31.4216 17.783 31.6955 17.4227 32.1171 17.3742C32.4885 17.3314 33.0288 17.2942 33.7847 17.2942C34.7912 17.2942 37.2157 17.2647 38 17.5C38.8235 17.8791 37.8711 17.8889 38.5377 18.7647C39.6489 20.2288 40.2044 21.7713 40.2044 23.3922ZM35.3024 21.6275C35.1194 21.4053 34.943 21.2942 34.773 21.2942C34.6946 21.2942 34.5966 21.3203 34.4789 21.3726C34.3613 21.4249 34.2959 21.451 34.2828 21.451C34.4266 22.3791 34.5181 23.9216 34.5573 26.0785C34.9364 25.817 35.2502 25.4314 35.4985 24.9216C35.76 24.4118 35.8907 23.8955 35.8907 23.3726C35.8907 22.6928 35.6946 22.1111 35.3024 21.6275Z" fill="#43D14F"/>
<path d="M14.0368 18.7841C14.0368 18.8111 14.037 18.8388 14.0373 18.8671C13.8869 18.5578 13.7346 18.2774 13.5801 18.0267C13.1881 17.3906 12.7552 16.9005 12.2627 16.6373L12.2223 16.6157L12.1786 16.6018C11.8444 16.4955 11.5058 16.441 11.1642 16.441C10.5232 16.441 9.93644 16.631 9.41917 17.0072L9.41916 17.0072L9.41666 17.0091C8.58331 17.6231 8.03516 18.42 7.79637 19.3901L7.79637 19.3901L7.79584 19.3923C7.50526 20.5962 7.37012 22.8767 7.37012 26.1763C7.37012 27.8867 7.49996 29.2065 7.78642 30.0945C8.00202 30.7629 8.32513 31.3167 8.77711 31.7207C9.23268 32.1279 9.79016 32.3566 10.4256 32.4187C10.8921 32.4713 11.3497 32.3493 11.7849 32.1006L11.7849 32.1006L11.7896 32.0978C12.227 31.8414 12.5723 31.5144 12.7711 31.1001C13.0729 30.4829 13.2349 29.7164 13.2791 28.8211C13.4759 29.2658 13.6637 29.6648 13.8396 30.0171C14.1094 30.5575 14.3541 30.9937 14.5627 31.3175C14.6668 31.4791 14.7657 31.6186 14.8576 31.7314C14.943 31.836 15.0467 31.9482 15.1638 32.0253C15.4734 32.2291 15.8072 32.2903 16.0778 32.3078C16.2514 32.3191 16.4618 32.3117 16.5982 32.3069C16.6484 32.3052 16.6886 32.3037 16.7133 32.3037C17.0342 32.3037 17.3374 32.258 17.6137 32.1545C18.5225 31.8165 19.1039 30.9156 19.4624 29.7001C19.8254 28.4696 19.9976 26.7968 19.9976 24.7057C19.9976 23.3433 19.9314 21.8975 19.7996 20.3686L19.798 20.3687C19.7207 19.4571 19.6473 18.8171 19.5744 18.4818L19.5739 18.4796C19.4024 17.708 19.0878 17.0708 18.5903 16.6268C18.086 16.1766 17.4447 15.9704 16.7133 15.9704C15.8698 15.9704 15.1607 16.2613 14.6583 16.8809C14.2331 17.4043 14.0368 18.0514 14.0368 18.7841ZM29.2418 20.8572L29.2467 20.8454L29.2509 20.8334C29.7088 19.5405 29.9224 18.3525 29.8677 17.2781C29.8625 17.0081 29.7265 16.7979 29.6109 16.6639C29.4885 16.5219 29.3393 16.4071 29.2122 16.3219C29.0817 16.2346 28.9544 16.1651 28.8615 16.1181C28.8144 16.0943 28.7748 16.0755 28.7461 16.0623C28.7358 16.0575 28.7268 16.0535 28.7194 16.0502L28.7004 16.04C28.6765 16.0272 28.6425 16.0091 28.6009 15.9874C28.5181 15.944 28.4041 15.8854 28.281 15.8252C28.1588 15.7655 28.0226 15.7017 27.8964 15.6493C27.802 15.6101 27.6793 15.5625 27.5633 15.5367C27.3102 15.444 27.1174 15.413 26.8051 15.4216L26.7829 15.4222L26.7609 15.4248C25.7314 15.5449 24.9342 16.3335 24.317 17.5131L24.3031 17.5395L24.2926 17.5674C22.6194 21.9724 21.3715 25.2393 20.5485 27.3686L20.5484 27.3686L20.5458 27.3757C20.1374 28.4824 19.907 29.3829 19.907 30.039C19.907 30.9108 20.1228 31.8388 21.0843 32.3773C21.5044 32.6125 21.9994 32.7155 22.5443 32.7155C23.42 32.7155 24.1538 32.4344 24.5768 31.754L24.5906 31.7317L24.602 31.7082C26.0686 28.6834 27.193 26.1073 27.972 23.9827C28.3888 22.9409 28.812 21.899 29.2418 20.8572ZM34.8487 32.26L34.8841 32.2552L34.9184 32.2454C36.9362 31.6709 38.4615 30.4158 39.477 28.5108C40.3039 26.9804 40.7129 25.2704 40.7129 23.392C40.7129 21.6475 40.1123 20.0011 38.9445 18.4623L38.9441 18.4617C38.2636 17.5677 37.6782 16.8802 36.4931 16.4165L36.4741 16.4091L36.4546 16.4033C35.6144 16.1512 34.6691 16.0292 33.6246 16.0292C32.7101 16.0292 31.9418 16.1191 31.3431 16.3199C30.7432 16.5211 30.2562 16.8549 30.014 17.378L29.9789 17.4539L29.9704 17.537C29.9152 18.0746 29.8893 18.9468 29.8893 20.1371C29.8893 23.3649 30.0074 26.7291 30.2434 30.2295L30.2434 30.2295L30.2438 30.2353C30.3072 31.0378 30.9867 31.549 31.8363 31.8779L31.8363 31.878L31.8453 31.8813C32.7101 32.197 33.5811 32.4319 34.8487 32.26ZM35.0621 24.6932L35.062 24.6932L35.0575 24.7024C35.0494 24.7191 35.0411 24.7356 35.0329 24.752C34.9937 23.5528 34.9333 22.5879 34.8503 21.8628C34.8718 21.8839 34.8963 21.9105 34.9237 21.9437C35.2361 22.3296 35.3991 22.7968 35.3991 23.3724C35.3991 23.8085 35.2908 24.2472 35.0621 24.6932Z" stroke="#031F88"/>
</svg>
