<svg width="41" height="41" viewBox="0 0 41 41" fill="none" xmlns="http://www.w3.org/2000/svg">
<path d="M10.8058 13.2639C14.4616 6.95821 22.5591 4.79803 28.8912 8.43862C30.4446 9.3317 31.7471 10.4906 32.7742 11.8247C35.5831 15.4699 36.3381 20.421 34.5391 24.8169C34.3131 25.3707 34.0457 25.9158 33.737 26.4481C30.0809 32.7544 21.9839 34.9149 15.6519 31.2743C9.31978 27.6337 7.14962 19.5702 10.8058 13.2639Z" fill="#FC2133"/>
<path d="M15.6515 31.2743C16.2578 31.6228 16.8802 31.9176 17.5133 32.1614C12.5217 28.1547 11.0632 21.0155 14.3694 15.3129C17.6751 9.6111 24.6124 7.29925 30.5922 9.6002C30.064 9.17636 29.4969 8.78702 28.8909 8.43858C22.5588 4.79799 14.4613 6.95817 10.8055 13.2639C7.1493 19.5701 9.31946 27.6337 15.6515 31.2743Z" fill="#FC2133"/>
<path d="M8.88461 13.285L17.9351 12.7319C18.58 12.6923 19.2157 12.8951 19.7171 13.3006C20.2198 13.7066 20.856 13.9118 21.5024 13.8723L22.7138 13.7979L23.4448 23.8219L19.2382 28.309C18.9108 28.6582 18.6276 29.0402 18.3916 29.4473C17.7811 30.5003 17.4876 31.7176 17.5635 32.951C17.5821 33.2542 17.5079 33.5425 17.3659 33.7874C17.1229 34.2065 16.6807 34.5 16.1594 34.5319C15.4566 34.5751 14.819 34.1253 14.6265 33.4511L14.2827 32.2504C13.8903 30.8758 13.8107 29.431 14.0513 28.0222L14.2856 26.6452L8.26942 27.0067C7.30803 27.0653 6.48315 26.3238 6.45043 25.3591C6.41831 24.4293 7.16177 23.6527 8.09467 23.5957C8.106 23.5951 8.11137 23.5867 8.11258 23.5787C8.11283 23.5695 8.10751 23.5598 8.0961 23.5583C7.88567 23.5256 7.68712 23.454 7.50848 23.3513C7.22349 23.1874 6.98831 22.9432 6.83677 22.6486C6.73255 22.4456 6.66782 22.2183 6.65267 21.9764C6.62406 21.5089 6.78696 21.0737 7.07414 20.7474C7.52652 20.2328 8.12375 20.1773 8.23978 20.1688C8.25967 20.1672 8.27469 20.15 8.27343 20.1296C8.27378 20.129 8.27341 20.1283 8.27281 20.1279C8.27123 20.1095 8.2544 20.0947 8.23569 20.0957C8.10048 20.0562 7.97185 20.0004 7.85089 19.9308C7.55608 19.7613 7.31113 19.5091 7.15348 19.2076C7.04706 19.0033 6.98018 18.7755 6.96565 18.5353C6.90747 17.5942 7.62673 16.7843 8.57231 16.7267C8.59572 16.725 8.61914 16.7233 8.6422 16.7222C8.65653 16.7201 8.6665 16.7093 8.66658 16.6977C8.66673 16.6951 8.6658 16.6916 8.66429 16.6892C8.66015 16.6788 8.64837 16.6715 8.63416 16.6734C8.12558 16.5733 7.70099 16.2417 7.46789 15.7875C7.35994 15.5794 7.29358 15.3448 7.27841 15.0946C7.22069 14.1528 7.93963 13.3429 8.88461 13.285Z" fill="#FDD7BD"/>
<path d="M23.4435 12.3956L27.2616 12.1621L32.7739 11.825C35.5826 15.4704 36.3378 20.4212 34.5386 24.8174L28.1415 25.2085L24.2474 25.4467C23.7989 25.4744 23.4129 25.1339 23.3856 24.6869L22.6801 13.2546C22.6527 12.8073 22.9943 12.4234 23.4435 12.3956Z" fill="#87DBFF"/>
<path d="M23.4434 12.3952L27.2614 12.1617L28.1413 25.2081L24.2472 25.4462C23.7988 25.474 23.4127 25.1335 23.3854 24.6864L22.6799 13.2542C22.6525 12.8068 22.9941 12.423 23.4434 12.3952Z" fill="#6FC7FF"/>
<path d="M6.83709 22.6488L9.68876 22.7404C10.0933 22.7538 10.4267 23.0599 10.4721 23.4596L8.11291 23.5788C8.11327 23.5694 8.10783 23.5599 8.09642 23.5584C7.886 23.5257 7.68745 23.4541 7.50881 23.3514C7.22361 23.1874 6.98875 22.9431 6.83709 22.6488Z" fill="#FAC5AA"/>
<path d="M7.1537 19.2078L9.94276 19.2983C10.3475 19.3113 10.681 19.6171 10.7264 20.0169L8.36725 20.1361L8.27303 20.1282C8.27145 20.1097 8.25462 20.095 8.23592 20.0959C8.1005 20.0564 7.97187 20.0005 7.85111 19.9311C7.5561 19.7615 7.31103 19.5094 7.1537 19.2078Z" fill="#FAC5AA"/>
<path d="M7.46882 15.788L9.92575 15.8672C10.3293 15.8804 10.6631 16.1864 10.7089 16.5863L8.66522 16.6896C8.66107 16.6793 8.64929 16.672 8.63508 16.6739C8.1265 16.5738 7.70191 16.2422 7.46882 15.788Z" fill="#FAC5AA"/>
<path d="M6.80787 15.1235C6.84278 15.6893 7.09185 16.2085 7.50953 16.5911C6.85842 17.0026 6.44471 17.7452 6.49532 18.5643C6.53115 19.1473 6.79618 19.663 7.19684 20.0308C7.0243 20.1396 6.86603 20.273 6.72687 20.4296C6.34015 20.8655 6.14667 21.4249 6.18265 22.0053C6.21744 22.5713 6.46651 23.0905 6.8843 23.4729C6.2332 23.8844 5.81949 24.627 5.86998 25.4463C5.94377 26.6442 6.98281 27.5593 8.18598 27.4858L10.7912 27.3264C11.5016 28.4113 12.3613 29.3856 13.3514 30.2282C13.3946 30.9596 13.5166 31.6866 13.7175 32.3892L14.0609 33.59C14.3123 34.4695 15.1598 35.0671 16.0762 35.0109C17.1603 34.9447 17.9882 34.0123 17.9217 32.9327C17.9192 32.8901 17.9172 32.8475 17.9154 32.8049C20.7697 33.7594 23.8819 33.7479 26.7532 32.7601C29.8692 31.6879 32.4944 29.5296 34.1449 26.6828C34.4612 26.1372 34.7407 25.569 34.9751 24.9943C36.8024 20.5294 36.1021 15.3737 33.148 11.5392C32.0526 10.1169 30.6996 8.93693 29.1268 8.03268C26.636 6.6006 23.8113 5.98944 20.958 6.26492C18.1665 6.53471 15.563 7.62493 13.4286 9.41756C13.2295 9.58446 13.2043 9.88082 13.372 10.0788C13.5399 10.277 13.8372 10.3022 14.0362 10.1349C16.0238 8.4656 18.4487 7.45054 21.0491 7.19937C23.7057 6.94267 26.3359 7.51197 28.6555 8.8456C29.8548 9.53509 30.9165 10.3968 31.8217 11.4129L27.231 11.6936C27.2307 11.6937 27.2305 11.6936 27.2302 11.6937C27.23 11.6936 27.2299 11.6938 27.2296 11.6939L23.4144 11.9271L23.4142 11.927C23.0716 11.9481 22.7576 12.1005 22.5301 12.3566C22.3026 12.6127 22.1886 12.9418 22.2098 13.283L22.2144 13.359L21.4732 13.4043C20.9444 13.4367 20.4271 13.2711 20.016 12.9383C19.4209 12.4562 18.6716 12.2169 17.9063 12.2638L11.7592 12.6396C12.0123 12.273 12.2838 11.9199 12.5714 11.5845C12.7407 11.3874 12.7173 11.0911 12.5193 10.9227C12.4971 10.9035 12.4731 10.8868 12.4485 10.8727C12.2556 10.7618 12.0049 10.8 11.855 10.9747C11.3904 11.5158 10.9654 12.0992 10.5881 12.7112L8.85586 12.8172C8.27309 12.8528 7.73889 13.1124 7.35229 13.548C6.96537 13.9837 6.77209 14.5432 6.80787 15.1235ZM11.8866 27.2595L13.6106 27.154L13.4742 27.9539C13.4174 28.2877 13.3787 28.6248 13.356 28.9633C12.816 28.4398 12.3248 27.8702 11.8866 27.2595ZM26.4454 31.8728C23.6858 32.8223 20.6876 32.8033 17.9616 31.8271C18.1195 30.6436 18.6437 29.5213 19.4705 28.6396L22.9478 24.9304C23.0078 25.1867 23.1444 25.4181 23.3463 25.5959C23.6036 25.8228 23.934 25.9359 24.2765 25.9148L28.1731 25.6767C28.1733 25.6768 28.1733 25.6768 28.1736 25.6767C28.1736 25.6767 28.1738 25.6768 28.1739 25.6766L33.7939 25.333C33.6505 25.6314 33.4953 25.9259 33.3285 26.2135C31.7916 28.8644 29.347 30.8744 26.4454 31.8728ZM23.236 12.9786C23.2967 12.9104 23.3807 12.8696 23.4723 12.864L23.4721 12.8639L26.823 12.6591L27.4482 21.9277C27.4657 22.1864 27.6904 22.3818 27.9502 22.3644C28.2097 22.3469 28.4061 22.1234 28.3886 21.8648L27.764 12.6016L32.5477 12.309C35.118 15.7838 35.7449 20.3618 34.2026 24.3826L28.581 24.7178L28.5162 23.7524C28.505 23.5902 28.4127 23.4528 28.2811 23.3772C28.203 23.3323 28.111 23.3089 28.0143 23.3155C27.7545 23.3329 27.5581 23.5566 27.5755 23.8153L27.6401 24.7738L24.2186 24.9779C24.1274 24.9837 24.0395 24.9534 23.9709 24.8929C23.9024 24.8325 23.8614 24.7488 23.8557 24.6578L23.1507 13.2253C23.145 13.1346 23.1753 13.0469 23.236 12.9786ZM8.0583 14.1698C8.27838 13.9219 8.58215 13.7743 8.91377 13.7541L10.8941 13.633C10.8946 13.633 10.8952 13.6328 10.8959 13.633L17.9642 13.2007C18.493 13.1683 19.0105 13.3337 19.4214 13.6667C20.0164 14.1484 20.7657 14.388 21.5311 14.3412L22.2723 14.2958L22.8498 23.6593L18.7814 27.9988C17.7334 29.1168 17.1034 30.5668 16.9881 32.0793C16.9862 32.0946 16.9848 32.1098 16.9844 32.1253C16.9644 32.4122 16.9631 32.701 16.9809 32.9904C17.0155 33.5533 16.5839 34.0394 16.0183 34.074C15.5405 34.1032 15.0984 33.7916 14.9674 33.3331L14.6241 32.1322C14.2529 30.833 14.1765 29.4424 14.4037 28.111L14.6395 26.7279C14.6399 26.7253 14.6402 26.723 14.6405 26.7205C14.641 26.7174 14.6415 26.7139 14.642 26.7107C14.643 26.702 14.6439 26.694 14.644 26.6869C14.6458 26.665 14.6466 26.6429 14.6451 26.6205C14.6291 26.3616 14.4057 26.1648 14.1459 26.1809L8.12818 26.5487C7.44382 26.5905 6.85281 26.0702 6.8108 25.3886C6.76878 24.7071 7.29131 24.1186 7.97568 24.0768L8.49813 24.0447C8.49813 24.0447 8.49833 24.0448 8.49865 24.0448L9.66398 23.9734C9.66564 23.9733 9.66691 23.9729 9.66845 23.973C9.67523 23.9724 9.68168 23.9719 9.68734 23.9709C9.93546 23.9436 10.121 23.7272 10.1055 23.4763C10.0897 23.2175 9.86604 23.0206 9.60606 23.0365L8.4399 23.1079C8.10871 23.1279 7.78946 23.0185 7.54074 22.7994C7.29203 22.5804 7.14356 22.2778 7.12347 21.9476C7.10306 21.6176 7.21291 21.2992 7.43287 21.0515C7.65296 20.8036 7.95672 20.656 8.28835 20.6358L9.97665 20.5324C10.2365 20.5167 10.4341 20.2942 10.4181 20.0353C10.4081 19.8721 10.3154 19.7334 10.183 19.6573C10.1057 19.6129 10.0147 19.5898 9.91894 19.5956L9.65761 19.6116L8.7534 19.6669C8.06884 19.7086 7.47804 19.1884 7.43602 18.5068C7.39412 17.8251 7.91654 17.2368 8.60102 17.1948L9.44428 17.1432C9.44864 17.1431 9.45311 17.1427 9.45759 17.1424L10.2892 17.0916C10.5491 17.0759 10.7468 16.8532 10.7308 16.5943C10.7208 16.4311 10.6281 16.2924 10.4957 16.2163C10.4184 16.1719 10.3274 16.1488 10.2316 16.1546L9.97028 16.1706C9.97028 16.1706 9.97016 16.1708 9.96996 16.1706L9.06587 16.2258C8.73445 16.2461 8.41488 16.1368 8.16608 15.9174C7.91705 15.6985 7.7689 15.3958 7.74849 15.0657C7.72828 14.7358 7.83833 14.4175 8.0583 14.1698Z" fill="#031F88"/>
</svg>
