<svg width="52" height="93" viewBox="0 0 52 93" fill="none" xmlns="http://www.w3.org/2000/svg">
<circle cx="23.5" cy="51.5" r="22.5" fill="#EFF2F9"/>
<ellipse cx="19.468" cy="37.5567" rx="2.44998" ry="2.79998" transform="rotate(15 19.468 37.5567)" fill="white"/>
<ellipse cx="19.4683" cy="37.5564" rx="1.04999" ry="1.39999" transform="rotate(15 19.4683 37.5564)" fill="#031F88"/>
<ellipse cx="30.9621" cy="40.637" rx="2.44998" ry="2.79998" transform="rotate(15 30.9621 40.637)" fill="white"/>
<ellipse cx="30.9624" cy="40.6367" rx="1.04999" ry="1.39999" transform="rotate(15 30.9624 40.6367)" fill="#031F88"/>
<rect x="19.2051" y="44.5259" width="8.79992" height="43.0996" rx="3.5" transform="rotate(15 19.2051 44.5259)" fill="white" stroke="#031F88"/>
<path opacity="0.6" d="M18.0393 82.1048L27.0979 48.2977L25.0694 47.7542L23.041 47.2107C22.7047 48.466 25.5698 48.4483 25.2927 49.6257C22.7332 60.4984 19.8779 69.826 15.6728 81.4707L18.0393 82.1048Z" fill="#376CFB"/>
<rect x="11.0039" y="67.791" width="6.29098" height="13.9999" rx="3.14549" transform="rotate(-65 11.0039 67.791)" fill="#87A7FD"/>
<rect x="9.73535" y="72.5237" width="6.29098" height="13.9999" rx="3.14549" transform="rotate(-65 9.73535 72.5237)" fill="#87A7FD"/>
<rect x="8.28613" y="77.9333" width="6.29098" height="13.9999" rx="3.14549" transform="rotate(-65 8.28613 77.9333)" fill="#87A7FD"/>
<rect x="9.82812" y="66.7712" width="5.59995" height="13.9999" rx="2.79998" transform="rotate(-65 9.82812 66.7712)" fill="white" stroke="#031F88"/>
<rect x="8.43652" y="71.9631" width="5.59995" height="13.9999" rx="2.79998" transform="rotate(-65 8.43652 71.9631)" fill="white" stroke="#031F88"/>
<rect x="7.05664" y="77.113" width="5.59995" height="13.9999" rx="2.79998" transform="rotate(-65 7.05664 77.113)" fill="white" stroke="#031F88"/>
<rect x="30.9688" y="11.4438" width="3.19996" height="36.0997" rx="1.59998" transform="rotate(15 30.9688 11.4438)" fill="#FBC4B0" stroke="#031F88"/>
<path d="M27.6698 19.141C27.6953 18.8301 27.9962 18.6182 28.2975 18.699L32.7442 19.8904C33.0455 19.9712 33.2001 20.3051 33.0668 20.5871L30.5905 25.8246C30.4872 26.0431 30.2425 26.1564 30.0091 26.0939L27.5645 25.4388C27.3311 25.3763 27.1758 25.1558 27.1956 24.9149L27.6698 19.141Z" fill="#F99773" stroke="#031F88"/>
<path d="M33.2989 19.8572C33.2655 20.1618 32.9685 20.365 32.6725 20.2857L28.1628 19.0773C27.8668 18.998 27.7112 18.6735 27.8346 18.393L30.7272 11.8177C30.8266 11.5918 31.0759 11.4722 31.3143 11.5361L33.7138 12.179C33.9522 12.2429 34.1083 12.4711 34.0814 12.7165L33.2989 19.8572Z" fill="#F8632D" stroke="#031F88"/>
<path d="M17.3054 45.2457C17.0654 45.1587 16.9304 44.9008 16.9973 44.651L17.2023 43.8862C17.278 43.6037 17.5831 43.4428 17.8647 43.5444C22.0934 45.0697 24.9314 45.8282 29.3569 46.6232C29.6513 46.6761 29.835 46.9678 29.7593 47.2503L29.5551 48.0126C29.488 48.2628 29.241 48.4191 28.9887 48.3736C24.4037 47.5468 21.5847 46.7973 17.3054 45.2457Z" fill="white" stroke="#031F88"/>
<path d="M45.7193 11.2553C43.1095 10.556 40.4155 12.1173 39.714 14.7356L39.6981 14.7948C39.4756 15.6251 39.9679 16.4808 40.7953 16.7025C41.0258 16.7643 41.2611 16.7724 41.4945 16.7265C42.0824 16.611 42.5442 16.179 42.6995 15.599L42.7154 15.5399C42.9721 14.582 43.9577 14.0108 44.9124 14.2666C45.8673 14.5224 46.4353 15.5099 46.1786 16.4678C45.9219 17.4258 44.9363 17.9971 43.9814 17.7412L43.7533 17.6801C42.9257 17.4583 42.0716 17.9533 41.8492 18.7836L41.1826 21.2713C40.9601 22.1016 41.4523 22.9574 42.2798 23.1791C43.1073 23.4009 43.9614 22.9058 44.1839 22.0755L44.4937 20.9193C46.6727 20.8961 48.6055 19.4159 49.1799 17.272C49.8817 14.6537 48.3292 11.9546 45.7193 11.2553Z" fill="#F8632D"/>
<path d="M42.1019 23.7438C41.0931 23.4735 40.0518 24.0771 39.7806 25.0892C39.5095 26.1012 40.1096 27.1445 41.1182 27.4148C42.127 27.6851 43.1683 27.0816 43.4394 26.0696C43.7106 25.0575 43.1107 24.0142 42.1019 23.7438Z" fill="#F8632D"/>
<path d="M21.0276 15.509C19.7227 15.1593 18.3757 15.94 18.0249 17.2492L18.017 17.2788C17.9058 17.6939 18.1519 18.1218 18.5656 18.2326C18.6809 18.2635 18.7985 18.2676 18.9152 18.2446C19.2092 18.1868 19.4401 17.9708 19.5177 17.6809L19.5257 17.6513C19.654 17.1723 20.1468 16.8867 20.6242 17.0147C21.1016 17.1426 21.3856 17.6363 21.2573 18.1153C21.1289 18.5943 20.6361 18.8799 20.1587 18.752L20.0446 18.7214C19.6308 18.6105 19.2038 18.858 19.0926 19.2731L18.7593 20.517C18.648 20.9322 18.8941 21.3601 19.3079 21.4709C19.7216 21.5818 20.1487 21.3343 20.2599 20.9191L20.4148 20.341C21.5043 20.3294 22.4707 19.5893 22.758 18.5174C23.1088 17.2082 22.3326 15.8586 21.0276 15.509Z" fill="#F8632D"/>
<path d="M19.2194 21.7539C18.715 21.6187 18.1944 21.9205 18.0588 22.4266C17.9232 22.9326 18.2232 23.4542 18.7276 23.5894C19.232 23.7245 19.7526 23.4227 19.8882 22.9168C20.0238 22.4107 19.7238 21.889 19.2194 21.7539Z" fill="#F8632D"/>
<path d="M31.775 2.44583C31.1226 2.27101 30.4491 2.66133 30.2737 3.31592L30.2697 3.33071C30.2141 3.53827 30.3372 3.75221 30.544 3.80763C30.6017 3.82307 30.6605 3.8251 30.7188 3.81363C30.8658 3.78474 30.9813 3.67674 31.0201 3.53177L31.0241 3.51697C31.0882 3.2775 31.3346 3.1347 31.5733 3.19866C31.812 3.26262 31.954 3.50949 31.8899 3.74896C31.8257 3.98846 31.5793 4.13127 31.3406 4.0673L31.2835 4.05202C31.0766 3.99659 30.8631 4.12033 30.8075 4.32789L30.6409 4.94982C30.5852 5.15738 30.7083 5.37134 30.9152 5.42678C31.122 5.48221 31.3356 5.35843 31.3912 5.15087L31.4686 4.86182C32.0134 4.85602 32.4966 4.48596 32.6402 3.95001C32.8156 3.29543 32.4275 2.62066 31.775 2.44583Z" fill="#F8632D"/>
<path d="M30.8704 5.56774C30.6182 5.50016 30.3579 5.65105 30.2901 5.90407C30.2223 6.15707 30.3724 6.4179 30.6245 6.48547C30.8767 6.55304 31.137 6.40216 31.2048 6.14916C31.2726 5.89614 31.1226 5.63531 30.8704 5.56774Z" fill="#F8632D"/>
</svg>
