<svg width="107" height="31" viewBox="0 0 107 31" fill="none" xmlns="http://www.w3.org/2000/svg">
<path d="M104.561 19.4613C105.094 19.9 105.882 19.8234 106.32 19.2904C106.759 18.7573 106.682 17.9695 106.149 17.5309L104.561 19.4613ZM56.5 1.5L56.4098 2.74674L56.5 1.5ZM3.48559 29.52C3.66628 30.1863 4.3529 30.5799 5.01919 30.3992L15.877 27.4547C16.5433 27.274 16.9369 26.5874 16.7562 25.9211C16.5755 25.2548 15.8889 24.8611 15.2226 25.0418L5.57126 27.6592L2.95385 18.0078C2.77316 17.3416 2.08654 16.9479 1.42025 17.1286C0.753966 17.3093 0.360315 17.9959 0.541009 18.6622L3.48559 29.52ZM105.355 18.4961C106.149 17.5309 106.149 17.5305 106.148 17.5301C106.148 17.5299 106.147 17.5294 106.147 17.529C106.146 17.5282 106.145 17.5271 106.143 17.5258C106.14 17.5232 106.136 17.5197 106.13 17.5154C106.12 17.5067 106.104 17.4944 106.085 17.4788C106.046 17.4476 105.99 17.4028 105.916 17.3452C105.769 17.23 105.552 17.0637 105.268 16.853C104.699 16.4317 103.858 15.8327 102.755 15.1096C100.548 13.6634 97.2903 11.7198 93.0589 9.70803C84.5963 5.68452 72.2314 1.38491 56.5902 0.253258L56.4098 2.74674C71.6878 3.85211 83.7504 8.05054 91.9855 11.9658C96.1029 13.9234 99.2616 15.8094 101.384 17.2005C102.445 17.896 103.247 18.4675 103.78 18.8621C104.046 19.0593 104.245 19.2123 104.376 19.3144C104.441 19.3655 104.489 19.4038 104.52 19.4285C104.536 19.4409 104.547 19.4499 104.553 19.4554C104.557 19.4582 104.559 19.46 104.56 19.461C104.561 19.4615 104.561 19.4618 104.561 19.4618C104.561 19.4619 104.561 19.4617 104.561 19.4617C104.561 19.4616 104.561 19.4613 105.355 18.4961ZM56.5902 0.253258C38.9273 -1.02466 25.6661 6.07389 16.8559 13.452C12.4529 17.1394 9.15055 20.9044 6.94718 23.7494C5.84479 25.1728 5.01552 26.3685 4.45929 27.2128C4.18111 27.635 3.97107 27.9696 3.82915 28.201C3.75819 28.3168 3.70426 28.4068 3.66733 28.4691C3.64887 28.5002 3.63466 28.5245 3.6247 28.5416C3.61973 28.5501 3.61581 28.5569 3.61296 28.5618C3.61154 28.5643 3.61037 28.5663 3.60948 28.5678C3.60903 28.5686 3.60856 28.5694 3.60834 28.5698C3.60793 28.5705 3.6076 28.5711 4.69201 29.1928C5.77643 29.8145 5.77623 29.8149 5.77609 29.8151C5.77612 29.8151 5.77605 29.8152 5.77614 29.8151C5.77629 29.8148 5.77672 29.814 5.77741 29.8129C5.77878 29.8105 5.7812 29.8063 5.78468 29.8003C5.79162 29.7884 5.80277 29.7694 5.8181 29.7435C5.84878 29.6917 5.89624 29.6125 5.96047 29.5078C6.08894 29.2982 6.28444 28.9866 6.54692 28.5882C7.07198 27.7913 7.86442 26.648 8.92373 25.2802C11.0437 22.5428 14.2246 18.9165 18.4611 15.3687C26.9299 8.27642 39.5727 1.52856 56.4098 2.74674L56.5902 0.253258Z" fill="#F2C94C"/>
</svg>
