<svg width="20" height="20" viewBox="0 0 20 20" fill="none" xmlns="http://www.w3.org/2000/svg">
<path fill-rule="evenodd" clip-rule="evenodd" d="M11.9998 1C11.9998 0.447715 12.4476 0 12.9998 0H18.9998C19.5521 0 19.9998 0.447715 19.9998 1V6.99964C19.9998 7.55192 19.5521 7.99964 18.9998 7.99964C18.4476 7.99964 17.9998 7.55192 17.9998 6.99964L17.9998 3.31265L12.1212 9.19106C11.7306 9.58157 11.0975 9.58157 10.707 9.19106C10.3164 8.80056 10.3164 8.16742 10.707 7.77692L16.4841 2H12.9998C12.4476 2 11.9998 1.55228 11.9998 1Z" fill="#43D14F"/>
<path d="M18.7355 15.183L18.7583 15.2011L18.7821 15.2178C18.8454 15.2622 18.898 15.3201 18.9361 15.3873C18.9557 15.4218 18.9712 15.4584 18.9825 15.4962C18.9747 15.511 18.965 15.5286 18.9529 15.5492C18.8772 15.6775 18.7499 15.8501 18.5654 16.0611C18.1985 16.4808 17.6821 16.9659 17.1231 17.433C16.5667 17.8979 15.9944 18.323 15.5289 18.6262C15.2946 18.7788 15.1032 18.8901 14.9641 18.9592C14.9361 18.9731 14.9128 18.984 14.8937 18.9926C14.2545 18.9391 10.59 18.4496 6.03241 13.9728C1.55054 9.41113 1.06015 5.74592 1.00656 5.10625C1.01508 5.08719 1.02601 5.06387 1.03985 5.03604C1.10899 4.89697 1.2203 4.70558 1.3729 4.4713C1.67608 4.00584 2.10129 3.43353 2.56622 2.87708C3.03331 2.31806 3.51838 1.80161 3.93813 1.43463C4.14921 1.25009 4.32176 1.12283 4.45009 1.04715C4.47061 1.03504 4.48821 1.02532 4.50301 1.01756C4.54133 1.02895 4.57835 1.0447 4.61331 1.06459C4.68107 1.10314 4.73941 1.15626 4.78411 1.22012L4.80822 1.25455L4.83512 1.28684C4.82864 1.27906 4.84851 1.30751 4.88969 1.36648C5.06454 1.61689 5.62364 2.41757 6.18176 3.33201C6.52096 3.88778 6.83839 4.45131 7.05645 4.92634C7.16588 5.16473 7.23963 5.358 7.28048 5.50239C7.29774 5.5634 7.30545 5.60307 7.30896 5.62468C7.29773 5.65776 7.27326 5.70071 7.20725 5.77547C7.0794 5.92025 6.88208 6.089 6.50633 6.40448L6.50575 6.40497L6.49523 6.41381C6.37561 6.51438 6.09384 6.75128 5.88494 6.94311L5.41133 7.37804L5.61052 7.98943C5.74792 8.41114 5.91529 8.82248 6.11136 9.22032C7.10301 11.2558 8.74787 12.9006 10.7835 13.8922C11.1812 14.088 11.5924 14.2553 12.0139 14.3928L12.6255 14.5922L13.0606 14.1184C13.2574 13.9041 13.5017 13.6129 13.5961 13.5002C13.9128 13.1233 14.0825 12.9252 14.2277 12.7969C14.3084 12.7257 14.352 12.7028 14.3857 12.6927C14.4059 12.6957 14.4456 12.7027 14.5086 12.7201C14.6511 12.7594 14.8427 12.8314 15.0797 12.9396C15.5521 13.155 16.1125 13.4708 16.6662 13.8097C17.6783 14.4293 18.5716 15.0662 18.7155 15.1688C18.7299 15.1791 18.7368 15.1841 18.7355 15.183ZM14.8274 19.0188C14.8276 19.0186 14.8304 19.0177 14.8356 19.0163C14.8299 19.0182 14.8273 19.0189 14.8274 19.0188ZM0.980262 5.17261C0.980142 5.17268 0.98086 5.17004 0.982777 5.16446C0.981341 5.16974 0.980382 5.17253 0.980262 5.17261Z" stroke="#43D14F" stroke-width="2"/>
</svg>
