<svg width="114" height="131" viewBox="0 0 114 131" fill="none" xmlns="http://www.w3.org/2000/svg">
<circle r="56.2374" transform="matrix(-1 0 0 1 57.2353 74.7628)" fill="#16BDC8"/>
<path fill-rule="evenodd" clip-rule="evenodd" d="M47.1362 1.21546C48.8354 0.54418 50.7571 1.37748 51.4284 3.0767L65.3329 38.2734C65.4203 38.4944 65.4891 38.7224 65.5389 38.9548C65.5585 39.0467 65.5626 39.1419 65.5496 39.2351C64.7658 44.8364 60.3322 48.9893 53.5922 54.0206C53.3478 54.203 53.2572 54.5244 53.3668 54.8018L62.3988 77.6644L70.9815 99.3898C72.4583 103.128 70.625 107.356 66.8868 108.833C63.1485 110.309 58.9208 108.476 57.444 104.738L55.0131 98.5845L39.8609 60.2295C39.7448 59.9357 39.4286 59.7588 39.1041 59.8189C34.4683 60.6762 31.0599 60.874 28.1445 60.4036C25.3991 59.9605 23.136 58.9323 20.7308 57.3837C20.4067 57.1751 20.1399 56.8895 19.9455 56.5565C19.8808 56.4455 19.8245 56.3298 19.7773 56.2103L5.89326 21.0655C5.22198 19.3663 6.05528 17.4446 7.75449 16.7733L47.1362 1.21546Z" fill="white"/>
<rect width="47.6364" height="34.404" rx="1" transform="matrix(-0.930055 0.367421 0.367421 0.930055 49.8398 0.85791)" fill="#16BDC8"/>
<ellipse rx="3.24189" ry="3.70502" transform="matrix(-0.930055 0.367421 0.367421 0.930055 44.1509 29.8533)" fill="white"/>
<ellipse rx="1.38938" ry="1.85251" transform="matrix(-0.930055 0.367421 0.367421 0.930055 44.1502 29.8531)" fill="#031F88"/>
<ellipse rx="3.24189" ry="3.70502" transform="matrix(-0.930055 0.367421 0.367421 0.930055 29.5063 35.6395)" fill="white"/>
<ellipse rx="1.38938" ry="1.85251" transform="matrix(-0.930055 0.367421 0.367421 0.930055 29.5056 35.6382)" fill="#031F88"/>
<rect width="2.64646" height="13.2323" rx="1.32323" transform="matrix(-0.930055 0.367421 0.367421 0.930055 41.2266 4.26172)" fill="white"/>
<rect width="2.64646" height="18.5253" rx="1.32323" transform="matrix(-0.930055 0.367421 0.367421 0.930055 47.3789 1.83105)" fill="white"/>
<rect width="2.64646" height="18.5253" rx="1.32323" transform="matrix(-0.930055 0.367421 0.367421 0.930055 16.6133 13.9858)" fill="white"/>
<rect width="2.64646" height="7.93939" rx="1.32323" transform="matrix(-0.930055 0.367421 0.367421 0.930055 35.0723 6.69238)" fill="white"/>
<rect width="2.64646" height="7.93939" rx="1.32323" transform="matrix(-0.930055 0.367421 0.367421 0.930055 10.459 16.4165)" fill="white"/>
<rect width="2.64646" height="14.5556" rx="1.32323" transform="matrix(-0.930055 0.367421 0.367421 0.930055 28.9199 9.12305)" fill="white"/>
<rect width="2.64646" height="6.61616" rx="1.32323" transform="matrix(-0.930055 0.367421 0.367421 0.930055 22.7656 11.5552)" fill="white"/>
<path opacity="0.6" d="M56.6706 99.1749L41.842 61.6392C41.842 61.6392 41.1127 59.7932 40.0112 58.8056C38.9097 57.818 32.9991 60.8644 26.6179 59.1171C24.4908 58.5347 22.0829 56.6404 22.0829 56.6404C31.6533 59.2619 41.3646 55.0328 42.4711 57.8338C44.4159 62.7565 53.0015 85.0787 59.5422 98.0405L56.6706 99.1749Z" fill="#376CFB"/>
<path fill-rule="evenodd" clip-rule="evenodd" d="M47.1362 1.21546C48.8354 0.54418 50.7571 1.37748 51.4284 3.0767L65.3329 38.2734C65.4203 38.4944 65.4891 38.7224 65.5389 38.9548C65.5585 39.0467 65.5626 39.1419 65.5496 39.2351C64.7658 44.8364 60.3322 48.9893 53.5922 54.0206C53.3478 54.203 53.2572 54.5244 53.3668 54.8018L62.3988 77.6644L70.9815 99.3898C72.4583 103.128 70.625 107.356 66.8868 108.833C63.1485 110.309 58.9208 108.476 57.444 104.738L55.0131 98.5845L39.8609 60.2295C39.7448 59.9357 39.4286 59.7588 39.1041 59.8189C34.4683 60.6762 31.0599 60.874 28.1445 60.4036C25.3991 59.9605 23.136 58.9323 20.7308 57.3837C20.4067 57.1751 20.1399 56.8895 19.9455 56.5565C19.8808 56.4455 19.8245 56.3298 19.7773 56.2103L5.89326 21.0655C5.22198 19.3663 6.05528 17.4446 7.75449 16.7733L47.1362 1.21546ZM21.678 56.4184C21.3303 56.1988 21.0658 55.8703 20.9147 55.4878L7.12393 20.5793C6.72117 19.5598 7.22115 18.4068 8.24067 18.004L47.6224 2.44614C48.6419 2.04337 49.7949 2.54335 50.1977 3.56288L64.1359 38.8449C64.1999 39.0066 64.2214 39.1828 64.1926 39.3544C63.3796 44.1951 59.4519 47.9952 52.8006 52.9602C52.0829 53.4959 51.8046 54.4489 52.1362 55.288L69.7508 99.876C70.9591 102.935 69.4592 106.394 66.4006 107.602C63.342 108.81 59.883 107.31 58.6747 104.252L41.0915 59.7433C40.7378 58.8479 39.7963 58.3452 38.8635 58.5177C34.2916 59.3632 31.0546 59.5328 28.3553 59.0972C25.9263 58.7053 23.8912 57.8165 21.678 56.4184Z" fill="#031F88"/>
<rect width="8.10971" height="17.4494" rx="4.05486" transform="matrix(-0.518195 -0.855263 -0.848843 0.528645 64.1348 82.0586)" fill="#87A7FD"/>
<rect width="8.10971" height="17.4494" rx="4.05486" transform="matrix(-0.518195 -0.855263 -0.848843 0.528645 66.459 87.9395)" fill="#87A7FD"/>
<rect width="8.10971" height="17.4494" rx="4.05486" transform="matrix(-0.518195 -0.855263 -0.848843 0.528645 69.1133 94.6616)" fill="#87A7FD"/>
<rect width="7.22645" height="18.0661" rx="3.61323" transform="matrix(-0.523342 -0.852123 -0.852123 0.523342 65.5332 80.1958)" fill="white" stroke="#031F88"/>
<rect width="7.22645" height="18.0661" rx="3.61323" transform="matrix(-0.523342 -0.852123 -0.852123 0.523342 68.082 86.6465)" fill="white" stroke="#031F88"/>
<rect width="7.22645" height="18.0661" rx="3.61323" transform="matrix(-0.523342 -0.852123 -0.852123 0.523342 70.6074 93.0444)" fill="white" stroke="#031F88"/>
<path d="M61.0234 29.1641C45.4403 39.3772 35.6843 43.1085 16.719 46.6667L20.3093 55.7547C20.4835 56.1958 20.95 56.4529 21.417 56.37C39.7342 53.1193 49.3639 49.216 64.2307 39.4589C64.6259 39.1995 64.7886 38.6948 64.6149 38.2552L61.0234 29.1641Z" fill="#EFF2F9" stroke="#031F88"/>
<path d="M46.6395 41.3743C46.4816 40.9745 46.0294 40.7784 45.6296 40.9364L36.0013 44.7401C35.6015 44.898 35.4055 45.3502 35.5634 45.75C36.748 48.7486 40.1392 50.2191 43.1378 49.0345L43.355 48.9487C46.3536 47.7641 47.8241 44.3729 46.6395 41.3743Z" fill="#031F88"/>
<path d="M44.9904 47.9005C45.562 47.4759 46.0252 47.0207 45.9071 46.7217C45.001 44.4281 38.8477 46.8592 39.7538 49.1528C39.8719 49.4519 40.5212 49.4676 41.2285 49.3868C42.5874 49.2317 43.8926 48.716 44.9904 47.9005Z" fill="#FB275D"/>
</svg>
