<svg width="43" height="53" viewBox="0 0 43 53" fill="none" xmlns="http://www.w3.org/2000/svg">
<circle cx="21.9502" cy="26.3447" r="11.5889" fill="#EFF2F9"/>
<rect x="0.0753477" y="0.281201" width="3.70537" height="26.3493" rx="1.85268" transform="matrix(-0.5 0.866025 0.866025 0.5 15.0394 6.73746)" fill="white" stroke="#031F88" stroke-width="0.411707"/>
<path opacity="0.6" d="M33.2389 21.2973L21.069 14.2709L21.4905 13.5407L21.9121 12.8105C22.364 13.0714 21.5455 13.8799 21.9585 14.1355C25.772 16.4957 29.2308 18.3332 33.7307 20.4454L33.2389 21.2973Z" fill="#376CFB"/>
<path d="M13.0502 17.4986C13.1042 17.9494 13.3674 18.3483 13.7605 18.5752L15.4655 19.5596C16.1547 19.9575 17.036 19.7214 17.4339 19.0322L25.0618 5.82025C25.4597 5.13104 25.2236 4.24975 24.5344 3.85184L19.598 1.00183C18.9088 0.603913 18.0275 0.840052 17.6296 1.52926L12.493 10.4262C12.3372 10.6959 12.2731 11.0088 12.3101 11.318L13.0502 17.4986Z" fill="white" stroke="#031F88" stroke-width="0.411707"/>
<path d="M13.4403 17.5632C13.4872 17.9486 13.7126 18.2896 14.0488 18.4838L15.6133 19.387C16.2041 19.7281 16.9594 19.5257 17.3005 18.9349L24.8447 5.86802C25.1858 5.27727 24.9833 4.52188 24.3926 4.18081L19.5501 1.385C18.9594 1.04393 18.204 1.24634 17.8629 1.83709L12.8365 10.5431C12.7026 10.775 12.6477 11.044 12.68 11.3098L13.4403 17.5632Z" fill="#3962FA"/>
<rect width="2.52587" height="5.62105" rx="1.26294" transform="matrix(-0.939693 -0.34202 -0.34202 0.939693 31.5049 15.5234)" fill="#87A7FD"/>
<rect width="2.52587" height="5.62105" rx="1.26294" transform="matrix(-0.939693 -0.34202 -0.34202 0.939693 33.209 16.5068)" fill="#87A7FD"/>
<rect width="2.52587" height="5.62105" rx="1.26294" transform="matrix(-0.939693 -0.34202 -0.34202 0.939693 35.1562 17.6318)" fill="#87A7FD"/>
<rect width="2.24842" height="5.62105" rx="1.12421" transform="matrix(-0.939693 -0.34202 -0.34202 0.939693 31.5459 14.9502)" fill="white" stroke="#031F88" stroke-width="0.411707"/>
<rect x="-0.281201" y="0.0753477" width="0.52129" height="6.33356" rx="0.205854" transform="matrix(-0.866025 -0.5 -0.5 0.866025 23.1897 9.80309)" fill="white" stroke="#031F88" stroke-width="0.411707"/>
<rect width="2.24842" height="5.62105" rx="1.12421" transform="matrix(-0.939693 -0.34202 -0.34202 0.939693 33.415 16.0293)" fill="white" stroke="#031F88" stroke-width="0.411707"/>
<rect width="2.24842" height="5.62105" rx="1.12421" transform="matrix(-0.939693 -0.34202 -0.34202 0.939693 35.2686 17.0996)" fill="white" stroke="#031F88" stroke-width="0.411707"/>
<circle r="1.40526" transform="matrix(-0.5 0.866025 0.866025 0.5 17.4382 7.63056)" fill="white"/>
<ellipse rx="0.411707" ry="0.617561" transform="matrix(-0.5 0.866025 0.866025 0.5 17.6229 8.23467)" fill="#031F88"/>
<circle r="1.40526" transform="matrix(-0.5 0.866025 0.866025 0.5 15.0495 11.7683)" fill="white"/>
<ellipse rx="0.411707" ry="0.617561" transform="matrix(-0.5 0.866025 0.866025 0.5 15.2557 12.3343)" fill="#031F88"/>
<path d="M20.0596 10.1172C19.9506 11.4485 19.6612 12.0629 18.5138 12.7946" stroke="#031F88" stroke-width="0.411707" stroke-linecap="round"/>
<path d="M17.8223 12.5859C18.3109 12.696 18.4771 12.8747 18.6709 13.3232" stroke="#031F88" stroke-width="0.411707" stroke-linecap="round" stroke-linejoin="bevel"/>
<path d="M20.5537 10.0352C20.0662 10.1503 19.8386 10.0624 19.4678 9.74419" stroke="#031F88" stroke-width="0.411707" stroke-linecap="round" stroke-linejoin="bevel"/>
<path d="M2.67267 28.6357C1.71743 26.9813 1.72986 24.8567 2.08205 23.0614C2.25694 22.1699 2.51238 21.3768 2.75946 20.7892C2.8832 20.4949 3.0025 20.2578 3.10539 20.0879C3.15695 20.0028 3.20141 19.9395 3.23713 19.8961C3.2575 19.8714 3.27107 19.8579 3.27762 19.8518C3.2862 19.8492 3.30463 19.8442 3.33631 19.8389C3.39178 19.8297 3.46883 19.8228 3.56833 19.8207C3.76688 19.8166 4.03196 19.8318 4.34868 19.8718C4.98114 19.9516 5.7957 20.1269 6.65523 20.4212C8.38622 21.0138 10.2324 22.0653 11.1876 23.7197C12.1121 25.321 11.6313 26.8573 10.8645 28.0466C10.482 28.6397 10.0365 29.131 9.68467 29.4751C9.50927 29.6466 9.35842 29.7803 9.25225 29.8704C9.1992 29.9155 9.15739 29.9496 9.12937 29.972C9.12734 29.9737 9.12539 29.9752 9.12351 29.9767C9.12127 29.9776 9.11894 29.9785 9.11652 29.9795C9.08306 29.9925 9.03263 30.0116 8.96708 30.0351C8.83592 30.0819 8.64473 30.1457 8.40848 30.2119C7.93461 30.3445 7.28642 30.4846 6.5815 30.5193C5.16813 30.5888 3.5972 30.237 2.67267 28.6357Z" fill="#FED4DF" stroke="#031F88" stroke-width="0.68282"/>
<path d="M3.45081 20.1513C2.89129 20.4742 0.962763 25.3181 2.79356 28.489C4.62436 31.6598 9.02906 29.8128 9.02906 29.8128C3.80968 29.6425 1.86038 28.3895 3.45081 20.1513Z" fill="#FD8FAB"/>
<path d="M15.6531 24.402C16.6083 22.7475 18.4544 21.696 20.1854 21.1033C21.0449 20.809 21.8594 20.6337 22.4918 20.5539C22.8085 20.5139 23.0736 20.4987 23.2721 20.5028C23.3716 20.5049 23.4486 20.5118 23.5041 20.521C23.5357 20.5263 23.5541 20.5313 23.5627 20.5339C23.5692 20.5401 23.5828 20.5535 23.6032 20.5783C23.6389 20.6217 23.6834 20.685 23.735 20.7702C23.8378 20.94 23.9572 21.1772 24.0809 21.4715C24.328 22.0591 24.5835 22.8522 24.7584 23.7437C25.1106 25.5391 25.1232 27.6637 24.168 29.3181C23.2435 30.9194 21.6726 31.2712 20.2592 31.2017C19.5543 31.167 18.9061 31.0269 18.4322 30.8942C18.196 30.8281 18.0048 30.7643 17.8736 30.7174C17.8081 30.694 17.7576 30.6749 17.7242 30.6618C17.7218 30.6609 17.7194 30.66 17.7172 30.6591C17.7153 30.6576 17.7134 30.656 17.7113 30.6544C17.6833 30.6319 17.6415 30.5978 17.5885 30.5528C17.4823 30.4626 17.3314 30.3289 17.156 30.1574C16.8042 29.8134 16.3588 29.3221 15.9763 28.7289C15.2094 27.5397 14.7287 26.0033 15.6531 24.402Z" fill="#FED4DF" stroke="#031F88" stroke-width="0.68282"/>
<rect x="15.3639" y="42.5572" width="5.46256" height="9.55948" rx="1.70705" fill="#FED4DF" stroke="#031F88" stroke-width="0.68282"/>
<rect x="5.8043" y="42.5572" width="5.46256" height="9.55948" rx="1.70705" fill="#FED4DF" stroke="#031F88" stroke-width="0.68282"/>
<path d="M25.2647 36.2337C25.2647 42.9316 19.8349 48.3614 13.137 48.3614C6.43907 48.3614 2.04883 42.9316 2.04883 36.2337C2.04883 30.6896 6.89991 25.1455 13.137 25.1455C19.8349 25.1455 25.2647 29.5357 25.2647 36.2337Z" fill="#FED4DF"/>
<path d="M8.87598 41.5328C8.87485 38.0662 17.7526 40.5084 17.7526 41.5327C17.7526 41.8198 17.6454 42.2678 17.491 42.7639C16.9357 44.5479 15.1829 45.6299 13.3145 45.6299C11.4459 45.6299 9.69294 44.5477 9.13769 42.7635C8.98333 42.2675 8.87607 41.8197 8.87598 41.5328Z" fill="#031F88"/>
<path d="M9.48332 47.0036C10.7629 47.4433 12.1655 47.6786 13.6568 47.6786C12.1379 47.7895 10.7367 47.5354 9.48332 47.0036C5.01584 45.4681 2.04883 41.4404 2.04883 36.2337C2.04883 30.5102 6.89991 25.1455 13.137 25.1455C-0.663707 27.521 1.1156 43.4528 9.48332 47.0036Z" fill="#FD8FAB"/>
<circle r="2.33064" transform="matrix(-0.5 0.866025 0.866025 0.5 9.32866 33.1085)" fill="white"/>
<circle r="2.33064" transform="matrix(-0.5 0.866025 0.866025 0.5 16.8404 33.1085)" fill="white"/>
<circle cx="13.3146" cy="36.4122" r="11.6079" stroke="#031F88" stroke-width="0.68282"/>
<rect x="9.21836" y="39.1432" width="8.19384" height="4.77974" rx="2.38987" fill="#FD8FAB" stroke="#031F88" stroke-width="0.68282"/>
<path d="M11.9454 45.33C11.7471 45.2505 11.6084 45.1551 11.6084 45.0439C11.6084 43.7714 15.0225 43.7715 15.0225 45.044C15.0225 45.1552 14.8838 45.2506 14.6855 45.3301C13.8187 45.6777 12.8122 45.6776 11.9454 45.33Z" fill="#3962FA"/>
<circle cx="11.6078" cy="41.5336" r="1.36564" fill="white"/>
<circle cx="15.0219" cy="41.5336" r="1.36564" fill="white"/>
<circle cx="9.559" cy="32.6567" r="1.36564" fill="#031F88"/>
<circle cx="17.0707" cy="32.6567" r="1.36564" fill="#031F88"/>
</svg>
