<svg width="70" height="80" viewBox="0 0 70 80" fill="none" xmlns="http://www.w3.org/2000/svg">
<path d="M33 1.15504C34.2376 0.440509 35.7624 0.440507 37 1.15504L67.6411 18.8456C68.8787 19.5602 69.6411 20.8807 69.6411 22.3097V57.6909C69.6411 59.12 68.8787 60.4405 67.6411 61.155L37 78.8456C35.7624 79.5602 34.2376 79.5602 33 78.8456L2.35901 61.155C1.12141 60.4405 0.359009 59.12 0.359009 57.6909V22.3097C0.359009 20.8807 1.1214 19.5602 2.35901 18.8456L33 1.15504Z" fill="white"/>
<path d="M33 1.15504C34.2376 0.440509 35.7624 0.440507 37 1.15504L67.6411 18.8456C68.8787 19.5602 69.6411 20.8807 69.6411 22.3097V57.6909C69.6411 59.12 68.8787 60.4405 67.6411 61.155L37 78.8456C35.7624 79.5602 34.2376 79.5602 33 78.8456L2.35901 61.155C1.12141 60.4405 0.359009 59.12 0.359009 57.6909V22.3097C0.359009 20.8807 1.1214 19.5602 2.35901 18.8456L33 1.15504Z" fill="#43D14F" fill-opacity="0.2"/>
<path fill-rule="evenodd" clip-rule="evenodd" d="M65.6411 22.3097L35 4.61914L4.35901 22.3097V57.6909L35 75.3815L65.6411 57.6909V22.3097ZM37 1.15504C35.7624 0.440507 34.2376 0.440509 33 1.15504L2.35901 18.8456C1.1214 19.5602 0.359009 20.8807 0.359009 22.3097V57.6909C0.359009 59.12 1.12141 60.4405 2.35901 61.155L33 78.8456C34.2376 79.5602 35.7624 79.5602 37 78.8456L67.6411 61.155C68.8787 60.4405 69.6411 59.12 69.6411 57.6909V22.3097C69.6411 20.8807 68.8787 19.5602 67.6411 18.8456L37 1.15504Z" fill="white"/>
<path d="M48.2749 46.9376C48.1921 46.8724 42.9176 42.887 41.267 43.1959C40.479 43.3343 40.0285 43.8678 39.1244 44.9358C38.9789 45.1083 38.6294 45.5214 38.3576 45.8153C37.7863 45.6303 36.7414 44.5768 36.2023 44.3131C33.4198 42.9684 31.1716 40.7365 29.8169 37.9743C29.5511 37.4392 29.3243 36.8859 29.1381 36.3186C29.4351 36.0479 29.8513 35.7009 30.0291 35.5525C31.0999 34.66 31.6383 34.2127 31.7777 33.4285C32.0636 31.8039 29.0905 29.333 29.0451 29.2788C28.8485 29.0001 28.5853 27.9428 28.2874 27.7746C27.9896 27.6063 28.6293 27.0478 28.2875 27.0225C26.5318 27.0225 23.5 33 23.5 33C23.5 33 23 36 29.2624 44.0126C38.8449 53.3176 42.5849 53.274 42.6485 53.274C43.7446 53.274 49.2498 50.3853 49.2498 48.6424C49.2246 48.3043 49.124 47.976 48.9555 47.6812C48.7869 47.3864 48.5544 47.1324 48.2749 46.9376Z" fill="#43D14F" fill-opacity="0.8"/>
<path fill-rule="evenodd" clip-rule="evenodd" d="M47.8382 48.2035L47.7926 48.1673C47.798 48.1716 47.7789 48.1581 47.738 48.129C47.4611 47.9326 46.1843 47.0271 44.7383 46.1419C43.9147 45.6377 43.0938 45.176 42.412 44.865C42.0936 44.7198 41.8459 44.6261 41.669 44.5741C41.5939 44.6408 41.4905 44.7449 41.3373 44.9167C41.1811 45.092 41.0061 45.3001 40.7772 45.5724C40.6365 45.7405 40.2632 46.1856 39.9593 46.5166L39.0891 47.4644L37.8658 47.0654C37.2114 46.8519 36.5729 46.5922 35.9553 46.2881C32.8022 44.7519 30.2543 42.204 28.718 39.0509C28.4136 38.4331 28.1537 37.7944 27.9404 37.1395L27.542 35.9168L28.4892 35.0469C28.8109 34.7515 29.2407 34.3902 29.4195 34.2398L29.438 34.2243C29.7097 33.9961 29.9172 33.8218 30.0921 33.666C30.2574 33.5188 30.3596 33.4179 30.4261 33.3439C30.3714 33.1641 30.2758 32.9154 30.1303 32.5984C29.8151 31.9118 29.3505 31.0856 28.8458 30.2586C28.0499 28.9544 27.2602 27.8181 26.9756 27.4085C26.8913 27.2872 26.8513 27.2297 26.8686 27.2504L26.8147 27.1858L26.7665 27.1169C26.7649 27.1146 26.7633 27.1124 26.7616 27.1101C26.6215 27.2079 26.4458 27.3453 26.2363 27.5284C25.6334 28.0556 24.9243 28.809 24.2331 29.6363C23.5461 30.4585 22.9206 31.3011 22.4783 31.9801C22.2657 32.3066 22.1142 32.5666 22.0209 32.7504C22.1483 33.9264 23.0498 39.1394 29.4022 45.6067C35.863 51.9518 41.0745 52.852 42.2499 52.9792C42.4336 52.8859 42.6937 52.7344 43.0204 52.5216C43.6994 52.0794 44.5419 51.4539 45.364 50.767C46.1912 50.0758 46.9446 49.3667 47.4717 48.7638C47.6544 48.5547 47.7915 48.3793 47.8893 48.2393C47.8881 48.2385 47.887 48.2377 47.8858 48.2369L47.8382 48.2035ZM48.046 47.9832C48.0503 47.9712 48.0532 47.965 48.0536 47.9649C48.054 47.9648 48.0519 47.9708 48.046 47.9832ZM50 48.3C50 50.038 43.564 55 42.479 55C42.416 55 36.013 54.909 27.988 47.021C20.091 38.988 20 32.584 20 32.521C20 31.437 24.962 25 26.7 25C27.0383 25.0252 27.3668 25.1253 27.6617 25.2931C27.9565 25.4609 28.2104 25.6921 28.405 25.97C28.45 26.024 32.738 32.018 32.455 33.638C32.3173 34.4182 31.7864 34.864 30.7312 35.7499L30.7139 35.7645C30.5326 35.9169 30.1305 36.2551 29.842 36.52C30.0263 37.0857 30.2509 37.6374 30.514 38.171C31.855 40.9255 34.0805 43.151 36.835 44.492C37.3687 44.7549 37.9204 44.9795 38.486 45.164C38.755 44.871 39.101 44.459 39.245 44.287L39.2494 44.2818C40.1415 43.2203 40.5873 42.6898 41.366 42.552C43 42.244 48.953 46.535 49.035 46.6C49.3117 46.7942 49.5418 47.0475 49.7087 47.3415C49.8755 47.6355 49.975 47.9629 50 48.3ZM27.0352 26.9463C27.0351 26.9467 27.0289 26.9497 27.0169 26.9539C27.0293 26.9481 27.0353 26.946 27.0352 26.9463Z" fill="#031F88"/>
</svg>
