<svg width="115" height="179" viewBox="0 0 115 179" fill="none" xmlns="http://www.w3.org/2000/svg">
<path d="M75.3315 133.73H65.2249V152.26H75.3315V133.73Z" fill="#E0CAB1"/>
<path d="M58.9263 135.816H55.8687V141.858H58.9263V135.816Z" fill="#E0CAB1"/>
<path d="M66.6255 135.816H63.5679V141.858H66.6255V135.816Z" fill="#E0CAB1"/>
<path d="M58.9263 145.023H55.8687V151.065H58.9263V145.023Z" fill="#E0CAB1"/>
<path d="M66.6255 145.023H63.5679V151.065H66.6255V145.023Z" fill="#E0CAB1"/>
<path d="M79.616 120.738H78.2153V141.417H79.616V120.738Z" fill="#E0CAB1"/>
<path d="M83.3509 120.738H81.9502V141.417H83.3509V120.738Z" fill="#E0CAB1"/>
<path d="M87.095 120.738H85.6943V141.417H87.095V120.738Z" fill="#E0CAB1"/>
<path d="M84.1199 118.844L59.3018 122.517L38.109 176.674C37.8399 177.436 37.6107 178.211 37.4224 178.997H64.1629L84.1199 118.844Z" fill="#3962FA"/>
<path d="M68.3647 118.844L72.4752 178.997H99.3072L99.0326 145.748C98.8861 137.888 96.3595 133.93 91.773 127.549L88.1661 122.526L68.3647 118.844Z" fill="#3962FA"/>
<path d="M70.9921 157.902L69.7745 144.688L63.229 138.949" stroke="black" stroke-width="0.45" stroke-linecap="round" stroke-linejoin="round"/>
<path d="M26.6016 61.4258H27.8557C28.1349 61.4341 28.4089 61.5032 28.6587 61.6285C28.9085 61.7538 29.1281 61.9322 29.3022 62.1512L40.5715 76.4114C40.8658 76.7809 41.0145 77.2462 40.9892 77.7185C40.9639 78.1909 40.7663 78.6375 40.4341 78.9732L40.0954 79.3038L26.6016 61.4258Z" fill="#030907"/>
<path d="M19.0216 68.0658L26.1164 61.6382C26.2032 61.5606 26.305 61.5017 26.4153 61.4651C26.5257 61.4285 26.6423 61.4149 26.7581 61.4252C26.8739 61.4356 26.9864 61.4695 27.0886 61.5251C27.1907 61.5807 27.2805 61.6567 27.3523 61.7484L40.1687 78.1572C40.301 78.3247 40.3651 78.5362 40.3481 78.7492C40.3311 78.9622 40.2343 79.1608 40.0772 79.305L33.0098 85.8061C32.9249 85.8868 32.824 85.9486 32.7136 85.9875C32.6033 86.0265 32.486 86.0417 32.3694 86.0322C32.2529 86.0226 32.1396 85.9886 32.037 85.9322C31.9344 85.8759 31.8448 85.7985 31.774 85.7051L18.8843 69.2228C18.7569 69.0484 18.7002 68.8319 18.7257 68.6172C18.7512 68.4024 18.8569 68.2054 19.0216 68.0658Z" fill="#030907"/>
<path d="M29.5494 94.1935C29.5494 94.1935 20.5504 81.4025 22.4179 77.9408C24.2855 74.479 28.1304 69.5481 29.9979 69.5665C31.8655 69.5848 36.1773 73.2394 34.9963 76.1502C33.8154 79.061 31.8746 82.5778 31.8746 82.5778C33.7014 84.922 34.5601 87.8806 34.2731 90.842C33.9619 96.2044 29.5494 94.1935 29.5494 94.1935Z" fill="#D08864"/>
<path d="M58.3313 76.4132C56.3583 75.9364 54.2798 76.195 52.4828 77.141C50.6859 78.087 49.2929 79.6558 48.5633 81.5553L34.0625 115.53C33.3242 117.454 33.3143 119.582 34.0346 121.513C34.7549 123.443 36.1555 125.042 37.9715 126.007C39.0231 126.562 40.18 126.887 41.366 126.96C42.5519 127.034 43.7399 126.854 44.8516 126.433C45.9632 126.012 46.9733 125.36 47.8151 124.519C48.6569 123.678 49.3113 122.667 49.7351 121.554L64.1811 87.5789C64.606 86.4643 64.7893 85.2716 64.7187 84.0803C64.6482 82.889 64.3255 81.7264 63.772 80.67C63.2185 79.6136 62.4471 78.6876 61.5089 77.9536C60.5708 77.2196 59.4875 76.6945 58.3313 76.4132Z" fill="#F8632D"/>
<path d="M35.8845 88.5508L47.996 110.699L33.7881 120.689L24.5054 93.2981L35.8845 88.5508Z" fill="#F8632D"/>
<path d="M41.3223 98.5078L45.7531 106.607" stroke="black" stroke-width="0.45" stroke-linecap="round" stroke-linejoin="round"/>
<path d="M85.2366 76.3937L95.8102 77.9088L97.934 89.1664L88.1752 118.844H59.3658L53.4702 87.9451L56.2624 76.2009L64.6113 75.7969L85.2366 76.3937Z" fill="#F8632D"/>
<path d="M59.3109 122.527H88.1753V118.845H59.3109V122.527Z" fill="#312220"/>
<path d="M56.7386 105.087C56.7386 105.087 53.4704 95.1521 54.102 87.0625" stroke="black" stroke-width="0.45" stroke-linecap="round" stroke-linejoin="round"/>
<path d="M90.4546 78.6373C88.7035 79.5195 87.3309 81.0091 86.5918 82.8295C85.8527 84.65 85.7973 86.6776 86.4358 88.5359L98.2543 121.822C99.6001 125.715 103.628 128.892 107.638 128.011C112.389 126.973 115.172 121.106 113.579 116.496L101.678 83.2285C101.3 82.143 100.697 81.1504 99.9071 80.3168C99.1176 79.4832 98.1604 78.8275 97.099 78.3933C96.0376 77.9591 94.8962 77.7563 93.7506 77.7984C92.6051 77.8405 91.4816 78.1264 90.4546 78.6373Z" fill="#F8632D"/>
<path d="M86.8569 89.7461L92.1208 105.007" stroke="black" stroke-width="0.45" stroke-linecap="round" stroke-linejoin="round"/>
<path d="M83.9826 157.411C85.522 157.407 87.0258 156.946 88.3036 156.085C89.5814 155.223 90.5759 154.002 91.1612 152.573C91.7465 151.145 91.8964 149.575 91.5919 148.062C91.2873 146.548 90.542 145.159 89.4503 144.071C88.3586 142.982 86.9695 142.243 85.4588 141.946C83.948 141.65 82.3835 141.809 80.9632 142.405C79.5429 143 78.3306 144.005 77.4797 145.292C76.6288 146.578 76.1775 148.089 76.1829 149.633C76.1902 151.702 77.0157 153.683 78.4782 155.141C79.9407 156.599 81.9204 157.416 83.9826 157.411Z" fill="#D08864"/>
<path d="M81.7671 141.11L97.0369 114.711L112.105 124.453L91.7822 149.696L81.7671 141.11Z" fill="#F8632D"/>
<path d="M65.5726 53.9979C65.6483 55.1001 65.2867 56.1876 64.5665 57.0235C63.8463 57.8594 62.8259 58.376 61.7277 58.4606C60.5835 58.5118 59.4618 58.131 58.5838 57.3932C57.7059 56.6554 57.1357 55.6143 56.9856 54.4754C56.9074 53.3742 57.2669 52.2866 57.9857 51.4504C58.7044 50.6142 59.7239 50.0974 60.8214 50.0128C61.9671 49.9592 63.0912 50.339 63.971 51.077C64.8509 51.815 65.4225 52.8574 65.5726 53.9979Z" fill="#BA6E4D"/>
<path d="M67.605 65.0264L67.4951 75.127C67.4951 78.6714 69.5457 80.5813 72.9146 80.5813C75.7892 80.5813 78.9475 79.2131 78.856 76.0911L77.3821 60.2148L67.605 65.0264Z" fill="#D08864"/>
<path d="M67.4951 71.2809L78.4806 64.3115C78.2243 61.2905 67.6324 63.9993 67.6324 63.9993L67.4951 71.2809Z" fill="#312220"/>
<path d="M70.7357 66.9671C64.9867 66.9671 59.8326 63.2941 59.8326 56.5268V48.18C59.7205 45.285 60.7336 42.4594 62.6584 40.2993C64.5832 38.1391 67.2692 36.8131 70.1499 36.6011C76.1736 36.243 84.0374 40.981 84.3852 47.2067L82.7832 55.0943C82.8107 62.229 77.62 66.5447 70.7357 66.9671Z" fill="#D08864"/>
<path d="M81.6756 54.3825L80.1468 51.9492C79.8518 50.1831 80.0449 48.3697 80.7052 46.706C81.282 45.4848 81.2087 43.5749 79.1032 42.0047C76.9153 40.5458 74.4131 39.6292 71.8028 39.3307C69.1925 39.0322 66.5488 39.3601 64.0897 40.2876C62.5148 40.9141 61.2467 42.1334 60.556 43.6851C60.2505 44.3571 60.0675 45.0786 60.0159 45.8154V44.2911C60.1166 38.5246 64.8769 34.3833 70.626 34.5211C72.9188 34.4231 75.2158 34.5214 77.492 34.8149C83.9002 35.9627 88.8711 42.0047 86.9212 48.2762L84.9072 52.4726L81.6756 54.3825Z" fill="#030907"/>
<path d="M88.8892 54.9675C89.0174 57.2815 86.8752 59.2465 84.6507 59.3842C84.1121 59.4088 83.5741 59.3262 83.0676 59.1412C82.561 58.9562 82.096 58.6723 81.6994 58.3061C81.3028 57.9399 80.9824 57.4985 80.7568 57.0074C80.5311 56.5164 80.4046 55.9853 80.3846 55.445C80.2473 53.1402 82.8289 51.1844 85.0626 51.0467C87.2963 50.9089 88.7611 52.6627 88.8892 54.9675Z" fill="#D08864"/>
<path d="M83.0854 56.7006C83.0854 56.7006 83.5615 53.4868 86.61 54.001" stroke="black" stroke-width="0.45" stroke-linecap="round" stroke-linejoin="round"/>
<path d="M79.1033 41.9862C79.1033 41.9862 77.4829 41.068 74.6267 42.2709C68.6854 44.8052 61.5906 42.831 62.442 39.9753L69.9396 37.6797L78.6089 38.7999L79.1033 41.9862Z" fill="#030907"/>
<path d="M64.7488 58.1436L72.8964 58.0977C72.5 58.9815 71.8566 59.7312 71.0443 60.256C70.2319 60.7807 69.2853 61.058 68.3191 61.0544C65.5086 61.137 64.7488 58.1436 64.7488 58.1436Z" fill="white"/>
<path d="M65.8657 54.457L65.5361 56.0823L66.8819 56.1741" stroke="black" stroke-width="0.45" stroke-linecap="round" stroke-linejoin="round"/>
<path d="M72.4111 46.8275C72.4111 46.8275 70.1499 46.5612 70.1499 47.507C70.1499 47.507 70.1499 48.1406 72.0724 48.3334C73.9948 48.5263 74.535 48.3885 74.7272 47.7917C74.9194 47.1948 73.4547 46.8643 72.4111 46.8275Z" fill="#030907"/>
<path d="M62.7713 46.8008C62.7713 46.8008 64.6022 46.663 64.7487 47.5446C64.7487 47.5446 64.8128 48.1506 63.2016 48.2332C61.5904 48.3159 61.0594 48.0863 60.9221 47.5996C60.7848 47.113 61.9108 46.7824 62.7713 46.8008Z" fill="#030907"/>
<path d="M63.9554 52.2842C63.972 51.7469 63.5676 51.2984 63.0521 51.2824C62.5366 51.2664 62.1054 51.6891 62.0888 52.2264C62.0723 52.7637 62.4767 53.2122 62.9922 53.2281C63.5076 53.2441 63.9389 52.8215 63.9554 52.2842Z" fill="#030907"/>
<path d="M72.4753 52.2351C72.4646 52.4139 72.4019 52.5857 72.295 52.7293C72.1881 52.8729 72.0417 52.982 71.8738 53.0431C71.7058 53.1042 71.5237 53.1147 71.3499 53.0733C71.1761 53.0319 71.0182 52.9404 70.8956 52.8101C70.773 52.6797 70.6911 52.5162 70.66 52.3398C70.6289 52.1633 70.6499 51.9816 70.7205 51.817C70.7912 51.6524 70.9083 51.5121 71.0574 51.4135C71.2065 51.3148 71.3812 51.262 71.5598 51.2617C71.6848 51.2615 71.8085 51.2869 71.9233 51.3365C72.0381 51.386 72.1416 51.4587 72.2274 51.5498C72.3131 51.641 72.3794 51.7489 72.422 51.8667C72.4646 51.9846 72.4828 52.1099 72.4753 52.2351Z" fill="#030907"/>
<path d="M64.6572 75.8272C71.5307 75.1755 78.458 75.3759 85.2825 76.4241L68.6395 85.2575L64.6572 75.8272Z" fill="#D08864"/>
<path d="M80.5039 35.7913C80.5021 37.842 81.1067 39.8473 82.2413 41.5533C83.3759 43.2593 84.9894 44.5895 86.8779 45.3756C88.7663 46.1616 90.8447 46.3682 92.8502 45.9693C94.8557 45.5703 96.6982 44.5837 98.1445 43.1342C99.5909 41.6847 100.576 39.8376 100.976 37.8263C101.375 35.8151 101.171 33.7302 100.389 31.8354C99.6071 29.9405 98.2824 28.3209 96.5825 27.1814C94.8826 26.0418 92.884 25.4336 90.8394 25.4336C89.4826 25.4324 88.1388 25.6994 86.8849 26.2194C85.631 26.7394 84.4915 27.5021 83.5317 28.464C82.5718 29.426 81.8104 30.5682 81.2908 31.8254C80.7713 33.0827 80.5039 34.4303 80.5039 35.7913Z" fill="#030907"/>
<path d="M34.3575 38.4153C42.1552 32.9367 44.0486 22.1551 38.5866 14.3338C33.1246 6.5125 22.3755 4.61334 14.5779 10.0919C6.78022 15.5705 4.88681 26.3521 10.3488 34.1734C15.8108 41.9947 26.5599 43.8939 34.3575 38.4153Z" fill="#43D14F"/>
<path d="M37.0013 30.4844L40.1597 40.0891L30.584 36.0764L37.0013 30.4844Z" fill="#43D14F"/>
<path fill-rule="evenodd" clip-rule="evenodd" d="M34.0851 29.8348L34.0519 29.8085C34.0559 29.8116 34.0419 29.8017 34.0121 29.7806C33.8102 29.6374 32.8796 28.9774 31.8256 28.3321C31.2253 27.9646 30.627 27.6281 30.13 27.4015C29.8979 27.2956 29.7173 27.2273 29.5884 27.1894C29.5337 27.238 29.4583 27.3138 29.3467 27.4391C29.2328 27.5669 29.1052 27.7186 28.9384 27.917C28.8358 28.0396 28.5637 28.364 28.3422 28.6053L27.7079 29.2961L26.8163 29.0053C26.3393 28.8497 25.8739 28.6604 25.4237 28.4387C23.1254 27.319 21.2682 25.4618 20.1484 23.1636C19.9266 22.7133 19.7372 22.2477 19.5817 21.7703L19.2913 20.8791L19.9817 20.2451C20.2162 20.0297 20.5294 19.7664 20.6598 19.6567L20.6732 19.6454C20.8713 19.4791 21.0226 19.352 21.15 19.2385C21.2705 19.1312 21.345 19.0576 21.3935 19.0037C21.3537 18.8727 21.2839 18.6914 21.1779 18.4603C20.9481 17.9599 20.6095 17.3577 20.2416 16.7549C19.6615 15.8042 19.0859 14.976 18.8784 14.6774C18.817 14.589 18.7878 14.5471 18.8004 14.5622L18.7612 14.5151L18.7261 14.4649C18.7249 14.4632 18.7237 14.4616 18.7225 14.4599C18.6204 14.5312 18.4923 14.6313 18.3396 14.7648C17.9001 15.1491 17.3832 15.6983 16.8794 16.3013C16.3787 16.9005 15.9228 17.5147 15.6004 18.0096C15.4454 18.2476 15.335 18.4371 15.2669 18.5711C15.3598 19.4283 16.0169 23.2281 20.6472 27.942C25.3564 32.567 29.1551 33.2231 30.0118 33.3158C30.1458 33.2478 30.3353 33.1374 30.5734 32.9823C31.0684 32.66 31.6825 32.204 32.2817 31.7034C32.8846 31.1996 33.4338 30.6827 33.818 30.2432C33.9512 30.0909 34.0511 29.963 34.1223 29.861C34.1215 29.8604 34.1207 29.8598 34.1198 29.8592L34.0851 29.8348ZM34.2366 29.6743C34.2397 29.6655 34.2419 29.661 34.2422 29.6609C34.2424 29.6609 34.2409 29.6652 34.2366 29.6743ZM35.6609 29.9052C35.6609 31.172 30.9697 34.7888 30.1788 34.7888C30.1329 34.7888 25.4658 34.7225 19.6164 28.9729C13.8603 23.1177 13.7939 18.4498 13.7939 18.4039C13.7939 17.6138 17.4107 12.9219 18.6776 12.9219C18.9242 12.9403 19.1636 13.0132 19.3785 13.1355C19.5935 13.2578 19.7785 13.4263 19.9203 13.6289C19.9531 13.6683 23.0786 18.0373 22.8724 19.2181C22.772 19.7868 22.385 20.1117 21.6159 20.7575L21.6032 20.7681C21.4711 20.8792 21.178 21.1257 20.9678 21.3188C21.1021 21.7311 21.2658 22.1333 21.4576 22.5222C22.435 24.5299 24.0572 26.1521 26.0649 27.1295C26.4539 27.3212 26.8561 27.4849 27.2683 27.6194C27.4644 27.4058 27.7166 27.1055 27.8216 26.9801L27.8247 26.9763C28.475 26.2026 28.7999 25.8159 29.3676 25.7155C30.5586 25.491 34.8977 28.6187 34.9575 28.6661C35.1591 28.8076 35.3269 28.9922 35.4485 29.2065C35.5701 29.4208 35.6427 29.6594 35.6609 29.9052ZM18.9219 14.3406C18.9218 14.3408 18.9173 14.343 18.9085 14.3461C18.9176 14.3418 18.9219 14.3403 18.9219 14.3406Z" fill="white"/>
</svg>
