<svg width="16" height="18" viewBox="0 0 16 18" fill="none" xmlns="http://www.w3.org/2000/svg">
<path fill-rule="evenodd" clip-rule="evenodd" d="M15 8C15 11.866 11.866 15 8 15C4.13401 15 1 11.866 1 8C1 4.13401 4.13401 1 8 1C11.866 1 15 4.13401 15 8ZM16 8C16 12.4183 12.4183 16 8 16C3.58172 16 0 12.4183 0 8C0 3.58172 3.58172 0 8 0C12.4183 0 16 3.58172 16 8ZM6.61657 10.1H8.4073C8.68344 10.1 8.9073 10.3238 8.9073 10.6C8.9073 10.8761 8.68344 11.1 8.4073 11.1H5.4073C5.13116 11.1 4.9073 10.8761 4.9073 10.6L4.9073 7.59998C4.9073 7.32383 5.13116 7.09998 5.4073 7.09998C5.68344 7.09998 5.9073 7.32383 5.9073 7.59998V9.39503L9.32367 5.97866H7.52863C7.25248 5.97866 7.02863 5.7548 7.02863 5.47866C7.02863 5.20252 7.25248 4.97866 7.52863 4.97866L10.5286 4.97866C10.8048 4.97866 11.0286 5.20252 11.0286 5.47866L11.0286 8.47866C11.0286 8.7548 10.8048 8.97866 10.5286 8.97866C10.2525 8.97866 10.0286 8.7548 10.0286 8.47866L10.0286 6.68792L6.61657 10.1Z" fill="#86969E"/>
</svg>
