<svg width="104" height="81" viewBox="0 0 104 81" fill="none" xmlns="http://www.w3.org/2000/svg">
<circle cx="28.5" cy="42.5" r="22.5" fill="#EFF2F9"/>
<path d="M102.5 78.5C102.5 77.3954 101.605 76.5 100.5 76.5H22.5V80.5H100.5C101.605 80.5 102.5 79.6046 102.5 78.5Z" fill="#D0F2F4" stroke="#031F88"/>
<rect x="-0.5" y="-0.5" width="9" height="4" rx="2" transform="matrix(4.37114e-08 -1 -1 -4.37114e-08 103 80)" fill="#3962FA" stroke="#031F88"/>
<path d="M43.0494 69.5999L42.3736 69.4694L42.7065 68.8671C44.4866 65.6461 45.5 61.9421 45.5 58C45.5 45.5736 35.4264 35.5 23 35.5C10.5736 35.5 0.5 45.5736 0.5 58C0.5 66.5259 4.39457 71.1875 7.85355 74.6464C11.2517 78.0446 17.1207 80.5 23 80.5H42C45.0376 80.5 47.5 78.0376 47.5 75C47.5 72.3216 45.585 70.0895 43.0494 69.5999Z" fill="#3962FA" stroke="#031F88"/>
<circle r="16.5" transform="matrix(-1 0 0 1 23 58)" fill="#87A7FD" stroke="#031F88"/>
<circle r="10.5" transform="matrix(-1 0 0 1 23 58)" fill="#D0F2F4" stroke="#031F88"/>
<path d="M42.5 75.5C42.5 74.9477 42.0523 74.5 41.5 74.5C40.9477 74.5 40.5 74.9477 40.5 75.5V80.5H42.5V75.5Z" fill="#D0F2F4" stroke="#031F88"/>
<path d="M37.5 75.5C37.5 74.9477 37.0523 74.5 36.5 74.5C35.9477 74.5 35.5 74.9477 35.5 75.5V80.5H37.5V75.5Z" fill="#D0F2F4" stroke="#031F88"/>
<path d="M32.5 75.5C32.5 74.9477 32.0523 74.5 31.5 74.5C30.9477 74.5 30.5 74.9477 30.5 75.5V80.5H32.5V75.5Z" fill="#D0F2F4" stroke="#031F88"/>
<rect width="6" height="2" rx="1" transform="matrix(-1 0 0 1 30 55)" fill="white"/>
<rect width="2" height="2" rx="1" transform="matrix(-1 0 0 1 28 55)" fill="#031F88"/>
<rect width="6" height="2" rx="1" transform="matrix(-1 0 0 1 22 55)" fill="white"/>
<rect width="2" height="2" rx="1" transform="matrix(-1 0 0 1 20 55)" fill="#031F88"/>
<path d="M26 63.5001C26 63.5001 23.9592 62.2864 22.5 62.0001C21.1588 61.7368 19 62.0001 19 62.0001" stroke="#031F88" stroke-linecap="round" stroke-linejoin="round"/>
<path d="M34.233 9.12636C31.6232 8.42707 28.9292 9.98836 28.2276 12.6067L28.2118 12.6659C27.9893 13.4961 28.4816 14.3519 29.309 14.5736C29.5395 14.6354 29.7748 14.6435 30.0082 14.5976C30.5961 14.482 31.0578 14.05 31.2132 13.4701L31.2291 13.411C31.4857 12.4531 32.4714 11.8819 33.4261 12.1377C34.381 12.3935 34.949 13.381 34.6923 14.3389C34.4356 15.2969 33.45 15.8681 32.4951 15.6123L32.2669 15.5512C31.4394 15.3294 30.5853 15.8244 30.3628 16.6547L29.6962 19.1424C29.4738 19.9727 29.9659 20.8285 30.7935 21.0502C31.621 21.272 32.4751 20.7769 32.6976 19.9466L33.0074 18.7904C35.1864 18.7672 37.1192 17.287 37.6936 15.1431C38.3953 12.5248 36.8429 9.82568 34.233 9.12636Z" fill="#031F88"/>
<path d="M30.6155 21.6149C29.6067 21.3446 28.5655 21.9482 28.2943 22.9603C28.0231 23.9723 28.6232 25.0156 29.6319 25.2859C30.6407 25.5562 31.6819 24.9527 31.9531 23.9407C32.2243 22.9286 31.6243 21.8852 30.6155 21.6149Z" fill="#031F88"/>
<path d="M9.54034 13.3802C8.23544 13.0306 6.88843 13.8112 6.53764 15.1204L6.52971 15.15C6.41848 15.5651 6.66463 15.993 7.07833 16.1038C7.19359 16.1347 7.31121 16.1388 7.42792 16.1158C7.72187 16.0581 7.95275 15.8421 8.03044 15.5521L8.03837 15.5225C8.1667 15.0436 8.65952 14.758 9.13689 14.8859C9.61433 15.0138 9.89832 15.5075 9.76998 15.9865C9.64164 16.4655 9.14882 16.7511 8.67138 16.6232L8.5573 16.5926C8.14354 16.4817 7.71648 16.7292 7.60525 17.1444L7.27195 18.3882C7.16072 18.8034 7.4068 19.2313 7.82056 19.3422C8.23432 19.453 8.66139 19.2055 8.77262 18.7904L8.92753 18.2122C10.017 18.2006 10.9834 17.4605 11.2707 16.3886C11.6215 15.0794 10.8453 13.7299 9.54034 13.3802Z" fill="#031F88"/>
<path d="M7.73209 19.625C7.22769 19.4898 6.70706 19.7916 6.57147 20.2977C6.43588 20.8037 6.73593 21.3253 7.24027 21.4605C7.74467 21.5956 8.26529 21.2938 8.40087 20.7878C8.53647 20.2818 8.23649 19.7601 7.73209 19.625Z" fill="#031F88"/>
<path d="M20.2887 0.317048C19.6363 0.142227 18.9628 0.532546 18.7874 1.18713L18.7834 1.20193C18.7278 1.40949 18.8509 1.62342 19.0577 1.67885C19.1153 1.69429 19.1742 1.69631 19.2325 1.68485C19.3795 1.65596 19.4949 1.54796 19.5338 1.40298L19.5377 1.38819C19.6019 1.14872 19.8483 1.00592 20.087 1.06987C20.3257 1.13384 20.4677 1.38071 20.4035 1.62018C20.3394 1.85968 20.093 2.00248 19.8542 1.93852L19.7972 1.92323C19.5903 1.8678 19.3768 1.99155 19.3212 2.19911L19.1545 2.82104C19.0989 3.0286 19.222 3.24256 19.4288 3.29799C19.6357 3.35343 19.8492 3.22965 19.9049 3.02209L19.9823 2.73304C20.527 2.72723 21.0102 2.35718 21.1539 1.82123C21.3293 1.16665 20.9412 0.491877 20.2887 0.317048Z" fill="#031F88"/>
<path d="M19.3841 3.43895C19.1319 3.37138 18.8716 3.52226 18.8038 3.77529C18.736 4.02828 18.886 4.28912 19.1382 4.35668C19.3904 4.42426 19.6507 4.27337 19.7185 4.02038C19.7863 3.76735 19.6363 3.50653 19.3841 3.43895Z" fill="#031F88"/>
</svg>
