<svg width="97" height="85" viewBox="0 0 97 85" fill="none" xmlns="http://www.w3.org/2000/svg">
<path d="M13.5357 39.493C12.3905 40.2946 10.8236 40.0424 10.0361 38.9296C9.24848 37.8168 9.53841 36.2648 10.6836 35.4632L13.5357 39.493ZM57.6113 26.978L58.4804 24.6294L57.6113 26.978ZM81.1874 69.8069C80.3223 70.8987 78.7391 71.1109 77.6513 70.2809L59.9237 56.7555C58.8358 55.9255 58.6552 54.3676 59.5203 53.2758C60.3855 52.184 61.9686 51.9717 63.0565 52.8017L78.8144 64.8243L91.3456 49.0094C92.2107 47.9176 93.7939 47.7053 94.8818 48.5353C95.9696 49.3653 96.1502 50.9232 95.2851 52.015L81.1874 69.8069ZM12.1097 37.4781C10.6836 35.4632 10.6843 35.4627 10.6851 35.4622C10.6855 35.4619 10.6864 35.4613 10.6872 35.4607C10.6887 35.4597 10.6907 35.4583 10.693 35.4567C10.6976 35.4534 10.7038 35.4492 10.7115 35.4438C10.7269 35.4332 10.7483 35.4184 10.7756 35.3996C10.8302 35.3621 10.9086 35.3087 11.0097 35.2407C11.2121 35.1047 11.5058 34.9102 11.8836 34.6675C12.639 34.1822 13.7324 33.5034 15.1056 32.7142C17.8479 31.138 21.7276 29.1092 26.2775 27.3022C35.2815 23.7263 47.3708 20.8359 58.4804 24.6294L56.7422 29.3267C47.3518 26.1202 36.6903 28.4798 28.0685 31.9039C23.8055 33.597 20.1535 35.5056 17.5674 36.992C16.2764 37.734 15.2563 38.3677 14.5644 38.8122C14.2186 39.0343 13.9551 39.2089 13.7812 39.3258C13.6942 39.3843 13.6297 39.4283 13.5885 39.4566C13.5679 39.4707 13.5531 39.481 13.5443 39.4871C13.5398 39.4901 13.5369 39.4922 13.5355 39.4932C13.5348 39.4937 13.5344 39.4939 13.5345 39.4939C13.5345 39.4939 13.5348 39.4936 13.5348 39.4936C13.5352 39.4934 13.5357 39.493 12.1097 37.4781ZM58.4804 24.6294C63.5435 26.3582 67.4588 30.1429 70.4687 34.5362C73.4871 38.942 75.7261 44.1487 77.3716 49.0571C79.0219 53.9799 80.1054 58.695 80.7765 62.1718C81.1127 63.9132 81.3467 65.3514 81.4973 66.3589C81.5727 66.8628 81.6272 67.2594 81.6632 67.5329C81.6812 67.6697 81.6946 67.7757 81.7036 67.849C81.7082 67.8857 81.7116 67.9142 81.714 67.9342C81.7152 67.9442 81.7162 67.9522 81.7168 67.9579C81.7172 67.9608 81.7175 67.9632 81.7177 67.965C81.7178 67.9659 81.7179 67.9669 81.7179 67.9673C81.718 67.9681 81.7181 67.9688 79.2177 68.304C76.7173 68.6392 76.7173 68.6397 76.7173 68.6399C76.7173 68.6399 76.7173 68.64 76.7173 68.6398C76.7173 68.6395 76.7172 68.6387 76.717 68.6373C76.7167 68.6345 76.7161 68.6296 76.7153 68.6226C76.7136 68.6086 76.7109 68.5863 76.7071 68.5559C76.6996 68.495 76.6879 68.4019 76.6716 68.2783C76.6391 68.0311 76.5885 67.6625 76.5176 67.1882C76.3757 66.2393 76.1529 64.8692 75.8314 63.2034C75.1871 59.8658 74.1521 55.3704 72.5895 50.709C71.022 46.0333 68.9537 41.2822 66.2795 37.3789C63.5967 33.463 60.4339 30.5872 56.7422 29.3267L58.4804 24.6294Z" fill="black"/>
</svg>
