<svg width="28" height="28" viewBox="0 0 28 28" fill="none" xmlns="http://www.w3.org/2000/svg">
<path fill-rule="evenodd" clip-rule="evenodd" d="M0 4C0 1.79086 1.79086 0 4 0H24C26.2091 0 28 1.79086 28 4V24C28 26.2091 26.2091 28 24 28H4C1.79086 28 0 26.2091 0 24V4ZM4 8.5C4 7.67157 4.67157 7 5.5 7H10.5C11.3284 7 12 7.67157 12 8.5C12 9.32843 11.3284 10 10.5 10H5.5C4.67157 10 4 9.32843 4 8.5ZM5.5 12.5C4.67157 12.5 4 13.1716 4 14C4 14.8284 4.67157 15.5 5.5 15.5H10.5C11.3284 15.5 12 14.8284 12 14C12 13.1716 11.3284 12.5 10.5 12.5H5.5ZM4 19.5C4 18.6716 4.67157 18 5.5 18H10.5C11.3284 18 12 18.6716 12 19.5C12 20.3284 11.3284 21 10.5 21H5.5C4.67157 21 4 20.3284 4 19.5ZM19.9726 7.0002C20.1481 6.99712 20.3225 7.0293 20.4853 7.09482C20.6482 7.16034 20.7963 7.25788 20.9208 7.38167C21.0453 7.50545 21.1437 7.65295 21.2101 7.81545C21.2762 7.97692 21.3094 8.14994 21.3078 8.32436V8.61211C22.5938 8.98008 23.7426 9.934 23.7426 11.5593C23.7426 11.9075 23.6043 12.2414 23.3581 12.4877C23.1118 12.7339 22.7779 12.8722 22.4297 12.8722C22.0815 12.8722 21.7475 12.7339 21.5013 12.4877C21.2551 12.2414 21.1167 11.9075 21.1167 11.5593C21.1167 11.4588 21.0688 11.3471 20.867 11.2348C20.6569 11.1179 20.3414 11.0441 19.9956 11.0441C19.6498 11.0441 19.3343 11.1179 19.1243 11.2348C18.9224 11.3471 18.8745 11.4588 18.8745 11.5593C18.8745 11.8317 18.908 11.9472 18.9352 12.0045C18.9585 12.0535 18.9961 12.1025 19.124 12.202C19.3418 12.3713 19.7762 12.5395 20.4091 12.7505L20.5256 12.7891C21.0995 12.979 21.8257 13.2192 22.4757 13.7248C23.2122 14.2976 23.7426 15.2643 23.7426 16.4337C23.7426 18.0596 22.5948 19.016 21.3078 19.3842V19.6648C21.3108 19.8374 21.2797 20.009 21.2162 20.1696C21.1521 20.3322 21.056 20.4803 20.9338 20.6053C20.8116 20.7302 20.6657 20.8295 20.5045 20.8973C20.3434 20.9651 20.1704 21 19.9956 21C19.8208 21 19.6478 20.9651 19.4867 20.8973C19.3256 20.8295 19.1796 20.7302 19.0574 20.6053C18.9352 20.4803 18.8392 20.3322 18.775 20.1696C18.7115 20.009 18.6805 19.8374 18.6835 19.6648V19.3841C17.398 19.0161 16.2526 18.0612 16.2502 16.4388C16.2472 16.2661 16.2782 16.0945 16.3417 15.9337C16.4059 15.7712 16.5019 15.6231 16.6241 15.4981C16.7464 15.3731 16.8923 15.2739 17.0534 15.2061C17.2145 15.1383 17.3876 15.1034 17.5623 15.1034C17.7371 15.1034 17.9102 15.1383 18.0713 15.2061C18.2324 15.2739 18.3783 15.3731 18.5005 15.4981C18.6228 15.6231 18.7188 15.7712 18.783 15.9337C18.8463 16.094 18.8774 16.2651 18.8745 16.4374C18.8757 16.5369 18.9249 16.6472 19.1243 16.7583C19.3343 16.8752 19.6498 16.9489 19.9956 16.9489C20.3414 16.9489 20.6569 16.8752 20.867 16.7583C21.0688 16.6459 21.1167 16.5342 21.1167 16.4337C21.1167 16.1613 21.0832 16.0458 21.056 15.9885C21.0327 15.9395 20.9951 15.8905 20.8672 15.791C20.6491 15.6214 20.2137 15.4515 19.5821 15.241L19.4586 15.2C18.8865 15.011 18.163 14.7718 17.5155 14.2683C16.7786 13.6951 16.2502 12.7281 16.2502 11.5593C16.2502 9.93279 17.3959 8.97738 18.6835 8.61011V8.32438C18.6803 7.97888 18.8135 7.64601 19.0542 7.39807C19.2958 7.14934 19.6259 7.00631 19.9726 7.0002Z" fill="#86969E"/>
</svg>
