<svg width="26" height="23" viewBox="0 0 26 23" fill="none" xmlns="http://www.w3.org/2000/svg">
<path d="M25.9098 9.54316C25.7774 9.29545 25.5193 9.14071 25.238 9.14071H24.2472C23.1775 3.88526 18.477 0 13.0504 0C9.11829 0 5.5105 1.98389 3.3994 5.30756C3.1686 5.67095 3.28433 6.14992 3.65011 6.36905L6.26705 7.93937C6.61962 8.15209 7.07417 8.04423 7.29807 7.70131C8.57157 5.74047 10.7221 4.57036 13.0504 4.57036C15.9753 4.57036 18.5588 6.44415 19.5147 9.14071H19.1442C18.8631 9.14071 18.6049 9.29545 18.4725 9.54316C18.3401 9.79087 18.3542 10.0914 18.5104 10.325L21.5573 14.8954C21.6987 15.1074 21.9367 15.2346 22.1911 15.2346C22.4454 15.2346 22.6835 15.1074 22.8248 14.8954L25.8717 10.325C26.0273 10.0913 26.0422 9.79082 25.9098 9.54316Z" fill="#43D14F" fill-opacity="0.2"/>
<path d="M22.1077 17.0525L19.7556 15.0924C19.4052 14.8017 18.8863 14.881 18.6361 15.2516C17.3551 17.15 15.2292 18.2836 12.9492 18.2836C10.0243 18.2836 7.44081 16.4098 6.48494 13.7133H6.85539C7.13657 13.7133 7.3947 13.5586 7.52714 13.3108C7.65957 13.0631 7.64541 12.7626 7.4892 12.529L4.4423 7.95865C4.15965 7.53462 3.45738 7.53462 3.17473 7.95865L0.127829 12.529C-0.0276651 12.7626 -0.0424934 13.0631 0.0898946 13.3108C0.222283 13.5586 0.480406 13.7133 0.761636 13.7133H1.75249C2.82216 18.9687 7.52272 22.854 12.9493 22.854C16.6225 22.854 20.0957 21.0702 22.2388 18.082C22.4715 17.7577 22.4142 17.3084 22.1077 17.0525Z" fill="#43D14F"/>
</svg>
