<svg width="16" height="16" viewBox="0 0 16 16" fill="none" xmlns="http://www.w3.org/2000/svg">
<path d="M11.5 9C12.0523 9 12.5092 9.45134 12.4093 9.99452C12.2745 10.7279 11.9912 11.4298 11.5731 12.0556C10.9687 12.9601 10.1098 13.6651 9.10476 14.0813C8.09977 14.4976 6.9939 14.6065 5.92701 14.3943C4.86011 14.1821 3.8801 13.6583 3.11092 12.8891C2.34173 12.1199 1.8179 11.1399 1.60568 10.073C1.39346 9.0061 1.50238 7.90023 1.91867 6.89524C2.33495 5.89025 3.0399 5.03126 3.94437 4.42692C4.57018 4.00876 5.27207 3.7255 6.00549 3.59066C6.54867 3.49079 7 3.94772 7 4.5V8C7 8.55228 7.44772 9 8 9H11.5Z" stroke="#86969E" stroke-width="2" stroke-linejoin="round"/>
<path d="M13.5 6.5C14.0523 6.5 14.5101 6.04792 14.4003 5.50665C14.3366 5.1924 14.2427 4.88425 14.1194 4.58658C13.8681 3.97995 13.4998 3.42876 13.0355 2.96447C12.5712 2.50017 12.02 2.13188 11.4134 1.8806C11.1158 1.75731 10.8076 1.66337 10.4934 1.59967C9.95208 1.48995 9.5 1.94772 9.5 2.5V5.5C9.5 6.05228 9.94772 6.5 10.5 6.5H13.5Z" stroke="#86969E" stroke-width="2" stroke-linecap="round" stroke-linejoin="round"/>
</svg>
