<svg width="28" height="28" viewBox="0 0 28 28" fill="none" xmlns="http://www.w3.org/2000/svg">
<path d="M13.0601 1.08757C13.3791 0.209455 14.6209 0.209458 14.9399 1.08757L17.7652 8.86544C17.9045 9.24903 18.2629 9.50946 18.6708 9.52344L26.9411 9.80691C27.8748 9.83892 28.2585 11.02 27.522 11.5947L20.9978 16.6852C20.6761 16.9362 20.5391 17.3576 20.6519 17.7499L22.9379 25.7029C23.196 26.6008 22.1913 27.3308 21.4171 26.8079L14.5597 22.1761C14.2215 21.9476 13.7785 21.9476 13.4403 22.1761L6.58288 26.8079C5.80869 27.3308 4.80398 26.6008 5.06207 25.7029L7.34812 17.7499C7.46087 17.3576 7.32395 16.9362 7.00219 16.6852L0.478048 11.5947C-0.258521 11.02 0.125241 9.83892 1.05894 9.80691L9.32919 9.52344C9.73706 9.50946 10.0955 9.24903 10.2348 8.86544L13.0601 1.08757Z" fill="#43D14F"/>
</svg>
