<svg width="632" height="338" viewBox="0 0 632 338" fill="none" xmlns="http://www.w3.org/2000/svg">
<line x1="36" y1="8" x2="618" y2="8.00005" stroke="#EFF2F9" stroke-width="2" stroke-dasharray="4 4"/>
<line x1="36" y1="120" x2="618" y2="120" stroke="#EFF2F9" stroke-width="2" stroke-dasharray="4 4"/>
<line x1="36" y1="176" x2="618" y2="176" stroke="#EFF2F9" stroke-width="2" stroke-dasharray="4 4"/>
<line x1="36" y1="232" x2="618" y2="232" stroke="#EFF2F9" stroke-width="2" stroke-dasharray="4 4"/>
<line x1="36" y1="288" x2="618" y2="288" stroke="#EFF2F9" stroke-width="2" stroke-dasharray="4 4"/>
<line x1="36" y1="64" x2="618" y2="64.0001" stroke="#EFF2F9" stroke-width="2" stroke-dasharray="4 4"/>
<path d="M19.3378 293.14C18.5164 293.14 17.8071 292.925 17.2098 292.496C16.6124 292.057 16.1551 291.455 15.8378 290.69C15.5298 289.925 15.3758 289.061 15.3758 288.1C15.3758 287.139 15.5298 286.275 15.8378 285.51C16.1551 284.745 16.6124 284.147 17.2098 283.718C17.8071 283.279 18.5164 283.06 19.3378 283.06C20.1591 283.06 20.8684 283.279 21.4658 283.718C22.0631 284.147 22.5158 284.745 22.8238 285.51C23.1411 286.275 23.2998 287.139 23.2998 288.1C23.2998 289.061 23.1411 289.925 22.8238 290.69C22.5158 291.455 22.0631 292.057 21.4658 292.496C20.8684 292.925 20.1591 293.14 19.3378 293.14ZM19.3378 291.908C20.1964 291.908 20.8404 291.567 21.2698 290.886C21.7084 290.195 21.9278 289.267 21.9278 288.1C21.9278 286.933 21.7084 286.009 21.2698 285.328C20.8404 284.637 20.1964 284.292 19.3378 284.292C18.4791 284.292 17.8304 284.637 17.3918 285.328C16.9624 286.009 16.7478 286.933 16.7478 288.1C16.7478 289.267 16.9624 290.195 17.3918 290.886C17.8304 291.567 18.4791 291.908 19.3378 291.908Z" fill="#86969E"/>
<path d="M7.4298 235.852L11.4758 232.212C11.8865 231.839 12.1945 231.489 12.3998 231.162C12.6051 230.826 12.7078 230.429 12.7078 229.972C12.7078 229.449 12.5351 229.039 12.1898 228.74C11.8538 228.441 11.4245 228.292 10.9018 228.292C10.2951 228.292 9.80046 228.465 9.4178 228.81C9.04446 229.155 8.8438 229.631 8.8158 230.238H7.5278C7.5558 229.631 7.71913 229.085 8.0178 228.6C8.31646 228.115 8.71313 227.737 9.2078 227.466C9.70246 227.195 10.2625 227.06 10.8878 227.06C11.4758 227.06 12.0031 227.177 12.4698 227.41C12.9458 227.643 13.3191 227.975 13.5898 228.404C13.8605 228.833 13.9958 229.333 13.9958 229.902C13.9958 230.509 13.8558 231.055 13.5758 231.54C13.3051 232.016 12.8991 232.492 12.3578 232.968L9.1798 235.768H14.1918V237H7.4298V235.852ZM19.3378 237.14C18.5164 237.14 17.8071 236.925 17.2098 236.496C16.6124 236.057 16.1551 235.455 15.8378 234.69C15.5298 233.925 15.3758 233.061 15.3758 232.1C15.3758 231.139 15.5298 230.275 15.8378 229.51C16.1551 228.745 16.6124 228.147 17.2098 227.718C17.8071 227.279 18.5164 227.06 19.3378 227.06C20.1591 227.06 20.8684 227.279 21.4658 227.718C22.0631 228.147 22.5158 228.745 22.8238 229.51C23.1411 230.275 23.2998 231.139 23.2998 232.1C23.2998 233.061 23.1411 233.925 22.8238 234.69C22.5158 235.455 22.0631 236.057 21.4658 236.496C20.8684 236.925 20.1591 237.14 19.3378 237.14ZM19.3378 235.908C20.1964 235.908 20.8404 235.567 21.2698 234.886C21.7084 234.195 21.9278 233.267 21.9278 232.1C21.9278 230.933 21.7084 230.009 21.2698 229.328C20.8404 228.637 20.1964 228.292 19.3378 228.292C18.4791 228.292 17.8304 228.637 17.3918 229.328C16.9624 230.009 16.7478 230.933 16.7478 232.1C16.7478 233.267 16.9624 234.195 17.3918 234.886C17.8304 235.567 18.4791 235.908 19.3378 235.908Z" fill="#86969E"/>
<path d="M11.7334 178.844H7.16938V177.612L11.8174 171.2H13.0774V177.612H14.2534V178.844H13.0774V181H11.7334V178.844ZM11.7334 177.612V173.314L8.59738 177.612H11.7334ZM19.3378 181.14C18.5164 181.14 17.8071 180.925 17.2098 180.496C16.6124 180.057 16.1551 179.455 15.8378 178.69C15.5298 177.925 15.3758 177.061 15.3758 176.1C15.3758 175.139 15.5298 174.275 15.8378 173.51C16.1551 172.745 16.6124 172.147 17.2098 171.718C17.8071 171.279 18.5164 171.06 19.3378 171.06C20.1591 171.06 20.8684 171.279 21.4658 171.718C22.0631 172.147 22.5158 172.745 22.8238 173.51C23.1411 174.275 23.2998 175.139 23.2998 176.1C23.2998 177.061 23.1411 177.925 22.8238 178.69C22.5158 179.455 22.0631 180.057 21.4658 180.496C20.8684 180.925 20.1591 181.14 19.3378 181.14ZM19.3378 179.908C20.1964 179.908 20.8404 179.567 21.2698 178.886C21.7084 178.195 21.9278 177.267 21.9278 176.1C21.9278 174.933 21.7084 174.009 21.2698 173.328C20.8404 172.637 20.1964 172.292 19.3378 172.292C18.4791 172.292 17.8304 172.637 17.3918 173.328C16.9624 174.009 16.7478 174.933 16.7478 176.1C16.7478 177.267 16.9624 178.195 17.3918 178.886C17.8304 179.567 18.4791 179.908 19.3378 179.908Z" fill="#86969E"/>
<path d="M10.5646 125.14C10.0606 125.14 9.56126 125.019 9.06659 124.776C8.57193 124.524 8.16593 124.183 7.84859 123.754C7.55926 123.353 7.34459 122.881 7.20459 122.34C7.07393 121.799 7.00859 121.173 7.00859 120.464C7.00859 119.381 7.15793 118.434 7.45659 117.622C7.75526 116.81 8.18926 116.18 8.75859 115.732C9.32793 115.284 10.0093 115.06 10.8026 115.06C11.6333 115.06 12.3146 115.293 12.8466 115.76C13.3786 116.217 13.6913 116.833 13.7846 117.608H12.4826C12.3426 117.123 12.1373 116.782 11.8666 116.586C11.5959 116.39 11.2273 116.292 10.7606 116.292C10.3219 116.292 9.92993 116.423 9.58459 116.684C9.23926 116.936 8.96393 117.305 8.75859 117.79C8.55326 118.275 8.45059 118.849 8.45059 119.512C8.77726 119.129 9.15059 118.845 9.57059 118.658C9.99993 118.471 10.4619 118.378 10.9566 118.378C11.5446 118.378 12.0813 118.523 12.5666 118.812C13.0519 119.092 13.4299 119.489 13.7006 120.002C13.9806 120.506 14.1206 121.075 14.1206 121.71C14.1206 122.354 13.9713 122.937 13.6726 123.46C13.3739 123.983 12.9539 124.393 12.4126 124.692C11.8713 124.991 11.2553 125.14 10.5646 125.14ZM10.6346 123.908C11.0639 123.908 11.4373 123.805 11.7546 123.6C12.0719 123.395 12.3146 123.129 12.4826 122.802C12.6599 122.466 12.7486 122.111 12.7486 121.738C12.7486 121.365 12.6599 121.015 12.4826 120.688C12.3146 120.352 12.0719 120.081 11.7546 119.876C11.4373 119.671 11.0639 119.568 10.6346 119.568C10.2053 119.568 9.83193 119.671 9.51459 119.876C9.19726 120.081 8.94993 120.352 8.77259 120.688C8.60459 121.015 8.52059 121.365 8.52059 121.738C8.52059 122.354 8.71193 122.872 9.09459 123.292C9.47726 123.703 9.99059 123.908 10.6346 123.908ZM19.3378 125.14C18.5164 125.14 17.8071 124.925 17.2098 124.496C16.6124 124.057 16.1551 123.455 15.8378 122.69C15.5298 121.925 15.3758 121.061 15.3758 120.1C15.3758 119.139 15.5298 118.275 15.8378 117.51C16.1551 116.745 16.6124 116.147 17.2098 115.718C17.8071 115.279 18.5164 115.06 19.3378 115.06C20.1591 115.06 20.8684 115.279 21.4658 115.718C22.0631 116.147 22.5158 116.745 22.8238 117.51C23.1411 118.275 23.2998 119.139 23.2998 120.1C23.2998 121.061 23.1411 121.925 22.8238 122.69C22.5158 123.455 22.0631 124.057 21.4658 124.496C20.8684 124.925 20.1591 125.14 19.3378 125.14ZM19.3378 123.908C20.1964 123.908 20.8404 123.567 21.2698 122.886C21.7084 122.195 21.9278 121.267 21.9278 120.1C21.9278 118.933 21.7084 118.009 21.2698 117.328C20.8404 116.637 20.1964 116.292 19.3378 116.292C18.4791 116.292 17.8304 116.637 17.3918 117.328C16.9624 118.009 16.7478 118.933 16.7478 120.1C16.7478 121.267 16.9624 122.195 17.3918 122.886C17.8304 123.567 18.4791 123.908 19.3378 123.908Z" fill="#86969E"/>
<path d="M10.8582 69.14C10.2048 69.14 9.63082 69.0093 9.13616 68.748C8.64149 68.4773 8.26349 68.1087 8.00216 67.642C7.74082 67.1753 7.61016 66.648 7.61016 66.06C7.61016 65.5187 7.74549 65.0333 8.01616 64.604C8.28682 64.1653 8.64149 63.8247 9.08016 63.582C8.76282 63.3487 8.51082 63.0547 8.32416 62.7C8.14682 62.336 8.05816 61.9533 8.05816 61.552C8.05816 61.076 8.17949 60.6513 8.42216 60.278C8.67416 59.8953 9.01482 59.5967 9.44416 59.382C9.87349 59.1673 10.3448 59.06 10.8582 59.06C11.3715 59.06 11.8428 59.1673 12.2722 59.382C12.7015 59.5967 13.0375 59.8953 13.2802 60.278C13.5322 60.6513 13.6582 61.076 13.6582 61.552C13.6582 61.9533 13.5648 62.336 13.3782 62.7C13.2008 63.0547 12.9535 63.3487 12.6362 63.582C13.0748 63.8247 13.4295 64.1653 13.7002 64.604C13.9708 65.0333 14.1062 65.5187 14.1062 66.06C14.1062 66.648 13.9755 67.1753 13.7142 67.642C13.4528 68.1087 13.0748 68.4773 12.5802 68.748C12.0855 69.0093 11.5115 69.14 10.8582 69.14ZM10.8582 63.092C11.3062 63.092 11.6702 62.9567 11.9502 62.686C12.2302 62.4153 12.3702 62.0607 12.3702 61.622C12.3702 61.1833 12.2302 60.8287 11.9502 60.558C11.6702 60.2873 11.3062 60.152 10.8582 60.152C10.4102 60.152 10.0462 60.2873 9.76616 60.558C9.48616 60.8287 9.34616 61.1833 9.34616 61.622C9.34616 62.0607 9.48616 62.4153 9.76616 62.686C10.0462 62.9567 10.4102 63.092 10.8582 63.092ZM10.8582 67.908C11.3808 67.908 11.8242 67.7353 12.1882 67.39C12.5522 67.0353 12.7342 66.5827 12.7342 66.032C12.7342 65.4813 12.5522 65.0333 12.1882 64.688C11.8242 64.3333 11.3808 64.156 10.8582 64.156C10.3355 64.156 9.89216 64.3333 9.52816 64.688C9.16416 65.0333 8.98216 65.4813 8.98216 66.032C8.98216 66.5827 9.16416 67.0353 9.52816 67.39C9.89216 67.7353 10.3355 67.908 10.8582 67.908ZM19.3378 69.14C18.5164 69.14 17.8071 68.9253 17.2098 68.496C16.6124 68.0573 16.1551 67.4553 15.8378 66.69C15.5298 65.9247 15.3758 65.0613 15.3758 64.1C15.3758 63.1387 15.5298 62.2753 15.8378 61.51C16.1551 60.7447 16.6124 60.1473 17.2098 59.718C17.8071 59.2793 18.5164 59.06 19.3378 59.06C20.1591 59.06 20.8684 59.2793 21.4658 59.718C22.0631 60.1473 22.5158 60.7447 22.8238 61.51C23.1411 62.2753 23.2998 63.1387 23.2998 64.1C23.2998 65.0613 23.1411 65.9247 22.8238 66.69C22.5158 67.4553 22.0631 68.0573 21.4658 68.496C20.8684 68.9253 20.1591 69.14 19.3378 69.14ZM19.3378 67.908C20.1964 67.908 20.8404 67.5673 21.2698 66.886C21.7084 66.1953 21.9278 65.2667 21.9278 64.1C21.9278 62.9333 21.7084 62.0093 21.2698 61.328C20.8404 60.6373 20.1964 60.292 19.3378 60.292C18.4791 60.292 17.8304 60.6373 17.3918 61.328C16.9624 62.0093 16.7478 62.9333 16.7478 64.1C16.7478 65.2667 16.9624 66.1953 17.3918 66.886C17.8304 67.5673 18.4791 67.908 19.3378 67.908Z" fill="#86969E"/>
<path d="M3.02516 5.076C2.80116 5.272 2.54916 5.40733 2.26916 5.482C1.99849 5.54733 1.62516 5.58 1.14916 5.58V4.46H1.37316C1.87716 4.46 2.26449 4.362 2.53516 4.166C2.80582 3.96067 2.96916 3.63867 3.02516 3.2H4.36916V13H3.02516V5.076ZM10.0136 13.14C9.19223 13.14 8.4829 12.9253 7.88556 12.496C7.28823 12.0573 6.8309 11.4553 6.51356 10.69C6.20556 9.92467 6.05156 9.06133 6.05156 8.1C6.05156 7.13867 6.20556 6.27533 6.51356 5.51C6.8309 4.74467 7.28823 4.14733 7.88556 3.718C8.4829 3.27933 9.19223 3.06 10.0136 3.06C10.8349 3.06 11.5442 3.27933 12.1416 3.718C12.7389 4.14733 13.1916 4.74467 13.4996 5.51C13.8169 6.27533 13.9756 7.13867 13.9756 8.1C13.9756 9.06133 13.8169 9.92467 13.4996 10.69C13.1916 11.4553 12.7389 12.0573 12.1416 12.496C11.5442 12.9253 10.8349 13.14 10.0136 13.14ZM10.0136 11.908C10.8722 11.908 11.5162 11.5673 11.9456 10.886C12.3842 10.1953 12.6036 9.26667 12.6036 8.1C12.6036 6.93333 12.3842 6.00933 11.9456 5.328C11.5162 4.63733 10.8722 4.292 10.0136 4.292C9.1549 4.292 8.50623 4.63733 8.06756 5.328C7.63823 6.00933 7.42356 6.93333 7.42356 8.1C7.42356 9.26667 7.63823 10.1953 8.06756 10.886C8.50623 11.5673 9.1549 11.908 10.0136 11.908ZM19.3378 13.14C18.5164 13.14 17.8071 12.9253 17.2098 12.496C16.6124 12.0573 16.1551 11.4553 15.8378 10.69C15.5298 9.92467 15.3758 9.06133 15.3758 8.1C15.3758 7.13867 15.5298 6.27533 15.8378 5.51C16.1551 4.74467 16.6124 4.14733 17.2098 3.718C17.8071 3.27933 18.5164 3.06 19.3378 3.06C20.1591 3.06 20.8684 3.27933 21.4658 3.718C22.0631 4.14733 22.5158 4.74467 22.8238 5.51C23.1411 6.27533 23.2998 7.13867 23.2998 8.1C23.2998 9.06133 23.1411 9.92467 22.8238 10.69C22.5158 11.4553 22.0631 12.0573 21.4658 12.496C20.8684 12.9253 20.1591 13.14 19.3378 13.14ZM19.3378 11.908C20.1964 11.908 20.8404 11.5673 21.2698 10.886C21.7084 10.1953 21.9278 9.26667 21.9278 8.1C21.9278 6.93333 21.7084 6.00933 21.2698 5.328C20.8404 4.63733 20.1964 4.292 19.3378 4.292C18.4791 4.292 17.8304 4.63733 17.3918 5.328C16.9624 6.00933 16.7478 6.93333 16.7478 8.1C16.7478 9.26667 16.9624 10.1953 17.3918 10.886C17.8304 11.5673 18.4791 11.908 19.3378 11.908Z" fill="#86969E"/>
<rect x="73" y="41" width="21" height="247" rx="5" fill="#43D14F"/>
<rect x="198" y="114" width="21" height="174" rx="5" fill="#43D14F"/>
<rect x="323" y="227" width="21" height="61" rx="5" fill="#43D14F"/>
<rect x="448" y="240" width="21" height="48" rx="5" fill="#43D14F"/>
<rect x="573" y="255" width="21" height="33" rx="5" fill="#43D14F"/>
<path d="M53.2202 323.2H54.7322L59.2402 330.886V323.2H60.5842V333H59.0722L54.5642 325.314V333H53.2202V323.2ZM65.7225 333.14C65.0225 333.14 64.3971 332.986 63.8465 332.678C63.3051 332.361 62.8805 331.927 62.5725 331.376C62.2738 330.816 62.1245 330.191 62.1245 329.5C62.1245 328.809 62.2738 328.189 62.5725 327.638C62.8805 327.078 63.3051 326.644 63.8465 326.336C64.3971 326.019 65.0225 325.86 65.7225 325.86C66.4225 325.86 67.0431 326.019 67.5845 326.336C68.1351 326.644 68.5598 327.078 68.8585 327.638C69.1665 328.189 69.3205 328.809 69.3205 329.5C69.3205 330.191 69.1665 330.816 68.8585 331.376C68.5598 331.927 68.1351 332.361 67.5845 332.678C67.0431 332.986 66.4225 333.14 65.7225 333.14ZM65.7225 332.02C66.4131 332.02 66.9778 331.801 67.4165 331.362C67.8645 330.923 68.0885 330.303 68.0885 329.5C68.0885 328.697 67.8645 328.077 67.4165 327.638C66.9778 327.199 66.4131 326.98 65.7225 326.98C65.0318 326.98 64.4625 327.199 64.0145 327.638C63.5758 328.077 63.3565 328.697 63.3565 329.5C63.3565 330.303 63.5758 330.923 64.0145 331.362C64.4625 331.801 65.0318 332.02 65.7225 332.02ZM72.9518 333.14C72.4105 333.14 71.9858 332.991 71.6778 332.692C71.3791 332.384 71.2298 331.945 71.2298 331.376V327.12H69.8438V326H71.2298V323.9L72.4618 324.348V326H74.1418V327.12H72.4618V331.292C72.4618 331.535 72.5318 331.721 72.6718 331.852C72.8211 331.983 73.0405 332.048 73.3298 332.048C73.5071 332.048 73.6611 332.039 73.7918 332.02C73.9318 331.992 74.0251 331.973 74.0718 331.964V333C73.7078 333.093 73.3345 333.14 72.9518 333.14ZM78.5679 323.2H79.9119V331.768H84.7419V333H78.5679V323.2ZM87.0713 324.936C86.8379 324.936 86.6373 324.857 86.4693 324.698C86.3106 324.53 86.2313 324.329 86.2313 324.096C86.2313 323.863 86.3106 323.667 86.4693 323.508C86.6373 323.34 86.8379 323.256 87.0713 323.256C87.3046 323.256 87.5006 323.34 87.6593 323.508C87.8273 323.667 87.9113 323.863 87.9113 324.096C87.9113 324.329 87.8273 324.53 87.6593 324.698C87.5006 324.857 87.3046 324.936 87.0713 324.936ZM86.4552 326H87.6873V333H86.4552V326ZM91.9394 333.14C91.1088 333.14 90.4368 332.935 89.9234 332.524C89.4101 332.113 89.1208 331.544 89.0554 330.816H90.2174C90.3201 331.199 90.5021 331.497 90.7634 331.712C91.0341 331.917 91.4354 332.02 91.9674 332.02C92.3594 332.02 92.6908 331.931 92.9614 331.754C93.2414 331.577 93.3814 331.334 93.3814 331.026C93.3814 330.727 93.2274 330.489 92.9194 330.312C92.6208 330.135 92.1028 329.953 91.3654 329.766C90.6561 329.589 90.1334 329.341 89.7974 329.024C89.4708 328.707 89.3074 328.282 89.3074 327.75C89.3074 327.414 89.4054 327.101 89.6014 326.812C89.8068 326.523 90.0868 326.294 90.4414 326.126C90.8054 325.949 91.2161 325.86 91.6734 325.86C92.4294 325.86 93.0408 326.051 93.5074 326.434C93.9741 326.817 94.2401 327.363 94.3054 328.072H93.0874C93.0408 327.699 92.8914 327.414 92.6394 327.218C92.3874 327.022 92.0654 326.924 91.6734 326.924C91.3654 326.924 91.0901 326.994 90.8474 327.134C90.6048 327.265 90.4834 327.461 90.4834 327.722C90.4834 327.974 90.6234 328.184 90.9034 328.352C91.1834 328.511 91.6548 328.679 92.3174 328.856C93.0921 329.061 93.6614 329.318 94.0254 329.626C94.3988 329.934 94.5854 330.349 94.5854 330.872C94.5854 331.301 94.4734 331.689 94.2494 332.034C94.0348 332.379 93.7268 332.65 93.3254 332.846C92.9241 333.042 92.4621 333.14 91.9394 333.14ZM98.3405 333.14C97.7992 333.14 97.3745 332.991 97.0665 332.692C96.7678 332.384 96.6185 331.945 96.6185 331.376V327.12H95.2325V326H96.6185V323.9L97.8505 324.348V326H99.5305V327.12H97.8505V331.292C97.8505 331.535 97.9205 331.721 98.0605 331.852C98.2098 331.983 98.4292 332.048 98.7185 332.048C98.8958 332.048 99.0498 332.039 99.1805 332.02C99.3205 331.992 99.4138 331.973 99.4605 331.964V333C99.0965 333.093 98.7232 333.14 98.3405 333.14ZM103.849 333.14C103.149 333.14 102.542 332.991 102.029 332.692C101.516 332.384 101.119 331.959 100.839 331.418C100.568 330.867 100.433 330.228 100.433 329.5C100.433 328.791 100.587 328.161 100.895 327.61C101.203 327.059 101.618 326.63 102.141 326.322C102.664 326.014 103.233 325.86 103.849 325.86C104.474 325.86 105.034 326.005 105.529 326.294C106.033 326.574 106.425 326.98 106.705 327.512C106.994 328.044 107.139 328.679 107.139 329.416V329.892H101.679C101.698 330.555 101.903 331.077 102.295 331.46C102.696 331.833 103.219 332.02 103.863 332.02C104.395 332.02 104.838 331.894 105.193 331.642C105.548 331.381 105.79 331.035 105.921 330.606H107.069C106.873 331.399 106.5 332.02 105.949 332.468C105.398 332.916 104.698 333.14 103.849 333.14ZM105.977 328.828C105.93 328.24 105.706 327.787 105.305 327.47C104.913 327.143 104.428 326.98 103.849 326.98C103.289 326.98 102.813 327.143 102.421 327.47C102.029 327.797 101.786 328.249 101.693 328.828H105.977ZM111.377 333.14C110.799 333.14 110.262 332.991 109.767 332.692C109.282 332.393 108.895 331.969 108.605 331.418C108.316 330.867 108.171 330.228 108.171 329.5C108.171 328.772 108.307 328.133 108.577 327.582C108.848 327.031 109.226 326.607 109.711 326.308C110.197 326.009 110.743 325.86 111.349 325.86C111.797 325.86 112.217 325.939 112.609 326.098C113.011 326.247 113.342 326.462 113.603 326.742V322.78H114.835V333H113.603V332.23C113.361 332.482 113.053 332.697 112.679 332.874C112.306 333.051 111.872 333.14 111.377 333.14ZM111.573 332.02C111.937 332.02 112.273 331.936 112.581 331.768C112.899 331.6 113.146 331.376 113.323 331.096C113.51 330.816 113.603 330.513 113.603 330.186V328.842C113.603 328.515 113.51 328.212 113.323 327.932C113.137 327.643 112.889 327.414 112.581 327.246C112.273 327.069 111.937 326.98 111.573 326.98C110.939 326.98 110.416 327.19 110.005 327.61C109.604 328.03 109.403 328.66 109.403 329.5C109.403 330.34 109.604 330.97 110.005 331.39C110.416 331.81 110.939 332.02 111.573 332.02Z" fill="#86969E"/>
<path d="M186.12 323.2H187.464V331.768H192.294V333H186.12V323.2ZM196.58 333.14C195.88 333.14 195.274 332.991 194.76 332.692C194.247 332.384 193.85 331.959 193.57 331.418C193.3 330.867 193.164 330.228 193.164 329.5C193.164 328.791 193.318 328.161 193.626 327.61C193.934 327.059 194.35 326.63 194.872 326.322C195.395 326.014 195.964 325.86 196.58 325.86C197.206 325.86 197.766 326.005 198.26 326.294C198.764 326.574 199.156 326.98 199.436 327.512C199.726 328.044 199.87 328.679 199.87 329.416V329.892H194.41C194.429 330.555 194.634 331.077 195.026 331.46C195.428 331.833 195.95 332.02 196.594 332.02C197.126 332.02 197.57 331.894 197.924 331.642C198.279 331.381 198.522 331.035 198.652 330.606H199.8C199.604 331.399 199.231 332.02 198.68 332.468C198.13 332.916 197.43 333.14 196.58 333.14ZM198.708 328.828C198.662 328.24 198.438 327.787 198.036 327.47C197.644 327.143 197.159 326.98 196.58 326.98C196.02 326.98 195.544 327.143 195.152 327.47C194.76 327.797 194.518 328.249 194.424 328.828H198.708ZM203.157 333.14C202.494 333.14 201.957 332.958 201.547 332.594C201.136 332.221 200.931 331.726 200.931 331.11C200.931 330.457 201.155 329.943 201.603 329.57C202.051 329.197 202.615 328.977 203.297 328.912L205.481 328.688V328.212C205.481 327.811 205.336 327.507 205.047 327.302C204.767 327.087 204.393 326.98 203.927 326.98C203.535 326.98 203.203 327.073 202.933 327.26C202.671 327.447 202.494 327.731 202.401 328.114H201.239C201.341 327.377 201.654 326.817 202.177 326.434C202.709 326.051 203.32 325.86 204.011 325.86C204.832 325.86 205.485 326.065 205.971 326.476C206.465 326.877 206.713 327.409 206.713 328.072V331.348C206.713 331.581 206.764 331.763 206.867 331.894C206.969 332.015 207.123 332.076 207.329 332.076C207.45 332.076 207.571 332.057 207.693 332.02V332.944C207.413 333.037 207.151 333.084 206.909 333.084C206.153 333.084 205.691 332.72 205.523 331.992C205.252 332.3 204.902 332.571 204.473 332.804C204.043 333.028 203.605 333.14 203.157 333.14ZM203.297 332.02C204.025 332.02 204.753 331.656 205.481 330.928V329.668L203.381 329.906C202.989 329.953 202.685 330.083 202.471 330.298C202.265 330.503 202.163 330.755 202.163 331.054C202.163 331.371 202.265 331.614 202.471 331.782C202.685 331.941 202.961 332.02 203.297 332.02ZM211.478 333.14C210.899 333.14 210.363 332.991 209.868 332.692C209.383 332.393 208.995 331.969 208.706 331.418C208.417 330.867 208.272 330.228 208.272 329.5C208.272 328.772 208.407 328.133 208.678 327.582C208.949 327.031 209.327 326.607 209.812 326.308C210.297 326.009 210.843 325.86 211.45 325.86C211.898 325.86 212.318 325.939 212.71 326.098C213.111 326.247 213.443 326.462 213.704 326.742V322.78H214.936V333H213.704V332.23C213.461 332.482 213.153 332.697 212.78 332.874C212.407 333.051 211.973 333.14 211.478 333.14ZM211.674 332.02C212.038 332.02 212.374 331.936 212.682 331.768C212.999 331.6 213.247 331.376 213.424 331.096C213.611 330.816 213.704 330.513 213.704 330.186V328.842C213.704 328.515 213.611 328.212 213.424 327.932C213.237 327.643 212.99 327.414 212.682 327.246C212.374 327.069 212.038 326.98 211.674 326.98C211.039 326.98 210.517 327.19 210.106 327.61C209.705 328.03 209.504 328.66 209.504 329.5C209.504 330.34 209.705 330.97 210.106 331.39C210.517 331.81 211.039 332.02 211.674 332.02Z" fill="#86969E"/>
<path d="M293.219 335.408C292.51 335.324 291.861 335.067 291.273 334.638C290.685 334.209 290.326 333.695 290.195 333.098C289.383 333.005 288.655 332.739 288.011 332.3C287.367 331.861 286.859 331.278 286.485 330.55C286.121 329.822 285.939 329.005 285.939 328.1C285.939 327.12 286.154 326.247 286.583 325.482C287.013 324.717 287.596 324.124 288.333 323.704C289.08 323.275 289.906 323.06 290.811 323.06C291.717 323.06 292.538 323.275 293.275 323.704C294.022 324.124 294.61 324.717 295.039 325.482C295.469 326.247 295.683 327.12 295.683 328.1C295.683 328.912 295.492 329.701 295.109 330.466C294.736 331.231 294.232 331.857 293.597 332.342C292.972 332.827 292.309 333.07 291.609 333.07C291.712 333.369 291.973 333.644 292.393 333.896C292.823 334.157 293.257 334.316 293.695 334.372L293.219 335.408ZM290.811 331.908C291.511 331.908 292.127 331.749 292.659 331.432C293.191 331.105 293.597 330.657 293.877 330.088C294.167 329.509 294.311 328.847 294.311 328.1C294.311 327.353 294.167 326.695 293.877 326.126C293.597 325.547 293.191 325.099 292.659 324.782C292.127 324.455 291.511 324.292 290.811 324.292C290.111 324.292 289.495 324.455 288.963 324.782C288.431 325.099 288.021 325.547 287.731 326.126C287.451 326.695 287.311 327.353 287.311 328.1C287.311 328.847 287.451 329.509 287.731 330.088C288.021 330.657 288.431 331.105 288.963 331.432C289.495 331.749 290.111 331.908 290.811 331.908ZM299.56 333.14C298.823 333.14 298.253 332.935 297.852 332.524C297.451 332.113 297.25 331.549 297.25 330.83V326H298.482V330.606C298.482 331.073 298.603 331.432 298.846 331.684C299.098 331.927 299.453 332.048 299.91 332.048C300.311 332.048 300.689 331.927 301.044 331.684C301.408 331.441 301.73 331.115 302.01 330.704V326H303.242V333H302.01V332.09C301.739 332.379 301.385 332.627 300.946 332.832C300.507 333.037 300.045 333.14 299.56 333.14ZM308.319 333.14C307.619 333.14 306.994 332.986 306.443 332.678C305.902 332.361 305.477 331.927 305.169 331.376C304.87 330.816 304.721 330.191 304.721 329.5C304.721 328.809 304.87 328.189 305.169 327.638C305.477 327.078 305.902 326.644 306.443 326.336C306.994 326.019 307.619 325.86 308.319 325.86C309.019 325.86 309.64 326.019 310.181 326.336C310.732 326.644 311.156 327.078 311.455 327.638C311.763 328.189 311.917 328.809 311.917 329.5C311.917 330.191 311.763 330.816 311.455 331.376C311.156 331.927 310.732 332.361 310.181 332.678C309.64 332.986 309.019 333.14 308.319 333.14ZM308.319 332.02C309.01 332.02 309.574 331.801 310.013 331.362C310.461 330.923 310.685 330.303 310.685 329.5C310.685 328.697 310.461 328.077 310.013 327.638C309.574 327.199 309.01 326.98 308.319 326.98C307.628 326.98 307.059 327.199 306.611 327.638C306.172 328.077 305.953 328.697 305.953 329.5C305.953 330.303 306.172 330.923 306.611 331.362C307.059 331.801 307.628 332.02 308.319 332.02ZM315.548 333.14C315.007 333.14 314.582 332.991 314.274 332.692C313.976 332.384 313.826 331.945 313.826 331.376V327.12H312.44V326H313.826V323.9L315.058 324.348V326H316.738V327.12H315.058V331.292C315.058 331.535 315.128 331.721 315.268 331.852C315.418 331.983 315.637 332.048 315.926 332.048C316.104 332.048 316.258 332.039 316.388 332.02C316.528 331.992 316.622 331.973 316.668 331.964V333C316.304 333.093 315.931 333.14 315.548 333.14ZM321.057 333.14C320.357 333.14 319.75 332.991 319.237 332.692C318.724 332.384 318.327 331.959 318.047 331.418C317.776 330.867 317.641 330.228 317.641 329.5C317.641 328.791 317.795 328.161 318.103 327.61C318.411 327.059 318.826 326.63 319.349 326.322C319.872 326.014 320.441 325.86 321.057 325.86C321.682 325.86 322.242 326.005 322.737 326.294C323.241 326.574 323.633 326.98 323.913 327.512C324.202 328.044 324.347 328.679 324.347 329.416V329.892H318.887C318.906 330.555 319.111 331.077 319.503 331.46C319.904 331.833 320.427 332.02 321.071 332.02C321.603 332.02 322.046 331.894 322.401 331.642C322.756 331.381 322.998 331.035 323.129 330.606H324.277C324.081 331.399 323.708 332.02 323.157 332.468C322.606 332.916 321.906 333.14 321.057 333.14ZM323.185 328.828C323.138 328.24 322.914 327.787 322.513 327.47C322.121 327.143 321.636 326.98 321.057 326.98C320.497 326.98 320.021 327.143 319.629 327.47C319.237 327.797 318.994 328.249 318.901 328.828H323.185ZM328.739 323.2H330.167L333.331 331.32L336.495 323.2H337.923V333H336.579V326.364L334.031 333H332.631L330.083 326.364V333H328.739V323.2ZM342.877 333.14C342.177 333.14 341.571 332.991 341.057 332.692C340.544 332.384 340.147 331.959 339.867 331.418C339.597 330.867 339.461 330.228 339.461 329.5C339.461 328.791 339.615 328.161 339.923 327.61C340.231 327.059 340.647 326.63 341.169 326.322C341.692 326.014 342.261 325.86 342.877 325.86C343.503 325.86 344.063 326.005 344.557 326.294C345.061 326.574 345.453 326.98 345.733 327.512C346.023 328.044 346.167 328.679 346.167 329.416V329.892H340.707C340.726 330.555 340.931 331.077 341.323 331.46C341.725 331.833 342.247 332.02 342.891 332.02C343.423 332.02 343.867 331.894 344.221 331.642C344.576 331.381 344.819 331.035 344.949 330.606H346.097C345.901 331.399 345.528 332.02 344.977 332.468C344.427 332.916 343.727 333.14 342.877 333.14ZM345.005 328.828C344.959 328.24 344.735 327.787 344.333 327.47C343.941 327.143 343.456 326.98 342.877 326.98C342.317 326.98 341.841 327.143 341.449 327.47C341.057 327.797 340.815 328.249 340.721 328.828H345.005ZM349.92 333.14C349.378 333.14 348.954 332.991 348.646 332.692C348.347 332.384 348.198 331.945 348.198 331.376V327.12H346.812V326H348.198V323.9L349.43 324.348V326H351.11V327.12H349.43V331.292C349.43 331.535 349.5 331.721 349.64 331.852C349.789 331.983 350.008 332.048 350.298 332.048C350.475 332.048 350.629 332.039 350.76 332.02C350.9 331.992 350.993 331.973 351.04 331.964V333C350.676 333.093 350.302 333.14 349.92 333.14ZM355.06 333.14C354.519 333.14 354.094 332.991 353.786 332.692C353.488 332.384 353.338 331.945 353.338 331.376V327.12H351.952V326H353.338V323.9L354.57 324.348V326H356.25V327.12H354.57V331.292C354.57 331.535 354.64 331.721 354.78 331.852C354.93 331.983 355.149 332.048 355.438 332.048C355.616 332.048 355.77 332.039 355.9 332.02C356.04 331.992 356.134 331.973 356.18 331.964V333C355.816 333.093 355.443 333.14 355.06 333.14ZM358.297 324.936C358.064 324.936 357.863 324.857 357.695 324.698C357.536 324.53 357.457 324.329 357.457 324.096C357.457 323.863 357.536 323.667 357.695 323.508C357.863 323.34 358.064 323.256 358.297 323.256C358.53 323.256 358.726 323.34 358.885 323.508C359.053 323.667 359.137 323.863 359.137 324.096C359.137 324.329 359.053 324.53 358.885 324.698C358.726 324.857 358.53 324.936 358.297 324.936ZM357.681 326H358.913V333H357.681V326ZM360.757 326H361.989V326.91C362.26 326.621 362.614 326.373 363.053 326.168C363.492 325.963 363.954 325.86 364.439 325.86C365.176 325.86 365.746 326.065 366.147 326.476C366.548 326.887 366.749 327.451 366.749 328.17V333H365.517V328.394C365.517 327.927 365.391 327.573 365.139 327.33C364.896 327.078 364.546 326.952 364.089 326.952C363.688 326.952 363.305 327.073 362.941 327.316C362.586 327.559 362.269 327.885 361.989 328.296V333H360.757V326ZM371.616 335.94C370.739 335.94 370.048 335.744 369.544 335.352C369.04 334.96 368.746 334.433 368.662 333.77H370.006C370.165 334.47 370.688 334.82 371.574 334.82C372.302 334.82 372.82 334.638 373.128 334.274C373.446 333.919 373.604 333.457 373.604 332.888V332.076C373.287 332.393 372.951 332.627 372.596 332.776C372.251 332.925 371.836 333 371.35 333C370.734 333 370.184 332.86 369.698 332.58C369.222 332.291 368.849 331.875 368.578 331.334C368.308 330.793 368.172 330.158 368.172 329.43C368.172 328.711 368.317 328.081 368.606 327.54C368.896 326.999 369.283 326.583 369.768 326.294C370.263 326.005 370.8 325.86 371.378 325.86C371.873 325.86 372.307 325.949 372.68 326.126C373.054 326.303 373.362 326.518 373.604 326.77V326H374.836V332.958C374.836 333.863 374.552 334.587 373.982 335.128C373.422 335.669 372.634 335.94 371.616 335.94ZM371.574 331.88C372.181 331.88 372.671 331.693 373.044 331.32C373.418 330.937 373.604 330.461 373.604 329.892V328.996C373.604 328.613 373.511 328.268 373.324 327.96C373.147 327.652 372.9 327.414 372.582 327.246C372.274 327.069 371.938 326.98 371.574 326.98C370.94 326.98 370.417 327.181 370.006 327.582C369.605 327.983 369.404 328.599 369.404 329.43C369.404 330.261 369.605 330.877 370.006 331.278C370.417 331.679 370.94 331.88 371.574 331.88Z" fill="#86969E"/>
<path d="M426.429 323.2H430.069C430.695 323.2 431.236 323.307 431.693 323.522C432.16 323.737 432.515 324.031 432.757 324.404C433.009 324.777 433.135 325.197 433.135 325.664C433.135 326.579 432.711 327.274 431.861 327.75C432.356 327.89 432.785 328.175 433.149 328.604C433.513 329.033 433.695 329.551 433.695 330.158C433.695 331.026 433.387 331.717 432.771 332.23C432.165 332.743 431.339 333 430.293 333H426.429V323.2ZM430.195 327.344C431.306 327.344 431.861 326.859 431.861 325.888C431.861 324.917 431.306 324.432 430.195 324.432H427.773V327.344H430.195ZM430.657 331.768C431.208 331.768 431.637 331.633 431.945 331.362C432.263 331.082 432.421 330.685 432.421 330.172C432.421 329.659 432.263 329.267 431.945 328.996C431.637 328.716 431.208 328.576 430.657 328.576H427.773V331.768H430.657ZM438.357 333.14C437.657 333.14 437.032 332.986 436.481 332.678C435.94 332.361 435.515 331.927 435.207 331.376C434.909 330.816 434.759 330.191 434.759 329.5C434.759 328.809 434.909 328.189 435.207 327.638C435.515 327.078 435.94 326.644 436.481 326.336C437.032 326.019 437.657 325.86 438.357 325.86C439.057 325.86 439.678 326.019 440.219 326.336C440.77 326.644 441.195 327.078 441.493 327.638C441.801 328.189 441.955 328.809 441.955 329.5C441.955 330.191 441.801 330.816 441.493 331.376C441.195 331.927 440.77 332.361 440.219 332.678C439.678 332.986 439.057 333.14 438.357 333.14ZM438.357 332.02C439.048 332.02 439.613 331.801 440.051 331.362C440.499 330.923 440.723 330.303 440.723 329.5C440.723 328.697 440.499 328.077 440.051 327.638C439.613 327.199 439.048 326.98 438.357 326.98C437.667 326.98 437.097 327.199 436.649 327.638C436.211 328.077 435.991 328.697 435.991 329.5C435.991 330.303 436.211 330.923 436.649 331.362C437.097 331.801 437.667 332.02 438.357 332.02ZM446.67 333.14C445.97 333.14 445.344 332.986 444.794 332.678C444.252 332.361 443.828 331.927 443.52 331.376C443.221 330.816 443.072 330.191 443.072 329.5C443.072 328.809 443.221 328.189 443.52 327.638C443.828 327.078 444.252 326.644 444.794 326.336C445.344 326.019 445.97 325.86 446.67 325.86C447.37 325.86 447.99 326.019 448.532 326.336C449.082 326.644 449.507 327.078 449.806 327.638C450.114 328.189 450.268 328.809 450.268 329.5C450.268 330.191 450.114 330.816 449.806 331.376C449.507 331.927 449.082 332.361 448.532 332.678C447.99 332.986 447.37 333.14 446.67 333.14ZM446.67 332.02C447.36 332.02 447.925 331.801 448.364 331.362C448.812 330.923 449.036 330.303 449.036 329.5C449.036 328.697 448.812 328.077 448.364 327.638C447.925 327.199 447.36 326.98 446.67 326.98C445.979 326.98 445.41 327.199 444.962 327.638C444.523 328.077 444.304 328.697 444.304 329.5C444.304 330.303 444.523 330.923 444.962 331.362C445.41 331.801 445.979 332.02 446.67 332.02ZM451.748 322.78H452.98V328.52L455.458 326H457.054L453.932 329.15L457.348 333H455.78L452.98 329.864V333H451.748V322.78ZM461.048 333.14C460.348 333.14 459.742 332.991 459.228 332.692C458.715 332.384 458.318 331.959 458.038 331.418C457.768 330.867 457.632 330.228 457.632 329.5C457.632 328.791 457.786 328.161 458.094 327.61C458.402 327.059 458.818 326.63 459.34 326.322C459.863 326.014 460.432 325.86 461.048 325.86C461.674 325.86 462.234 326.005 462.728 326.294C463.232 326.574 463.624 326.98 463.904 327.512C464.194 328.044 464.338 328.679 464.338 329.416V329.892H458.878C458.897 330.555 459.102 331.077 459.494 331.46C459.896 331.833 460.418 332.02 461.062 332.02C461.594 332.02 462.038 331.894 462.392 331.642C462.747 331.381 462.99 331.035 463.12 330.606H464.268C464.072 331.399 463.699 332.02 463.148 332.468C462.598 332.916 461.898 333.14 461.048 333.14ZM463.176 328.828C463.13 328.24 462.906 327.787 462.504 327.47C462.112 327.143 461.627 326.98 461.048 326.98C460.488 326.98 460.012 327.143 459.62 327.47C459.228 327.797 458.986 328.249 458.892 328.828H463.176ZM468.577 333.14C467.998 333.14 467.461 332.991 466.967 332.692C466.481 332.393 466.094 331.969 465.805 331.418C465.515 330.867 465.371 330.228 465.371 329.5C465.371 328.772 465.506 328.133 465.777 327.582C466.047 327.031 466.425 326.607 466.911 326.308C467.396 326.009 467.942 325.86 468.549 325.86C468.997 325.86 469.417 325.939 469.809 326.098C470.21 326.247 470.541 326.462 470.803 326.742V322.78H472.035V333H470.803V332.23C470.56 332.482 470.252 332.697 469.879 332.874C469.505 333.051 469.071 333.14 468.577 333.14ZM468.773 332.02C469.137 332.02 469.473 331.936 469.781 331.768C470.098 331.6 470.345 331.376 470.523 331.096C470.709 330.816 470.803 330.513 470.803 330.186V328.842C470.803 328.515 470.709 328.212 470.523 327.932C470.336 327.643 470.089 327.414 469.781 327.246C469.473 327.069 469.137 326.98 468.773 326.98C468.138 326.98 467.615 327.19 467.205 327.61C466.803 328.03 466.603 328.66 466.603 329.5C466.603 330.34 466.803 330.97 467.205 331.39C467.615 331.81 468.138 332.02 468.773 332.02ZM479.216 333.14C478.33 333.14 477.63 332.855 477.116 332.286C476.603 331.717 476.346 330.97 476.346 330.046H477.648C477.658 330.643 477.798 331.105 478.068 331.432C478.339 331.749 478.722 331.908 479.216 331.908C479.73 331.908 480.117 331.759 480.378 331.46C480.64 331.152 480.77 330.718 480.77 330.158V323.2H482.114V329.976C482.114 330.965 481.867 331.74 481.372 332.3C480.878 332.86 480.159 333.14 479.216 333.14ZM487.248 333.14C486.548 333.14 485.923 332.986 485.372 332.678C484.831 332.361 484.406 331.927 484.098 331.376C483.799 330.816 483.65 330.191 483.65 329.5C483.65 328.809 483.799 328.189 484.098 327.638C484.406 327.078 484.831 326.644 485.372 326.336C485.923 326.019 486.548 325.86 487.248 325.86C487.948 325.86 488.569 326.019 489.11 326.336C489.661 326.644 490.085 327.078 490.384 327.638C490.692 328.189 490.846 328.809 490.846 329.5C490.846 330.191 490.692 330.816 490.384 331.376C490.085 331.927 489.661 332.361 489.11 332.678C488.569 332.986 487.948 333.14 487.248 333.14ZM487.248 332.02C487.939 332.02 488.503 331.801 488.942 331.362C489.39 330.923 489.614 330.303 489.614 329.5C489.614 328.697 489.39 328.077 488.942 327.638C488.503 327.199 487.939 326.98 487.248 326.98C486.557 326.98 485.988 327.199 485.54 327.638C485.101 328.077 484.882 328.697 484.882 329.5C484.882 330.303 485.101 330.923 485.54 331.362C485.988 331.801 486.557 332.02 487.248 332.02ZM495.784 333.14C495.29 333.14 494.856 333.051 494.482 332.874C494.109 332.697 493.801 332.482 493.558 332.23V333H492.326V322.78H493.558V326.742C493.82 326.462 494.146 326.247 494.538 326.098C494.94 325.939 495.364 325.86 495.812 325.86C496.419 325.86 496.965 326.009 497.45 326.308C497.936 326.607 498.314 327.031 498.584 327.582C498.855 328.133 498.99 328.772 498.99 329.5C498.99 330.228 498.846 330.867 498.556 331.418C498.267 331.969 497.875 332.393 497.38 332.692C496.895 332.991 496.363 333.14 495.784 333.14ZM495.588 332.02C496.223 332.02 496.741 331.81 497.142 331.39C497.553 330.97 497.758 330.34 497.758 329.5C497.758 328.66 497.553 328.03 497.142 327.61C496.741 327.19 496.223 326.98 495.588 326.98C495.224 326.98 494.888 327.069 494.58 327.246C494.272 327.414 494.025 327.643 493.838 327.932C493.652 328.212 493.558 328.515 493.558 328.842V330.186C493.558 330.513 493.647 330.816 493.824 331.096C494.011 331.376 494.258 331.6 494.566 331.768C494.884 331.936 495.224 332.02 495.588 332.02Z" fill="#86969E"/>
<path d="M538.577 333.14C537.69 333.14 536.99 332.855 536.477 332.286C535.963 331.717 535.707 330.97 535.707 330.046H537.009C537.018 330.643 537.158 331.105 537.429 331.432C537.699 331.749 538.082 331.908 538.577 331.908C539.09 331.908 539.477 331.759 539.739 331.46C540 331.152 540.131 330.718 540.131 330.158V323.2H541.475V329.976C541.475 330.965 541.227 331.74 540.733 332.3C540.238 332.86 539.519 333.14 538.577 333.14ZM546.608 333.14C545.908 333.14 545.283 332.986 544.732 332.678C544.191 332.361 543.766 331.927 543.458 331.376C543.16 330.816 543.01 330.191 543.01 329.5C543.01 328.809 543.16 328.189 543.458 327.638C543.766 327.078 544.191 326.644 544.732 326.336C545.283 326.019 545.908 325.86 546.608 325.86C547.308 325.86 547.929 326.019 548.47 326.336C549.021 326.644 549.446 327.078 549.744 327.638C550.052 328.189 550.206 328.809 550.206 329.5C550.206 330.191 550.052 330.816 549.744 331.376C549.446 331.927 549.021 332.361 548.47 332.678C547.929 332.986 547.308 333.14 546.608 333.14ZM546.608 332.02C547.299 332.02 547.864 331.801 548.302 331.362C548.75 330.923 548.974 330.303 548.974 329.5C548.974 328.697 548.75 328.077 548.302 327.638C547.864 327.199 547.299 326.98 546.608 326.98C545.918 326.98 545.348 327.199 544.9 327.638C544.462 328.077 544.242 328.697 544.242 329.5C544.242 330.303 544.462 330.923 544.9 331.362C545.348 331.801 545.918 332.02 546.608 332.02ZM555.145 333.14C554.65 333.14 554.216 333.051 553.843 332.874C553.469 332.697 553.161 332.482 552.919 332.23V333H551.687V322.78H552.919V326.742C553.18 326.462 553.507 326.247 553.899 326.098C554.3 325.939 554.725 325.86 555.173 325.86C555.779 325.86 556.325 326.009 556.811 326.308C557.296 326.607 557.674 327.031 557.945 327.582C558.215 328.133 558.351 328.772 558.351 329.5C558.351 330.228 558.206 330.867 557.917 331.418C557.627 331.969 557.235 332.393 556.741 332.692C556.255 332.991 555.723 333.14 555.145 333.14ZM554.949 332.02C555.583 332.02 556.101 331.81 556.503 331.39C556.913 330.97 557.119 330.34 557.119 329.5C557.119 328.66 556.913 328.03 556.503 327.61C556.101 327.19 555.583 326.98 554.949 326.98C554.585 326.98 554.249 327.069 553.941 327.246C553.633 327.414 553.385 327.643 553.199 327.932C553.012 328.212 552.919 328.515 552.919 328.842V330.186C552.919 330.513 553.007 330.816 553.185 331.096C553.371 331.376 553.619 331.6 553.927 331.768C554.244 331.936 554.585 332.02 554.949 332.02ZM567.423 333.14C566.536 333.14 565.719 332.93 564.973 332.51C564.235 332.081 563.647 331.483 563.209 330.718C562.77 329.953 562.551 329.08 562.551 328.1C562.551 327.12 562.77 326.247 563.209 325.482C563.647 324.717 564.235 324.124 564.973 323.704C565.719 323.275 566.536 323.06 567.423 323.06C568.58 323.06 569.546 323.368 570.321 323.984C571.095 324.6 571.585 325.417 571.791 326.434H570.447C570.251 325.762 569.887 325.239 569.355 324.866C568.823 324.483 568.174 324.292 567.409 324.292C566.709 324.292 566.093 324.455 565.561 324.782C565.038 325.109 564.632 325.561 564.343 326.14C564.063 326.719 563.923 327.372 563.923 328.1C563.923 328.828 564.063 329.481 564.343 330.06C564.632 330.639 565.038 331.091 565.561 331.418C566.093 331.745 566.709 331.908 567.409 331.908C568.174 331.908 568.823 331.721 569.355 331.348C569.887 330.965 570.251 330.438 570.447 329.766H571.791C571.651 330.438 571.385 331.031 570.993 331.544C570.601 332.048 570.097 332.44 569.481 332.72C568.874 333 568.188 333.14 567.423 333.14ZM576.645 333.14C575.945 333.14 575.32 332.986 574.769 332.678C574.228 332.361 573.803 331.927 573.495 331.376C573.197 330.816 573.047 330.191 573.047 329.5C573.047 328.809 573.197 328.189 573.495 327.638C573.803 327.078 574.228 326.644 574.769 326.336C575.32 326.019 575.945 325.86 576.645 325.86C577.345 325.86 577.966 326.019 578.507 326.336C579.058 326.644 579.483 327.078 579.781 327.638C580.089 328.189 580.243 328.809 580.243 329.5C580.243 330.191 580.089 330.816 579.781 331.376C579.483 331.927 579.058 332.361 578.507 332.678C577.966 332.986 577.345 333.14 576.645 333.14ZM576.645 332.02C577.336 332.02 577.901 331.801 578.339 331.362C578.787 330.923 579.011 330.303 579.011 329.5C579.011 328.697 578.787 328.077 578.339 327.638C577.901 327.199 577.336 326.98 576.645 326.98C575.955 326.98 575.385 327.199 574.937 327.638C574.499 328.077 574.279 328.697 574.279 329.5C574.279 330.303 574.499 330.923 574.937 331.362C575.385 331.801 575.955 332.02 576.645 332.02ZM581.724 326H582.956V326.826C583.553 326.182 584.262 325.86 585.084 325.86C585.522 325.86 585.877 325.944 586.148 326.112C586.428 326.271 586.656 326.523 586.834 326.868C587.562 326.196 588.336 325.86 589.158 325.86C589.848 325.86 590.362 326.033 590.698 326.378C591.043 326.714 591.216 327.171 591.216 327.75V333H589.984V328.114C589.984 327.75 589.886 327.465 589.69 327.26C589.503 327.055 589.223 326.952 588.85 326.952C588.15 326.952 587.562 327.283 587.086 327.946V333H585.854V328.17C585.854 327.358 585.48 326.952 584.734 326.952C584.416 326.952 584.104 327.059 583.796 327.274C583.488 327.489 583.208 327.769 582.956 328.114V333H581.724V326ZM593.003 326H594.235V326.77C594.478 326.518 594.786 326.303 595.159 326.126C595.532 325.949 595.966 325.86 596.461 325.86C597.04 325.86 597.572 326.009 598.057 326.308C598.552 326.607 598.944 327.031 599.233 327.582C599.522 328.133 599.667 328.772 599.667 329.5C599.667 330.228 599.532 330.867 599.261 331.418C598.99 331.969 598.612 332.393 598.127 332.692C597.642 332.991 597.096 333.14 596.489 333.14C596.041 333.14 595.616 333.065 595.215 332.916C594.823 332.757 594.496 332.538 594.235 332.258V335.8H593.003V326ZM596.265 332.02C596.9 332.02 597.418 331.81 597.819 331.39C598.23 330.97 598.435 330.34 598.435 329.5C598.435 328.66 598.23 328.03 597.819 327.61C597.418 327.19 596.9 326.98 596.265 326.98C595.901 326.98 595.56 327.064 595.243 327.232C594.935 327.4 594.688 327.624 594.501 327.904C594.324 328.184 594.235 328.487 594.235 328.814V330.158C594.235 330.485 594.328 330.793 594.515 331.082C594.702 331.362 594.949 331.591 595.257 331.768C595.565 331.936 595.901 332.02 596.265 332.02ZM601.152 322.78H602.384V333H601.152V322.78ZM607.28 333.14C606.58 333.14 605.973 332.991 605.46 332.692C604.946 332.384 604.55 331.959 604.27 331.418C603.999 330.867 603.864 330.228 603.864 329.5C603.864 328.791 604.018 328.161 604.326 327.61C604.634 327.059 605.049 326.63 605.572 326.322C606.094 326.014 606.664 325.86 607.28 325.86C607.905 325.86 608.465 326.005 608.96 326.294C609.464 326.574 609.856 326.98 610.136 327.512C610.425 328.044 610.57 328.679 610.57 329.416V329.892H605.11C605.128 330.555 605.334 331.077 605.726 331.46C606.127 331.833 606.65 332.02 607.294 332.02C607.826 332.02 608.269 331.894 608.624 331.642C608.978 331.381 609.221 331.035 609.352 330.606H610.5C610.304 331.399 609.93 332.02 609.38 332.468C608.829 332.916 608.129 333.14 607.28 333.14ZM609.408 328.828C609.361 328.24 609.137 327.787 608.736 327.47C608.344 327.143 607.858 326.98 607.28 326.98C606.72 326.98 606.244 327.143 605.852 327.47C605.46 327.797 605.217 328.249 605.124 328.828H609.408ZM614.322 333.14C613.781 333.14 613.356 332.991 613.048 332.692C612.749 332.384 612.6 331.945 612.6 331.376V327.12H611.214V326H612.6V323.9L613.832 324.348V326H615.512V327.12H613.832V331.292C613.832 331.535 613.902 331.721 614.042 331.852C614.191 331.983 614.411 332.048 614.7 332.048C614.877 332.048 615.031 332.039 615.162 332.02C615.302 331.992 615.395 331.973 615.442 331.964V333C615.078 333.093 614.705 333.14 614.322 333.14ZM619.83 333.14C619.13 333.14 618.524 332.991 618.01 332.692C617.497 332.384 617.1 331.959 616.82 331.418C616.55 330.867 616.414 330.228 616.414 329.5C616.414 328.791 616.568 328.161 616.876 327.61C617.184 327.059 617.6 326.63 618.122 326.322C618.645 326.014 619.214 325.86 619.83 325.86C620.456 325.86 621.016 326.005 621.51 326.294C622.014 326.574 622.406 326.98 622.686 327.512C622.976 328.044 623.12 328.679 623.12 329.416V329.892H617.66C617.679 330.555 617.884 331.077 618.276 331.46C618.678 331.833 619.2 332.02 619.844 332.02C620.376 332.02 620.82 331.894 621.174 331.642C621.529 331.381 621.772 331.035 621.902 330.606H623.05C622.854 331.399 622.481 332.02 621.93 332.468C621.38 332.916 620.68 333.14 619.83 333.14ZM621.958 328.828C621.912 328.24 621.688 327.787 621.286 327.47C620.894 327.143 620.409 326.98 619.83 326.98C619.27 326.98 618.794 327.143 618.402 327.47C618.01 327.797 617.768 328.249 617.674 328.828H621.958ZM627.359 333.14C626.78 333.14 626.243 332.991 625.749 332.692C625.263 332.393 624.876 331.969 624.587 331.418C624.297 330.867 624.153 330.228 624.153 329.5C624.153 328.772 624.288 328.133 624.559 327.582C624.829 327.031 625.207 326.607 625.693 326.308C626.178 326.009 626.724 325.86 627.331 325.86C627.779 325.86 628.199 325.939 628.591 326.098C628.992 326.247 629.323 326.462 629.585 326.742V322.78H630.817V333H629.585V332.23C629.342 332.482 629.034 332.697 628.661 332.874C628.287 333.051 627.853 333.14 627.359 333.14ZM627.555 332.02C627.919 332.02 628.255 331.936 628.563 331.768C628.88 331.6 629.127 331.376 629.305 331.096C629.491 330.816 629.585 330.513 629.585 330.186V328.842C629.585 328.515 629.491 328.212 629.305 327.932C629.118 327.643 628.871 327.414 628.563 327.246C628.255 327.069 627.919 326.98 627.555 326.98C626.92 326.98 626.397 327.19 625.987 327.61C625.585 328.03 625.385 328.66 625.385 329.5C625.385 330.34 625.585 330.97 625.987 331.39C626.397 331.81 626.92 332.02 627.555 332.02Z" fill="#86969E"/>
</svg>
