<svg width="32" height="32" viewBox="0 0 32 32" fill="none" xmlns="http://www.w3.org/2000/svg">
<path d="M10.4989 31.1992C7.84795 31.1992 5.69891 29.0502 5.69891 26.3992L5.69891 7.19922C5.69891 4.54825 7.84795 2.39922 10.4989 2.39922L22.1347 2.39922C25.809 2.39922 28.7288 5.48596 28.5248 9.15457L27.5615 26.4768C27.4142 29.1263 25.2228 31.1992 22.5692 31.1992L10.4989 31.1992Z" fill="#43D14F" fill-opacity="0.8"/>
<rect x="3.89955" y="31.2" width="30.4" height="24" rx="5.6" transform="rotate(-90 3.89955 31.2)" stroke="#031F88" stroke-width="1.6"/>
<path d="M15.931 4.25013C15.7164 4.2539 15.5121 4.34244 15.3626 4.49639C15.2131 4.65035 15.1306 4.85721 15.1331 5.07179V5.75545C13.8218 6.00145 12.6998 6.84587 12.6998 8.30927C12.6998 9.32446 13.1575 10.1455 13.7721 10.6236C14.3868 11.1016 15.0808 11.3136 15.6899 11.5166C16.299 11.7197 16.8248 11.9138 17.1238 12.1463C17.4229 12.3789 17.5664 12.5746 17.5664 13.1837C17.5664 14.5373 14.3241 14.5373 14.3241 13.1837C14.3265 13.0756 14.3073 12.968 14.2676 12.8674C14.2278 12.7667 14.1684 12.6751 14.0927 12.5977C14.0171 12.5204 13.9267 12.4589 13.827 12.4169C13.7273 12.375 13.6202 12.3534 13.512 12.3534C13.4038 12.3534 13.2967 12.375 13.197 12.4169C13.0972 12.4589 13.0069 12.5204 12.9312 12.5977C12.8556 12.6751 12.7962 12.7667 12.7564 12.8674C12.7167 12.968 12.6974 13.0756 12.6998 13.1837C12.6998 14.646 13.8228 15.492 15.1331 15.7391V16.4196C15.1307 16.5278 15.1499 16.6354 15.1897 16.736C15.2294 16.8366 15.2889 16.9283 15.3645 17.0057C15.4402 17.083 15.5305 17.1445 15.6302 17.1864C15.73 17.2284 15.8371 17.25 15.9453 17.25C16.0535 17.25 16.1606 17.2284 16.2603 17.1864C16.36 17.1445 16.4504 17.083 16.526 17.0057C16.6017 16.9283 16.6611 16.8366 16.7008 16.736C16.7406 16.6354 16.7598 16.5278 16.7574 16.4196V15.7391C18.068 15.4922 19.1923 14.6462 19.1923 13.1837C19.1923 12.1686 18.733 11.3475 18.1184 10.8694C17.5038 10.3914 16.8098 10.1778 16.2006 9.97481C15.5915 9.77177 15.0657 9.57924 14.7667 9.34666C14.4677 9.11408 14.3241 8.91838 14.3241 8.30927C14.3241 6.9557 17.5664 6.9557 17.5664 8.30927C17.5664 8.52488 17.652 8.73165 17.8045 8.88411C17.9569 9.03656 18.1637 9.12221 18.3793 9.12221C18.5949 9.12221 18.8017 9.03656 18.9542 8.88411C19.1066 8.73165 19.1923 8.52488 19.1923 8.30927C19.1923 6.84807 18.0676 6.00449 16.7574 5.75704V5.07179C16.7587 4.96313 16.7381 4.85532 16.697 4.75474C16.6559 4.65416 16.595 4.56286 16.5179 4.48624C16.4408 4.40962 16.3492 4.34925 16.2484 4.30869C16.1476 4.26813 16.0396 4.24822 15.931 4.25013Z" fill="#031F88"/>
<rect x="7.49945" y="20" width="17" height="1.6" rx="0.8" fill="#031F88"/>
<rect x="7.49945" y="25" width="17" height="1.6" rx="0.8" fill="#031F88"/>
</svg>
