<svg width="48" height="48" viewBox="0 0 48 48" fill="none" xmlns="http://www.w3.org/2000/svg">
<path d="M39 48H9C4.029 48 0 43.971 0 39V9C0 4.029 4.029 0 9 0H39C43.971 0 48 4.029 48 9V39C48 43.971 43.971 48 39 48Z" fill="#43D14F" fill-opacity="0.2"/>
<path d="M23.8603 8.66809C20.3 8.67167 16.8527 9.91822 14.1134 12.1925C11.3742 14.4669 9.51497 17.6262 8.85678 21.1252C8.19858 24.6242 8.7827 28.2431 10.5083 31.3573C12.2339 34.4715 14.9926 36.8855 18.3083 38.1826" stroke="#031F88" stroke-linecap="round"/>
<path d="M24.1397 38.9319C27.7 38.9283 31.1473 37.6818 33.8866 35.4074C36.6258 33.1331 38.485 29.9738 39.1432 26.4748C39.8014 22.9758 39.2173 19.3568 37.4917 16.2426C35.7661 13.1284 33.0074 10.7144 29.6917 9.41739" stroke="#031F88" stroke-linecap="round"/>
<path d="M33.5 24C33.5 29.5228 30.5228 33.5 25 33.5C19.4772 33.5 15.5 28.5 15.5 24C15.5 18.6963 20.5 14.5 25 14.5C29.5 14.5 33.5 18.4772 33.5 24ZM21.6288 24C21.6288 25.3096 22.6904 26.3712 24 26.3712C25.3096 26.3712 26.3712 25.3096 26.3712 24C26.3712 22.6904 25.3096 21.6288 24 21.6288C22.6904 21.6288 21.6288 22.6904 21.6288 24Z" fill="#43D14F"/>
<circle cx="23.9248" cy="23.9687" r="10.001" stroke="#031F88"/>
<path d="M26 24C26 25.1046 25.6046 26 24.5 26C23.3954 26 22.5 25.1046 22.5 24C22.5 22.8954 23.3954 22 24.5 22C25.6046 22 26 22.8954 26 24Z" fill="#43D14F"/>
<circle cx="23.9243" cy="23.9687" r="2.30026" stroke="#031F88"/>
<rect x="23.5742" y="11.3676" width="0.700064" height="4.90045" rx="0.350032" fill="#031F88"/>
<rect x="36.5254" y="23.6187" width="0.700064" height="4.90045" rx="0.350032" transform="rotate(90 36.5254 23.6187)" fill="#031F88"/>
<rect x="16.2236" y="23.6187" width="0.700064" height="4.90045" rx="0.350032" transform="rotate(90 16.2236 23.6187)" fill="#031F88"/>
<rect x="23.5742" y="31.6694" width="0.700064" height="4.90045" rx="0.350032" fill="#031F88"/>
<circle cx="23.924" cy="8.9174" r="1.75016" fill="#43D14F"/>
<circle cx="24" cy="9" r="1.5" stroke="#031F88"/>
<circle cx="23.924" cy="39.0202" r="1.25016" fill="#43D14F" stroke="#031F88"/>
</svg>
