<svg width="48" height="48" viewBox="0 0 48 48" fill="none" xmlns="http://www.w3.org/2000/svg">
<path d="M39 48H9C4.029 48 0 43.971 0 39V9C0 4.029 4.029 0 9 0H39C43.971 0 48 4.029 48 9V39C48 43.971 43.971 48 39 48Z" fill="#43D14F" fill-opacity="0.2"/>
<path fill-rule="evenodd" clip-rule="evenodd" d="M13.4788 8.46875H34.5212C37.2882 8.46875 39.5312 10.7118 39.5312 13.4788V34.5211C39.5312 37.2881 37.2881 39.5312 34.5211 39.5312H13.4788C10.7118 39.5312 8.46875 37.2881 8.46875 34.5211V13.4788C8.46875 10.7118 10.7118 8.46875 13.4788 8.46875ZM33.5187 16.4849C34.6255 16.4849 35.5228 15.5876 35.5228 14.4808C35.5228 13.374 34.6255 12.4767 33.5187 12.4767C32.4119 12.4767 31.5146 13.374 31.5146 14.4808C31.5146 15.5876 32.4119 16.4849 33.5187 16.4849ZM33 24C33 28.9706 28.9706 33 24 33C19.0294 33 15 28.9706 15 24C15 19.0294 19.0294 15 24 15C28.9706 15 33 19.0294 33 24Z" fill="#43D14F"/>
<path d="M34.5212 7.96875H13.4788C10.4357 7.96875 7.96875 10.4357 7.96875 13.4788V34.5211C7.96875 37.5643 10.4357 40.0312 13.4788 40.0312H34.5211C37.5643 40.0312 40.0312 37.5643 40.0312 34.5211V13.4788C40.0313 10.4357 37.5643 7.96875 34.5212 7.96875Z" stroke="#031F88"/>
<path fill-rule="evenodd" clip-rule="evenodd" d="M34 24C34 28.9706 29.9706 33 25 33C20.0294 33 16 28.9706 16 24C16 19.0294 20.0294 15 25 15C29.9706 15 34 19.0294 34 24ZM30.0116 24C30.0116 27.3204 27.3198 30.0121 23.9994 30.0121C20.679 30.0121 17.9873 27.3204 17.9873 24C17.9873 20.6796 20.679 17.9879 23.9994 17.9879C27.3198 17.9879 30.0116 20.6796 30.0116 24Z" fill="#43D14F"/>
<path d="M24 33.5C29.2467 33.5 33.5 29.2467 33.5 24C33.5 18.7533 29.2467 14.5 24 14.5C18.7533 14.5 14.5 18.7533 14.5 24C14.5 29.2467 18.7533 33.5 24 33.5Z" stroke="#031F88"/>
<path d="M23.9994 30.512C27.596 30.512 30.5116 27.5965 30.5116 23.9999C30.5116 20.4034 27.596 17.4878 23.9994 17.4878C20.4029 17.4878 17.4873 20.4034 17.4873 23.9999C17.4873 27.5965 20.4029 30.512 23.9994 30.512Z" stroke="#031F88"/>
<path d="M25.5 30C29.0899 30 32 27.0899 32 23.5C32 19.9101 29.0899 17 25.5 17C21.9101 17 19 19.9101 19 23.5C19 27.0899 21.9101 30 25.5 30Z" fill="#43D14F"/>
<path d="M23.9994 30.512C27.596 30.512 30.5116 27.5965 30.5116 23.9999C30.5116 20.4034 27.596 17.4878 23.9994 17.4878C20.4029 17.4878 17.4873 20.4034 17.4873 23.9999C17.4873 27.5965 20.4029 30.512 23.9994 30.512Z" stroke="#031F88"/>
<path d="M34.5 17C35.8807 17 37 15.8807 37 14.5C37 13.1193 35.8807 12 34.5 12C33.1193 12 32 13.1193 32 14.5C32 15.8807 33.1193 17 34.5 17Z" fill="#43D14F"/>
<path d="M33.5187 16.9849C34.9017 16.9849 36.0228 15.8638 36.0228 14.4809C36.0228 13.0979 34.9017 11.9768 33.5187 11.9768C32.1358 11.9768 31.0146 13.0979 31.0146 14.4809C31.0146 15.8638 32.1358 16.9849 33.5187 16.9849Z" stroke="#031F88"/>
</svg>
