<svg width="70" height="80" viewBox="0 0 70 80" fill="none" xmlns="http://www.w3.org/2000/svg">
<path d="M33 1.15504C34.2376 0.440509 35.7624 0.440507 37 1.15504L67.6411 18.8456C68.8787 19.5602 69.6411 20.8807 69.6411 22.3097V57.6909C69.6411 59.12 68.8787 60.4405 67.6411 61.155L37 78.8456C35.7624 79.5602 34.2376 79.5602 33 78.8456L2.35901 61.155C1.12141 60.4405 0.359009 59.12 0.359009 57.6909V22.3097C0.359009 20.8807 1.1214 19.5602 2.35901 18.8456L33 1.15504Z" fill="white"/>
<path d="M33 1.15504C34.2376 0.440509 35.7624 0.440507 37 1.15504L67.6411 18.8456C68.8787 19.5602 69.6411 20.8807 69.6411 22.3097V57.6909C69.6411 59.12 68.8787 60.4405 67.6411 61.155L37 78.8456C35.7624 79.5602 34.2376 79.5602 33 78.8456L2.35901 61.155C1.12141 60.4405 0.359009 59.12 0.359009 57.6909V22.3097C0.359009 20.8807 1.1214 19.5602 2.35901 18.8456L33 1.15504Z" fill="#43D14F" fill-opacity="0.2"/>
<path fill-rule="evenodd" clip-rule="evenodd" d="M65.6411 22.3097L35 4.61914L4.35901 22.3097V57.6909L35 75.3815L65.6411 57.6909V22.3097ZM37 1.15504C35.7624 0.440507 34.2376 0.440509 33 1.15504L2.35901 18.8456C1.1214 19.5602 0.359009 20.8807 0.359009 22.3097V57.6909C0.359009 59.12 1.12141 60.4405 2.35901 61.155L33 78.8456C34.2376 79.5602 35.7624 79.5602 37 78.8456L67.6411 61.155C68.8787 60.4405 69.6411 59.12 69.6411 57.6909V22.3097C69.6411 20.8807 68.8787 19.5602 67.6411 18.8456L37 1.15504Z" fill="white"/>
<path d="M30.3398 35.4418L20.9041 44.9158C20.8301 44.9907 20.7357 45.0417 20.6328 45.0624C20.5299 45.0831 20.4232 45.0726 20.3263 45.0321C20.2294 44.9917 20.1466 44.9231 20.0885 44.8352C20.0304 44.7473 19.9996 44.644 20 44.5384V25.5323C20 25.3911 20.0557 25.2557 20.1549 25.1559C20.2542 25.0561 20.3887 25 20.529 25H39.3908C39.4957 24.9996 39.5984 25.0306 39.6858 25.089C39.7732 25.1475 39.8413 25.2308 39.8815 25.3283C39.9217 25.4258 39.9322 25.5331 39.9116 25.6367C39.891 25.7402 39.8403 25.8352 39.7659 25.9097L30.3398 35.4418Z" fill="#43D14F"/>
<path d="M31.7441 44.0643L40.9104 53.1996C41.0509 53.347 41.1463 53.5319 41.1852 53.7323C41.2241 53.9327 41.2049 54.1401 41.1299 54.3299C41.0548 54.5196 40.9272 54.6836 40.7621 54.8024C40.5969 54.9211 40.4014 54.9896 40.1987 54.9996H21.2023C21.0973 55 20.9946 54.969 20.9073 54.9106C20.8199 54.8521 20.7517 54.7688 20.7115 54.6713C20.6713 54.5738 20.6608 54.4664 20.6814 54.3629C20.702 54.2594 20.7527 54.1644 20.8271 54.0899L31.0035 44.0643C31.1023 43.9667 31.2353 43.9121 31.3738 43.9121C31.5122 43.9121 31.6452 43.9667 31.7441 44.0643Z" fill="#43D14F"/>
<path d="M36.8516 38.5491L45.0946 29.5105C45.1443 29.4546 45.205 29.41 45.273 29.3794C45.3409 29.3488 45.4145 29.333 45.489 29.333C45.5634 29.333 45.637 29.3488 45.705 29.3794C45.773 29.41 45.8337 29.4546 45.8833 29.5105C46.9799 30.8072 50 34.6781 50 39.6039C49.9773 42.9511 48.8279 46.1917 46.7394 48.7973C46.6898 48.8531 46.629 48.8978 46.561 48.9284C46.4931 48.959 46.4195 48.9748 46.345 48.9748C46.2706 48.9748 46.197 48.959 46.129 48.9284C46.0611 48.8978 46.0003 48.8531 45.9507 48.7973L36.8516 39.2168C36.7742 39.123 36.7318 39.0049 36.7318 38.8829C36.7318 38.761 36.7742 38.6429 36.8516 38.5491Z" fill="#43D14F"/>
</svg>
