<svg width="28" height="28" viewBox="0 0 28 28" fill="none" xmlns="http://www.w3.org/2000/svg">
<path fill-rule="evenodd" clip-rule="evenodd" d="M16.7099 14.4023C14.4247 15.9516 12.9231 18.5697 12.9231 21.5385C12.9231 22.2822 13.0173 23.0039 13.1945 23.6923H1.53846C1.13044 23.6923 0.739122 23.5363 0.450605 23.2586C0.162087 22.9809 0 22.6043 0 22.2115C0 19.8552 0.972525 17.5954 2.70363 15.9292C4.43473 14.263 6.78262 13.3269 9.23077 13.3269H12.3077C13.8592 13.3269 15.3704 13.7029 16.7099 14.4023ZM7.35034 0.998218C8.36233 0.347382 9.55211 0 10.7692 0C12.4013 0 13.9666 0.624036 15.1207 1.73483C16.2747 2.84562 16.9231 4.35218 16.9231 5.92308C16.9231 7.09455 16.5622 8.23972 15.886 9.21376C15.2098 10.1878 14.2487 10.947 13.1242 11.3953C11.9997 11.8436 10.7624 11.9609 9.56867 11.7323C8.37494 11.5038 7.27844 10.9397 6.4178 10.1113C5.55717 9.28297 4.97108 8.22758 4.73363 7.07861C4.49618 5.92965 4.61805 4.73871 5.08382 3.65641C5.54959 2.57411 6.33834 1.64905 7.35034 0.998218Z" fill="#86969E"/>
<circle cx="21.5384" cy="21.5385" r="6.46154" fill="#86969E"/>
<rect x="20.4614" y="17.2308" width="2.15385" height="8.61539" rx="1.07692" fill="white"/>
<rect x="25.8459" y="20.4616" width="2.15385" height="8.61539" rx="1.07692" transform="rotate(90 25.8459 20.4616)" fill="white"/>
</svg>
