<svg width="48" height="48" viewBox="0 0 48 48" fill="none" xmlns="http://www.w3.org/2000/svg">
<path d="M39 48H9C4.029 48 0 43.971 0 39V9C0 4.029 4.029 0 9 0H39C43.971 0 48 4.029 48 9V39C48 43.971 43.971 48 39 48Z" fill="#43D14F" fill-opacity="0.2"/>
<path fill-rule="evenodd" clip-rule="evenodd" d="M19.3668 39.1427L27.3191 9.46423C27.4867 8.83874 27.1155 8.19581 26.49 8.02821C25.8646 7.86061 25.2216 8.23181 25.054 8.8573L17.1017 38.5358C16.9341 39.1613 17.3053 39.8042 17.9308 39.9718C18.5563 40.1394 19.1992 39.7682 19.3668 39.1427ZM26.7489 7.06229C25.5899 6.75174 24.3986 7.43952 24.0881 8.59848L16.1358 38.277C15.8252 39.4359 16.513 40.6272 17.672 40.9377C18.8309 41.2483 20.0222 40.5605 20.3327 39.4015L28.2851 9.72305C28.5956 8.56409 27.9078 7.37283 26.7489 7.06229Z" fill="#031F88"/>
<rect x="16.8799" y="31.2444" width="2.48286" height="6.20716" rx="1.24143" transform="rotate(-65 16.8799 31.2444)" fill="#D9F6DC"/>
<rect x="19.9785" y="32.6888" width="2.48286" height="2.78921" rx="1.24143" transform="rotate(-65 19.9785 32.6888)" fill="#43D14F"/>
<rect x="16.2637" y="33.6178" width="2.48286" height="6.20716" rx="1.24143" transform="rotate(-65 16.2637 33.6178)" fill="#D9F6DC"/>
<rect x="19.3691" y="35.0656" width="2.48286" height="2.78159" rx="1.24143" transform="rotate(-65 19.3691 35.0656)" fill="#43D14F"/>
<path d="M16.7775 36.5159C16.1561 36.2261 15.8872 35.4875 16.177 34.8661C16.4668 34.2447 17.2054 33.9759 17.8268 34.2656L21.2021 35.8396C21.8235 36.1293 22.0923 36.868 21.8026 37.4893C21.5128 38.1107 20.7742 38.3796 20.1528 38.0898L16.7775 36.5159Z" fill="#D9F6DC"/>
<rect x="18.4844" y="37.3114" width="2.48286" height="3.08347" rx="1.24143" transform="rotate(-65 18.4844 37.3114)" fill="#43D14F"/>
<path d="M26.0311 8.31739C26.0857 8.11378 26.2949 7.99296 26.4985 8.04751C27.1271 8.21594 27.5002 8.86204 27.3317 9.49063L19.4285 38.986C19.2342 39.7112 18.4888 40.1415 17.7637 39.9472C17.6566 39.9185 17.5931 39.8085 17.6218 39.7014L26.0311 8.31739Z" fill="#43D14F"/>
<path fill-rule="evenodd" clip-rule="evenodd" d="M17.7941 32.2222C16.9224 31.8157 16.5453 30.7796 16.9518 29.9079C17.3582 29.0363 18.3944 28.6592 19.266 29.0656L22.6414 30.6396C23.513 31.046 23.8901 32.0822 23.4837 32.9538C23.0772 33.8255 22.0411 34.2026 21.1694 33.7961L17.7941 32.2222ZM17.8581 30.3306C17.685 30.7017 17.8456 31.1428 18.2167 31.3159L21.5921 32.8898C21.9632 33.0629 22.4043 32.9023 22.5774 32.5312C22.7504 32.1601 22.5899 31.7189 22.2188 31.5459L18.8434 29.9719C18.4723 29.7989 18.0311 29.9594 17.8581 30.3306Z" fill="#031F88"/>
<path fill-rule="evenodd" clip-rule="evenodd" d="M17.1779 34.5956C16.3062 34.1891 15.9291 33.153 16.3356 32.2813C16.742 31.4097 17.7781 31.0326 18.6498 31.439L22.0252 33.013C22.8968 33.4194 23.2739 34.4556 22.8675 35.3272C22.461 36.1989 21.4249 36.576 20.5532 36.1695L17.1779 34.5956ZM17.2419 32.704C17.0688 33.0751 17.2294 33.5162 17.6005 33.6893L20.9759 35.2632C21.347 35.4363 21.7881 35.2757 21.9612 34.9046C22.1342 34.5335 21.9737 34.0924 21.6025 33.9193L18.2272 32.3453C17.8561 32.1723 17.4149 32.3328 17.2419 32.704Z" fill="#031F88"/>
<rect x="15.6523" y="35.9912" width="2.48286" height="6.20716" rx="1.24143" transform="rotate(-65 15.6523 35.9912)" stroke="#031F88"/>
<rect x="18.9023" y="21.9519" width="3.32852" height="7.44859" rx="0.454636" transform="rotate(-75 18.9023 21.9519)" fill="#D9F6DC"/>
<rect x="20.7715" y="22.4525" width="3.32852" height="5.51415" rx="0.454636" transform="rotate(-75 20.7715 22.4525)" fill="#43D14F"/>
<path fill-rule="evenodd" clip-rule="evenodd" d="M20.1271 21.2448L25.39 22.655L25.7339 21.3717L20.4709 19.9615L20.1271 21.2448ZM19.02 21.5128C18.955 21.7553 19.099 22.0046 19.3415 22.0696L25.658 23.7621C25.9005 23.8271 26.1498 23.6831 26.2148 23.4406L26.8409 21.1038C26.9059 20.8613 26.762 20.612 26.5195 20.547L20.203 18.8545C19.9604 18.7895 19.7111 18.9334 19.6462 19.1759L19.02 21.5128Z" fill="#031F88"/>
<rect x="21.5986" y="11.3462" width="2.96346" height="7.44859" rx="0.454636" transform="rotate(-75 21.5986 11.3462)" fill="#D9F6DC"/>
<path d="M23.8747 11.956C23.6322 11.8911 23.4882 11.6418 23.5532 11.3992L24.0849 9.41504C24.1499 9.17251 24.3992 9.02858 24.6417 9.09356L28.6785 10.4432C28.9211 10.5082 29.065 10.7575 29 11L28.9107 12.8348C28.8457 13.0773 28.5964 13.2212 28.3539 13.1562L23.8747 11.956Z" fill="#43D14F"/>
<path fill-rule="evenodd" clip-rule="evenodd" d="M23.0948 9.62672L22.7163 11.0392L27.9958 12.4538L28.3743 11.0413L23.0948 9.62672ZM22.8707 8.53139C22.6039 8.45992 22.3298 8.61821 22.2583 8.88494L21.621 11.2633C21.5495 11.53 21.7078 11.8042 21.9746 11.8757L28.2199 13.5491C28.4867 13.6206 28.7608 13.4623 28.8323 13.1956L29.4696 10.8172C29.5411 10.5505 29.3828 10.2763 29.116 10.2048L22.8707 8.53139Z" fill="#031F88"/>
<path d="M32.7008 12.5086C33.1859 12.6385 33.4737 13.1371 33.3438 13.6222L31.1626 21.7625C31.0326 22.2476 30.534 22.5354 30.0489 22.4055L18.1042 19.2049C17.6191 19.0749 17.3312 18.5763 17.4612 18.0912L19.6424 9.95092C19.7724 9.46585 20.271 9.17799 20.756 9.30796L32.7008 12.5086Z" fill="#43D14F"/>
<path fill-rule="evenodd" clip-rule="evenodd" d="M32.3544 13.4511L18.6975 9.79179L16.5633 17.7568L30.2201 21.4162L32.3544 13.4511ZM33.3438 13.6223C33.4737 13.1372 33.1859 12.6387 32.7008 12.5087L18.8687 8.80238C18.3836 8.6724 17.885 8.96026 17.7551 9.44533L15.5739 17.5856C15.4439 18.0707 15.7318 18.5693 16.2168 18.6993L30.0489 22.4056C30.534 22.5356 31.0326 22.2477 31.1626 21.7626L33.3438 13.6223Z" fill="#031F88"/>
<rect x="34.7441" y="14.8637" width="8.93145" height="19.4836" rx="1.31854" transform="rotate(105 34.7441 14.8637)" fill="#D9F6DC" stroke="#031F88"/>
<path d="M34.8672 16.335L33.2564 22.3466C32.9964 23.3168 31.9992 23.8925 31.0291 23.6325L14.8413 19.295L16.7934 12.0098C16.8649 11.743 17.1391 11.5847 17.4058 11.6562L34.8672 16.335Z" fill="#43D14F"/>
<path fill-rule="evenodd" clip-rule="evenodd" d="M32.2907 22.0878L33.9198 16.0079C34.0369 15.5712 33.7777 15.1224 33.3411 15.0054L17.0686 10.6452C16.6319 10.5282 16.1831 10.7873 16.066 11.224L14.4369 17.3039C14.3199 17.7405 14.5791 18.1894 15.0157 18.3064L31.2882 22.6666C31.7249 22.7836 32.1737 22.5244 32.2907 22.0878ZM34.8858 16.2667C35.1457 15.2966 34.57 14.2994 33.5999 14.0395L17.3274 9.67926C16.3572 9.41931 15.3601 9.99503 15.1001 10.9652L13.471 17.045C13.2111 18.0152 13.7868 19.0124 14.7569 19.2723L31.0294 23.6325C31.9995 23.8924 32.9967 23.3167 33.2567 22.3466L34.8858 16.2667Z" fill="#031F88"/>
<path fill-rule="evenodd" clip-rule="evenodd" d="M21.6951 17.6765C21.8738 17.466 22.1893 17.4402 22.3998 17.6189C22.9457 18.0822 23.3372 18.3281 23.7332 18.4406C24.1223 18.5511 24.5734 18.5487 25.2659 18.3955C25.5355 18.3358 25.8024 18.506 25.8621 18.7757C25.9217 19.0453 25.7515 19.3122 25.4819 19.3719C24.7071 19.5433 24.0717 19.5763 23.46 19.4025C22.8552 19.2307 22.3315 18.8725 21.7527 18.3813C21.5422 18.2026 21.5164 17.8871 21.6951 17.6765Z" fill="#031F88"/>
<path fill-rule="evenodd" clip-rule="evenodd" d="M20.9021 14.3533C20.8511 14.0819 21.0298 13.8206 21.3012 13.7696C21.5841 13.7165 21.8705 13.6847 22.1612 13.7567C22.461 13.831 22.7025 13.9988 22.9355 14.2184C23.1365 14.4077 23.146 14.7242 22.9566 14.9252C22.7673 15.1262 22.4508 15.1356 22.2498 14.9463C22.0802 14.7865 21.9873 14.7439 21.9208 14.7274C21.8452 14.7087 21.7333 14.7059 21.4859 14.7524C21.2145 14.8034 20.9531 14.6247 20.9021 14.3533Z" fill="#031F88"/>
<path fill-rule="evenodd" clip-rule="evenodd" d="M26.9021 15.9711C26.8511 15.6997 27.0298 15.4384 27.3012 15.3874C27.5841 15.3342 27.8705 15.3025 28.1612 15.3745C28.461 15.4488 28.7025 15.6166 28.9355 15.8362C29.1365 16.0255 29.146 16.342 28.9566 16.543C28.7673 16.744 28.4508 16.7534 28.2498 16.5641C28.0802 16.4043 27.9873 16.3617 27.9208 16.3452C27.8452 16.3265 27.7333 16.3237 27.4859 16.3702C27.2145 16.4212 26.9531 16.2425 26.9021 15.9711Z" fill="#031F88"/>
</svg>
