<svg width="28" height="28" viewBox="0 0 28 28" fill="none" xmlns="http://www.w3.org/2000/svg">
<path d="M7 26.1338C6.44771 26.1338 6 25.6861 6 25.1338L6 4C6 3.44772 6.44772 3 7 3L21.4665 3C23.1233 3 24.4665 4.34314 24.4665 6L24.4665 23.1338C24.4665 24.7906 23.1233 26.1338 21.4665 26.1338L7 26.1338Z" fill="#43D14F" fill-opacity="0.8"/>
<path d="M14.1875 4.73351C14.0024 4.73676 13.8262 4.81304 13.6972 4.94568C13.5683 5.07831 13.4971 5.25653 13.4993 5.4414V6.0304C12.3683 6.24234 11.4006 6.96984 11.4006 8.23062C11.4006 9.10524 11.7953 9.81262 12.3254 10.2245C12.8556 10.6363 13.4542 10.8189 13.9795 10.9939C14.5049 11.1688 14.9584 11.336 15.2163 11.5364C15.4742 11.7368 15.598 11.9054 15.598 12.4302C15.598 13.5963 12.8015 13.5963 12.8015 12.4302C12.8036 12.337 12.787 12.2443 12.7528 12.1576C12.7185 12.0709 12.6672 11.9919 12.602 11.9253C12.5367 11.8586 12.4588 11.8057 12.3728 11.7695C12.2868 11.7334 12.1944 11.7148 12.1011 11.7148C12.0077 11.7148 11.9154 11.7334 11.8293 11.7695C11.7433 11.8057 11.6654 11.8586 11.6001 11.9253C11.5349 11.9919 11.4836 12.0709 11.4494 12.1576C11.4151 12.2443 11.3985 12.337 11.4006 12.4302C11.4006 13.69 12.3691 14.4188 13.4993 14.6317V15.218C13.4972 15.3112 13.5138 15.4039 13.5481 15.4906C13.5824 15.5773 13.6336 15.6563 13.6989 15.7229C13.7641 15.7895 13.8421 15.8425 13.9281 15.8786C14.0141 15.9148 14.1065 15.9334 14.1998 15.9334C14.2931 15.9334 14.3855 15.9148 14.4715 15.8786C14.5575 15.8425 14.6354 15.7895 14.7007 15.7229C14.766 15.6563 14.8172 15.5773 14.8515 15.4906C14.8858 15.4039 14.9024 15.3112 14.9003 15.218V14.6317C16.0307 14.4189 17.0004 13.6901 17.0004 12.4302C17.0004 11.5555 16.6043 10.8482 16.0742 10.4363C15.544 10.0244 14.9454 9.84047 14.4201 9.66554C13.8947 9.49062 13.4412 9.32475 13.1833 9.12437C12.9253 8.92399 12.8015 8.75539 12.8015 8.23062C12.8015 7.06446 15.598 7.06446 15.598 8.23062C15.598 8.41637 15.6719 8.59451 15.8034 8.72586C15.9349 8.85721 16.1133 8.931 16.2992 8.931C16.4852 8.931 16.6635 8.85721 16.795 8.72586C16.9265 8.59451 17.0004 8.41637 17.0004 8.23062C17.0004 6.97174 16.0303 6.24496 14.9003 6.03177V5.4414C14.9014 5.34779 14.8837 5.2549 14.8482 5.16825C14.8127 5.0816 14.7602 5.00294 14.6937 4.93693C14.6272 4.87092 14.5482 4.8189 14.4612 4.78396C14.3743 4.74902 14.2812 4.73186 14.1875 4.73351Z" fill="#031F88" stroke="#031F88" stroke-width="0.5"/>
<rect x="4" y="27" width="26" height="20" rx="3" transform="rotate(-90 4 27)" stroke="#031F88" stroke-width="2"/>
<rect x="7" y="18" width="14" height="2" rx="1" fill="#031F88"/>
<rect x="7" y="22" width="14" height="2" rx="1" fill="#031F88"/>
</svg>
