<svg width="52" height="52" viewBox="0 0 52 52" fill="none" xmlns="http://www.w3.org/2000/svg">
<path d="M42.25 52H9.75C4.36475 52 0 47.6352 0 42.25V9.75C0 4.36475 4.36475 0 9.75 0H42.25C47.6352 0 52 4.36475 52 9.75V42.25C52 47.6352 47.6352 52 42.25 52Z" fill="#43D14F" fill-opacity="0.2"/>
<path d="M10 21C10 19.8954 10.8954 19 12 19H45V39C45 40.6569 43.6569 42 42 42H10V21Z" fill="#43D14F" fill-opacity="0.8"/>
<rect x="7" y="16" width="38" height="26" rx="5" stroke="#031F88" stroke-width="2"/>
<line x1="7" y1="28" x2="45" y2="28" stroke="#031F88" stroke-width="2"/>
<rect x="17" y="25" width="2" height="7" rx="1" fill="#031F88"/>
<rect x="33" y="25" width="2" height="7" rx="1" fill="#031F88"/>
<path d="M18 13C18 11.3431 19.3431 10 21 10H31C32.6569 10 34 11.3431 34 13V15C34 15.5523 33.5523 16 33 16H19C18.4477 16 18 15.5523 18 15V13Z" stroke="#031F88" stroke-width="2"/>
</svg>
