<svg width="28" height="28" viewBox="0 0 28 28" fill="none" xmlns="http://www.w3.org/2000/svg">
<path d="M6 27L6 5C6 3.89543 6.89543 3 8 3L24 3L24 24C24 25.6569 22.6569 27 21 27L6 27Z" fill="#43D14F" fill-opacity="0.8"/>
<rect x="4" y="27" width="26" height="20" rx="3" transform="rotate(-90 4 27)" stroke="#031F88" stroke-width="2"/>
<path fill-rule="evenodd" clip-rule="evenodd" d="M20.6473 16.0362C21.0378 15.6457 21.0378 15.0125 20.6473 14.622C20.2568 14.2315 19.6236 14.2315 19.2331 14.622L13.1688 20.6862L10.7432 18.2607C10.3527 17.8701 9.71955 17.8701 9.32903 18.2607C8.9385 18.6512 8.9385 19.2843 9.32903 19.6749L12.4621 22.808C12.8527 23.1985 13.4858 23.1985 13.8764 22.808C13.8846 22.7998 13.8926 22.7914 13.9005 22.783L20.6473 16.0362Z" fill="#031F88"/>
<rect x="7" y="6" width="14" height="2" rx="1" fill="#031F88"/>
<rect x="9" y="10" width="10" height="2" rx="1" fill="#031F88"/>
</svg>
