<svg width="28" height="28" viewBox="0 0 28 28" fill="none" xmlns="http://www.w3.org/2000/svg">
<path opacity="0.8" d="M10 11.6466C10 11.2531 10.2308 10.8961 10.5896 10.7347L20 6.5V22.5L10 17V11.6466Z" fill="#43D14F"/>
<rect x="18" y="4.5" width="3" height="18" rx="1.5" stroke="#031F88" stroke-width="2"/>
<path opacity="0.8" d="M3 12.5C3 11.9477 3.44772 11.5 4 11.5H9V14.5C9 16.1569 7.65685 17.5 6 17.5H3V12.5Z" fill="#43D14F"/>
<path opacity="0.8" d="M4 12.5C4 11.9477 4.44772 11.5 5 11.5H7V20.5C7 22.1569 5.65685 23.5 4 23.5V12.5Z" fill="#43D14F"/>
<rect x="1" y="9.5" width="7" height="7" rx="2" stroke="#031F88" stroke-width="2"/>
<path d="M4 16.5H7V22C7 22.8284 6.32843 23.5 5.5 23.5C4.67157 23.5 4 22.8284 4 22V16.5Z" stroke="#031F88" stroke-width="2"/>
<path d="M7.5 10.0006L18.9 4.59961" stroke="#031F88" stroke-width="2" stroke-linecap="round"/>
<path d="M8 16.5L18.9 22.4" stroke="#031F88" stroke-width="2" stroke-linecap="round"/>
<rect x="24" y="12.5" width="4" height="2" rx="1" fill="#031F88"/>
<rect x="23" y="8.5" width="4" height="2" rx="1" transform="rotate(-30 23 8.5)" fill="#031F88"/>
<rect x="24" y="16.7695" width="4" height="2" rx="1" transform="rotate(30 24 16.7695)" fill="#031F88"/>
</svg>
