<svg width="52" height="52" viewBox="0 0 52 52" fill="none" xmlns="http://www.w3.org/2000/svg">
<path d="M42.25 52H9.75C4.36475 52 0 47.6352 0 42.25V9.75C0 4.36475 4.36475 0 9.75 0H42.25C47.6352 0 52 4.36475 52 9.75V42.25C52 47.6352 47.6352 52 42.25 52Z" fill="#43D14F" fill-opacity="0.2"/>
<rect x="7.33984" y="30.375" width="34.4715" height="20.6829" rx="4" transform="rotate(-45 7.33984 30.375)" fill="#D9F6DC"/>
<rect x="7.33984" y="30.375" width="34.4715" height="20.6829" rx="4" transform="rotate(-45 7.33984 30.375)" stroke="#031F88" stroke-width="2"/>
<rect x="5.96484" y="21.4072" width="33.9227" height="21.0555" rx="4" transform="rotate(-15 5.96484 21.4072)" fill="#D9F6DC"/>
<path d="M9.80768 25.2141C9.52179 24.1471 10.155 23.0505 11.2219 22.7646L37.357 15.7617C38.4748 15.4622 39.6127 16.171 39.8368 17.3063L42.2448 29.5067C42.542 31.0126 41.6546 32.4999 40.1882 32.9536L16.0335 40.4263C14.9496 40.7616 13.8042 40.1292 13.5105 39.0333L9.80768 25.2141Z" fill="#43D14F" fill-opacity="0.8"/>
<rect x="5.96484" y="21.4072" width="33.9227" height="21.0555" rx="4" transform="rotate(-15 5.96484 21.4072)" stroke="#031F88" stroke-width="2"/>
<circle cx="25.0724" cy="27.1845" r="7.0185" transform="rotate(-15 25.0724 27.1845)" stroke="#031F88" stroke-width="2"/>
<path d="M26.1964 25.2698C26.1964 25.2698 26.0404 23.6969 24.2862 24.1669C22.7792 24.5707 23.101 25.7732 23.1828 26.0773C23.7078 28.0283 26.4648 26.2743 27.003 28.283C27.2721 29.2874 26.9047 29.924 25.9004 30.1932C24.0846 30.6797 23.9912 29.09 23.9912 29.09" stroke="#031F88" stroke-width="2" stroke-linecap="round" stroke-linejoin="round"/>
<rect x="23.3804" y="22.7949" width="1.03978" height="2.07956" rx="0.519888" transform="rotate(-15 23.3804 22.7949)" fill="#031F88" stroke="#031F88"/>
<rect x="25.2637" y="29.8252" width="1.03978" height="2.07955" rx="0.519889" transform="rotate(-15 25.2637 29.8252)" fill="#031F88" stroke="#031F88"/>
<mask id="mask0_7124:175203" style="mask-type:alpha" maskUnits="userSpaceOnUse" x="6" y="13" width="38" height="28">
<rect x="7.18959" y="22.1143" width="31.9227" height="19.0555" rx="3" transform="rotate(-15 7.18959 22.1143)" fill="#C4C4C4" stroke="#031F88" stroke-width="2"/>
</mask>
<g mask="url(#mask0_7124:175203)">
<circle cx="8.83068" cy="23.0585" r="3.679" transform="rotate(-15 8.83068 23.0585)" stroke="#031F88" stroke-width="2"/>
<circle cx="37.0768" cy="15.4902" r="3.679" transform="rotate(-15 37.0768 15.4902)" stroke="#031F88" stroke-width="2"/>
<circle cx="41.3151" cy="31.3085" r="3.679" transform="rotate(-15 41.3151 31.3085)" stroke="#031F88" stroke-width="2"/>
<circle cx="13.0685" cy="38.8789" r="3.679" transform="rotate(-15 13.0685 38.8789)" stroke="#031F88" stroke-width="2"/>
</g>
</svg>
