<svg width="32" height="32" viewBox="0 0 32 32" fill="none" xmlns="http://www.w3.org/2000/svg">
<circle cx="16" cy="16" r="15.2" stroke="#031F88" stroke-width="1.6"/>
<path d="M30.3999 16.0004C30.3999 23.9533 23.9528 30.4004 15.9999 30.4004C8.047 30.4004 2.6001 23.9534 2.6001 16.0005C2.6001 8.80049 8.7999 2.40039 15.9999 2.40039C23.9528 2.40039 30.3999 8.04749 30.3999 16.0004Z" fill="#43D14F" fill-opacity="0.8"/>
<path d="M19.1747 12.7342C19.1747 12.7342 19.6954 9.56741 16.008 9.56742C12.8401 9.56742 12.8395 12.0948 12.8401 12.7342C12.8444 16.8363 19.1731 14.8453 19.1731 19.0676C19.1731 21.1788 18.118 22.2344 16.0069 22.2344C12.1901 22.2344 12.8423 19.0676 12.8423 19.0676" stroke="#031F88" stroke-width="1.6" stroke-linecap="round" stroke-linejoin="round"/>
<rect x="15.6" y="6.48008" width="0.8" height="3.42232" rx="0.4" fill="#C4C4C4" stroke="#031F88" stroke-width="0.8"/>
<rect x="15.6" y="21.9996" width="0.8" height="3.42232" rx="0.4" fill="#C4C4C4" stroke="#031F88" stroke-width="0.8"/>
</svg>
