<svg width="52" height="52" viewBox="0 0 52 52" fill="none" xmlns="http://www.w3.org/2000/svg">
<path d="M42.25 52H9.75C4.36475 52 0 47.6352 0 42.25V9.75C0 4.36475 4.36475 0 9.75 0H42.25C47.6352 0 52 4.36475 52 9.75V42.25C52 47.6352 47.6352 52 42.25 52Z" fill="#43D14F" fill-opacity="0.2"/>
<path d="M14 44L14 12C14 10.8954 14.8954 10 16 10L40 10L40 41C40 42.6569 38.6569 44 37 44L14 44Z" fill="#43D14F" fill-opacity="0.8"/>
<rect x="11" y="45" width="38" height="30" rx="3" transform="rotate(-90 11 45)" stroke="#031F88" stroke-width="2"/>
<path fill-rule="evenodd" clip-rule="evenodd" d="M35.1764 27.7091C35.567 27.3185 35.567 26.6854 35.1764 26.2948C34.7859 25.9043 34.1528 25.9043 33.7622 26.2948L23.1553 36.9018L18.2061 31.9526C17.8156 31.5621 17.1824 31.5621 16.7919 31.9526C16.4014 32.3431 16.4014 32.9763 16.7919 33.3668L22.4488 39.0236C22.8393 39.4142 23.4725 39.4142 23.863 39.0236C23.8725 39.0141 23.8817 39.0045 23.8908 38.9947L35.1764 27.7091Z" fill="#031F88"/>
<rect x="16" y="14" width="20" height="2" rx="1" fill="#031F88"/>
<rect x="20" y="20" width="12" height="2" rx="1" fill="#031F88"/>
</svg>
