<svg width="29" height="28" viewBox="0 0 29 28" fill="none" xmlns="http://www.w3.org/2000/svg">
<path d="M4.45666 6.39175C6.26821 3.8816 8.91597 2.10021 11.9237 1.36798C14.9314 0.635758 18.1017 1.00076 20.8644 2.39734C23.627 3.79391 25.8007 6.1304 26.9944 8.98655C28.1881 11.8427 28.3235 15.0311 27.3763 17.9781C26.4291 20.9252 24.4614 23.4376 21.8271 25.0634C19.1928 26.6892 16.0649 27.3217 13.0059 26.8472C9.94693 26.3726 7.15764 24.8222 5.13977 22.4747C3.12189 20.1272 2.00786 17.1367 1.99805 14.0412" stroke="#031F88" stroke-width="2" stroke-linecap="round"/>
<path d="M2.90762 9.16763L2.78094 6.12571L5.47866 7.53696L2.90762 9.16763Z" fill="#031F88" stroke="#031F88"/>
<path d="M24.1484 14.5733C24.1484 19.3095 20.309 23.1489 15.5728 23.1489C10.8367 23.1489 7.77686 19.3095 7.77686 14.5733C7.77686 10.2855 11.285 6.77734 15.5728 6.77734C20.309 6.77734 24.1484 9.83716 24.1484 14.5733Z" fill="#43D14F" fill-opacity="0.8"/>
<rect x="14.0547" y="9.5" width="1" height="5.74123" rx="0.5" fill="#031F88" stroke="#031F88"/>
<rect x="17.8701" y="14.5" width="1" height="3.81516" rx="0.5" transform="rotate(90 17.8701 14.5)" fill="#031F88" stroke="#031F88"/>
<circle cx="14.9995" cy="13.9995" r="9.11184" stroke="#031F88" stroke-width="2"/>
</svg>
