<svg width="90" height="100" viewBox="0 0 90 100" fill="none" xmlns="http://www.w3.org/2000/svg">
<g filter="url(#filter0_d)">
<path d="M44 11.1548C45.2376 10.4403 46.7624 10.4403 48 11.1548L78.6411 28.8454C79.8787 29.5599 80.6411 30.8804 80.6411 32.3095V67.6907C80.6411 69.1198 79.8787 70.4403 78.6411 71.1548L48 88.8454C46.7624 89.5599 45.2376 89.5599 44 88.8454L13.359 71.1548C12.1214 70.4403 11.359 69.1198 11.359 67.6907V32.3095C11.359 30.8804 12.1214 29.5599 13.359 28.8454L44 11.1548Z" fill="white"/>
<path d="M44 11.1548C45.2376 10.4403 46.7624 10.4403 48 11.1548L78.6411 28.8454C79.8787 29.5599 80.6411 30.8804 80.6411 32.3095V67.6907C80.6411 69.1198 79.8787 70.4403 78.6411 71.1548L48 88.8454C46.7624 89.5599 45.2376 89.5599 44 88.8454L13.359 71.1548C12.1214 70.4403 11.359 69.1198 11.359 67.6907V32.3095C11.359 30.8804 12.1214 29.5599 13.359 28.8454L44 11.1548Z" fill="#43D14F" fill-opacity="0.2"/>
<path fill-rule="evenodd" clip-rule="evenodd" d="M76.6411 32.3095L46 14.6189L15.359 32.3095V67.6907L46 85.3813L76.6411 67.6907V32.3095ZM48 11.1548C46.7624 10.4403 45.2376 10.4403 44 11.1548L13.359 28.8454C12.1214 29.5599 11.359 30.8804 11.359 32.3095V67.6907C11.359 69.1198 12.1214 70.4403 13.359 71.1548L44 88.8454C45.2376 89.5599 46.7624 89.5599 48 88.8454L78.6411 71.1548C79.8787 70.4403 80.6411 69.1198 80.6411 67.6907V32.3095C80.6411 30.8804 79.8787 29.5599 78.6411 28.8454L48 11.1548Z" fill="white"/>
<path d="M37 63.5L37 40C37 38.8954 37.8954 38 39 38L56.5 38L56.5 60.5C56.5 62.1569 55.1569 63.5 53.5 63.5L37 63.5Z" fill="#43D14F" fill-opacity="0.8"/>
<rect x="35" y="64" width="28" height="22" rx="3" transform="rotate(-90 35 64)" stroke="#031F88" stroke-width="2"/>
<path fill-rule="evenodd" clip-rule="evenodd" d="M52.7064 51.4571C53.0969 51.0666 53.0969 50.4334 52.7064 50.0429C52.3159 49.6524 51.6827 49.6524 51.2922 50.0429L43.8674 57.4677L40.6856 54.286C40.2951 53.8955 39.6619 53.8955 39.2714 54.286C38.8809 54.6765 38.8809 55.3097 39.2714 55.7002L43.1605 59.5893C43.551 59.9798 44.1842 59.9798 44.5747 59.5893C44.5808 59.5832 44.5868 59.5771 44.5927 59.5709L52.7064 51.4571Z" fill="#031F88"/>
<rect x="38.5" y="41" width="15" height="2" rx="1" fill="#031F88"/>
<rect x="41.5" y="45.5" width="9" height="2" rx="1" fill="#031F88"/>
</g>
<defs>
<filter id="filter0_d" x="0" y="0" width="90" height="100" filterUnits="userSpaceOnUse" color-interpolation-filters="sRGB">
<feFlood flood-opacity="0" result="BackgroundImageFix"/>
<feColorMatrix in="SourceAlpha" type="matrix" values="0 0 0 0 0 0 0 0 0 0 0 0 0 0 0 0 0 0 127 0" result="hardAlpha"/>
<feOffset dx="-1"/>
<feGaussianBlur stdDeviation="5"/>
<feColorMatrix type="matrix" values="0 0 0 0 0.52549 0 0 0 0 0.588235 0 0 0 0 0.619608 0 0 0 0.2 0"/>
<feBlend mode="normal" in2="BackgroundImageFix" result="effect1_dropShadow"/>
<feBlend mode="normal" in="SourceGraphic" in2="effect1_dropShadow" result="shape"/>
</filter>
</defs>
</svg>
