<svg width="32" height="32" viewBox="0 0 32 32" fill="none" xmlns="http://www.w3.org/2000/svg">
<path d="M2.3999 12.799C2.3999 10.1481 4.54894 7.99902 7.1999 7.99902H26.3999C29.0509 7.99902 31.1999 10.1481 31.1999 12.799V23.999C31.1999 27.5337 28.3345 30.399 24.7999 30.399H5.5999C3.83259 30.399 2.3999 28.9663 2.3999 27.199V12.799Z" fill="#43D14F" fill-opacity="0.8"/>
<rect x="0.8" y="6.40059" width="30.4" height="24" rx="5.6" stroke="#031F88" stroke-width="1.6"/>
<rect x="8" y="0.799805" width="1.6" height="6.4" rx="0.8" fill="#031F88"/>
<rect x="22.3999" y="0.799805" width="1.6" height="6.4" rx="0.8" fill="#031F88"/>
<rect y="11.999" width="30.4" height="1.6" fill="#031F88"/>
<rect x="6.3999" y="16.7998" width="3.2" height="3.2" rx="1.6" fill="#031F88"/>
<rect x="6.3999" y="23.2002" width="3.2" height="3.2" rx="1.6" fill="#031F88"/>
<rect x="14.3999" y="16.7998" width="3.2" height="3.2" rx="1.6" fill="#031F88"/>
<rect x="14.3999" y="23.2002" width="3.2" height="3.2" rx="1.6" fill="#031F88"/>
<rect x="22.3999" y="16.7998" width="3.2" height="3.2" rx="1.6" fill="#031F88"/>
<rect x="22.3999" y="23.2002" width="3.2" height="3.2" rx="1.6" fill="#031F88"/>
</svg>
