<svg width="35" height="34" viewBox="0 0 35 34" fill="none" xmlns="http://www.w3.org/2000/svg">
<path fill-rule="evenodd" clip-rule="evenodd" d="M11.1953 5.0931C13.7146 4.2881 16.4243 4.30291 18.9346 5.13538C21.4449 5.96786 23.6265 7.57511 25.1655 9.72594C25.5673 10.2874 26.3481 10.4168 26.9095 10.0151C27.4709 9.61335 27.6004 8.83255 27.1986 8.27113C25.3518 5.69013 22.7339 3.76144 19.7215 2.76246C16.7091 1.76349 13.4575 1.74572 10.4344 2.71171C7.41126 3.67771 4.77243 5.57769 2.89748 8.13834C1.02253 10.699 0.00807572 13.7884 4.80139e-05 16.9621C-0.00797969 20.1358 0.99083 23.2302 2.8528 25.8003C4.71478 28.3704 7.34396 30.2837 10.3622 31.265C13.3803 32.2463 16.632 32.245 19.6494 31.2612C22.5309 30.3218 25.057 28.5327 26.8984 26.1339C27.3188 25.5863 27.5 25.125 26.875 24.5C26.8166 24.4552 26.3131 23.908 26.25 23.875C25 22.7129 23.1901 21.5536 21.2185 20.737C19.247 19.9203 17.1339 19.5 14.9999 19.5C12.8659 19.5 10.7528 19.9203 8.78131 20.737C7.15309 21.4114 5.64775 22.3452 4.32289 23.5C3.1284 21.5379 2.4942 19.2783 2.50004 16.9684C2.50673 14.3236 3.35211 11.7492 4.91457 9.61528C6.47703 7.4814 8.67605 5.89809 11.1953 5.0931ZM5.8348 25.5C7.27827 27.0564 9.10064 28.2261 11.1351 28.8875C13.6503 29.7052 16.36 29.7041 18.8745 28.8844C20.9052 28.2223 22.724 27.0539 24.1651 25.5001C23.0127 24.4696 21.6934 23.6396 20.2618 23.0467C18.5936 22.3557 16.8056 22 14.9999 22C13.1942 22 11.4062 22.3557 9.73801 23.0467C8.30646 23.6396 6.98716 24.4696 5.8348 25.5ZM27.5 12C27.5 11.3096 28.0596 10.75 28.75 10.75C29.4404 10.75 30 11.3096 30 12V15.75H33.75C34.4404 15.75 35 16.3096 35 17C35 17.6904 34.4404 18.25 33.75 18.25H30V22C30 22.6904 29.4404 23.25 28.75 23.25C28.0596 23.25 27.5 22.6904 27.5 22V18.25H23.75C23.0596 18.25 22.5 17.6904 22.5 17C22.5 16.3096 23.0596 15.75 23.75 15.75H27.5V12ZM10 10.75C10 7.98858 12.2386 5.75 15 5.75C17.7614 5.75 20 7.98858 20 10.75V13.25C20 16.0114 17.7614 18.25 15 18.25C12.2386 18.25 10 16.0114 10 13.25V10.75ZM15 8.25C13.6193 8.25 12.5 9.36929 12.5 10.75V13.25C12.5 14.6307 13.6193 15.75 15 15.75C16.3807 15.75 17.5 14.6307 17.5 13.25V10.75C17.5 9.36929 16.3807 8.25 15 8.25Z" fill="#43D14F"/>
</svg>
