<svg width="16" height="11" viewBox="0 0 16 11" fill="none" xmlns="http://www.w3.org/2000/svg">
<path fill-rule="evenodd" clip-rule="evenodd" d="M2.45005 7.14986C1.53878 7.14986 0.800049 6.41113 0.800049 5.49986C0.800049 4.58859 1.53878 3.84986 2.45005 3.84986L9.90643 3.84986L9.667 3.61043C9.02264 2.96607 9.02264 1.92134 9.667 1.27698C10.3114 0.632614 11.3561 0.632614 12.0005 1.27698L15.1117 4.38825C15.7561 5.03261 15.7561 6.07734 15.1117 6.7217C15.1083 6.72514 15.1048 6.72855 15.1014 6.73195L12.0002 9.83313C11.3558 10.4775 10.3111 10.4775 9.66675 9.83313C9.02239 9.18877 9.02239 8.14404 9.66675 7.49968L10.0166 7.14986L2.45005 7.14986Z" fill="white"/>
</svg>
