<svg width="44" height="44" viewBox="0 0 44 44" fill="none" xmlns="http://www.w3.org/2000/svg">
<path d="M35.75 43.9999H8.25C3.69325 43.9999 0 40.4006 0 35.9598V9.15929C0 4.71845 3.69325 1.11914 8.25 1.11914H35.75C40.3068 1.11914 44 4.71845 44 9.15929V35.9598C44 40.4006 40.3068 43.9999 35.75 43.9999Z" fill="#43D14F" fill-opacity="0.2"/>
<path d="M30.5 27.9326C30.5 27.6565 30.7239 27.4326 31 27.4326H34V35.8195C34 37.1081 32.9553 38.1528 31.6667 38.1528C31.0223 38.1528 30.5 37.6305 30.5 36.9861V27.9326Z" fill="#43D14F"/>
<path d="M13.5616 13.859L17.3218 13.1298C17.8536 12.9886 18.8966 13.314 19.0359 13.8297C19.1752 14.3454 20.02 15.7606 19.0219 16.25L16.0303 17.2342C16.0303 17.2342 14.2503 17.663 14.5289 18.6944C14.8074 19.7259 15.4532 19.4503 16.5167 19.1678L20.7607 18.221C21.2925 18.0797 22.8471 18.6174 22.9864 19.1331C23.1257 19.6488 23.4728 21.0666 22.4747 21.5561L14.5008 23.5352C14.5008 23.5352 12.7209 23.9639 12.9994 24.9953C13.278 26.0268 13.4261 25.7539 14.4896 25.4714L18.4225 24.8465L27.6143 22.5058C31.9117 21.4114 34.5033 17.1253 33.3808 12.969L31.9864 11.8239C31.1059 8.56371 29.9026 7.60649 26.5317 8.4649L14.0972 11.8628C13.2038 12.1069 12.9051 13.2204 13.5616 13.859Z" fill="#43D14F"/>
<mask id="path-4-inside-1" fill="white">
<path fill-rule="evenodd" clip-rule="evenodd" d="M33.5031 12.9163C32.3845 8.58539 27.8724 6.01317 23.5136 7.22153L14.321 9.76993C14.3134 9.77202 14.309 9.77973 14.311 9.7872C14.3131 9.79476 14.3086 9.80255 14.3009 9.80454L12.8618 10.178C12.0615 10.3856 11.5865 11.1977 11.8044 11.9857L11.9355 12.46C12.2221 13.4967 13.302 14.1113 14.3544 13.8366L17.2902 13.0702C17.8156 12.933 18.3547 13.2403 18.4969 13.7581C18.6405 14.2804 18.3259 14.8183 17.7958 14.9566L14.8907 15.715C13.83 15.9919 13.2011 17.0689 13.49 18.1138C13.7757 19.1473 14.8523 19.7599 15.9014 19.4861L20.775 18.2138C21.3004 18.0767 21.8394 18.384 21.9817 18.9017C22.1252 19.4241 21.8106 19.9619 21.2806 20.1003L14.5213 21.8648C14.5176 21.8658 14.5138 21.8636 14.5128 21.8599C14.5117 21.8562 14.5079 21.854 14.5042 21.855L13.0759 22.2258C12.2723 22.4345 11.7952 23.25 12.0139 24.0415L12.1443 24.5136C12.4312 25.5519 13.5121 26.1681 14.5664 25.8943L18.6864 24.8246L27.6602 22.5965C31.9864 21.5224 34.6053 17.1835 33.5031 12.9163Z"/>
</mask>
<path d="M18.6864 24.8246L18.4408 23.8611L18.4303 23.8638L18.6864 24.8246ZM14.5664 25.8943L14.8225 26.8551L14.5664 25.8943ZM13.0759 22.2258L13.332 23.1866L13.0759 22.2258ZM14.5042 21.855L14.7603 22.8158L14.5042 21.855ZM14.5213 21.8648L14.2639 20.9043L14.5213 21.8648ZM20.775 18.2138L21.0324 19.1743L20.775 18.2138ZM17.7958 14.9566L18.0532 15.9171L17.7958 14.9566ZM17.2902 13.0702L17.5477 14.0306L17.2902 13.0702ZM11.8044 11.9857L10.8335 12.2471L11.8044 11.9857ZM23.5136 7.22153L23.2414 6.26507L23.5136 7.22153ZM14.5932 10.7264L23.7858 8.178L23.2414 6.26507L14.0487 8.81346L14.5932 10.7264ZM13.1177 11.1388L14.5569 10.7654L14.0449 8.84371L12.6058 9.21716L13.1177 11.1388ZM12.9064 12.1986L12.7753 11.7242L10.8335 12.2471L10.9646 12.7214L12.9064 12.1986ZM17.0328 12.1097L14.097 12.8761L14.6118 14.797L17.5477 14.0306L17.0328 12.1097ZM15.1481 16.6755L18.0532 15.9171L17.5384 13.9962L14.6333 14.7546L15.1481 16.6755ZM16.1588 20.4465L21.0324 19.1743L20.5176 17.2534L15.644 18.5256L16.1588 20.4465ZM21.0232 19.1398L14.2639 20.9043L14.7787 22.8252L21.538 21.0607L21.0232 19.1398ZM13.332 23.1866L14.7603 22.8158L14.2481 20.8942L12.8198 21.265L13.332 23.1866ZM13.1153 24.2523L12.9848 23.7802L11.0429 24.3028L11.1734 24.7749L13.1153 24.2523ZM18.4303 23.8638L14.3103 24.9335L14.8225 26.8551L18.9425 25.7854L18.4303 23.8638ZM27.4146 21.6331L18.4408 23.8612L18.932 25.7881L27.9058 23.56L27.4146 21.6331ZM27.9058 23.56C32.7722 22.3517 35.7181 17.471 34.4783 12.671L32.5279 13.1616C33.4924 16.896 31.2005 20.6931 27.4146 21.6331L27.9058 23.56ZM11.1734 24.7749C11.6056 26.3392 13.2341 27.2675 14.8225 26.8551L14.3103 24.9335C13.7901 25.0686 13.2568 24.7646 13.1153 24.2523L11.1734 24.7749ZM12.8198 21.265C11.4752 21.6141 10.6771 22.9786 11.0429 24.3028L12.9848 23.7802C12.9134 23.5214 13.0693 23.2548 13.332 23.1866L12.8198 21.265ZM15.4841 21.5999C15.3383 21.0695 14.7865 20.7544 14.2481 20.8942L14.7603 22.8158C14.2294 22.9536 13.6852 22.6429 13.5415 22.1199L15.4841 21.5999ZM14.2639 20.9043C14.7952 20.7656 15.3402 21.0764 15.4841 21.5999L13.5415 22.1199C13.6873 22.6508 14.24 22.9659 14.7787 22.8252L14.2639 20.9043ZM21.0104 19.1617C21.0104 19.1618 21.0102 19.1609 21.0101 19.1592C21.01 19.1575 21.01 19.1558 21.0103 19.1542C21.0107 19.1511 21.0116 19.1492 21.0122 19.1481C21.0128 19.1471 21.0141 19.1454 21.0165 19.1435C21.0178 19.1425 21.0193 19.1416 21.0208 19.1408C21.0223 19.1401 21.0233 19.1398 21.0232 19.1398L21.538 21.0607C22.6078 20.7815 23.2427 19.696 22.953 18.6417L21.0104 19.1617ZM21.0324 19.1743C21.0325 19.1743 21.0315 19.1745 21.0298 19.1746C21.0282 19.1747 21.0265 19.1746 21.0249 19.1744C21.0218 19.174 21.0199 19.1731 21.0188 19.1725C21.0177 19.1718 21.016 19.1706 21.0141 19.1682C21.0131 19.1669 21.0121 19.1655 21.0114 19.1641C21.0106 19.1626 21.0104 19.1617 21.0104 19.1617L22.953 18.6417C22.6659 17.5968 21.5779 16.9766 20.5176 17.2534L21.0324 19.1743ZM12.5191 18.3752C12.9503 19.9351 14.5753 20.8599 16.1588 20.4465L15.644 18.5256C15.1292 18.66 14.601 18.3594 14.4609 17.8524L12.5191 18.3752ZM14.6333 14.7546C13.0323 15.1725 12.0831 16.7981 12.5191 18.3752L14.4609 17.8524C14.3192 17.3397 14.6277 16.8113 15.1481 16.6755L14.6333 14.7546ZM17.5256 14.0181C17.5257 14.0181 17.5254 14.0172 17.5253 14.0155C17.5252 14.0139 17.5253 14.0122 17.5255 14.0106C17.5259 14.0075 17.5268 14.0056 17.5274 14.0045C17.528 14.0034 17.5293 14.0017 17.5318 13.9998C17.5331 13.9988 17.5346 13.9979 17.536 13.9972C17.5376 13.9964 17.5385 13.9962 17.5384 13.9962L18.0532 15.9171C19.123 15.6378 19.758 14.5523 19.4682 13.4981L17.5256 14.0181ZM17.5477 14.0306C17.5477 14.0306 17.5468 14.0308 17.5451 14.0309C17.5434 14.031 17.5417 14.0309 17.5401 14.0307C17.5371 14.0303 17.5351 14.0294 17.534 14.0288C17.5329 14.0282 17.5312 14.027 17.5293 14.0245C17.5283 14.0233 17.5274 14.0219 17.5266 14.0204C17.5259 14.0189 17.5256 14.018 17.5256 14.0181L19.4682 13.4981C19.1811 12.4531 18.0932 11.8329 17.0328 12.1097L17.5477 14.0306ZM10.9646 12.7214C11.3967 14.2846 13.0251 15.2112 14.6118 14.797L14.097 12.8761C13.579 13.0113 13.0475 12.7088 12.9064 12.1986L10.9646 12.7214ZM12.6058 9.21716C11.2645 9.56521 10.4683 10.9263 10.8335 12.2471L12.7753 11.7242C12.7047 11.469 12.8586 11.2061 13.1177 11.1388L12.6058 9.21716ZM13.3402 10.0488C13.1949 9.52351 13.5115 8.98214 14.0449 8.84371L14.5569 10.7654C15.1057 10.623 15.4314 10.066 15.2819 9.52562L13.3402 10.0488ZM23.7858 8.178C27.6004 7.12053 31.549 9.37154 32.5279 13.1616L34.4783 12.671C33.22 7.79923 28.1445 4.90582 23.2414 6.26507L23.7858 8.178ZM14.0487 8.81346C13.5089 8.96313 13.1925 9.51474 13.3402 10.0488L15.2819 9.52562C15.4255 10.0447 15.118 10.5809 14.5932 10.7264L14.0487 8.81346Z" fill="#031F88" mask="url(#path-4-inside-1)"/>
<path d="M6.54132 26.2013C6.51851 26.0819 6.59577 25.9661 6.71595 25.9397L10.8558 25.0294C10.9455 25.0096 11.037 25.0543 11.0757 25.1366C11.4665 25.9691 11.0026 26.9478 10.1047 27.1848L8.71552 27.5516C7.73105 27.8116 6.73004 27.1899 6.54132 26.2013Z" fill="#43D14F"/>
<rect x="0.616254" y="0.351328" width="4.08272" height="2.90171" rx="1.45085" transform="matrix(0.97212 -0.257009 0.260388 0.959666 5.7924 24.4616)" stroke="#031F88"/>
<path d="M36.4997 22.0598H26.5003C26.1434 22.0598 25.9015 21.6968 26.0388 21.3674L31.0385 9.37342C31.2095 8.96326 31.7905 8.96326 31.9615 9.37342L36.9612 21.3674C37.0985 21.6968 36.8566 22.0598 36.4997 22.0598Z" fill="#C4E1C7" stroke="#031F88"/>
<path d="M28.9697 22.5595H36.4757C37.1956 22.5595 37.6797 21.8216 37.393 21.1612L32.5 9.89014L28.0395 21.1924C27.7805 21.8486 28.2642 22.5595 28.9697 22.5595Z" fill="#43D14F"/>
<path d="M36.4997 22.0598H26.5003C26.1434 22.0598 25.9015 21.6968 26.0388 21.3674L31.0385 9.37342C31.2095 8.96326 31.7905 8.96326 31.9615 9.37342L36.9612 21.3674C37.0985 21.6968 36.8566 22.0598 36.4997 22.0598Z" stroke="#031F88"/>
<rect x="31" y="19.6357" width="1" height="6.82194" rx="0.5" fill="#031F88"/>
<path d="M29 26.9707C29 26.4184 29.4477 25.9707 30 25.9707H33C33.5523 25.9707 34 26.4184 34 26.9707V35.6655C34 36.77 33.1046 37.6655 32 37.6655H31C29.8954 37.6655 29 36.77 29 35.6655V26.9707Z" stroke="#031F88" stroke-linecap="round" stroke-linejoin="bevel"/>
</svg>
