<svg width="26" height="26" viewBox="0 0 26 26" fill="none" xmlns="http://www.w3.org/2000/svg">
<path d="M4.30462 25H21.6954C23.5184 25 25 23.5733 25 21.8178V5.95998C25 4.20442 23.5184 2.77774 21.6954 2.77774H20.3846V1.88887C20.3846 1.39998 19.9692 1 19.4615 1C18.9538 1 18.5384 1.39998 18.5384 1.88887V2.77774H7.46157V1.88887C7.46157 1.39998 7.04613 1 6.53843 1C6.03073 1 5.61537 1.39998 5.61537 1.88887V2.77774H4.30462C2.48155 2.77774 1 4.20442 1 5.95998V21.8178C1 23.5733 2.48155 25 4.30462 25ZM2.8462 5.95998C2.8462 5.18667 3.50157 4.55556 4.30462 4.55556H5.61537V5.44444C5.61537 5.93333 6.03073 6.33331 6.53843 6.33331C7.04613 6.33331 7.46149 5.93333 7.46149 5.44444V4.55556H18.5384V5.44444C18.5384 5.93333 18.9538 6.33331 19.4615 6.33331C19.9692 6.33331 20.3846 5.93333 20.3846 5.44444V4.55556H21.6953C22.4984 4.55556 23.1537 5.18667 23.1537 5.95998V21.8178C23.1537 22.5911 22.4984 23.2222 21.6953 23.2222H4.30462C3.50157 23.2222 2.8462 22.5911 2.8462 21.8178V5.95998Z" fill="#43D14F" stroke="#43D14F" stroke-width="0.5"/>
<path d="M7.6924 11.2222C8.32964 11.2222 8.84623 10.7247 8.84623 10.1111C8.84623 9.49745 8.32964 9 7.6924 9C7.05516 9 6.53857 9.49745 6.53857 10.1111C6.53857 10.7247 7.05516 11.2222 7.6924 11.2222Z" fill="#43D14F" stroke="#43D14F" stroke-width="0.5"/>
<path d="M12.7693 11.2222C13.4065 11.2222 13.9231 10.7247 13.9231 10.1111C13.9231 9.49745 13.4065 9 12.7693 9C12.1321 9 11.6155 9.49745 11.6155 10.1111C11.6155 10.7247 12.1321 11.2222 12.7693 11.2222Z" fill="#43D14F" stroke="#43D14F" stroke-width="0.5"/>
<path d="M17.8462 11.2222C18.4835 11.2222 19 10.7247 19 10.1111C19 9.49745 18.4835 9 17.8462 9C17.209 9 16.6924 9.49745 16.6924 10.1111C16.6924 10.7247 17.209 11.2222 17.8462 11.2222Z" fill="#43D14F" stroke="#43D14F" stroke-width="0.5"/>
<path d="M7.6924 15.6668C8.32964 15.6668 8.84623 15.1693 8.84623 14.5557C8.84623 13.942 8.32964 13.4446 7.6924 13.4446C7.05516 13.4446 6.53857 13.942 6.53857 14.5557C6.53857 15.1693 7.05516 15.6668 7.6924 15.6668Z" fill="#43D14F" stroke="#43D14F" stroke-width="0.5"/>
<path d="M12.7693 15.6668C13.4065 15.6668 13.9231 15.1693 13.9231 14.5557C13.9231 13.942 13.4065 13.4446 12.7693 13.4446C12.1321 13.4446 11.6155 13.942 11.6155 14.5557C11.6155 15.1693 12.1321 15.6668 12.7693 15.6668Z" fill="#43D14F" stroke="#43D14F" stroke-width="0.5"/>
<path d="M17.8462 15.6668C18.4835 15.6668 19 15.1693 19 14.5557C19 13.942 18.4835 13.4446 17.8462 13.4446C17.209 13.4446 16.6924 13.942 16.6924 14.5557C16.6924 15.1693 17.209 15.6668 17.8462 15.6668Z" fill="#43D14F" stroke="#43D14F" stroke-width="0.5"/>
<path d="M7.6924 20.1111C8.32964 20.1111 8.84623 19.6137 8.84623 19C8.84623 18.3864 8.32964 17.8889 7.6924 17.8889C7.05516 17.8889 6.53857 18.3864 6.53857 19C6.53857 19.6137 7.05516 20.1111 7.6924 20.1111Z" fill="#43D14F" stroke="#43D14F" stroke-width="0.5"/>
<path d="M12.7693 20.1111C13.4065 20.1111 13.9231 19.6137 13.9231 19C13.9231 18.3864 13.4065 17.8889 12.7693 17.8889C12.1321 17.8889 11.6155 18.3864 11.6155 19C11.6155 19.6137 12.1321 20.1111 12.7693 20.1111Z" fill="#43D14F" stroke="#43D14F" stroke-width="0.5"/>
<path d="M17.8462 20.1111C18.4835 20.1111 19 19.6137 19 19C19 18.3864 18.4835 17.8889 17.8462 17.8889C17.209 17.8889 16.6924 18.3864 16.6924 19C16.6924 19.6137 17.209 20.1111 17.8462 20.1111Z" fill="#43D14F" stroke="#43D14F" stroke-width="0.5"/>
</svg>
