<svg width="38" height="38" viewBox="0 0 38 38" fill="none" xmlns="http://www.w3.org/2000/svg">
<path d="M5.95693 37H32.0431C34.7777 37 37 34.86 37 32.2267V8.43996C37 5.80664 34.7777 3.66662 32.0431 3.66662H30.0769V2.33331C30.0769 1.59997 29.4538 1 28.6922 1C27.9307 1 27.3076 1.59997 27.3076 2.33331V3.66662H10.6924V2.33331C10.6924 1.59997 10.0692 1 9.30765 1C8.5461 1 7.92306 1.59997 7.92306 2.33331V3.66662H5.95693C3.22233 3.66662 1 5.80664 1 8.43996V32.2267C1 34.86 3.22233 37 5.95693 37ZM3.76929 8.43996C3.76929 7.28 4.75236 6.33335 5.95693 6.33335H7.92306V7.66665C7.92306 8.4 8.5461 8.99996 9.30765 8.99996C10.0692 8.99996 10.6922 8.4 10.6922 7.66665V6.33335H27.3076V7.66665C27.3076 8.4 27.9307 8.99996 28.6922 8.99996C29.4538 8.99996 30.0768 8.4 30.0768 7.66665V6.33335H32.0429C33.2475 6.33335 34.2306 7.28 34.2306 8.43996V32.2267C34.2306 33.3866 33.2475 34.3333 32.0429 34.3333H5.95693C4.75236 34.3333 3.76929 33.3866 3.76929 32.2267V8.43996Z" fill="#F8632D" stroke="#F8632D" stroke-width="0.5"/>
<path d="M11.0384 16.3331C11.9942 16.3331 12.7691 15.587 12.7691 14.6665C12.7691 13.7461 11.9942 12.9999 11.0384 12.9999C10.0825 12.9999 9.30762 13.7461 9.30762 14.6665C9.30762 15.587 10.0825 16.3331 11.0384 16.3331Z" fill="#F8632D" stroke="#F8632D" stroke-width="0.5"/>
<path d="M18.6541 16.3331C19.6099 16.3331 20.3848 15.587 20.3848 14.6665C20.3848 13.7461 19.6099 12.9999 18.6541 12.9999C17.6982 12.9999 16.9233 13.7461 16.9233 14.6665C16.9233 15.587 17.6982 16.3331 18.6541 16.3331Z" fill="#F8632D" stroke="#F8632D" stroke-width="0.5"/>
<path d="M26.2693 16.3331C27.2252 16.3331 28.0001 15.587 28.0001 14.6665C28.0001 13.7461 27.2252 12.9999 26.2693 12.9999C25.3135 12.9999 24.5386 13.7461 24.5386 14.6665C24.5386 15.587 25.3135 16.3331 26.2693 16.3331Z" fill="#F8632D" stroke="#F8632D" stroke-width="0.5"/>
<path d="M11.0384 23.0002C11.9942 23.0002 12.7691 22.254 12.7691 21.3335C12.7691 20.4131 11.9942 19.6669 11.0384 19.6669C10.0825 19.6669 9.30762 20.4131 9.30762 21.3335C9.30762 22.254 10.0825 23.0002 11.0384 23.0002Z" fill="#F8632D" stroke="#F8632D" stroke-width="0.5"/>
<path d="M18.6541 23.0002C19.6099 23.0002 20.3848 22.254 20.3848 21.3335C20.3848 20.4131 19.6099 19.6669 18.6541 19.6669C17.6982 19.6669 16.9233 20.4131 16.9233 21.3335C16.9233 22.254 17.6982 23.0002 18.6541 23.0002Z" fill="#F8632D" stroke="#F8632D" stroke-width="0.5"/>
<path d="M26.2693 23.0002C27.2252 23.0002 28.0001 22.254 28.0001 21.3335C28.0001 20.4131 27.2252 19.6669 26.2693 19.6669C25.3135 19.6669 24.5386 20.4131 24.5386 21.3335C24.5386 22.254 25.3135 23.0002 26.2693 23.0002Z" fill="#F8632D" stroke="#F8632D" stroke-width="0.5"/>
<path d="M11.0384 29.6667C11.9942 29.6667 12.7691 28.9205 12.7691 28.0001C12.7691 27.0796 11.9942 26.3334 11.0384 26.3334C10.0825 26.3334 9.30762 27.0796 9.30762 28.0001C9.30762 28.9205 10.0825 29.6667 11.0384 29.6667Z" fill="#F8632D" stroke="#F8632D" stroke-width="0.5"/>
<path d="M18.6541 29.6667C19.6099 29.6667 20.3848 28.9205 20.3848 28.0001C20.3848 27.0796 19.6099 26.3334 18.6541 26.3334C17.6982 26.3334 16.9233 27.0796 16.9233 28.0001C16.9233 28.9205 17.6982 29.6667 18.6541 29.6667Z" fill="#F8632D" stroke="#F8632D" stroke-width="0.5"/>
<path d="M26.2693 29.6667C27.2252 29.6667 28.0001 28.9205 28.0001 28.0001C28.0001 27.0796 27.2252 26.3334 26.2693 26.3334C25.3135 26.3334 24.5386 27.0796 24.5386 28.0001C24.5386 28.9205 25.3135 29.6667 26.2693 29.6667Z" fill="#F8632D" stroke="#F8632D" stroke-width="0.5"/>
</svg>
