<svg width="28" height="28" viewBox="0 0 28 28" fill="none" xmlns="http://www.w3.org/2000/svg">
<path d="M23.8 4.2H22.4V1.4C22.4 1.0287 22.2525 0.672602 21.99 0.410051C21.7274 0.1475 21.3713 0 21 0C20.6287 0 20.2726 0.1475 20.01 0.410051C19.7475 0.672602 19.6 1.0287 19.6 1.4V4.2H8.4V1.4C8.4 1.0287 8.2525 0.672602 7.98995 0.410051C7.7274 0.1475 7.3713 0 7 0C6.6287 0 6.2726 0.1475 6.01005 0.410051C5.7475 0.672602 5.6 1.0287 5.6 1.4V4.2H4.2C3.08609 4.2 2.0178 4.6425 1.23015 5.43015C0.442499 6.21781 0 7.28609 0 8.4V9.8H28V8.4C28 7.28609 27.5575 6.21781 26.7698 5.43015C25.9822 4.6425 24.9139 4.2 23.8 4.2Z" fill="#86969E"/>
<path fill-rule="evenodd" clip-rule="evenodd" d="M0 23.8C0 24.9139 0.442499 25.9822 1.23015 26.7698C2.0178 27.5575 3.08609 28 4.2 28H23.8C24.9139 28 25.9822 27.5575 26.7698 26.7698C27.5575 25.9822 28 24.9139 28 23.8V12.6H0V23.8ZM7 16.9999C7 18.1044 6.10457 18.9999 5 18.9999C3.89543 18.9999 3 18.1044 3 16.9999C3 15.8953 3.89543 14.9999 5 14.9999C6.10457 14.9999 7 15.8953 7 16.9999ZM5 24.9999C6.10457 24.9999 7 24.1044 7 22.9999C7 21.8953 6.10457 20.9999 5 20.9999C3.89543 20.9999 3 21.8953 3 22.9999C3 24.1044 3.89543 24.9999 5 24.9999ZM13 16.9999C13 18.1044 12.1046 18.9999 11 18.9999C9.89543 18.9999 9 18.1044 9 16.9999C9 15.8953 9.89543 14.9999 11 14.9999C12.1046 14.9999 13 15.8953 13 16.9999ZM11 24.9999C12.1046 24.9999 13 24.1044 13 22.9999C13 21.8953 12.1046 20.9999 11 20.9999C9.89543 20.9999 9 21.8953 9 22.9999C9 24.1044 9.89543 24.9999 11 24.9999ZM19 16.9999C19 18.1044 18.1046 18.9999 17 18.9999C15.8954 18.9999 15 18.1044 15 16.9999C15 15.8953 15.8954 14.9999 17 14.9999C18.1046 14.9999 19 15.8953 19 16.9999ZM17 24.9999C18.1046 24.9999 19 24.1044 19 22.9999C19 21.8953 18.1046 20.9999 17 20.9999C15.8954 20.9999 15 21.8953 15 22.9999C15 24.1044 15.8954 24.9999 17 24.9999ZM25 16.9999C25 18.1044 24.1046 18.9999 23 18.9999C21.8954 18.9999 21 18.1044 21 16.9999C21 15.8953 21.8954 14.9999 23 14.9999C24.1046 14.9999 25 15.8953 25 16.9999ZM23 24.9999C24.1046 24.9999 25 24.1044 25 22.9999C25 21.8953 24.1046 20.9999 23 20.9999C21.8954 20.9999 21 21.8953 21 22.9999C21 24.1044 21.8954 24.9999 23 24.9999Z" fill="#86969E"/>
</svg>
