<svg width="15" height="19" viewBox="0 0 15 19" fill="none" xmlns="http://www.w3.org/2000/svg">
<path d="M13.9044 15.065C13.8692 15.0176 11.2488 11.8064 10.3124 11.7356C9.86668 11.6969 9.5456 11.9219 8.90166 12.3721C8.79796 12.4449 8.54897 12.6191 8.35939 12.7396C8.07779 12.5563 7.80962 12.3531 7.55692 12.1316C6.25025 10.9974 5.36145 9.45796 5.03252 7.75924C4.96697 7.42969 4.9251 7.09585 4.90725 6.76031C5.10711 6.65599 5.38246 6.52746 5.50011 6.47245C6.20849 6.14186 6.56446 5.97646 6.75406 5.57001C7.14525 4.7276 5.68215 0.830778 5.66549 0.79474C5.59998 0.614677 5.49526 0.451428 5.35892 0.316803C5.22257 0.182177 5.05801 0.079544 4.87713 0.0163261C3.92897 -0.237733 0.281013 2.54861 0.122555 3.13998C0.113346 3.17435 -0.773137 6.68133 2.36079 12.2181C5.58574 17.6944 9.06557 18.6801 9.09994 18.6893C9.69186 18.8479 13.9283 17.0817 14.1824 16.1335C14.2181 15.946 14.2116 15.7528 14.1636 15.568C14.1155 15.3832 14.027 15.2114 13.9044 15.065Z" fill="white"/>
</svg>
