<svg width="16" height="16" viewBox="0 0 16 16" fill="none" xmlns="http://www.w3.org/2000/svg">
<circle cx="8" cy="8" r="7.25" stroke="#43D14F" stroke-width="1.5"/>
<mask id="path-2-outside-1" maskUnits="userSpaceOnUse" x="3.30005" y="4.3501" width="9" height="7" fill="black">
<rect fill="white" x="3.30005" y="4.3501" width="9" height="7"/>
<path fill-rule="evenodd" clip-rule="evenodd" d="M11.5175 5.49654C11.3223 5.30128 11.0057 5.30128 10.8104 5.49654L6.92151 9.38547L5.1536 7.61756C4.95834 7.4223 4.64176 7.4223 4.4465 7.61756C4.25123 7.81282 4.25123 8.12941 4.4465 8.32467L6.55714 10.4353C6.56062 10.439 6.56417 10.4427 6.56779 10.4463C6.76306 10.6416 7.07964 10.6416 7.2749 10.4463L11.5175 6.20365C11.7128 6.00839 11.7128 5.69181 11.5175 5.49654Z"/>
</mask>
<path fill-rule="evenodd" clip-rule="evenodd" d="M11.5175 5.49654C11.3223 5.30128 11.0057 5.30128 10.8104 5.49654L6.92151 9.38547L5.1536 7.61756C4.95834 7.4223 4.64176 7.4223 4.4465 7.61756C4.25123 7.81282 4.25123 8.12941 4.4465 8.32467L6.55714 10.4353C6.56062 10.439 6.56417 10.4427 6.56779 10.4463C6.76306 10.6416 7.07964 10.6416 7.2749 10.4463L11.5175 6.20365C11.7128 6.00839 11.7128 5.69181 11.5175 5.49654Z" fill="#43D14F"/>
<path d="M10.8104 5.49654L11.164 5.8501L11.164 5.8501L10.8104 5.49654ZM11.5175 5.49654L11.164 5.8501L11.164 5.8501L11.5175 5.49654ZM6.92151 9.38547L6.56796 9.73902L6.92151 10.0926L7.27506 9.73902L6.92151 9.38547ZM5.1536 7.61756L4.80005 7.97112H4.80005L5.1536 7.61756ZM4.4465 7.61756L4.80005 7.97112L4.80005 7.97112L4.4465 7.61756ZM4.4465 8.32467L4.80005 7.97112L4.80005 7.97112L4.4465 8.32467ZM6.55714 10.4353L6.92116 10.0926L6.91601 10.0871L6.91069 10.0818L6.55714 10.4353ZM6.56779 10.4463L6.92135 10.0927H6.92135L6.56779 10.4463ZM7.2749 10.4463L6.92135 10.0927L6.92135 10.0927L7.2749 10.4463ZM11.5175 6.20365L11.8711 6.5572L11.8711 6.5572L11.5175 6.20365ZM11.164 5.8501H11.164L11.8711 5.14299C11.4806 4.75247 10.8474 4.75247 10.4569 5.14299L11.164 5.8501ZM7.27506 9.73902L11.164 5.8501L10.4569 5.14299L6.56796 9.03192L7.27506 9.73902ZM4.80005 7.97112L6.56796 9.73902L7.27506 9.03192L5.50716 7.26401L4.80005 7.97112ZM4.80005 7.97112H4.80005L5.50716 7.26401C5.11663 6.87348 4.48347 6.87348 4.09294 7.26401L4.80005 7.97112ZM4.80005 7.97112V7.97112L4.09294 7.26401C3.70242 7.65453 3.70242 8.2877 4.09294 8.67822L4.80005 7.97112ZM6.91069 10.0818L4.80005 7.97112L4.09294 8.67822L6.20358 10.7889L6.91069 10.0818ZM6.92135 10.0927C6.92126 10.0927 6.9212 10.0926 6.92116 10.0926L6.19311 10.7781C6.20004 10.7854 6.20709 10.7927 6.21424 10.7998L6.92135 10.0927ZM6.92135 10.0927L6.92135 10.0927L6.21424 10.7998C6.60476 11.1904 7.23793 11.1904 7.62845 10.7998L6.92135 10.0927ZM11.164 5.8501L6.92135 10.0927L7.62845 10.7998L11.8711 6.5572L11.164 5.8501ZM11.164 5.8501V5.8501L11.8711 6.5572C12.2616 6.16668 12.2616 5.53351 11.8711 5.14299L11.164 5.8501Z" fill="#43D14F" mask="url(#path-2-outside-1)"/>
</svg>
