<svg width="44" height="44" viewBox="0 0 44 44" fill="none" xmlns="http://www.w3.org/2000/svg">
<path d="M35.75 44H8.25C3.69325 44 0 40.3068 0 35.75V8.25C0 3.69325 3.69325 0 8.25 0H35.75C40.3068 0 44 3.69325 44 8.25V35.75C44 40.3068 40.3068 44 35.75 44Z" fill="#43D14F" fill-opacity="0.2"/>
<rect x="37.6064" y="6" width="1" height="23.0487" rx="0.5" transform="rotate(45 37.6064 6)" fill="#031F88"/>
<path d="M16.6549 23.0316C17.8486 22.1686 19.4923 22.2999 20.5339 23.3415L21.9934 24.801C23.035 25.8426 23.1663 27.4863 22.3033 28.68L17.6501 35.1161C16.2074 37.1117 13.3214 37.3422 11.5802 35.601L7.24427 31.2651C6.80897 30.8298 6.8666 30.1083 7.36549 29.7476L16.6549 23.0316Z" fill="#43D14F" fill-opacity="0.8"/>
<path d="M15.6728 21.8433C17.4969 20.5107 20.0199 20.706 21.6172 22.3033C23.2145 23.9006 23.4098 26.4236 22.0772 28.2477L15.8736 36.7395C15.3307 37.4827 14.2526 37.5661 13.6018 36.9153L7.0052 30.3187C6.35435 29.6679 6.43778 28.5898 7.18101 28.0468L15.6728 21.8433Z" stroke="#031F88"/>
<path d="M14.5615 30.9088C14.7386 30.6608 15.0961 30.6312 15.3116 30.8467C15.4821 31.0172 15.5043 31.286 15.3642 31.4821L12.4099 35.6182C12.2327 35.8662 11.8753 35.8957 11.6598 35.6802C11.4893 35.5098 11.4671 35.241 11.6072 35.0448L14.5615 30.9088Z" fill="#031F88"/>
</svg>
