<svg width="15" height="15" viewBox="0 0 15 15" fill="none" xmlns="http://www.w3.org/2000/svg">
<path fill-rule="evenodd" clip-rule="evenodd" d="M0.713676 0.625808C0.0424626 1.29702 0.0388198 2.38889 0.70554 3.06457L4.8021 7.21617L0.634135 11.3289C-0.0415425 11.9956 -0.0451612 13.0802 0.626052 13.7514C1.29727 14.4226 2.38914 14.4263 3.06481 13.7596L7.21645 9.66296L11.3289 13.8307C11.9956 14.5064 13.0803 14.51 13.7515 13.8388C14.4227 13.1676 14.4263 12.0757 13.7596 11.4L9.66324 7.24861L13.8309 3.13617C14.5066 2.46945 14.5102 1.38484 13.839 0.713625C13.1678 0.0424116 12.0759 0.0387687 11.4003 0.705489L7.24889 4.80182L3.13622 0.633891C2.4695 -0.0417866 1.38489 -0.0454053 0.713676 0.625808Z" fill="white"/>
</svg>
