<svg width="14" height="14" viewBox="0 0 14 14" fill="none" xmlns="http://www.w3.org/2000/svg">
<path fill-rule="evenodd" clip-rule="evenodd" d="M0.720915 0.49497C0.330391 0.885494 0.32827 1.52076 0.71618 1.91389L5.5858 6.84893L0.440449 11.9261C0.0473275 12.314 0.0452217 12.945 0.435747 13.3355C0.82627 13.7261 1.46154 13.7282 1.85466 13.3403L6.99051 8.27251L12.152 13.5034C12.5399 13.8965 13.171 13.8986 13.5615 13.5081C13.952 13.1175 13.9541 12.4823 13.5662 12.0891L8.4141 6.8678L13.4441 1.90445C13.8373 1.51654 13.8394 0.885494 13.4488 0.494969C13.0583 0.104445 12.423 0.102325 12.0299 0.490234L7.00938 5.44421L2.13039 0.499672C1.74249 0.106551 1.11144 0.104446 0.720915 0.49497Z" fill="black"/>
</svg>
