<svg width="28" height="28" viewBox="0 0 28 28" fill="none" xmlns="http://www.w3.org/2000/svg">
<path d="M27.9218 14.3828C27.8468 14.5654 27.7194 14.7217 27.5556 14.832C27.3919 14.9423 27.1991 15.0017 27.0017 15.0027H24.0013V25.0006C24.0013 25.7961 23.6852 26.559 23.1225 27.1215C22.5598 27.684 21.7967 28 21.0009 28H17.0004C16.7351 28 16.4808 27.8947 16.2932 27.7072C16.1056 27.5197 16.0003 27.2654 16.0003 27.0002V21.0014C16.0003 20.7363 15.8949 20.482 15.7073 20.2945C15.5198 20.107 15.2654 20.0017 15.0001 20.0017H12.9999C12.7346 20.0017 12.4802 20.107 12.2927 20.2945C12.1051 20.482 11.9997 20.7363 11.9997 21.0014V27.0002C11.9997 27.2654 11.8944 27.5197 11.7068 27.7072C11.5192 27.8947 11.2649 28 10.9996 28H6.99909C6.20334 28 5.44018 27.684 4.8775 27.1215C4.31482 26.559 3.9987 25.7961 3.9987 25.0006V15.0027H0.998316C0.800865 15.0017 0.608124 14.9423 0.444382 14.832C0.280641 14.7217 0.153226 14.5654 0.0781965 14.3828C0.0016071 14.2007 -0.0193183 14.0001 0.0180607 13.8061C0.0554397 13.6122 0.149448 13.4336 0.288224 13.293L13.2899 0.295737C13.3829 0.202028 13.4935 0.127649 13.6154 0.076891C13.7372 0.0261328 13.868 0 14 0C14.132 0 14.2628 0.0261328 14.3846 0.076891C14.5065 0.127649 14.6171 0.202028 14.7101 0.295737L27.7118 13.293C27.8506 13.4336 27.9446 13.6122 27.9819 13.8061C28.0193 14.0001 27.9984 14.2007 27.9218 14.3828Z" fill="#86969E"/>
</svg>
