<svg width="35" height="34" viewBox="0 0 35 34" fill="none" xmlns="http://www.w3.org/2000/svg">
<path d="M2.16733 16.4872L6.38643 11.8904L11.1663 6.76155C12.0648 5.79748 13.3234 5.25 14.6412 5.25H30C32.0711 5.25 33.75 6.92893 33.75 9V25C33.75 27.0711 32.0711 28.75 30 28.75H14.6536C13.33 28.75 12.0665 28.1978 11.1675 27.2264L6.93303 22.651L2.16943 17.5038C1.90416 17.2172 1.90325 16.775 2.16733 16.4872L1.24642 15.642L2.16733 16.4872Z" stroke="#86969E" stroke-width="2.5"/>
<path fill-rule="evenodd" clip-rule="evenodd" d="M27.2426 14.5251C27.7308 14.0369 27.7308 13.2454 27.2426 12.7573C26.7545 12.2691 25.963 12.2691 25.4749 12.7573L23 15.2322L20.5251 12.7573C20.037 12.2691 19.2455 12.2691 18.7574 12.7573C18.2692 13.2454 18.2692 14.0369 18.7574 14.5251L21.2322 16.9999L18.7574 19.4748C18.2692 19.963 18.2692 20.7544 18.7574 21.2426C19.2455 21.7307 20.037 21.7307 20.5251 21.2426L23 18.7677L25.4749 21.2426C25.963 21.7307 26.7545 21.7307 27.2426 21.2426C27.7308 20.7544 27.7308 19.963 27.2426 19.4748L24.7678 16.9999L27.2426 14.5251Z" fill="#86969E"/>
</svg>
