<svg width="306" height="533" viewBox="0 0 306 533" fill="none" xmlns="http://www.w3.org/2000/svg">
<path d="M261.854 393.632L261.854 371.765L288.867 371.765L288.867 389.987L261.854 393.632Z" fill="#F6B192"/>
<path d="M279.22 391.058C279.704 387.677 285.03 388.105 286.936 385.27C288.842 382.435 280.506 381.411 280.506 376.266C280.506 367.88 286.131 368.547 290.153 368.545C295.519 368.543 301.624 368.544 304.26 368.545C304.987 368.545 305.567 369.143 305.542 369.87C305.396 374.197 304.946 387.824 304.946 391.058C304.946 396.847 305.587 417.945 305.587 420C305.587 426.432 294.653 426.432 294.01 420C292.081 400.707 278.736 394.44 279.22 391.058Z" fill="#3962FA"/>
<path d="M289.51 405.208L294.012 402.635" stroke="white" stroke-width="1.28631"/>
<path d="M286.294 400.706L291.439 397.49M283.078 396.204L288.867 392.345" stroke="white" stroke-width="1.28631"/>
<circle cx="294.012" cy="402.636" r="1.28631" transform="rotate(-90 294.012 402.636)" fill="black"/>
<circle cx="291.439" cy="397.49" r="1.28631" transform="rotate(-90 291.439 397.49)" fill="black"/>
<circle cx="288.866" cy="392.346" r="1.28631" transform="rotate(-90 288.866 392.346)" fill="black"/>
<path d="M291.439 409.711L296.585 407.781" stroke="white" stroke-width="1.28631"/>
<circle cx="296.585" cy="407.781" r="1.28631" transform="rotate(-90 296.585 407.781)" fill="black"/>
<path d="M133.5 379.5C111.275 363.558 184.069 233.99 184.069 233.99L218.5 290.5C218.5 290.5 180.341 343.768 186.491 346.015C212.682 355.58 230.142 356.377 246.809 356.377C264.21 356.377 273 360.363 273 360.363L273 405C273 405 153.271 393.681 133.5 379.5Z" fill="#9EDFAC"/>
<path d="M220.31 489.033H242.177V516.046H223.955L220.31 489.033Z" fill="#F6B192"/>
<path d="M222.883 506.399C226.265 506.883 225.836 512.209 228.671 514.115C231.506 516.021 232.53 507.685 237.676 507.685C246.061 507.685 245.395 513.31 245.396 517.332C245.398 522.698 245.397 528.802 245.397 531.438C245.396 532.166 244.799 532.745 244.072 532.721C239.745 532.575 226.117 532.125 222.883 532.125C217.095 532.125 195.997 532.766 193.942 532.766C187.509 532.766 187.509 521.832 193.941 521.189C213.234 519.26 219.501 505.914 222.883 506.399Z" fill="#3962FA"/>
<path d="M208.733 516.688L211.306 521.191" stroke="white" stroke-width="1.28631"/>
<path d="M213.235 513.474L216.451 518.619M217.737 510.258L221.596 516.046" stroke="white" stroke-width="1.28631"/>
<circle cx="211.306" cy="521.191" r="1.28631" fill="black"/>
<circle cx="216.451" cy="518.618" r="1.28631" fill="black"/>
<circle cx="221.596" cy="516.046" r="1.28631" fill="black"/>
<path d="M204.231 518.618L206.161 523.763" stroke="white" stroke-width="1.28631"/>
<circle cx="206.161" cy="523.764" r="1.28631" fill="black"/>
<path d="M148.177 108.811C160.516 93.6457 178.507 90.9918 178.507 90.9918C178.507 90.9918 186.041 109.226 204.533 108.053C228.441 106.536 233.906 86.8213 233.906 86.8213C233.906 86.8213 256.202 92.8653 266.087 106.536C271.662 114.246 278.381 125.147 282.39 136.488L271.395 137.246C275.94 154.012 256.5 202.5 256.5 202.5L167.513 188.05L166.375 158.477L147.419 129.663L136.424 124.355C138.977 119.548 143.299 114.805 148.177 108.811Z" fill="#EFF2F9"/>
<path d="M209.975 50.4258L216.42 63.3163C216.42 63.3163 217.504 70.7822 219.074 73.932C220.581 76.9538 221.805 78.7754 224.382 81.1356C228.044 84.4898 235.756 86.8226 235.756 86.8226C235.756 86.8226 230.048 107.362 208.079 108.433C176.991 109.95 178.507 90.6139 178.507 90.6139L191.018 86.0643V77.7234C204.205 76.2424 208.459 72.0364 209.975 66.3494C211.492 60.6624 209.975 50.4258 209.975 50.4258Z" fill="#F6B192"/>
<path d="M205.805 74.3105L191.019 76.5853V84.5471C191.019 84.5471 196.601 82.8663 200.497 81.1349C206.563 78.4389 205.805 74.3105 205.805 74.3105Z" fill="#F18E73"/>
<path d="M215.57 16.5509C210.515 10.0911 202.137 15.9356 190.997 17.3404C179.858 18.7451 173.921 10.7578 169.295 17.1482C164.668 23.5386 175.474 30.7097 175.474 30.7097C175.474 30.7097 171.683 32.4878 171.683 36.3967C171.683 42.4628 178.507 51.9411 178.507 51.9411C178.507 51.9411 178.038 65.5823 182.304 71.6001C190.938 83.7811 209.217 78.8596 217.035 66.5362C219.975 61.9009 218.784 53.9758 217.649 49.1636C217.006 46.4416 216.231 43.1551 218.388 41.3754C218.504 41.2799 218.627 41.1894 218.757 41.1051C220.725 39.831 222.102 39.3628 222.866 37.9133C225.054 33.7617 225.371 29.4401 223.624 26.1601C222.001 23.1121 218.316 22.7479 218.316 22.7479C218.316 22.7479 217.97 19.6182 215.57 16.5509Z" fill="#F7B293"/>
<path d="M228.102 40.3141C224.633 37.4933 217.549 39.9161 216.614 43.0405C215.679 46.1649 219.84 57.1632 219.84 57.1632C219.84 57.1632 225.834 57.117 229.404 53.4924C232.973 49.8679 231.571 43.1349 228.102 40.3141Z" fill="#F7B293"/>
<line x1="0.964735" y1="-0.964735" x2="8.29109" y2="-0.964735" transform="matrix(-0.58963 0.807673 0.807673 0.58963 225.496 44.4102)" stroke="#F59C7F" stroke-width="1.92947" stroke-linecap="round"/>
<path d="M226.761 49.147C224.35 49.0777 222.152 50.3512 219.916 51.5274" stroke="#F59C7F" stroke-width="1.92947" stroke-linecap="round"/>
<path d="M176.99 46.5842C176.99 46.1551 177.248 45.7662 177.646 45.6061C179.832 44.7267 181.414 44.3238 183.729 44.0866C184.388 44.019 184.952 44.5449 184.952 45.2075C184.952 45.7999 184.497 46.2913 183.908 46.3554C181.823 46.5826 180.335 46.9285 178.457 47.5975C177.748 47.8499 176.99 47.3363 176.99 46.5842Z" fill="#3E1908"/>
<path d="M191.68 44.1676C191.332 43.4713 191.685 42.6255 192.43 42.398C195.278 41.528 197.274 41.1648 200.198 41.5956C200.608 41.656 200.929 41.9739 201.011 42.3804C201.137 43.0097 200.65 43.5934 200.009 43.6066C196.713 43.6744 195.128 44.1994 193.173 44.8087C192.586 44.9918 191.956 44.718 191.68 44.1676Z" fill="#3E1908"/>
<ellipse cx="182.677" cy="50.0463" rx="1.89567" ry="2.2748" fill="#130502"/>
<ellipse cx="197.085" cy="47.7728" rx="1.89567" ry="2.2748" fill="#130502"/>
<path d="M188.743 50.0459C188.743 50.0459 185.003 55.8345 186.468 58.766C187.416 60.6616 189.501 59.9033 189.501 59.9033" stroke="#F59C7F" stroke-width="2.57263" stroke-linecap="round" stroke-linejoin="round"/>
<path d="M184.194 69.3822L183.717 65.8033C183.554 64.5799 184.282 63.413 185.453 63.0227L197.788 58.9112C198.745 58.5922 199.8 58.862 200.487 59.6013L204.288 63.6952C204.288 63.6952 212.886 60.8032 214.146 56.1126C214.683 54.1106 214.146 50.8047 214.146 50.8047H217.937C217.937 50.8047 219.63 54.3971 219.833 56.8708C220.202 61.3976 218.583 64.1018 216.041 67.8657C211.663 74.349 206.652 76.9471 198.98 78.4814C187.606 80.7562 181.54 70.5196 181.54 70.5196L184.194 69.3822Z" fill="#562104"/>
<path d="M190.26 66.7285C193.811 67.4793 196.862 66.3155 198.601 62.9372" stroke="#F59C7F" stroke-width="2.57263" stroke-linecap="round"/>
<path d="M168.27 19.3365C170.924 9.85813 179.837 17.4407 187.986 17.4408C197.085 17.4409 204.745 12.6308 210.733 13.6495C217.795 14.8507 218.317 22.7485 218.317 22.7485C220.224 22.2031 223.116 23.8764 224.382 27.6774C225.399 30.7329 225.444 35.5658 222.487 38.6721C220.461 40.8008 217.558 44.3591 217.558 44.3591L217.938 50.8044H214.146L213.767 41.3261C213.767 41.3261 211.3 39.18 207.322 38.6721C203.343 38.1643 201.716 40.0202 200.497 37.9139C198.933 35.2105 199.739 29.9521 199.739 29.9521C199.739 29.9521 196.364 32.8545 191.019 34.1225C186.055 35.3003 179.266 33.7434 176.991 39.0512C175.655 42.1681 178.656 50.2691 179.266 51.1835C179.876 52.0979 179.013 52.7 178.508 51.9418C176.627 49.1202 170.712 41.074 171.683 35.2599C172.273 31.7277 175.474 30.7103 175.474 30.7103C175.474 30.7103 166.584 25.3579 168.27 19.3365Z" fill="#562104"/>
<path d="M170.545 92.8883L173.958 91.7509L179.265 90.2344V123.598H170.925L170.545 92.8883Z" fill="#AEEDBC"/>
<path d="M237.273 87.5801L244.477 90.234C237.453 105.778 235.654 110.63 234.819 125.114H226.278C227.814 108.383 229.672 102.267 237.273 87.5801Z" fill="#AEEDBC"/>
<path d="M143.627 127.769L168.65 139.143C168.65 139.143 158.413 180.847 144.765 186.155C131.116 191.463 88.6528 166.819 88.6528 166.819L75.7623 165.682C73.2035 164.661 72.2401 163.367 71.2127 159.995C67.203 157.152 66.0414 155.572 66.6631 152.791C64.5676 149.103 63.3624 147.034 62.8718 143.313C60.3874 140.703 58.5672 137.727 60.2178 136.489C61.8684 135.251 67.4213 142.934 67.4213 142.934H70.8335C70.8335 142.934 71.9709 141.038 74.2457 142.555C76.5205 144.071 82.0252 144.365 86.7571 147.483C91.2163 150.422 94.3398 156.583 94.3398 156.583L133.77 163.786L143.627 127.769Z" fill="#F6B192"/>
<path d="M74.7817 147.519C77.6596 150.482 79.505 151.272 83.1227 151.31" stroke="#F18E73" stroke-width="1.28631" stroke-linecap="round"/>
<path d="M133.911 163.434C136.536 166.294 138.242 166.731 141.493 166.467" stroke="#F18E73" stroke-width="1.28631" stroke-linecap="round"/>
<path d="M73.0394 158.105C73.0394 158.105 83.3447 154.686 83.7241 156.582C83.9881 157.902 80.7444 159.52 79.1745 160.753C77.7721 161.854 78.4162 163.407 78.4162 163.407" stroke="#F18E73" stroke-width="1.28631"/>
<path d="M69.6957 158.478C69.6957 158.478 65.7147 155.066 67.0415 153.549C69.6954 150.516 70.4536 148.621 72.728 149.758C75.7614 152.033 71.591 155.445 71.591 155.445" stroke="#F18E73" stroke-width="1.28631" stroke-linecap="round"/>
<path d="M63.2505 143.314C65.6353 141.509 68.1792 141.797 68.9377 147.484" stroke="#F18E73" stroke-width="1.28631" stroke-linecap="round"/>
<path d="M57.9428 133.076C55.2889 130.043 59.0805 127.769 59.0805 127.769L81.8285 156.583C81.8285 156.583 78.0371 159.237 75.7621 155.824C73.4871 152.412 60.5967 136.109 57.9428 133.076Z" fill="white"/>
<path d="M154.609 127.85C154.53 144.756 156.196 155.515 158.034 169.472C160.784 163.433 162.195 159.953 164.479 153.549L195.189 132.696C183.487 132.48 162.072 127.906 156.166 126.598C155.364 126.42 154.613 127.028 154.609 127.85Z" fill="#F18E73"/>
<path d="M195.188 132.696C183.507 132.372 162.103 127.881 156.177 126.594C155.372 126.419 154.621 127.035 154.621 127.86L154.622 132.696L172.062 140.658L195.188 132.696Z" fill="#EAE8E8"/>
<path d="M162.21 118.457C162.205 117.506 163.206 116.866 164.08 117.245C169.448 119.572 185.671 125.873 203.909 125.873C221.319 125.873 233.226 121.05 237.649 118.912C238.528 118.487 239.615 119.087 239.664 120.061C240.047 127.748 241.538 153.977 244.5 164.5C247.461 175.02 256.794 194.203 257 201C258.465 249.449 259.626 239.91 255.041 274C252.862 290.197 251.059 301.513 250 316.5C247.459 352.476 242.178 373.265 242.178 409.282C242.178 414.926 247.323 417 247.323 427.934C247.323 450.098 248.666 478.259 249.111 486.98C249.186 488.454 248.011 489.677 246.535 489.677H210.889C209.642 489.677 208.575 488.782 208.356 487.554L203.857 462.246C203.717 461.458 204.323 460.735 205.124 460.735H208.296C209.156 460.735 209.777 459.914 209.535 459.089C207.792 453.159 201.781 432.482 198.443 418.286C193.876 398.866 184.09 375.34 182 355.5C178.815 325.267 178.5 321 178.5 291C178.5 275.403 173.576 256.079 172 241C169.357 215.713 168.5 209.5 166.5 187C164.558 165.157 162.338 141.336 162.21 118.457Z" fill="#AEEDBC"/>
<path d="M182.678 161.511C181.919 161.132 181.161 139.9 181.161 139.9C195.123 140.761 203.019 140.726 217.179 139.9L217.937 174.401" stroke="#43D14F" stroke-width="2.57263" stroke-linecap="round" stroke-linejoin="round"/>
<path d="M186.848 145.967C196.917 146.992 202.56 147.092 212.629 145.967" stroke="#43D14F" stroke-width="2.57263" stroke-linecap="round" stroke-linejoin="round"/>
<path d="M246.751 138.858L278.599 136.583L275.945 174.117L277.082 219.613L268.547 272.385V287.037C268.547 287.497 268.235 287.899 267.796 288.038C266.437 288.468 263.521 289.557 261.5 291.5C259.575 293.35 257.673 292.462 255.5 294.5C253.452 296.421 250.998 298.121 249.896 295.538C248.436 292.118 256.327 286.5 256.327 286.5C256.327 286.5 254.427 281.905 251.825 282.5C249.088 283.125 247 292 244 290C242.529 289.019 251.825 269.812 251.825 269.812L256.97 264.024L255.471 220.371C255.471 220.371 256.206 192.28 253.955 174.496C252.172 160.41 246.751 138.858 246.751 138.858Z" fill="#F6B192"/>
<rect x="240" y="307" width="42" height="48" fill="#D0F2F4"/>
<rect x="240" y="317" width="42" height="28" fill="white"/>
<rect x="274" y="307" width="8" height="48" fill="#16BDC8"/>
<rect x="239" y="307" width="44" height="1" rx="0.5" fill="black"/>
<path d="M248.5 297.5C248.5 290.873 253.873 285.5 260.5 285.5C267.127 285.5 272.5 290.873 272.5 297.5V307.5H248.5V297.5Z" stroke="black"/>
<ellipse cx="251.5" cy="331" rx="6.5" ry="5" fill="#16BDC8"/>
<rect x="239" y="354" width="44" height="1" rx="0.5" fill="black"/>
<path d="M246.751 138.858L278.599 136.583L275.945 174.117L277.082 219.613L268.547 272.385V287.037C268.547 287.497 268.235 287.899 267.796 288.038C266.437 288.468 263.521 289.557 261.5 291.5C259.575 293.35 257.673 292.462 255.5 294.5C253.452 296.421 250.998 298.121 249.896 295.538C248.436 292.118 256.327 286.5 256.327 286.5C256.327 286.5 254.427 281.905 251.825 282.5C249.088 283.125 247 292 244 290C242.529 289.019 251.825 269.812 251.825 269.812L256.97 264.024L255.471 220.371C255.471 220.371 256.206 192.28 253.955 174.496C252.172 160.41 246.751 138.858 246.751 138.858Z" fill="#F6B192"/>
<path d="M246.751 138.194L278.599 136.488L277.84 145.019L248.647 145.967L246.751 138.194Z" fill="#F18E73"/>
<path d="M270.523 176.091C270.2 175.944 269.819 176.087 269.672 176.411C269.525 176.734 269.668 177.115 269.991 177.262L270.523 176.091ZM269.991 177.262C271.269 177.843 272.254 177.844 273.198 177.701C274.157 177.555 274.869 177.32 275.944 177.32V176.034C274.745 176.034 273.753 176.316 273.005 176.429C272.245 176.544 271.523 176.545 270.523 176.091L269.991 177.262Z" fill="#F18E73"/>
<path d="M271.217 215.056C270.865 215.002 270.537 215.243 270.484 215.594C270.43 215.946 270.672 216.274 271.023 216.327L271.217 215.056ZM271.023 216.327C272.467 216.547 273.392 216.549 274.25 216.493C275.113 216.436 275.797 216.335 276.908 216.335V215.048C275.744 215.048 274.93 215.159 274.166 215.209C273.396 215.26 272.564 215.261 271.217 215.056L271.023 216.327Z" fill="#F18E73"/>
<path d="M271.217 217.629C270.865 217.575 270.537 217.817 270.484 218.168C270.43 218.519 270.672 218.847 271.023 218.9L271.217 217.629ZM271.023 218.9C272.467 219.121 273.392 219.122 274.25 219.066C275.113 219.01 275.797 218.908 276.908 218.908V217.621C275.744 217.621 274.93 217.733 274.166 217.783C273.396 217.833 272.564 217.834 271.217 217.629L271.023 218.9Z" fill="#F18E73"/>
<path d="M271.217 220.201C270.865 220.148 270.537 220.389 270.484 220.74C270.43 221.091 270.672 221.419 271.023 221.473L271.217 220.201ZM271.023 221.473C272.469 221.693 273.48 221.694 274.377 221.639C275.296 221.581 275.965 221.48 276.908 221.48V220.194C275.921 220.194 275.093 220.305 274.297 220.355C273.48 220.405 272.562 220.406 271.217 220.201L271.023 221.473Z" fill="#F18E73"/>
<path d="M136.518 153.771L157.583 170.096C157.223 169.073 157.056 179.575 144.418 186.421C130.769 191.729 88.6528 166.819 88.6528 166.819L75.7623 165.682C73.2035 164.661 72.2401 163.367 71.2127 159.995C67.2029 157.151 66.0414 155.572 66.6631 152.791C64.5676 149.102 63.3624 147.034 62.8717 143.313C60.3874 140.703 58.5671 137.727 60.2177 136.489C61.8684 135.251 67.4213 142.934 67.4213 142.934H70.8335C70.8335 142.934 71.9709 141.038 74.2457 142.555C76.5205 144.071 82.0251 144.365 86.7571 147.483C91.2163 150.422 94.3397 156.583 94.3397 156.583L133.77 163.786L136.518 153.771Z" fill="#F6B192"/>
<path d="M74.7817 147.519C77.6596 150.482 79.505 151.272 83.1227 151.31" stroke="#F18E73" stroke-width="1.28631" stroke-linecap="round"/>
<path d="M133.911 163.434C136.536 166.294 138.242 166.731 141.493 166.467" stroke="#F18E73" stroke-width="1.28631" stroke-linecap="round"/>
<path d="M73.0394 158.105C73.0394 158.105 83.3447 154.686 83.7241 156.582C83.9881 157.902 80.7444 159.52 79.1745 160.753C77.7721 161.854 78.4162 163.407 78.4162 163.407" stroke="#F18E73" stroke-width="1.28631"/>
<path d="M69.6957 158.478C69.6957 158.478 65.7147 155.066 67.0415 153.549C69.6954 150.516 70.4536 148.621 72.728 149.758C75.7614 152.033 71.591 155.445 71.591 155.445" stroke="#F18E73" stroke-width="1.28631" stroke-linecap="round"/>
<path d="M63.2505 143.314C65.6353 141.509 68.1792 141.797 68.9377 147.484" stroke="#F18E73" stroke-width="1.28631" stroke-linecap="round"/>
<path d="M57.9428 133.076C55.2889 130.043 59.0805 127.769 59.0805 127.769L81.8285 156.583C81.8285 156.583 78.0371 159.237 75.7621 155.824C73.4871 152.412 60.5967 136.109 57.9428 133.076Z" fill="black"/>
<path d="M56.8591 89.4295C56.8591 93.2043 54.9632 99.2573 53.5839 102.53C52.4286 105.272 52.3524 108.76 53.1393 112.293C53.3079 113.05 52.6328 113.749 51.8815 113.556C48.8833 112.789 45.3754 112.003 42.9396 113.174C39.347 114.902 33.6825 116.859 29.4295 116.859C14.2806 116.859 2 104.578 2 89.4295C2 74.2806 14.2806 62 29.4295 62C44.5784 62 56.8591 74.2806 56.8591 89.4295Z" fill="#27C134"/>
<path d="M54.8591 87.4295C54.8591 91.2043 52.9632 97.2573 51.5839 100.53C50.4286 103.272 50.3524 106.76 51.1393 110.293C51.308 111.05 50.6328 111.749 49.8815 111.556C46.8833 110.789 43.3754 110.003 40.9396 111.174C37.347 112.902 31.6825 114.859 27.4295 114.859C12.2806 114.859 0 102.578 0 87.4295C0 72.2806 12.2806 60 27.4295 60C42.5784 60 54.8591 72.2806 54.8591 87.4295Z" fill="#43D14F"/>
<path fill-rule="evenodd" clip-rule="evenodd" d="M24.2065 100.168C24.3479 100.069 24.4828 99.9574 24.6094 99.8324L42.9365 81.7482C44.1415 80.5592 44.148 78.625 42.9509 77.428C41.7539 76.231 39.8067 76.2245 38.6018 77.4135L22.4042 93.3964L16.7781 87.6947C15.5891 86.4898 13.6549 86.4833 12.4579 87.6803C11.2609 88.8773 11.2544 90.8245 12.4434 92.0295L20.1937 99.884C21.2855 100.99 23.0058 101.086 24.2065 100.168Z" fill="white"/>
</svg>
