<svg width="10" height="14" viewBox="0 0 10 14" fill="none" xmlns="http://www.w3.org/2000/svg">
<path fill-rule="evenodd" clip-rule="evenodd" d="M3.50002 1.5C3.50002 0.671573 4.17159 0 5.00002 0C5.82844 0 6.50002 0.671573 6.50002 1.5V8.27855L6.71768 8.06089C7.30346 7.4751 8.25321 7.4751 8.839 8.06089C9.42478 8.64667 9.42478 9.59642 8.839 10.1822L6.01057 13.0106C5.42478 13.5964 4.47504 13.5964 3.88925 13.0106C3.88611 13.0075 3.883 13.0044 3.87989 13.0012L1.06068 10.182C0.474891 9.59619 0.474891 8.64645 1.06068 8.06066C1.64646 7.47487 2.59621 7.47487 3.182 8.06066L3.50002 8.37868V1.5Z" fill="white"/>
</svg>
