<svg width="26" height="20" viewBox="0 0 26 20" fill="none" xmlns="http://www.w3.org/2000/svg">
<path d="M3.38946 2.24998C5.49206 4.17366 10.5763 8.82304 12.4413 10.5032L3.38946 2.24998ZM3.38946 2.24998H22.6102M3.38946 2.24998H22.6102M22.6102 2.24998C20.5075 4.17405 15.4234 8.82328 13.5583 10.5037C13.4207 10.6276 13.2252 10.75 13 10.75C12.775 10.75 12.5794 10.6276 12.4413 10.5032L22.6102 2.24998ZM11.4371 11.6173C11.8898 12.026 12.4304 12.25 13 12.25C13.5696 12.25 14.1101 12.026 14.5624 11.6178C14.7617 11.4382 15.0056 11.2175 15.2733 10.9748C17.5975 12.9769 21.0398 16.2215 22.6482 17.75H3.35187C4.96007 16.2218 8.40269 12.9771 10.7267 10.9748C10.9942 11.2174 11.2379 11.4378 11.4371 11.6173ZM11.4371 11.6173C11.437 11.6173 11.437 11.6172 11.4369 11.6172L11.6045 11.4317L11.4371 11.6174C11.4371 11.6174 11.4371 11.6173 11.4371 11.6173ZM23 0.75H3.00002C1.75888 0.75 0.75 1.75888 0.75 3.00002V17C0.75 18.2411 1.75889 19.25 3.00002 19.25H23C24.2411 19.25 25.25 18.2411 25.25 17V3.00002C25.25 1.75888 24.2411 0.75 23 0.75ZM9.60796 9.95867C7.22504 12.0225 3.80099 15.253 2.24998 16.7277V3.24009C3.7919 4.65103 7.22014 7.78627 9.60796 9.95867ZM23.75 16.7276C22.1987 15.2525 18.775 12.0223 16.3921 9.95871C18.78 7.78628 22.2079 4.65121 23.75 3.24001V16.7276Z" fill="#43D14F" stroke="#43D14F" stroke-width="0.5"/>
</svg>
