<svg width="45" height="45" viewBox="0 0 45 45" fill="none" xmlns="http://www.w3.org/2000/svg">
<path d="M35.7549 44.0049H8.25488C3.69813 44.0049 0.00488281 40.3116 0.00488281 35.7549V8.25488C0.00488281 3.69813 3.69813 0.00488281 8.25488 0.00488281H35.7549C40.3116 0.00488281 44.0049 3.69813 44.0049 8.25488V35.7549C44.0049 40.3116 40.3116 44.0049 35.7549 44.0049Z" fill="#43D14F" fill-opacity="0.2"/>
<path d="M36.0049 15.0049C37.1095 15.0049 38.0049 15.9003 38.0049 17.0049L38.0049 34.0049C38.0049 36.214 36.214 38.0049 34.0049 38.0049L16.0049 38.0049C14.9003 38.0049 14.0049 37.1095 14.0049 36.0049L14.0049 32.5049L32.5049 15.0049L36.0049 15.0049Z" fill="#43D14F" fill-opacity="0.8"/>
<path fill-rule="evenodd" clip-rule="evenodd" d="M37.0049 34.0049L37.0049 17.0049C37.0049 15.348 35.6617 14.0049 34.0049 14.0049L16.0049 14.0049C14.348 14.0049 13.0049 15.348 13.0049 17.0049L13.0049 34.0049C13.0049 35.6617 14.348 37.0049 16.0049 37.0049L34.0049 37.0049C35.6617 37.0049 37.0049 35.6617 37.0049 34.0049ZM38.0049 17.0049C38.0049 14.7957 36.214 13.0049 34.0049 13.0049L16.0049 13.0049C13.7957 13.0049 12.0049 14.7957 12.0049 17.0049L12.0049 34.0049C12.0049 36.214 13.7957 38.0049 16.0049 38.0049L34.0049 38.0049C36.214 38.0049 38.0049 36.214 38.0049 34.0049L38.0049 17.0049Z" fill="#031F88"/>
<path d="M33.0049 12.0049C34.1095 12.0049 35.0049 12.9003 35.0049 14.0049L35.0049 31.0049C35.0049 33.214 33.214 35.0049 31.0049 35.0049L13.0049 35.0049C11.9003 35.0049 11.0049 34.1095 11.0049 33.0049L11.0049 29.5049L29.5049 12.0049L33.0049 12.0049Z" fill="#C4E1C7"/>
<path d="M33.0049 12.0049C34.1095 12.0049 35.0049 12.9003 35.0049 14.0049L35.0049 31.0049C35.0049 33.214 33.214 35.0049 31.0049 35.0049L13.0049 35.0049C11.9003 35.0049 11.0049 34.1095 11.0049 33.0049L11.0049 29.5049L29.5049 12.0049L33.0049 12.0049Z" fill="#43D14F" fill-opacity="0.8"/>
<path fill-rule="evenodd" clip-rule="evenodd" d="M34.0049 31.0049L34.0049 14.0049C34.0049 12.348 32.6617 11.0049 31.0049 11.0049L13.0049 11.0049C11.348 11.0049 10.0049 12.348 10.0049 14.0049L10.0049 31.0049C10.0049 32.6617 11.348 34.0049 13.0049 34.0049L31.0049 34.0049C32.6617 34.0049 34.0049 32.6617 34.0049 31.0049ZM35.0049 14.0049C35.0049 11.7957 33.214 10.0049 31.0049 10.0049L13.0049 10.0049C10.7957 10.0049 9.00488 11.7957 9.00488 14.0049L9.00488 31.0049C9.00488 33.214 10.7957 35.0049 13.0049 35.0049L31.0049 35.0049C33.214 35.0049 35.0049 33.214 35.0049 31.0049L35.0049 14.0049Z" fill="#031F88"/>
<path d="M27.499 6.51855C29.7082 6.51855 31.499 8.30942 31.499 10.5186L31.499 27.4527C31.499 29.6619 29.7082 31.4527 27.499 31.4527L10.472 31.4527C8.2629 31.4527 6.47204 29.6619 6.47204 27.4527L6.47204 10.5186C6.47204 8.30941 8.2629 6.51855 10.472 6.51855L27.499 6.51855Z" fill="#C4E1C7"/>
<path fill-rule="evenodd" clip-rule="evenodd" d="M30.499 27.4527L30.499 10.5186C30.499 8.8617 29.1559 7.51855 27.499 7.51855L10.472 7.51855C8.81518 7.51855 7.47204 8.8617 7.47204 10.5186L7.47204 27.4527C7.47204 29.1096 8.81518 30.4527 10.472 30.4527L27.499 30.4527C29.1559 30.4527 30.499 29.1096 30.499 27.4527ZM31.499 10.5186C31.499 8.30942 29.7082 6.51855 27.499 6.51855L10.472 6.51855C8.2629 6.51855 6.47204 8.30941 6.47204 10.5186L6.47204 27.4527C6.47204 29.6619 8.2629 31.4527 10.472 31.4527L27.499 31.4527C29.7082 31.4527 31.499 29.6619 31.499 27.4527L31.499 10.5186Z" fill="#031F88"/>
<mask id="mask0" mask-type="alpha" maskUnits="userSpaceOnUse" x="7" y="7" width="24" height="24">
<path d="M27.4897 7.48779C29.1466 7.48779 30.4897 8.83094 30.4897 10.4878V27.4878C30.4897 29.1446 29.1466 30.4878 27.4897 30.4878H10.4897C8.83289 30.4878 7.48975 29.1446 7.48975 27.4878V10.4878C7.48975 8.83094 8.83289 7.48779 10.4897 7.48779H27.4897Z" fill="#031F88"/>
</mask>
<g mask="url(#mask0)">
<path d="M21.3936 12.6289L23.7729 15.0082L19.0142 19.7669L16.6349 17.3876L21.3936 12.6289Z" fill="#43D14F" fill-opacity="0.8"/>
<path fill-rule="evenodd" clip-rule="evenodd" d="M23.7729 13.4221L21.3936 11.0428L16.6349 15.8015L19.0142 18.1808L23.7729 13.4221ZM21.3936 9.45654L15.0486 15.8015L19.0142 19.767L25.3591 13.4221L21.3936 9.45654Z" fill="#031F88"/>
<path d="M26.9453 7.07764L29.3247 9.45698L24.566 14.2157L22.1866 11.8363L26.9453 7.07764Z" fill="#43D14F" fill-opacity="0.8"/>
<path fill-rule="evenodd" clip-rule="evenodd" d="M29.3251 7.87084L26.9458 5.4915L22.1871 10.2502L24.5665 12.6295L29.3251 7.87084ZM26.9458 3.90527L20.6009 10.2502L24.5665 14.2158L30.9114 7.87084L26.9458 3.90527Z" fill="#031F88"/>
<path d="M15.8418 18.1812L18.2211 20.5605L13.4625 25.3192L11.0831 22.9398L15.8418 18.1812Z" fill="#43D14F" fill-opacity="0.8"/>
<path fill-rule="evenodd" clip-rule="evenodd" d="M18.2211 18.9739L15.8418 16.5945L11.0831 21.3532L13.4625 23.7326L18.2211 18.9739ZM15.8418 15.0083L9.49688 21.3532L13.4625 25.3188L19.8074 18.9739L15.8418 15.0083Z" fill="#031F88"/>
<path d="M10.29 23.7324L12.6694 26.1118L7.9107 30.8704L5.53136 28.4911L10.29 23.7324Z" fill="#43D14F" fill-opacity="0.8"/>
<path fill-rule="evenodd" clip-rule="evenodd" d="M12.6694 24.5256L10.29 22.1463L5.53136 26.905L7.9107 29.2843L12.6694 24.5256ZM10.29 20.5601L3.94513 26.905L7.9107 30.8705L14.2556 24.5256L10.29 20.5601Z" fill="#031F88"/>
<path d="M18.2207 9.45605L20.6 11.8354L15.8414 16.5941L13.462 14.2147L18.2207 9.45605Z" fill="#43D14F" fill-opacity="0.8"/>
<path fill-rule="evenodd" clip-rule="evenodd" d="M20.6 10.2493L18.2207 7.86992L13.462 12.6286L15.8414 15.0079L20.6 10.2493ZM18.2207 6.28369L11.8758 12.6286L15.8414 16.5942L22.1863 10.2493L18.2207 6.28369Z" fill="#031F88"/>
<path d="M23.7725 3.9043L26.1518 6.28364L21.3931 11.0423L19.0138 8.66298L23.7725 3.9043Z" fill="#43D14F" fill-opacity="0.8"/>
<path fill-rule="evenodd" clip-rule="evenodd" d="M26.1518 4.6975L23.7725 2.31816L19.0138 7.07685L21.3931 9.45619L26.1518 4.6975ZM23.7725 0.731934L17.4275 7.07685L21.3931 11.0424L27.738 4.6975L23.7725 0.731934Z" fill="#031F88"/>
<path d="M12.6685 15.0078L15.0478 17.3872L10.2891 22.1458L7.90977 19.7665L12.6685 15.0078Z" fill="#43D14F" fill-opacity="0.8"/>
<path fill-rule="evenodd" clip-rule="evenodd" d="M15.0483 15.801L12.6689 13.4217L7.91026 18.1804L10.2896 20.5597L15.0483 15.801ZM12.6689 11.8354L6.32403 18.1804L10.2896 22.1459L16.6345 15.801L12.6689 11.8354Z" fill="#031F88"/>
<path d="M7.11719 20.5596L9.49653 22.9389L4.73785 27.6976L2.3585 25.3183L7.11719 20.5596Z" fill="#43D14F" fill-opacity="0.8"/>
<path fill-rule="evenodd" clip-rule="evenodd" d="M9.49653 21.3528L7.11719 18.9734L2.3585 23.7321L4.73785 26.1115L9.49653 21.3528ZM7.11719 17.3872L0.772276 23.7321L4.73785 27.6977L11.0828 21.3528L7.11719 17.3872Z" fill="#031F88"/>
<path d="M15.0483 6.28369L17.4277 8.66303L12.669 13.4217L10.2897 11.0424L15.0483 6.28369Z" fill="#43D14F" fill-opacity="0.8"/>
<path fill-rule="evenodd" clip-rule="evenodd" d="M17.4277 7.0769L15.0483 4.69756L10.2897 9.45624L12.669 11.8356L17.4277 7.0769ZM15.0483 3.11133L8.70343 9.45624L12.669 13.4218L19.0139 7.0769L15.0483 3.11133Z" fill="#031F88"/>
<path d="M20.6001 0.731934L22.9794 3.11128L18.2208 7.86996L15.8414 5.49062L20.6001 0.731934Z" fill="#43D14F" fill-opacity="0.8"/>
<path fill-rule="evenodd" clip-rule="evenodd" d="M22.9794 1.52514L20.6001 -0.854202L15.8414 3.90448L18.2208 6.28382L22.9794 1.52514ZM20.6001 -2.44043L14.2552 3.90448L18.2208 7.87005L24.5657 1.52514L20.6001 -2.44043Z" fill="#031F88"/>
<path d="M9.49658 11.8359L11.8759 14.2153L7.11724 18.974L4.7379 16.5946L9.49658 11.8359Z" fill="#43D14F" fill-opacity="0.8"/>
<path fill-rule="evenodd" clip-rule="evenodd" d="M11.8759 12.6287L9.49658 10.2493L4.7379 15.008L7.11724 17.3873L11.8759 12.6287ZM9.49658 8.66309L3.15167 15.008L7.11724 18.9736L13.4622 12.6287L9.49658 8.66309Z" fill="#031F88"/>
<path fill-rule="evenodd" clip-rule="evenodd" d="M6.32417 18.1804L3.94482 15.8011L-0.81386 20.5598L1.56548 22.9391L6.32417 18.1804ZM3.94482 14.2148L-2.40009 20.5598L1.56548 24.5253L7.91039 18.1804L3.94482 14.2148Z" fill="#031F88"/>
<path d="M11.876 3.11133L14.2553 5.49067L9.49663 10.2494L7.11729 7.87001L11.876 3.11133Z" fill="#43D14F" fill-opacity="0.8"/>
<path fill-rule="evenodd" clip-rule="evenodd" d="M14.2553 3.90453L11.876 1.52519L7.11729 6.28388L9.49663 8.66322L14.2553 3.90453ZM11.876 -0.0610352L5.53106 6.28388L9.49663 10.2494L15.8415 3.90453L11.876 -0.0610352Z" fill="#031F88"/>
<path d="M6.32422 8.66309L8.70356 11.0424L3.94488 15.8011L1.56553 13.4218L6.32422 8.66309Z" fill="#43D14F" fill-opacity="0.8"/>
<path fill-rule="evenodd" clip-rule="evenodd" d="M8.70356 9.45629L6.32422 7.07695L1.56553 11.8356L3.94488 14.215L8.70356 9.45629ZM6.32422 5.49072L-0.0206931 11.8356L3.94488 15.8012L10.2898 9.45629L6.32422 5.49072Z" fill="#031F88"/>
<path d="M24.5664 15.8013L26.9457 18.1806L22.1871 22.9393L19.8077 20.56L24.5664 15.8013Z" fill="#43D14F" fill-opacity="0.8"/>
<path fill-rule="evenodd" clip-rule="evenodd" d="M26.9453 16.5945L24.5659 14.2151L19.8072 18.9738L22.1866 21.3532L26.9453 16.5945ZM24.5659 12.6289L18.221 18.9738L22.1866 22.9394L28.5315 16.5945L24.5659 12.6289Z" fill="#031F88"/>
<path d="M30.1177 10.25L32.497 12.6293L27.7383 17.388L25.359 15.0087L30.1177 10.25Z" fill="#43D14F" fill-opacity="0.8"/>
<path fill-rule="evenodd" clip-rule="evenodd" d="M32.497 11.0427L30.1177 8.66338L25.359 13.4221L27.7383 15.8014L32.497 11.0427ZM30.1177 7.07715L23.7728 13.4221L27.7383 17.3876L34.0832 11.0427L30.1177 7.07715Z" fill="#031F88"/>
<path d="M19.0142 21.3535L21.3935 23.7329L16.6348 28.4915L14.2555 26.1122L19.0142 21.3535Z" fill="#43D14F" fill-opacity="0.8"/>
<path fill-rule="evenodd" clip-rule="evenodd" d="M21.3935 22.1462L19.0142 19.7669L14.2555 24.5256L16.6348 26.9049L21.3935 22.1462ZM19.0142 18.1807L12.6692 24.5256L16.6348 28.4911L22.9797 22.1462L19.0142 18.1807Z" fill="#031F88"/>
<path d="M13.4624 26.9058L15.8417 29.2851L11.0831 34.0438L8.70372 31.6644L13.4624 26.9058Z" fill="#43D14F" fill-opacity="0.8"/>
<path fill-rule="evenodd" clip-rule="evenodd" d="M15.8417 27.6985L13.4624 25.3191L8.70372 30.0778L11.0831 32.4572L15.8417 27.6985ZM13.4624 23.7329L7.11749 30.0778L11.0831 34.0434L17.428 27.6985L13.4624 23.7329Z" fill="#031F88"/>
<path d="M27.7383 18.9736L30.1176 21.353L25.3589 26.1117L22.9796 23.7323L27.7383 18.9736Z" fill="#43D14F" fill-opacity="0.8"/>
<path fill-rule="evenodd" clip-rule="evenodd" d="M30.1176 19.7668L27.7383 17.3875L22.9796 22.1462L25.3589 24.5255L30.1176 19.7668ZM27.7383 15.8013L21.3934 22.1462L25.3589 26.1118L31.7039 19.7668L27.7383 15.8013Z" fill="#031F88"/>
<path d="M33.29 13.4219L35.6694 15.8012L30.9107 20.5599L28.5314 18.1806L33.29 13.4219Z" fill="#43D14F" fill-opacity="0.8"/>
<path fill-rule="evenodd" clip-rule="evenodd" d="M35.6699 14.2156L33.2905 11.8362L28.5318 16.5949L30.9112 18.9743L35.6699 14.2156ZM33.2905 10.25L26.9456 16.5949L30.9112 20.5605L37.2561 14.2156L33.2905 10.25Z" fill="#031F88"/>
<path d="M22.1865 24.5254L24.5659 26.9047L19.8072 31.6634L17.4278 29.2841L22.1865 24.5254Z" fill="#43D14F" fill-opacity="0.8"/>
<path fill-rule="evenodd" clip-rule="evenodd" d="M24.5659 25.3186L22.1865 22.9393L17.4278 27.6979L19.8072 30.0773L24.5659 25.3186ZM22.1865 21.353L15.8416 27.6979L19.8072 31.6635L26.1521 25.3186L22.1865 21.353Z" fill="#031F88"/>
<path d="M16.6348 30.0771L19.0141 32.4565L14.2554 37.2152L11.8761 34.8358L16.6348 30.0771Z" fill="#43D14F" fill-opacity="0.8"/>
<path fill-rule="evenodd" clip-rule="evenodd" d="M19.0141 30.8704L16.6348 28.491L11.8761 33.2497L14.2554 35.629L19.0141 30.8704ZM16.6348 26.9048L10.2899 33.2497L14.2554 37.2153L20.6003 30.8704L16.6348 26.9048Z" fill="#031F88"/>
<path d="M30.9106 22.146L33.29 24.5253L28.5313 29.284L26.152 26.9047L30.9106 22.146Z" fill="#43D14F" fill-opacity="0.8"/>
<path fill-rule="evenodd" clip-rule="evenodd" d="M33.29 22.9392L30.9106 20.5599L26.152 25.3185L28.5313 27.6979L33.29 22.9392ZM30.9106 18.9736L24.5657 25.3185L28.5313 29.2841L34.8762 22.9392L30.9106 18.9736Z" fill="#031F88"/>
<path fill-rule="evenodd" clip-rule="evenodd" d="M38.8417 17.3874L36.4624 15.0081L31.7037 19.7668L34.0831 22.1461L38.8417 17.3874ZM36.4624 13.4219L30.1175 19.7668L34.0831 23.7324L40.428 17.3874L36.4624 13.4219Z" fill="#031F88"/>
<path d="M25.3589 27.6982L27.7382 30.0776L22.9795 34.8363L20.6002 32.4569L25.3589 27.6982Z" fill="#43D14F" fill-opacity="0.8"/>
<path fill-rule="evenodd" clip-rule="evenodd" d="M27.7382 28.491L25.3589 26.1116L20.6002 30.8703L22.9795 33.2496L27.7382 28.491ZM25.3589 24.5254L19.014 30.8703L22.9795 34.8359L29.3245 28.491L25.3589 24.5254Z" fill="#031F88"/>
<path fill-rule="evenodd" clip-rule="evenodd" d="M22.1865 34.0427L19.8071 31.6634L15.0484 36.4221L17.4278 38.8014L22.1865 34.0427ZM19.8071 30.0771L13.4622 36.4221L17.4278 40.3876L23.7727 34.0427L19.8071 30.0771Z" fill="#031F88"/>
<path d="M34.083 25.3184L36.4623 27.6977L31.7037 32.4564L29.3243 30.077L34.083 25.3184Z" fill="#43D14F" fill-opacity="0.8"/>
<path fill-rule="evenodd" clip-rule="evenodd" d="M36.4623 26.1116L34.083 23.7322L29.3243 28.4909L31.7037 30.8702L36.4623 26.1116ZM34.083 22.146L27.7381 28.4909L31.7037 32.4565L38.0486 26.1116L34.083 22.146Z" fill="#031F88"/>
<path fill-rule="evenodd" clip-rule="evenodd" d="M30.9106 31.6633L28.5312 29.284L23.7726 34.0427L26.1519 36.422L30.9106 31.6633ZM28.5312 27.6978L22.1863 34.0427L26.1519 38.0082L32.4968 31.6633L28.5312 27.6978Z" fill="#031F88"/>
</g>
</svg>
