<svg width="216" height="152" viewBox="0 0 216 152" fill="none" xmlns="http://www.w3.org/2000/svg">
<circle cx="150.724" cy="65.3593" r="63.8612" fill="#DEF5EE" stroke="#43D14F" stroke-width="1.75705"/>
<mask id="mask0" mask-type="alpha" maskUnits="userSpaceOnUse" x="87" y="2" width="128" height="127">
<circle cx="150.724" cy="65.3596" r="63.301" fill="#DEF5EE"/>
<circle cx="150.724" cy="65.3596" r="62.4225" stroke="#86969E" stroke-opacity="0.2" stroke-width="1.75705"/>
</mask>
<g mask="url(#mask0)">
<path d="M110.851 75.6543C119.279 65.2967 131.566 63.4841 131.566 63.4841C131.566 63.4841 136.712 75.9375 149.342 75.1364C165.67 74.1006 169.403 60.6357 169.403 60.6357C169.403 60.6357 184.63 64.7637 191.382 74.1006C195.189 79.3662 199.778 86.8114 202.516 94.5569L195.007 95.0748C198.111 106.526 182.578 129.773 182.578 129.773H124.057L123.281 109.575L110.333 89.896L102.824 86.2708C104.568 82.9872 107.52 79.7482 110.851 75.6543Z" fill="white"/>
<path d="M153.058 35.7773L157.46 44.5813C157.46 44.5813 158.201 49.6804 159.273 51.8316C160.302 53.8955 161.138 55.1396 162.898 56.7515C165.399 59.0423 170.666 60.6356 170.666 60.6356C170.666 60.6356 166.768 74.6633 151.764 75.3952C130.531 76.431 131.566 63.225 131.566 63.225L140.111 60.1177V54.421C149.117 53.4096 152.023 50.5369 153.058 46.6528C154.094 42.7687 153.058 35.7773 153.058 35.7773Z" fill="#F6B192"/>
<path d="M150.21 52.0903L140.111 53.644V59.0817C140.111 59.0817 143.924 57.9338 146.585 56.7513C150.728 54.9099 150.21 52.0903 150.21 52.0903Z" fill="#F18E73"/>
<path d="M156.88 12.6422C153.428 8.23026 147.706 12.222 140.098 13.1814C132.49 14.1408 128.435 8.68561 125.275 13.0501C122.115 17.4147 129.496 22.3123 129.496 22.3123C129.496 22.3123 126.906 23.5267 126.906 26.1964C126.906 30.3395 131.567 36.813 131.567 36.813C131.567 36.813 131.247 46.1296 134.16 50.2397C140.057 58.559 152.541 55.1978 157.881 46.7811C159.889 43.6153 159.076 38.2026 158.3 34.916C157.861 33.0569 157.332 30.8123 158.805 29.5968C158.884 29.5316 158.968 29.4698 159.057 29.4122C160.401 28.542 161.341 28.2222 161.863 27.2323C163.358 24.3968 163.574 21.4452 162.381 19.2051C161.272 17.1233 158.756 16.8746 158.756 16.8746C158.756 16.8746 158.52 14.7371 156.88 12.6422Z" fill="#F7B293"/>
<path d="M165.439 28.8714C163.07 26.9449 158.232 28.5996 157.593 30.7335C156.954 32.8674 159.796 40.379 159.796 40.379C159.796 40.379 163.89 40.3475 166.328 37.872C168.766 35.3965 167.809 30.798 165.439 28.8714Z" fill="#F7B293"/>
<line x1="0.658895" y1="-0.658895" x2="5.66265" y2="-0.658895" transform="matrix(-0.58963 0.807673 0.807673 0.58963 163.659 31.6689)" stroke="#F59C7F" stroke-width="1.31779" stroke-linecap="round"/>
<path d="M164.524 34.9043C162.877 34.8569 161.376 35.7267 159.849 36.53" stroke="#F59C7F" stroke-width="1.31779" stroke-linecap="round"/>
<path d="M130.53 33.1543C130.53 32.8612 130.706 32.5956 130.978 32.4863C132.471 31.8857 133.552 31.6105 135.133 31.4485C135.583 31.4023 135.968 31.7615 135.968 32.214C135.968 32.6186 135.657 32.9542 135.255 32.998C133.831 33.1532 132.814 33.3894 131.532 33.8463C131.048 34.0187 130.53 33.6679 130.53 33.1543Z" fill="#3E1908"/>
<path d="M140.564 31.5027C140.326 31.0271 140.567 30.4494 141.076 30.2941C143.021 29.6999 144.384 29.4518 146.381 29.746C146.661 29.7873 146.881 30.0044 146.936 30.2821C147.022 30.7118 146.69 31.1105 146.252 31.1195C144.001 31.1658 142.919 31.5244 141.583 31.9406C141.182 32.0656 140.752 31.8786 140.564 31.5027Z" fill="#3E1908"/>
<ellipse cx="134.415" cy="35.5185" rx="1.2947" ry="1.55364" fill="#130502"/>
<ellipse cx="144.254" cy="33.9648" rx="1.2947" ry="1.55364" fill="#130502"/>
<path d="M138.558 35.5186C138.558 35.5186 136.003 39.4721 137.004 41.4742C137.652 42.7689 139.076 42.251 139.076 42.251" stroke="#F59C7F" stroke-width="1.75705" stroke-linecap="round" stroke-linejoin="round"/>
<path d="M135.45 48.7247L135.124 46.2804C135.013 45.4448 135.511 44.6478 136.31 44.3813L144.735 41.5732C145.388 41.3553 146.109 41.5396 146.578 42.0445L149.174 44.8406C149.174 44.8406 155.047 42.8654 155.907 39.6618C156.274 38.2945 155.907 36.0366 155.907 36.0366H158.496C158.496 36.0366 159.653 38.4902 159.791 40.1797C160.043 43.2714 158.937 45.1183 157.201 47.6889C154.211 52.1169 150.788 53.8914 145.549 54.9393C137.781 56.4929 133.638 49.5015 133.638 49.5015L135.45 48.7247Z" fill="#562104"/>
<path d="M139.594 46.9116C142.019 47.4244 144.103 46.6295 145.29 44.3222" stroke="#F59C7F" stroke-width="1.75705" stroke-linecap="round"/>
<path d="M124.575 14.5443C126.388 8.07081 132.475 13.2496 138.04 13.2496C144.255 13.2497 149.487 9.96447 153.576 10.6602C158.399 11.4807 158.756 16.8747 158.756 16.8747C160.059 16.5022 162.034 17.645 162.898 20.241C163.593 22.3279 163.623 25.6287 161.604 27.7502C160.22 29.204 158.238 31.6343 158.238 31.6343L158.497 36.0363H155.907L155.648 29.5628C155.648 29.5628 153.964 28.097 151.246 27.7502C148.529 27.4033 147.418 28.6709 146.585 27.2323C145.517 25.3859 146.068 21.7946 146.068 21.7946C146.068 21.7946 143.762 23.7769 140.112 24.6429C136.721 25.4473 132.085 24.384 130.531 28.0091C129.619 30.1379 131.668 35.6707 132.085 36.2952C132.501 36.9197 131.912 37.331 131.567 36.8131C130.282 34.886 126.243 29.3906 126.906 25.4197C127.309 23.0073 129.495 22.3124 129.495 22.3124C129.495 22.3124 123.423 18.6568 124.575 14.5443Z" fill="#562104"/>
<path d="M126.129 64.7789L128.459 64.0021L132.085 62.9663V85.7531H126.388L126.129 64.7789Z" fill="#AEEDBC"/>
<path d="M171.703 61.1533L176.622 62.9659C171.825 73.5825 170.597 76.8958 170.026 86.7884H164.193C165.242 75.3611 166.511 71.184 171.703 61.1533Z" fill="#AEEDBC"/>
<path d="M107.744 88.6011L124.834 96.3693C124.834 96.3693 117.843 124.853 108.521 128.478C99.1991 132.103 70.1978 115.272 70.1978 115.272L61.3939 114.495C59.6462 113.798 58.9883 112.914 58.2866 110.611C55.548 108.669 54.7547 107.59 55.1793 105.691C53.7481 103.172 52.925 101.759 52.5899 99.2176C50.8931 97.4353 49.6499 95.4022 50.7773 94.5567C51.9046 93.7112 55.6971 98.9587 55.6971 98.9587H58.0276C58.0276 98.9587 58.8044 97.664 60.3581 98.6997C61.9117 99.7355 65.6713 99.9361 68.9031 102.066C71.9486 104.073 74.0819 108.281 74.0819 108.281L101.012 113.2L107.744 88.6011Z" fill="#F6B192"/>
<path d="M101.108 112.959C102.901 114.913 104.066 115.211 106.287 115.031" stroke="#F18E73" stroke-width="0.878526" stroke-linecap="round"/>
<path d="M115.245 88.6572C115.191 100.204 116.329 107.552 117.584 117.085C119.462 112.96 120.426 110.583 121.986 106.209L142.96 91.9674C134.968 91.8199 120.342 88.6961 116.308 87.8024C115.761 87.6811 115.248 88.0964 115.245 88.6572Z" fill="#F18E73"/>
<path d="M142.96 91.9674C134.981 91.7458 120.363 88.6787 116.316 87.7994C115.765 87.6799 115.253 88.1009 115.253 88.6641L115.253 91.9674L127.165 97.4052L142.96 91.9674Z" fill="#EAE8E8"/>
<path d="M120.433 82.2419C120.432 81.5918 121.116 81.1551 121.713 81.4136C125.379 83.0029 136.459 87.3065 148.916 87.3065C160.362 87.3065 168.326 84.2538 171.6 82.7229C172.274 82.4076 173.1 82.9762 172.996 83.7133C172.148 89.7144 169.708 108.704 171.702 115.79C173.725 122.975 182.837 129.773 182.837 129.773H123.559C120.731 114.265 120.447 97.8744 120.433 82.2419Z" fill="#AEEDBC"/>
<path d="M134.415 111.647C133.897 111.388 133.379 96.8871 133.379 96.8871C142.915 97.4748 148.308 97.4512 157.979 96.8871L158.497 120.451" stroke="#43D14F" stroke-width="1.75705" stroke-linecap="round" stroke-linejoin="round"/>
<path d="M137.263 101.03C144.14 101.731 147.994 101.798 154.871 101.03" stroke="#43D14F" stroke-width="1.75705" stroke-linecap="round" stroke-linejoin="round"/>
<path d="M178.176 96.1103L199.927 94.5566L198.114 120.192L198.891 151.265L184.131 151.782C184.131 151.782 184.633 132.596 183.096 120.451C181.878 110.83 178.176 96.1103 178.176 96.1103Z" fill="#F6B192"/>
<path d="M178.176 95.7219L199.927 94.5566L199.409 100.383L179.47 101.03L178.176 95.7219Z" fill="#F18E73"/>
<path d="M194.412 121.604C194.191 121.504 193.93 121.602 193.83 121.823C193.73 122.044 193.827 122.304 194.048 122.404L194.412 121.604ZM194.048 122.404C194.921 122.801 195.594 122.802 196.239 122.704C196.893 122.604 197.379 122.444 198.114 122.444V121.565C197.295 121.565 196.617 121.758 196.107 121.835C195.587 121.914 195.095 121.915 194.412 121.604L194.048 122.404Z" fill="#F18E73"/>
</g>
<path d="M102.889 106.361L117.275 117.51C117.029 116.812 116.915 123.984 108.284 128.66C98.9617 132.285 70.1973 115.272 70.1973 115.272L61.3933 114.495C59.6457 113.798 58.9877 112.914 58.2861 110.611C55.5475 108.669 54.7542 107.591 55.1788 105.691C53.7476 103.172 52.9245 101.76 52.5894 99.218C50.8926 97.4356 49.6494 95.4026 50.7767 94.5571C51.9041 93.7115 55.6966 98.959 55.6966 98.959H58.0271C58.0271 98.959 58.8039 97.6643 60.3575 98.7001C61.9112 99.7359 65.6708 99.9365 68.9026 102.066C71.9481 104.073 74.0814 108.281 74.0814 108.281L101.011 113.201L102.889 106.361Z" fill="#F6B192"/>
<path d="M60.7236 102.09C62.6892 104.114 63.9495 104.653 66.4203 104.679" stroke="#F18E73" stroke-width="0.878526" stroke-linecap="round"/>
<path d="M101.107 112.96C102.9 114.914 104.066 115.212 106.286 115.032" stroke="#F18E73" stroke-width="0.878526" stroke-linecap="round"/>
<path d="M59.5339 109.322C59.5339 109.322 66.5722 106.987 66.8313 108.281C67.0116 109.183 64.7963 110.288 63.724 111.13C62.7662 111.882 63.2061 112.942 63.2061 112.942" stroke="#F18E73" stroke-width="0.878526"/>
<path d="M57.2501 109.576C57.2501 109.576 54.5311 107.245 55.4373 106.21C57.2499 104.138 57.7677 102.844 59.3211 103.62C61.3928 105.174 58.5445 107.504 58.5445 107.504" stroke="#F18E73" stroke-width="0.878526" stroke-linecap="round"/>
<path d="M52.8477 99.2185C54.4765 97.9861 56.2139 98.1828 56.7319 102.067" stroke="#F18E73" stroke-width="0.878526" stroke-linecap="round"/>
<path d="M49.223 92.2272C47.4105 90.1557 50 88.6021 50 88.6021L65.5364 108.282C65.5364 108.282 62.947 110.094 61.3932 107.764C59.8394 105.433 51.0356 94.2987 49.223 92.2272Z" fill="black"/>
<path d="M50.1775 63.3368C50.1775 66.653 48.512 71.9707 47.3002 74.8461C46.2852 77.2544 46.2183 80.3195 46.9096 83.4226C47.0578 84.0876 46.4646 84.7018 45.8046 84.5328C43.1706 83.8583 40.0888 83.1684 37.9489 84.1974C34.7928 85.7151 29.8163 87.4344 26.08 87.4344C12.7713 87.4344 1.98242 76.6455 1.98242 63.3368C1.98242 50.0281 12.7713 39.2393 26.08 39.2393C39.3887 39.2393 50.1775 50.0281 50.1775 63.3368Z" fill="#27C134"/>
<path d="M48.4207 61.58C48.4207 64.8962 46.7552 70.2139 45.5434 73.0893C44.5284 75.4976 44.4615 78.5627 45.1528 81.6658C45.301 82.3308 44.7078 82.9449 44.0478 82.7759C41.4138 82.1015 38.332 81.4115 36.1921 82.4406C33.0359 83.9583 28.0595 85.6775 24.3231 85.6775C11.0144 85.6775 0.225586 74.8887 0.225586 61.58C0.225586 48.2713 11.0144 37.4824 24.3231 37.4824C37.6319 37.4824 48.4207 48.2713 48.4207 61.58Z" fill="#43D14F"/>
<path fill-rule="evenodd" clip-rule="evenodd" d="M21.4877 72.7732C21.6131 72.686 21.7327 72.5871 21.845 72.4763L37.9458 56.5889C39.0044 55.5443 39.0101 53.845 37.9585 52.7934C36.9069 51.7418 35.1962 51.7361 34.1376 52.7807L19.9079 66.8218L14.9652 61.8126C13.9206 60.754 12.2214 60.7484 11.1697 61.8C10.1181 62.8516 10.1124 64.5623 11.157 65.6209L17.9659 72.5212C18.924 73.4922 20.433 73.5773 21.4877 72.7732Z" fill="white"/>
</svg>
