<svg width="28" height="26" viewBox="0 0 28 26" fill="none" xmlns="http://www.w3.org/2000/svg">
<path d="M16.5175 0.695776C14.0601 -0.723126 10.9227 0.117225 9.50382 2.57528L0.697115 17.8293C-1.57579 21.7658 2.06632 26.5367 6.47247 25.3558C7.79722 25.0009 8.90427 24.1511 9.58992 22.9635L18.3966 7.70943C19.8124 5.25768 18.9692 2.11153 16.5175 0.695776Z" fill="#FABC04"/>
<path d="M27.3131 17.8293L18.506 2.57528C17.8204 1.38773 16.713 0.537927 15.3886 0.183027C10.981 -0.998225 7.34171 3.77473 9.61321 7.70944L18.4203 22.9635C19.8388 25.4202 22.9755 26.2623 25.4339 24.843C27.8853 23.4273 28.7285 20.2811 27.3131 17.8293Z" fill="#3C8BD9"/>
<path d="M10.1025 19.0676C9.36817 16.3268 6.55557 14.7024 3.81436 15.4371C-0.59319 16.618 -1.35864 22.5712 2.57606 24.843C6.50167 27.1093 11.29 23.499 10.1025 19.0676Z" fill="#34A852"/>
</svg>
