<svg width="14" height="14" viewBox="0 0 14 14" fill="none" xmlns="http://www.w3.org/2000/svg">
<path d="M12.6596 14C12.6246 14 12.5887 13.9983 12.5537 13.9956C5.88008 13.4794 0.48571 8.08675 0.00358507 1.45338C-0.0235399 1.0815 0.10421 0.713125 0.35446 0.441875C0.60296 0.172375 0.94246 0.0227498 1.30909 0.0201248L4.05221 0C4.66121 0 5.18796 0.408625 5.33496 0.994L5.90808 3.26988C6.03758 3.78525 5.84508 4.3225 5.41808 4.64013L4.31646 5.46088C5.26671 7.20475 6.72796 8.673 8.48233 9.64863L9.33458 8.52075C9.65395 8.09813 10.1921 7.90737 10.7083 8.036L13 8.60475C13.5888 8.75 14.0001 9.27413 14.0001 9.87875V12.6866C14.0001 13.0533 13.8513 13.3919 13.5818 13.6413C13.3325 13.8723 13.0017 14 12.6596 14Z" fill="#43D14F"/>
</svg>
