<svg width="28" height="28" viewBox="0 0 28 28" fill="none" xmlns="http://www.w3.org/2000/svg">
<path fill-rule="evenodd" clip-rule="evenodd" d="M0 14C0 6.28027 6.28027 0 14 0C21.7198 0 28 6.28027 28 14C28 21.7197 21.7198 28 14 28C6.28027 28 0 21.7198 0 14ZM12.4999 7.5C12.4999 6.67157 13.1715 6 13.9999 6C14.8283 6 15.4999 6.67157 15.4999 7.5V14.8815L19.3577 18.7393C19.9435 19.3251 19.9435 20.2749 19.3577 20.8607C18.7719 21.4464 17.8222 21.4464 17.2364 20.8607L13.0605 16.6847C13.0356 16.6599 13.0118 16.6343 12.989 16.6082C12.6885 16.3339 12.4999 15.939 12.4999 15.5V7.5Z" fill="#86969E"/>
</svg>
