<svg width="26" height="26" viewBox="0 0 26 26" fill="none" xmlns="http://www.w3.org/2000/svg">
<path d="M13 1C6.38206 1 1 6.38206 1 13C1 19.6179 6.38206 25 13 25C19.6179 25 25 19.6179 25 13C25 6.38206 19.6179 1 13 1ZM13 2.6C18.7532 2.6 23.4062 7.24676 23.4062 13C23.4062 18.7532 18.7532 23.4062 13 23.4062C7.24676 23.4062 2.6 18.7532 2.6 13C2.6 7.24676 7.24676 2.6 13 2.6ZM12.9891 6.60469C12.7777 6.60841 12.5764 6.69562 12.4292 6.84727C12.2819 6.99892 12.2006 7.20269 12.2031 7.41406V8.0875C10.9114 8.32982 9.80625 9.16161 9.80625 10.6031C9.80625 11.6031 10.2571 12.4119 10.8625 12.8828C11.4679 13.3537 12.1516 13.5625 12.7516 13.7625C13.3516 13.9625 13.8695 14.1537 14.1641 14.3828C14.4586 14.6119 14.6 14.8047 14.6 15.4047C14.6 16.738 11.4062 16.738 11.4062 15.4047C11.4086 15.2981 11.3897 15.1922 11.3505 15.0931C11.3114 14.9939 11.2528 14.9036 11.1783 14.8274C11.1038 14.7512 11.0148 14.6907 10.9166 14.6494C10.8183 14.608 10.7128 14.5867 10.6062 14.5867C10.4997 14.5867 10.3942 14.608 10.2959 14.6494C10.1977 14.6907 10.1087 14.7512 10.0342 14.8274C9.95966 14.9036 9.90111 14.9939 9.86197 15.0931C9.82283 15.1922 9.80389 15.2981 9.80625 15.4047C9.80625 16.8451 10.9124 17.6784 12.2031 17.9219V18.5922C12.2008 18.6987 12.2197 18.8047 12.2588 18.9038C12.298 19.0029 12.3565 19.0933 12.4311 19.1694C12.5056 19.2456 12.5946 19.3062 12.6928 19.3475C12.791 19.3888 12.8965 19.4101 13.0031 19.4101C13.1097 19.4101 13.2152 19.3888 13.3134 19.3475C13.4117 19.3062 13.5007 19.2456 13.5752 19.1694C13.6497 19.0933 13.7083 19.0029 13.7474 18.9038C13.7865 18.8047 13.8055 18.6987 13.8031 18.5922V17.9219C15.0941 17.6786 16.2016 16.8453 16.2016 15.4047C16.2016 14.4047 15.7492 13.5959 15.1437 13.125C14.5383 12.6541 13.8547 12.4438 13.2547 12.2437C12.6547 12.0437 12.1367 11.8541 11.8422 11.625C11.5476 11.3959 11.4062 11.2031 11.4062 10.6031C11.4063 9.26979 14.6 9.26979 14.6 10.6031C14.6 10.8155 14.6844 11.0192 14.8345 11.1694C14.9847 11.3195 15.1884 11.4039 15.4008 11.4039C15.6132 11.4039 15.8168 11.3195 15.967 11.1694C16.1172 11.0192 16.2016 10.8155 16.2016 10.6031C16.2016 9.16378 15.0937 8.33282 13.8031 8.08906V7.41406C13.8044 7.30703 13.7842 7.20083 13.7436 7.10175C13.7031 7.00268 13.6431 6.91274 13.5672 6.83727C13.4913 6.7618 13.401 6.70233 13.3017 6.66238C13.2024 6.62243 13.0961 6.60281 12.9891 6.60469H12.9891Z" fill="#43D14F" stroke="#43D14F" stroke-width="0.5"/>
</svg>
