<svg width="37" height="36" viewBox="0 0 37 36" fill="none" xmlns="http://www.w3.org/2000/svg">
<path fill-rule="evenodd" clip-rule="evenodd" d="M13.8884 7.95405C14.0909 7.74553 14.3677 7.62562 14.6583 7.6205C14.8055 7.61792 14.9517 7.64489 15.0882 7.69982C15.2248 7.75476 15.3489 7.83653 15.4533 7.9403C15.5576 8.04408 15.6401 8.16774 15.6958 8.30397C15.7516 8.44019 15.7794 8.58622 15.7777 8.73339V9.66152C17.5522 9.99668 19.0755 11.1392 19.0755 13.1184C19.0755 13.4104 18.9595 13.6904 18.753 13.8969C18.5465 14.1034 18.2665 14.2194 17.9744 14.2194C17.6824 14.2194 17.4023 14.1034 17.1959 13.8969C16.9894 13.6904 16.8734 13.4104 16.8734 13.1184C16.8734 11.285 12.4819 11.285 12.4819 13.1184C12.4819 13.9434 12.6763 14.2084 13.0814 14.5234C13.4864 14.8384 14.1985 15.0992 15.0235 15.3742C15.0708 15.3899 15.1183 15.4057 15.1662 15.4216C15.9558 15.6835 16.8362 15.9755 17.621 16.5859C18.0984 16.9573 18.5067 17.4814 18.768 18.1204C17.9976 18.1229 17.2785 18.3433 16.6691 18.7231C16.5725 18.5671 16.4412 18.4455 16.2739 18.3154C15.8689 18.0004 15.1568 17.7375 14.3318 17.4625C14.2809 17.4455 14.2296 17.4285 14.1779 17.4114C13.3913 17.1507 12.5155 16.8605 11.7343 16.2529C10.9018 15.6054 10.2819 14.4934 10.2819 13.1184C10.2819 11.1363 11.8015 9.99256 13.5777 9.65937V8.73339C13.5742 8.44276 13.686 8.16258 13.8884 7.95405ZM14.9161 21.0883C13.7448 21.1596 12.4819 20.7036 12.4819 19.7205C12.4852 19.574 12.4591 19.4283 12.4053 19.292C12.3515 19.1557 12.271 19.0315 12.1685 18.9268C12.0661 18.822 11.9437 18.7388 11.8086 18.6819C11.6736 18.6251 11.5285 18.5958 11.3819 18.5958C11.2354 18.5958 11.0903 18.6251 10.9553 18.6819C10.8202 18.7388 10.6978 18.822 10.5954 18.9268C10.4929 19.0315 10.4124 19.1557 10.3586 19.292C10.3047 19.4283 10.2787 19.574 10.2819 19.7205C10.2819 21.701 11.8029 22.8469 13.5777 23.1816V24.1033C13.5744 24.2498 13.6005 24.3955 13.6543 24.5318C13.7081 24.6681 13.7886 24.7923 13.8911 24.897C13.9935 25.0018 14.1159 25.0851 14.251 25.1419C14.386 25.1987 14.5311 25.228 14.6777 25.228C14.7124 25.228 14.7472 25.2263 14.7817 25.2231V22.1203C14.7817 21.7635 14.8284 21.4175 14.9161 21.0883Z" fill="#FB275D"/>
<path fill-rule="evenodd" clip-rule="evenodd" d="M14.7817 27.6203C8.4304 27.6203 3.28168 22.4716 3.28168 16.1203C3.28168 9.76906 8.4304 4.62033 14.7817 4.62033C21.133 4.62033 26.2817 9.76906 26.2817 16.1203C26.2817 16.8025 26.2223 17.4708 26.1084 18.1203H29.1449C29.2351 17.4666 29.2817 16.7989 29.2817 16.1203C29.2817 8.1122 22.7898 1.62033 14.7817 1.62033C6.77355 1.62033 0.281677 8.1122 0.281677 16.1203C0.281677 24.1285 6.77355 30.6203 14.7817 30.6203V27.6203Z" fill="#FB275D"/>
<mask id="path-3-outside-1" maskUnits="userSpaceOnUse" x="15.2817" y="18.6203" width="21" height="17" fill="black">
<rect fill="white" x="15.2817" y="18.6203" width="21" height="17"/>
<path fill-rule="evenodd" clip-rule="evenodd" d="M33.7954 19.6203H18.2046C17.1438 19.6203 16.2817 20.4824 16.2817 21.5432V32.4568C16.2817 33.5176 17.1438 34.3797 18.2046 34.3797H33.7954C34.8562 34.3797 35.7183 33.5176 35.7183 32.4568V21.5432C35.7183 20.4824 34.8562 19.6203 33.7954 19.6203ZM18.2046 20.9449L18.0424 20.7965C18.0589 20.7929 18.0751 20.7884 18.0913 20.7839L18.0913 20.7839C18.1263 20.7743 18.1612 20.7646 18.1989 20.7637C18.1612 20.7646 18.1262 20.7742 18.0912 20.7839C18.075 20.7884 18.0588 20.7929 18.0423 20.7965C19.3918 22.0314 23.8678 26.1261 25.4339 27.5371C25.5569 27.6479 25.7544 27.7795 25.9999 27.7795C26 27.7795 26 27.7795 26 27.7795C25.7545 27.7795 25.557 27.6478 25.434 27.5371C23.9876 26.234 20.0594 22.6419 18.4041 21.1274L18.2046 20.9449ZM17.4686 21.3278C17.4686 21.3278 17.4685 21.3278 17.4685 21.3278C17.4666 21.3342 17.4647 21.3407 17.4628 21.3472C17.4438 21.4105 17.4249 21.4739 17.4249 21.5432V32.4568C17.4249 32.5171 17.4409 32.5724 17.4569 32.6277C17.46 32.6384 17.4631 32.6492 17.4661 32.66C17.4661 32.6599 17.4661 32.6599 17.4662 32.6599L17.457 32.6277C17.441 32.5724 17.425 32.5171 17.425 32.4568V21.5432C17.425 21.4739 17.444 21.4105 17.4629 21.3471L17.4686 21.3278ZM25.6775 27.2668C24.3119 26.0365 20.7302 22.7623 18.943 21.1274H33.0568C31.2695 22.7625 27.6879 26.0367 26.3221 27.2672C26.2282 27.3518 26.1148 27.4158 26 27.4158C25.8853 27.4158 25.7719 27.3519 25.6775 27.2668ZM23.1016 26.9649C21.3871 28.4591 19.06 30.6456 17.7888 31.8512V22.1138C19.0552 23.2724 21.3857 25.4033 23.1016 26.9649ZM27.7686 27.5001C27.7685 27.5001 27.7685 27.5001 27.7685 27.5C27.5099 27.7346 27.2736 27.9486 27.0873 28.1164C26.808 28.3686 26.4869 28.5172 26.1507 28.5515C26.4869 28.5172 26.8081 28.3686 27.0875 28.1164C27.2737 27.9486 27.5099 27.7347 27.7686 27.5001ZM24.2313 27.5001C24.2313 27.5001 24.2313 27.5001 24.2313 27.5C22.2484 29.1964 19.1047 32.175 18.0287 33.2008C18.0442 33.2045 18.0595 33.2087 18.0748 33.213C18.1169 33.2247 18.1588 33.2364 18.2045 33.2364H33.7953C33.7953 33.2364 33.7954 33.2364 33.7954 33.2364H18.2046C18.1589 33.2364 18.117 33.2247 18.0749 33.213L18.0749 33.213C18.0596 33.2087 18.0443 33.2045 18.0288 33.2008L18.2046 33.0334L18.3737 32.8726C19.6705 31.6406 22.4299 29.0412 24.2313 27.5001ZM28.6275 27.2114C30.4575 28.8039 33.0108 31.2117 34.2112 32.3528L34.3206 32.4568L34.5337 32.6599C34.5337 32.6599 34.5337 32.6599 34.5337 32.66C33.492 31.6665 30.3686 28.7052 28.3503 26.9717C30.3753 25.1303 33.4978 22.2736 34.5312 21.3277C34.5312 21.3277 34.5313 21.3277 34.5313 21.3278L34.2959 21.5432L34.2112 21.6207C33.0155 22.7148 30.4574 25.0544 28.6215 26.725L28.3504 26.9717C28.4407 27.0492 28.5331 27.1292 28.6275 27.2114ZM27.7748 27.9854C29.4411 29.4288 31.7817 31.6253 33.0978 32.8726H18.9022C20.2182 31.6254 22.559 29.4289 24.2252 27.9854C24.3902 28.135 24.5409 28.2712 24.6683 28.3861C25.0488 28.7295 25.5095 28.9229 26 28.9229C26.4903 28.9229 26.951 28.7296 27.331 28.3867C27.4585 28.2717 27.6095 28.1352 27.7748 27.9854ZM28.8985 26.9649C30.6129 28.459 32.9398 30.6453 34.2112 31.8511V22.1138C32.9447 23.2725 30.6144 25.4033 28.8985 26.9649ZM33.7954 19.9841H18.2046C18.1894 19.9841 18.1743 19.9843 18.1593 19.9848C18.1743 19.9843 18.1894 19.9841 18.2045 19.9841H33.7953C34.6552 19.9841 35.3544 20.6833 35.3544 21.5432V32.4568C35.3544 33.2982 34.6849 33.9858 33.8506 34.0149C34.685 33.9858 35.3545 33.2982 35.3545 32.4568V21.5432C35.3545 20.6833 34.6553 19.9841 33.7954 19.9841Z"/>
</mask>
<path fill-rule="evenodd" clip-rule="evenodd" d="M33.7954 19.6203H18.2046C17.1438 19.6203 16.2817 20.4824 16.2817 21.5432V32.4568C16.2817 33.5176 17.1438 34.3797 18.2046 34.3797H33.7954C34.8562 34.3797 35.7183 33.5176 35.7183 32.4568V21.5432C35.7183 20.4824 34.8562 19.6203 33.7954 19.6203ZM18.2046 20.9449L18.0424 20.7965C18.0589 20.7929 18.0751 20.7884 18.0913 20.7839L18.0913 20.7839C18.1263 20.7743 18.1612 20.7646 18.1989 20.7637C18.1612 20.7646 18.1262 20.7742 18.0912 20.7839C18.075 20.7884 18.0588 20.7929 18.0423 20.7965C19.3918 22.0314 23.8678 26.1261 25.4339 27.5371C25.5569 27.6479 25.7544 27.7795 25.9999 27.7795C26 27.7795 26 27.7795 26 27.7795C25.7545 27.7795 25.557 27.6478 25.434 27.5371C23.9876 26.234 20.0594 22.6419 18.4041 21.1274L18.2046 20.9449ZM17.4686 21.3278C17.4686 21.3278 17.4685 21.3278 17.4685 21.3278C17.4666 21.3342 17.4647 21.3407 17.4628 21.3472C17.4438 21.4105 17.4249 21.4739 17.4249 21.5432V32.4568C17.4249 32.5171 17.4409 32.5724 17.4569 32.6277C17.46 32.6384 17.4631 32.6492 17.4661 32.66C17.4661 32.6599 17.4661 32.6599 17.4662 32.6599L17.457 32.6277C17.441 32.5724 17.425 32.5171 17.425 32.4568V21.5432C17.425 21.4739 17.444 21.4105 17.4629 21.3471L17.4686 21.3278ZM25.6775 27.2668C24.3119 26.0365 20.7302 22.7623 18.943 21.1274H33.0568C31.2695 22.7625 27.6879 26.0367 26.3221 27.2672C26.2282 27.3518 26.1148 27.4158 26 27.4158C25.8853 27.4158 25.7719 27.3519 25.6775 27.2668ZM23.1016 26.9649C21.3871 28.4591 19.06 30.6456 17.7888 31.8512V22.1138C19.0552 23.2724 21.3857 25.4033 23.1016 26.9649ZM27.7686 27.5001C27.7685 27.5001 27.7685 27.5001 27.7685 27.5C27.5099 27.7346 27.2736 27.9486 27.0873 28.1164C26.808 28.3686 26.4869 28.5172 26.1507 28.5515C26.4869 28.5172 26.8081 28.3686 27.0875 28.1164C27.2737 27.9486 27.5099 27.7347 27.7686 27.5001ZM24.2313 27.5001C24.2313 27.5001 24.2313 27.5001 24.2313 27.5C22.2484 29.1964 19.1047 32.175 18.0287 33.2008C18.0442 33.2045 18.0595 33.2087 18.0748 33.213C18.1169 33.2247 18.1588 33.2364 18.2045 33.2364H33.7953C33.7953 33.2364 33.7954 33.2364 33.7954 33.2364H18.2046C18.1589 33.2364 18.117 33.2247 18.0749 33.213L18.0749 33.213C18.0596 33.2087 18.0443 33.2045 18.0288 33.2008L18.2046 33.0334L18.3737 32.8726C19.6705 31.6406 22.4299 29.0412 24.2313 27.5001ZM28.6275 27.2114C30.4575 28.8039 33.0108 31.2117 34.2112 32.3528L34.3206 32.4568L34.5337 32.6599C34.5337 32.6599 34.5337 32.6599 34.5337 32.66C33.492 31.6665 30.3686 28.7052 28.3503 26.9717C30.3753 25.1303 33.4978 22.2736 34.5312 21.3277C34.5312 21.3277 34.5313 21.3277 34.5313 21.3278L34.2959 21.5432L34.2112 21.6207C33.0155 22.7148 30.4574 25.0544 28.6215 26.725L28.3504 26.9717C28.4407 27.0492 28.5331 27.1292 28.6275 27.2114ZM27.7748 27.9854C29.4411 29.4288 31.7817 31.6253 33.0978 32.8726H18.9022C20.2182 31.6254 22.559 29.4289 24.2252 27.9854C24.3902 28.135 24.5409 28.2712 24.6683 28.3861C25.0488 28.7295 25.5095 28.9229 26 28.9229C26.4903 28.9229 26.951 28.7296 27.331 28.3867C27.4585 28.2717 27.6095 28.1352 27.7748 27.9854ZM28.8985 26.9649C30.6129 28.459 32.9398 30.6453 34.2112 31.8511V22.1138C32.9447 23.2725 30.6144 25.4033 28.8985 26.9649ZM33.7954 19.9841H18.2046C18.1894 19.9841 18.1743 19.9843 18.1593 19.9848C18.1743 19.9843 18.1894 19.9841 18.2045 19.9841H33.7953C34.6552 19.9841 35.3544 20.6833 35.3544 21.5432V32.4568C35.3544 33.2982 34.6849 33.9858 33.8506 34.0149C34.685 33.9858 35.3545 33.2982 35.3545 32.4568V21.5432C35.3545 20.6833 34.6553 19.9841 33.7954 19.9841Z" fill="#FB275D"/>
<path d="M18.0424 20.7965L17.9781 20.5035L17.4131 20.6273L17.8398 21.0178L18.0424 20.7965ZM18.2046 20.9449L18.002 21.1662L18.0021 21.1663L18.2046 20.9449ZM18.0913 20.7839L18.0324 20.4898L18.0218 20.4919L18.0114 20.4948L18.0913 20.7839ZM18.0913 20.7839L18.1501 21.0781L18.1607 21.076L18.1712 21.0731L18.0913 20.7839ZM18.1989 20.7637L18.206 21.0636L18.192 20.4638L18.1989 20.7637ZM18.0912 20.7839L18.1711 21.0731L18.1711 21.0731L18.0912 20.7839ZM18.0423 20.7965L17.978 20.5035L17.413 20.6273L17.8397 21.0178L18.0423 20.7965ZM25.4339 27.5371L25.2331 27.76L25.2331 27.76L25.4339 27.5371ZM25.434 27.5371L25.2332 27.76L25.2332 27.76L25.434 27.5371ZM18.4041 21.1274L18.2015 21.3488L18.2015 21.3488L18.4041 21.1274ZM17.4685 21.3278L17.6712 21.1066L17.3169 20.7818L17.1808 21.2428L17.4685 21.3278ZM17.4686 21.3278L17.7561 21.4134L17.8097 21.2335L17.6713 21.1067L17.4686 21.3278ZM17.4628 21.3472L17.7502 21.433L17.7502 21.433L17.4628 21.3472ZM17.4569 32.6277L17.745 32.5443L17.745 32.5443L17.4569 32.6277ZM17.4661 32.66L17.177 32.7401L17.3117 33.226L17.6745 32.8758L17.4661 32.66ZM17.4662 32.6599L17.6745 32.8757L17.804 32.7507L17.7547 32.5776L17.4662 32.6599ZM17.457 32.6277L17.7455 32.5454L17.7452 32.5443L17.457 32.6277ZM17.4629 21.3471L17.7503 21.433L17.7504 21.4327L17.4629 21.3471ZM18.943 21.1274V20.8274H18.1706L18.7405 21.3488L18.943 21.1274ZM25.6775 27.2668L25.4767 27.4897L25.4767 27.4897L25.6775 27.2668ZM33.0568 21.1274L33.2593 21.3488L33.8291 20.8274H33.0568V21.1274ZM26.3221 27.2672L26.5229 27.4901L26.5229 27.4901L26.3221 27.2672ZM17.7888 31.8512H17.4888V32.5492L17.9952 32.0689L17.7888 31.8512ZM23.1016 26.9649L23.2987 27.191L23.5526 26.9697L23.3035 26.743L23.1016 26.9649ZM17.7888 22.1138L17.9913 21.8925L17.4888 21.4328V22.1138H17.7888ZM27.7685 27.5L27.9643 27.2727L27.7633 27.0997L27.567 27.2778L27.7685 27.5ZM27.7686 27.5001L27.9701 27.7223L28.2215 27.4942L27.9643 27.2728L27.7686 27.5001ZM27.0873 28.1164L26.8865 27.8935L26.8863 27.8937L27.0873 28.1164ZM26.1507 28.5515L26.1203 28.253L26.1811 28.8499L26.1507 28.5515ZM27.0875 28.1164L26.8866 27.8935L26.8864 27.8937L27.0875 28.1164ZM24.2313 27.5L24.4334 27.2784L24.2376 27.0998L24.0362 27.2721L24.2313 27.5ZM24.2313 27.5001L24.4263 27.728L24.6844 27.5072L24.4334 27.2784L24.2313 27.5001ZM18.0287 33.2008L17.8217 32.9836L17.4223 33.3644L17.959 33.4926L18.0287 33.2008ZM18.0748 33.213L18.1552 32.924L18.1552 32.924L18.0748 33.213ZM18.0749 33.213L18.1554 32.9237L18.1418 32.9205L18.0749 33.213ZM18.0749 33.213L17.9944 33.5023L18.0081 33.5055L18.0749 33.213ZM18.0288 33.2008L17.8219 32.9835L17.4221 33.3643L17.9591 33.4926L18.0288 33.2008ZM18.2046 33.0334L17.9978 32.816L17.9977 32.8161L18.2046 33.0334ZM18.3737 32.8726L18.167 32.6551L18.167 32.6552L18.3737 32.8726ZM34.2112 32.3528L34.4179 32.1354L34.4179 32.1354L34.2112 32.3528ZM28.6275 27.2114L28.4306 27.4377H28.4306L28.6275 27.2114ZM34.3206 32.4568L34.5275 32.2396L34.5273 32.2394L34.3206 32.4568ZM34.5337 32.6599L34.8229 32.7397L34.8707 32.5665L34.7407 32.4427L34.5337 32.6599ZM34.5337 32.66L34.3267 32.8771L34.6896 33.2232L34.8229 32.7398L34.5337 32.66ZM28.3503 26.9717L28.1484 26.7497L27.8973 26.9781L28.1548 27.1993L28.3503 26.9717ZM34.5312 21.3277L34.8176 21.2383L34.6769 20.7877L34.3287 21.1064L34.5312 21.3277ZM34.5313 21.3278L34.7338 21.5491L34.8744 21.4204L34.8176 21.2384L34.5313 21.3278ZM34.2959 21.5432L34.4984 21.7645L34.4984 21.7645L34.2959 21.5432ZM34.2112 21.6207L34.4137 21.842L34.4137 21.842L34.2112 21.6207ZM28.6215 26.725L28.8234 26.947L28.8234 26.9469L28.6215 26.725ZM28.3504 26.9717L28.1485 26.7498L27.8975 26.9781L28.1549 27.1993L28.3504 26.9717ZM33.0978 32.8726V33.1726H33.8505L33.3042 32.6548L33.0978 32.8726ZM27.7748 27.9854L27.9712 27.7587L27.7704 27.5847L27.5734 27.7631L27.7748 27.9854ZM18.9022 32.8726L18.6958 32.6548L18.1495 33.1726H18.9022V32.8726ZM24.2252 27.9854L24.4266 27.7631L24.2296 27.5847L24.0287 27.7587L24.2252 27.9854ZM24.6683 28.3861L24.8694 28.1634L24.8692 28.1632L24.6683 28.3861ZM27.331 28.3867L27.1301 28.1638L27.13 28.164L27.331 28.3867ZM34.2112 31.8511L34.0047 32.0688L34.5112 32.5491V31.8511H34.2112ZM28.8985 26.9649L28.6965 26.743L28.4474 26.9698L28.7014 27.1911L28.8985 26.9649ZM34.2112 22.1138H34.5112V21.4327L34.0087 21.8924L34.2112 22.1138ZM18.1593 19.9848L18.1507 19.6849L18.1679 20.2846L18.1593 19.9848ZM33.8506 34.0149L33.8401 33.7151L33.8611 34.3148L33.8506 34.0149ZM18.2046 19.9203H33.7954V19.3203H18.2046V19.9203ZM16.5817 21.5432C16.5817 20.6481 17.3094 19.9203 18.2046 19.9203V19.3203C16.9781 19.3203 15.9817 20.3167 15.9817 21.5432H16.5817ZM16.5817 32.4568V21.5432H15.9817V32.4568H16.5817ZM18.2046 34.0797C17.3095 34.0797 16.5817 33.3519 16.5817 32.4568H15.9817C15.9817 33.6833 16.9781 34.6797 18.2046 34.6797V34.0797ZM33.7954 34.0797H18.2046V34.6797H33.7954V34.0797ZM35.4183 32.4568C35.4183 33.3519 34.6905 34.0797 33.7954 34.0797V34.6797C35.0219 34.6797 36.0183 33.6833 36.0183 32.4568H35.4183ZM35.4183 21.5432V32.4568H36.0183V21.5432H35.4183ZM33.7954 19.9203C34.6905 19.9203 35.4183 20.6481 35.4183 21.5432H36.0183C36.0183 20.3167 35.0219 19.3203 33.7954 19.3203V19.9203ZM17.8398 21.0178L18.002 21.1662L18.4071 20.7236L18.2449 20.5752L17.8398 21.0178ZM18.0114 20.4948C17.9939 20.4996 17.9855 20.5019 17.9781 20.5035L18.1066 21.0895C18.1323 21.0839 18.1562 21.0772 18.1712 21.0731L18.0114 20.4948ZM18.0324 20.4898L18.0324 20.4898L18.1501 21.0781L18.1501 21.0781L18.0324 20.4898ZM18.1918 20.4638C18.1112 20.4657 18.0413 20.4865 18.0114 20.4948L18.1712 21.0731C18.1803 21.0706 18.1868 21.0688 18.1929 21.0672C18.1987 21.0657 18.2027 21.0648 18.2056 21.0642C18.2113 21.063 18.2105 21.0635 18.206 21.0636L18.1918 20.4638ZM18.1711 21.0731C18.1802 21.0706 18.1867 21.0688 18.1928 21.0672C18.1986 21.0657 18.2026 21.0648 18.2055 21.0642C18.2112 21.063 18.2104 21.0635 18.2059 21.0636L18.192 20.4638C18.1112 20.4657 18.0412 20.4865 18.0113 20.4948L18.1711 21.0731ZM18.1065 21.0895C18.1322 21.0839 18.1561 21.0772 18.1711 21.0731L18.0113 20.4948C17.9938 20.4996 17.9853 20.5019 17.978 20.5035L18.1065 21.0895ZM25.6347 27.3142C24.0697 25.9042 19.5949 21.8106 18.2448 20.5752L17.8397 21.0178C19.1888 22.2522 23.6659 26.348 25.2331 27.76L25.6347 27.3142ZM25.9999 27.4795C25.8622 27.4795 25.7341 27.4038 25.6347 27.3142L25.2331 27.76C25.3796 27.8919 25.6466 28.0795 25.9999 28.0795V27.4795ZM26 27.4795C25.9947 27.4795 25.9904 27.4797 25.9877 27.4798C25.9864 27.4798 25.9853 27.4799 25.9846 27.4799C25.9843 27.48 25.984 27.48 25.9838 27.48C25.9837 27.48 25.9837 27.48 25.9836 27.48C25.9836 27.48 25.9836 27.48 25.9836 27.48C25.9836 27.48 25.9836 27.48 25.9836 27.48C25.9836 27.48 25.9836 27.48 25.9836 27.48H25.9836C25.9832 27.48 25.9853 27.4799 25.9877 27.4798C25.9903 27.4797 25.9946 27.4795 25.9999 27.4795V28.0795C26.0052 28.0795 26.0096 28.0794 26.0122 28.0793C26.0136 28.0792 26.0147 28.0792 26.0153 28.0791C26.0157 28.0791 26.016 28.0791 26.0161 28.0791C26.0162 28.0791 26.0163 28.0791 26.0163 28.0791C26.0163 28.0791 26.0164 28.0791 26.0164 28.0791C26.0164 28.0791 26.0164 28.0791 26.0164 28.0791C26.0164 28.0791 26.0164 28.0791 26.0164 28.0791H26.0164C26.0167 28.0791 26.0147 28.0792 26.0123 28.0793C26.0096 28.0794 26.0053 28.0795 26 28.0795V27.4795ZM25.2332 27.76C25.3797 27.8919 25.6467 28.0795 26 28.0795V27.4795C25.8623 27.4795 25.7342 27.4038 25.6348 27.3142L25.2332 27.76ZM18.2015 21.3488C19.8564 22.8628 23.7857 26.4559 25.2332 27.76L25.6348 27.3142C24.1895 26.0121 20.2624 22.421 18.6066 20.9061L18.2015 21.3488ZM18.0021 21.1663L18.2015 21.3488L18.6066 20.9061L18.4071 20.7236L18.0021 21.1663ZM17.2658 21.5489L17.2659 21.549L17.6713 21.1067L17.6712 21.1066L17.2658 21.5489ZM17.7502 21.433C17.7521 21.4266 17.7542 21.4197 17.7562 21.4127L17.1808 21.2428C17.179 21.2488 17.1773 21.2548 17.1753 21.2613L17.7502 21.433ZM17.7249 21.5432C17.7249 21.5246 17.7295 21.5023 17.7502 21.433L17.1753 21.2613C17.1582 21.3186 17.1249 21.4233 17.1249 21.5432H17.7249ZM17.7249 32.4568V21.5432H17.1249V32.4568H17.7249ZM17.745 32.5443C17.7366 32.515 17.7317 32.4977 17.7284 32.4819C17.7253 32.4676 17.7249 32.4604 17.7249 32.4568H17.1249C17.1249 32.5662 17.1543 32.6614 17.1687 32.711L17.745 32.5443ZM17.7552 32.5798C17.7517 32.5672 17.7481 32.5548 17.745 32.5443L17.1687 32.711C17.1719 32.722 17.1745 32.7312 17.177 32.7401L17.7552 32.5798ZM17.2578 32.4441L17.2577 32.4442L17.6745 32.8758L17.6745 32.8757L17.2578 32.4441ZM17.1685 32.7099L17.1777 32.7422L17.7547 32.5776L17.7455 32.5454L17.1685 32.7099ZM17.125 32.4568C17.125 32.5662 17.1544 32.6614 17.1688 32.711L17.7452 32.5443C17.7367 32.515 17.7318 32.4977 17.7285 32.4819C17.7254 32.4676 17.725 32.4604 17.725 32.4568H17.125ZM17.125 21.5432V32.4568H17.725V21.5432H17.125ZM17.1754 21.2613C17.1583 21.3186 17.125 21.4233 17.125 21.5432H17.725C17.725 21.5246 17.7296 21.5023 17.7503 21.433L17.1754 21.2613ZM17.1811 21.2423L17.1753 21.2616L17.7504 21.4327L17.7561 21.4134L17.1811 21.2423ZM18.7405 21.3488C20.5272 22.9832 24.11 26.2584 25.4767 27.4897L25.8783 27.0439C24.5137 25.8145 20.9331 22.5413 19.1455 20.9061L18.7405 21.3488ZM33.0568 20.8274H18.943V21.4274H33.0568V20.8274ZM26.5229 27.4901C27.8897 26.2586 31.4725 22.9834 33.2593 21.3488L32.8543 20.9061C31.0666 22.5415 27.486 25.8148 26.1213 27.0443L26.5229 27.4901ZM26 27.7158C26.2222 27.7158 26.4048 27.5964 26.5229 27.4901L26.1214 27.0443C26.0515 27.1072 26.0075 27.1158 26 27.1158V27.7158ZM25.4767 27.4897C25.5952 27.5964 25.7779 27.7158 26 27.7158V27.1158C25.9926 27.1158 25.9487 27.1073 25.8783 27.0439L25.4767 27.4897ZM17.9952 32.0689C19.2666 30.8632 21.5895 28.6806 23.2987 27.191L22.9045 26.7387C21.1847 28.2375 18.8535 30.4281 17.5823 31.6335L17.9952 32.0689ZM17.4888 22.1138V31.8512H18.0888V22.1138H17.4888ZM23.3035 26.743C21.588 25.1817 19.2577 23.0511 17.9913 21.8925L17.5863 22.3352C18.8527 23.4938 21.1835 25.6249 22.8997 27.1867L23.3035 26.743ZM27.5728 27.7274C27.5728 27.7274 27.5728 27.7274 27.5728 27.7274H27.5728C27.5728 27.7274 27.5728 27.7274 27.5728 27.7274C27.5728 27.7274 27.5728 27.7274 27.5728 27.7274C27.5728 27.7274 27.5728 27.7274 27.5728 27.7274H27.5728C27.5728 27.7274 27.5728 27.7274 27.5728 27.7274C27.5728 27.7274 27.5728 27.7274 27.5728 27.7274C27.5728 27.7274 27.5728 27.7274 27.5728 27.7274H27.5728C27.5728 27.7274 27.5728 27.7274 27.5728 27.7274C27.5728 27.7274 27.5728 27.7274 27.5728 27.7274C27.5728 27.7274 27.5728 27.7274 27.5728 27.7274C27.5728 27.7274 27.5728 27.7274 27.5728 27.7274C27.5728 27.7274 27.5728 27.7274 27.5728 27.7274H27.5728C27.5728 27.7274 27.5728 27.7274 27.5728 27.7274C27.5728 27.7274 27.5728 27.7274 27.5728 27.7274C27.5728 27.7274 27.5728 27.7274 27.5728 27.7274H27.5728C27.5728 27.7274 27.5728 27.7274 27.5728 27.7274C27.5728 27.7274 27.5728 27.7274 27.5728 27.7274C27.5728 27.7274 27.5728 27.7274 27.5728 27.7274H27.5728C27.5728 27.7274 27.5728 27.7274 27.5728 27.7274C27.5728 27.7274 27.5728 27.7274 27.5728 27.7274C27.5728 27.7274 27.5728 27.7274 27.5728 27.7274C27.5728 27.7274 27.5728 27.7274 27.5728 27.7274C27.5728 27.7274 27.5728 27.7274 27.5728 27.7274C27.5728 27.7274 27.5728 27.7274 27.5728 27.7274C27.5728 27.7274 27.5728 27.7274 27.5728 27.7274C27.5728 27.7274 27.5728 27.7274 27.5728 27.7274C27.5728 27.7274 27.5728 27.7274 27.5728 27.7274C27.5728 27.7274 27.5728 27.7274 27.5728 27.7274C27.5728 27.7274 27.5728 27.7274 27.5728 27.7274C27.5728 27.7274 27.5728 27.7274 27.5728 27.7274C27.5728 27.7274 27.5728 27.7274 27.5728 27.7274C27.5728 27.7274 27.5728 27.7274 27.5728 27.7274C27.5728 27.7274 27.5728 27.7274 27.5728 27.7274C27.5728 27.7274 27.5728 27.7274 27.5728 27.7274C27.5728 27.7274 27.5728 27.7274 27.5728 27.7274C27.5728 27.7274 27.5728 27.7274 27.5728 27.7274H27.5728C27.5728 27.7274 27.5728 27.7274 27.5728 27.7274C27.5728 27.7274 27.5728 27.7274 27.5728 27.7274C27.5728 27.7274 27.5728 27.7274 27.5728 27.7274H27.5728C27.5728 27.7274 27.5728 27.7274 27.5728 27.7274C27.5728 27.7274 27.5728 27.7274 27.5728 27.7274C27.5728 27.7274 27.5728 27.7274 27.5728 27.7274C27.5728 27.7274 27.5728 27.7274 27.5728 27.7274C27.5728 27.7274 27.5728 27.7274 27.5728 27.7274H27.5728C27.5728 27.7274 27.5728 27.7274 27.5728 27.7274C27.5728 27.7274 27.5728 27.7274 27.5728 27.7274C27.5728 27.7274 27.5728 27.7274 27.5728 27.7274H27.5728C27.5728 27.7274 27.5728 27.7274 27.5728 27.7274C27.5728 27.7274 27.5728 27.7274 27.5728 27.7274C27.5728 27.7274 27.5728 27.7274 27.5728 27.7274H27.5728C27.5728 27.7274 27.5728 27.7274 27.5728 27.7274H27.5728C27.5728 27.7274 27.5728 27.7274 27.5728 27.7274C27.5728 27.7274 27.5728 27.7274 27.5728 27.7274C27.5728 27.7274 27.5728 27.7274 27.5728 27.7274H27.5728C27.5728 27.7274 27.5728 27.7274 27.5728 27.7274C27.5728 27.7274 27.5728 27.7274 27.5728 27.7274C27.5728 27.7274 27.5728 27.7274 27.5728 27.7274H27.5728C27.5728 27.7274 27.5728 27.7274 27.5728 27.7274C27.5728 27.7274 27.5728 27.7274 27.5728 27.7274C27.5728 27.7274 27.5728 27.7274 27.5728 27.7274C27.5728 27.7274 27.5728 27.7274 27.5728 27.7274C27.5728 27.7274 27.5728 27.7274 27.5728 27.7274C27.5728 27.7274 27.5728 27.7274 27.5728 27.7274C27.5728 27.7274 27.5728 27.7274 27.5728 27.7274C27.5728 27.7274 27.5728 27.7274 27.5728 27.7274C27.5728 27.7274 27.5728 27.7274 27.5728 27.7274C27.5728 27.7274 27.5728 27.7274 27.5728 27.7274C27.5728 27.7274 27.5728 27.7274 27.5728 27.7274V27.7274C27.5728 27.7274 27.5728 27.7274 27.5728 27.7274V27.7274C27.5728 27.7274 27.5728 27.7274 27.5728 27.7274V27.7274C27.5728 27.7274 27.5728 27.7274 27.5728 27.7274C27.5728 27.7274 27.5728 27.7274 27.5728 27.7274H27.5728V27.7274C27.5728 27.7274 27.5728 27.7274 27.5728 27.7274V27.7274H27.5728L27.9643 27.2728C27.9643 27.2728 27.9643 27.2728 27.9643 27.2728C27.9643 27.2728 27.9643 27.2728 27.9643 27.2728V27.2728C27.9643 27.2728 27.9643 27.2728 27.9643 27.2728C27.9643 27.2728 27.9643 27.2728 27.9643 27.2728C27.9643 27.2728 27.9643 27.2728 27.9643 27.2728C27.9643 27.2728 27.9643 27.2728 27.9643 27.2728C27.9643 27.2728 27.9643 27.2728 27.9643 27.2728H27.9643C27.9643 27.2728 27.9643 27.2728 27.9643 27.2728C27.9643 27.2728 27.9643 27.2728 27.9643 27.2728C27.9643 27.2728 27.9643 27.2728 27.9643 27.2728C27.9643 27.2728 27.9643 27.2728 27.9643 27.2728C27.9643 27.2728 27.9643 27.2728 27.9643 27.2728C27.9643 27.2727 27.9643 27.2727 27.9643 27.2727C27.9643 27.2727 27.9643 27.2727 27.9643 27.2727C27.9643 27.2727 27.9643 27.2727 27.9643 27.2727C27.9643 27.2727 27.9643 27.2727 27.9643 27.2727H27.9643C27.9643 27.2727 27.9643 27.2727 27.9643 27.2727C27.9643 27.2727 27.9643 27.2727 27.9643 27.2727C27.9643 27.2727 27.9643 27.2727 27.9643 27.2727H27.9643C27.9643 27.2727 27.9643 27.2727 27.9643 27.2727C27.9643 27.2727 27.9643 27.2727 27.9643 27.2727C27.9643 27.2727 27.9643 27.2727 27.9643 27.2727C27.9643 27.2727 27.9643 27.2727 27.9643 27.2727C27.9643 27.2727 27.9643 27.2727 27.9643 27.2727H27.9643C27.9643 27.2727 27.9643 27.2727 27.9643 27.2727C27.9643 27.2727 27.9643 27.2727 27.9643 27.2727C27.9643 27.2727 27.9643 27.2727 27.9643 27.2727H27.9643C27.9643 27.2727 27.9643 27.2727 27.9643 27.2727C27.9643 27.2727 27.9643 27.2727 27.9643 27.2727C27.9643 27.2727 27.9643 27.2727 27.9643 27.2727C27.9643 27.2727 27.9643 27.2727 27.9643 27.2727C27.9643 27.2727 27.9643 27.2727 27.9643 27.2727C27.9643 27.2727 27.9643 27.2727 27.9643 27.2727C27.9643 27.2727 27.9643 27.2727 27.9643 27.2727C27.9643 27.2727 27.9643 27.2727 27.9643 27.2727C27.9643 27.2727 27.9643 27.2727 27.9643 27.2727C27.9643 27.2727 27.9643 27.2727 27.9643 27.2727C27.9643 27.2727 27.9643 27.2727 27.9643 27.2727C27.9643 27.2727 27.9643 27.2727 27.9643 27.2727C27.9643 27.2727 27.9643 27.2727 27.9643 27.2727C27.9643 27.2727 27.9643 27.2727 27.9643 27.2727C27.9643 27.2727 27.9643 27.2727 27.9643 27.2727C27.9643 27.2727 27.9643 27.2727 27.9643 27.2727C27.9643 27.2727 27.9643 27.2727 27.9643 27.2727V27.2727C27.9643 27.2727 27.9643 27.2727 27.9643 27.2727C27.9643 27.2727 27.9643 27.2727 27.9643 27.2727V27.2727C27.9643 27.2727 27.9643 27.2727 27.9643 27.2727C27.9643 27.2727 27.9643 27.2727 27.9643 27.2727V27.2727C27.9643 27.2727 27.9643 27.2727 27.9643 27.2727C27.9643 27.2727 27.9643 27.2727 27.9643 27.2727C27.9643 27.2727 27.9643 27.2727 27.9643 27.2727C27.9643 27.2727 27.9643 27.2727 27.9643 27.2727H27.9643V27.2727C27.9643 27.2727 27.9643 27.2727 27.9643 27.2727C27.9643 27.2727 27.9643 27.2727 27.9643 27.2727V27.2727C27.9643 27.2727 27.9643 27.2727 27.9643 27.2727H27.9643V27.2727C27.9643 27.2727 27.9643 27.2727 27.9643 27.2727V27.2727H27.9643C27.9643 27.2727 27.9643 27.2727 27.9643 27.2727V27.2727C27.9643 27.2727 27.9643 27.2727 27.9643 27.2727C27.9643 27.2727 27.9643 27.2727 27.9643 27.2727L27.9643 27.2727C27.9643 27.2727 27.9643 27.2727 27.9643 27.2727C27.9643 27.2727 27.9643 27.2727 27.9643 27.2727V27.2727C27.9643 27.2727 27.9643 27.2727 27.9643 27.2727H27.9643V27.2727C27.9643 27.2727 27.9643 27.2727 27.9643 27.2727C27.9643 27.2727 27.9643 27.2727 27.9643 27.2727V27.2727C27.9643 27.2727 27.9643 27.2727 27.9643 27.2727V27.2727C27.9643 27.2727 27.9643 27.2727 27.9643 27.2727C27.9643 27.2727 27.9643 27.2727 27.9643 27.2727V27.2727H27.9643C27.9643 27.2727 27.9643 27.2727 27.9643 27.2727C27.9643 27.2727 27.9643 27.2727 27.9643 27.2727C27.9643 27.2727 27.9643 27.2727 27.9643 27.2727H27.9643V27.2727C27.9643 27.2727 27.9643 27.2727 27.9643 27.2727C27.9643 27.2727 27.9643 27.2727 27.9643 27.2727V27.2727C27.9643 27.2727 27.9643 27.2727 27.9643 27.2727H27.9643V27.2727C27.9643 27.2727 27.9643 27.2727 27.9643 27.2727C27.9643 27.2727 27.9643 27.2727 27.9643 27.2727V27.2727C27.9643 27.2727 27.9643 27.2727 27.9643 27.2727C27.9643 27.2727 27.9643 27.2727 27.9643 27.2727V27.2727C27.9643 27.2727 27.9643 27.2727 27.9643 27.2727C27.9643 27.2727 27.9643 27.2727 27.9643 27.2727V27.2727C27.9643 27.2727 27.9643 27.2727 27.9643 27.2727C27.9643 27.2727 27.9643 27.2727 27.9643 27.2727C27.9643 27.2727 27.9643 27.2727 27.9643 27.2727V27.2727C27.9643 27.2727 27.9643 27.2727 27.9643 27.2727C27.9643 27.2727 27.9643 27.2727 27.9643 27.2727V27.2727C27.9643 27.2727 27.9643 27.2727 27.9643 27.2727C27.9643 27.2727 27.9643 27.2727 27.9643 27.2727V27.2727C27.9643 27.2727 27.9643 27.2727 27.9643 27.2727V27.2727C27.9643 27.2727 27.9643 27.2727 27.9643 27.2727C27.9643 27.2727 27.9643 27.2727 27.9643 27.2727V27.2727C27.9643 27.2727 27.9643 27.2727 27.9643 27.2727C27.9643 27.2727 27.9643 27.2727 27.9643 27.2727V27.2727H27.9643C27.9643 27.2727 27.9643 27.2727 27.9643 27.2727C27.9643 27.2727 27.9643 27.2727 27.9643 27.2727C27.9643 27.2727 27.9643 27.2727 27.9643 27.2727H27.9643V27.2727L27.5728 27.7274ZM27.2882 28.3393C27.4748 28.1711 27.7114 27.9569 27.9701 27.7223L27.567 27.2778C27.3084 27.5124 27.0724 27.7261 26.8865 27.8935L27.2882 28.3393ZM26.1811 28.8499C26.5875 28.8085 26.967 28.6292 27.2884 28.3391L26.8863 27.8937C26.6491 28.1079 26.3862 28.2259 26.1203 28.253L26.1811 28.8499ZM26.8864 27.8937C26.6491 28.1079 26.3863 28.2259 26.1203 28.253L26.1811 28.8499C26.5875 28.8085 26.967 28.6293 27.2885 28.3391L26.8864 27.8937ZM27.567 27.2779C27.3084 27.5124 27.0724 27.7261 26.8866 27.8935L27.2883 28.3393C27.4749 28.1712 27.7114 27.9569 27.9701 27.7223L27.567 27.2779ZM24.0291 27.7217C24.0291 27.7217 24.0291 27.7217 24.0291 27.7217V27.7217C24.0291 27.7217 24.0291 27.7217 24.0291 27.7217C24.0291 27.7217 24.0291 27.7217 24.0291 27.7217V27.7217C24.0291 27.7217 24.0291 27.7217 24.0291 27.7217C24.0291 27.7217 24.0291 27.7217 24.0291 27.7217V27.7217C24.0291 27.7217 24.0291 27.7217 24.0291 27.7217C24.0291 27.7217 24.0291 27.7217 24.0291 27.7217C24.0291 27.7217 24.0291 27.7217 24.0291 27.7217C24.0291 27.7217 24.0291 27.7217 24.0291 27.7217C24.0291 27.7217 24.0291 27.7217 24.0291 27.7217V27.7217C24.0291 27.7217 24.0291 27.7217 24.0291 27.7217C24.0291 27.7217 24.0291 27.7217 24.0291 27.7217V27.7217C24.0291 27.7217 24.0291 27.7217 24.0291 27.7217C24.0291 27.7217 24.0291 27.7217 24.0291 27.7217V27.7217C24.0291 27.7217 24.0291 27.7217 24.0291 27.7217C24.0291 27.7217 24.0291 27.7217 24.0291 27.7217V27.7217C24.0291 27.7217 24.0291 27.7217 24.0291 27.7217C24.0291 27.7217 24.0291 27.7217 24.0291 27.7217C24.0291 27.7217 24.0291 27.7217 24.0291 27.7217H24.0291H24.0291V27.7217H24.0291H24.0291V27.7217H24.0291H24.0291V27.7217H24.0291H24.0291V27.7217H24.0291H24.0291L24.0291 27.7217H24.0291H24.0291V27.7217H24.0291H24.0291V27.7217H24.0291H24.0291V27.7217C24.0291 27.7217 24.0291 27.7217 24.0291 27.7217C24.0291 27.7217 24.0291 27.7217 24.0291 27.7217V27.7217C24.0291 27.7217 24.0291 27.7217 24.0291 27.7217C24.0291 27.7217 24.0291 27.7217 24.0291 27.7217C24.0291 27.7217 24.0291 27.7217 24.0291 27.7217C24.0291 27.7217 24.0291 27.7217 24.0292 27.7217C24.0292 27.7217 24.0292 27.7217 24.0292 27.7217V27.7217C24.0292 27.7217 24.0292 27.7217 24.0292 27.7217C24.0292 27.7217 24.0292 27.7217 24.0292 27.7217V27.7217C24.0292 27.7217 24.0292 27.7217 24.0292 27.7217C24.0292 27.7217 24.0292 27.7217 24.0292 27.7217V27.7217C24.0292 27.7217 24.0292 27.7217 24.0292 27.7217C24.0292 27.7217 24.0292 27.7217 24.0292 27.7217V27.7218C24.0292 27.7218 24.0292 27.7218 24.0292 27.7218C24.0292 27.7218 24.0292 27.7218 24.0292 27.7218C24.0292 27.7218 24.0292 27.7218 24.0292 27.7218C24.0292 27.7218 24.0292 27.7218 24.0292 27.7218C24.0292 27.7218 24.0292 27.7218 24.0292 27.7218C24.0292 27.7218 24.0292 27.7218 24.0292 27.7218C24.0292 27.7218 24.0292 27.7218 24.0292 27.7218C24.0292 27.7218 24.0292 27.7218 24.0292 27.7218C24.0292 27.7218 24.0292 27.7218 24.0292 27.7218C24.0292 27.7218 24.0292 27.7218 24.0292 27.7218C24.0292 27.7218 24.0292 27.7218 24.0292 27.7218C24.0292 27.7218 24.0292 27.7218 24.0292 27.7218C24.0292 27.7218 24.0292 27.7218 24.0292 27.7218C24.0292 27.7218 24.0292 27.7218 24.0292 27.7218C24.0292 27.7218 24.0292 27.7218 24.0292 27.7218C24.0292 27.7218 24.0292 27.7218 24.0292 27.7218C24.0292 27.7218 24.0292 27.7218 24.0292 27.7218C24.0292 27.7218 24.0292 27.7218 24.0292 27.7218C24.0292 27.7218 24.0292 27.7218 24.0292 27.7218C24.0292 27.7218 24.0292 27.7218 24.0292 27.7218C24.0292 27.7218 24.0292 27.7218 24.0292 27.7218C24.0292 27.7218 24.0292 27.7218 24.0292 27.7218C24.0292 27.7218 24.0292 27.7218 24.0292 27.7218C24.0292 27.7218 24.0292 27.7218 24.0292 27.7218C24.0292 27.7218 24.0292 27.7218 24.0292 27.7218C24.0292 27.7218 24.0292 27.7218 24.0292 27.7218C24.0292 27.7218 24.0292 27.7218 24.0292 27.7218H24.0292C24.0292 27.7218 24.0292 27.7218 24.0292 27.7218H24.0292H24.0292C24.0292 27.7218 24.0292 27.7218 24.0292 27.7218H24.0292H24.0292C24.0292 27.7218 24.0292 27.7218 24.0292 27.7218H24.0292H24.0292C24.0292 27.7218 24.0292 27.7218 24.0292 27.7218H24.0292H24.0292C24.0292 27.7218 24.0292 27.7218 24.0292 27.7218H24.0292H24.0292C24.0292 27.7218 24.0292 27.7218 24.0292 27.7218H24.0292H24.0292C24.0292 27.7218 24.0292 27.7218 24.0292 27.7218H24.0292H24.0292C24.0292 27.7218 24.0292 27.7218 24.0292 27.7218C24.0292 27.7218 24.0292 27.7218 24.0292 27.7218C24.0292 27.7218 24.0292 27.7218 24.0292 27.7218C24.0292 27.7218 24.0292 27.7218 24.0292 27.7218C24.0292 27.7218 24.0292 27.7218 24.0292 27.7218C24.0292 27.7218 24.0292 27.7218 24.0292 27.7218C24.0292 27.7218 24.0292 27.7218 24.0292 27.7218C24.0292 27.7218 24.0292 27.7218 24.0292 27.7218C24.0292 27.7218 24.0292 27.7218 24.0292 27.7218C24.0292 27.7218 24.0292 27.7218 24.0292 27.7218C24.0292 27.7218 24.0292 27.7218 24.0292 27.7218C24.0292 27.7218 24.0292 27.7218 24.0292 27.7218C24.0292 27.7218 24.0292 27.7218 24.0292 27.7218C24.0292 27.7218 24.0292 27.7218 24.0292 27.7218C24.0292 27.7218 24.0292 27.7218 24.0292 27.7218C24.0292 27.7218 24.0292 27.7218 24.0292 27.7218C24.0292 27.7218 24.0292 27.7218 24.0292 27.7218C24.0292 27.7218 24.0292 27.7218 24.0292 27.7218C24.0292 27.7218 24.0292 27.7218 24.0292 27.7218C24.0292 27.7218 24.0292 27.7218 24.0292 27.7218C24.0292 27.7218 24.0292 27.7218 24.0292 27.7218L24.4334 27.2784V27.2784H24.4334C24.4334 27.2784 24.4334 27.2784 24.4334 27.2784V27.2784H24.4334C24.4334 27.2784 24.4334 27.2784 24.4334 27.2784C24.4334 27.2784 24.4334 27.2784 24.4334 27.2784H24.4334C24.4334 27.2784 24.4334 27.2784 24.4334 27.2784C24.4334 27.2784 24.4334 27.2784 24.4334 27.2784C24.4334 27.2784 24.4334 27.2784 24.4334 27.2784H24.4334C24.4334 27.2784 24.4334 27.2784 24.4334 27.2784C24.4334 27.2784 24.4334 27.2784 24.4334 27.2784C24.4334 27.2784 24.4334 27.2784 24.4334 27.2784C24.4334 27.2784 24.4334 27.2784 24.4334 27.2784C24.4334 27.2784 24.4334 27.2784 24.4334 27.2784C24.4334 27.2784 24.4334 27.2784 24.4334 27.2784C24.4334 27.2784 24.4334 27.2784 24.4334 27.2784C24.4334 27.2784 24.4334 27.2784 24.4334 27.2784C24.4334 27.2784 24.4334 27.2784 24.4334 27.2784C24.4334 27.2784 24.4334 27.2784 24.4334 27.2784C24.4334 27.2784 24.4334 27.2784 24.4334 27.2784C24.4334 27.2784 24.4334 27.2784 24.4334 27.2784C24.4334 27.2784 24.4334 27.2784 24.4334 27.2784C24.4334 27.2784 24.4334 27.2784 24.4334 27.2784C24.4334 27.2784 24.4334 27.2784 24.4334 27.2784C24.4334 27.2784 24.4334 27.2784 24.4334 27.2784C24.4334 27.2784 24.4334 27.2784 24.4334 27.2784C24.4334 27.2784 24.4334 27.2784 24.4334 27.2784C24.4334 27.2784 24.4334 27.2784 24.4334 27.2784C24.4334 27.2784 24.4334 27.2784 24.4334 27.2784C24.4334 27.2784 24.4334 27.2784 24.4334 27.2784C24.4334 27.2784 24.4334 27.2784 24.4334 27.2784C24.4334 27.2784 24.4334 27.2784 24.4334 27.2784C24.4334 27.2784 24.4334 27.2784 24.4334 27.2784C24.4334 27.2784 24.4334 27.2784 24.4334 27.2784C24.4334 27.2784 24.4334 27.2784 24.4334 27.2784C24.4334 27.2784 24.4334 27.2784 24.4334 27.2784C24.4334 27.2784 24.4334 27.2784 24.4334 27.2784C24.4334 27.2784 24.4334 27.2784 24.4334 27.2784C24.4334 27.2784 24.4334 27.2784 24.4334 27.2784C24.4334 27.2784 24.4334 27.2784 24.4334 27.2784C24.4334 27.2784 24.4334 27.2784 24.4334 27.2784C24.4334 27.2784 24.4334 27.2784 24.4334 27.2784C24.4334 27.2784 24.4334 27.2784 24.4334 27.2784C24.4334 27.2784 24.4334 27.2784 24.4334 27.2784C24.4334 27.2784 24.4334 27.2784 24.4334 27.2784C24.4334 27.2784 24.4334 27.2784 24.4334 27.2784C24.4334 27.2784 24.4334 27.2784 24.4334 27.2784C24.4334 27.2784 24.4334 27.2784 24.4334 27.2784V27.2784C24.4334 27.2784 24.4334 27.2784 24.4334 27.2784C24.4334 27.2784 24.4334 27.2784 24.4334 27.2784C24.4334 27.2784 24.4334 27.2784 24.4334 27.2784C24.4334 27.2784 24.4334 27.2784 24.4334 27.2784C24.4334 27.2784 24.4334 27.2784 24.4334 27.2784V27.2784C24.4334 27.2784 24.4334 27.2784 24.4334 27.2784H24.4334V27.2784C24.4334 27.2784 24.4334 27.2784 24.4334 27.2784H24.4334V27.2784C24.4334 27.2784 24.4334 27.2784 24.4334 27.2784H24.4334V27.2784C24.4334 27.2784 24.4334 27.2784 24.4334 27.2784H24.4334V27.2784C24.4334 27.2784 24.4334 27.2784 24.4334 27.2784V27.2784H24.4334C24.4334 27.2784 24.4334 27.2784 24.4334 27.2784V27.2784H24.4334C24.4334 27.2784 24.4334 27.2784 24.4334 27.2784V27.2784H24.4334C24.4334 27.2784 24.4334 27.2784 24.4334 27.2784V27.2784H24.4334C24.4334 27.2784 24.4334 27.2784 24.4334 27.2784C24.4334 27.2784 24.4334 27.2784 24.4334 27.2784C24.4334 27.2784 24.4334 27.2784 24.4334 27.2784C24.4334 27.2784 24.4334 27.2784 24.4334 27.2784V27.2784C24.4334 27.2784 24.4334 27.2784 24.4334 27.2784C24.4334 27.2784 24.4334 27.2784 24.4334 27.2784V27.2784C24.4334 27.2784 24.4334 27.2784 24.4334 27.2784C24.4334 27.2784 24.4334 27.2784 24.4334 27.2784V27.2784C24.4334 27.2784 24.4334 27.2784 24.4334 27.2784C24.4334 27.2784 24.4334 27.2784 24.4334 27.2784V27.2784C24.4334 27.2784 24.4334 27.2784 24.4334 27.2784V27.2784C24.4334 27.2784 24.4334 27.2784 24.4334 27.2784C24.4334 27.2784 24.4334 27.2784 24.4334 27.2784V27.2784C24.4334 27.2784 24.4334 27.2784 24.4334 27.2784C24.4334 27.2784 24.4334 27.2784 24.4334 27.2784V27.2784C24.4334 27.2784 24.4334 27.2784 24.4334 27.2784C24.4334 27.2784 24.4334 27.2784 24.4334 27.2784V27.2784C24.4334 27.2784 24.4334 27.2784 24.4334 27.2784C24.4334 27.2784 24.4334 27.2784 24.4334 27.2784V27.2784C24.4334 27.2784 24.4334 27.2784 24.4334 27.2784C24.4334 27.2784 24.4334 27.2784 24.4334 27.2784V27.2784C24.4334 27.2784 24.4334 27.2784 24.4334 27.2784C24.4334 27.2784 24.4334 27.2784 24.4334 27.2784C24.4334 27.2784 24.4334 27.2784 24.4334 27.2784C24.4334 27.2784 24.4334 27.2784 24.4334 27.2784C24.4334 27.2784 24.4334 27.2784 24.4334 27.2784V27.2784C24.4334 27.2784 24.4334 27.2784 24.4334 27.2784C24.4334 27.2784 24.4334 27.2784 24.4334 27.2784V27.2784C24.4334 27.2784 24.4334 27.2784 24.4334 27.2784C24.4334 27.2784 24.4334 27.2784 24.4334 27.2784V27.2784C24.4334 27.2784 24.4334 27.2784 24.4334 27.2784C24.4334 27.2784 24.4334 27.2784 24.4334 27.2784V27.2784C24.4334 27.2784 24.4334 27.2784 24.4334 27.2784V27.2784H24.4334C24.4334 27.2784 24.4334 27.2784 24.4334 27.2784V27.2784H24.4334C24.4334 27.2784 24.4334 27.2784 24.4334 27.2784L24.0291 27.7217ZM18.2357 33.4179C19.3129 32.3911 22.4506 29.4182 24.4263 27.728L24.0362 27.2721C22.0461 28.9746 18.8966 31.9589 17.8217 32.9836L18.2357 33.4179ZM18.1552 32.924C18.1408 32.92 18.1202 32.9142 18.0984 32.909L17.959 33.4926C17.9682 33.4948 17.9782 33.4975 17.9944 33.502L18.1552 32.924ZM18.2045 32.9364C18.2073 32.9364 18.2062 32.9368 18.1983 32.9351C18.1888 32.9332 18.1779 32.9303 18.1552 32.924L17.9944 33.502C18.0309 33.5122 18.1115 33.5364 18.2045 33.5364V32.9364ZM33.7953 32.9364H18.2045V33.5364H33.7953V32.9364ZM33.7954 32.9364C33.79 32.9364 33.7857 32.9365 33.7831 32.9366C33.7818 32.9367 33.7808 32.9367 33.7802 32.9368C33.7798 32.9368 33.7796 32.9368 33.7794 32.9368C33.7793 32.9368 33.7793 32.9368 33.7792 32.9368C33.7792 32.9368 33.7792 32.9368 33.7792 32.9368C33.7792 32.9368 33.7792 32.9368 33.7792 32.9368C33.7792 32.9368 33.7792 32.9368 33.7792 32.9368C33.7792 32.9368 33.7792 32.9368 33.7792 32.9368C33.7788 32.9368 33.7808 32.9367 33.7831 32.9366C33.7856 32.9365 33.7899 32.9364 33.7953 32.9364V33.5364C33.8007 33.5364 33.8051 33.5362 33.8076 33.5361C33.8089 33.5361 33.8099 33.536 33.8106 33.536C33.8109 33.536 33.8111 33.536 33.8113 33.5359C33.8114 33.5359 33.8114 33.5359 33.8115 33.5359C33.8115 33.5359 33.8115 33.5359 33.8115 33.5359C33.8115 33.5359 33.8115 33.5359 33.8115 33.5359C33.8115 33.5359 33.8115 33.5359 33.8115 33.5359C33.8116 33.5359 33.8116 33.5359 33.8116 33.5359C33.8119 33.5359 33.8099 33.536 33.8076 33.5361C33.8051 33.5362 33.8008 33.5364 33.7954 33.5364V32.9364ZM18.2046 33.5364H33.7954V32.9364H18.2046V33.5364ZM17.9945 33.502C18.031 33.5122 18.1116 33.5364 18.2046 33.5364V32.9364C18.2074 32.9364 18.2063 32.9368 18.1984 32.9351C18.189 32.9332 18.178 32.9303 18.1553 32.924L17.9945 33.502ZM18.0081 33.5055L18.0081 33.5055L18.1418 32.9205L18.1417 32.9205L18.0081 33.5055ZM17.9591 33.4926C17.9683 33.4948 17.9783 33.4975 17.9945 33.502L18.1553 32.924C18.1409 32.92 18.1203 32.9142 18.0985 32.909L17.9591 33.4926ZM17.9977 32.8161L17.8219 32.9835L18.2357 33.418L18.4115 33.2506L17.9977 32.8161ZM18.167 32.6552L17.9978 32.816L18.4113 33.2508L18.5804 33.09L18.167 32.6552ZM24.0363 27.2721C22.2279 28.8191 19.463 31.4239 18.167 32.6551L18.5803 33.0901C19.8779 31.8573 22.6318 29.2633 24.4263 27.728L24.0363 27.2721ZM34.4179 32.1354C33.2178 30.9946 30.66 28.5825 28.8245 26.9851L28.4306 27.4377C30.2549 29.0253 32.8038 31.4289 34.0045 32.5702L34.4179 32.1354ZM34.5273 32.2394L34.4179 32.1354L34.0044 32.5702L34.1138 32.6742L34.5273 32.2394ZM34.7407 32.4427L34.5275 32.2396L34.1136 32.674L34.3268 32.8771L34.7407 32.4427ZM34.2446 32.5801L34.2445 32.5802L34.8229 32.7398L34.8229 32.7397L34.2446 32.5801ZM34.7408 32.4429C33.7001 31.4503 30.571 28.4836 28.5457 26.7441L28.1548 27.1993C30.1662 28.9269 33.284 31.8826 34.3267 32.8771L34.7408 32.4429ZM28.5521 27.1937C30.5776 25.3519 33.7004 22.4949 34.7338 21.549L34.3287 21.1064C33.2952 22.0523 30.1731 24.9087 28.1484 26.7497L28.5521 27.1937ZM34.2449 21.4171C34.2439 21.4138 34.2431 21.4112 34.2426 21.4095C34.2422 21.408 34.2418 21.4068 34.2419 21.407C34.2419 21.407 34.2419 21.407 34.2419 21.407C34.2419 21.407 34.2419 21.407 34.2419 21.407C34.2419 21.407 34.2419 21.407 34.2419 21.407C34.2419 21.407 34.2419 21.407 34.2419 21.407C34.2419 21.407 34.2419 21.4071 34.242 21.4071C34.242 21.4072 34.242 21.4074 34.2421 21.4076C34.2422 21.408 34.2424 21.4087 34.2426 21.4096C34.2431 21.4112 34.2439 21.4139 34.2449 21.4172L34.8176 21.2384C34.8187 21.2416 34.8194 21.2443 34.8199 21.2459C34.8203 21.2474 34.8207 21.2487 34.8206 21.2485C34.8206 21.2485 34.8206 21.2485 34.8206 21.2485C34.8206 21.2485 34.8206 21.2485 34.8206 21.2485C34.8206 21.2485 34.8206 21.2485 34.8206 21.2485C34.8206 21.2485 34.8206 21.2485 34.8206 21.2485C34.8206 21.2484 34.8206 21.2484 34.8206 21.2483C34.8205 21.2482 34.8205 21.2481 34.8204 21.2478C34.8203 21.2474 34.8201 21.2467 34.8199 21.2459C34.8194 21.2443 34.8186 21.2416 34.8176 21.2383L34.2449 21.4171ZM34.4984 21.7645L34.7338 21.5491L34.3287 21.1065L34.0934 21.3219L34.4984 21.7645ZM34.4137 21.842L34.4984 21.7645L34.0934 21.3219L34.0087 21.3994L34.4137 21.842ZM28.8234 26.9469C30.6596 25.2759 33.2181 22.9361 34.4137 21.842L34.0087 21.3994C32.813 22.4935 30.2551 24.8328 28.4196 26.5032L28.8234 26.9469ZM28.5523 27.1936L28.8234 26.947L28.4196 26.5031L28.1485 26.7498L28.5523 27.1936ZM28.8245 26.9851C28.7296 26.9025 28.6367 26.8221 28.5459 26.7441L28.1549 27.1993C28.2446 27.2763 28.3366 27.3559 28.4306 27.4377L28.8245 26.9851ZM33.3042 32.6548C31.9884 31.4078 29.6433 29.207 27.9712 27.7587L27.5784 28.2122C29.239 29.6506 31.5751 31.8428 32.8915 33.0903L33.3042 32.6548ZM18.9022 33.1726H33.0978V32.5726H18.9022V33.1726ZM24.0287 27.7587C22.3568 29.2071 20.0116 31.4079 18.6958 32.6548L19.1086 33.0903C20.4248 31.843 22.7611 29.6507 24.4216 28.2122L24.0287 27.7587ZM24.8692 28.1632C24.742 28.0486 24.5916 27.9126 24.4266 27.7631L24.0237 28.2078C24.1889 28.3574 24.3398 28.4939 24.4675 28.6089L24.8692 28.1632ZM26 28.6229C25.592 28.6229 25.2011 28.4629 24.8694 28.1634L24.4673 28.6087C24.8964 28.9962 25.427 29.2229 26 29.2229V28.6229ZM27.13 28.164C26.7987 28.4629 26.4079 28.6229 26 28.6229V29.2229C26.5728 29.2229 27.1032 28.9963 27.532 28.6094L27.13 28.164ZM27.5734 27.7631C27.4081 27.9128 27.2574 28.0491 27.1301 28.1638L27.5318 28.6095C27.6597 28.4943 27.8108 28.3576 27.9762 28.2078L27.5734 27.7631ZM34.4176 31.6335C33.1463 30.4278 30.8153 28.2374 29.0955 26.7387L28.7014 27.1911C30.4105 28.6805 32.7332 30.8629 34.0047 32.0688L34.4176 31.6335ZM33.9112 22.1138V31.8511H34.5112V22.1138H33.9112ZM29.1004 27.1868C30.8166 25.6248 33.1472 23.4939 34.4137 22.3351L34.0087 21.8924C32.7422 23.0512 30.4121 25.1817 28.6965 26.743L29.1004 27.1868ZM18.2046 20.2841H33.7954V19.6841H18.2046V20.2841ZM18.1679 20.2846C18.1801 20.2843 18.1923 20.2841 18.2046 20.2841V19.6841C18.1866 19.6841 18.1686 19.6844 18.1507 19.6849L18.1679 20.2846ZM18.2045 19.6841C18.1865 19.6841 18.1686 19.6844 18.1508 19.6849L18.1679 20.2846C18.18 20.2843 18.1922 20.2841 18.2045 20.2841V19.6841ZM33.7953 19.6841H18.2045V20.2841H33.7953V19.6841ZM35.6544 21.5432C35.6544 20.5176 34.8209 19.6841 33.7953 19.6841V20.2841C34.4895 20.2841 35.0544 20.849 35.0544 21.5432H35.6544ZM35.6544 32.4568V21.5432H35.0544V32.4568H35.6544ZM33.8611 34.3148C34.8563 34.2799 35.6544 33.4604 35.6544 32.4568H35.0544C35.0544 33.136 34.5136 33.6916 33.8401 33.7151L33.8611 34.3148ZM35.0545 32.4568C35.0545 33.136 34.5136 33.6916 33.8401 33.7151L33.8611 34.3148C34.8564 34.28 35.6545 33.4605 35.6545 32.4568H35.0545ZM35.0545 21.5432V32.4568H35.6545V21.5432H35.0545ZM33.7954 20.2841C34.4896 20.2841 35.0545 20.849 35.0545 21.5432H35.6545C35.6545 20.5176 34.821 19.6841 33.7954 19.6841V20.2841Z" fill="#FB275D" mask="url(#path-3-outside-1)"/>
</svg>
