<svg width="269" height="30" viewBox="0 0 269 30" fill="none" xmlns="http://www.w3.org/2000/svg">
<path d="M47.3946 6.6678H40.6143V1.93555H59.9868V6.6678H53.2064V28.113H47.3946V6.6678Z" fill="#333333"/>
<path d="M74.2745 1.93543C76.0506 1.86116 77.8184 2.21638 79.4276 2.97092C80.7238 3.6002 81.8153 4.58327 82.5756 5.8064C83.3088 7.07907 83.6775 8.52874 83.6411 9.99672V11.6806C83.6861 13.2088 83.2637 14.7145 82.4303 15.9967C81.6343 17.1843 80.5105 18.1155 79.1951 18.6774L84.0383 28.1032H77.8584L73.8289 19.6838H70.5647V28.1032H64.811V1.93543H74.2745ZM70.5647 6.41608V15.329H74.1002C75.114 15.3756 76.1066 15.0289 76.8704 14.3612C77.2219 14.0207 77.4956 13.6083 77.6728 13.1524C77.85 12.6964 77.9265 12.2076 77.8972 11.7193V9.96769C77.9263 9.48235 77.8495 8.99648 77.6723 8.54368C77.495 8.09087 77.2214 7.68193 76.8704 7.34511C76.104 6.68184 75.1132 6.33572 74.1002 6.37737L70.5647 6.41608Z" fill="#333333"/>
<path d="M104.524 28.113L103.071 22.5194H95.0026L93.5497 28.113H87.3989L94.9252 1.93555H103.168L110.675 28.1614L104.524 28.113ZM95.9713 18.0001H102.122L99.0321 6.26135L95.9713 18.0001Z" fill="#333333"/>
<path d="M115.441 1.93545H124.827C126.183 1.92205 127.533 2.12124 128.827 2.52577C129.988 2.8855 131.067 3.46728 132.004 4.23867C132.892 4.98238 133.598 5.91919 134.068 6.97738C134.561 8.09934 134.808 9.31347 134.794 10.5387V19.7225C134.875 20.9128 134.672 22.1052 134.202 23.202C133.732 24.2988 133.009 25.2687 132.092 26.0322C129.984 27.5486 127.421 28.2998 124.827 28.1613H115.441V1.93545ZM129.002 11.5258C129.116 10.1652 128.707 8.81219 127.859 7.7419C127.444 7.3059 126.941 6.9637 126.383 6.73835C125.825 6.51299 125.225 6.40971 124.624 6.43545H121.253V23.5838H124.624C125.794 23.6466 126.947 23.2743 127.859 22.5387C128.24 22.1605 128.539 21.707 128.736 21.2072C128.933 20.7074 129.023 20.1721 129.002 19.6355V11.5258Z" fill="#333333"/>
<path d="M146.65 28.113H140.838V1.93555H146.65V28.113Z" fill="#333333"/>
<path d="M153.556 1.93555H169.742V6.77426H159.329V12.6872H169.354V17.2355H159.329V23.2259H170.149V28.0646H153.556V1.93555Z" fill="#333333"/>
<path d="M189.153 26.4959C187.636 27.8314 185.324 28.4991 182.218 28.4991C180.853 28.4916 179.491 28.3914 178.14 28.1991C176.755 28.0156 175.391 27.6914 174.072 27.2314L174.827 22.4894C176.906 23.1464 179.069 23.4985 181.249 23.5346C182.401 23.5955 183.551 23.3902 184.61 22.9346C184.995 22.7269 185.31 22.4104 185.515 22.0247C185.72 21.639 185.806 21.2014 185.763 20.7668C185.782 20.4221 185.728 20.0772 185.607 19.7541C185.485 19.4309 185.297 19.1365 185.056 18.8894C184.119 18.1941 183.052 17.6939 181.918 17.4185C180.3 16.8765 179.186 16.4991 178.595 16.2765C177.276 15.8387 176.143 14.9693 175.379 13.8088C174.632 12.4796 174.277 10.9667 174.353 9.44426C174.347 8.36463 174.547 7.29379 174.944 6.28942C175.332 5.32672 175.927 4.46109 176.687 3.75394C177.496 3.00291 178.457 2.43514 179.506 2.08942C180.712 1.67932 181.98 1.47964 183.254 1.4991C185.687 1.4768 188.111 1.80269 190.451 2.46684L189.773 7.30555C187.886 6.74599 185.93 6.44645 183.961 6.41523C182.908 6.35766 181.861 6.61 180.949 7.14104C180.601 7.35988 180.316 7.66648 180.124 8.03001C179.932 8.39354 179.839 8.8012 179.854 9.21201C179.83 9.8555 180.021 10.4887 180.397 11.012C181.03 11.6463 181.829 12.0891 182.702 12.2894L185.608 13.1991C187.316 13.6322 188.856 14.5617 190.035 15.8701C191.038 17.277 191.53 18.9842 191.43 20.7088C191.504 21.7817 191.338 22.8576 190.944 23.8586C190.55 24.8595 189.939 25.7604 189.153 26.4959Z" fill="#333333"/>
<path d="M214.812 28.113L213.359 22.5194H205.29L203.837 28.113H197.687L205.213 1.93555H213.456L220.953 28.1614L214.812 28.113ZM206.259 18.0001H212.4L209.32 6.26135L206.259 18.0001Z" fill="#43D14F"/>
<path d="M231.647 20.2355V28.113H225.835V1.93554H235.183C236.451 1.92454 237.714 2.10063 238.931 2.45812C240.032 2.7551 241.063 3.26833 241.963 3.9678C242.804 4.66015 243.468 5.54252 243.9 6.542C244.375 7.63438 244.61 8.81581 244.588 10.0065V12.2323C244.63 13.6905 244.264 15.1315 243.532 16.3936C242.771 17.6024 241.683 18.5719 240.394 19.1904C238.775 19.9357 237.003 20.2936 235.221 20.2355H231.647ZM231.647 6.41619V15.6968H235.057C235.592 15.7446 236.132 15.6711 236.635 15.4818C237.138 15.2925 237.592 14.9922 237.963 14.6033C238.645 13.7455 238.989 12.6682 238.931 11.5743V10.2581C238.99 9.22595 238.643 8.21172 237.963 7.43232C237.582 7.08405 237.133 6.81827 236.645 6.65172C236.157 6.48517 235.639 6.42145 235.125 6.46458L231.647 6.41619Z" fill="#43D14F"/>
<path d="M256.047 20.2355V28.1129H250.293V1.93549H259.641C260.906 1.92516 262.166 2.10124 263.38 2.45807C264.468 2.75763 265.485 3.27085 266.373 3.96775C267.21 4.66338 267.874 5.54486 268.31 6.54194C268.78 7.63582 269.014 8.81621 268.998 10.0065V12.2323C269.037 13.6914 268.668 15.1324 267.932 16.3936C267.176 17.6069 266.086 18.5777 264.794 19.1903C263.178 19.9356 261.41 20.2935 259.631 20.2355H256.047ZM256.047 6.41613V15.6968H259.466C259.993 15.7378 260.521 15.6609 261.014 15.4717C261.507 15.2825 261.951 14.9858 262.314 14.6032C262.996 13.7454 263.34 12.6681 263.283 11.5742V10.2581C263.317 9.74643 263.249 9.23316 263.082 8.74807C262.916 8.26297 262.655 7.81571 262.314 7.43226C261.935 7.08475 261.488 6.81937 261.001 6.65282C260.514 6.48628 259.999 6.42217 259.486 6.46452L256.047 6.41613Z" fill="#43D14F"/>
<path d="M10.4127 10.4419L0.910513 19.9161C0.836 19.991 0.740885 20.042 0.637263 20.0627C0.533641 20.0835 0.426194 20.0729 0.328586 20.0325C0.230978 19.992 0.147619 19.9234 0.0891096 19.8355C0.0306 19.7476 -0.000416555 19.6443 4.2252e-06 19.5387V0.532262C4.2252e-06 0.391099 0.0561325 0.255717 0.156041 0.155899C0.25595 0.0560812 0.391456 4.22135e-06 0.532749 4.22135e-06H19.5275C19.6332 -0.000416175 19.7366 0.0305721 19.8246 0.0890283C19.9126 0.147484 19.9812 0.230767 20.0217 0.328286C20.0622 0.425805 20.0728 0.533154 20.052 0.636681C20.0313 0.740209 19.9802 0.835237 19.9053 0.909682L10.4127 10.4419Z" fill="#43D14F"/>
<path d="M11.8268 19.0645L21.0578 28.2C21.1993 28.3474 21.2953 28.5323 21.3345 28.7327C21.3737 28.9331 21.3543 29.1405 21.2788 29.3303C21.2032 29.52 21.0746 29.684 20.9084 29.8028C20.7421 29.9215 20.5452 29.99 20.341 30H1.21065C1.10497 30.0004 1.00156 29.9694 0.91356 29.911C0.82556 29.8525 0.75695 29.7692 0.716453 29.6717C0.675956 29.5742 0.665402 29.4668 0.686135 29.3633C0.706867 29.2598 0.757949 29.1648 0.832883 29.0903L11.0809 19.0645C11.1805 18.967 11.3144 18.9124 11.4539 18.9124C11.5933 18.9124 11.7272 18.967 11.8268 19.0645Z" fill="#43D14F"/>
<path d="M16.9703 13.5482L25.2714 4.50951C25.3214 4.45367 25.3826 4.40901 25.451 4.37842C25.5195 4.34784 25.5936 4.33203 25.6685 4.33203C25.7435 4.33203 25.8176 4.34784 25.8861 4.37842C25.9545 4.40901 26.0157 4.45367 26.0657 4.50951C27.1699 5.80628 30.2114 9.67725 30.2114 14.6031C30.1885 17.9503 29.031 21.191 26.9278 23.7966C26.8778 23.8524 26.8166 23.8971 26.7481 23.9277C26.6797 23.9583 26.6056 23.9741 26.5306 23.9741C26.4557 23.9741 26.3815 23.9583 26.3131 23.9277C26.2447 23.8971 26.1835 23.8524 26.1335 23.7966L16.9703 14.216C16.8923 14.1221 16.8496 14.004 16.8496 13.8821C16.8496 13.7601 16.8923 13.642 16.9703 13.5482Z" fill="#43D14F"/>
</svg>
