<svg width="269" height="30" viewBox="0 0 269 30" fill="none" xmlns="http://www.w3.org/2000/svg">
<path d="M45.761 6.44168H39.2144V1.87012H57.9189V6.44168H51.3723V27.1586H45.761V6.44168Z" fill="#333333"/>
<path d="M71.7134 1.86968C73.4282 1.79793 75.135 2.14109 76.6888 2.87C77.9403 3.47792 78.9941 4.4276 79.7283 5.6092C80.4362 6.83865 80.7921 8.2391 80.757 9.65723V11.2839C80.8005 12.7603 80.3927 14.2148 79.588 15.4535C78.8217 16.6006 77.7357 17.4977 76.4643 18.0338L81.1405 27.1489H75.1737L71.2832 19.0154H68.1314V27.1489H62.5762V1.86968H71.7134ZM68.1314 6.19817V14.8084H71.545C72.5239 14.8535 73.4823 14.5185 74.2198 13.8735C74.5591 13.5446 74.8233 13.1462 74.9944 12.7057C75.1655 12.2652 75.2394 11.793 75.2111 11.3213V9.62919C75.2405 9.1602 75.167 8.69045 74.9957 8.25283C74.8245 7.81521 74.5597 7.42027 74.2198 7.09566C73.4798 6.45491 72.5232 6.12054 71.545 6.16078L68.1314 6.19817Z" fill="#333333"/>
<path d="M100.921 27.1586L99.5178 21.755H91.7273L90.3244 27.1586H84.3857L91.6525 1.87012H99.6113L106.859 27.2054L100.921 27.1586ZM92.6625 17.3891H98.6012L95.6178 6.04903L92.6625 17.3891Z" fill="#333333"/>
<path d="M111.46 1.86975H120.523C121.832 1.85681 123.136 2.04924 124.385 2.44003C125.505 2.78755 126.547 3.34956 127.453 4.09477C128.31 4.81322 128.991 5.71822 129.445 6.74048C129.921 7.82434 130.16 8.99724 130.146 10.1808V19.0529C130.224 20.2027 130.028 21.3546 129.575 22.4141C129.121 23.4737 128.423 24.4107 127.537 25.1483C125.502 26.6132 123.027 27.3389 120.523 27.205H111.46V1.86975ZM124.554 11.1344C124.666 9.81983 124.271 8.5121 123.45 7.47904C123.05 7.05784 122.564 6.72727 122.025 6.50956C121.486 6.29186 120.907 6.19208 120.326 6.21695H117.072V22.783H120.326C121.457 22.8436 122.569 22.484 123.45 21.7734C123.819 21.408 124.107 20.9699 124.297 20.4871C124.487 20.0042 124.574 19.4872 124.554 18.9687V11.1344Z" fill="#333333"/>
<path d="M141.594 27.1586H135.982V1.87012H141.594V27.1586Z" fill="#333333"/>
<path d="M148.262 1.87012H163.889V6.54452H153.836V12.2566H163.515V16.6506H153.836V22.4375H164.282V27.1119H148.262V1.87012Z" fill="#333333"/>
<path d="M172.709 1.87012H188.336V6.44168H178.283V12.1538H187.981V16.6973H178.283V27.1586H172.671L172.709 1.87012Z" fill="#43D14F"/>
<path d="M199.148 22.4375H208.659V27.2054H193.592V1.87012H199.148V22.4375Z" fill="#43D14F"/>
<path d="M212.652 9.98408C212.585 8.79855 212.79 7.61329 213.252 6.51935C213.714 5.42541 214.42 4.4519 215.318 3.67363C217.391 2.2257 219.859 1.44922 222.388 1.44922C224.917 1.44922 227.385 2.2257 229.458 3.67363C230.355 4.4519 231.062 5.42541 231.524 6.51935C231.986 7.61329 232.191 8.79855 232.124 9.98408V19.0057C232.195 20.1907 231.992 21.3761 231.532 22.4704C231.071 23.5646 230.365 24.5383 229.468 25.3161C227.391 26.7644 224.92 27.5409 222.388 27.5409C219.856 27.5409 217.385 26.7644 215.308 25.3161C214.413 24.5369 213.708 23.563 213.247 22.4691C212.787 21.3752 212.583 20.1904 212.652 19.0057V9.98408ZM218.264 19.1366C218.235 19.6767 218.317 20.217 218.503 20.7248C218.69 21.2325 218.977 21.6972 219.348 22.0908C219.758 22.4672 220.238 22.7573 220.762 22.9436C221.286 23.13 221.842 23.2088 222.397 23.1752C222.955 23.2081 223.514 23.1291 224.041 22.9428C224.568 22.7566 225.052 22.4669 225.465 22.0908C225.839 21.6989 226.129 21.2347 226.317 20.7267C226.506 20.2187 226.588 19.6775 226.559 19.1366V9.85319C226.589 9.3121 226.507 8.77066 226.319 8.26246C226.131 7.75427 225.84 7.29017 225.465 6.89897C225.05 6.52628 224.565 6.2394 224.039 6.05488C223.512 5.87036 222.954 5.79184 222.397 5.82386C221.843 5.7907 221.288 5.86874 220.764 6.05338C220.241 6.23802 219.759 6.52552 219.348 6.89897C218.977 7.29221 218.689 7.75687 218.503 8.26471C218.316 8.77255 218.235 9.31298 218.264 9.85319V19.1366Z" fill="#43D14F"/>
<path d="M269 1.87012L263.342 27.2054H256.122L252.671 10.9291L249.248 27.2054H242.019L236.407 1.87012H242.318L246.246 21.5026L250.034 2.26277H255.318L259.161 21.5026L263.033 1.87012H269Z" fill="#43D14F"/>
<path d="M10.0537 10.0874L0.87912 19.2398C0.807176 19.3122 0.71534 19.3615 0.615291 19.3815C0.515242 19.4015 0.4115 19.3913 0.317257 19.3522C0.223015 19.3131 0.14253 19.2469 0.0860372 19.162C0.029545 19.077 -0.000402193 18.9772 4.07952e-06 18.8752V0.514188C4.07952e-06 0.377818 0.0541971 0.247033 0.150661 0.150605C0.247126 0.0541769 0.377959 4.078e-06 0.51438 4.078e-06H18.8542C18.9563 -0.000402043 19.0561 0.0295339 19.1411 0.0860052C19.226 0.142476 19.2923 0.222931 19.3314 0.317139C19.3705 0.411346 19.3807 0.51505 19.3607 0.615062C19.3406 0.715074 19.2913 0.806875 19.219 0.878792L10.0537 10.0874Z" fill="#43D14F"/>
<path d="M11.4194 18.4175L20.3321 27.2428C20.4687 27.3851 20.5614 27.5638 20.5992 27.7574C20.6371 27.951 20.6184 28.1514 20.5454 28.3347C20.4725 28.518 20.3484 28.6764 20.1878 28.7911C20.0273 28.9058 19.8371 28.972 19.64 28.9816H1.16926C1.06723 28.9821 0.967378 28.9521 0.882413 28.8956C0.797447 28.8392 0.731202 28.7587 0.692101 28.6645C0.653 28.5703 0.642811 28.4666 0.662829 28.3666C0.682846 28.2666 0.732166 28.1748 0.804517 28.1029L10.6992 18.4175C10.7954 18.3233 10.9247 18.2705 11.0593 18.2705C11.1939 18.2705 11.3232 18.3233 11.4194 18.4175Z" fill="#43D14F"/>
<path d="M16.3851 13.0888L24.4 4.357C24.4482 4.30306 24.5073 4.25991 24.5734 4.23036C24.6395 4.20082 24.711 4.18555 24.7834 4.18555C24.8558 4.18555 24.9274 4.20082 24.9935 4.23036C25.0595 4.25991 25.1186 4.30306 25.1669 4.357C26.233 5.60974 29.1696 9.34926 29.1696 14.1078C29.1475 17.3414 28.0299 20.4721 25.9992 22.9892C25.951 23.0431 25.8919 23.0863 25.8258 23.1158C25.7597 23.1454 25.6882 23.1606 25.6158 23.1606C25.5434 23.1606 25.4718 23.1454 25.4057 23.1158C25.3397 23.0863 25.2806 23.0431 25.2323 22.9892L16.3851 13.7339C16.3098 13.6432 16.2686 13.5291 16.2686 13.4113C16.2686 13.2935 16.3098 13.1794 16.3851 13.0888Z" fill="#43D14F"/>
</svg>
