<svg width="20" height="20" viewBox="0 0 20 20" fill="none" xmlns="http://www.w3.org/2000/svg">
<path fill-rule="evenodd" clip-rule="evenodd" d="M19.7094 1.69274C20.0969 1.3055 20.0969 0.677667 19.7094 0.290428C19.3219 -0.0968094 18.6937 -0.0968095 18.3063 0.290429L15.5 3.09506L12.6937 0.290429C12.3063 -0.0968088 11.6781 -0.0968088 11.2906 0.290429C10.9031 0.677667 10.9031 1.3055 11.2906 1.69274L14.0969 4.49737L11.2906 7.302C10.9031 7.68923 10.9031 8.31707 11.2906 8.70431C11.6781 9.09155 12.3063 9.09155 12.6937 8.70431L15.5 5.89968L18.3063 8.70431C18.6937 9.09155 19.3219 9.09155 19.7094 8.70431C20.0969 8.31707 20.0969 7.68923 19.7094 7.302L16.9031 4.49737L19.7094 1.69274Z" fill="#FB275D"/>
<path d="M18.7357 15.1871L18.7585 15.2052L18.7823 15.2219C18.8456 15.2663 18.8981 15.3241 18.9362 15.3912C18.9557 15.4255 18.9712 15.4619 18.9824 15.4994C18.9747 15.5142 18.965 15.5317 18.953 15.5521C18.8773 15.6803 18.7501 15.8527 18.5656 16.0636C18.1987 16.4831 17.6823 16.9679 17.1233 17.4347C16.5669 17.8993 15.9946 18.3243 15.5291 18.6273C15.2948 18.7798 15.1034 18.891 14.9643 18.9601C14.9363 18.974 14.9129 18.985 14.8938 18.9935C14.2549 18.9401 10.5901 18.4511 6.03223 13.9764C1.55106 9.41792 1.06026 5.75525 1.00658 5.11539C1.01507 5.0964 1.02597 5.07317 1.03975 5.04547C1.10887 4.90651 1.22017 4.71525 1.37277 4.48111C1.67593 4.01592 2.10112 3.44394 2.56605 2.8878C3.03313 2.32909 3.51819 1.81293 3.93793 1.44616C4.14901 1.26172 4.32155 1.13453 4.44988 1.05889C4.47048 1.04675 4.48813 1.037 4.50297 1.02923C4.54138 1.04063 4.57848 1.0564 4.61351 1.07631C4.68129 1.11485 4.7396 1.16794 4.78426 1.2317L4.80837 1.26613L4.83529 1.29841C4.8288 1.29063 4.84868 1.31908 4.88989 1.37806C5.06477 1.62837 5.62382 2.42855 6.18188 3.34241C6.52108 3.89788 6.83849 4.46108 7.05654 4.93582C7.16596 5.17406 7.23969 5.36718 7.28052 5.51143C7.2977 5.57213 7.30541 5.61166 7.30893 5.63328C7.2977 5.66619 7.27324 5.70902 7.20743 5.78351C7.07959 5.9282 6.88229 6.09685 6.50653 6.41216L6.50595 6.41265L6.49545 6.42147C6.37584 6.52198 6.09405 6.75876 5.88514 6.9505L5.41119 7.38551L5.61057 7.99716C5.74798 8.41866 5.91536 8.82981 6.11143 9.22745C7.10316 11.2621 8.74811 12.9059 10.7837 13.897C11.1814 14.0927 11.5926 14.2599 12.0141 14.3973L12.6254 14.5966L13.0604 14.123C13.2574 13.9086 13.502 13.6172 13.5962 13.5048C13.9127 13.1284 14.0823 12.9305 14.2275 12.8023C14.3082 12.7311 14.3519 12.7082 14.3857 12.6981C14.4058 12.7011 14.4456 12.7081 14.5087 12.7255C14.6513 12.7648 14.8429 12.8368 15.0799 12.9449C15.5523 13.1602 16.1127 13.4758 16.6664 13.8146C17.6785 14.4338 18.5718 15.0704 18.7157 15.173C18.7301 15.1833 18.737 15.1882 18.7357 15.1871ZM0.980215 5.18184C0.980094 5.18192 0.980813 5.17928 0.982733 5.17369C0.981296 5.17898 0.980337 5.18177 0.980215 5.18184Z" stroke="#FB275D" stroke-width="2"/>
</svg>
