<svg width="20" height="16" viewBox="0 0 20 16" fill="none" xmlns="http://www.w3.org/2000/svg">
<path fill-rule="evenodd" clip-rule="evenodd" d="M0.375 6.06054C0.375 4.95597 1.27043 4.06054 2.375 4.06054H5.23279C5.49917 4.06054 5.75453 3.95426 5.94226 3.76528L8.51027 1.18008C9.13926 0.54687 10.2197 0.992305 10.2197 1.88482V14.1545C10.2197 15.0278 9.17877 15.4815 8.53901 14.887L5.93678 12.4689C5.75179 12.297 5.5086 12.2014 5.25606 12.2014H2.375C1.27043 12.2014 0.375 11.306 0.375 10.2014V6.06054ZM13.8465 6.63854C13.4346 6.22386 13.4346 5.55153 13.8465 5.13685C14.2584 4.72217 14.9263 4.72217 15.3382 5.13685L16.5815 6.38852L17.8243 5.13737C18.2363 4.72269 18.9041 4.72269 19.3161 5.13737C19.728 5.55205 19.728 6.22438 19.316 6.63906L18.0732 7.8902L19.3161 9.14135C19.728 9.55604 19.728 10.2284 19.3161 10.643C18.9041 11.0577 18.2363 11.0577 17.8244 10.643L16.5815 9.39189L15.3382 10.6436C14.9263 11.0582 14.2584 11.0582 13.8465 10.6436C13.4346 10.2289 13.4346 9.55656 13.8465 9.14188L15.0898 7.8902L13.8465 6.63854Z" fill="white"/>
</svg>
