<svg width="22" height="48" viewBox="0 0 22 48" fill="none" xmlns="http://www.w3.org/2000/svg">
<path d="M9.98625 35C11.9193 35 13.4863 33.6569 13.4863 32H6.48633C6.48633 33.6569 8.05324 35 9.98625 35Z" fill="#86969E"/>
<path d="M15.8194 23.4309C12.8532 23.0073 10.5626 20.4566 10.5626 17.375C10.5626 16.4999 10.7497 15.6696 11.0813 14.9161C10.6334 14.8112 10.1679 14.75 9.68745 14.75C6.31007 14.75 3.5625 17.4974 3.5625 20.8749V23.3144C3.5625 25.046 2.80387 26.6806 1.47295 27.8058C1.13264 28.0963 0.9375 28.5207 0.9375 28.9686C0.9375 29.8131 1.62435 30.5 2.4687 30.5H16.9062C17.7507 30.5 18.4376 29.8131 18.4376 28.9686C18.4376 28.5207 18.2424 28.0963 17.8933 27.7979C16.6018 26.7051 15.8528 25.1186 15.8194 23.4309Z" fill="#86969E"/>
<path d="M21.0626 17.3751C21.0626 19.7913 19.1038 21.7499 16.6876 21.7499C14.2713 21.7499 12.3125 19.7913 12.3125 17.3751C12.3125 14.9588 14.2713 13 16.6876 13C19.1038 13 21.0626 14.9588 21.0626 17.3751Z" fill="#FB275D"/>
</svg>
