<svg width="18" height="18" viewBox="0 0 18 18" fill="none" xmlns="http://www.w3.org/2000/svg">
<path d="M11.4517 13.5C11.3584 13.9881 11.1304 14.4761 10.7573 14.8438C10.3723 15.2233 9.80821 15.5 9 15.5C8.19179 15.5 7.62772 15.2233 7.24267 14.8438C6.86956 14.4761 6.64156 13.9881 6.54833 13.5H11.4517Z" stroke="#86969E"/>
<path d="M4.57407 4.83946C4.57407 2.45836 6.59603 0.5 9 0.5C11.404 0.5 13.4259 2.45836 13.4259 4.83946V6.76694C13.4259 8.28244 14.0902 9.71306 15.2532 10.6967C15.4098 10.8309 15.5 11.0267 15.5 11.2345C15.5 11.6256 15.1811 11.9444 14.7902 11.9444H3.20983C2.81887 11.9444 2.5 11.6256 2.5 11.2345C2.5 11.0266 2.59022 10.8308 2.74694 10.6966C3.90984 9.71293 4.57407 8.28237 4.57407 6.76694V4.83946Z" stroke="#86969E"/>
</svg>
