<svg width="20" height="20" viewBox="0 0 20 20" fill="none" xmlns="http://www.w3.org/2000/svg">
<path fill-rule="evenodd" clip-rule="evenodd" d="M11.9998 1C11.9998 0.447715 12.4476 0 12.9998 0H18.9998C19.5521 0 19.9998 0.447715 19.9998 1V6.99964C19.9998 7.55192 19.5521 7.99964 18.9998 7.99964C18.4476 7.99964 17.9998 7.55192 17.9998 6.99964L17.9998 3.31265L12.1212 9.19106C11.7306 9.58157 11.0975 9.58157 10.707 9.19106C10.3164 8.80056 10.3164 8.16742 10.707 7.77692L16.4841 2H12.9998C12.4476 2 11.9998 1.55228 11.9998 1Z" fill="#43D14F"/>
<path d="M18.7355 15.184L18.7583 15.2021L18.7821 15.2188C18.8454 15.2632 18.898 15.3211 18.9361 15.3883C18.9557 15.4228 18.9712 15.4594 18.9825 15.4972C18.9747 15.512 18.965 15.5296 18.9529 15.5502C18.8772 15.6785 18.7499 15.851 18.5654 16.0621C18.1985 16.4818 17.6821 16.9669 17.1231 17.4339C16.5667 17.8988 15.9944 18.324 15.5289 18.6272C15.2946 18.7797 15.1032 18.891 14.9641 18.9602C14.9361 18.974 14.9128 18.985 14.8937 18.9935C14.2545 18.9401 10.59 18.4505 6.03241 13.9738C1.55054 9.41211 1.06015 5.7469 1.00656 5.10722C1.01508 5.08817 1.02601 5.06485 1.03985 5.03701C1.10899 4.89794 1.2203 4.70656 1.3729 4.47228C1.67608 4.00682 2.10129 3.4345 2.56622 2.87806C3.03331 2.31904 3.51838 1.80258 3.93813 1.43561C4.14921 1.25106 4.32176 1.12381 4.45009 1.04812C4.47061 1.03602 4.48821 1.0263 4.50301 1.01854C4.54133 1.02992 4.57835 1.04567 4.61331 1.06556C4.68107 1.10411 4.73941 1.15724 4.78411 1.2211L4.80822 1.25553L4.83512 1.28781C4.82864 1.28003 4.84851 1.30848 4.88969 1.36746C5.06454 1.61786 5.62364 2.41855 6.18176 3.33298C6.52096 3.88876 6.83839 4.45228 7.05645 4.92732C7.16588 5.16571 7.23963 5.35898 7.28048 5.50337C7.29774 5.56438 7.30545 5.60405 7.30896 5.62566C7.29773 5.65873 7.27326 5.70168 7.20725 5.77644C7.0794 5.92123 6.88208 6.08998 6.50633 6.40546L6.50575 6.40594L6.49523 6.41479C6.37561 6.51536 6.09384 6.75225 5.88494 6.94408L5.41133 7.37902L5.61052 7.99041C5.74792 8.41211 5.91529 8.82346 6.11136 9.22129C7.10301 11.2568 8.74787 12.9016 10.7835 13.8931C11.1812 14.089 11.5924 14.2563 12.0139 14.3937L12.6255 14.5932L13.0606 14.1193C13.2574 13.905 13.5017 13.6139 13.5961 13.5012C13.9128 13.1243 14.0825 12.9262 14.2277 12.7979C14.3084 12.7267 14.352 12.7037 14.3857 12.6937C14.4059 12.6967 14.4456 12.7037 14.5086 12.7211C14.6511 12.7604 14.8427 12.8324 15.0797 12.9405C15.5521 13.156 16.1125 13.4718 16.6662 13.8107C17.6783 14.4302 18.5716 15.0672 18.7155 15.1698C18.7299 15.1801 18.7368 15.185 18.7355 15.184ZM14.8274 19.0198C14.8276 19.0196 14.8304 19.0187 14.8356 19.0173C14.8299 19.0192 14.8273 19.0199 14.8274 19.0198ZM0.980262 5.17358C0.980142 5.17366 0.98086 5.17101 0.982777 5.16543C0.981341 5.17072 0.980382 5.17351 0.980262 5.17358Z" stroke="#43D14F" stroke-width="2"/>
</svg>
