<svg width="24" height="24" viewBox="0 0 24 24" fill="none" xmlns="http://www.w3.org/2000/svg">
<path d="M22.6068 18.0637L22.6296 18.0817L22.6534 18.0984C22.7536 18.1688 22.8369 18.2604 22.8973 18.3669C22.9418 18.4453 22.973 18.5303 22.99 18.6184C22.9778 18.647 22.9555 18.6941 22.9157 18.7615C22.8163 18.9301 22.6549 19.1475 22.4291 19.4059C21.9794 19.9203 21.3512 20.5098 20.6759 21.074C20.0032 21.6361 19.31 22.1513 18.7438 22.5201C18.4591 22.7055 18.2223 22.8435 18.0459 22.9312C17.9853 22.9613 17.939 22.9819 17.9058 22.9953C17.2483 22.9489 12.7288 22.442 7.09752 16.9097C1.55903 11.2729 1.05124 6.75243 1.00469 6.09429C1.01812 6.06114 1.03869 6.01489 1.06874 5.95444C1.15642 5.77806 1.29448 5.54128 1.47991 5.2566C1.84874 4.69033 2.36388 3.99716 2.926 3.32437C3.49027 2.649 4.07977 2.02072 4.59414 1.57101C4.85253 1.3451 5.06992 1.18374 5.23852 1.08431C5.30586 1.04459 5.35286 1.02225 5.38151 1.01002C5.47028 1.02718 5.55588 1.05874 5.63485 1.10367C5.74193 1.16458 5.83412 1.24854 5.90477 1.34947L5.92887 1.3839L5.95578 1.41618C5.95058 1.40995 5.96969 1.43723 6.00898 1.49333C6.20437 1.7723 6.89901 2.76409 7.58881 3.89435C7.9975 4.564 8.38304 5.24793 8.6495 5.8284C8.78313 6.11951 8.87614 6.36176 8.92902 6.5487C8.96685 6.68243 8.97246 6.74801 8.97416 6.7625C8.95605 6.84605 8.91923 6.9267 8.7986 7.06331C8.63301 7.25084 8.3826 7.46413 7.93618 7.83895L7.9356 7.83944L7.92363 7.8495C7.77987 7.97037 7.44454 8.25232 7.1972 8.47947L6.72361 8.91439L6.92279 9.52576C7.08474 10.0229 7.28204 10.5078 7.51317 10.9767C8.68361 13.3796 10.6252 15.3212 13.0281 16.4917C13.497 16.7226 13.9818 16.9198 14.4787 17.0819L15.0903 17.2814L15.5254 16.8075C15.7579 16.5542 16.0482 16.2084 16.1619 16.0726C16.5384 15.6245 16.7528 15.3731 16.9409 15.207C17.0837 15.0809 17.1651 15.0464 17.2517 15.0292C17.2617 15.0305 17.3259 15.0341 17.4634 15.0719C17.6485 15.123 17.889 15.214 18.1787 15.3462C18.7563 15.6096 19.4367 15.9933 20.1039 16.4018C21.3574 17.1691 22.4625 17.9604 22.5938 18.0544C22.603 18.0609 22.6074 18.0641 22.6068 18.0637ZM17.851 23.0149C17.8511 23.0148 17.8538 23.0139 17.8589 23.0127C17.8535 23.0144 17.8509 23.015 17.851 23.0149ZM0.985077 6.14926C0.984961 6.14933 0.985586 6.14676 0.9873 6.14134C0.98605 6.14648 0.985193 6.14919 0.985077 6.14926Z" stroke="#43D14F" stroke-width="2"/>
</svg>
