<svg width="15" height="19" viewBox="0 0 15 19" fill="none" xmlns="http://www.w3.org/2000/svg">
<path d="M8.82048 0.896221C8.797 0.950457 7.32626 4.82535 7.73315 5.67175C7.92245 6.0771 8.27788 6.24265 8.98972 6.57523C9.1046 6.62865 9.37994 6.75718 9.57911 6.8611C9.56115 7.19663 9.51929 7.53045 9.45385 7.86003C9.12492 9.55875 8.23611 11.0982 6.92944 12.2324C6.67681 12.454 6.40864 12.6571 6.12698 12.8404C5.9367 12.7195 5.68772 12.5453 5.58125 12.4709C4.94076 12.0227 4.61954 11.7971 4.17275 11.8361C3.24759 11.9186 0.604401 15.1341 0.58152 15.1665C0.458336 15.3133 0.369317 15.4856 0.3209 15.671C0.272484 15.8564 0.265882 16.0502 0.301575 16.2385C0.555633 17.1866 4.79265 18.9527 5.38403 18.7942C5.4184 18.785 8.89877 17.7992 12.1268 12.3168C15.257 6.78573 14.3706 3.27929 14.3614 3.24492C14.2028 2.653 10.555 -0.132794 9.60684 0.121264C9.42657 0.184158 9.26251 0.286302 9.12652 0.42032C8.99053 0.554338 8.886 0.716885 8.82048 0.896221Z" fill="white"/>
</svg>
