<svg width="20" height="20" viewBox="0 0 20 20" fill="none" xmlns="http://www.w3.org/2000/svg">
<path fill-rule="evenodd" clip-rule="evenodd" d="M10.0616 0.766557C9.11723 0.766557 8.34655 1.5321 8.34025 2.47645L8.30154 8.27876L2.47644 8.23989C1.53209 8.23359 0.766547 8.99404 0.766546 9.93841C0.766547 10.8828 1.53209 11.6535 2.47644 11.6598L8.27872 11.6985L8.23985 17.5235C8.23355 18.4679 8.994 19.2334 9.93837 19.2334C10.8827 19.2334 11.6534 18.4679 11.6597 17.5235L11.6984 11.7213L17.5235 11.7602C18.4679 11.7665 19.2334 11.006 19.2334 10.0616C19.2334 9.11727 18.4679 8.3466 17.5235 8.3403L11.7213 8.30158L11.7601 2.47645C11.7664 1.5321 11.006 0.766557 10.0616 0.766557Z" fill="#43D14F"/>
</svg>
