<svg width="332" height="69" viewBox="0 0 332 69" fill="none" xmlns="http://www.w3.org/2000/svg">
<path fill-rule="evenodd" clip-rule="evenodd" d="M314.266 41.8062C314.264 41.7838 314.261 41.7581 314.258 41.7289C314.322 42.0999 314.306 42.1768 314.266 41.8062ZM307.076 10.5156C307.348 11.2635 307.553 11.9934 307.708 12.6764C307.792 12.622 307.876 12.5678 307.961 12.5139C314.955 8.07343 324.224 10.1432 328.664 17.1369C332.966 23.9128 331.158 32.8247 324.68 37.4116C324.503 37.6838 324.281 38.0528 323.871 38.7505L323.798 38.8741C323.388 39.5699 322.778 40.6079 322.075 41.6761C321.06 43.2207 317.93 47.0281 315.854 49.4944C314.642 50.9343 313.338 52.4507 312.261 53.6307C311.771 54.1673 311.081 54.9072 310.371 55.5727L310.361 55.5823C310.11 55.8174 309.26 56.6144 308.108 57.3814L308.079 57.4005C307.669 57.6747 305.865 58.8791 303.257 59.5152C301.868 59.8541 298.839 60.3907 295.224 59.268C290.927 57.9332 287.697 54.8442 286.015 51.1655C285.625 50.3126 285.331 49.4538 285.11 48.6582C282.164 47.4485 280.028 45.4668 278.601 43.4943C276.453 45.2794 274.351 47.0699 272.296 48.8816L272.288 48.8929L272.287 48.8933C272.007 49.2705 271.265 50.2698 270.672 50.991L270.615 51.0605C270.099 51.6927 267.984 54.2865 264.668 55.9823C262.617 57.0313 258.759 58.4299 254.005 57.3628C249.055 56.2517 245.984 53.1211 244.385 50.7534C243.703 49.7431 243.151 48.7156 242.702 47.7126C242.496 48.0255 242.272 48.3706 242.019 48.7592C241.957 48.8551 241.89 48.9589 241.818 49.0696L241.808 49.0857C240.971 50.3806 239.527 52.6131 238.05 54.3731C237.352 55.2041 235.588 57.2538 232.905 58.8189C231.459 59.6623 228.933 60.8493 225.59 61.0193C221.856 61.2091 218.185 60.0633 215.215 57.7708C212.512 55.685 210.985 53.1283 210.117 51.054C209.063 52.2244 207.992 53.4115 206.899 54.6167C206.903 54.6117 206.9 54.6161 206.885 54.6327L206.884 54.6337C206.865 54.6561 206.826 54.6995 206.765 54.7703C206.704 54.84 206.62 54.9361 206.508 55.0648C206.361 55.2345 206.226 55.3901 206.078 55.5611L206.065 55.576C205.902 55.7646 205.722 55.9729 205.49 56.2398C204.695 57.157 203.675 58.3277 202.662 59.4584C201.706 60.5265 200.54 61.8026 199.508 62.8205C199.115 63.2076 198.165 64.1396 197.005 64.9878L196.973 65.0119C196.65 65.2531 194.633 66.7589 191.723 67.5232C190.244 67.9116 185.713 68.8762 180.787 66.249C175.033 63.1803 173.324 57.8187 172.943 54.9141C172.5 51.5396 172.301 48.1669 172.249 44.883C171.062 45.9606 169.673 47.1961 168.268 48.3841C166.563 49.8255 164.036 51.8879 161.621 53.31C160.953 53.7037 159.976 54.2398 158.798 54.7135C157.879 55.083 155.501 55.9805 152.405 55.9392C149.08 55.8948 143.983 54.6047 140.462 50.0422C137.558 51.6767 134.682 53.3736 131.81 55.1392C131.647 55.2397 131.449 55.3628 131.227 55.5009L131.222 55.5039L131.221 55.5044C130.362 56.0391 129.146 56.7953 128.19 57.3228C127.508 57.6986 126.375 58.294 124.998 58.7918C123.733 59.2493 121.153 60.0429 117.897 59.7785C114.057 59.4667 110.332 57.763 107.538 54.7425C107.232 54.4114 106.949 54.0775 106.688 53.7438C104.821 55.8459 103.132 57.9015 101.618 60.0172C96.797 66.7543 87.4274 68.3078 80.6903 63.487C77.8823 61.4777 75.9747 58.6782 75.0539 55.6084C72.0878 54.989 68.638 53.4038 66.0439 50.0424C63.1399 51.677 60.2636 53.3739 57.3922 55.1394C57.2281 55.2403 57.0292 55.3641 56.8062 55.5028L56.8041 55.5041L56.8039 55.5042C55.9444 56.0389 54.7285 56.7954 53.7717 57.3231C53.0904 57.6988 51.957 58.2943 50.58 58.792C49.3146 59.2495 46.7353 60.0432 43.4791 59.7787C39.6389 59.4669 35.914 57.7632 33.1203 54.7428C32.8141 54.4117 32.5311 54.0777 32.2696 53.744C30.4026 55.8462 28.7137 57.9018 27.1998 60.0174C22.379 66.7545 13.0094 68.308 6.27231 63.4872C-0.464825 58.6664 -2.01831 49.2968 2.8025 42.5597C7.69101 35.7279 13.6625 29.5943 18.7052 24.4147L18.7054 24.4146C19.1164 23.9923 19.5213 23.5764 19.919 23.167C25.5645 17.3543 29.9884 12.617 33.1695 7.67969C33.4251 7.28309 33.8487 6.65307 34.4204 5.95996L34.4289 5.9496C34.7921 5.50927 36.1766 3.83028 38.4949 2.45668C39.7317 1.72386 42.1951 0.497297 45.5665 0.356136C49.4499 0.193533 53.2784 1.53912 56.2217 4.16621C58.7807 6.45028 59.9105 9.01216 60.4001 10.3951C60.9216 11.8683 61.1074 13.1213 61.1866 13.8471C61.432 16.0981 61.1041 18.02 61.0416 18.3863L61.0347 18.4273C61.0184 18.5264 61.0016 18.6242 60.9845 18.7204C63.8436 17.2625 66.7509 15.8465 69.7204 14.4698C70.0621 14.3114 70.4527 14.1333 70.8141 13.9685L70.8148 13.9682L71.0792 13.8476C71.537 13.6386 71.9771 13.4367 72.4031 13.2367C72.5448 13.1702 72.6771 13.1075 72.8002 13.0486C73.6577 12.3237 74.9247 11.4033 76.541 10.6695C78.1674 9.93107 80.41 9.25331 83.1067 9.28304C85.8826 9.31365 88.4124 10.088 90.5197 11.2773C93.046 12.7031 94.7571 14.5147 95.9156 16.3522C97.0957 16.7429 98.2329 17.2819 99.297 17.9655C102.64 14.3567 105.406 11.0651 107.588 7.67945C107.843 7.28285 108.267 6.65283 108.838 5.95972L108.847 5.94936C109.21 5.50902 110.595 3.83003 112.913 2.45644C114.15 1.72362 116.613 0.497057 119.984 0.355896C123.868 0.193293 127.696 1.53888 130.64 4.16597C133.199 6.45004 134.328 9.01192 134.818 10.3949C135.34 11.8681 135.525 13.1211 135.605 13.8469C135.85 16.0979 135.522 18.0198 135.46 18.3861L135.453 18.4271C135.436 18.5261 135.42 18.624 135.402 18.7202C138.262 17.2622 141.169 15.8462 144.138 14.4696C144.48 14.3111 144.871 14.1328 145.233 13.9679L145.497 13.8473C145.955 13.6383 146.395 13.4364 146.821 13.2365C146.963 13.1699 147.095 13.1073 147.218 13.0484C148.076 12.3235 149.343 11.4031 150.959 10.6692C152.585 9.93083 154.828 9.25307 157.525 9.2828C160.301 9.31341 162.83 10.0877 164.938 11.277L164.991 11.3072C165.504 10.8873 166.028 10.4653 166.558 10.0456C169.096 8.03846 172.212 5.75089 175.425 3.96908C177.038 3.07504 179.033 2.10585 181.261 1.40563C183.354 0.747982 186.689 -0.00775433 190.559 0.58783C199.931 2.03039 202.667 10.2295 203.038 11.3747C203.333 12.2847 203.532 13.1629 203.667 13.9531C204.123 13.4959 204.581 13.0406 205.042 12.5875C205 12.6282 204.823 12.7886 206.25 11.2197C207.124 10.2584 208.562 8.71283 210.18 7.31675C210.983 6.6236 212.171 5.66876 213.634 4.8029C214.808 4.10794 217.737 2.4976 221.721 2.32308C227.005 2.09158 232.486 4.50904 235.755 9.57048C235.921 9.82783 236.077 10.0854 236.224 10.3424C239.459 7.52373 243.021 4.89948 246.837 2.88005C250.762 0.803506 257.111 -0.302201 263.022 3.61524C267.404 6.51944 268.98 10.6624 269.462 12.0352C269.484 12.098 269.505 12.1609 269.527 12.2237L269.638 12.1241C269.864 11.92 270.066 11.7362 270.305 11.5186L270.313 11.5117C270.519 11.3244 270.752 11.1119 271.053 10.8399C272.183 9.81576 273.74 8.4254 275.451 7.05789C277.092 5.7467 279.307 4.10405 281.788 2.77687C283.728 1.73938 288.449 -0.585845 294.26 0.137593C303.359 1.27032 306.482 8.88197 307.076 10.5156ZM272.559 48.5367C272.599 48.4895 272.62 48.4626 272.621 48.4611C272.621 48.4603 272.616 48.4666 272.604 48.4807C272.594 48.4932 272.579 48.5117 272.559 48.5367ZM240.743 20.3678C240.731 20.2835 240.728 20.2375 240.729 20.2356C240.73 20.2337 240.736 20.2758 240.743 20.3678ZM270.498 36.6568L270.498 36.658C270.498 36.6578 270.498 36.653 270.496 36.6439C270.497 36.6506 270.498 36.6549 270.498 36.6568ZM178.345 41.5533C178.346 41.5517 178.372 41.5266 178.42 41.4827C178.368 41.533 178.344 41.555 178.345 41.5533ZM132.919 41.2694C132.919 41.2701 132.917 41.2513 132.914 41.2108C132.918 41.2485 132.919 41.2687 132.919 41.2694ZM58.5009 41.2697C58.5007 41.2704 58.4987 41.2515 58.4959 41.2111C58.4998 41.2488 58.5012 41.269 58.5009 41.2697ZM31.4857 13.2726C31.4858 13.2725 31.4846 13.2779 31.482 13.2894L31.4857 13.2726Z" fill="#43D14F"/>
</svg>
