<svg width="35" height="27" viewBox="0 0 35 27" fill="none" xmlns="http://www.w3.org/2000/svg">
<path d="M7.2 26.6C5.06667 26.6 3.33333 25.8667 2 24.4C0.666667 22.8667 0 20.9 0 18.5C0 14.4333 1.23333 10.7667 3.7 7.5C6.16667 4.16666 9.96667 1.66667 15.1 0L16.3 2.9C11.1 4.76666 8.13333 7.86667 7.4 12.2C9.46667 12.4 11.1333 13.1333 12.4 14.4C13.7333 15.6667 14.4 17.3333 14.4 19.4C14.4 21.5333 13.7333 23.2667 12.4 24.6C11.0667 25.9333 9.33333 26.6 7.2 26.6ZM25.2 26.6C23.0667 26.6 21.3333 25.8667 20 24.4C18.6667 22.8667 18 20.9 18 18.5C18 14.4333 19.2333 10.7667 21.7 7.5C24.1667 4.16666 27.9667 1.66667 33.1 0L34.3 2.9C29.1 4.76666 26.1333 7.86667 25.4 12.2C27.4667 12.4 29.1333 13.1333 30.4 14.4C31.7333 15.6667 32.4 17.3333 32.4 19.4C32.4 21.5333 31.7333 23.2667 30.4 24.6C29.0667 25.9333 27.3333 26.6 25.2 26.6Z" fill="white"/>
</svg>
