<svg width="16" height="16" viewBox="0 0 16 16" fill="none" xmlns="http://www.w3.org/2000/svg">
<path fill-rule="evenodd" clip-rule="evenodd" d="M0.888672 7.15183C0.888672 3.69842 3.69842 0.888672 7.15183 0.888672C10.6054 0.888672 13.415 3.69842 13.415 7.15183C13.415 8.67092 12.8714 10.0654 11.9686 11.151L14.9416 14.124C15.1675 14.3497 15.1675 14.7158 14.9416 14.9415C14.8287 15.0544 14.6807 15.1109 14.5329 15.1109C14.3849 15.1109 14.237 15.0544 14.1241 14.9415L11.1511 11.9685C10.0655 12.8714 8.67097 13.415 7.15183 13.415C3.69842 13.415 0.888672 10.6054 0.888672 7.15183ZM2.04495 7.15186C2.04495 9.96778 4.33592 12.2587 7.15183 12.2587C9.96775 12.2587 12.2587 9.96775 12.2587 7.15183C12.2587 4.33592 9.96775 2.04495 7.15183 2.04495C4.33592 2.04495 2.04495 4.33595 2.04495 7.15186Z" fill="#43D14F" stroke="#43D14F" stroke-width="1.5"/>
</svg>
