<svg width="32" height="32" viewBox="0 0 32 32" fill="none" xmlns="http://www.w3.org/2000/svg">
<path d="M2.3999 10.3996C2.3999 7.74865 4.54894 5.59961 7.1999 5.59961H26.3999C29.0509 5.59961 31.1999 7.74864 31.1999 10.3996V22.0354C31.1999 25.7097 28.1132 28.6295 24.4445 28.4255L2.3999 27.1996V10.3996Z" fill="#43D14F" fill-opacity="0.8"/>
<rect x="0.8" y="3.99922" width="30.4" height="24" rx="5.6" stroke="#031F88" stroke-width="1.6"/>
<mask id="path-3-inside-1" fill="white">
<path fill-rule="evenodd" clip-rule="evenodd" d="M31.5035 24.8751C30.5355 27.1802 28.2568 28.799 25.6 28.799H6.40004C3.86528 28.799 1.67469 27.3255 0.638184 25.1882L11.7019 14.1245C14.2013 11.6252 18.2535 11.6252 20.7529 14.1245L31.5035 24.8751Z"/>
</mask>
<path d="M31.5035 24.8751L32.9787 25.4946L33.3948 24.5037L32.6348 23.7437L31.5035 24.8751ZM0.638184 25.1882L-0.493187 24.0569L-1.29829 24.862L-0.801447 25.8864L0.638184 25.1882ZM11.7019 14.1245L10.5705 12.9931L11.7019 14.1245ZM20.7529 14.1245L19.6215 15.2559L20.7529 14.1245ZM30.0283 24.2556C29.3009 25.9876 27.5901 27.199 25.6 27.199V30.399C28.9235 30.399 31.77 28.3728 32.9787 25.4946L30.0283 24.2556ZM25.6 27.199H6.40004V30.399H25.6V27.199ZM6.40004 27.199C4.50135 27.199 2.85703 26.0968 2.07781 24.4901L-0.801447 25.8864C0.49234 28.5542 3.22921 30.399 6.40004 30.399V27.199ZM1.76955 26.3196L12.8333 15.2559L10.5705 12.9931L-0.493187 24.0569L1.76955 26.3196ZM12.8333 15.2559C14.7078 13.3814 17.747 13.3814 19.6215 15.2559L21.8842 12.9931C18.76 9.86895 13.6947 9.86895 10.5705 12.9931L12.8333 15.2559ZM19.6215 15.2559L30.3721 26.0065L32.6348 23.7437L21.8842 12.9931L19.6215 15.2559Z" fill="#031F88" mask="url(#path-3-inside-1)"/>
<path d="M8 11.1992H24L17.6 18.3992H14.4L8 11.1992Z" fill="#64D56D"/>
<mask id="path-6-inside-2" fill="white">
<path fill-rule="evenodd" clip-rule="evenodd" d="M30.9462 6.0797L18.2627 18.7632C17.013 20.0129 14.9869 20.0129 13.7372 18.7632L1.05371 6.0797C2.19845 4.34432 4.16547 3.19922 6.39993 3.19922H25.5999C27.8344 3.19922 29.8014 4.34432 30.9462 6.0797Z"/>
</mask>
<path d="M30.9462 6.0797L32.0775 7.21107L33.0004 6.28817L32.2817 5.19868L30.9462 6.0797ZM18.2627 18.7632L19.394 19.8946L18.2627 18.7632ZM13.7372 18.7632L12.6058 19.8946L13.7372 18.7632ZM1.05371 6.0797L-0.28188 5.19868L-1.00056 6.28817L-0.07766 7.21107L1.05371 6.0797ZM29.8148 4.94833L17.1313 17.6318L19.394 19.8946L32.0775 7.21107L29.8148 4.94833ZM17.1313 17.6318C16.5065 18.2567 15.4934 18.2567 14.8686 17.6318L12.6058 19.8946C14.4803 21.7691 17.5195 21.7691 19.394 19.8946L17.1313 17.6318ZM14.8686 17.6318L2.18508 4.94833L-0.07766 7.21107L12.6058 19.8946L14.8686 17.6318ZM2.3893 6.96072C3.25054 5.65512 4.72567 4.79922 6.39993 4.79922V1.59922C3.60527 1.59922 1.14637 3.03352 -0.28188 5.19868L2.3893 6.96072ZM6.39993 4.79922H25.5999V1.59922H6.39993V4.79922ZM25.5999 4.79922C27.2742 4.79922 28.7493 5.65512 29.6106 6.96072L32.2817 5.19868C30.8535 3.03352 28.3946 1.59922 25.5999 1.59922V4.79922Z" fill="#031F88" mask="url(#path-6-inside-2)"/>
</svg>
