<svg width="28" height="28" viewBox="0 0 28 28" fill="none" xmlns="http://www.w3.org/2000/svg">
<path d="M27.3784 11.5639L24.1666 10.774C23.9736 10.1652 23.7252 9.5748 23.4256 9.01004C23.9078 8.20734 24.9213 6.51787 24.9213 6.51787C25.1151 6.19505 25.0638 5.78167 24.7979 5.51573L22.4779 3.19577C22.212 2.92901 21.7994 2.87777 21.4758 3.0724L18.9796 4.56805C18.418 4.27082 17.8308 4.02489 17.226 3.83343L16.4362 0.621688C16.3448 0.256375 16.0171 0 15.6406 0H12.3594C11.9829 0 11.6544 0.256375 11.5639 0.621633C11.5639 0.621633 11.0167 2.86327 10.7748 3.83261C10.1299 4.03687 9.50671 4.30205 8.91308 4.62569L6.32477 3.0724C6.00113 2.88012 5.58939 2.92983 5.32263 3.19577L3.00267 5.51573C2.73673 5.78167 2.68543 6.19505 2.8793 6.51787L4.47989 9.19111C4.22193 9.69981 4.00564 10.2293 3.83343 10.7716L0.621688 11.5639C0.256375 11.6552 0 11.9829 0 12.3594V15.6406C0 16.0171 0.256375 16.3456 0.621633 16.4361L3.8342 17.226C4.02888 17.8436 4.28198 18.4436 4.58883 19.0196L3.15651 21.4068C2.96264 21.7296 3.01394 22.143 3.27988 22.409L5.59984 24.7289C5.86502 24.9941 6.27834 25.0445 6.60198 24.8523C6.60198 24.8523 8.20816 23.8894 8.99484 23.4183C9.56441 23.722 10.1604 23.9727 10.7749 24.1673L11.5639 27.3783C11.6544 27.7437 11.9829 28 12.3594 28H15.6406C16.0171 28 16.3448 27.7436 16.4361 27.3784L17.2252 24.1674C17.8573 23.9671 18.4661 23.7083 19.0452 23.3943C19.8535 23.879 21.4757 24.8523 21.4757 24.8523C21.7985 25.0453 22.2119 24.9957 22.4779 24.7289L24.7978 22.409C25.0638 22.143 25.1151 21.7296 24.9212 21.4068L23.4464 18.9499C23.7372 18.3979 23.9783 17.8204 24.1666 17.226L27.3783 16.4361C27.7437 16.3448 28 16.0171 28 15.6406V12.3594C28 11.9829 27.7437 11.6552 27.3784 11.5639ZM14 19.7422C10.8341 19.7422 8.25781 17.1659 8.25781 14C8.25781 10.8341 10.8341 8.25781 14 8.25781C17.1659 8.25781 19.7422 10.8341 19.7422 14C19.7422 17.1659 17.1659 19.7422 14 19.7422Z" fill="#86969E"/>
</svg>
