<svg width="28" height="28" viewBox="0 0 28 28" fill="none" xmlns="http://www.w3.org/2000/svg">
<path fill-rule="evenodd" clip-rule="evenodd" d="M0 14C0 6.28027 6.28027 0 14 0C21.7198 0 28 6.28027 28 14C28 21.7197 21.7198 28 14 28C6.28027 28 0 21.7198 0 14ZM18.596 9.81812C19.1818 9.23233 20.1315 9.23233 20.7173 9.81812C21.3031 10.4039 21.3031 11.3537 20.7173 11.9394L12.9391 19.7176C12.3533 20.3034 11.4036 20.3034 10.8178 19.7176L7.28226 16.1821C6.69647 15.5963 6.69647 14.6465 7.28226 14.0608C7.86805 13.475 8.81779 13.475 9.40358 14.0608L11.8785 16.5356L18.596 9.81812Z" fill="#86969E"/>
</svg>
