<svg width="32" height="32" viewBox="0 0 32 32" fill="none" xmlns="http://www.w3.org/2000/svg">
<path d="M2.40015 8.56611C2.40015 5.91514 4.54918 3.76611 7.20015 3.76611H26.4001C29.0511 3.76611 31.2001 5.91515 31.2001 8.56611V19.5522C31.2001 23.0868 28.3348 25.9522 24.8001 25.9522H20.2403C19.7302 25.9522 19.2507 26.1954 18.9494 26.607L17.1946 29.0038C16.5848 29.8367 15.3575 29.8827 14.687 29.0978L12.3917 26.4105C12.1394 26.1151 11.7882 25.9216 11.4036 25.8661L2.40015 24.5666V8.56611Z" fill="#43D14F" fill-opacity="0.8"/>
<rect x="4.80005" y="9.6001" width="17.6" height="1.6" rx="0.8" fill="#031F88"/>
<rect x="4.80005" y="14.4009" width="12.8" height="1.6" rx="0.8" fill="#031F88"/>
<path d="M0.8 7.76572C0.8 4.67293 3.30721 2.16572 6.4 2.16572H25.6C28.6928 2.16572 31.2 4.67293 31.2 7.76572V19.5515C31.2 22.6443 28.6928 25.1515 25.6 25.1515H20.2401C19.475 25.1515 18.7557 25.5164 18.3037 26.1338L16.5489 28.5305C16.244 28.947 15.6303 28.97 15.2951 28.5775L13.0873 25.9928C12.6314 25.4589 11.9645 25.1515 11.2624 25.1515H6.4C3.30721 25.1515 0.8 22.6443 0.8 19.5515V7.76572Z" stroke="#031F88" stroke-width="1.6"/>
</svg>
