<svg width="290" height="504" viewBox="0 0 290 504" fill="none" xmlns="http://www.w3.org/2000/svg">
<path d="M42.3516 372.205L42.3516 351.528L16.8093 351.528L16.8093 368.758L42.3516 372.205Z" fill="#F6B192"/>
<path d="M25.9312 369.772C25.4733 366.574 20.4375 366.979 18.6351 364.299C16.8327 361.618 24.7152 360.65 24.7152 355.785C24.7152 347.855 19.3959 348.486 15.593 348.484C10.5697 348.482 4.86166 348.483 2.32961 348.484C1.60202 348.484 1.01957 349.079 1.04406 349.806C1.18438 353.973 1.60556 366.731 1.60556 369.772C1.60556 375.245 0.999184 395.195 0.999184 397.138C0.999184 403.22 11.3377 403.22 11.9459 397.138C13.77 378.895 26.3892 372.97 25.9312 369.772Z" fill="#3962FA"/>
<path d="M16.2012 383.151L11.9441 380.719" stroke="white" stroke-width="1.28631"/>
<path d="M19.2405 378.895L14.3753 375.854M22.2813 374.637L16.8079 370.989" stroke="white" stroke-width="1.28631"/>
<circle r="1.2163" transform="matrix(4.37114e-08 -1 -1 -4.37114e-08 11.9439 380.719)" fill="black"/>
<circle r="1.2163" transform="matrix(4.37114e-08 -1 -1 -4.37114e-08 14.3755 375.854)" fill="black"/>
<circle r="1.2163" transform="matrix(4.37114e-08 -1 -1 -4.37114e-08 16.8091 370.989)" fill="black"/>
<path d="M14.377 387.409L9.51177 385.585" stroke="white" stroke-width="1.28631"/>
<circle r="1.2163" transform="matrix(4.37114e-08 -1 -1 -4.37114e-08 9.51222 385.584)" fill="black"/>
<path d="M163.718 358.843C184.734 343.769 115.902 221.254 115.902 221.254L83.3453 274.687C83.3453 274.687 119.427 325.056 113.612 327.18C88.8466 336.224 72.3366 336.978 56.5771 336.978C40.1233 336.978 31.8121 340.747 31.8121 340.747L31.8121 382.955C31.8121 382.955 145.024 372.252 163.718 358.843Z" fill="#9EDFAC"/>
<path d="M81.6348 462.414H60.9577V487.956H78.1886L81.6348 462.414Z" fill="#F6B192"/>
<path d="M79.2031 478.834C76.0054 479.292 76.4105 484.328 73.7298 486.131C71.049 487.933 70.0809 480.05 65.2157 480.05C57.2864 480.05 57.9167 485.37 57.9153 489.173C57.9135 494.196 57.9144 499.904 57.915 502.436C57.9151 503.164 58.5103 503.746 59.2375 503.722C63.4037 503.581 76.162 503.16 79.2031 503.16C84.6764 503.16 104.626 503.766 106.569 503.766C112.652 503.766 112.651 493.428 106.569 492.82C88.3266 490.996 82.4008 478.376 79.2031 478.834Z" fill="#3962FA"/>
<path d="M92.582 488.564L90.1494 492.821" stroke="white" stroke-width="1.28631"/>
<path d="M88.3242 485.524L85.2835 490.389M84.0672 482.483L80.4183 487.956" stroke="white" stroke-width="1.28631"/>
<circle r="1.2163" transform="matrix(-1 0 0 1 90.1489 492.821)" fill="black"/>
<circle r="1.2163" transform="matrix(-1 0 0 1 85.2857 490.389)" fill="black"/>
<circle r="1.2163" transform="matrix(-1 0 0 1 80.4185 487.956)" fill="black"/>
<path d="M96.8398 490.389L95.0154 495.254" stroke="white" stroke-width="1.28631"/>
<circle r="1.2163" transform="matrix(-1 0 0 1 95.0161 495.254)" fill="black"/>
<path d="M149.84 102.888C138.172 88.5481 121.16 86.0387 121.16 86.0387C121.16 86.0387 114.037 103.28 96.5511 102.171C73.9445 100.737 68.7772 82.0952 68.7772 82.0952C68.7772 82.0952 47.6946 87.8102 38.3475 100.737C33.0762 108.027 26.7231 118.335 22.9321 129.058L33.3285 129.775C29.0311 145.629 47.413 191.477 47.413 191.477L131.556 177.814L132.632 149.851L150.557 122.605L160.953 117.586C158.539 113.04 154.452 108.556 149.84 102.888Z" fill="#EFF2F9"/>
<path d="M91.4073 47.6802L85.3129 59.869C85.3129 59.869 84.2878 66.9286 82.8034 69.9069C81.3793 72.7642 80.221 74.4867 77.7844 76.7183C74.3216 79.89 67.0296 82.0958 67.0296 82.0958C67.0296 82.0958 72.4268 101.517 93.1998 102.53C122.596 103.964 121.162 85.6807 121.162 85.6807L109.332 81.3788V73.4919C96.8635 72.0915 92.8413 68.1144 91.4073 62.737C89.9733 57.3596 91.4073 47.6802 91.4073 47.6802Z" fill="#F6B192"/>
<path d="M95.3507 70.2651L109.332 72.4161V79.9445C109.332 79.9445 104.053 78.3552 100.37 76.7181C94.6337 74.1688 95.3507 70.2651 95.3507 70.2651Z" fill="#F18E73"/>
<path d="M86.1198 15.6499C90.8996 9.54173 98.8215 15.0681 109.355 16.3964C119.888 17.7247 125.501 10.1722 129.876 16.2147C134.251 22.2573 124.033 29.038 124.033 29.038C124.033 29.038 127.618 30.7193 127.618 34.4154C127.618 40.1513 121.165 49.1138 121.165 49.1138C121.165 49.1138 121.608 62.0124 117.575 67.7027C109.411 79.2206 92.1269 74.567 84.7346 62.9144C81.9997 58.6033 83.0443 51.2828 84.1012 46.7138C84.7315 43.989 85.5342 40.6263 83.2722 38.9815C83.2183 38.9424 83.163 38.9043 83.1062 38.8676C81.2449 37.6628 79.9436 37.2201 79.2211 35.8495C77.1518 31.9238 76.8523 27.8375 78.5041 24.7361C80.0391 21.854 83.523 21.5096 83.523 21.5096C83.523 21.5096 83.8502 18.5503 86.1198 15.6499Z" fill="#F7B293"/>
<path d="M74.2691 38.1196C77.5493 35.4524 84.2481 37.7433 85.1323 40.6976C86.0165 43.6519 82.0816 54.0516 82.0816 54.0516C82.0816 54.0516 76.4137 54.0079 73.0387 50.5806C69.6637 47.1534 70.989 40.7869 74.2691 38.1196Z" fill="#F7B293"/>
<line x1="78.0804" y1="42.2035" x2="82.1032" y2="47.7139" stroke="#F59C7F" stroke-width="1.92947" stroke-linecap="round"/>
<path d="M75.5366 46.4707C77.8162 46.4052 79.8947 47.6094 82.0089 48.7215" stroke="#F59C7F" stroke-width="1.92947" stroke-linecap="round"/>
<path d="M122.602 44.0479C122.602 43.6422 122.358 43.2745 121.982 43.1231C119.914 42.2916 118.419 41.9106 116.23 41.6863C115.606 41.6224 115.073 42.1196 115.073 42.7462C115.073 43.3064 115.503 43.771 116.06 43.8316C118.032 44.0465 119.439 44.3735 121.215 45.0061C121.885 45.2447 122.602 44.7591 122.602 44.0479Z" fill="#3E1908"/>
<path d="M108.708 41.7628C109.037 41.1044 108.704 40.3047 108 40.0896C105.306 39.2669 103.419 38.9234 100.654 39.3308C100.267 39.3879 99.9626 39.6886 99.8857 40.0729C99.7667 40.6679 100.227 41.2199 100.833 41.2324C103.95 41.2965 105.448 41.7929 107.297 42.3691C107.852 42.5422 108.448 42.2832 108.708 41.7628Z" fill="#3E1908"/>
<ellipse rx="1.79248" ry="2.15098" transform="matrix(-1 0 0 1 117.221 47.3219)" fill="#130502"/>
<ellipse rx="1.79248" ry="2.15098" transform="matrix(-1 0 0 1 103.6 45.1725)" fill="#130502"/>
<path d="M111.487 47.3228C111.487 47.3228 115.023 52.7963 113.637 55.5682C112.741 57.3606 110.77 56.6436 110.77 56.6436" stroke="#F59C7F" stroke-width="2.57263" stroke-linecap="round" stroke-linejoin="round"/>
<path d="M115.787 65.6059L116.223 62.3365C116.386 61.1131 115.658 59.9462 114.487 59.5559L103.019 55.7333C102.062 55.4143 101.007 55.6841 100.32 56.4234L96.7871 60.2284C96.7871 60.2284 88.6568 57.4939 87.4662 53.0585C86.9581 51.1655 87.4662 48.0396 87.4662 48.0396H83.8813C83.8813 48.0396 82.2798 51.4364 82.0888 53.7755C81.7392 58.0559 83.2701 60.6129 85.6737 64.1719C89.814 70.3023 94.5521 72.759 101.806 74.2098C112.561 76.3607 118.297 66.6813 118.297 66.6813L115.787 65.6059Z" fill="#562104"/>
<path d="M110.051 63.0957C106.693 63.8056 103.808 62.7052 102.164 59.5107" stroke="#F59C7F" stroke-width="2.57263" stroke-linecap="round"/>
<path d="M130.844 18.2843C128.334 9.32193 119.907 16.4918 112.201 16.4918C103.598 16.4919 96.3544 11.9436 90.6922 12.9069C84.0152 14.0428 83.5217 21.5106 83.5217 21.5106C81.7177 20.9949 78.9831 22.5771 77.7864 26.1712C76.8244 29.0604 76.7822 33.6303 79.5781 36.5675C81.4942 38.5803 84.2386 41.9449 84.2386 41.9449L83.8801 48.0394H87.465L87.8235 39.077C87.8235 39.077 90.156 37.0477 93.9179 36.5675C97.6798 36.0873 99.2185 37.8422 100.371 35.8505C101.85 33.2943 101.088 28.3221 101.088 28.3221C101.088 28.3221 104.279 31.0665 109.333 32.2655C114.028 33.3792 120.447 31.907 122.598 36.926C123.861 39.8732 121.023 47.5332 120.447 48.3978C119.87 49.2625 120.686 49.8318 121.164 49.1148C122.942 46.4469 128.535 38.8386 127.617 33.341C127.059 30.0011 124.032 29.039 124.032 29.039C124.032 29.039 132.438 23.978 130.844 18.2843Z" fill="#562104"/>
<path d="M128.691 87.8322L125.465 86.7567L120.446 85.3228V116.87H128.333L128.691 87.8322Z" fill="#AEEDBC"/>
<path d="M65.5919 82.813L58.7805 85.3225C65.4221 100.021 67.1232 104.608 67.9127 118.304H75.9883C74.5366 102.483 72.7792 96.7002 65.5919 82.813Z" fill="#AEEDBC"/>
<path d="M154.143 120.814L130.483 131.569C130.483 131.569 140.162 171.004 153.068 176.023C165.974 181.042 206.125 157.74 206.125 157.74L218.314 156.664C220.734 155.699 221.645 154.475 222.616 151.287C226.408 148.598 227.506 147.105 226.918 144.475C228.899 140.987 230.039 139.032 230.503 135.513C232.852 133.045 234.573 130.23 233.012 129.06C231.452 127.889 226.201 135.154 226.201 135.154H222.975C222.975 135.154 221.899 133.362 219.748 134.796C217.597 136.23 212.392 136.508 207.918 139.456C203.701 142.235 200.748 148.06 200.748 148.06L163.464 154.872L154.143 120.814Z" fill="#F6B192"/>
<path d="M219.24 139.489C216.519 142.291 214.774 143.038 211.353 143.074" stroke="#F18E73" stroke-width="1.28631" stroke-linecap="round"/>
<path d="M163.33 154.539C160.848 157.243 159.234 157.656 156.16 157.407" stroke="#F18E73" stroke-width="1.28631" stroke-linecap="round"/>
<path d="M220.888 149.5C220.888 149.5 211.144 146.267 210.785 148.06C210.536 149.308 213.603 150.838 215.087 152.004C216.413 153.045 215.804 154.513 215.804 154.513" stroke="#F18E73" stroke-width="1.28631"/>
<path d="M224.048 149.853C224.048 149.853 227.813 146.626 226.558 145.192C224.049 142.324 223.332 140.532 221.181 141.607C218.313 143.758 222.256 146.985 222.256 146.985" stroke="#F18E73" stroke-width="1.28631" stroke-linecap="round"/>
<path d="M230.145 135.513C227.89 133.806 225.484 134.079 224.767 139.456" stroke="#F18E73" stroke-width="1.28631" stroke-linecap="round"/>
<path d="M235.163 125.833C237.673 122.965 234.087 120.814 234.087 120.814L212.578 148.06C212.578 148.06 216.163 150.57 218.314 147.343C220.465 144.117 232.654 128.701 235.163 125.833Z" fill="white"/>
<path d="M143.758 120.977C143.826 136.913 142.253 147.074 140.519 160.247C137.919 154.537 136.584 151.247 134.424 145.191L105.386 125.473C116.394 125.27 136.491 120.989 142.198 119.726C142.999 119.549 143.754 120.156 143.758 120.977Z" fill="#F18E73"/>
<path d="M105.387 125.473C116.375 125.168 136.462 120.964 142.186 119.722C142.992 119.547 143.746 120.163 143.746 120.987L143.746 125.473L127.255 133.002L105.387 125.473Z" fill="#EAE8E8"/>
<path d="M136.57 112.121C136.576 111.169 135.574 110.53 134.7 110.907C129.521 113.142 114.272 119.021 97.1416 119.021C80.8117 119.021 69.6021 114.533 65.3402 112.487C64.4608 112.065 63.3759 112.677 63.3271 113.652C62.9549 121.078 61.5449 145.652 58.7603 155.545C55.9603 165.493 47.1351 183.631 46.9408 190.058C45.5553 235.87 44.4574 226.85 48.7932 259.085C50.8533 274.4 52.5588 285.1 53.5597 299.271C55.9623 333.289 60.9562 352.947 60.9562 387.003C60.9562 392.34 56.091 394.301 56.091 404.639C56.091 425.476 54.8356 451.917 54.4075 460.327C54.3325 461.801 55.508 463.021 56.9842 463.021H90.4243C91.6714 463.021 92.7389 462.127 92.9572 460.899L97.1764 437.166C97.3165 436.378 96.7104 435.655 95.9099 435.655H93.0877C92.2275 435.655 91.6088 434.827 91.8512 434.001C93.5347 428.268 99.1716 408.864 102.31 395.517C106.629 377.154 115.882 354.909 117.858 336.148C120.87 307.561 121.168 303.526 121.168 275.159C121.168 260.412 125.824 242.139 127.314 227.881C129.813 203.97 130.623 198.096 132.515 176.82C134.347 156.202 136.442 133.72 136.57 112.121Z" fill="#AEEDBC"/>
<path d="M117.218 152.719C117.935 152.36 118.652 132.285 118.652 132.285C105.451 133.098 97.9844 133.066 84.5952 132.285L83.8782 164.908" stroke="#43D14F" stroke-width="2.57263" stroke-linecap="round" stroke-linejoin="round"/>
<path d="M113.275 138.021C103.755 138.991 98.419 139.085 88.8977 138.021" stroke="#43D14F" stroke-width="2.57263" stroke-linecap="round" stroke-linejoin="round"/>
<path d="M56.6321 131.299L26.5184 129.148L29.0279 164.64L27.9524 207.659L36.0227 257.558V271.37C36.0227 271.83 36.3343 272.232 36.7726 272.372C38.0744 272.787 40.7944 273.815 42.6863 275.633C44.5065 277.382 46.3051 276.542 48.3597 278.47C50.2963 280.286 52.6167 281.893 53.659 279.451C55.0392 276.218 47.5776 270.905 47.5776 270.905C47.5776 270.905 49.3738 266.56 51.8346 267.123C54.4222 267.714 56.397 276.106 59.2335 274.215C60.6249 273.287 51.8346 255.125 51.8346 255.125L46.9694 249.652L48.3867 208.376C48.3867 208.376 47.6921 181.813 49.8207 164.998C51.5068 151.678 56.6321 131.299 56.6321 131.299Z" fill="#F6B192"/>
<rect width="39.7138" height="45.3872" transform="matrix(-1 0 0 1 63.0176 290.289)" fill="#D0F2F4"/>
<rect width="39.7138" height="26.4759" transform="matrix(-1 0 0 1 63.0176 299.744)" fill="white"/>
<rect width="7.56454" height="45.3872" transform="matrix(-1 0 0 1 30.8672 290.289)" fill="#16BDC8"/>
<rect width="41.605" height="0.945567" rx="0.472784" transform="matrix(-1 0 0 1 63.9629 290.289)" fill="black"/>
<path d="M54.9531 281.306C54.9531 275.054 49.8852 269.986 43.6335 269.986C37.3819 269.986 32.3139 275.054 32.3139 281.306V290.734H54.9531V281.306Z" stroke="black"/>
<ellipse rx="6.14619" ry="4.72784" transform="matrix(-1 0 0 1 52.1448 312.982)" fill="#16BDC8"/>
<rect width="41.605" height="0.945567" rx="0.472784" transform="matrix(-1 0 0 1 63.9629 334.73)" fill="black"/>
<path d="M56.6321 131.299L26.5184 129.148L29.0279 164.639L27.9524 207.659L36.0227 257.557V271.37C36.0227 271.83 36.3343 272.232 36.7726 272.372C38.0744 272.787 40.7944 273.814 42.6863 275.632C44.5065 277.382 46.3051 276.542 48.3597 278.469C50.2963 280.286 52.6167 281.893 53.659 279.451C55.0392 276.217 47.5776 270.905 47.5776 270.905C47.5776 270.905 49.3738 266.56 51.8346 267.122C54.4222 267.714 56.397 276.105 59.2335 274.214C60.6249 273.286 51.8346 255.125 51.8346 255.125L46.9694 249.652L48.3867 208.376C48.3867 208.376 47.6921 181.813 49.8207 164.998C51.5068 151.678 56.6321 131.299 56.6321 131.299Z" fill="#F6B192"/>
<path d="M56.6309 130.671L26.5172 129.058L27.2342 137.124L54.8384 138.021L56.6309 130.671Z" fill="#F18E73"/>
<path d="M34.1383 166.474C34.4617 166.327 34.8429 166.47 34.9899 166.793C35.1368 167.116 34.9937 167.498 34.6703 167.645L34.1383 166.474ZM34.6703 167.645C33.4543 168.197 32.5163 168.198 31.618 168.062C30.7064 167.924 30.0406 167.702 29.0269 167.702V166.416C30.1641 166.416 31.1101 166.684 31.811 166.79C32.5252 166.899 33.2004 166.9 34.1383 166.474L34.6703 167.645Z" fill="#F18E73"/>
<path d="M33.4929 203.315C33.844 203.261 34.1721 203.503 34.2256 203.854C34.2792 204.205 34.038 204.533 33.6868 204.586L33.4929 203.315ZM33.6868 204.586C32.3186 204.795 31.4413 204.797 30.6279 204.743C29.8086 204.69 29.1658 204.594 28.1165 204.594V203.308C29.2182 203.308 29.9921 203.413 30.7118 203.46C31.4373 203.507 32.2212 203.509 33.4929 203.315L33.6868 204.586Z" fill="#F18E73"/>
<path d="M33.4929 205.747C33.844 205.694 34.1721 205.935 34.2256 206.286C34.2792 206.637 34.038 206.966 33.6868 207.019L33.4929 205.747ZM33.6868 207.019C32.3186 207.228 31.4413 207.229 30.6279 207.176C29.8086 207.122 29.1658 207.026 28.1165 207.026V205.74C29.2182 205.74 29.9921 205.845 30.7118 205.893C31.4373 205.94 32.2212 205.941 33.4929 205.747L33.6868 207.019Z" fill="#F18E73"/>
<path d="M33.4929 208.18C33.844 208.127 34.1721 208.368 34.2256 208.719C34.2792 209.07 34.038 209.398 33.6868 209.452L33.4929 208.18ZM33.6868 209.452C32.3162 209.661 31.3578 209.662 30.5075 209.609C29.6355 209.555 29.0066 209.459 28.1165 209.459V208.173C29.0509 208.173 29.8387 208.278 30.5873 208.325C31.3576 208.373 32.2236 208.374 33.4929 208.18L33.6868 209.452Z" fill="#F18E73"/>
<path d="M160.865 145.401L140.947 160.838C141.287 159.87 141.445 169.801 153.396 176.274C166.302 181.293 206.125 157.739 206.125 157.739L218.314 156.663C220.734 155.698 221.645 154.474 222.616 151.286C226.408 148.597 227.506 147.104 226.918 144.475C228.899 140.987 230.039 139.031 230.503 135.512C232.852 133.045 234.573 130.23 233.013 129.059C231.452 127.889 226.201 135.154 226.201 135.154H222.975C222.975 135.154 221.899 133.361 219.748 134.795C217.597 136.229 212.392 136.507 207.918 139.456C203.701 142.234 200.748 148.06 200.748 148.06L163.464 154.871L160.865 145.401Z" fill="#F6B192"/>
<path d="M219.24 139.489C216.519 142.291 214.774 143.038 211.353 143.074" stroke="#F18E73" stroke-width="1.28631" stroke-linecap="round"/>
<path d="M163.33 154.539C160.848 157.243 159.234 157.656 156.16 157.407" stroke="#F18E73" stroke-width="1.28631" stroke-linecap="round"/>
<path d="M220.888 149.5C220.888 149.5 211.144 146.267 210.785 148.06C210.536 149.308 213.603 150.838 215.087 152.004C216.413 153.045 215.804 154.513 215.804 154.513" stroke="#F18E73" stroke-width="1.28631"/>
<path d="M224.048 149.853C224.048 149.853 227.813 146.626 226.558 145.192C224.049 142.324 223.332 140.532 221.181 141.607C218.313 143.758 222.256 146.985 222.256 146.985" stroke="#F18E73" stroke-width="1.28631" stroke-linecap="round"/>
<path d="M230.145 135.513C227.89 133.806 225.484 134.079 224.767 139.456" stroke="#F18E73" stroke-width="1.28631" stroke-linecap="round"/>
<path d="M235.163 125.833C237.673 122.965 234.087 120.814 234.087 120.814L212.578 148.06C212.578 148.06 216.163 150.57 218.314 147.343C220.465 144.117 232.654 128.701 235.163 125.833Z" fill="black"/>
<path d="M236.19 84.5615C236.19 88.1307 237.982 93.8542 239.286 96.949C240.369 99.517 240.45 102.779 239.727 106.087C239.562 106.844 240.237 107.543 240.989 107.351C243.803 106.633 247.073 105.918 249.351 107.014C252.748 108.647 258.105 110.498 262.126 110.498C276.45 110.498 288.062 98.8858 288.062 84.5615C288.062 70.2372 276.45 58.625 262.126 58.625C247.802 58.625 236.19 70.2372 236.19 84.5615Z" fill="#27C134"/>
<path d="M238.08 82.6704C238.08 86.2396 239.873 91.9631 241.177 95.0579C242.259 97.6259 242.34 100.888 241.618 104.195C241.453 104.953 242.128 105.652 242.879 105.46C245.694 104.742 248.964 104.027 251.242 105.123C254.639 106.756 259.995 108.607 264.017 108.607C278.341 108.607 289.953 96.9947 289.953 82.6704C289.953 68.346 278.341 56.7339 264.017 56.7339C249.692 56.7339 238.08 68.346 238.08 82.6704Z" fill="#43D14F"/>
<path fill-rule="evenodd" clip-rule="evenodd" d="M260.504 94.7306C260.646 94.6338 260.781 94.523 260.907 94.3984L278.237 77.2986C279.376 76.1744 279.382 74.3454 278.25 73.2135C277.118 72.0817 275.277 72.0755 274.138 73.1998L258.821 88.3137L253.5 82.9215C252.376 81.7821 250.547 81.776 249.415 82.9078C248.283 84.0397 248.277 85.8809 249.401 87.0203L256.73 94.4472C257.756 95.4874 259.37 95.583 260.504 94.7306Z" fill="white"/>
</svg>
