<svg width="26" height="26" viewBox="0 0 26 26" fill="none" xmlns="http://www.w3.org/2000/svg">
<path fill-rule="evenodd" clip-rule="evenodd" d="M13 1C19.633 1 25 6.36774 25 13C25 19.6037 19.6504 25 13 25C6.32214 25 1 19.5735 1 13C1 6.367 6.36774 1 13 1ZM23.5938 13C23.5938 7.15857 18.8414 2.40625 13 2.40625C7.15857 2.40625 2.40625 7.15857 2.40625 13C2.40625 15.1368 3.04181 17.1907 4.22046 18.9304C8.96198 13.8302 17.0466 13.8394 21.7795 18.9304C22.9582 17.1907 23.5938 15.1368 23.5938 13ZM5.09753 20.0547C9.30566 15.3346 16.6954 15.3357 20.9023 20.0547C16.6801 24.7784 9.32159 24.7799 5.09753 20.0547ZM17.2188 9.48438C17.2188 11.8105 15.3262 13.7031 13 13.7031C10.6738 13.7031 8.78125 11.8105 8.78125 9.48438V8.07812C8.78125 5.75195 10.6738 3.85938 13 3.85938C15.3262 3.85938 17.2188 5.75195 17.2188 8.07812V9.48438ZM13 5.26562C11.4491 5.26562 10.1875 6.52722 10.1875 8.07812V9.48438C10.1875 11.0353 11.4491 12.2969 13 12.2969C14.5509 12.2969 15.8125 11.0353 15.8125 9.48438V8.07812C15.8125 6.52722 14.5509 5.26562 13 5.26562Z" fill="#43D14F"/>
<path d="M4.22046 18.9304L4.01349 19.0706L4.18968 19.3307L4.40356 19.1006L4.22046 18.9304ZM21.7795 18.9304L21.5964 19.1006L21.8103 19.3307L21.9865 19.0706L21.7795 18.9304ZM5.09753 20.0547L4.91093 19.8883L4.76241 20.0549L4.91115 20.2213L5.09753 20.0547ZM20.9023 20.0547L21.0887 20.2213L21.2374 20.0549L21.0889 19.8883L20.9023 20.0547ZM25.25 13C25.25 6.22968 19.7711 0.75 13 0.75V1.25C19.4949 1.25 24.75 6.5058 24.75 13H25.25ZM13 25.25C19.7891 25.25 25.25 19.7411 25.25 13H24.75C24.75 19.4663 19.5117 24.75 13 24.75V25.25ZM0.75 13C0.75 19.7101 6.18266 25.25 13 25.25V24.75C6.46163 24.75 1.25 19.4368 1.25 13H0.75ZM13 0.75C6.22968 0.75 0.75 6.22892 0.75 13H1.25C1.25 6.50509 6.5058 1.25 13 1.25V0.75ZM13 2.65625C18.7034 2.65625 23.3438 7.29664 23.3438 13H23.8438C23.8438 7.0205 18.9795 2.15625 13 2.15625V2.65625ZM2.65625 13C2.65625 7.29664 7.29664 2.65625 13 2.65625V2.15625C7.0205 2.15625 2.15625 7.0205 2.15625 13H2.65625ZM4.42743 18.7902C3.27683 17.0919 2.65625 15.0869 2.65625 13H2.15625C2.15625 15.1868 2.80679 17.2896 4.01349 19.0706L4.42743 18.7902ZM21.9626 18.7602C17.131 13.5629 8.87789 13.5535 4.03736 18.7602L4.40356 19.1006C9.04606 14.1069 16.9623 14.1158 21.5964 19.1006L21.9626 18.7602ZM23.3438 13C23.3438 15.0869 22.7232 17.0919 21.5726 18.7902L21.9865 19.0706C23.1932 17.2896 23.8438 15.1868 23.8438 13H23.3438ZM5.28414 20.2211C9.39284 15.6125 16.6082 15.6136 20.7157 20.221L21.0889 19.8883C16.7826 15.0578 9.21849 15.0567 4.91093 19.8883L5.28414 20.2211ZM20.7159 19.8881C16.593 24.5007 9.40858 24.5021 5.28392 19.8881L4.91115 20.2213C9.23461 25.0577 16.7671 25.0562 21.0887 20.2213L20.7159 19.8881ZM13 13.9531C15.4642 13.9531 17.4688 11.9486 17.4688 9.48438H16.9688C16.9688 11.6725 15.1881 13.4531 13 13.4531V13.9531ZM8.53125 9.48438C8.53125 11.9486 10.5358 13.9531 13 13.9531V13.4531C10.8119 13.4531 9.03125 11.6725 9.03125 9.48438H8.53125ZM8.53125 8.07812V9.48438H9.03125V8.07812H8.53125ZM13 3.60938C10.5358 3.60938 8.53125 5.61388 8.53125 8.07812H9.03125C9.03125 5.89002 10.8119 4.10938 13 4.10938V3.60938ZM17.4688 8.07812C17.4688 5.61388 15.4642 3.60938 13 3.60938V4.10938C15.1881 4.10938 16.9688 5.89002 16.9688 8.07812H17.4688ZM17.4688 9.48438V8.07812H16.9688V9.48438H17.4688ZM10.4375 8.07812C10.4375 6.66529 11.5872 5.51562 13 5.51562V5.01562C11.311 5.01562 9.9375 6.38915 9.9375 8.07812H10.4375ZM10.4375 9.48438V8.07812H9.9375V9.48438H10.4375ZM13 12.0469C11.5872 12.0469 10.4375 10.8972 10.4375 9.48438H9.9375C9.9375 11.1733 11.311 12.5469 13 12.5469V12.0469ZM15.5625 9.48438C15.5625 10.8972 14.4128 12.0469 13 12.0469V12.5469C14.689 12.5469 16.0625 11.1733 16.0625 9.48438H15.5625ZM15.5625 8.07812V9.48438H16.0625V8.07812H15.5625ZM13 5.51562C14.4128 5.51562 15.5625 6.66529 15.5625 8.07812H16.0625C16.0625 6.38915 14.689 5.01562 13 5.01562V5.51562Z" fill="#43D14F"/>
</svg>
