<svg width="16" height="16" viewBox="0 0 16 16" fill="none" xmlns="http://www.w3.org/2000/svg">
<rect x="1" y="3" width="14" height="12" rx="2" stroke="#86969E" stroke-width="2" stroke-linecap="round" stroke-linejoin="round"/>
<rect x="3" width="2" height="4" rx="1" fill="#86969E"/>
<rect x="11" width="2" height="4" rx="1" fill="#86969E"/>
<rect x="3" y="5" width="2" height="2" rx="1" fill="#86969E"/>
<rect x="3" y="8" width="2" height="2" rx="1" fill="#86969E"/>
<rect x="3" y="11" width="2" height="2" rx="1" fill="#86969E"/>
<rect x="7" y="5" width="2" height="2" rx="1" fill="#86969E"/>
<rect x="7" y="8" width="2" height="2" rx="1" fill="#86969E"/>
<rect x="7" y="11" width="2" height="2" rx="1" fill="#86969E"/>
<rect x="11" y="5" width="2" height="2" rx="1" fill="#86969E"/>
<rect x="11" y="8" width="2" height="2" rx="1" fill="#86969E"/>
<rect x="11" y="11" width="2" height="2" rx="1" fill="#86969E"/>
</svg>
