<svg width="28" height="28" viewBox="0 0 28 28" fill="none" xmlns="http://www.w3.org/2000/svg">
<path d="M2.75049 10.1285C2.75049 9.21177 3.17157 8.34383 3.89028 7.77482C4.93573 6.94712 6.21638 6.46444 7.54817 6.39828L22.927 5.63434C25.2113 5.52087 27.1255 7.34234 27.1255 9.62941L27.1255 24.3008C27.1255 25.9576 25.7823 27.3008 24.1255 27.3008H4.75049C3.64592 27.3008 2.75049 26.4054 2.75049 25.3008V10.1285Z" fill="#61D86B"/>
<path d="M1 9.84607C1 8.98915 1.36644 8.17314 2.00691 7.60384L3.46521 6.30758C4.01436 5.81944 4.72355 5.5498 5.4583 5.5498H22.8431C23.6388 5.5498 24.4019 5.86588 24.9645 6.42848L26.1213 7.58534C26.6839 8.14795 27 8.91101 27 9.70666V23.8248C27 25.4817 25.6569 26.8248 24 26.8248H4C2.34315 26.8248 1 25.4817 1 23.8248V9.84607Z" stroke="#031F88" stroke-width="2"/>
<path d="M6.99951 12.4243H20.9995L15.3995 18.7243H12.5995L6.99951 12.4243Z" fill="#64D56D"/>
<path d="M4.375 4.5498H22.5C23.6046 4.5498 24.5 5.44524 24.5 6.5498V10.6815L16.4052 17.7151C15.2766 18.6957 13.5984 18.6957 12.4698 17.7151L4.375 10.6815V4.5498Z" fill="#C4E1C7"/>
<path d="M6.49914 4.00012C6.49908 3.44779 6.94681 3 7.49914 3H22.5002C23.6047 3 24.5001 3.89528 24.5002 4.99976L24.501 11.051L14.6863 18.0132C14.2896 18.2946 13.7481 18.2498 13.403 17.9071L6.5 11.051L6.49914 4.00012Z" fill="#61D86B"/>
<path d="M13.9862 4.17492C13.7879 4.17841 13.599 4.26013 13.4609 4.40224C13.3227 4.54436 13.2465 4.73531 13.2488 4.93338V5.56445C12.037 5.79153 11.0002 6.57099 11.0002 7.92183C11.0002 8.85892 11.4231 9.61683 11.9911 10.0581C12.5591 10.4994 13.2005 10.695 13.7634 10.8825C14.3262 11.0699 14.8122 11.2491 15.0885 11.4637C15.3648 11.6784 15.4975 11.8591 15.4975 12.4213C15.4975 13.6708 12.5012 13.6708 12.5012 12.4213C12.5035 12.3215 12.4857 12.2222 12.449 12.1293C12.4122 12.0364 12.3573 11.9518 12.2874 11.8804C12.2175 11.809 12.134 11.7523 12.0418 11.7135C11.9497 11.6748 11.8507 11.6548 11.7507 11.6548C11.6507 11.6548 11.5517 11.6748 11.4596 11.7135C11.3674 11.7523 11.2839 11.809 11.214 11.8804C11.1441 11.9518 11.0892 12.0364 11.0525 12.1293C11.0157 12.2222 10.998 12.3215 11.0002 12.4213C11.0002 13.7711 12.0379 14.5521 13.2488 14.7802V15.4083C13.2466 15.5082 13.2644 15.6074 13.3011 15.7003C13.3378 15.7932 13.3928 15.8779 13.4627 15.9493C13.5326 16.0207 13.6161 16.0774 13.7082 16.1161C13.8004 16.1549 13.8994 16.1748 13.9994 16.1748C14.0993 16.1748 14.1983 16.1549 14.2905 16.1161C14.3826 16.0774 14.4661 16.0207 14.536 15.9493C14.606 15.8779 14.6609 15.7932 14.6976 15.7003C14.7343 15.6074 14.7521 15.5082 14.7499 15.4083V14.7802C15.961 14.5522 17 13.7713 17 12.4213C17 11.4842 16.5756 10.7263 16.0076 10.2851C15.4396 9.84378 14.7983 9.64666 14.2354 9.45924C13.6725 9.27183 13.1866 9.09411 12.9102 8.87942C12.6339 8.66473 12.5012 8.48408 12.5012 7.92183C12.5012 6.67237 15.4975 6.67237 15.4975 7.92183C15.4975 8.12085 15.5766 8.31171 15.7175 8.45244C15.8584 8.59317 16.0495 8.67223 16.2487 8.67223C16.448 8.67223 16.6391 8.59317 16.78 8.45244C16.9208 8.31171 17 8.12085 17 7.92183C17 6.57302 15.9607 5.79434 14.7499 5.56592V4.93338C14.7511 4.83308 14.7321 4.73356 14.6941 4.64072C14.6561 4.54787 14.5998 4.4636 14.5286 4.39287C14.4573 4.32215 14.3726 4.26642 14.2795 4.22898C14.1863 4.19154 14.0866 4.17316 13.9862 4.17492Z" fill="#031F88" stroke="#031F88" stroke-width="0.5"/>
<path d="M4.5 4.1748C4.5 2.51795 5.84315 1.1748 7.5 1.1748H20.5C22.1569 1.1748 23.5 2.51795 23.5 4.1748V10.109L15.4126 18.1778C14.6319 18.9567 13.3681 18.9567 12.5874 18.1778L4.5 10.1087V4.1748Z" stroke="#031F88" stroke-width="2"/>
<path d="M1.58035 8.8139L12.1133 18.4592C13.1553 19.4134 14.8447 19.4134 15.8867 18.4592L26.4196 8.8139C26.745 8.51595 26.7803 8.01548 26.5 7.6748L15.2971 17.9193C14.5807 18.5753 13.4193 18.5753 12.7029 17.9193L1.5 7.6748C1.21968 8.01548 1.25498 8.51595 1.58035 8.8139Z" fill="#031F88" stroke="#031F88"/>
<path d="M1.93075 24.9654C2.30759 25.8023 2.99496 26.6748 4 26.6748H23.5871C24.6946 26.6748 25.8088 25.6771 26.1108 24.7031L17.9237 16.8028L18.5 15.6748L26.6237 23.3207C26.8598 23.5428 26.9836 23.8692 26.883 24.1773C26.4454 25.5177 25.0598 26.6748 23.5871 26.6748H4C2.67409 26.6748 1.66371 25.8567 1.18963 24.7454C1.04432 24.4048 1.17309 24.0209 1.44986 23.7749L10 16.1748L10.5 17.1748L1.93075 24.9654Z" fill="#031F88"/>
<path d="M4 26.6748C2.99496 26.6748 2.30759 25.8023 1.93075 24.9654L10.5 17.1748L10 16.1748L1.44986 23.7749C1.17309 24.0209 1.04432 24.4048 1.18963 24.7454C1.66371 25.8567 2.67409 26.6748 4 26.6748ZM4 26.6748H23.5871M23.5871 26.6748C24.6946 26.6748 25.8088 25.6771 26.1108 24.7031L17.9237 16.8028L18.5 15.6748L26.6237 23.3207C26.8598 23.5428 26.9836 23.8692 26.883 24.1773C26.4454 25.5177 25.0598 26.6748 23.5871 26.6748Z" stroke="#031F88"/>
</svg>
