<svg width="28" height="28" viewBox="0 0 28 28" fill="none" xmlns="http://www.w3.org/2000/svg">
<path d="M26.3895 20.4752C26.3122 20.4143 21.3893 16.6946 19.8487 16.9829C19.1133 17.1121 18.6928 17.61 17.849 18.6068C17.7132 18.7678 17.387 19.1534 17.1333 19.4277C16.6001 19.255 15.6249 18.2718 15.1217 18.0257C12.5247 16.7705 10.4264 14.6875 9.16202 12.1094C8.91392 11.61 8.70219 11.0936 8.52843 10.5641C8.80562 10.3114 9.19407 9.98757 9.36001 9.84904C10.3594 9.01603 10.862 8.59859 10.9921 7.86666C11.2589 6.35039 8.48405 4.04417 8.44162 3.99362C8.25819 3.73349 8.01251 2.74669 7.73449 2.58967C7.45647 2.43265 8.05353 1.91131 7.73456 1.8877C6.0959 1.8877 3.26618 7.46673 3.26618 7.46673C3.26618 7.46673 2.79954 10.2667 8.64442 17.7452C17.5882 26.4298 21.0788 26.3892 21.1382 26.3892C22.1612 26.3892 27.2993 23.693 27.2993 22.0663C27.2758 21.7508 27.182 21.4443 27.0246 21.1692C26.8673 20.894 26.6504 20.657 26.3895 20.4752Z" fill="#43D14F" fill-opacity="0.8"/>
<path fill-rule="evenodd" clip-rule="evenodd" d="M25.9823 21.6566L25.9398 21.6228C25.9448 21.6268 25.927 21.6142 25.8888 21.5871C25.6303 21.4038 24.4387 20.5586 23.0891 19.7324C22.3204 19.2618 21.5542 18.831 20.9179 18.5407C20.6207 18.4051 20.3895 18.3177 20.2244 18.2692C20.1543 18.3314 20.0578 18.4285 19.9149 18.589C19.769 18.7526 19.6057 18.9468 19.3921 19.2009C19.2607 19.3578 18.9123 19.7732 18.6287 20.0821L17.8165 20.9668L16.6748 20.5944C16.0639 20.3952 15.468 20.1527 14.8916 19.8689C11.9487 18.4351 9.57065 16.0571 8.13677 13.1142C7.85267 12.5376 7.61014 11.9414 7.41102 11.3302L7.03922 10.189L7.92325 9.37714C8.2235 9.1014 8.62462 8.76417 8.79158 8.6238L8.80876 8.60935C9.06243 8.39637 9.25606 8.23366 9.41925 8.08831C9.57355 7.95089 9.66893 7.85668 9.73099 7.78767C9.68002 7.61983 9.59072 7.38769 9.45491 7.09183C9.16075 6.45101 8.72717 5.67992 8.2561 4.90807C7.5132 3.6908 6.7762 2.63023 6.51056 2.24796C6.43188 2.13474 6.39455 2.08102 6.41066 2.10035L6.36043 2.04008L6.31544 1.9758C6.31394 1.97366 6.31241 1.97155 6.31085 1.96945C6.18011 2.06073 6.01607 2.1889 5.82058 2.35983C5.2578 2.85187 4.59599 3.5551 3.95085 4.32725C3.30973 5.09459 2.72588 5.88101 2.31312 6.51474C2.11461 6.8195 1.97324 7.06215 1.88614 7.23366C2.0051 8.3313 2.84648 13.1968 8.77538 19.2329C14.8054 25.155 19.6696 25.9952 20.7665 26.1139C20.9381 26.0268 21.1808 25.8854 21.4857 25.6869C22.1194 25.2741 22.9058 24.6903 23.6731 24.0492C24.4451 23.4041 25.1483 22.7423 25.6402 22.1795C25.8108 21.9844 25.9388 21.8207 26.03 21.6901C26.0289 21.6893 26.0279 21.6885 26.0268 21.6878L25.9823 21.6566ZM26.1763 21.451C26.1803 21.4398 26.183 21.434 26.1834 21.4339C26.1837 21.4338 26.1817 21.4394 26.1763 21.451ZM28 21.7467C28 23.3688 21.9931 28 20.9804 28C20.9216 28 14.9455 27.9151 7.45547 20.5529C0.0849339 13.0555 0 7.0784 0 7.0196C0 6.00787 4.6312 0 6.25334 0C6.5691 0.0235463 6.87568 0.116988 7.1509 0.273564C7.42611 0.430139 7.66309 0.645934 7.84467 0.905334C7.88667 0.955734 11.8888 6.55013 11.6247 8.06213C11.4962 8.79034 11.0007 9.20638 10.0158 10.0333L9.9996 10.0469C9.83043 10.1891 9.45513 10.5047 9.18587 10.752C9.35787 11.28 9.56748 11.7949 9.81307 12.2929C11.0647 14.8638 13.1418 16.9409 15.7127 18.1925C16.2108 18.438 16.7257 18.6476 17.2536 18.8197C17.5047 18.5463 17.8276 18.1617 17.962 18.0012L17.9661 17.9964C18.7987 17.0056 19.2148 16.5105 19.9416 16.3819C21.4667 16.0944 27.0228 20.0993 27.0993 20.16C27.3576 20.3413 27.5723 20.5777 27.7281 20.8521C27.8838 21.1265 27.9767 21.432 28 21.7467ZM6.56617 1.81659C6.56607 1.81695 6.56026 1.81968 6.54907 1.82369C6.56068 1.81824 6.56627 1.81623 6.56617 1.81659Z" fill="#031F88"/>
</svg>
