<svg width="52" height="52" viewBox="0 0 52 52" fill="none" xmlns="http://www.w3.org/2000/svg">
<path d="M42.25 52H9.75C4.36475 52 0 47.6352 0 42.25V9.75C0 4.36475 4.36475 0 9.75 0H42.25C47.6352 0 52 4.36475 52 9.75V42.25C52 47.6352 47.6352 52 42.25 52Z" fill="#43D14F" fill-opacity="0.2"/>
<path d="M42 26.2857C42 34.9645 34.9645 42 26.2857 42C17.607 42 12 34.9645 12 26.2857C12 18.4286 18.4286 12 26.2857 12C34.9645 12 42 17.607 42 26.2857Z" fill="#43D14F" fill-opacity="0.8"/>
<circle cx="26" cy="26" r="16.5" stroke="#031F88" stroke-width="2"/>
<rect x="21" y="17.25" width="10" height="11.25" rx="5" stroke="#031F88" stroke-width="2"/>
<rect x="25.5" y="6.5" width="1" height="5.25" rx="0.5" stroke="#031F88" stroke-linecap="round"/>
<rect x="25.5" y="40.25" width="1" height="5.25" rx="0.5" stroke="#031F88" stroke-linecap="round"/>
<rect x="40.25" y="26.5" width="1" height="5.25" rx="0.5" transform="rotate(-90 40.25 26.5)" stroke="#031F88" stroke-linecap="round"/>
<rect x="6.5" y="26.5" width="1" height="5.25" rx="0.5" transform="rotate(-90 6.5 26.5)" stroke="#031F88" stroke-linecap="round"/>
<mask id="path-9-inside-1_7107:174784" fill="white">
<path fill-rule="evenodd" clip-rule="evenodd" d="M12.5952 37.25C15.8054 33.4288 20.6193 31 26.0005 31C31.3817 31 36.1956 33.4288 39.4058 37.25C36.1956 41.0712 31.3817 43.5 26.0005 43.5C20.6193 43.5 15.8054 41.0712 12.5952 37.25Z"/>
</mask>
<path d="M12.5952 37.25L11.0639 35.9635L9.98311 37.25L11.0639 38.5365L12.5952 37.25ZM39.4058 37.25L40.9371 38.5365L42.0179 37.25L40.9371 35.9635L39.4058 37.25ZM14.1265 38.5365C16.973 35.1483 21.2349 33 26.0005 33V29C20.0037 29 14.6378 31.7094 11.0639 35.9635L14.1265 38.5365ZM26.0005 33C30.7661 33 35.028 35.1483 37.8744 38.5365L40.9371 35.9635C37.3632 31.7094 31.9973 29 26.0005 29V33ZM37.8744 35.9635C35.028 39.3517 30.7661 41.5 26.0005 41.5V45.5C31.9973 45.5 37.3632 42.7906 40.9371 38.5365L37.8744 35.9635ZM26.0005 41.5C21.2349 41.5 16.973 39.3517 14.1265 35.9635L11.0639 38.5365C14.6378 42.7906 20.0037 45.5 26.0005 45.5V41.5Z" fill="#031F88" mask="url(#path-9-inside-1_7107:174784)"/>
</svg>
