<svg width="52" height="52" viewBox="0 0 52 52" fill="none" xmlns="http://www.w3.org/2000/svg">
<path d="M42.25 52H9.75C4.36475 52 0 47.6352 0 42.25V9.75C0 4.36475 4.36475 0 9.75 0H42.25C47.6352 0 52 4.36475 52 9.75V42.25C52 47.6352 47.6352 52 42.25 52Z" fill="#43D14F" fill-opacity="0.2"/>
<path d="M45 27C45 36.9411 36.9411 45 27 45C17.0589 45 10 36.9411 10 27C10 18 18 10 27 10C36.9411 10 45 17.0589 45 27Z" fill="#43D14F" fill-opacity="0.8"/>
<circle cx="26" cy="26" r="19" stroke="#031F88" stroke-width="2"/>
<path d="M30.0706 21.7566C30.0706 21.7566 30.7297 17.7475 26.0614 17.7475C22.0508 17.7475 22.05 20.9472 22.0508 21.7566C22.0562 26.9501 30.0686 24.4294 30.0686 29.775C30.0686 32.4478 28.7328 33.7842 26.06 33.7842C21.2279 33.7842 22.0535 29.775 22.0535 29.775" stroke="#031F88" stroke-width="2" stroke-linecap="round" stroke-linejoin="round"/>
<rect x="25.5" y="14.5" width="1" height="3" rx="0.5" fill="#031F88" stroke="#031F88"/>
<rect x="25.5" y="33.5" width="1" height="4" rx="0.5" fill="#031F88" stroke="#031F88"/>
</svg>
